<svg width="25" height="14" viewBox="0 0 25 14" fill="none" xmlns="http://www.w3.org/2000/svg">
<path d="M24.0327 7.9768L3.30231 7.9768L7.61532 12.3326C7.99317 12.7139 7.99317 13.3325 7.61532 13.7138C7.23747 14.0954 6.6249 14.0954 6.24761 13.7138L0.283387 7.69073C-0.0944606 7.30939 -0.0944605 6.69072 0.283387 6.30949L6.24761 0.286122C6.43648 0.0952808 6.684 1.16867e-06 6.93147 1.21194e-06C7.17893 1.2552e-06 7.42646 0.095281 7.61532 0.286122C7.99317 0.667466 7.99317 1.28608 7.61532 1.66731L3.30231 6.02331L24.0327 6.02332C24.5669 6.02332 25 6.46068 25 7.00009C25 7.5395 24.5669 7.9768 24.0327 7.9768Z" fill="#CEAC6A"/>
</svg>
