<svg width="580" height="1065" viewBox="0 0 580 1065" fill="none" xmlns="http://www.w3.org/2000/svg">
<path d="M418.156 338.009L397.371 338.007C395.821 338.005 394.335 337.35 393.239 336.187C392.143 335.024 391.527 333.447 391.525 331.803L391.531 280.797C391.533 279.152 392.149 277.576 393.245 276.413C394.341 275.25 395.827 274.596 397.377 274.594L418.162 274.597C419.712 274.599 421.198 275.253 422.294 276.416C423.39 277.579 424.006 279.156 424.008 280.801L424.003 331.806C424.001 333.451 423.384 335.028 422.288 336.191C421.192 337.353 419.706 338.007 418.156 338.009Z" fill="#F7F7F7"/>
<path d="M484.991 1063.98L324.054 1063.96C319.626 1063.96 315.381 1062.08 312.251 1058.75C309.12 1055.41 307.359 1050.88 307.355 1046.17L307.426 353.173C307.431 348.455 309.193 343.932 312.324 340.596C315.456 337.26 319.701 335.384 324.129 335.379L485.244 335.397C489.672 335.403 493.917 337.28 497.047 340.617C500.178 343.954 501.939 348.477 501.943 353.195L501.872 1046.19C501.867 1050.91 502.59 1057.74 499.459 1061.08C496.328 1064.41 489.418 1063.98 484.991 1063.98Z" fill="#4D4B51" fill-opacity="0.3"/>
<path d="M458.648 831.873L334.537 831.859C331.126 831.855 327.856 830.582 325.445 828.321C323.033 826.059 321.677 822.992 321.673 819.794L321.721 350.047C321.726 346.849 323.083 343.783 325.495 341.522C327.907 339.261 331.177 337.989 334.588 337.986L458.699 338C462.11 338.004 465.38 339.277 467.791 341.538C470.203 343.8 471.559 346.866 471.563 350.065L471.515 819.812C471.511 823.01 470.154 826.076 467.741 828.337C465.329 830.598 462.059 831.87 458.648 831.873Z" fill="#F2F2F2"/>
<path d="M400.064 274.595L409.165 274.596L408.844 228.611L408.844 228.593L407.96 59.999C407.046 61.8799 405.707 62.8523 404.636 62.8521C403.565 62.852 403.055 61.8812 402.141 60.0001L400.394 228.592L400.394 228.61L400.064 274.595Z" fill="#BCBCBC" fill-opacity="0.43"/>
<path d="M202.727 410.88L202.661 1060.97C202.66 1062.62 204.003 1063.97 205.66 1063.97L338.86 1063.98C340.517 1063.98 341.86 1062.64 341.861 1060.98L341.928 405.414L341.944 244.132L341.945 235.918C341.946 233.225 338.673 231.896 336.795 233.826L203.581 370.739C203.036 371.299 202.731 372.05 202.731 372.831L202.73 385.6L202.727 410.88Z" fill="#E1E1E1" fill-opacity="0.5"/>
<path d="M275.779 696.028L275.741 1060.97C275.741 1062.63 274.398 1063.97 272.741 1063.97L139.541 1063.96C137.884 1063.96 136.541 1062.62 136.541 1060.96L136.579 692.924L136.588 602.059L136.589 598.473C136.589 596.162 139.092 594.719 141.092 595.878L274.284 673.039C275.211 673.575 275.781 674.564 275.781 675.635L275.78 681.786L275.779 696.028Z" fill="#E1E1E1" fill-opacity="0.3"/>
<path d="M254.874 918.851L254.859 1060.97C254.859 1062.63 253.516 1063.97 251.859 1063.97L102.999 1063.95C101.342 1063.95 99.9992 1062.61 99.9994 1060.95L100.014 917.615L100.018 881.777L100.018 880.555C100.018 879.224 100.895 878.052 102.172 877.677L251.036 833.903C252.958 833.338 254.883 834.778 254.882 836.781L254.875 913.233L254.874 918.851Z" fill="#E1E1E1" fill-opacity="0.25"/>
<path d="M257.524 534.332L276.664 534.334L276.668 492.884L257.528 492.882L257.524 534.332Z" fill="white"/>
<path d="M257.518 593.283L276.658 593.285L276.663 550.914L257.523 550.912L257.518 593.283Z" fill="white"/>
<path d="M257.512 660.523L276.652 660.525L276.657 618.154L257.517 618.152L257.512 660.523Z" fill="white"/>
<path d="M257.505 726.845L276.645 726.848L276.649 684.476L257.509 684.474L257.505 726.845Z" fill="white"/>
<path d="M406.049 338.008L386.544 338.005C385.089 338.003 383.695 337.349 382.667 336.186C381.638 335.023 381.06 333.446 381.059 331.801L381.064 280.795C381.066 279.151 381.644 277.574 382.673 276.411C383.701 275.248 385.096 274.594 386.55 274.592L406.056 274.595C407.51 274.597 408.904 275.251 409.933 276.414C410.961 277.577 411.539 279.154 411.541 280.799L411.536 331.805C411.534 333.45 410.955 335.026 409.927 336.189C408.898 337.352 407.503 338.006 406.049 338.008Z" fill="#E4E4E4" fill-opacity="0.78"/>
<path d="M364.96 442.23L328.456 442.226C327.183 442.225 325.962 441.846 325.062 441.173C324.161 440.5 323.655 439.587 323.654 438.636L323.658 396.996C323.659 396.044 324.166 395.132 325.066 394.459C325.967 393.786 327.188 393.408 328.461 393.407L364.965 393.411C366.238 393.412 367.459 393.791 368.36 394.464C369.26 395.137 369.766 396.049 369.768 397.001L369.764 438.641C369.762 439.593 369.255 440.505 368.355 441.178C367.454 441.851 366.233 442.229 364.96 442.23Z" fill="white"/>
<path d="M430.483 442.24L396.046 442.236C394.844 442.234 393.693 441.856 392.843 441.183C391.994 440.51 391.516 439.597 391.515 438.645L391.519 397.006C391.521 396.054 391.999 395.142 392.848 394.469C393.698 393.796 394.849 393.417 396.051 393.417L430.488 393.421C431.69 393.422 432.841 393.8 433.691 394.473C434.54 395.146 435.018 396.059 435.019 397.011L435.015 438.65C435.013 439.602 434.535 440.515 433.686 441.187C432.836 441.86 431.685 442.239 430.483 442.24Z" fill="white"/>
<path d="M364.954 516.84L328.451 516.836C327.177 516.835 325.956 516.463 325.056 515.803C324.156 515.143 323.649 514.247 323.648 513.314L323.652 472.459C323.654 471.526 324.16 470.631 325.061 469.97C325.961 469.31 327.182 468.939 328.455 468.938L364.959 468.942C366.233 468.943 367.453 469.315 368.354 469.975C369.254 470.636 369.761 471.531 369.762 472.465L369.758 513.319C369.756 514.253 369.25 515.148 368.349 515.808C367.449 516.468 366.228 516.839 364.954 516.84Z" fill="white"/>
<path d="M430.476 516.852L396.038 516.848C394.837 516.846 393.685 516.475 392.836 515.815C391.986 515.154 391.508 514.259 391.507 513.325L391.511 472.471C391.513 471.537 391.991 470.642 392.84 469.982C393.69 469.322 394.842 468.951 396.043 468.95L430.48 468.954C431.682 468.955 432.834 469.326 433.683 469.987C434.532 470.647 435.01 471.542 435.011 472.476L435.007 513.33C435.006 514.264 434.528 515.159 433.678 515.819C432.829 516.479 431.677 516.851 430.476 516.852Z" fill="white"/>
<path d="M364.944 593.295L328.441 593.29C327.167 593.289 325.946 592.91 325.046 592.237C324.146 591.564 323.639 590.652 323.638 589.7L323.642 548.06C323.644 547.109 324.15 546.196 325.051 545.523C325.951 544.851 327.172 544.472 328.446 544.471L364.949 544.475C366.223 544.477 367.444 544.855 368.344 545.528C369.244 546.201 369.751 547.114 369.752 548.066L369.748 589.705C369.746 590.657 369.24 591.569 368.339 592.242C367.439 592.915 366.218 593.294 364.944 593.295Z" fill="white"/>
<path d="M430.468 593.304L396.03 593.3C394.829 593.299 393.677 592.92 392.828 592.247C391.978 591.574 391.501 590.662 391.499 589.71L391.504 548.07C391.505 547.118 391.983 546.206 392.832 545.533C393.682 544.86 394.834 544.482 396.035 544.481L430.473 544.485C431.674 544.486 432.826 544.865 433.675 545.538C434.525 546.211 435.002 547.123 435.004 548.075L434.999 589.715C434.998 590.667 434.52 591.579 433.67 592.252C432.821 592.925 431.669 593.303 430.468 593.304Z" fill="white"/>
<path d="M364.937 668.826L328.433 668.822C327.159 668.82 325.939 668.442 325.038 667.769C324.138 667.096 323.631 666.183 323.63 665.231L323.634 623.592C323.636 622.64 324.143 621.728 325.043 621.055C325.944 620.382 327.164 620.003 328.438 620.003L364.942 620.007C366.215 620.008 367.436 620.387 368.336 621.06C369.237 621.733 369.743 622.645 369.744 623.597L369.74 665.237C369.739 666.188 369.232 667.101 368.331 667.774C367.431 668.446 366.21 668.825 364.937 668.826Z" fill="white"/>
<path d="M430.46 668.835L396.022 668.831C394.821 668.83 393.669 668.451 392.82 667.778C391.97 667.105 391.493 666.193 391.491 665.241L391.496 623.601C391.497 622.65 391.975 621.737 392.825 621.064C393.674 620.392 394.826 620.013 396.027 620.012L430.465 620.016C431.666 620.017 432.818 620.396 433.667 621.069C434.517 621.742 434.994 622.655 434.996 623.606L434.991 665.246C434.99 666.198 434.512 667.11 433.663 667.783C432.813 668.456 431.661 668.834 430.46 668.835Z" fill="white"/>
<path d="M364.931 744.356L328.427 744.352C327.154 744.35 325.933 743.979 325.032 743.318C324.132 742.658 323.626 741.763 323.624 740.829L323.629 699.975C323.63 699.041 324.137 698.146 325.037 697.486C325.938 696.826 327.159 696.455 328.432 696.454L364.936 696.458C366.209 696.459 367.43 696.831 368.33 697.491C369.231 698.151 369.737 699.047 369.739 699.98L369.734 740.834C369.733 741.768 369.226 742.663 368.326 743.323C367.425 743.984 366.204 744.355 364.931 744.356Z" fill="white"/>
<path d="M430.452 744.367L396.015 744.363C394.813 744.362 393.662 743.991 392.812 743.33C391.963 742.67 391.485 741.775 391.484 740.841L391.488 699.987C391.489 699.053 391.967 698.158 392.817 697.498C393.666 696.838 394.818 696.466 396.02 696.465L430.457 696.469C431.658 696.471 432.81 696.842 433.659 697.502C434.509 698.163 434.987 699.058 434.988 699.992L434.984 740.846C434.982 741.78 434.504 742.675 433.655 743.335C432.805 743.995 431.653 744.366 430.452 744.367Z" fill="white"/>
<path d="M487.761 629.812C488.982 629.401 489.803 628.257 489.804 626.97L489.805 616.05C489.805 615.039 489.295 614.095 488.449 613.541L435.805 579.056C435.316 578.736 434.745 578.566 434.161 578.566L266.609 578.547C264.952 578.546 263.608 579.889 263.608 581.546L263.605 613.73C263.605 614.892 264.276 615.95 265.328 616.445L373.586 667.393C374.287 667.723 375.088 667.769 375.821 667.522L487.761 629.812Z" fill="#E4BF80" fill-opacity="0.5"/>
<path d="M263.607 598.068L263.607 593.319L263.608 584.259L263.608 581.545C263.608 579.888 264.952 578.545 266.609 578.545L302.687 578.55C303.467 578.55 304.216 578.854 304.776 579.397L342.263 615.786C342.431 615.948 342.617 616.091 342.818 616.211L356.408 624.303C357.178 624.762 357.703 625.54 357.839 626.426L380.994 777.58C381.024 777.77 381.034 777.962 381.027 778.153L369.83 1061.1C369.766 1062.71 368.442 1063.98 366.832 1063.98L266.559 1063.97C264.902 1063.97 263.559 1062.63 263.559 1060.97L263.605 617.52L263.607 598.068Z" fill="#4D4B51" fill-opacity="0.3"/>
<path d="M227.075 533.408L246.215 533.41L246.219 491.039L227.079 491.037L227.075 533.408Z" fill="white"/>
<path d="M257.53 476.301L276.67 476.303L276.674 433.931L257.534 433.929L257.53 476.301Z" fill="white"/>
<path d="M227.081 475.377L246.221 475.379L246.225 433.008L227.085 433.005L227.081 475.377Z" fill="white"/>
<path d="M257.536 418.271L276.676 418.273L276.685 328.004L257.543 351.297L257.536 418.271Z" fill="white"/>
<path d="M227.087 417.345L246.227 417.348L246.233 358.396L227.091 377.259L227.087 417.345Z" fill="white"/>
<path d="M227.069 591.435L246.209 591.438L246.213 549.987L227.073 549.985L227.069 591.435Z" fill="white"/>
<path d="M227.055 707.498L246.195 707.5L246.2 665.129L227.06 665.127L227.055 707.498Z" fill="white"/>
<path d="M227.063 649.467L246.203 649.469L246.207 608.019L227.067 608.016L227.063 649.467Z" fill="white"/>
<path d="M227.038 885.273L246.178 885.275L246.182 842.904L227.042 842.902L227.038 885.273Z" fill="white"/>
<path d="M227.044 826.322L246.184 826.324L246.188 783.953L227.048 783.951L227.044 826.322Z" fill="white"/>
<path d="M227.032 943.304L246.172 943.307L246.176 900.935L227.036 900.933L227.032 943.304Z" fill="white"/>
<path d="M227.02 1053.84L246.16 1053.84L246.17 958.963L227.03 958.961L227.02 1053.84Z" fill="white"/>
<path d="M227.051 766.449L246.191 766.451L246.196 724.08L227.056 724.078L227.051 766.449Z" fill="white"/>
<path d="M344.516 617.242L489.115 626.565L501.94 1064L344.47 1063.98L344.516 617.242Z" fill="#F7F7F7" fill-opacity="0.9"/>
<path d="M123.336 1034.99L497.67 1047.64L502.001 1064.03L119.001 1063.99L123.336 1034.99Z" fill="#F7F7F7" fill-opacity="0.5"/>
<path d="M227.501 1051.5L480.001 1035L502.001 1045.5L502.001 1064.03L100.432 1063.99L227.501 1051.5Z" fill="#CFCFCF"/>
<path d="M100.431 1063.99L100.5 1064L100.5 1063.99L502 1064.03L502 1040.41L480.001 1027.02L100.431 1054L100.5 1063.99L100.431 1063.99Z" fill="#CFCFCF" fill-opacity="0.2"/>
<path d="M291.001 1054.37L291.004 1029L318.004 1029L318.001 1054.37L293.249 1054.37L291.001 1054.37Z" fill="#F7F7F7" fill-opacity="0.5"/>
<path d="M307.973 631.053L307.974 623.684L318.414 623.686L318.413 631.054L308.843 631.053L307.973 631.053Z" fill="#F7F7F7"/>
<path d="M308.843 637.501L318.414 637.502L318.413 646.713L307.973 646.712L307.974 637.501L308.843 637.501Z" fill="#F7F7F7"/>
<path d="M290.575 623.684L300.145 623.686L300.144 631.054L290.574 631.053L290.575 623.684Z" fill="#F7F7F7"/>
<path d="M290.575 637.501L300.145 637.502L300.144 646.713L290.574 646.712L290.575 637.501Z" fill="#F7F7F7"/>
<path d="M307.969 678.029L307.97 669.739L318.41 669.74L318.409 678.03L308.839 678.029L307.969 678.029Z" fill="#F7F7F7"/>
<path d="M308.84 684.477L318.41 684.479L318.409 692.769L307.969 692.767L307.97 684.477L308.84 684.477Z" fill="#F7F7F7"/>
<path d="M290.571 669.739L300.141 669.74L300.14 678.03L290.57 678.029L290.571 669.739Z" fill="#F7F7F7"/>
<path d="M290.569 684.477L300.139 684.479L300.138 692.769L290.568 692.767L290.569 684.477Z" fill="#F7F7F7"/>
<path d="M307.965 724.087L307.966 714.876L318.406 714.877L318.405 724.088L308.835 724.087L307.965 724.087Z" fill="#F7F7F7"/>
<path d="M308.834 730.534L318.404 730.535L318.404 737.904L307.964 737.903L307.964 730.534L308.834 730.534Z" fill="#F7F7F7"/>
<path d="M290.567 714.876L300.137 714.877L300.136 724.088L290.566 724.087L290.567 714.876Z" fill="#F7F7F7"/>
<path d="M290.563 730.534L300.133 730.535L300.132 737.904L290.562 737.903L290.563 730.534Z" fill="#F7F7F7"/>
<path d="M307.959 771.063L307.96 760.93L318.4 760.932L318.399 771.064L308.829 771.063L307.959 771.063Z" fill="#F7F7F7"/>
<path d="M308.828 776.589L318.398 776.59L318.397 786.722L307.957 786.721L307.958 776.589L308.828 776.589Z" fill="#F7F7F7"/>
<path d="M290.561 760.931L300.131 760.932L300.13 771.064L290.56 771.063L290.561 760.931Z" fill="#F7F7F7"/>
<path d="M290.559 776.589L300.129 776.59L300.128 786.722L290.558 786.721L290.559 776.589Z" fill="#F7F7F7"/>
<path d="M307.956 817.118L307.956 809.749L318.396 809.75L318.396 817.119L308.825 817.118L307.956 817.118Z" fill="#F7F7F7"/>
<path d="M308.824 823.567L318.395 823.568L318.394 832.78L307.954 832.778L307.955 823.567L308.824 823.567Z" fill="#F7F7F7"/>
<path d="M290.555 809.749L300.125 809.75L300.124 817.119L290.554 817.118L290.555 809.749Z" fill="#F7F7F7"/>
<path d="M290.555 823.567L300.125 823.568L300.124 832.78L290.554 832.778L290.555 823.567Z" fill="#F7F7F7"/>
<path d="M307.95 864.095L307.951 855.805L318.391 855.807L318.39 864.097L308.819 864.096L307.95 864.095Z" fill="#F7F7F7"/>
<path d="M308.82 870.542L318.391 870.543L318.39 878.833L307.95 878.832L307.951 870.542L308.82 870.542Z" fill="#F7F7F7"/>
<path d="M290.551 855.806L300.121 855.807L300.12 864.097L290.55 864.096L290.551 855.806Z" fill="#F7F7F7"/>
<path d="M290.551 870.542L300.121 870.543L300.12 878.833L290.55 878.832L290.551 870.542Z" fill="#F7F7F7"/>
<path d="M307.946 910.151L307.947 900.94L318.387 900.941L318.386 910.153L308.815 910.151L307.946 910.151Z" fill="#F7F7F7"/>
<path d="M308.814 917.52L318.385 917.521L318.384 923.969L307.944 923.968L307.945 917.52L308.814 917.52Z" fill="#F7F7F7"/>
<path d="M290.547 900.94L300.117 900.941L300.116 910.153L290.546 910.151L290.547 900.94Z" fill="#F7F7F7"/>
<path d="M290.545 917.52L300.115 917.521L300.115 923.969L290.545 923.968L290.545 917.52Z" fill="#F7F7F7"/>
<path d="M307.942 957.129L307.943 946.997L318.383 946.998L318.382 957.13L308.811 957.129L307.942 957.129Z" fill="#F7F7F7"/>
<path d="M308.808 962.655L318.379 962.656L318.378 972.789L307.938 972.787L307.939 962.655L308.808 962.655Z" fill="#F7F7F7"/>
<path d="M290.541 946.997L300.111 946.998L300.11 957.13L290.54 957.129L290.541 946.997Z" fill="#F7F7F7"/>
<path d="M290.539 962.655L300.109 962.656L300.108 972.789L290.538 972.787L290.539 962.655Z" fill="#F7F7F7"/>
<path d="M307.936 1003.18L307.937 994.893L318.377 994.895L318.376 1003.18L308.805 1003.18L307.936 1003.18Z" fill="#F7F7F7"/>
<path d="M308.804 1010.55L318.375 1010.55L318.374 1017.92L307.934 1017.92L307.935 1010.55L308.804 1010.55Z" fill="#F7F7F7"/>
<path d="M290.535 994.893L300.105 994.895L300.105 1003.18L290.535 1003.18L290.535 994.893Z" fill="#F7F7F7"/>
<path d="M290.535 1010.55L300.105 1010.55L300.105 1017.92L290.535 1017.92L290.535 1010.55Z" fill="#F7F7F7"/>
<path d="M293.141 1053.84L293.143 1032.66L316.633 1032.66L316.631 1053.85L295.097 1053.84L293.141 1053.84Z" fill="#F7F7F7" fill-opacity="0.5"/>
<path d="M362.303 641.329L457.094 647.446C457.875 647.497 458.484 648.145 458.484 648.929C458.483 649.749 457.818 650.414 456.998 650.414L362.173 650.403C361.069 650.403 360.174 649.508 360.174 648.403L360.174 643.325C360.174 642.17 361.15 641.255 362.303 641.329Z" fill="#E3D0AA" fill-opacity="0.5"/>
<path d="M362.17 662.378L456.48 662.388C457.585 662.389 458.48 663.284 458.48 664.389L458.48 669.6C458.48 670.704 457.584 671.6 456.48 671.6L362.17 671.589C361.065 671.589 360.17 670.693 360.17 669.588L360.17 664.377C360.17 663.273 361.066 662.377 362.17 662.378Z" fill="#E3D0AA" fill-opacity="0.5"/>
<path d="M362.169 684.485L456.479 684.496C457.583 684.496 458.478 685.392 458.478 686.496L458.478 691.707C458.478 692.812 457.582 693.707 456.478 693.707L362.168 693.696C361.063 693.696 360.168 692.8 360.168 691.696L360.168 686.485C360.168 685.38 361.064 684.485 362.169 684.485Z" fill="#E3D0AA" fill-opacity="0.5"/>
<path d="M362.167 705.671L456.477 705.681C457.581 705.682 458.476 706.577 458.476 707.682L458.476 712.893C458.476 713.997 457.58 714.893 456.476 714.893L362.166 714.882C361.061 714.882 360.166 713.986 360.166 712.881L360.166 707.67C360.166 706.566 361.062 705.67 362.167 705.671Z" fill="#E3D0AA" fill-opacity="0.5"/>
<path d="M362.147 898.184L456.457 898.195C457.562 898.195 458.457 899.091 458.457 900.195L458.456 905.406C458.456 906.511 457.561 907.406 456.456 907.406L362.146 907.395C361.042 907.395 360.146 906.5 360.146 905.395L360.147 900.184C360.147 899.079 361.042 898.184 362.147 898.184Z" fill="#E3D0AA" fill-opacity="0.5"/>
<path d="M362.145 918.45L456.455 918.461C457.56 918.461 458.455 919.356 458.455 920.461L458.454 926.593C458.454 927.698 457.559 928.593 456.454 928.593L362.144 928.582C361.039 928.582 360.144 927.686 360.144 926.582L360.145 920.45C360.145 919.345 361.041 918.45 362.145 918.45Z" fill="#E3D0AA" fill-opacity="0.5"/>
<path d="M362.143 940.555L456.453 940.566C457.558 940.566 458.453 941.462 458.453 942.566L458.452 948.699C458.452 949.803 457.557 950.699 456.452 950.698L362.142 950.688C361.038 950.687 360.142 949.792 360.142 948.687L360.143 942.555C360.143 941.451 361.039 940.555 362.143 940.555Z" fill="#E3D0AA" fill-opacity="0.5"/>
<path d="M362.141 961.741L456.451 961.752C457.556 961.752 458.451 962.647 458.451 963.752L458.451 968.042C458.45 969.147 457.555 970.042 456.45 970.042L362.14 970.031C361.036 970.031 360.14 969.135 360.141 968.031L360.141 963.741C360.141 962.636 361.037 961.741 362.141 961.741Z" fill="#E3D0AA" fill-opacity="0.5"/>
<path d="M362.165 726.856L456.475 726.867C457.579 726.867 458.475 727.763 458.474 728.867L458.474 734.078C458.474 735.183 457.578 736.078 456.474 736.078L362.164 736.067C361.059 736.067 360.164 735.172 360.164 734.067L360.164 728.856C360.165 727.751 361.06 726.856 362.165 726.856Z" fill="#E3D0AA" fill-opacity="0.5"/>
<path d="M362.163 748.964L456.473 748.974C457.577 748.975 458.473 749.87 458.472 750.975L458.472 756.186C458.472 757.29 457.576 758.186 456.472 758.186L362.162 758.175C361.057 758.175 360.162 757.279 360.162 756.174L360.162 750.963C360.163 749.859 361.058 748.963 362.163 748.964Z" fill="#E3D0AA" fill-opacity="0.5"/>
<path d="M362.161 769.229L456.471 769.24C457.575 769.24 458.471 770.136 458.47 771.24L458.47 777.372C458.47 778.477 457.574 779.372 456.47 779.372L362.16 779.361C361.055 779.361 360.16 778.466 360.16 777.361L360.161 771.229C360.161 770.124 361.056 769.229 362.161 769.229Z" fill="#E3D0AA" fill-opacity="0.5"/>
<path d="M362.159 790.415L456.469 790.426C457.573 790.426 458.469 791.321 458.469 792.426L458.468 797.637C458.468 798.741 457.572 799.637 456.468 799.637L362.158 799.626C361.053 799.626 360.158 798.73 360.158 797.626L360.159 792.414C360.159 791.31 361.054 790.415 362.159 790.415Z" fill="#E3D0AA" fill-opacity="0.5"/>
<path d="M362.155 812.52L456.465 812.531C457.569 812.531 458.465 813.427 458.465 814.531L458.464 819.742C458.464 820.847 457.568 821.742 456.464 821.742L362.154 821.731C361.049 821.731 360.154 820.836 360.154 819.731L360.155 814.52C360.155 813.415 361.05 812.52 362.155 812.52Z" fill="#E3D0AA" fill-opacity="0.5"/>
<path d="M362.153 833.706L456.463 833.717C457.567 833.717 458.463 834.612 458.463 835.717L458.462 840.928C458.462 842.033 457.567 842.928 456.462 842.928L362.152 842.917C361.047 842.917 360.152 842.021 360.152 840.917L360.153 835.705C360.153 834.601 361.048 833.706 362.153 833.706Z" fill="#E3D0AA" fill-opacity="0.5"/>
<path d="M362.151 854.891L456.461 854.902C457.566 854.902 458.461 855.798 458.461 856.902L458.46 862.113C458.46 863.218 457.565 864.113 456.46 864.113L362.15 864.102C361.045 864.102 360.15 863.207 360.15 862.102L360.151 856.891C360.151 855.786 361.046 854.891 362.151 854.891Z" fill="#E3D0AA" fill-opacity="0.5"/>
<path d="M362.149 876.999L456.459 877.01C457.564 877.01 458.459 877.905 458.459 879.01L458.458 884.221C458.458 885.325 457.563 886.221 456.458 886.221L362.148 886.21C361.043 886.21 360.148 885.314 360.148 884.21L360.149 878.998C360.149 877.894 361.044 876.999 362.149 876.999Z" fill="#E3D0AA" fill-opacity="0.5"/>
<path d="M415.207 998.593L456.447 998.597C457.552 998.598 458.447 999.493 458.447 1000.6L458.442 1049.1C458.442 1050.21 457.546 1051.1 456.442 1051.1L415.202 1051.1C414.097 1051.1 413.202 1050.2 413.202 1049.1L413.207 1000.59C413.207 999.488 414.103 998.593 415.207 998.593Z" fill="#E3D0AA" fill-opacity="0.5"/>
<path d="M415.826 999.442L440.535 1007.48C441.359 1007.75 441.917 1008.51 441.917 1009.38L441.913 1049.1C441.913 1050.2 441.017 1051.1 439.913 1051.1L415.203 1051.09C414.098 1051.09 413.203 1050.2 413.203 1049.09L413.208 1001.34C413.208 999.985 414.534 999.022 415.826 999.442Z" fill="#E3D0AA" fill-opacity="0.5"/>
<path d="M360.931 1023.46C360.491 1023.46 360.134 1023.1 360.134 1022.66L360.135 1015.32C360.135 1014.22 361.031 1013.32 362.135 1013.32L367.705 1013.32C368.81 1013.32 369.705 1014.22 369.705 1015.32L369.704 1021.46C369.704 1022.56 368.809 1023.46 367.704 1023.46L360.931 1023.46Z" fill="#E4D0A9" fill-opacity="0.5"/>
<path d="M360.934 998.585L367.707 998.586C368.812 998.586 369.707 999.481 369.707 1000.59L369.706 1004.88C369.706 1005.98 368.811 1006.88 367.706 1006.88L362.136 1006.88C361.032 1006.87 360.136 1005.98 360.136 1004.87L360.137 999.382C360.137 998.942 360.494 998.585 360.934 998.585Z" fill="#E4D0A9" fill-opacity="0.5"/>
<path d="M376.924 1013.32L384.234 1013.32C385.339 1013.32 386.234 1014.22 386.234 1015.32L386.234 1021.46C386.233 1022.56 385.338 1023.46 384.233 1023.46L376.923 1023.46C375.819 1023.46 374.923 1022.56 374.924 1021.46L374.924 1015.32C374.924 1014.22 375.82 1013.32 376.924 1013.32Z" fill="#E4D0A9" fill-opacity="0.5"/>
<path d="M376.926 998.585L384.236 998.586C385.341 998.586 386.236 999.481 386.236 1000.59L386.236 1004.88C386.236 1005.98 385.34 1006.88 384.235 1006.88L376.925 1006.87C375.821 1006.87 374.926 1005.98 374.926 1004.87L374.926 1000.58C374.926 999.48 375.822 998.585 376.926 998.585Z" fill="#E4D0A9" fill-opacity="0.5"/>
<path d="M246.879 844.229L246.883 802.374L256.617 899.593L246.856 1063.97L244.42 1063.97L246.879 844.229Z" fill="#606060" fill-opacity="0.5"/>
<path d="M224.431 858.452C224.258 891.519 250.216 918.435 250.216 918.435C250.216 918.435 276.456 891.74 276.63 858.674C276.803 825.607 250.845 798.69 250.845 798.69C250.845 798.69 224.605 825.385 224.431 858.452Z" fill="#E3D0AA" fill-opacity="0.9"/>
<path d="M403.453 49.0012C403.484 48.8832 403.529 48.7691 403.586 48.6612C404.188 47.5281 405.812 47.5281 406.414 48.6612C406.471 48.7691 406.516 48.8832 406.547 49.0012L407.789 53.6762C407.928 54.1984 407.941 54.746 407.829 55.2746L407.718 55.7991C407.445 57.0824 406.312 58 405 58C403.688 58 402.555 57.0824 402.282 55.7991L402.171 55.2746C402.059 54.746 402.072 54.1984 402.211 53.6762L403.453 49.0012Z" fill="#FF6359" fill-opacity="0.5"/>
</svg>
