<svg width="25" height="14" viewBox="0 0 25 14" fill="none" xmlns="http://www.w3.org/2000/svg">
<path d="M0.967296 6.0232L21.6977 6.0232L17.3847 1.66742C17.0068 1.28608 17.0068 0.667464 17.3847 0.286176C17.7625 -0.095393 18.3751 -0.095393 18.7524 0.286177L24.7166 6.30927C25.0945 6.69061 25.0945 7.30928 24.7166 7.69051L18.7524 13.7139C18.5635 13.9047 18.316 14 18.0685 14C17.8211 14 17.5735 13.9047 17.3847 13.7139C17.0068 13.3325 17.0068 12.7139 17.3847 12.3327L21.6977 7.97669L0.967296 7.97668C0.433149 7.97668 -6.59109e-07 7.53932 -6.11952e-07 6.99991C-5.64795e-07 6.4605 0.433092 6.0232 0.967296 6.0232Z" fill="#4F4F4F"/>
</svg>
