<svg width="580" height="464" viewBox="0 0 580 464" fill="none" xmlns="http://www.w3.org/2000/svg">
<path d="M552.911 123.785C558.035 123.799 562.946 125.856 566.57 129.508C570.193 133.16 572.235 138.109 572.249 143.274V182.199C572.235 187.364 570.193 192.313 566.57 195.965C562.946 199.617 558.035 201.674 552.911 201.688H514.287C509.16 201.679 504.245 199.627 500.614 195.979C498.807 194.177 497.373 192.03 496.397 189.665C495.42 187.299 494.919 184.762 494.924 182.199V143.274C494.938 138.105 496.983 133.152 500.612 129.499C504.241 125.847 509.158 123.792 514.287 123.785H552.911ZM552.911 116H514.287C507.109 116.021 500.231 118.903 495.156 124.019C490.08 129.134 487.22 136.066 487.199 143.3V182.225C487.22 189.459 490.08 196.391 495.156 201.506C500.231 206.622 507.109 209.504 514.287 209.525H552.911C560.071 209.505 566.934 206.636 572.007 201.543C577.079 196.45 579.952 189.545 579.999 182.329V143.404C579.999 136.154 577.149 129.199 572.072 124.063C566.994 118.927 560.105 116.027 552.911 116Z" fill="#CEAC6A" fill-opacity="0.5"/>
<path d="M558.71 143.402C557.503 143.407 556.321 143.054 555.315 142.387C554.309 141.72 553.525 140.77 553.06 139.656C552.596 138.542 552.473 137.316 552.707 136.132C552.941 134.949 553.522 133.861 554.376 133.008C555.229 132.155 556.317 131.574 557.501 131.34C558.685 131.106 559.912 131.229 561.027 131.693C562.141 132.157 563.092 132.942 563.759 133.947C564.426 134.953 564.78 136.134 564.775 137.34C564.778 138.137 564.624 138.927 564.32 139.664C564.017 140.401 563.57 141.071 563.006 141.635C562.442 142.198 561.772 142.645 561.035 142.948C560.298 143.251 559.507 143.406 558.71 143.402ZM532.483 147.362C535.682 147.362 538.809 148.311 541.468 150.087C544.128 151.863 546.201 154.388 547.425 157.341C548.649 160.295 548.969 163.545 548.345 166.681C547.721 169.817 546.181 172.697 543.919 174.958C541.657 177.218 538.776 178.758 535.639 179.382C532.501 180.005 529.25 179.685 526.295 178.462C523.339 177.238 520.814 175.166 519.036 172.508C517.259 169.85 516.311 166.724 516.311 163.527C516.311 159.24 518.015 155.129 521.048 152.097C524.081 149.066 528.194 147.362 532.483 147.362ZM532.483 139.28C527.686 139.28 522.995 140.702 519.006 143.366C515.017 146.031 511.907 149.818 510.071 154.248C508.235 158.679 507.755 163.554 508.691 168.258C509.627 172.961 511.937 177.282 515.33 180.673C518.723 184.064 523.045 186.373 527.751 187.309C532.457 188.244 537.334 187.764 541.767 185.929C546.2 184.094 549.988 180.986 552.654 176.998C555.319 173.011 556.742 168.323 556.742 163.527C556.742 157.097 554.186 150.929 549.637 146.382C545.088 141.835 538.917 139.28 532.483 139.28Z" fill="#CEAC6A" fill-opacity="0.5"/>
<path d="M469.531 65.25H372.193C370.584 65.25 369.04 65.885 367.902 67.0152C366.764 68.1454 366.125 69.6782 366.125 71.2766V167.973C366.125 169.572 366.764 171.104 367.902 172.235C369.04 173.365 370.584 174 372.193 174H420.741V130.94H407.664V115.09H420.984V103.368C420.984 89.3564 430.784 81.7027 443.407 81.7027C449.475 81.7027 455.968 82.1546 457.455 82.3655V97.0101H447.412C440.555 97.0101 439.22 100.234 439.22 104.995V115.09H455.574L453.45 130.94H439.189V173.97H469.531C471.141 173.97 472.684 173.335 473.823 172.205C474.961 171.074 475.6 169.542 475.6 167.943V71.2766C475.6 69.6782 474.961 68.1454 473.823 67.0152C472.684 65.885 471.141 65.25 469.531 65.25Z" fill="#CEAC6A" fill-opacity="0.3"/>
<path d="M247.763 112.667C224.24 105.077 199.369 98.7151 173.95 99.3708C136.581 100.338 100.652 117.698 82.9311 143.356C67.9523 165.099 65.953 190.652 59.4144 214.83C51.3584 244.616 36.067 272.883 19.7466 300.528C10.9807 315.375 1.73295 330.535 0.209017 346.85C-1.8815 369.502 11.886 392.147 33.5922 407.326C55.2985 422.505 84.1815 430.594 113.201 432.483C128.643 433.483 144.781 432.71 158.529 427.166C173.071 421.323 183.706 410.63 198.307 404.852C211.84 399.502 227.613 398.814 242.794 399.6C262.454 400.591 281.925 403.917 300.795 409.507C321.954 415.818 341.615 424.9 362.729 431.302C383.842 437.703 407.444 441.326 429.078 436.177C449.391 431.347 465.503 419.44 480.032 407.378C503.446 387.988 525.218 366.708 545.125 343.753C558.248 328.568 570.472 312.532 576.333 294.788C587.528 260.86 572.53 222.445 538.971 199.079C511.169 179.713 473.767 171.162 437.141 165.969C403.738 161.184 365.093 160.71 334.393 148.524C305.112 136.87 278.476 122.574 247.763 112.667Z" fill="#F7F7F7"/>
<path d="M523.034 316.141C507.192 348.287 467.656 365.245 467.656 365.245C467.656 365.245 453.806 330.083 469.648 297.937C485.49 265.792 525.026 248.834 525.026 248.834C525.026 248.834 538.876 283.996 523.034 316.141Z" fill="#E4BF80" fill-opacity="0.5"/>
<path d="M497.894 330.264C477.073 341.029 468.35 363.505 468.35 363.505C468.35 363.505 493.385 368.526 514.206 357.76C535.027 346.995 543.75 324.519 543.75 324.519C543.75 324.519 518.715 319.498 497.894 330.264Z" fill="#E4BF80" fill-opacity="0.5"/>
<path opacity="0.1" d="M62.3492 52.925C69.9569 52.925 76.1242 46.7577 76.1242 39.15C76.1242 31.5423 69.9569 25.375 62.3492 25.375C54.7415 25.375 48.5742 31.5423 48.5742 39.15C48.5742 46.7577 54.7415 52.925 62.3492 52.925Z" fill="#CEAC6A"/>
<path opacity="0.1" d="M305.951 31.9008C313.959 31.9008 320.451 25.2466 320.451 17.0383C320.451 8.82995 313.959 2.17578 305.951 2.17578C297.943 2.17578 291.451 8.82995 291.451 17.0383C291.451 25.2466 297.943 31.9008 305.951 31.9008Z" fill="#CEAC6A"/>
<path opacity="0.1" d="M42.7742 311.75C55.5872 311.75 65.9742 301.363 65.9742 288.55C65.9742 275.737 55.5872 265.35 42.7742 265.35C29.9612 265.35 19.5742 275.737 19.5742 288.55C19.5742 301.363 29.9612 311.75 42.7742 311.75Z" fill="#CEAC6A"/>
<path d="M271.908 227.21C271.056 227.289 270.191 227.25 269.346 227.382C267.927 227.661 266.573 228.201 265.353 228.971C259.298 232.388 253.581 237.084 251.073 243.522C250.866 243.917 250.801 244.37 250.886 244.808C251.035 245.168 251.279 245.483 251.592 245.718L253.947 247.842C254.245 248.148 254.6 248.395 254.992 248.567C255.628 248.732 256.298 248.711 256.922 248.508C263.397 247.037 270.278 245.342 274.823 240.54C276.979 238.265 278.969 235.132 282.143 235.046C283.474 235.046 284.718 235.554 286.029 235.706C287.34 235.857 288.918 235.303 289.23 234.037C289.332 233.407 289.258 232.762 289.017 232.17L287.061 225.713C286.529 223.945 281.158 223.853 279.368 224.169C276.64 224.638 274.803 226.946 271.908 227.21Z" fill="#65617D"/>
<path d="M293.845 262.056C293.758 264.194 293.927 266.357 293.583 268.476C293.28 270.147 292.755 271.768 292.024 273.295C290.898 275.75 289.468 278.047 287.768 280.13C286.184 282.045 284.287 283.845 281.94 284.598C279.593 285.351 276.707 284.808 275.243 282.792C274.047 281.151 273.991 278.962 274.078 276.914C274.291 271.878 275.067 266.772 277.283 262.266C278.235 260.352 279.443 258.526 280.413 256.592C282.441 252.578 283.599 247.817 287.098 245.047C289.293 246.081 291.641 246.739 294.046 246.993C294.978 247.096 297.645 247.159 297.958 248.378C298.171 249.202 296.418 251.506 296.08 252.316C294.744 255.392 293.986 258.695 293.845 262.056Z" fill="#65617D"/>
<path d="M268.172 168.759C268.96 170.778 269.958 172.757 270.142 174.908C270.273 176.227 270.142 177.547 270.142 178.866C270.252 180.674 270.551 182.465 271.034 184.21L274.691 199.252C275.235 201.501 275.78 203.81 275.498 206.106C275.308 207.637 274.756 209.121 274.763 210.658C274.833 211.824 275.017 212.98 275.314 214.109C276.006 217.597 275.817 221.203 274.763 224.598C274.655 224.854 274.616 225.134 274.651 225.41C274.743 225.839 275.157 226.103 275.531 226.307C279.467 228.472 283.758 229.909 288.2 230.549C292.208 220.965 295.009 210.914 296.536 200.631C297.468 194.403 297.921 188.096 299.116 181.914C299.143 181.557 299.294 181.221 299.542 180.964C299.989 180.588 300.665 180.826 301.19 181.076C307.898 184.318 314.352 188.068 320.495 192.292C322.655 189.48 324.174 186.226 324.945 182.759C325.715 179.292 325.717 175.697 324.952 172.229C324.181 169.239 323.08 166.345 321.67 163.6C320.168 160.261 318.297 157.103 316.091 154.186C311.22 148.05 304.078 144.132 296.726 141.473C292.256 139.85 287.655 138.649 283.06 137.422C280.487 136.73 276.174 134.473 273.673 136.228C271.047 138.056 269.301 142.588 268.225 145.464C266.896 149.032 266.173 152.799 266.085 156.607C265.977 160.757 266.686 164.886 268.172 168.759Z" fill="#525063"/>
<path d="M320.448 186.654C319.066 188.126 320.23 190.476 319.966 192.465C319.792 193.363 319.464 194.225 318.993 195.015L312.663 207.146C311.605 208.967 310.812 210.923 310.308 212.957C309.441 217.334 311.221 222.254 308.945 226.121C308.211 227.367 307.073 228.439 306.769 229.846C306.544 230.873 306.769 231.945 306.657 232.984C306.504 234.204 305.836 235.302 305.466 236.477C305.177 237.606 304.971 238.754 304.851 239.912C304.048 244.849 301.399 249.321 297.416 252.463C295.133 254.351 292.202 255.324 289.214 255.187C286.263 254.942 283.333 252.986 282.731 250.158C282.526 249.196 282.566 248.124 281.951 247.343C281.077 246.226 279.239 246.181 278.398 245.038L281.653 239.808C282.665 238.188 283.697 236.496 283.862 234.605C284.061 232.287 282.916 229.976 283.326 227.684C283.677 225.714 285.126 224.075 285.562 222.125C286.105 219.704 285.02 217.257 284.431 214.842C282.989 208.896 284.603 202.698 286.21 196.765C288.347 188.914 290.537 180.94 294.863 174C303.495 178.539 311.433 182.897 320.448 186.654Z" fill="#525063"/>
<path d="M320.706 61.5642C321.218 62.9615 320.942 64.5104 320.843 65.9934C320.614 69.2889 321.31 72.5845 321.152 75.9261C320.995 79.2678 319.97 82.4579 319.26 85.7073C317.243 94.9809 317.729 104.643 315.903 113.957C313.649 125.491 307.888 136.234 306.751 147.94C306.39 151.657 306.436 155.638 304.406 158.776C292.342 153.448 280.938 146.729 270.426 138.752C272.738 121.543 275.025 104.248 274.716 86.8871C274.566 84.7942 274.712 82.6906 275.15 80.6387C275.698 78.9152 276.485 77.2777 277.488 75.7745C280.031 71.6288 282.83 67.6478 285.622 63.6734C287.409 61.1292 289.341 58.4598 292.192 57.2669C295.043 56.0739 298.42 56.6077 301.528 57.1746C305.268 57.86 309.004 58.5455 312.736 59.231C315.069 59.6594 319.707 58.8421 320.706 61.5642Z" fill="#E3D0AA"/>
<path d="M230.878 127.552C229.22 126.015 227.411 124.624 225.475 123.397C227.999 120.552 227.501 116.437 228.12 112.795C228.626 110.43 229.396 108.119 230.416 105.9C230.672 105.275 231.035 104.583 231.739 104.419C232.171 104.369 232.61 104.433 233.004 104.603C235.138 105.301 239.589 105.262 241.245 106.539C243.243 108.093 241.416 111.346 240.662 113.289C240.129 114.593 231.938 128.54 230.878 127.552Z" fill="#BE6F72" fill-opacity="0.88"/>
<path d="M238.668 248.951C239.715 250.526 240.398 252.286 240.676 254.119C240.843 255.953 240.12 257.963 238.439 258.932C236.758 259.901 234.347 259.578 232.347 258.996C228.104 257.713 224.199 255.611 220.889 252.828C217.58 250.045 214.939 246.643 213.14 242.846C212.507 241.49 211.959 240.049 210.84 239.002C210.01 238.323 209.087 237.748 208.096 237.291C205.366 235.856 202.734 233.97 201.469 231.296C200.205 228.621 200.775 225.049 203.394 223.46C204.21 223.021 205.112 222.738 206.047 222.627C206.982 222.516 207.931 222.58 208.84 222.814C210.65 223.292 212.384 223.994 213.994 224.9C216.689 226.263 219.982 227.439 222.33 229.254C224.414 230.85 226.283 233.008 228.061 234.887C230.097 237.05 232.006 239.315 233.778 241.67C234.347 242.362 239.148 248.324 238.668 248.951Z" fill="#65617D"/>
<path d="M190.23 235.894C189.994 239.095 189.376 242.263 188.387 245.341C187.824 247.071 187.08 248.872 185.515 249.972C184.191 250.757 182.691 251.26 181.126 251.442C180.58 251.577 180.01 251.61 179.45 251.537C178.49 251.353 177.808 250.596 177.217 249.877C174.894 247.065 172.633 244.094 171.653 240.684C170.262 235.741 171.653 230.442 174.066 225.823C174.934 223.961 176.199 222.276 177.787 220.867C179.75 219.392 182.108 218.423 184.617 218.062C187.184 217.591 190.335 216.586 190.523 219.442C190.797 224.926 190.7 230.421 190.23 235.894Z" fill="#65617D"/>
<path d="M225.85 112.375C230.337 114.743 235.318 117.753 236.255 122.813C236.834 125.904 235.722 129.067 235.904 132.211C236.066 134.976 237.204 137.649 237.061 140.407C236.909 141.711 236.692 143.006 236.411 144.287C236.027 146.734 236.255 149.228 236.157 151.701C235.943 157.272 234.115 162.631 233.231 168.128C232.605 172.054 232.459 176.043 232.795 180.006C233.01 182.566 233.445 185.112 233.445 187.685C233.446 189.538 233.295 191.388 232.997 193.216C232.125 198.959 230.369 204.525 227.794 209.71C224.666 215.99 225.108 224.094 225.44 231.13C225.585 232.1 225.463 233.092 225.089 233.995C224.269 235.514 222.227 235.733 220.536 235.587C214.266 235.002 208.451 231.999 204.278 227.191C203.669 226.586 203.256 225.807 203.094 224.956C202.951 223.537 204.07 222.37 204.876 221.196C207.621 217.217 206.925 211.825 207.25 206.937C207.487 203.382 208.321 199.894 209.715 196.625C210.521 194.735 211.529 192.871 211.711 190.816C211.88 188.899 211.308 187.002 210.742 185.172L208.791 178.859C205.767 169.05 202.724 159.182 198.145 150.024C195.141 152.017 192.991 155.098 192.13 158.645C190.426 164.892 192.851 171.869 190.53 177.877C190.145 178.71 189.826 179.573 189.574 180.457C189.437 181.22 189.385 181.996 189.418 182.771C189.478 189.236 189.864 195.692 190.575 202.116C190.61 203.089 190.878 204.038 191.356 204.882C191.739 205.445 192.299 205.863 192.708 206.4C193.846 207.906 193.632 210.015 193.359 211.891L192.058 220.765C192.035 221.215 191.888 221.649 191.635 222.018C191.329 222.321 190.946 222.532 190.53 222.628C186.397 223.937 182.041 224.344 177.744 223.822C176.476 223.669 175.325 222.801 174.265 222.071C174.154 220.745 175.774 219.863 175.832 218.543C175.769 217.761 175.413 217.034 174.837 216.514C172.418 213.728 169.53 210.771 169.556 207.05C169.556 206.075 169.784 205.1 169.752 204.126C169.667 201.625 167.976 199.483 167.384 197.076C166.656 194.098 167.625 191.008 167.996 187.964C168.503 183.866 167.905 179.714 167.345 175.622L165.167 160.608C164.913 158.277 164.461 155.974 163.814 153.724C162.994 151.509 162.031 149.351 160.933 147.265C158.852 142.954 157.141 138.471 155.438 134.001C154.896 132.787 154.556 131.489 154.43 130.161C154.332 127.887 155.483 125.738 156.914 123.987C159.594 120.734 163.251 118.473 167.319 117.554C167.999 117.361 168.714 117.332 169.407 117.468C169.99 117.665 170.537 117.959 171.026 118.337C176.053 121.69 181.774 123.81 187.739 124.532C193.704 125.253 199.753 124.556 205.409 122.495C206.06 122.999 207.263 122.78 208.011 122.422C210.098 121.447 211.802 119.822 213.636 118.443C217.05 115.804 221.655 113.297 225.85 112.375Z" fill="#CFCFCF"/>
<path d="M91.5897 280.569C91.9205 281.53 92.4184 282.425 93.0601 283.21C95.3155 286.17 98.4619 288.535 99.9136 291.991C100.219 292.731 100.443 293.509 100.724 294.262C101.576 296.533 102.966 298.561 104.773 300.17C106.152 301.322 107.649 302.321 109.24 303.149C111.994 304.661 114.972 306.028 118.1 305.947C118.729 305.933 119.355 305.857 119.969 305.721C120.943 305.518 121.881 305.171 122.754 304.692C124.767 303.576 126.493 301.393 126.094 299.116C126.013 298.682 125.877 298.26 125.689 297.862C125.358 297.227 124.977 296.621 124.549 296.049C123.496 294.581 122.412 293.076 120.873 292.135C119.141 291.069 116.96 290.806 115.402 289.488C114.788 288.929 114.257 288.282 113.826 287.569C112.414 285.385 111.362 282.985 110.711 280.463C110.237 278.581 109.92 276.518 108.555 275.138C107.191 273.758 105.315 273.444 103.496 273.131C102.881 273.003 102.255 272.942 101.627 272.949C100.736 272.98 99.8139 273.237 98.979 272.817C98.1441 272.397 97.8637 271.801 96.8544 271.883C96.051 271.992 95.2937 272.324 94.6675 272.842C92.3 274.605 90.7299 277.741 91.5897 280.569Z" fill="#525063"/>
<path d="M113.515 282.524C113.938 284.847 114.589 287.322 116.294 288.837C117.381 289.824 118.897 290.441 119.437 291.832C119.977 293.224 119.281 294.972 118.383 296.247C117.236 297.859 115.815 299.233 114.192 300.298C112.812 301.196 111.166 301.881 109.585 301.484C108.283 301.161 107.255 300.174 106.286 299.222C104.06 297.049 101.783 294.794 100.533 291.88C99.2316 288.809 99.1666 285.252 97.748 282.229C96.9215 280.467 95.6461 278.925 95.145 277.033C94.9204 276.349 94.9204 275.606 95.145 274.922C95.3877 274.432 95.7548 274.024 96.2053 273.742C96.6558 273.46 97.1719 273.315 97.6959 273.325C98.7437 273.361 99.7769 273.594 100.748 274.01C103.686 275.113 106.693 276 109.748 276.663C110.964 276.903 111.7 276.896 112.35 278.137C112.952 279.527 113.345 281.007 113.515 282.524Z" fill="#FBBEBE"/>
<path d="M121.965 301.607C121.59 302.325 121.324 303.123 121.18 303.962C121.061 304.614 121.042 305.289 121.125 305.95C121.916 305.745 122.679 305.395 123.388 304.911C125.024 303.785 126.426 301.581 126.102 299.283C126.037 298.845 125.926 298.42 125.773 298.017C125.531 297.95 125.28 297.963 125.043 298.055C124.807 298.147 124.594 298.315 124.426 298.543C123.483 299.398 122.653 300.431 121.965 301.607Z" fill="#FBBEBE"/>
<path d="M96.7308 252.701C96.4411 253.296 96.3549 253.963 96.4845 254.608C96.7908 255.879 98.1559 256.61 99.3879 257.188L111.101 262.654C111.914 263.013 112.705 263.413 113.472 263.855C115.47 265.024 117.041 266.677 118.746 268.189C120.451 269.702 122.349 271.119 124.606 271.653C126.86 272.124 129.215 271.83 131.266 270.82C132.37 270.295 133.396 269.63 134.315 268.844C135.111 268.178 135.846 267.448 136.513 266.664C137.086 266.087 137.496 265.381 137.705 264.611C137.925 263.448 137.319 262.304 136.613 261.345C136.206 260.791 135.761 260.265 135.281 259.768C130.839 255.085 123.561 252.657 117.301 251.704C114.811 251.322 112.447 250.432 110.049 249.708C107.652 248.983 105.115 248.437 102.624 248.774C100.134 249.111 97.6831 250.477 96.7308 252.701Z" fill="#525063"/>
<path opacity="0.1" d="M96.7308 252.701C96.4411 253.296 96.3549 253.963 96.4845 254.608C96.7908 255.879 98.1559 256.61 99.3879 257.188L111.101 262.654C111.914 263.013 112.705 263.413 113.472 263.855C115.47 265.024 117.041 266.677 118.746 268.189C120.451 269.702 122.349 271.119 124.606 271.653C126.86 272.124 129.215 271.83 131.266 270.82C132.37 270.295 133.396 269.63 134.315 268.844C135.111 268.178 135.846 267.448 136.513 266.664C137.086 266.087 137.496 265.381 137.705 264.611C137.925 263.448 137.319 262.304 136.613 261.345C136.206 260.791 135.761 260.265 135.281 259.768C130.839 255.085 123.561 252.657 117.301 251.704C114.811 251.322 112.447 250.432 110.049 249.708C107.652 248.983 105.115 248.437 102.624 248.774C100.134 249.111 97.6831 250.477 96.7308 252.701Z" fill="black" fill-opacity="0.95"/>
<path d="M126.514 256.881C127.341 257.739 128.02 258.707 128.53 259.754C128.989 260.44 129.153 261.259 128.989 262.051C128.748 262.584 128.363 263.051 127.871 263.406L126.801 264.32C126.479 264.63 126.103 264.889 125.69 265.088C125.105 265.29 124.48 265.377 123.857 265.342C122.421 265.342 120.876 265.342 119.709 264.546C118.114 263.485 117.827 261.289 118.554 259.602C119.281 257.914 120.802 256.639 122.336 255.499C123.582 254.567 125.641 256.029 126.514 256.881Z" fill="#FBBEBE"/>
<path d="M132.794 262.435C132.562 263.446 132.674 264.492 133.117 265.45C133.432 266.364 133.741 267.278 134.049 268.21C134.049 268.21 134.049 268.21 134.049 268.247C134.907 267.608 135.699 266.909 136.417 266.157C137.034 265.604 137.476 264.927 137.701 264.189C137.938 263.074 137.285 261.978 136.525 261.058C136.087 260.527 135.607 260.023 135.09 259.547C134.753 259.919 134.458 260.284 134.214 260.522C133.587 261.067 133.102 261.719 132.794 262.435Z" fill="#FBBEBE"/>
<path d="M102.743 215.1C101.367 220.715 101.952 226.587 102.683 232.318C103.242 236.68 103.867 241.197 102.537 245.398C102.045 246.966 101.267 248.56 101.567 250.18C102.132 253.232 105.921 254.407 109.059 254.981C109.965 255.205 110.905 255.259 111.832 255.142C112.761 254.897 113.623 254.456 114.358 253.852C118.819 250.704 122.206 246.333 124.085 241.3C125.275 237.932 125.654 234.35 126.019 230.808C126.631 224.845 127.249 218.811 126.352 212.887C126.086 211.145 125.687 209.422 125.521 207.666C125.311 204.613 125.486 201.547 126.039 198.535C127.184 191.073 128.918 183.708 131.225 176.504C124.894 177.32 118.459 176.192 112.822 173.277C113.913 173.845 112.663 182.899 112.53 184.17C112.126 187.96 111.422 191.714 110.422 195.399C108.567 202.284 104.425 208.26 102.743 215.1Z" fill="#525063"/>
<path opacity="0.1" d="M102.743 215.1C101.367 220.715 101.952 226.587 102.683 232.318C103.242 236.68 103.867 241.197 102.537 245.398C102.045 246.966 101.267 248.56 101.567 250.18C102.132 253.232 105.921 254.407 109.059 254.981C109.965 255.205 110.905 255.259 111.832 255.142C112.761 254.897 113.623 254.456 114.358 253.852C118.819 250.704 122.206 246.333 124.085 241.3C125.275 237.932 125.654 234.35 126.019 230.808C126.631 224.845 127.249 218.811 126.352 212.887C126.086 211.145 125.687 209.422 125.521 207.666C125.311 204.613 125.486 201.547 126.039 198.535C127.184 191.073 128.918 183.708 131.225 176.504C124.894 177.32 118.459 176.192 112.822 173.277C113.913 173.845 112.663 182.899 112.53 184.17C112.126 187.96 111.422 191.714 110.422 195.399C108.567 202.284 104.425 208.26 102.743 215.1Z" fill="black" fill-opacity="0.95"/>
<path d="M137.369 181.89C139.942 189.435 139.376 197.676 138.263 205.579C137.15 213.481 135.51 221.384 135.992 229.346C136.179 232.47 136.68 235.68 135.78 238.668C135.279 240.125 134.617 241.521 133.805 242.827L113.277 278.748C112.754 279.68 112.01 280.466 111.111 281.034C110.213 281.602 109.189 281.935 108.131 282.003C105.937 282.159 103.782 281.43 101.737 280.616C100.378 280.16 99.1143 279.452 98.0122 278.527C97.4658 278.066 97.0377 277.479 96.7643 276.814C96.491 276.15 96.3806 275.429 96.4425 274.712C97.3624 268.476 98.7455 262.09 99.7683 255.834C100.464 251.589 101.981 247.525 104.233 243.875C105.822 241.272 107.777 238.935 109.148 236.226C113.084 228.467 111.721 219.002 108.684 210.839C105.648 202.675 101.126 195.098 98.7133 186.753C97.9982 184.43 97.5894 182.023 97.4975 179.592C97.4678 177.082 97.9275 174.59 98.8503 172.26C99.7731 169.93 101.141 167.807 102.875 166.013C103.382 165.432 104.02 164.986 104.735 164.711C105.57 164.514 106.441 164.53 107.269 164.756C118.7 167.002 133.593 170.745 137.369 181.89Z" fill="#525063" fill-opacity="0.95"/>
<path d="M323.269 67.9944C323.65 70.7455 322.612 73.5281 321.133 75.9086C315.538 84.8277 302.64 88.7723 292.668 84.6205C288.559 82.9057 285.082 80.0792 281.676 77.2904C280.533 76.3483 279.343 75.3621 278.764 74.0305C277.745 71.6751 278.975 68.8675 280.98 67.1842C282.985 65.5008 285.581 64.6717 288.165 63.9243C296.691 61.3867 321.238 53.3846 323.269 67.9944Z" fill="#FBBEBE"/>
<path d="M318.747 59.5115C326.541 65.7443 337.886 71.6818 346.717 76.3006C349.72 77.8751 353.052 79.6465 354.135 82.8613C354.716 84.5803 354.524 86.4501 354.333 88.2608C353.963 91.7446 353.58 95.2809 352.228 98.5153C350.637 102.301 347.825 105.424 345.568 108.862C341.608 114.884 339.285 121.983 334.395 127.304C337.695 138.201 341.305 149.086 342.48 160.397C342.545 160.708 342.51 161.031 342.381 161.322C342.246 161.513 342.07 161.672 341.866 161.787L333.656 167.141C332.761 167.66 331.96 168.326 331.286 169.109C329.834 170.986 330.026 173.623 329.128 175.808C328.636 176.874 327.932 177.831 327.059 178.62C326.186 179.409 325.161 180.015 324.046 180.4C321.803 181.169 319.413 181.42 317.057 181.135C314.059 180.947 311.171 179.937 308.715 178.216C306.623 176.641 305.132 174.43 303.693 172.252C302.627 170.766 301.741 169.161 301.053 167.469C300.175 165.055 300.122 162.424 300.155 159.852C300.177 154.958 300.648 150.076 301.561 145.267C301.944 143.358 302.419 141.475 302.723 139.553C303.33 135.682 303.211 131.733 303.66 127.842C304.273 123.466 305.255 119.149 306.597 114.937C307.331 112.328 307.904 109.677 308.313 106.998C309.085 102.288 310.623 97.7412 312.16 93.2208L314.8 85.4725C315.361 83.7995 315.929 82.1331 316.595 80.4994C317.836 77.4487 319.433 74.4767 319.856 71.2225C320.324 67.6731 316.47 63.4611 317.77 60.1282C317.876 59.7608 318.45 59.2753 318.747 59.5115Z" fill="#525063" fill-opacity="0.95"/>
<path d="M353.002 81.1992C354.839 82.0101 355.854 83.9434 356.511 85.8118C357.991 90.0226 358.347 94.5333 357.546 98.9164C357.287 100.018 357.109 101.137 357.015 102.264C357.029 103.57 357.16 104.873 357.406 106.156C358.07 111.119 357.406 116.16 357.625 121.168C357.851 126.799 359.105 132.748 356.69 137.867C355.085 141.266 352.047 143.797 349.048 146.093C337.886 154.602 325.569 161.553 312.452 166.749C314.714 164.089 314.754 160.087 313.248 156.953C311.742 153.82 308.943 151.465 305.951 149.635C309.759 148.808 313.447 147.52 316.929 145.801C323.881 142.35 329.838 137.296 335.722 132.294C336.59 131.684 337.265 130.848 337.672 129.881C338.269 127.935 336.624 126.086 335.483 124.38C332.027 119.19 332.83 112.41 334.276 106.403C335.888 99.8182 338.256 93.2594 342.574 87.9656C345.267 84.657 348.783 82.1139 353.002 81.1992Z" fill="#525063"/>
<path d="M312.362 167.69C311.755 168.689 310.966 169.563 310.038 170.268C308.011 171.631 305.227 171.113 302.964 170.145C300.86 169.244 298.919 167.998 297.22 166.455C296.49 165.672 295.628 165.025 294.673 164.546C292.903 163.864 290.43 164.375 289.437 162.732C289.321 162.559 289.264 162.353 289.275 162.145C289.335 161.552 290.106 161.388 290.7 161.354C293.459 161.17 296.136 160.336 298.518 158.92C297.757 158.365 297.106 157.671 296.599 156.874C296.388 156.596 296.274 156.255 296.274 155.905C296.357 155.525 296.564 155.184 296.862 154.937C299.034 152.868 301.767 151.499 304.713 151.003C307.658 150.508 310.683 150.909 313.403 152.155C313.933 152.371 314.399 152.724 314.754 153.178C315.004 153.596 315.171 154.059 315.247 154.542C315.686 156.451 317.274 159.315 316.7 161.245C316.065 163.462 313.666 165.814 312.362 167.69Z" fill="#FBBEBE"/>
<path d="M267.552 159.142C275.501 149.779 279.054 137.458 282.351 125.54L284.709 117.069L290.396 96.6684C291.233 93.6581 292.07 90.6478 292.626 87.5788C293.578 82.2815 293.667 76.8668 293.61 71.4847C293.529 69.2536 293.028 67.0592 292.134 65.021C291.578 63.6136 291.31 62.115 290.856 60.6619C290.279 58.6362 289.416 56.7068 288.294 54.9345C287.981 54.4076 287.591 53.9329 287.137 53.5271C286.351 52.9821 285.46 52.6135 284.524 52.4455C282.492 51.8295 280.387 51.5028 278.268 51.4746C276.147 51.5528 273.961 52.3021 272.594 53.9441C271.552 55.2017 271.073 56.8306 270.249 58.2446C269.865 58.8235 269.517 59.4263 269.207 60.0494C268.856 60.9961 268.662 61.9959 268.632 63.0076C268.3 67.1126 268.017 71.2219 267.782 75.3356C267.674 77.2056 267.578 79.0887 267.648 80.9653C267.706 82.4248 267.859 83.8778 268.012 85.3309L269.527 99.5615C269.878 102.904 269.629 106.032 269.923 109.381C270.639 117.467 268.933 125.553 267.182 133.489C266.345 137.262 265.482 141.087 263.693 144.501C262.115 147.524 259.75 150.593 260.377 153.962C260.594 155.135 261.175 156.23 261.265 157.416C261.221 158.15 261.292 158.887 261.476 159.598C261.736 160.082 262.141 160.469 262.632 160.703C263.122 160.938 263.673 161.007 264.204 160.902C265.469 160.675 266.637 160.061 267.552 159.142Z" fill="#525063" fill-opacity="0.95"/>
<path d="M267.76 121.22C267.992 123.175 267.815 125.158 267.9 127.126C268.091 129.662 268.5 132.171 269.119 134.62C269.729 137.345 270.509 140.397 272.661 141.909C273.201 142.223 273.717 142.585 274.203 142.992C274.443 143.204 274.619 143.492 274.709 143.818C274.798 144.144 274.796 144.493 274.703 144.818L273.027 144.505C273.217 144.667 273.374 144.873 273.489 145.108C273.603 145.343 273.671 145.603 273.69 145.869C273.708 146.136 273.676 146.404 273.595 146.656C273.514 146.908 273.386 147.138 273.221 147.331C273.055 147.524 272.854 147.676 272.633 147.776C272.411 147.877 272.172 147.924 271.933 147.914C271.694 147.905 271.459 147.839 271.244 147.721C271.029 147.603 270.839 147.436 270.686 147.23C270.749 147.844 270.698 148.465 270.534 149.055C270.449 149.345 270.286 149.598 270.068 149.781C269.85 149.964 269.587 150.067 269.314 150.077C268.998 150.022 268.699 149.882 268.443 149.669L264.066 146.637C262.754 145.848 261.664 144.669 260.914 143.231L259 140.009C258.578 139.388 258.243 138.698 258.006 137.965C257.293 135.24 259.287 132.215 258.25 129.647C257.939 129.014 257.574 128.416 257.159 127.862C254.946 124.456 255.087 119.824 255.33 115.6C255.41 114.176 255.641 112.487 256.793 111.867C257.708 111.369 258.805 111.812 259.652 112.432C260.5 113.052 261.25 113.87 262.213 114.237C262.822 114.469 263.493 114.496 264.102 114.742C264.956 115.075 265.748 116.376 266.321 117.146C267.132 118.328 267.63 119.739 267.76 121.22Z" fill="#FBBEBE"/>
<path d="M211.561 61.411C210.973 62.6261 210.148 63.7364 209.125 64.6891C208.611 65.1651 207.98 65.5259 207.282 65.7424C206.585 65.9588 205.841 66.025 205.111 65.9355C203.574 65.6613 202.446 64.5208 201.429 63.4427C198.771 60.632 196.078 57.784 194.293 54.4561C191.566 49.3895 191.13 43.6062 190.735 37.9912C190.638 36.5454 190.555 35.0123 191.323 33.7472C192.299 32.1331 194.369 31.3728 196.279 30.7309L206.834 27.1787C207.481 26.9028 208.197 26.7846 208.91 26.8359C210.565 27.0852 211.174 28.88 211.624 30.3321C212.429 32.9414 213.767 35.3929 215.569 37.5612C217.936 40.403 223.244 44.2294 220.213 47.7754C216.551 52.0256 214.226 56.6124 211.561 61.411Z" fill="#BE6F72" fill-opacity="0.88"/>
<path d="M223.187 45.9151C227.456 50.004 228.9 56.3717 228.696 62.3292C228.491 68.2867 226.868 74.0945 225.941 79.9804C225.015 85.8662 224.83 92.1493 227.341 97.5599C228.204 99.4155 229.379 101.134 229.98 103.094C230.484 105.031 230.655 107.042 230.485 109.039C230.475 111.143 230.08 113.227 229.322 115.185C227.961 118.258 225.162 120.394 222.484 122.347C217.021 126.371 211.448 130.46 205.032 132.563C200.687 133.989 196.086 134.457 191.536 134.711C188.456 134.961 185.358 134.872 182.296 134.444C176.94 133.535 172.018 130.88 168.269 126.879C167.616 126.234 167.078 125.478 166.678 124.645C166.288 123.562 166.099 122.414 166.122 121.26C165.969 116.984 165.994 112.709 166.199 108.433C166.316 104.359 166.867 100.309 167.841 96.3554C169.062 91.7977 171.177 87.5265 172.781 83.0861C178.366 67.6486 177.803 50.0821 185.561 35.6669C187.236 32.5547 190.034 29.2797 193.485 29.7745C194.149 29.8152 194.774 30.1079 195.236 30.5949C195.633 31.1875 195.854 31.8833 195.875 32.6002C196.7 39.606 197.869 46.7941 201.109 53.1162C202.387 55.5969 204.304 59.3732 207.25 60.0373C210.196 60.7015 211.934 57.8366 213.512 55.8052C216.286 52.08 219.54 48.7533 223.187 45.9151Z" fill="#E3E8F4"/>
<path d="M245.687 36.017C246.58 36.4972 247.415 37.0793 248.173 37.7515C250.141 39.6033 250.862 42.4397 250.849 45.1262C250.836 47.8126 250.193 50.4599 249.8 53.1203C248.743 60.2929 249.642 67.635 250.062 74.8988C250.19 76.0716 250.119 77.2575 249.852 78.4069C249.531 79.5023 248.868 80.4674 248.442 81.5302C247.189 84.6731 248.133 88.2594 247.399 91.5588C246.612 95.0733 243.916 98.2684 244.421 101.835C244.624 103.23 245.3 104.515 245.588 105.897C245.877 107.28 245.628 108.949 244.427 109.692C243.227 110.436 241.482 109.894 240.052 110.305C239.472 110.518 238.906 110.771 238.36 111.062C236.15 112.053 233.513 111.714 231.335 110.631C229.201 109.473 227.282 107.96 225.661 106.158C223.162 103.615 220.742 100.831 219.647 97.4468C218.046 92.5434 219.47 87.2031 221.208 82.3388C222.946 77.4745 225.019 72.558 224.71 67.3872C224.54 64.4921 223.622 61.7078 223.071 58.8649C222.389 54.9259 222.144 50.9244 222.343 46.9323C222.428 44.0112 222.625 40.9987 223.89 38.3579C224.793 36.5963 226.126 35.0881 227.767 33.9717C229.408 32.8552 231.305 32.1662 233.283 31.9678C237.875 31.4722 241.81 33.8 245.687 36.017Z" fill="#525063"/>
<path opacity="0.1" d="M232.085 98.1377C232.135 100.272 232.549 102.385 233.311 104.4C234.603 101.679 234.754 98.6245 234.928 95.6636C235.649 85.4672 238.095 75.8509 240.7 65.9746C238.802 67.3083 237.734 70.6427 236.825 72.6433C233.217 80.7109 231.598 89.4197 232.085 98.1377Z" fill="black" fill-opacity="0.95"/>
<path d="M188.319 28.6766C185.222 29.5115 182.537 31.3916 179.536 32.6209C176.421 33.9357 173.067 34.4944 169.797 35.303C162.229 37.1831 154.629 40.6738 150.061 47.1359C146.694 51.8888 145.3 57.7592 142.994 63.1431C141.067 67.6593 138.497 71.8929 137.077 76.5932C135.22 82.7265 135.432 89.3004 135.888 95.7032C136.261 100.962 136.826 106.281 139.158 110.941C140.379 113.387 142.062 115.576 143.283 118.021C144.748 120.96 145.519 124.201 146.739 127.225C147.96 130.249 149.752 133.273 152.586 134.85L157.276 132.043C164.272 127.856 171.268 123.662 178.046 119.113C183.956 115.168 189.918 110.639 193.066 104.157C195.855 98.4314 196.131 91.7392 195.411 85.3824C194.692 79.0255 193.047 72.8066 192.199 66.4695C191.119 58.4934 191.281 50.3924 192.681 42.4685C193.323 38.8923 195.032 35.1978 195.386 31.6348C195.777 27.8286 190.998 27.9535 188.319 28.6766Z" fill="#525063" fill-opacity="0.8"/>
<path d="M159.008 133.079C162.723 136.633 168.066 137.667 172.71 139.796C176.162 141.416 179.269 143.698 181.861 146.514C183.289 148.099 184.671 150.255 183.954 152.27C183.349 154.003 181.495 154.89 179.794 155.535C177.681 156.341 175.322 157.053 173.215 156.24C171.979 155.763 170.983 154.809 169.846 154.131C167.062 152.458 163.554 152.452 160.696 150.907C156.669 148.73 154.663 143.941 150.875 141.355C148.802 139.944 145.938 138.789 145.725 136.27C145.715 135.359 145.906 134.457 146.283 133.63C147.047 131.575 148.35 124.515 151.26 124.703C154.43 124.911 156.649 131.38 159.008 133.079Z" fill="#FBBEBE"/>
<path d="M140.216 101.379C141.416 105.742 144.202 109.462 147.093 112.923C149.171 115.41 151.453 118.115 151.525 121.371C151.591 124.447 149.558 127.279 146.936 128.85C144.314 130.422 141.226 130.926 138.191 131.125C135.762 131.361 133.312 131.189 130.94 130.614C124.948 128.97 120.792 123.685 116.078 119.6C113.279 117.18 110.132 115.072 107.988 112.041C105.845 109.011 104.94 104.661 107.051 101.605C107.813 100.614 108.694 99.7227 109.673 98.9523C113.253 95.8126 116.306 92.1066 118.714 87.9784C119.684 86.3141 120.615 84.5105 122.247 83.5093C124.588 82.0704 127.59 82.7268 130.239 83.4297C133.117 84.1922 141.226 85.6842 141.79 89.3974C142.019 90.9224 140.151 93.2962 139.869 94.934C139.51 97.0818 139.629 99.2835 140.216 101.379Z" fill="#FBBEBE"/>
<path d="M155.364 109.576C156.218 111.134 156.921 112.771 157.463 114.465C159.452 121.422 155.898 128.588 154.203 135.623C152.038 144.634 152.957 154.058 152.853 163.331C152.807 167.57 152.357 172.236 149.325 175.177C148.543 175.925 147.604 176.555 147.076 177.5C146.749 178.192 146.506 178.921 146.352 179.672C145.889 181.293 145.068 182.789 143.95 184.046C142.832 185.303 141.446 186.29 139.896 186.932C138.346 187.575 136.672 187.856 134.998 187.756C133.325 187.656 131.696 187.176 130.232 186.353C127.761 184.968 125.616 182.566 122.786 182.494C121.896 182.537 121.009 182.636 120.132 182.789C117.315 183.071 114.556 182.021 111.915 180.991C111.285 180.791 110.697 180.475 110.181 180.059C109.705 179.619 109.398 179.029 108.961 178.556C107.351 176.811 104.599 177.112 102.278 176.627C100.546 176.237 98.9594 175.359 97.7044 174.096C96.4493 172.833 95.5771 171.236 95.1895 169.493C94.72 167.236 95.1178 164.899 95.509 162.622L97.2566 152.476C97.99 148.755 98.4974 144.992 98.776 141.208C98.9902 136.932 98.626 132.647 97.6935 128.47C96.924 125.057 95.7764 121.717 95.3591 118.239C94.6319 112.005 96.2613 105.724 99.9236 100.644C100.83 99.3907 102.017 98.1373 103.556 98.0191C104.801 97.9076 105.968 98.577 107.051 99.2201C116.454 104.82 125.922 110.304 135.456 115.673C138.064 117.149 140.731 118.632 143.639 119.361C144.513 119.584 145.765 119.492 145.889 118.6C145.904 118.259 145.816 117.923 145.635 117.635C144.004 114.478 141.644 111.768 139.766 108.762C137.888 105.757 136.44 102.2 136.994 98.7082C137.751 93.8781 142.211 90.6821 145.856 94.4687C149.945 98.7673 152.684 104.293 155.364 109.576Z" fill="#C59A9A"/>
<path d="M125.267 170.047C132.83 170.513 140.56 171.01 147.561 173.807C149.811 174.702 152.196 175.858 154.563 175.305C155.74 174.96 156.836 174.394 157.786 173.639C160.701 171.579 163.455 169.314 166.025 166.864C165.767 165.503 163.853 165.317 162.421 165.329C158.932 165.349 155.489 164.551 152.39 163.004C151.371 162.414 150.291 161.928 149.166 161.556C146.104 160.742 142.984 162.296 139.908 163.054C135.357 164.173 130.56 163.52 125.912 162.861L113.366 161.078C112.199 160.916 110.884 160.785 109.955 161.482C109.335 162.047 108.909 162.782 108.737 163.589C107.203 168.561 107.938 168.978 113.044 169.288L125.267 170.047Z" fill="#FBBEBE"/>
<path opacity="0.1" d="M298.698 81.2008C309.91 81.2008 318.998 71.6253 318.998 59.8133C318.998 48.0013 309.91 38.4258 298.698 38.4258C287.487 38.4258 278.398 48.0013 278.398 59.8133C278.398 71.6253 287.487 81.2008 298.698 81.2008Z" fill="black" fill-opacity="0.95"/>
<path d="M298.698 79.75C309.91 79.75 318.998 70.0122 318.998 58C318.998 45.9878 309.91 36.25 298.698 36.25C287.487 36.25 278.398 45.9878 278.398 58C278.398 70.0122 287.487 79.75 298.698 79.75Z" fill="#FBBEBE"/>
<path d="M316.892 32.5086C318.607 33.5022 320.402 34.5712 321.34 36.2439C321.844 37.3794 322.228 38.559 322.486 39.7653C323.658 43.5382 326.78 46.8144 326.967 50.7446C327.175 55.052 323.732 58.7936 319.833 61.051C318.943 61.6667 317.87 62.0054 316.765 62.0194C315.633 61.9503 314.655 61.2837 313.616 60.8561C309.215 59.0199 304.291 61.3466 299.629 62.4156C294.784 63.5139 289.7 63.2337 285.025 61.6107C282.513 60.7303 280.075 59.4098 278.501 57.3661C276.926 55.3224 276.364 52.4613 277.703 50.2667C278.373 49.1474 279.485 48.135 279.412 46.8584C279.372 46.0913 278.889 45.3996 278.742 44.645C278.527 43.4439 279.197 42.2743 279.881 41.2493C282.981 36.5661 286.899 32.406 291.47 28.9432C292.81 27.9119 294.357 26.9058 296.112 26.8303C299.636 26.6857 302.664 29.1507 306.288 29.1633C310.401 29.1759 313.355 30.4587 316.892 32.5086Z" fill="#525063" fill-opacity="0.95"/>
<path opacity="0.1" d="M222.574 55.0996C234.586 55.0996 244.324 45.3618 244.324 33.3496C244.324 21.3374 234.586 11.5996 222.574 11.5996C210.562 11.5996 200.824 21.3374 200.824 33.3496C200.824 45.3618 210.562 55.0996 222.574 55.0996Z" fill="black" fill-opacity="0.95"/>
<path d="M222.574 52.9254C234.586 52.9254 244.324 43.3499 244.324 31.5379C244.324 19.7259 234.586 10.1504 222.574 10.1504C210.562 10.1504 200.824 19.7259 200.824 31.5379C200.824 43.3499 210.562 52.9254 222.574 52.9254Z" fill="#BE6F72" fill-opacity="0.88"/>
<path d="M233.252 45.056C236.279 46.7929 240.014 46.6133 243.392 45.8213C245.308 45.4525 247.124 44.6673 248.719 43.5187C249.511 42.939 250.164 42.1825 250.628 41.3063C251.093 40.4301 251.358 39.4572 251.401 38.461C251.401 36.2316 249.972 34.2219 249.797 31.9925C249.583 29.1841 251.369 26.5887 251.557 23.767C251.746 20.9454 250.388 18.4032 249.063 15.9808C246.783 11.8215 244.412 7.60898 240.943 4.42794C237.474 1.24691 232.667 -0.782833 228.12 0.288603C225.885 0.814339 223.813 2.04549 221.533 2.28507C219.506 2.47806 217.505 1.8525 215.485 1.58631C213.465 1.32011 211.198 1.48648 209.749 2.91728C208.956 3.71587 208.45 4.84055 207.521 5.42618C206.891 5.72383 206.239 5.97081 205.572 6.16487C203.227 7.12983 202.155 9.83836 201.324 12.2741L195.75 28.6384C197.614 29.9694 199.862 30.575 201.902 31.5998C203.941 32.6247 205.923 34.2618 206.339 36.5511C206.657 38.288 206.053 40.2845 207.04 41.7352C207.943 43.0662 209.781 43.2925 211.34 43.0662C212.9 42.8399 214.465 42.2876 216.024 42.5338C219.922 43.1394 221.37 45.5884 224.976 42.5338C228.581 39.4792 229.9 43.1261 233.252 45.056Z" fill="#353535" fill-opacity="0.9"/>
<path opacity="0.1" d="M131.588 101.5C142.599 101.5 151.525 92.5737 151.525 81.5625C151.525 70.5513 142.599 61.625 131.588 61.625C120.577 61.625 111.65 70.5513 111.65 81.5625C111.65 92.5737 120.577 101.5 131.588 101.5Z" fill="black" fill-opacity="0.95"/>
<path d="M131.588 99.3242C142.599 99.3242 151.525 90.3979 151.525 79.3867C151.525 68.3755 142.599 59.4492 131.588 59.4492C120.577 59.4492 111.65 68.3755 111.65 79.3867C111.65 90.3979 120.577 99.3242 131.588 99.3242Z" fill="#FBBEBE"/>
<path d="M147.662 61.0091C142.885 57.4335 137.518 54.6795 131.792 52.8657C128.127 51.7042 124.142 50.9082 120.423 51.9783C115.381 53.3812 108.633 55.4758 105.51 59.5931C103.972 61.6159 102.414 63.6974 101.671 66.1183C100.187 70.986 102.3 76.1735 102.16 81.2501C101.992 87.1684 98.7756 92.5712 95.2647 97.3998C91.7537 102.228 91.0448 109.145 88.9716 114.718C88.2628 116.629 88.0354 119.285 89.8611 120.244C91.4661 121.112 93.4055 120.029 94.8902 118.985L103.818 112.688C104.512 112.132 105.312 111.715 106.172 111.461C108.011 111.044 109.81 112.166 111.348 113.23L130.073 126.15C130.444 125.412 130.643 124.605 130.658 123.784C130.673 122.963 130.503 122.149 130.16 121.399C131.919 121.928 133.197 123.357 134.741 124.375C136.286 125.393 138.634 125.725 139.757 124.303C140.881 122.88 140.031 120.969 138.781 119.82C137.53 118.672 135.885 117.987 134.661 116.806C132.234 114.45 131.986 110.731 130.455 107.755C129.358 105.667 127.586 103.918 126.81 101.693C125.546 98.0588 127.198 94.1437 128.816 90.6463C130.749 86.4963 132.936 82.0657 137.049 79.8994C138.433 79.1685 139.964 78.7379 141.382 78.0723C144.913 76.4215 149.32 72.526 151.046 69.035C152.557 65.9356 150.23 62.9405 147.662 61.0091Z" fill="#525063"/>
<path opacity="0.1" d="M116.774 125.337C118.655 126.529 120.78 127.291 122.628 128.535C124.477 129.779 126.096 131.667 126.149 133.881C126.201 135.998 124.838 137.854 123.527 139.534L107.556 160.353L115.699 162.495C114.387 164.293 114.053 166.585 113.371 168.695C112.69 170.805 111.405 172.999 109.228 173.553C107.261 174.054 105.203 173.025 103.17 173.143C101.669 173.234 100.253 173.937 98.7515 173.996C96.8175 174.067 95.0212 173.058 93.4084 171.99C89.8157 169.6 86.2493 166.175 86.2755 161.877C86.3606 160.423 86.6542 158.989 87.1475 157.618C89.5011 149.992 91.9399 142.184 96.8175 135.841C99.4399 132.455 102.646 129.596 105.852 126.757C106.581 126.028 107.438 125.439 108.382 125.018C110.48 124.237 112.768 125.201 114.938 125.826C117.108 126.451 119.842 126.542 121.094 124.699" fill="black" fill-opacity="0.95"/>
<path d="M116.767 123.231C118.649 124.451 120.773 125.241 122.621 126.521C124.47 127.801 126.09 129.744 126.149 132.016C126.208 134.287 124.837 136.11 123.526 137.839L107.549 159.242L115.692 161.446C114.381 163.296 114.046 165.648 113.365 167.826C112.683 170.004 111.398 172.255 109.221 172.825C107.254 173.341 105.196 172.282 103.164 172.403C101.662 172.49 100.246 173.22 98.7449 173.274C96.8109 173.347 95.0146 172.309 93.4019 171.21C89.8092 168.757 86.2428 165.226 86.2756 160.81C86.3541 159.314 86.6457 157.837 87.141 156.427C89.4946 148.574 91.9334 140.539 96.8109 134.019C99.4333 130.528 102.646 127.587 105.845 124.638C106.577 123.892 107.434 123.286 108.376 122.849C110.473 122.045 112.761 123.037 114.931 123.687C117.101 124.337 119.835 124.424 121.087 122.527" fill="#C59A9A"/>
<g opacity="0.1">
<path opacity="0.1" d="M279.467 53.4971C280.998 55.6141 283.376 56.9885 285.812 57.894C290.356 59.5819 295.302 59.8722 300.012 58.7277C304.572 57.6204 309.334 55.2103 313.613 57.1123C314.623 57.5617 315.568 58.2457 316.669 58.3239C317.746 58.3044 318.79 57.9517 319.658 57.3142C322.297 55.6858 324.72 53.3147 325.879 50.5203C325.879 50.6636 325.879 50.8069 325.918 50.9567C326.12 55.4187 322.772 59.2944 318.981 61.6329C318.116 62.2706 317.072 62.6214 315.998 62.636C314.897 62.5644 313.946 61.8739 312.936 61.431C308.656 59.5289 303.869 61.939 299.335 63.0464C294.624 64.1841 289.68 63.8939 285.134 62.2126C282.692 61.3007 280.321 59.9328 278.79 57.8158C277.259 55.6988 276.712 52.735 278.015 50.4617L278.112 50.2988C278.323 51.4516 278.786 52.5437 279.467 53.4971Z" fill="black" fill-opacity="0.95"/>
<path opacity="0.1" d="M280.334 42.6107C280.386 43.6138 279.78 44.4541 279.2 45.3074C279.119 45.0959 279.056 44.878 279.011 44.656C278.816 43.4901 279.376 42.3567 279.995 41.334C280.172 41.7397 280.287 42.1703 280.334 42.6107Z" fill="black" fill-opacity="0.95"/>
</g>
<path opacity="0.1" d="M202.852 9.45152L197.282 26.1007C199.145 27.4554 201.391 28.0785 203.429 29.1149C205.468 30.1512 207.448 31.8242 207.863 34.1543C208.181 35.9222 207.578 37.9542 208.564 39.4376C209.467 40.7923 211.304 41.0158 212.862 40.7923C214.42 40.5688 215.984 39.9998 217.542 40.2504C221.437 40.8668 222.885 43.3594 226.487 40.2843C230.09 37.2091 231.395 40.86 234.744 42.8243C237.77 44.599 241.502 44.4161 244.878 43.6033C246.792 43.2299 248.607 42.4331 250.201 41.2664C250.427 41.0731 250.644 40.8673 250.85 40.65C250.353 41.7601 249.604 42.7273 248.669 43.4678C247.075 44.6369 245.26 45.436 243.346 45.8114C239.97 46.6175 236.205 46.8003 233.213 45.0325C229.863 43.0682 228.487 39.485 224.955 42.4924C221.424 45.4998 219.892 43.0749 216.01 42.4924C214.452 42.2418 212.894 42.804 211.33 43.0343C209.765 43.2646 207.935 43.0343 207.032 41.6796C206.046 40.203 206.649 38.171 206.331 36.4031C205.916 34.073 203.936 32.4 201.897 31.3636C199.859 30.3273 197.613 29.6974 195.75 28.3495L201.346 11.6529C201.995 9.81729 202.709 7.83267 204.007 6.52539C203.557 7.47158 203.171 8.44933 202.852 9.45152Z" fill="black" fill-opacity="0.95"/>
<g opacity="0.1">
<path opacity="0.1" d="M130.943 121.402C132.383 122.053 134.2 122.151 135.112 120.933C136.135 119.63 135.379 117.611 134.161 116.458C132.943 115.305 131.341 114.627 130.149 113.448C127.784 111.103 127.543 107.39 126.051 104.42C124.983 102.329 123.257 100.583 122.501 98.3623C121.27 94.7406 122.879 90.8257 124.455 87.3409C126.338 83.1981 128.468 78.7752 132.474 76.6126C133.822 75.883 135.314 75.4531 136.695 74.7887C140.134 73.1407 144.427 69.2455 146.108 65.7606C147.521 62.8228 145.528 59.9698 143.157 58.0352C144.31 58.7842 145.437 59.5724 146.531 60.4127C149.039 62.3668 151.299 65.3306 149.788 68.4117C148.107 71.8966 143.815 75.7853 140.375 77.4333C138.994 78.0847 137.503 78.5277 136.154 79.2572C132.148 81.4198 130.018 85.8427 128.136 89.9855C126.553 93.4769 124.944 97.3852 126.182 101.013C126.937 103.235 128.663 104.98 129.732 107.065C131.243 110.035 131.464 113.748 133.829 116.099C135.021 117.278 136.623 117.956 137.842 119.109C139.06 120.262 139.796 122.255 138.793 123.584C137.789 124.913 135.405 124.639 133.907 123.655C132.897 122.971 131.979 122.073 130.943 121.402Z" fill="black" fill-opacity="0.95"/>
<path opacity="0.1" d="M91.4347 115.623L100.131 109.343C100.807 108.786 101.586 108.367 102.424 108.112C104.215 107.702 105.967 108.822 107.466 109.884L125.705 122.781C126.065 122.044 126.26 121.237 126.274 120.416C126.289 119.596 126.123 118.782 125.789 118.033C127.463 118.554 128.681 119.948 130.134 120.925C129.923 120.829 129.705 120.749 129.483 120.684C129.817 121.432 129.982 122.245 129.968 123.064C129.953 123.884 129.759 124.69 129.398 125.426L111.159 112.529C109.661 111.467 107.902 110.346 106.117 110.763C105.279 111.016 104.5 111.432 103.824 111.988L95.1281 118.274C93.682 119.316 91.793 120.397 90.2297 119.531C89.802 119.268 89.4511 118.897 89.2121 118.456C88.9732 118.015 88.8546 117.518 88.8683 117.017C89.7909 116.688 90.6568 116.218 91.4347 115.623Z" fill="black" fill-opacity="0.95"/>
</g>
<path d="M308.124 157.973C308.124 157.973 273.052 160.81 266.074 155.791L298.16 150.797L308.124 157.973Z" fill="#E3E8F4"/>
<path opacity="0.1" d="M308.124 157.973C308.124 157.973 273.052 160.81 266.074 155.791L298.16 150.797L308.124 157.973Z" fill="black" fill-opacity="0.95"/>
<path d="M308.124 158.052L298.005 151.327C298.005 151.327 267.82 160.435 259.549 156.675L267.965 144.277L297.873 150.4L308.124 158.052Z" fill="#E3E8F4"/>
<path d="M262.012 70.6564C260.867 72.0874 259.949 73.6823 259.288 75.3864C258.99 76.2888 258.842 77.2297 258.589 78.145C257.879 80.4242 256.785 82.5686 255.354 84.4878C252.163 89.077 248.177 93.5061 247.375 99.0169C246.986 101.737 247.413 104.502 247.957 107.197C248.251 108.974 248.764 110.708 249.484 112.362C250.306 114.116 251.529 115.658 252.467 117.354C253.325 119.019 254.047 120.748 254.629 122.526C255.735 121.431 256.389 119.966 257.276 118.685C258.162 117.405 259.482 116.253 261.042 116.234C262.841 116.234 264.323 117.706 266.102 117.937C266.38 117.992 266.668 117.965 266.931 117.86C267.578 117.559 267.629 116.695 267.578 116.004C267.066 111.171 264.271 106.403 265.591 101.718C266.808 97.3848 271.156 94.6774 273.441 90.7923C275.097 87.9697 275.589 84.6414 276.029 81.4028C276.579 77.5305 277.136 73.6263 276.89 69.7284C276.767 67.7634 275.188 55.3465 272.302 56.6458C271.299 57.0939 270.425 58.9948 269.797 59.8461L267.209 63.4751L262.012 70.6564Z" fill="#525063"/>
<path d="M184.149 152.71L162.906 168.922L135.574 164.341L153.978 150.797L184.149 152.71Z" fill="#E3E8F4"/>
<path opacity="0.1" d="M185.599 151.91L163.722 167.474L135.574 163.077L154.527 150.074L185.599 151.91Z" fill="black" fill-opacity="0.95"/>
<path d="M185.599 149.975L163.725 167.477L135.574 162.537L154.532 147.902L185.599 149.975Z" fill="#E3E8F4"/>
<path opacity="0.1" d="M185.6 147.943L164.67 166.75L137.75 161.436L155.883 145.725L185.6 147.943Z" fill="black" fill-opacity="0.95"/>
<path d="M185.6 147.714L164.674 164.575L137.75 159.811L155.879 145.725L185.6 147.714Z" fill="#E3E8F4"/>
<path d="M454.863 384.544C455.316 384.336 455.816 384.236 456.32 384.252C456.824 384.267 457.317 384.399 457.754 384.635C458.192 384.87 458.562 385.203 458.832 385.604C459.102 386.004 460.104 387.86 460.143 388.333L460.373 389.383V398.267L450.948 401.771L434.273 405.275L443.968 390.557L454.863 384.544Z" fill="#65617D"/>
<path d="M214.718 280.63L109.834 333.469C108.631 334.079 107.622 335.007 106.919 336.152C106.216 337.296 105.846 338.612 105.852 339.952C105.857 341.293 106.237 342.606 106.949 343.745C107.661 344.884 108.677 345.804 109.885 346.404L335.781 458.943C339.8 460.941 344.252 461.928 348.745 461.816C353.238 461.704 357.635 460.498 361.548 458.302L456.695 405.041C457.849 404.387 458.802 403.432 459.45 402.281C460.098 401.129 460.417 399.823 460.372 398.505C460.328 397.186 459.922 395.905 459.197 394.799C458.473 393.692 457.458 392.804 456.262 392.228L221.165 280.56C220.156 280.081 219.051 279.838 217.933 279.85C216.815 279.862 215.715 280.129 214.718 280.63Z" fill="#65617D" fill-opacity="0.9"/>
<path d="M110.137 326.46L106.215 330.633L106.215 340.572C106.22 341.487 106.559 342.284 107.044 343.057C107.528 343.83 108.939 344.717 109.756 345.112L341.316 457.075C341.841 457.331 342.423 457.445 343.005 457.408C343.586 457.371 344.149 457.183 344.638 456.862C345.127 456.541 345.526 456.099 345.797 455.577C346.068 455.055 346.202 454.472 346.186 453.883L345.708 436.844L110.137 326.46Z" fill="#65617D"/>
<path d="M214.725 270.493L109.843 323.958C108.639 324.573 107.629 325.511 106.924 326.668C106.22 327.826 105.848 329.156 105.852 330.513C105.855 331.87 106.233 333.199 106.943 334.352C107.654 335.506 108.669 336.439 109.875 337.048L335.784 450.936C339.803 452.956 344.255 453.954 348.748 453.84C353.241 453.727 357.637 452.507 361.551 450.287L456.695 396.381C457.849 395.719 458.802 394.753 459.45 393.588C460.098 392.422 460.417 391.101 460.372 389.767C460.328 388.432 459.922 387.135 459.197 386.016C458.473 384.897 457.458 383.997 456.263 383.415L221.171 270.415C220.162 269.931 219.057 269.686 217.939 269.7C216.821 269.713 215.721 269.984 214.725 270.493Z" fill="#D2D7E3"/>
<path d="M221.416 275.406C220.591 275.01 219.628 275.027 218.817 275.452L116.643 328.94C114.553 330.034 114.575 333.033 116.68 334.097L346.394 450.267C347.243 450.696 348.247 450.682 349.083 450.23L455.374 392.707C457.457 391.58 457.383 388.566 455.248 387.542L221.416 275.406Z" fill="white"/>
<path d="M216.413 345.824C237.834 345.824 255.2 336.898 255.2 325.887C255.2 314.876 237.834 305.949 216.413 305.949C194.991 305.949 177.625 314.876 177.625 325.887C177.625 336.898 194.991 345.824 216.413 345.824Z" fill="#CEAC6A" fill-opacity="0.5"/>
<path d="M418.856 397.114L372.83 422.915C367.284 426.125 370.374 429.488 374.668 432.007C378.961 434.526 383.187 436.391 388.733 433.181L426.903 411.087C432.448 407.877 442.222 404.604 440 400.745C437.778 396.887 424.402 393.904 418.856 397.114Z" fill="#D2D7E3"/>
<path d="M373.495 370.82L310.578 406.397C302.981 410.795 306.392 413.972 311.474 416.035C316.556 418.097 321.656 419.456 329.253 415.059L381.542 384.793C389.139 380.395 402.146 375.25 399.924 371.391C397.702 367.533 381.092 366.422 373.495 370.82Z" fill="#E3D0AA" fill-opacity="0.5"/>
<path d="M340.731 354.394L277.814 389.971C270.217 394.369 273.628 397.547 278.71 399.609C283.792 401.671 288.892 403.03 296.489 398.633L348.778 368.367C356.375 363.969 369.382 358.824 367.16 354.966C364.938 351.107 348.329 349.997 340.731 354.394Z" fill="#E3D0AA" fill-opacity="0.5"/>
<path d="M307.966 337.972L245.049 373.55C237.452 377.947 240.862 381.125 245.944 383.187C251.026 385.249 256.126 386.608 263.724 382.211L316.012 351.945C323.61 347.547 336.617 342.402 334.395 338.544C332.173 334.685 315.563 333.575 307.966 337.972Z" fill="#E3D0AA" fill-opacity="0.5"/>
</svg>
