<svg width="580" height="464" viewBox="0 0 580 464" fill="none" xmlns="http://www.w3.org/2000/svg">
<path d="M279.125 464C411.259 464 518.375 456.535 518.375 447.325C518.375 438.116 411.259 430.65 279.125 430.65C146.991 430.65 39.875 438.116 39.875 447.325C39.875 456.535 146.991 464 279.125 464Z" fill="#E3D0AA" fill-opacity="0.5"/>
<path d="M18.8929 53.0819C3.98405 70.6117 0.2124 92.8336 0.00687598 114.141C-0.137547 129.165 1.90659 145.462 14.3936 156.542C30.83 171.121 62.3863 173.994 70.5295 192.623C77.7507 209.176 60.9476 225.83 44.8056 237.513C28.6636 249.196 10.1276 263.501 13.1438 280.897C15.0546 292.005 25.5363 300.725 35.9903 308.045C55.8651 321.993 78.2061 334.195 103.391 340.131C149.084 350.888 198.438 339.752 241.254 322.892C267.611 312.514 298.212 299.777 324.386 310.45C331.296 313.267 337.161 317.524 343.533 321.05C362.058 331.244 384.682 334.998 406.701 338.184C438.974 342.871 472.891 346.782 503.986 338.329C535.081 329.877 561.955 305.155 557.195 278.788C552.706 253.949 524.133 237.759 501.364 220.792C493.332 214.806 485.156 206.872 487.155 198.163C488.744 191.256 496.221 186.447 502.886 181.984C537.97 158.361 563.755 125.751 575.609 89.9938C581.208 73.1223 583.23 53.6844 570.737 39.4575C560.661 27.9811 543.391 22.4689 526.966 17.933C496.487 9.51399 465.248 2.40053 433.191 0.481287C401.135 -1.43795 368.018 2.22199 339.561 14.3679C325.913 20.1981 313.543 27.8751 299.762 33.4878C260.634 49.4219 214.53 47.2795 170.892 44.7633C155.3 43.8651 139.002 42.2694 125.466 35.4293C113.801 29.5265 107.135 25.2975 92.6928 24.6392C64.386 23.3504 35.1016 33.9899 18.8929 53.0819Z" fill="#F7F7F7"/>
<path d="M504.924 226.972C504.924 226.972 511.951 215.329 510.084 197.063C508.217 178.797 501.46 149.233 501.46 149.233C501.46 149.233 504.394 132.67 488.483 130.344C488.483 130.344 478.595 128.49 471.523 124.01C468.894 122.34 466.656 120.32 465.447 117.888C465.447 117.888 465.353 118.161 465.17 118.662C465.014 118.411 464.87 118.153 464.739 117.888C464.739 117.888 464.701 117.988 464.64 118.166L461.939 113.925C461.939 113.925 461.568 114.32 460.944 114.972C459.858 113.4 458.932 111.722 458.182 109.963C458.854 109.799 459.513 109.587 460.154 109.328C460.767 109.124 461.32 108.768 461.762 108.293C462.149 107.751 462.399 107.123 462.491 106.462C462.922 104.347 463.044 102.179 462.856 100.028C462.706 98.3585 462.369 96.6889 462.485 94.9914C462.607 93.1826 463.242 91.435 463.331 89.6207C463.485 86.426 461.911 83.3873 459.966 80.855C458.806 79.3467 457.502 77.9442 456.497 76.3302C455.624 74.9277 454.989 73.3805 454.05 72.0169C451.84 68.8446 448.155 66.9745 444.376 66.3122C440.598 65.65 436.708 66.0618 432.924 66.6907C429.61 67.2473 426.295 68.0543 422.98 68.249C420.085 68.416 417.726 67.4309 415.075 69.3622C414.196 70.0145 413.467 70.8487 412.935 71.8087C412.404 72.7686 412.082 73.8321 411.992 74.9277C411.949 75.3006 411.977 75.6785 412.075 76.0408C412.231 76.4162 412.416 76.779 412.627 77.1261C413.804 79.4636 412.014 82.2408 412.246 84.851C412.388 86.0052 412.912 87.0775 413.734 87.8937C414.557 88.71 415.629 89.2225 416.776 89.3479C416.671 89.5706 416.555 89.7876 416.456 90.0158C414.989 93.3553 414.329 96.9977 414.53 100.644C414.732 104.29 415.789 107.836 417.616 110.991C419.442 114.146 421.985 116.819 425.036 118.791C428.088 120.763 431.559 121.977 435.167 122.335L436.195 123.131C438.515 124.939 441.122 127.104 443.636 129.459L443.586 129.498L443.178 129.264C442.412 129.874 441.608 130.431 440.769 130.934C438.443 132.369 434.692 134.234 430.471 134.445C430.471 134.445 422.914 138.48 420.312 151.788C416.577 155.16 408.584 161.249 398.021 162.835C383.177 165.061 364.874 165.79 364.874 165.79C364.874 165.79 364.725 166.058 364.515 166.547L362.825 166.236C362.825 166.236 362.825 166.442 362.753 166.792L362.09 166.492C355.046 166.792 327.482 165.403 335.76 170.375C353.14 177.832 359.762 174.517 359.762 174.517C362.092 173.626 359.762 179.484 362.189 178.919L362.847 178.791C362.958 179.116 363.115 179.423 363.311 179.704H364.913C365.469 180.864 366.141 181.964 366.918 182.988L404.252 182.164C404.252 182.164 410.633 180.762 416.522 181.652C413.953 200.998 410.92 222.214 410.92 222.214C410.92 222.214 404.567 255.813 409.014 259.325C411.596 258.457 414.226 257.747 416.892 257.199C416.933 259.275 417.151 261.343 417.544 263.382L420.389 282.143C420.389 282.143 421.494 301.311 425.19 312.754L428.449 328.393L431.178 340.214L432.714 360.278C434.823 368.777 436.348 377.413 437.277 386.124C438.719 399.604 446.547 421.387 447.592 424.253C444.918 428.066 439.426 434.533 432.537 435.201C422.704 436.158 422.466 442.13 429.339 444.278C436.211 446.426 450.674 444.278 450.674 444.278L471.07 439.197C470.457 442.987 470.137 445.981 470.584 446.304C471.888 447.261 491.682 452.426 492.395 444.156C492.45 443.473 492.5 442.811 492.544 442.169C492.839 436.871 492.136 431.564 490.472 426.53C490.312 426.034 490.168 425.533 490.041 425.032C490.335 424.702 490.604 424.35 490.848 423.98C490.848 423.98 492.273 401.652 493.339 393.648C493.422 393.008 493.478 392.229 493.505 391.35C493.997 381.755 490.522 356.515 490.522 356.515C490.522 356.515 486.229 340.097 486.39 332.55C486.414 331.923 486.52 331.302 486.705 330.702C486.705 330.702 486.705 330.552 486.649 330.302C486.649 330.196 486.699 330.085 486.732 329.984C486.732 329.984 484.556 314.958 484.859 306.019C484.902 304.686 485.087 303.361 485.412 302.068C485.757 300.37 485.933 298.642 485.937 296.909C486.213 290.786 485.892 280.212 485.451 270.294C485.5 270.127 485.55 269.96 485.589 269.765C485.678 268.976 485.585 268.176 485.318 267.428C485.285 266.788 485.257 266.153 485.224 265.525C485.406 264.896 485.555 264.228 485.688 263.538H485.975V263.577C485.975 263.577 504.548 262.681 508.819 257.666C508.819 257.666 504.504 244.158 502.112 233.178L504.924 226.972ZM424.886 184.958L424.593 184.852C425.063 183.183 425.621 181.24 426.251 179.203C425.715 181.407 425.251 183.411 424.886 184.958ZM443.736 129.587L443.818 129.665L443.73 129.615L443.736 129.587ZM466.938 419.283C465.938 415.816 461.966 401.679 462.093 394.94C462.121 394.354 462.223 393.774 462.397 393.214C462.765 391.993 462.952 390.723 462.95 389.446C463.347 382.412 460.673 369.806 460.673 369.806C460.673 369.806 454.69 352.803 455.149 339.301C455.149 338.962 455.188 338.622 455.21 338.283C455.309 337.003 455.387 335.617 455.442 334.153V334.125C455.668 328.91 455.619 322.632 455.469 316.777L455.436 316.56C455.232 308.808 454.851 301.828 454.69 299.068C455.243 303.058 458.779 327.897 460.303 331.96C460.303 331.96 461.137 343.42 464.927 353.109L469.082 378.299C469.082 378.299 470.148 408.275 471.921 416.751C472.717 420.524 473.391 423.068 473.893 424.726C473.175 428.105 472.015 433.765 471.236 438.451C470.778 435.395 469.164 423.752 466.944 419.283H466.938Z" fill="url(#paint0_linear)"/>
<path d="M448.735 420.305C448.735 420.305 441.784 433.274 432.008 434.243C422.232 435.212 421.999 441.272 428.828 443.455C435.658 445.638 450.031 443.455 450.031 443.455L470.525 438.245C470.525 438.245 468.049 417.392 464.754 416.303C461.458 415.214 448.735 420.305 448.735 420.305Z" fill="#4C4C78"/>
<path d="M473.367 420.522C473.367 420.522 467.924 443.941 469.296 444.892C470.668 445.843 491.306 450.922 492.05 442.762C492.108 442.076 492.161 441.419 492.207 440.792C492.512 435.544 491.778 430.288 490.044 425.3C489.462 423.631 489.055 421.846 489.207 420.522C489.55 417.212 473.367 420.522 473.367 420.522Z" fill="#4C4C78" fill-opacity="0.9"/>
<path d="M467.625 122.898C467.625 122.898 451.458 162.434 454.335 149.736C456.239 141.326 443.934 130.153 435.425 123.588C431.095 120.224 427.75 118.088 427.75 118.088C427.75 118.088 458.103 82.857 455.951 98.056C455.361 102.219 455.934 106.463 457.607 110.323C460.958 118.25 467.625 122.898 467.625 122.898Z" fill="#FFB9B9"/>
<path d="M369.025 177.414C368.148 177.27 366.715 177.362 365.231 177.565C362.717 177.935 360.245 178.413 357.833 178.997C357.833 178.997 351.429 180.447 333.902 170.826C326.273 165.328 359.692 167.905 365.127 169.414C366.975 169.933 368.2 170.368 368.2 170.368L369.025 177.414Z" fill="#FFB9B9"/>
<path opacity="0.1" d="M366.126 178.86C365.129 178.655 363.502 178.786 361.815 179.075C360.306 176.036 361.455 168.832 361.697 167.475C363.797 168.213 365.188 168.832 365.188 168.832L366.126 178.86Z" fill="black"/>
<path d="M365.082 168.018L361.686 167.475C361.686 167.475 359.948 177.806 362.22 180.525H366.126L365.082 168.018Z" fill="#CBCDDA"/>
<path d="M426.704 186.271C426.704 186.271 417.228 180.629 416.095 187.75C414.963 194.87 413.471 207.035 413.471 207.035L410.847 222.52L407.449 253.546L407.926 258.825C407.926 258.825 418.019 255.444 420.385 256.632C422.751 257.821 424.68 243.58 424.68 243.58L428.605 228.865L429.199 197.66L426.704 186.271Z" fill="#4C4C78"/>
<path opacity="0.1" d="M426.704 186.271C426.704 186.271 417.228 180.629 416.095 187.75C414.963 194.87 413.471 207.035 413.471 207.035L410.847 222.52L407.449 253.546L407.926 258.825C407.926 258.825 418.019 255.444 420.385 256.632C422.751 257.821 424.68 243.58 424.68 243.58L428.605 228.865L429.199 197.66L426.704 186.271Z" fill="black"/>
<path d="M422.675 150.801C422.675 150.801 412.88 161.86 398.008 164.085C383.137 166.31 364.787 167.031 364.787 167.031C364.787 167.031 360.158 175.323 366.836 184.151L404.252 183.323C404.252 183.323 412.533 181.523 418.95 183.323L422.675 150.801Z" fill="#4C4C78"/>
<path opacity="0.05" d="M422.675 150.801C422.675 150.801 412.88 161.86 398.008 164.085C383.137 166.31 364.787 167.031 364.787 167.031C364.787 167.031 360.158 175.323 366.836 184.151L404.252 183.323C404.252 183.323 412.533 181.523 418.95 183.323L422.675 150.801Z" fill="black"/>
<path opacity="0.1" d="M455.972 110.173C452.294 118.118 445.899 123.975 436.625 123.975C436.214 123.975 435.815 123.975 435.416 123.947C431.091 120.542 427.75 118.379 427.75 118.379C427.75 118.379 458.064 82.7175 455.916 98.1025C455.252 102.813 454.493 106.638 455.972 110.173Z" fill="black" fill-opacity="0.9"/>
<path d="M458.925 100.066C458.921 104.51 457.6 108.854 455.128 112.548C452.657 116.242 449.145 119.12 445.038 120.819C440.93 122.517 436.412 122.959 432.053 122.09C427.694 121.22 423.691 119.078 420.55 115.934C417.408 112.789 415.27 108.784 414.405 104.424C413.539 100.065 413.986 95.5466 415.689 91.4409C417.391 87.3351 420.272 83.8264 423.969 81.3582C427.665 78.89 432.01 77.5732 436.455 77.5743C439.409 77.5685 442.335 78.1465 445.066 79.275C447.796 80.4035 450.276 82.0603 452.364 84.1503C454.452 86.2402 456.106 88.7221 457.232 91.4534C458.358 94.1847 458.933 97.1114 458.925 100.066Z" fill="#FFB9B9"/>
<path d="M474.15 240.618C474.15 240.618 423.399 245.167 421.538 238.588C419.677 232.009 426.716 214.195 426.716 214.195L424.423 189.323L424.34 188.373C424.34 188.373 430.698 161.466 430.465 159.318C430.244 157.384 440.7 134.806 442.848 130.19C443.103 129.656 443.236 129.363 443.236 129.363L443.64 129.599L443.818 129.706L446.304 131.179L456.123 128.818L467.958 122.525L469.066 191.359L474.15 240.618Z" fill="#CBCDDA"/>
<path opacity="0.1" d="M446.61 131.341C446.61 131.341 443.147 130.399 441.793 133.874C441.264 135.368 440.636 136.826 439.915 138.237L438.567 146.308L436.098 159.057L434.275 215.458L435.098 225.475L439.622 217.404L440.445 164.683V158.126C440.71 152.456 441.986 146.88 444.213 141.662L444.842 140.182L448.775 135.11L446.61 131.341Z" fill="black" fill-opacity="0.9"/>
<path d="M446.605 131.341C446.605 131.341 443.138 130.399 441.79 133.874C441.26 135.368 440.631 136.826 439.908 138.236L438.56 146.311L436.092 159.059L434.275 215.454L435.098 225.475L439.62 217.377L440.443 164.696V158.122C440.713 152.454 441.988 146.88 444.209 141.661L444.844 140.181L448.775 135.116L446.605 131.341Z" fill="#4C4C78" fill-opacity="0.95"/>
<path opacity="0.1" d="M461.062 116C461.062 116 449.839 128.174 445.875 129.619C445.875 129.619 447.857 138.85 449.839 140.65C449.839 140.65 461.616 128.365 463.701 127.37L465.45 122.992L461.062 116Z" fill="black" fill-opacity="0.9"/>
<path d="M461.062 114.551C461.062 114.551 449.839 127.441 445.875 128.971C445.875 128.971 447.857 138.745 449.839 140.651C449.839 140.651 461.616 127.643 463.701 126.589L465.45 121.96L461.062 114.551Z" fill="#CBCDDA"/>
<path opacity="0.1" d="M442.25 131.225L442.137 131.551L438.578 141.687L432.212 160.812C432.212 160.812 432.156 161.008 432.043 161.356C430.988 164.838 425.318 183.735 424.202 189.225L424.125 188.305C424.125 188.305 430.004 162.27 429.789 160.192C429.585 158.32 439.254 136.475 441.241 132.008C441.559 131.78 441.804 131.584 441.973 131.437L442.25 131.225Z" fill="black" fill-opacity="0.9"/>
<path d="M442.249 131.225L438.351 141.828L431.602 161.199C431.602 161.199 431.542 161.397 431.423 161.75C430.239 165.508 423.49 186.962 422.947 190.886C422.334 195.195 413.847 218.49 413.847 218.49L408.999 258.825C404.655 255.402 410.823 222.452 410.823 222.452C410.823 222.452 417.751 173.587 419.391 157.33C421.031 141.073 429.875 136.322 429.875 136.322C433.958 136.113 437.64 134.283 439.904 132.878C440.721 132.381 441.505 131.829 442.249 131.225Z" fill="#4C4C78" fill-opacity="0.95"/>
<path opacity="0.1" d="M492.091 392.996C491.034 400.97 489.622 423.213 489.622 423.213C484.679 430.706 473.73 426.66 473.73 426.66C473.73 426.66 472.556 424.422 470.791 415.95C469.025 407.478 467.968 377.636 467.968 377.636L463.844 352.567C460.079 342.925 459.255 331.504 459.255 331.504C457.594 327.1 453.603 298.187 453.603 298.187C453.603 298.187 455.264 324.123 454.195 337.811C453.127 351.498 459.603 369.913 459.603 369.913C459.603 369.913 463.257 387.171 461.369 392.526C459.482 397.881 466.08 420.007 466.08 420.007C465.526 426.436 446.783 423.818 446.783 423.818C446.783 423.818 437.965 399.896 436.421 385.498C435.495 376.823 433.98 368.222 431.887 359.757L430.359 339.763L427.647 327.945L424.414 312.361C420.761 300.94 419.648 281.842 419.648 281.842L416.819 263.101C414.971 253.835 417.373 242.957 418.967 237.266C419.659 234.798 420.213 233.293 420.213 233.293C421.835 234.457 431.123 235.822 435.928 236.93C438.558 237.543 441.262 237.761 443.954 237.579C456.102 236.604 468.119 234.377 479.819 230.931C480.611 230.691 481.031 230.551 481.031 230.551L481.28 232.694L481.867 237.797L482.913 246.857C482.913 246.857 486.091 295.165 484.209 301.695C482.327 308.226 485.504 330.234 485.504 330.234C483.738 335.455 489.268 356.674 489.268 356.674C489.268 356.674 493.154 385.022 492.091 392.996Z" fill="black" fill-opacity="0.9"/>
<path d="M492.091 391.198C491.034 399.085 489.622 421.085 489.622 421.085C484.679 428.502 473.73 424.495 473.73 424.495C473.73 424.495 472.556 422.281 470.791 413.907C469.025 405.533 467.968 376.005 467.968 376.005L463.844 351.176C460.107 341.639 459.255 330.315 459.255 330.315C457.594 325.959 453.603 297.361 453.603 297.361C453.603 297.361 455.264 323.015 454.195 336.553C453.127 350.091 459.603 368.328 459.603 368.328C459.603 368.328 463.257 385.397 461.369 390.694C459.482 395.991 466.08 417.881 466.08 417.881C465.526 424.235 446.783 421.644 446.783 421.644C446.783 421.644 437.965 398.011 436.421 383.764C435.495 375.184 433.98 366.677 431.887 358.304L430.359 338.534L427.647 326.884L424.414 311.469C420.761 300.167 419.648 281.277 419.648 281.277L416.819 262.741C414.971 253.575 417.373 242.816 418.967 237.187C419.659 234.752 420.213 233.263 420.213 233.263C421.835 234.414 431.123 235.759 435.928 236.855C438.557 237.464 441.262 237.68 443.954 237.497C456.102 236.533 468.119 234.329 479.819 230.922L481.031 230.551L481.28 232.665L481.867 237.718L482.913 246.679C482.913 246.679 486.091 294.455 484.209 300.92C482.327 307.385 485.504 329.147 485.504 329.147C483.738 334.306 489.268 355.294 489.268 355.294C489.268 355.294 493.154 383.3 492.091 391.198Z" fill="#474463" fill-opacity="0.95"/>
<path opacity="0.1" d="M458.904 100.648C458.911 104.685 457.89 108.652 455.945 112.153C452.464 112.787 448.761 112.085 446.155 109.709C444.372 108.086 443.219 105.867 441.685 103.985C440.692 102.829 439.626 101.742 438.492 100.733C437.752 99.9714 436.903 99.3329 435.974 98.8397C435.507 98.596 434.992 98.4662 434.469 98.4604C433.946 98.4545 433.428 98.5728 432.956 98.806C431.727 99.5138 431.324 101.092 430.612 102.35C430.076 103.431 429.159 104.257 428.05 104.659C427.496 104.842 426.899 104.837 426.348 104.644C425.797 104.451 425.32 104.08 424.988 103.586C424.232 102.244 424.787 100.149 423.52 99.3284C423.186 99.1579 422.84 99.0115 422.486 98.8903C420.855 98.1263 420.664 95.8626 420.523 94.0089C420.452 93.0989 420.262 92.071 419.522 91.5823C418.783 91.0936 417.809 91.3407 416.928 91.3576C416.667 91.3682 416.406 91.3474 416.15 91.2958C418.227 86.4601 421.85 82.5081 426.411 80.1013C430.972 77.6945 436.195 76.9791 441.206 78.0747C446.217 79.1703 450.712 82.0105 453.937 86.1199C457.163 90.2292 458.924 95.3583 458.925 100.648H458.904Z" fill="black" fill-opacity="0.9"/>
<path d="M414.18 71.4465C413.299 72.0763 412.567 72.8817 412.035 73.8086C411.502 74.7355 411.181 75.7622 411.093 76.8195C411.051 77.1728 411.079 77.5307 411.177 77.8736C411.333 78.2375 411.519 78.5882 411.735 78.9222C412.907 81.1763 411.116 83.8465 411.344 86.3601C411.5 87.5475 412.094 88.6401 413.018 89.4353C413.942 90.2304 415.132 90.6743 416.368 90.6844C417.273 90.6844 418.266 90.4249 419.031 90.9006C419.796 91.3763 419.986 92.3601 420.058 93.2357C420.203 95.0195 420.388 97.1979 422.068 97.933C422.43 98.0525 422.784 98.1933 423.128 98.3547C424.435 99.1439 423.865 101.165 424.641 102.452C424.982 102.927 425.471 103.284 426.037 103.47C426.603 103.655 427.215 103.661 427.784 103.484C428.92 103.099 429.859 102.306 430.408 101.268C431.128 100.052 431.557 98.5655 432.819 97.8574C433.303 97.6309 433.834 97.5155 434.371 97.5202C434.909 97.5249 435.438 97.6495 435.917 97.8844C436.871 98.3609 437.742 98.9772 438.502 99.7114C439.666 100.681 440.761 101.727 441.778 102.841C443.353 104.647 444.536 106.782 446.367 108.344C449.817 111.279 455.097 111.587 459.351 109.895C459.965 109.697 460.519 109.355 460.964 108.901C461.353 108.378 461.604 107.771 461.696 107.133C462.128 105.098 462.252 103.013 462.064 100.944C461.913 99.3222 461.573 97.7006 461.69 96.079C461.807 94.3384 462.449 92.6574 462.539 90.9168C462.695 87.8357 461.115 84.9114 459.189 82.4736C458.028 81.0195 456.722 79.6736 455.717 78.1168C454.841 76.7654 454.204 75.279 453.267 73.9708C451.067 70.9168 447.361 69.106 443.576 68.4735C439.791 67.8411 435.9 68.2303 432.11 68.8411C428.805 69.3816 425.478 70.1492 422.129 70.3384C419.199 70.5384 416.837 69.5816 414.18 71.4465Z" fill="#353535" fill-opacity="0.9"/>
<path opacity="0.1" d="M442.25 131.225L438.073 141.54L430.842 160.387C430.842 160.387 430.778 160.58 430.65 160.923V160.95L439.749 132.822C440.621 132.342 441.456 131.808 442.25 131.225Z" fill="black" fill-opacity="0.9"/>
<path d="M485.736 253.355C485.736 253.355 486.122 265.259 482.853 268.251L474.15 252.158L481.45 248.676L485.736 253.355Z" fill="#FFB9B9"/>
<path opacity="0.1" d="M506.775 257.349C502.541 262.29 484.114 263.175 484.114 263.175L465.875 234.406C465.875 234.406 461.558 231.408 453.45 217.903C445.341 204.398 445.607 193.997 446.06 186.23C446.513 178.462 451.587 156.139 451.587 156.139C452.377 151.116 463.747 119.625 463.747 119.625C464.94 122.009 467.162 124.001 469.76 125.644C476.78 130.07 486.579 131.885 486.579 131.885C502.364 134.181 499.452 150.502 499.452 150.502C499.452 150.502 499.628 213.942 498.656 221.532C497.683 229.123 506.775 257.349 506.775 257.349Z" fill="black" fill-opacity="0.9"/>
<path d="M485.75 255.813L485.221 260.276L478.834 258.047L474.15 251.298L477.666 248.676L485.75 255.813Z" fill="#CBCDDA"/>
<path opacity="0.1" d="M485.751 236.461L482.374 236.775L449.812 239.736C444.583 240.213 439.305 239.978 434.153 239.036L419.051 236.289C419.747 234.058 420.305 232.695 420.305 232.695C421.937 233.749 431.289 234.981 436.126 235.985C438.772 236.542 441.495 236.74 444.206 236.573C456.435 235.689 468.534 233.672 480.312 230.551L481.783 232.147L485.751 236.461Z" fill="black" fill-opacity="0.9"/>
<g opacity="0.1">
<path opacity="0.1" d="M420.801 233.095C420.693 233.042 420.589 232.982 420.489 232.916C420.489 232.916 420.489 232.95 420.455 233L420.801 233.095Z" fill="black"/>
<path opacity="0.1" d="M489.784 355.803C489.784 355.803 484.229 334.67 486.007 329.476C486.007 329.476 482.818 307.573 484.712 301.053C486.606 294.532 483.407 246.436 483.407 246.436L482.357 237.413L481.768 232.324L481.524 230.195L480.302 230.569L479.546 230.792L479.641 231.616L480.23 236.699L481.279 245.722C481.279 245.722 484.468 293.835 482.585 300.339C480.702 306.843 483.879 328.762 483.879 328.762C482.107 333.962 487.656 355.09 487.656 355.09C487.656 355.09 491.545 383.301 490.495 391.238C489.445 399.174 488.012 421.333 488.012 421.333C484.39 426.789 477.552 426.109 474.125 425.345L474.186 425.479C474.186 425.479 485.173 429.514 490.134 422.046C490.134 422.046 491.55 399.882 492.617 391.951C493.683 384.02 489.784 355.803 489.784 355.803Z" fill="black" fill-opacity="0.9"/>
<path opacity="0.1" d="M461.794 391.478C463.682 386.144 460.022 368.956 460.022 368.956C460.022 368.956 453.528 350.565 454.589 336.961C455.034 331.282 455.006 323.49 454.817 316.34C453.312 307.116 451.867 296.834 451.867 296.834C451.867 296.834 453.534 322.666 452.467 336.292C451.401 349.918 457.894 368.293 457.894 368.293C457.894 368.293 461.56 385.475 459.666 390.809C457.772 396.142 464.382 418.156 464.382 418.156C463.91 423.284 451.773 422.615 446.957 422.169L447.14 422.659C447.14 422.659 465.921 425.268 466.51 418.87C466.521 418.853 459.905 396.811 461.794 391.478Z" fill="black" fill-opacity="0.9"/>
</g>
<path d="M508.949 257.349C504.671 262.29 486.02 263.175 486.02 263.175L467.565 234.406C467.565 234.406 463.197 231.408 454.987 217.903C446.777 204.398 447.057 193.997 447.51 186.23C447.963 178.462 453.102 156.139 453.102 156.139C453.902 151.116 465.406 119.625 465.406 119.625C466.608 122.009 468.856 124.001 471.49 125.644C478.593 130.07 488.509 131.885 488.509 131.885C504.475 134.181 501.528 150.502 501.528 150.502C501.528 150.502 501.707 213.942 500.723 221.532C499.738 229.123 508.949 257.349 508.949 257.349Z" fill="#4C4C78" fill-opacity="0.95"/>
<path opacity="0.1" d="M467.938 135.106L464.053 136.569L466.64 138.405L447.324 185.6C447.773 177.928 452.735 155.794 452.735 155.794C453.508 150.818 464.638 119.625 464.638 119.625C465.801 121.987 467.976 123.96 470.524 125.587L467.938 135.106Z" fill="black" fill-opacity="0.9"/>
<path opacity="0.1" d="M471.975 220.456L492.485 215.324L495.175 223.412L474.215 228.374L471.975 220.456Z" fill="black" fill-opacity="0.9"/>
<path opacity="0.1" d="M483.985 138.921C483.985 138.921 474.524 147.541 478.094 166.753C481.664 185.964 487.372 206.821 487.372 206.821L471.975 248.126C471.975 248.126 482.707 258.961 487.982 260.275L503.351 227.247C503.351 227.247 510.537 215.8 508.627 197.836C506.716 179.873 499.804 150.805 499.804 150.805C499.804 150.805 499.81 133.112 483.985 138.921Z" fill="black" fill-opacity="0.9"/>
<path d="M485.938 138.921C485.938 138.921 476.664 147.541 480.15 166.753C483.637 185.964 489.234 206.821 489.234 206.821L474.15 248.126C474.15 248.126 484.665 258.961 489.832 260.275L504.916 227.247C504.916 227.247 511.955 215.8 510.084 197.836C508.212 179.873 501.441 150.805 501.441 150.805C501.441 150.805 501.441 133.112 485.938 138.921Z" fill="#4C4C78" fill-opacity="0.95"/>
<path opacity="0.1" d="M474.334 248.747C474.334 248.747 486.628 264.941 485.7 269.254C484.771 273.566 481.167 271.26 481.167 271.26L476.326 264.941L471.975 253.121C471.975 253.121 472.401 248.019 474.334 248.747Z" fill="black" fill-opacity="0.9"/>
<path opacity="0.1" d="M472.761 248.747C472.761 248.747 484.383 264.941 483.531 269.254C482.678 273.566 479.236 271.26 479.236 271.26L474.643 264.941L470.525 253.121C470.525 253.121 470.929 248.019 472.761 248.747Z" fill="black" fill-opacity="0.9"/>
<path d="M472.762 248.747C472.762 248.747 484.388 264.941 483.53 269.254C482.672 273.566 479.234 271.26 479.234 271.26L474.644 264.941L470.525 253.121C470.525 253.121 470.924 248.019 472.762 248.747Z" fill="#474463"/>
<path opacity="0.5" d="M266.8 260.274C267.6 260.274 268.25 259.138 268.25 257.737C268.25 256.335 267.6 255.199 266.8 255.199C265.999 255.199 265.35 256.335 265.35 257.737C265.35 259.138 265.999 260.274 266.8 260.274Z" fill="#47E6B1"/>
<path d="M293.625 136.155H291.468V77.0081C291.468 67.929 287.865 59.2218 281.451 52.8019C275.037 46.3821 266.338 42.7754 257.268 42.7754H132.075C127.584 42.7754 123.137 43.6608 118.988 45.3811C114.838 47.1015 111.068 49.623 107.892 52.8018C104.716 55.9806 102.197 59.7544 100.478 63.9076C98.7596 68.0609 97.875 72.5124 97.875 77.0079V401.493C97.875 405.988 98.7596 410.44 100.478 414.593C102.197 418.746 104.716 422.52 107.892 425.699C111.068 428.878 114.838 431.399 118.987 433.12C123.137 434.84 127.584 435.725 132.075 435.725H257.268C261.759 435.725 266.206 434.84 270.355 433.12C274.505 431.399 278.275 428.878 281.451 425.699C284.627 422.52 287.146 418.746 288.865 414.593C290.583 410.44 291.468 405.988 291.468 401.493V178.257H293.625V136.155Z" fill="#353535" fill-opacity="0.7"/>
<path d="M297.974 133.255H295.825V74.1077C295.825 65.0286 292.235 56.3214 285.845 49.9015C279.455 43.4817 270.788 39.875 261.752 39.875H137.023C132.548 39.875 128.118 40.7604 123.984 42.4808C119.85 44.2011 116.093 46.7226 112.929 49.9014C109.765 53.0802 107.255 56.854 105.543 61.0073C103.831 65.1605 102.949 69.612 102.949 74.1075V398.592C102.949 403.088 103.831 407.539 105.543 411.693C107.255 415.846 109.765 419.62 112.929 422.798C116.093 425.977 119.849 428.499 123.983 430.219C128.117 431.94 132.548 432.825 137.023 432.825H261.751C266.226 432.825 270.657 431.94 274.791 430.219C278.925 428.499 282.681 425.977 285.845 422.799C289.009 419.62 291.519 415.846 293.231 411.693C294.944 407.539 295.825 403.088 295.825 398.592V175.356H297.974V133.255Z" fill="#353535" fill-opacity="0.15"/>
<path d="M257.826 52.9258H241.415C242.17 54.7685 242.458 56.7677 242.254 58.7474C242.05 60.727 241.36 62.6264 240.246 64.2781C239.131 65.9298 237.626 67.2832 235.862 68.2191C234.099 69.1549 232.131 69.6445 230.133 69.6446H158.108C156.11 69.6444 154.142 69.1549 152.379 68.2191C150.615 67.2832 149.11 65.9298 147.995 64.2781C146.881 62.6264 146.191 60.727 145.987 58.7474C145.783 56.7677 146.071 54.7685 146.826 52.9258H131.498C124.696 52.9258 118.172 55.6169 113.362 60.4072C108.552 65.1975 105.85 71.6945 105.85 78.469V402.208C105.85 405.562 106.513 408.883 107.802 411.983C109.091 415.082 110.98 417.897 113.362 420.269C115.744 422.641 118.571 424.523 121.683 425.806C124.795 427.09 128.13 427.751 131.498 427.751H257.826C264.628 427.751 271.152 425.06 275.962 420.269C280.772 415.479 283.475 408.982 283.475 402.208V78.469C283.475 75.1146 282.811 71.7931 281.522 68.694C280.233 65.595 278.344 62.7791 275.962 60.4072C273.581 58.0353 270.753 56.1538 267.641 54.8701C264.53 53.5865 261.194 52.9258 257.826 52.9258ZM255.069 203.11C255.064 204.863 254.362 206.543 253.117 207.783C251.873 209.023 250.186 209.721 248.425 209.726H216.315C214.555 209.721 212.868 209.023 211.623 207.783C210.378 206.543 209.677 204.863 209.672 203.11V201.456C209.677 199.703 210.378 198.023 211.623 196.783C212.868 195.544 214.555 194.845 216.315 194.84H248.425C250.186 194.845 251.873 195.544 253.117 196.783C254.362 198.023 255.064 199.703 255.069 201.456V203.11ZM258.667 173.889C258.662 175.642 257.961 177.322 256.716 178.561C255.471 179.801 253.784 180.5 252.024 180.505H136.87C135.11 180.5 133.423 179.801 132.178 178.561C130.933 177.322 130.232 175.642 130.227 173.889V172.234C130.232 170.481 130.933 168.801 132.178 167.562C133.423 166.322 135.11 165.623 136.87 165.618H252.024C253.784 165.623 255.471 166.322 256.716 167.562C257.961 168.801 258.662 170.481 258.667 172.234V173.889ZM258.667 144.667C258.662 146.42 257.961 148.1 256.716 149.34C255.471 150.579 253.784 151.278 252.024 151.283H136.87C135.11 151.278 133.423 150.579 132.178 149.34C130.933 148.1 130.232 146.42 130.227 144.667V143.013C130.232 141.26 130.933 139.58 132.178 138.34C133.423 137.1 135.11 136.402 136.87 136.397H252.024C253.784 136.402 255.471 137.1 256.716 138.34C257.961 139.58 258.662 141.26 258.667 143.013V144.667ZM258.667 115.445C258.662 117.198 257.961 118.878 256.716 120.118C255.471 121.358 253.784 122.056 252.024 122.061H136.87C135.11 122.056 133.423 121.358 132.178 120.118C130.933 118.878 130.232 117.198 130.227 115.445V113.791C130.232 112.038 130.933 110.358 132.178 109.118C133.423 107.879 135.11 107.18 136.87 107.175H252.024C253.784 107.18 255.471 107.879 256.716 109.118C257.961 110.358 258.662 112.038 258.667 113.791V115.445Z" fill="white"/>
<path d="M105.85 400.924V275.499L195.75 222.574L283.475 266.437V400.924H105.85Z" fill="#CEAC6A" fill-opacity="0.5"/>
<path d="M105.851 356.7V400.925C105.851 400.925 254.114 430.287 269.701 424.487C285.289 418.687 283.476 400.925 283.476 400.925V356.7L194.664 312.475L194.479 312.566L105.851 356.7Z" fill="#F2F2F2"/>
<path opacity="0.1" d="M105.85 351.573V400.924C105.85 400.924 106.575 420.137 119.625 423.762C132.675 427.387 195.025 400.924 195.025 400.924V302.324L105.85 351.573Z" fill="black"/>
<path d="M202.276 332.393L208.801 334.95V324.869L202.276 321.9V332.393Z" fill="#3F3D56"/>
<path d="M276.951 362.355L277.676 363.225V356.991L276.951 355.975V362.355Z" fill="#3F3D56"/>
<path d="M267.526 359.314L270.426 360.325V353.534L267.526 352.35V359.314Z" fill="#3F3D56"/>
<path d="M258.824 356.795L262.449 358.15V349.586L258.824 348V356.795Z" fill="#3F3D56"/>
<path d="M249.401 350.991L252.301 352.35V345.23L249.401 343.65V350.991Z" fill="#3F3D56"/>
<path d="M236.349 346.282L240.699 348V339.843L236.349 337.85V346.282Z" fill="#3F3D56"/>
<path d="M221.849 340.787L226.199 342.925V333.087L221.849 330.6V340.787Z" fill="#3F3D56"/>
<path d="M276.951 374.35L277.676 374.825V369.623L276.951 369.025V374.35Z" fill="#3F3D56"/>
<path d="M267.526 372.738L270.426 373.375V366.927L267.526 366.125V372.738Z" fill="#3F3D56"/>
<path d="M258.824 370.455L262.449 371.2V364.159L258.824 363.225V370.455Z" fill="#3F3D56"/>
<path d="M249.401 368.024L252.301 369.025V360.853L249.401 359.6V368.024Z" fill="#3F3D56"/>
<path d="M236.349 364.933L240.699 366.125V357.459L236.349 355.975V364.933Z" fill="#3F3D56"/>
<path d="M221.849 360.384L226.199 361.775V352.641L221.849 350.9V360.384Z" fill="#3F3D56"/>
<path d="M202.276 356.37L208.801 358.15V347.321L202.276 345.1V356.37Z" fill="#3F3D56"/>
<path d="M202.276 377.584L208.801 378.45V368.136L202.276 366.85V377.584Z" fill="#3F3D56"/>
<path d="M276.951 388.269L277.676 388.6V381.84L276.951 381.35V388.269Z" fill="#3F3D56"/>
<path d="M267.526 386.834L270.426 387.15V381.096L267.526 380.625V386.834Z" fill="#3F3D56"/>
<path d="M258.824 386.685L262.449 387.15V378.424L258.824 377.725V386.685Z" fill="#3F3D56"/>
<path d="M249.401 384.39L252.301 384.974V375.697L249.401 374.824V384.39Z" fill="#3F3D56"/>
<path d="M236.349 382.902L240.699 383.525V374.31L236.349 373.375V382.902Z" fill="#3F3D56"/>
<path d="M221.849 380.607L226.199 381.35V371.591L221.849 370.475V380.607Z" fill="#3F3D56"/>
<path d="M112.375 362.355L110.2 363.225V356.991L112.375 355.975V362.355Z" fill="#3F3D56"/>
<path d="M119.625 359.314L117.45 360.325V353.534L119.625 352.35V359.314Z" fill="#3F3D56"/>
<path d="M129.051 356.795L126.151 358.15V349.586L129.051 348V356.795Z" fill="#3F3D56"/>
<path d="M139.926 350.991L136.301 352.35V345.23L139.926 343.65V350.991Z" fill="#3F3D56"/>
<path d="M151.525 346.282L147.175 348V339.843L151.525 337.85V346.282Z" fill="#3F3D56"/>
<path d="M166.75 340.787L162.4 342.925V333.087L166.75 330.6V340.787Z" fill="#3F3D56"/>
<path d="M112.375 374.35L110.2 374.825V369.623L112.375 369.025V374.35Z" fill="#3F3D56"/>
<path d="M119.625 372.738L117.45 373.375V366.927L119.625 366.125V372.738Z" fill="#3F3D56"/>
<path d="M129.051 370.455L126.151 371.2V364.159L129.051 363.225V370.455Z" fill="#3F3D56"/>
<path d="M139.926 368.024L136.301 369.025V360.853L139.926 359.6V368.024Z" fill="#3F3D56"/>
<path d="M151.525 364.933L147.175 366.125V357.459L151.525 355.975V364.933Z" fill="#3F3D56"/>
<path d="M166.75 360.384L162.4 361.775V352.641L166.75 350.9V360.384Z" fill="#3F3D56"/>
<path d="M186.324 356.37L179.799 358.15V347.321L186.324 345.1V356.37Z" fill="#3F3D56"/>
<path d="M186.324 377.584L179.799 378.45V368.136L186.324 366.85V377.584Z" fill="#3F3D56"/>
<path d="M112.375 388.269L110.2 388.6V381.84L112.375 381.35V388.269Z" fill="#3F3D56"/>
<path d="M119.625 386.834L117.45 387.15V381.096L119.625 380.625V386.834Z" fill="#3F3D56"/>
<path d="M129.051 386.685L126.151 387.15V378.424L129.051 377.725V386.685Z" fill="#3F3D56"/>
<path d="M139.926 384.39L136.301 384.974V375.697L139.926 374.824V384.39Z" fill="#3F3D56"/>
<path d="M151.525 382.902L147.175 383.525V374.31L151.525 373.375V382.902Z" fill="#3F3D56"/>
<path d="M166.75 380.607L162.4 381.35V371.591L166.75 370.475V380.607Z" fill="#3F3D56"/>
<path d="M180.524 334.95L186.324 332.419V321.9L180.524 324.843V334.95Z" fill="#3F3D56"/>
<path d="M116.724 392.949H117.449V400.924H116.724V392.949Z" fill="#2F2E41"/>
<path d="M133.4 389.977V400.925L140.65 400.914L147.9 400.903V388.6L140.65 389.289L133.4 389.977Z" fill="#3F3D56"/>
<path d="M255.199 400.925L240.699 400.902V388.6L255.199 389.976V400.925Z" fill="#3F3D56"/>
<path opacity="0.1" d="M133.401 389.329V400.925L139.926 400.913V388.6L133.401 389.329Z" fill="black"/>
<path d="M195.025 390.775H196.475V400.925H195.025V390.775Z" fill="#2F2E41"/>
<path d="M191.4 386.908C191.4 390.927 193.257 394.282 195.489 394.397C197.659 394.509 199.375 391.501 199.375 387.681C199.375 383.862 195.135 373.375 195.135 373.375C195.135 373.375 191.4 382.888 191.4 386.908Z" fill="#CEAC6A"/>
<path d="M280.576 394.4H281.301V400.925H280.576V394.4Z" fill="#2F2E41"/>
<path d="M278.4 390.94C278.4 393.574 279.413 395.772 280.63 395.847C281.814 395.921 282.75 393.95 282.75 391.447C282.75 388.945 280.437 382.074 280.437 382.074C280.437 382.074 278.4 388.307 278.4 390.94Z" fill="#CEAC6A"/>
<path d="M114.55 392.78C114.55 394.956 115.742 396.656 117.292 396.572C118.938 396.484 120.35 394.44 120.35 392.014C120.35 389.588 117.292 383.525 117.292 383.525C117.292 383.525 114.55 390.603 114.55 392.78Z" fill="#CEAC6A"/>
<path d="M108.749 394.769C108.749 396.22 109.792 397.353 111.149 397.298C112.589 397.238 113.824 395.876 113.824 394.259C113.824 392.641 111.149 388.6 111.149 388.6C111.149 388.6 108.749 393.318 108.749 394.769Z" fill="#CEAC6A"/>
<path d="M194.484 427.814C243.418 427.814 271.875 431.299 271.875 422.263C271.875 413.227 243.418 399.475 194.484 399.475C145.55 399.475 118.9 413.227 118.9 422.263C118.9 431.299 145.55 427.814 194.484 427.814Z" fill="#EDEDED" fill-opacity="0.5"/>
<defs>
<linearGradient id="paint0_linear" x1="427.615" y1="448.803" x2="427.615" y2="65.9672" gradientUnits="userSpaceOnUse">
<stop stop-color="#808080" stop-opacity="0.25"/>
<stop offset="0.54" stop-color="#808080" stop-opacity="0.12"/>
<stop offset="1" stop-color="#808080" stop-opacity="0.1"/>
</linearGradient>
</defs>
</svg>
