<svg width="300" height="530" viewBox="0 0 300 530" fill="none" xmlns="http://www.w3.org/2000/svg">
<rect x="0.5" y="0.5" width="299" height="529" rx="4.5" fill="#353535" stroke="#4F4F4F"/>
<rect x="37.0625" y="132.875" width="13" height="13" rx="6.5" stroke="#A5A5A5" stroke-opacity="0.5" stroke-width="1.625"/>
<rect x="20.4062" y="115.406" width="259.188" height="47.9375" rx="1.21875" stroke="#A5A5A5" stroke-opacity="0.5" stroke-width="0.8125"/>
<path d="M66.8711 140.692C66.7568 141.67 66.395 142.425 65.7856 142.958C65.1805 143.487 64.3743 143.752 63.3672 143.752C62.2754 143.752 61.3994 143.361 60.7393 142.578C60.0833 141.795 59.7554 140.747 59.7554 139.436V138.547C59.7554 137.688 59.9077 136.932 60.2124 136.281C60.5213 135.629 60.9572 135.13 61.52 134.783C62.0828 134.431 62.7345 134.256 63.4751 134.256C64.4569 134.256 65.244 134.531 65.8364 135.081C66.4289 135.627 66.7738 136.384 66.8711 137.354H65.646C65.5402 136.617 65.3096 136.084 64.9541 135.754C64.6029 135.424 64.1099 135.259 63.4751 135.259C62.6965 135.259 62.085 135.547 61.6406 136.122C61.2005 136.698 60.9805 137.516 60.9805 138.579V139.474C60.9805 140.477 61.1899 141.274 61.6089 141.867C62.0278 142.459 62.6139 142.755 63.3672 142.755C64.0443 142.755 64.5627 142.603 64.9224 142.298C65.2863 141.989 65.5275 141.454 65.646 140.692H66.8711ZM74.1582 140.267C74.1582 141.312 73.9191 142.154 73.4409 142.793C72.9627 143.432 72.3153 143.752 71.4985 143.752C70.6649 143.752 70.009 143.487 69.5308 142.958V146.266H68.3564V136.757H69.4292L69.4863 137.519C69.9645 136.926 70.6289 136.63 71.4795 136.63C72.3047 136.63 72.9564 136.941 73.4346 137.563C73.917 138.185 74.1582 139.05 74.1582 140.159V140.267ZM72.9839 140.134C72.9839 139.359 72.8188 138.748 72.4888 138.299C72.1587 137.851 71.7059 137.626 71.1304 137.626C70.4194 137.626 69.8862 137.942 69.5308 138.572V141.854C69.882 142.48 70.4194 142.793 71.1431 142.793C71.7059 142.793 72.1523 142.571 72.4824 142.127C72.8167 141.678 72.9839 141.014 72.9839 140.134ZM75.3452 140.127C75.3452 139.455 75.4764 138.849 75.7388 138.312C76.0054 137.775 76.3735 137.36 76.8433 137.068C77.3172 136.776 77.8568 136.63 78.4619 136.63C79.3971 136.63 80.1525 136.954 80.728 137.601C81.3078 138.249 81.5977 139.11 81.5977 140.185V140.267C81.5977 140.936 81.4686 141.537 81.2104 142.07C80.9565 142.599 80.5905 143.011 80.1123 143.308C79.6383 143.604 79.0924 143.752 78.4746 143.752C77.5436 143.752 76.7882 143.428 76.2085 142.781C75.633 142.133 75.3452 141.276 75.3452 140.21V140.127ZM76.5259 140.267C76.5259 141.029 76.7015 141.64 77.0527 142.102C77.4082 142.563 77.8822 142.793 78.4746 142.793C79.0713 142.793 79.5452 142.561 79.8965 142.095C80.2477 141.625 80.4233 140.97 80.4233 140.127C80.4233 139.374 80.2435 138.765 79.8838 138.299C79.5283 137.83 79.0544 137.595 78.4619 137.595C77.8822 137.595 77.4145 137.825 77.0591 138.287C76.7036 138.748 76.5259 139.408 76.5259 140.267ZM88.2563 143.625H87.0757V141.137C86.5594 141.272 86.0304 141.34 85.4888 141.34C84.6297 141.34 83.9738 141.12 83.521 140.68C83.0724 140.24 82.8439 139.613 82.8354 138.801V136.75H84.0098V138.839C84.0309 139.863 84.5239 140.375 85.4888 140.375C86.0304 140.375 86.5594 140.307 87.0757 140.172V136.757H88.2563V143.625ZM95.7529 143.625H94.5786V140.692H91.4238V143.625H90.2432V136.757H91.4238V139.734H94.5786V136.757H95.7529V143.625ZM97.3335 140.127C97.3335 139.455 97.4647 138.849 97.727 138.312C97.9936 137.775 98.3618 137.36 98.8315 137.068C99.3055 136.776 99.845 136.63 100.45 136.63C101.385 136.63 102.141 136.954 102.716 137.601C103.296 138.249 103.586 139.11 103.586 140.185V140.267C103.586 140.936 103.457 141.537 103.199 142.07C102.945 142.599 102.579 143.011 102.101 143.308C101.627 143.604 101.081 143.752 100.463 143.752C99.5319 143.752 98.7765 143.428 98.1968 142.781C97.6213 142.133 97.3335 141.276 97.3335 140.21V140.127ZM98.5142 140.267C98.5142 141.029 98.6898 141.64 99.041 142.102C99.3965 142.563 99.8704 142.793 100.463 142.793C101.06 142.793 101.534 142.561 101.885 142.095C102.236 141.625 102.412 140.97 102.412 140.127C102.412 139.374 102.232 138.765 101.872 138.299C101.517 137.83 101.043 137.595 100.45 137.595C99.8704 137.595 99.4028 137.825 99.0474 138.287C98.6919 138.748 98.5142 139.408 98.5142 140.267Z" fill="#A5A5A5"/>
<rect x="37.0625" y="246.625" width="13" height="13" rx="6.5" stroke="#A5A5A5" stroke-opacity="0.5" stroke-width="1.625"/>
<rect x="20.4062" y="229.156" width="259.188" height="47.9375" rx="1.21875" stroke="#A5A5A5" stroke-opacity="0.5" stroke-width="0.8125"/>
<path d="M66.7695 248.133V257.375H65.5444V253.547C65.1001 253.674 64.696 253.763 64.332 253.814C63.9681 253.861 63.5534 253.884 63.0879 253.884C62.0342 253.884 61.2513 253.655 60.7393 253.198C60.2272 252.741 59.9648 252.041 59.9521 251.097V248.133H61.1772V251.065C61.1815 251.709 61.3275 252.172 61.6152 252.456C61.9072 252.739 62.3981 252.881 63.0879 252.881C63.8919 252.881 64.7108 252.767 65.5444 252.538V248.133H66.7695ZM71.6382 257.502C70.7072 257.502 69.9497 257.197 69.3657 256.588C68.7817 255.974 68.4897 255.155 68.4897 254.131V253.916C68.4897 253.234 68.6188 252.627 68.877 252.094C69.1393 251.556 69.5033 251.137 69.9687 250.837C70.4385 250.532 70.9463 250.38 71.4922 250.38C72.3851 250.38 73.0791 250.674 73.5742 251.262C74.0693 251.85 74.3169 252.693 74.3169 253.789V254.277H69.6641C69.681 254.954 69.8778 255.502 70.2544 255.921C70.6353 256.336 71.1177 256.543 71.7017 256.543C72.1164 256.543 72.4676 256.459 72.7554 256.29C73.0431 256.12 73.2949 255.896 73.5107 255.617L74.228 256.175C73.6525 257.06 72.7892 257.502 71.6382 257.502ZM71.4922 251.345C71.0182 251.345 70.6204 251.518 70.2988 251.865C69.9772 252.208 69.7783 252.69 69.7021 253.313H73.1426V253.224C73.1087 252.627 72.9479 252.166 72.6602 251.84C72.3724 251.51 71.9831 251.345 71.4922 251.345ZM81.4834 254.017C81.4834 255.062 81.2443 255.904 80.7661 256.543C80.2879 257.182 79.6405 257.502 78.8237 257.502C77.9901 257.502 77.3341 257.237 76.856 256.708V260.016H75.6816V250.507H76.7544L76.8115 251.269C77.2897 250.676 77.9541 250.38 78.8047 250.38C79.6299 250.38 80.2816 250.691 80.7598 251.313C81.2422 251.935 81.4834 252.8 81.4834 253.909V254.017ZM80.3091 253.884C80.3091 253.109 80.144 252.498 79.814 252.049C79.4839 251.601 79.0311 251.376 78.4556 251.376C77.7446 251.376 77.2114 251.692 76.856 252.322V255.604C77.2072 256.23 77.7446 256.543 78.4683 256.543C79.0311 256.543 79.4775 256.321 79.8076 255.877C80.1419 255.428 80.3091 254.764 80.3091 253.884ZM85.8315 257.502C84.9005 257.502 84.1431 257.197 83.5591 256.588C82.9751 255.974 82.6831 255.155 82.6831 254.131V253.916C82.6831 253.234 82.8122 252.627 83.0703 252.094C83.3327 251.556 83.6966 251.137 84.1621 250.837C84.6318 250.532 85.1396 250.38 85.6855 250.38C86.5784 250.38 87.2725 250.674 87.7676 251.262C88.2627 251.85 88.5102 252.693 88.5102 253.789V254.277H83.8574C83.8743 254.954 84.0711 255.502 84.4477 255.921C84.8286 256.336 85.311 256.543 85.895 256.543C86.3097 256.543 86.661 256.459 86.9487 256.29C87.2365 256.12 87.4883 255.896 87.7041 255.617L88.4214 256.175C87.8459 257.06 86.9826 257.502 85.8315 257.502ZM85.6855 251.345C85.2116 251.345 84.8138 251.518 84.4922 251.865C84.1706 252.208 83.9717 252.69 83.8955 253.313H87.3359V253.224C87.3021 252.627 87.1413 252.166 86.8535 251.84C86.5658 251.51 86.1764 251.345 85.6855 251.345ZM93.6519 252.386C93.6519 252.064 93.5291 251.81 93.2837 251.624C93.0382 251.434 92.7018 251.338 92.2744 251.338C91.8597 251.338 91.5127 251.446 91.2334 251.662C90.9583 251.878 90.8208 252.132 90.8208 252.424H89.6528C89.6528 251.827 89.9025 251.338 90.4019 250.958C90.9012 250.577 91.5254 250.386 92.2744 250.386C93.0784 250.386 93.7047 250.56 94.1533 250.907C94.6019 251.25 94.8262 251.74 94.8262 252.379C94.8262 252.688 94.7331 252.972 94.5469 253.23C94.3607 253.488 94.0962 253.693 93.7534 253.846C94.5532 254.117 94.9531 254.65 94.9531 255.445C94.9531 256.076 94.7098 256.575 94.2231 256.943C93.7365 257.312 93.0869 257.496 92.2744 257.496C91.4831 257.496 90.8293 257.303 90.313 256.918C89.8009 256.529 89.5449 256.004 89.5449 255.344H90.7129C90.7129 255.678 90.861 255.966 91.1572 256.207C91.4577 256.444 91.8301 256.563 92.2744 256.563C92.723 256.563 93.0848 256.459 93.3599 256.251C93.6349 256.044 93.7725 255.775 93.7725 255.445C93.7725 255.06 93.6561 254.785 93.4233 254.62C93.1948 254.451 92.8372 254.366 92.3506 254.366H91.1763V253.376H92.4521C93.2519 253.355 93.6519 253.025 93.6519 252.386ZM105.636 257.375H99.5806V256.531L102.78 252.976C103.254 252.439 103.58 252.003 103.757 251.668C103.939 251.33 104.03 250.981 104.03 250.621C104.03 250.139 103.884 249.743 103.592 249.434C103.3 249.125 102.911 248.971 102.424 248.971C101.84 248.971 101.385 249.138 101.06 249.472C100.738 249.802 100.577 250.264 100.577 250.856H99.4028C99.4028 250.005 99.6758 249.318 100.222 248.793C100.772 248.268 101.506 248.006 102.424 248.006C103.283 248.006 103.963 248.232 104.462 248.685C104.961 249.134 105.211 249.732 105.211 250.481C105.211 251.391 104.631 252.475 103.472 253.731L100.996 256.417H105.636V257.375ZM114.18 255.82L116.516 250.507H117.982V257.375H116.808V252.379L114.586 257.375H113.774L111.508 252.271V257.375H110.333V250.507H111.857L114.18 255.82ZM122.724 257.502C121.793 257.502 121.036 257.197 120.452 256.588C119.868 255.974 119.576 255.155 119.576 254.131V253.916C119.576 253.234 119.705 252.627 119.963 252.094C120.225 251.556 120.589 251.137 121.055 250.837C121.524 250.532 122.032 250.38 122.578 250.38C123.471 250.38 124.165 250.674 124.66 251.262C125.155 251.85 125.403 252.693 125.403 253.789V254.277H120.75C120.767 254.954 120.964 255.502 121.34 255.921C121.721 256.336 122.204 256.543 122.788 256.543C123.202 256.543 123.554 256.459 123.841 256.29C124.129 256.12 124.381 255.896 124.597 255.617L125.314 256.175C124.738 257.06 123.875 257.502 122.724 257.502ZM122.578 251.345C122.104 251.345 121.706 251.518 121.385 251.865C121.063 252.208 120.864 252.69 120.788 253.313H124.229V253.224C124.195 252.627 124.034 252.166 123.746 251.84C123.458 251.51 123.069 251.345 122.578 251.345ZM129.522 256.543C129.941 256.543 130.307 256.417 130.621 256.163C130.934 255.909 131.107 255.591 131.141 255.21H132.252C132.231 255.604 132.095 255.979 131.846 256.334C131.596 256.689 131.262 256.973 130.843 257.185C130.428 257.396 129.988 257.502 129.522 257.502C128.587 257.502 127.842 257.191 127.288 256.569C126.738 255.943 126.463 255.088 126.463 254.004V253.808C126.463 253.139 126.586 252.544 126.831 252.024C127.076 251.503 127.428 251.099 127.885 250.812C128.346 250.524 128.89 250.38 129.516 250.38C130.286 250.38 130.925 250.611 131.433 251.072C131.945 251.533 132.218 252.132 132.252 252.868H131.141C131.107 252.424 130.938 252.06 130.633 251.776C130.333 251.489 129.96 251.345 129.516 251.345C128.919 251.345 128.456 251.561 128.126 251.992C127.8 252.42 127.637 253.04 127.637 253.852V254.074C127.637 254.866 127.8 255.475 128.126 255.902C128.452 256.33 128.917 256.543 129.522 256.543ZM138.822 250.507V257.375H137.641V254.703H135.87L134.251 257.375H132.982L134.708 254.525C134.268 254.364 133.93 254.117 133.693 253.782C133.46 253.444 133.344 253.05 133.344 252.602C133.344 251.975 133.579 251.472 134.048 251.091C134.518 250.706 135.146 250.511 135.934 250.507H138.822ZM134.524 252.614C134.524 252.949 134.639 253.219 134.867 253.427C135.096 253.63 135.398 253.734 135.775 253.738H137.641V251.459H135.953C135.517 251.459 135.17 251.567 134.912 251.783C134.653 251.994 134.524 252.271 134.524 252.614ZM140.809 250.507H141.989V256.417H145.15V250.507H146.325V256.417H147.144L147.029 259.413H145.976V257.375H140.809V250.507ZM152.653 257.375C152.586 257.24 152.531 256.998 152.488 256.651C151.942 257.218 151.291 257.502 150.533 257.502C149.856 257.502 149.3 257.312 148.864 256.931C148.432 256.546 148.216 256.059 148.216 255.471C148.216 254.756 148.487 254.201 149.029 253.808C149.575 253.41 150.341 253.211 151.327 253.211H152.469V252.671C152.469 252.261 152.347 251.935 152.101 251.694C151.856 251.448 151.494 251.326 151.016 251.326C150.597 251.326 150.245 251.431 149.962 251.643C149.678 251.855 149.537 252.111 149.537 252.411H148.356C148.356 252.068 148.477 251.738 148.718 251.421C148.963 251.099 149.293 250.845 149.708 250.659C150.127 250.473 150.586 250.38 151.085 250.38C151.877 250.38 152.497 250.579 152.945 250.977C153.394 251.37 153.627 251.914 153.644 252.608V255.769C153.644 256.4 153.724 256.901 153.885 257.273V257.375H152.653ZM150.705 256.48C151.073 256.48 151.422 256.385 151.752 256.194C152.082 256.004 152.321 255.756 152.469 255.452V254.042H151.549C150.11 254.042 149.391 254.464 149.391 255.306C149.391 255.674 149.513 255.962 149.759 256.169C150.004 256.376 150.319 256.48 150.705 256.48Z" fill="#A5A5A5"/>
<rect x="37.0625" y="303.5" width="13" height="13" rx="6.5" stroke="#A5A5A5" stroke-opacity="0.5" stroke-width="1.625"/>
<rect x="20.4062" y="286.031" width="259.188" height="47.9375" rx="1.21875" stroke="#A5A5A5" stroke-opacity="0.5" stroke-width="0.8125"/>
<path d="M66.7695 305.008V314.25H65.5444V310.422C65.1001 310.549 64.696 310.638 64.332 310.689C63.9681 310.736 63.5534 310.759 63.0879 310.759C62.0342 310.759 61.2513 310.53 60.7393 310.073C60.2272 309.616 59.9648 308.916 59.9521 307.972V305.008H61.1772V307.94C61.1815 308.584 61.3275 309.047 61.6152 309.331C61.9072 309.614 62.3981 309.756 63.0879 309.756C63.8919 309.756 64.7108 309.642 65.5444 309.413V305.008H66.7695ZM71.6382 314.377C70.7072 314.377 69.9497 314.072 69.3657 313.463C68.7817 312.849 68.4897 312.03 68.4897 311.006V310.791C68.4897 310.109 68.6188 309.502 68.877 308.969C69.1393 308.431 69.5033 308.012 69.9687 307.712C70.4385 307.407 70.9463 307.255 71.4922 307.255C72.3851 307.255 73.0791 307.549 73.5742 308.137C74.0693 308.725 74.3169 309.568 74.3169 310.664V311.152H69.6641C69.681 311.829 69.8778 312.377 70.2544 312.796C70.6353 313.211 71.1177 313.418 71.7017 313.418C72.1164 313.418 72.4676 313.334 72.7554 313.165C73.0431 312.995 73.2949 312.771 73.5107 312.492L74.228 313.05C73.6525 313.935 72.7892 314.377 71.6382 314.377ZM71.4922 308.22C71.0182 308.22 70.6204 308.393 70.2988 308.74C69.9772 309.083 69.7783 309.565 69.7021 310.188H73.1426V310.099C73.1087 309.502 72.9479 309.041 72.6602 308.715C72.3724 308.385 71.9831 308.22 71.4922 308.22ZM81.4834 310.892C81.4834 311.937 81.2443 312.779 80.7661 313.418C80.2879 314.057 79.6405 314.377 78.8237 314.377C77.9901 314.377 77.3341 314.112 76.856 313.583V316.891H75.6816V307.382H76.7544L76.8115 308.144C77.2897 307.551 77.9541 307.255 78.8047 307.255C79.6299 307.255 80.2816 307.566 80.7598 308.188C81.2422 308.81 81.4834 309.675 81.4834 310.784V310.892ZM80.3091 310.759C80.3091 309.984 80.144 309.373 79.814 308.924C79.4839 308.476 79.0311 308.251 78.4556 308.251C77.7446 308.251 77.2114 308.567 76.856 309.197V312.479C77.2072 313.105 77.7446 313.418 78.4683 313.418C79.0311 313.418 79.4775 313.196 79.8076 312.752C80.1419 312.303 80.3091 311.639 80.3091 310.759ZM85.8315 314.377C84.9005 314.377 84.1431 314.072 83.5591 313.463C82.9751 312.849 82.6831 312.03 82.6831 311.006V310.791C82.6831 310.109 82.8122 309.502 83.0703 308.969C83.3327 308.431 83.6966 308.012 84.1621 307.712C84.6318 307.407 85.1396 307.255 85.6855 307.255C86.5784 307.255 87.2725 307.549 87.7676 308.137C88.2627 308.725 88.5102 309.568 88.5102 310.664V311.152H83.8574C83.8743 311.829 84.0711 312.377 84.4477 312.796C84.8286 313.211 85.311 313.418 85.895 313.418C86.3097 313.418 86.661 313.334 86.9487 313.165C87.2365 312.995 87.4883 312.771 87.7041 312.492L88.4214 313.05C87.8459 313.935 86.9826 314.377 85.8315 314.377ZM85.6855 308.22C85.2116 308.22 84.8138 308.393 84.4922 308.74C84.1706 309.083 83.9717 309.565 83.8955 310.188H87.3359V310.099C87.3021 309.502 87.1413 309.041 86.8535 308.715C86.5658 308.385 86.1764 308.22 85.6855 308.22ZM93.6519 309.261C93.6519 308.939 93.5291 308.685 93.2837 308.499C93.0382 308.309 92.7018 308.213 92.2744 308.213C91.8597 308.213 91.5127 308.321 91.2334 308.537C90.9583 308.753 90.8208 309.007 90.8208 309.299H89.6528C89.6528 308.702 89.9025 308.213 90.4019 307.833C90.9012 307.452 91.5254 307.261 92.2744 307.261C93.0784 307.261 93.7047 307.435 94.1533 307.782C94.6019 308.125 94.8262 308.615 94.8262 309.254C94.8262 309.563 94.7331 309.847 94.5469 310.105C94.3607 310.363 94.0962 310.568 93.7534 310.721C94.5532 310.992 94.9531 311.525 94.9531 312.32C94.9531 312.951 94.7098 313.45 94.2231 313.818C93.7365 314.187 93.0869 314.371 92.2744 314.371C91.4831 314.371 90.8293 314.178 90.313 313.793C89.8009 313.404 89.5449 312.879 89.5449 312.219H90.7129C90.7129 312.553 90.861 312.841 91.1572 313.082C91.4577 313.319 91.8301 313.438 92.2744 313.438C92.723 313.438 93.0848 313.334 93.3599 313.126C93.6349 312.919 93.7725 312.65 93.7725 312.32C93.7725 311.935 93.6561 311.66 93.4233 311.495C93.1948 311.326 92.8372 311.241 92.3506 311.241H91.1763V310.251H92.4521C93.2519 310.23 93.6519 309.9 93.6519 309.261ZM101.288 309.058H102.17C102.725 309.049 103.161 308.903 103.478 308.62C103.795 308.336 103.954 307.953 103.954 307.471C103.954 306.387 103.415 305.846 102.335 305.846C101.828 305.846 101.421 305.992 101.117 306.284C100.816 306.571 100.666 306.954 100.666 307.433H99.4917C99.4917 306.701 99.7583 306.093 100.291 305.611C100.829 305.124 101.51 304.881 102.335 304.881C103.207 304.881 103.891 305.111 104.386 305.573C104.881 306.034 105.128 306.675 105.128 307.496C105.128 307.898 104.997 308.287 104.735 308.664C104.477 309.041 104.123 309.322 103.675 309.508C104.183 309.669 104.574 309.936 104.849 310.308C105.128 310.681 105.268 311.135 105.268 311.673C105.268 312.502 104.997 313.16 104.456 313.647C103.914 314.134 103.209 314.377 102.342 314.377C101.474 314.377 100.768 314.142 100.222 313.672C99.68 313.203 99.4092 312.583 99.4092 311.813H100.59C100.59 312.299 100.749 312.688 101.066 312.98C101.383 313.272 101.809 313.418 102.342 313.418C102.909 313.418 103.343 313.27 103.643 312.974C103.944 312.678 104.094 312.253 104.094 311.698C104.094 311.161 103.929 310.748 103.599 310.46C103.269 310.173 102.792 310.025 102.17 310.016H101.288V309.058ZM114.18 312.695L116.516 307.382H117.982V314.25H116.808V309.254L114.586 314.25H113.774L111.508 309.146V314.25H110.333V307.382H111.857L114.18 312.695ZM122.724 314.377C121.793 314.377 121.036 314.072 120.452 313.463C119.868 312.849 119.576 312.03 119.576 311.006V310.791C119.576 310.109 119.705 309.502 119.963 308.969C120.225 308.431 120.589 308.012 121.055 307.712C121.524 307.407 122.032 307.255 122.578 307.255C123.471 307.255 124.165 307.549 124.66 308.137C125.155 308.725 125.403 309.568 125.403 310.664V311.152H120.75C120.767 311.829 120.964 312.377 121.34 312.796C121.721 313.211 122.204 313.418 122.788 313.418C123.202 313.418 123.554 313.334 123.841 313.165C124.129 312.995 124.381 312.771 124.597 312.492L125.314 313.05C124.738 313.935 123.875 314.377 122.724 314.377ZM122.578 308.22C122.104 308.22 121.706 308.393 121.385 308.74C121.063 309.083 120.864 309.565 120.788 310.188H124.229V310.099C124.195 309.502 124.034 309.041 123.746 308.715C123.458 308.385 123.069 308.22 122.578 308.22ZM129.522 313.418C129.941 313.418 130.307 313.292 130.621 313.038C130.934 312.784 131.107 312.466 131.141 312.085H132.252C132.231 312.479 132.095 312.854 131.846 313.209C131.596 313.564 131.262 313.848 130.843 314.06C130.428 314.271 129.988 314.377 129.522 314.377C128.587 314.377 127.842 314.066 127.288 313.444C126.738 312.818 126.463 311.963 126.463 310.879V310.683C126.463 310.014 126.586 309.419 126.831 308.899C127.076 308.378 127.428 307.974 127.885 307.687C128.346 307.399 128.89 307.255 129.516 307.255C130.286 307.255 130.925 307.486 131.433 307.947C131.945 308.408 132.218 309.007 132.252 309.743H131.141C131.107 309.299 130.938 308.935 130.633 308.651C130.333 308.364 129.96 308.22 129.516 308.22C128.919 308.22 128.456 308.436 128.126 308.867C127.8 309.295 127.637 309.915 127.637 310.727V310.949C127.637 311.741 127.8 312.35 128.126 312.777C128.452 313.205 128.917 313.418 129.522 313.418ZM138.822 307.382V314.25H137.641V311.578H135.87L134.251 314.25H132.982L134.708 311.4C134.268 311.239 133.93 310.992 133.693 310.657C133.46 310.319 133.344 309.925 133.344 309.477C133.344 308.85 133.579 308.347 134.048 307.966C134.518 307.581 135.146 307.386 135.934 307.382H138.822ZM134.524 309.489C134.524 309.824 134.639 310.094 134.867 310.302C135.096 310.505 135.398 310.609 135.775 310.613H137.641V308.334H135.953C135.517 308.334 135.17 308.442 134.912 308.658C134.653 308.869 134.524 309.146 134.524 309.489ZM140.809 307.382H141.989V313.292H145.15V307.382H146.325V313.292H147.144L147.029 316.288H145.976V314.25H140.809V307.382ZM152.653 314.25C152.586 314.115 152.531 313.873 152.488 313.526C151.942 314.093 151.291 314.377 150.533 314.377C149.856 314.377 149.3 314.187 148.864 313.806C148.432 313.421 148.216 312.934 148.216 312.346C148.216 311.631 148.487 311.076 149.029 310.683C149.575 310.285 150.341 310.086 151.327 310.086H152.469V309.546C152.469 309.136 152.347 308.81 152.101 308.569C151.856 308.323 151.494 308.201 151.016 308.201C150.597 308.201 150.245 308.306 149.962 308.518C149.678 308.73 149.537 308.986 149.537 309.286H148.356C148.356 308.943 148.477 308.613 148.718 308.296C148.963 307.974 149.293 307.72 149.708 307.534C150.127 307.348 150.586 307.255 151.085 307.255C151.877 307.255 152.497 307.454 152.945 307.852C153.394 308.245 153.627 308.789 153.644 309.483V312.644C153.644 313.275 153.724 313.776 153.885 314.148V314.25H152.653ZM150.705 313.355C151.073 313.355 151.422 313.26 151.752 313.069C152.082 312.879 152.321 312.631 152.469 312.327V310.917H151.549C150.11 310.917 149.391 311.339 149.391 312.181C149.391 312.549 149.513 312.837 149.759 313.044C150.004 313.251 150.319 313.355 150.705 313.355Z" fill="#A5A5A5"/>
<rect x="37.0625" y="360.375" width="13" height="13" rx="6.5" stroke="#A5A5A5" stroke-opacity="0.5" stroke-width="1.625"/>
<rect x="20.4062" y="342.906" width="259.188" height="47.9375" rx="1.21875" stroke="#A5A5A5" stroke-opacity="0.5" stroke-width="0.8125"/>
<path d="M67.1313 371.125H65.9062V362.886H61.3486V371.125H60.1299V361.883H67.1313V371.125ZM74.9707 367.767C74.9707 368.812 74.7316 369.654 74.2534 370.293C73.7752 370.932 73.1278 371.252 72.311 371.252C71.4774 371.252 70.8215 370.987 70.3433 370.458V373.766H69.1689V364.257H70.2417L70.2988 365.019C70.777 364.426 71.4414 364.13 72.292 364.13C73.1172 364.13 73.7689 364.441 74.2471 365.063C74.7295 365.685 74.9707 366.55 74.9707 367.659V367.767ZM73.7964 367.634C73.7964 366.859 73.6313 366.248 73.3013 365.799C72.9712 365.351 72.5184 365.126 71.9429 365.126C71.2319 365.126 70.6987 365.442 70.3433 366.072V369.354C70.6945 369.98 71.2319 370.293 71.9556 370.293C72.5184 370.293 72.9648 370.071 73.2949 369.627C73.6292 369.178 73.7964 368.514 73.7964 367.634ZM76.1577 367.627C76.1577 366.955 76.2889 366.349 76.5513 365.812C76.8179 365.275 77.186 364.86 77.6558 364.568C78.1297 364.276 78.6693 364.13 79.2744 364.13C80.2096 364.13 80.965 364.454 81.5405 365.101C82.1203 365.749 82.4102 366.61 82.4102 367.685V367.767C82.4102 368.436 82.2811 369.037 82.0229 369.57C81.769 370.099 81.403 370.511 80.9248 370.808C80.4508 371.104 79.9049 371.252 79.2871 371.252C78.3561 371.252 77.6007 370.928 77.021 370.281C76.4455 369.633 76.1577 368.776 76.1577 367.71V367.627ZM77.3384 367.767C77.3384 368.529 77.514 369.14 77.8652 369.602C78.2207 370.063 78.6947 370.293 79.2871 370.293C79.8838 370.293 80.3577 370.061 80.709 369.595C81.0602 369.125 81.2358 368.47 81.2358 367.627C81.2358 366.874 81.056 366.265 80.6963 365.799C80.3408 365.33 79.8669 365.095 79.2744 365.095C78.6947 365.095 78.227 365.325 77.8716 365.787C77.5161 366.248 77.3384 366.908 77.3384 367.767ZM86.6377 370.293C87.0566 370.293 87.4227 370.167 87.7358 369.913C88.049 369.659 88.2225 369.341 88.2563 368.96H89.3672C89.346 369.354 89.2106 369.729 88.9609 370.084C88.7113 370.439 88.3769 370.723 87.958 370.935C87.5433 371.146 87.1032 371.252 86.6377 371.252C85.7025 371.252 84.9577 370.941 84.4033 370.319C83.8532 369.693 83.5781 368.838 83.5781 367.754V367.558C83.5781 366.889 83.7008 366.294 83.9463 365.774C84.1917 365.253 84.543 364.849 85 364.562C85.4613 364.274 86.005 364.13 86.6313 364.13C87.4015 364.13 88.0405 364.361 88.5483 364.822C89.0604 365.283 89.3333 365.882 89.3672 366.618H88.2563C88.2225 366.174 88.0532 365.81 87.7485 365.526C87.4481 365.239 87.0757 365.095 86.6313 365.095C86.0347 365.095 85.5713 365.311 85.2412 365.742C84.9154 366.17 84.7524 366.79 84.7524 367.602V367.824C84.7524 368.616 84.9154 369.225 85.2412 369.652C85.5671 370.08 86.0325 370.293 86.6377 370.293ZM95.791 365.209H93.4868V371.125H92.3125V365.209H90.0527V364.257H95.791V365.209ZM96.356 367.627C96.356 366.955 96.4871 366.349 96.7495 365.812C97.0161 365.275 97.3843 364.86 97.854 364.568C98.328 364.276 98.8675 364.13 99.4727 364.13C100.408 364.13 101.163 364.454 101.739 365.101C102.319 365.749 102.608 366.61 102.608 367.685V367.767C102.608 368.436 102.479 369.037 102.221 369.57C101.967 370.099 101.601 370.511 101.123 370.808C100.649 371.104 100.103 371.252 99.4853 371.252C98.5544 371.252 97.799 370.928 97.2192 370.281C96.6437 369.633 96.356 368.776 96.356 367.71V367.627ZM97.5366 367.767C97.5366 368.529 97.7122 369.14 98.0635 369.602C98.4189 370.063 98.8929 370.293 99.4853 370.293C100.082 370.293 100.556 370.061 100.907 369.595C101.258 369.125 101.434 368.47 101.434 367.627C101.434 366.874 101.254 366.265 100.895 365.799C100.539 365.33 100.065 365.095 99.4727 365.095C98.8929 365.095 98.4253 365.325 98.0698 365.787C97.7144 366.248 97.5366 366.908 97.5366 367.767ZM110.061 370.293C110.479 370.293 110.846 370.167 111.159 369.913C111.472 369.659 111.645 369.341 111.679 368.96H112.79C112.769 369.354 112.633 369.729 112.384 370.084C112.134 370.439 111.8 370.723 111.381 370.935C110.966 371.146 110.526 371.252 110.061 371.252C109.125 371.252 108.381 370.941 107.826 370.319C107.276 369.693 107.001 368.838 107.001 367.754V367.558C107.001 366.889 107.124 366.294 107.369 365.774C107.615 365.253 107.966 364.849 108.423 364.562C108.884 364.274 109.428 364.13 110.054 364.13C110.824 364.13 111.463 364.361 111.971 364.822C112.483 365.283 112.756 365.882 112.79 366.618H111.679C111.645 366.174 111.476 365.81 111.171 365.526C110.871 365.239 110.499 365.095 110.054 365.095C109.458 365.095 108.994 365.311 108.664 365.742C108.338 366.17 108.175 366.79 108.175 367.602V367.824C108.175 368.616 108.338 369.225 108.664 369.652C108.99 370.08 109.455 370.293 110.061 370.293ZM118.065 369.57L120.401 364.257H121.867V371.125H120.693V366.129L118.471 371.125H117.659L115.393 366.021V371.125H114.218V364.257H115.742L118.065 369.57ZM123.448 367.627C123.448 366.955 123.579 366.349 123.841 365.812C124.108 365.275 124.476 364.86 124.946 364.568C125.42 364.276 125.959 364.13 126.564 364.13C127.5 364.13 128.255 364.454 128.831 365.101C129.41 365.749 129.7 366.61 129.7 367.685V367.767C129.7 368.436 129.571 369.037 129.313 369.57C129.059 370.099 128.693 370.511 128.215 370.808C127.741 371.104 127.195 371.252 126.577 371.252C125.646 371.252 124.891 370.928 124.311 370.281C123.736 369.633 123.448 368.776 123.448 367.71V367.627ZM124.628 367.767C124.628 368.529 124.804 369.14 125.155 369.602C125.511 370.063 125.985 370.293 126.577 370.293C127.174 370.293 127.648 370.061 127.999 369.595C128.35 369.125 128.526 368.47 128.526 367.627C128.526 366.874 128.346 366.265 127.986 365.799C127.631 365.33 127.157 365.095 126.564 365.095C125.985 365.095 125.517 365.325 125.162 365.787C124.806 366.248 124.628 366.908 124.628 367.767ZM136.137 365.209H133.833V371.125H132.658V365.209H130.398V364.257H136.137V365.209ZM143.081 367.767C143.081 368.812 142.842 369.654 142.364 370.293C141.886 370.932 141.238 371.252 140.421 371.252C139.588 371.252 138.932 370.987 138.454 370.458V373.766H137.279V364.257H138.352L138.409 365.019C138.887 364.426 139.552 364.13 140.402 364.13C141.228 364.13 141.879 364.441 142.357 365.063C142.84 365.685 143.081 366.55 143.081 367.659V367.767ZM141.907 367.634C141.907 366.859 141.742 366.248 141.412 365.799C141.082 365.351 140.629 365.126 140.053 365.126C139.342 365.126 138.809 365.442 138.454 366.072V369.354C138.805 369.98 139.342 370.293 140.066 370.293C140.629 370.293 141.075 370.071 141.405 369.627C141.74 369.178 141.907 368.514 141.907 367.634ZM145.861 367.17H147.512C147.601 366.256 147.924 365.522 148.483 364.968C149.046 364.409 149.755 364.13 150.609 364.13C151.507 364.13 152.241 364.432 152.812 365.038C153.383 365.643 153.692 366.43 153.739 367.399L153.745 367.767C153.745 368.436 153.614 369.039 153.352 369.576C153.089 370.114 152.721 370.528 152.247 370.82C151.773 371.108 151.231 371.252 150.622 371.252C149.738 371.252 149.014 370.964 148.451 370.389C147.888 369.809 147.573 369.058 147.505 368.135H145.861V371.125H144.687V364.257H145.861V367.17ZM148.667 367.767C148.667 368.529 148.843 369.14 149.194 369.602C149.549 370.063 150.025 370.293 150.622 370.293C151.219 370.293 151.691 370.059 152.038 369.589C152.389 369.119 152.564 368.465 152.564 367.627C152.564 366.878 152.387 366.269 152.031 365.799C151.676 365.33 151.202 365.095 150.609 365.095C150.025 365.095 149.556 365.325 149.2 365.787C148.845 366.248 148.667 366.908 148.667 367.767ZM161.432 364.65C162.295 364.65 162.985 364.94 163.501 365.52C164.022 366.096 164.282 366.855 164.282 367.799V367.907C164.282 368.554 164.157 369.134 163.908 369.646C163.658 370.154 163.298 370.549 162.829 370.833C162.363 371.112 161.826 371.252 161.216 371.252C160.294 371.252 159.551 370.945 158.988 370.332C158.425 369.714 158.144 368.886 158.144 367.85V367.278C158.144 365.835 158.411 364.688 158.944 363.838C159.481 362.987 160.273 362.469 161.318 362.283C161.91 362.177 162.31 362.048 162.518 361.896C162.725 361.743 162.829 361.534 162.829 361.267H163.793C163.793 361.796 163.673 362.209 163.432 362.505C163.195 362.801 162.814 363.011 162.289 363.133L161.413 363.33C160.715 363.495 160.19 363.774 159.839 364.168C159.492 364.557 159.265 365.078 159.16 365.729C159.782 365.01 160.539 364.65 161.432 364.65ZM161.204 365.615C160.628 365.615 160.171 365.81 159.833 366.199C159.494 366.584 159.325 367.12 159.325 367.805V367.907C159.325 368.643 159.494 369.227 159.833 369.659C160.175 370.086 160.637 370.3 161.216 370.3C161.8 370.3 162.262 370.084 162.6 369.652C162.939 369.221 163.108 368.59 163.108 367.761C163.108 367.113 162.937 366.595 162.594 366.206C162.255 365.812 161.792 365.615 161.204 365.615ZM168.453 371.252C167.522 371.252 166.764 370.947 166.18 370.338C165.596 369.724 165.304 368.905 165.304 367.881V367.666C165.304 366.984 165.433 366.377 165.691 365.844C165.954 365.306 166.318 364.887 166.783 364.587C167.253 364.282 167.761 364.13 168.307 364.13C169.2 364.13 169.894 364.424 170.389 365.012C170.884 365.6 171.131 366.443 171.131 367.539V368.027H166.479C166.495 368.704 166.692 369.252 167.069 369.671C167.45 370.086 167.932 370.293 168.516 370.293C168.931 370.293 169.282 370.209 169.57 370.04C169.858 369.87 170.109 369.646 170.325 369.367L171.042 369.925C170.467 370.81 169.604 371.252 168.453 371.252ZM168.307 365.095C167.833 365.095 167.435 365.268 167.113 365.615C166.792 365.958 166.593 366.44 166.517 367.063H169.957V366.974C169.923 366.377 169.762 365.916 169.475 365.59C169.187 365.26 168.798 365.095 168.307 365.095ZM176.273 366.136C176.273 365.814 176.15 365.56 175.905 365.374C175.659 365.184 175.323 365.088 174.895 365.088C174.481 365.088 174.134 365.196 173.854 365.412C173.579 365.628 173.442 365.882 173.442 366.174H172.274C172.274 365.577 172.524 365.088 173.023 364.708C173.522 364.327 174.146 364.136 174.895 364.136C175.7 364.136 176.326 364.31 176.774 364.657C177.223 365 177.447 365.49 177.447 366.129C177.447 366.438 177.354 366.722 177.168 366.98C176.982 367.238 176.717 367.443 176.374 367.596C177.174 367.867 177.574 368.4 177.574 369.195C177.574 369.826 177.331 370.325 176.844 370.693C176.358 371.062 175.708 371.246 174.895 371.246C174.104 371.246 173.45 371.053 172.934 370.668C172.422 370.279 172.166 369.754 172.166 369.094H173.334C173.334 369.428 173.482 369.716 173.778 369.957C174.079 370.194 174.451 370.313 174.895 370.313C175.344 370.313 175.706 370.209 175.981 370.001C176.256 369.794 176.394 369.525 176.394 369.195C176.394 368.81 176.277 368.535 176.044 368.37C175.816 368.201 175.458 368.116 174.972 368.116H173.797V367.126H175.073C175.873 367.105 176.273 366.775 176.273 366.136ZM185.077 370.293C185.496 370.293 185.862 370.167 186.175 369.913C186.488 369.659 186.662 369.341 186.696 368.96H187.807C187.785 369.354 187.65 369.729 187.4 370.084C187.151 370.439 186.816 370.723 186.397 370.935C185.983 371.146 185.543 371.252 185.077 371.252C184.142 371.252 183.397 370.941 182.843 370.319C182.293 369.693 182.018 368.838 182.018 367.754V367.558C182.018 366.889 182.14 366.294 182.386 365.774C182.631 365.253 182.982 364.849 183.439 364.562C183.901 364.274 184.444 364.13 185.071 364.13C185.841 364.13 186.48 364.361 186.988 364.822C187.5 365.283 187.773 365.882 187.807 366.618H186.696C186.662 366.174 186.493 365.81 186.188 365.526C185.888 365.239 185.515 365.095 185.071 365.095C184.474 365.095 184.011 365.311 183.681 365.742C183.355 366.17 183.192 366.79 183.192 367.602V367.824C183.192 368.616 183.355 369.225 183.681 369.652C184.006 370.08 184.472 370.293 185.077 370.293ZM194.745 371.125H193.57V365.228H190.409V371.125H189.229V364.257H194.745V371.125ZM199.48 371.252C198.549 371.252 197.791 370.947 197.208 370.338C196.624 369.724 196.332 368.905 196.332 367.881V367.666C196.332 366.984 196.461 366.377 196.719 365.844C196.981 365.306 197.345 364.887 197.811 364.587C198.28 364.282 198.788 364.13 199.334 364.13C200.227 364.13 200.921 364.424 201.416 365.012C201.911 365.6 202.159 366.443 202.159 367.539V368.027H197.506C197.523 368.704 197.72 369.252 198.096 369.671C198.477 370.086 198.959 370.293 199.543 370.293C199.958 370.293 200.309 370.209 200.597 370.04C200.885 369.87 201.137 369.646 201.353 369.367L202.07 369.925C201.494 370.81 200.631 371.252 199.48 371.252ZM199.334 365.095C198.86 365.095 198.462 365.268 198.141 365.615C197.819 365.958 197.62 366.44 197.544 367.063H200.984V366.974C200.951 366.377 200.79 365.916 200.502 365.59C200.214 365.26 199.825 365.095 199.334 365.095ZM204.806 364.257V370.167H207.319V364.257H208.494V370.167H211.001V364.257H212.182V371.125H203.625V364.257H204.806ZM216.174 368.199H215.317V371.125H214.137V364.257H215.317V367.164H216.085L218.396 364.257H219.818L217.101 367.558L220.046 371.125H218.555L216.174 368.199ZM225.499 364.257H226.673V371.125H225.499V366.117L222.332 371.125H221.157V364.257H222.332V369.271L225.499 364.257Z" fill="#A5A5A5"/>
<rect x="20.8125" y="172.687" width="258.375" height="47.125" rx="0.8125" stroke="#CEAC6A" stroke-width="1.625"/>
<path d="M66.7695 191.258V200.5H65.5444V196.672C65.1001 196.799 64.696 196.888 64.332 196.939C63.9681 196.986 63.5534 197.009 63.0879 197.009C62.0342 197.009 61.2513 196.78 60.7393 196.323C60.2272 195.866 59.9648 195.166 59.9521 194.222V191.258H61.1772V194.19C61.1815 194.834 61.3275 195.297 61.6152 195.581C61.9072 195.864 62.3981 196.006 63.0879 196.006C63.8919 196.006 64.7108 195.892 65.5444 195.663V191.258H66.7695ZM71.6382 200.627C70.7072 200.627 69.9497 200.322 69.3657 199.713C68.7817 199.099 68.4897 198.28 68.4897 197.256V197.041C68.4897 196.359 68.6188 195.752 68.877 195.219C69.1393 194.681 69.5033 194.262 69.9687 193.962C70.4385 193.657 70.9463 193.505 71.4922 193.505C72.3851 193.505 73.0791 193.799 73.5742 194.387C74.0693 194.975 74.3169 195.818 74.3169 196.914V197.402H69.6641C69.681 198.079 69.8778 198.627 70.2544 199.046C70.6353 199.461 71.1177 199.668 71.7017 199.668C72.1164 199.668 72.4676 199.584 72.7554 199.415C73.0431 199.245 73.2949 199.021 73.5107 198.742L74.228 199.3C73.6525 200.185 72.7892 200.627 71.6382 200.627ZM71.4922 194.47C71.0182 194.47 70.6204 194.643 70.2988 194.99C69.9772 195.333 69.7783 195.815 69.7021 196.438H73.1426V196.349C73.1087 195.752 72.9479 195.291 72.6602 194.965C72.3724 194.635 71.9831 194.47 71.4922 194.47ZM81.4834 197.142C81.4834 198.187 81.2443 199.029 80.7661 199.668C80.2879 200.307 79.6405 200.627 78.8237 200.627C77.9901 200.627 77.3341 200.362 76.856 199.833V203.141H75.6816V193.632H76.7544L76.8115 194.394C77.2897 193.801 77.9541 193.505 78.8047 193.505C79.6299 193.505 80.2816 193.816 80.7598 194.438C81.2422 195.06 81.4834 195.925 81.4834 197.034V197.142ZM80.3091 197.009C80.3091 196.234 80.144 195.623 79.814 195.174C79.4839 194.726 79.0311 194.501 78.4556 194.501C77.7446 194.501 77.2114 194.817 76.856 195.447V198.729C77.2072 199.355 77.7446 199.668 78.4683 199.668C79.0311 199.668 79.4775 199.446 79.8076 199.002C80.1419 198.553 80.3091 197.889 80.3091 197.009ZM85.8315 200.627C84.9005 200.627 84.1431 200.322 83.5591 199.713C82.9751 199.099 82.6831 198.28 82.6831 197.256V197.041C82.6831 196.359 82.8122 195.752 83.0703 195.219C83.3327 194.681 83.6966 194.262 84.1621 193.962C84.6318 193.657 85.1396 193.505 85.6855 193.505C86.5784 193.505 87.2725 193.799 87.7676 194.387C88.2627 194.975 88.5102 195.818 88.5102 196.914V197.402H83.8574C83.8743 198.079 84.0711 198.627 84.4477 199.046C84.8286 199.461 85.311 199.668 85.895 199.668C86.3097 199.668 86.661 199.584 86.9487 199.415C87.2365 199.245 87.4883 199.021 87.7041 198.742L88.4214 199.3C87.8459 200.185 86.9826 200.627 85.8315 200.627ZM85.6855 194.47C85.2116 194.47 84.8138 194.643 84.4922 194.99C84.1706 195.333 83.9717 195.815 83.8955 196.438H87.3359V196.349C87.3021 195.752 87.1413 195.291 86.8535 194.965C86.5658 194.635 86.1764 194.47 85.6855 194.47ZM93.6519 195.511C93.6519 195.189 93.5291 194.935 93.2837 194.749C93.0382 194.559 92.7018 194.463 92.2744 194.463C91.8597 194.463 91.5127 194.571 91.2334 194.787C90.9583 195.003 90.8208 195.257 90.8208 195.549H89.6528C89.6528 194.952 89.9025 194.463 90.4019 194.083C90.9012 193.702 91.5254 193.511 92.2744 193.511C93.0784 193.511 93.7047 193.685 94.1533 194.032C94.6019 194.375 94.8262 194.865 94.8262 195.504C94.8262 195.813 94.7331 196.097 94.5469 196.355C94.3607 196.613 94.0962 196.818 93.7534 196.971C94.5532 197.242 94.9531 197.775 94.9531 198.57C94.9531 199.201 94.7098 199.7 94.2231 200.068C93.7365 200.437 93.0869 200.621 92.2744 200.621C91.4831 200.621 90.8293 200.428 90.313 200.043C89.8009 199.654 89.5449 199.129 89.5449 198.469H90.7129C90.7129 198.803 90.861 199.091 91.1572 199.332C91.4577 199.569 91.8301 199.688 92.2744 199.688C92.723 199.688 93.0848 199.584 93.3599 199.376C93.6349 199.169 93.7725 198.9 93.7725 198.57C93.7725 198.185 93.6561 197.91 93.4233 197.745C93.1948 197.576 92.8372 197.491 92.3506 197.491H91.1763V196.501H92.4521C93.2519 196.48 93.6519 196.15 93.6519 195.511ZM103.44 200.5H102.259V192.673L99.8916 193.543V192.477L103.256 191.213H103.44V200.5ZM114.18 198.945L116.516 193.632H117.982V200.5H116.808V195.504L114.586 200.5H113.774L111.508 195.396V200.5H110.333V193.632H111.857L114.18 198.945ZM122.724 200.627C121.793 200.627 121.036 200.322 120.452 199.713C119.868 199.099 119.576 198.28 119.576 197.256V197.041C119.576 196.359 119.705 195.752 119.963 195.219C120.225 194.681 120.589 194.262 121.055 193.962C121.524 193.657 122.032 193.505 122.578 193.505C123.471 193.505 124.165 193.799 124.66 194.387C125.155 194.975 125.403 195.818 125.403 196.914V197.402H120.75C120.767 198.079 120.964 198.627 121.34 199.046C121.721 199.461 122.204 199.668 122.788 199.668C123.202 199.668 123.554 199.584 123.841 199.415C124.129 199.245 124.381 199.021 124.597 198.742L125.314 199.3C124.738 200.185 123.875 200.627 122.724 200.627ZM122.578 194.47C122.104 194.47 121.706 194.643 121.385 194.99C121.063 195.333 120.864 195.815 120.788 196.438H124.229V196.349C124.195 195.752 124.034 195.291 123.746 194.965C123.458 194.635 123.069 194.47 122.578 194.47ZM129.522 199.668C129.941 199.668 130.307 199.542 130.621 199.288C130.934 199.034 131.107 198.716 131.141 198.335H132.252C132.231 198.729 132.095 199.104 131.846 199.459C131.596 199.814 131.262 200.098 130.843 200.31C130.428 200.521 129.988 200.627 129.522 200.627C128.587 200.627 127.842 200.316 127.288 199.694C126.738 199.068 126.463 198.213 126.463 197.129V196.933C126.463 196.264 126.586 195.669 126.831 195.149C127.076 194.628 127.428 194.224 127.885 193.937C128.346 193.649 128.89 193.505 129.516 193.505C130.286 193.505 130.925 193.736 131.433 194.197C131.945 194.658 132.218 195.257 132.252 195.993H131.141C131.107 195.549 130.938 195.185 130.633 194.901C130.333 194.614 129.96 194.47 129.516 194.47C128.919 194.47 128.456 194.686 128.126 195.117C127.8 195.545 127.637 196.165 127.637 196.977V197.199C127.637 197.991 127.8 198.6 128.126 199.027C128.452 199.455 128.917 199.668 129.522 199.668ZM138.822 193.632V200.5H137.641V197.828H135.87L134.251 200.5H132.982L134.708 197.65C134.268 197.489 133.93 197.242 133.693 196.907C133.46 196.569 133.344 196.175 133.344 195.727C133.344 195.1 133.579 194.597 134.048 194.216C134.518 193.831 135.146 193.636 135.934 193.632H138.822ZM134.524 195.739C134.524 196.074 134.639 196.344 134.867 196.552C135.096 196.755 135.398 196.859 135.775 196.863H137.641V194.584H135.953C135.517 194.584 135.17 194.692 134.912 194.908C134.653 195.119 134.524 195.396 134.524 195.739ZM140.809 193.632H141.989V199.542H145.15V193.632H146.325V199.542H147.144L147.029 202.538H145.976V200.5H140.809V193.632Z" fill="#CEAC6A"/>
<path d="M25.0535 51.5537H23.5523V57H21.3528V44.292H23.5523V49.6335H24.7655L28.5011 44.292H31.2068L26.8428 50.3754L31.5908 57H28.9375L25.0535 51.5537ZM32.8599 52.1909C32.8599 51.2657 33.0432 50.4336 33.4097 49.6946C33.7763 48.9499 34.2913 48.3796 34.9546 47.9839C35.6179 47.5825 36.3802 47.3817 37.2413 47.3817C38.5156 47.3817 39.5485 47.7919 40.3398 48.6124C41.137 49.4328 41.5675 50.5209 41.6315 51.8766L41.6403 52.3741C41.6403 53.3051 41.4599 54.1372 41.0991 54.8704C40.7442 55.6035 40.2321 56.1708 39.563 56.5723C38.8997 56.9738 38.1316 57.1746 37.2588 57.1746C35.9263 57.1746 34.8586 56.7323 34.0556 55.8479C33.2585 54.9576 32.8599 53.7735 32.8599 52.2956V52.1909ZM34.9808 52.3741C34.9808 53.3459 35.1815 54.1081 35.583 54.6609C35.9845 55.2078 36.5431 55.4813 37.2588 55.4813C37.9745 55.4813 38.5302 55.202 38.9259 54.6434C39.3273 54.0848 39.5281 53.2673 39.5281 52.1909C39.5281 51.2366 39.3215 50.4802 38.9084 49.9216C38.5011 49.363 37.9454 49.0837 37.2413 49.0837C36.5489 49.0837 35.9991 49.3601 35.5917 49.9128C35.1844 50.4598 34.9808 51.2802 34.9808 52.3741ZM50.6162 49.267H46.514V57H44.4018V47.5563H50.6162V49.267ZM51.4226 55.3068C52.0103 54.6493 52.4031 54.0267 52.6009 53.439C52.8046 52.8455 52.9268 52.089 52.9675 51.1697L53.0897 47.5563H59.6444V55.3068H60.9536V59.8104H58.8415V57H52.7842V59.8104H50.6371L50.6458 55.3068H51.4226ZM53.9101 55.3068H57.5323V49.3804H55.1495L55.0884 51.1871C55.007 52.9211 54.6142 54.2943 53.9101 55.3068ZM69.0044 57C68.9113 56.8196 68.8298 56.5258 68.76 56.1185C68.085 56.8225 67.2588 57.1746 66.2812 57.1746C65.3328 57.1746 64.5589 56.904 63.9596 56.3629C63.3603 55.8217 63.0606 55.1526 63.0606 54.3554C63.0606 53.3488 63.433 52.5778 64.1778 52.0425C64.9284 51.5013 65.999 51.2308 67.3897 51.2308H68.6902V50.6111C68.6902 50.1223 68.5534 49.7325 68.28 49.4415C68.0065 49.1448 67.5904 48.9964 67.0318 48.9964C66.5489 48.9964 66.1532 49.1186 65.8448 49.363C65.5364 49.6015 65.3822 49.907 65.3822 50.2794H63.2613C63.2613 49.7616 63.433 49.2786 63.7763 48.8306C64.1196 48.3767 64.5851 48.0218 65.1728 47.7657C65.7663 47.5097 66.4267 47.3817 67.154 47.3817C68.2596 47.3817 69.1411 47.661 69.7986 48.2196C70.4561 48.7724 70.7936 49.5521 70.8111 50.5587V54.818C70.8111 55.6675 70.9304 56.3454 71.1689 56.8516V57H69.0044ZM66.674 55.4726C67.0929 55.4726 67.4857 55.3708 67.8523 55.1671C68.2247 54.9635 68.504 54.69 68.6902 54.3467V52.5662H67.5468C66.7613 52.5662 66.1707 52.7029 65.775 52.9764C65.3793 53.2499 65.1815 53.6368 65.1815 54.1372C65.1815 54.5445 65.3153 54.8704 65.583 55.1147C65.8565 55.3533 66.2201 55.4726 66.674 55.4726ZM85.5597 49.267H81.4575V57H79.3453V47.5563H85.5597V49.267ZM87.0819 52.1909C87.0819 51.2657 87.2652 50.4336 87.6317 49.6946C87.9983 48.9499 88.5133 48.3796 89.1766 47.9839C89.8399 47.5825 90.6022 47.3817 91.4633 47.3817C92.7376 47.3817 93.7704 47.7919 94.5618 48.6124C95.3589 49.4328 95.7895 50.5209 95.8535 51.8766L95.8623 52.3741C95.8623 53.3051 95.6819 54.1372 95.3211 54.8704C94.9662 55.6035 94.4541 56.1708 93.785 56.5723C93.1217 56.9738 92.3536 57.1746 91.4808 57.1746C90.1483 57.1746 89.0806 56.7323 88.2776 55.8479C87.4804 54.9576 87.0819 53.7735 87.0819 52.2956V52.1909ZM89.2028 52.3741C89.2028 53.3459 89.4035 54.1081 89.805 54.6609C90.2065 55.2078 90.7651 55.4813 91.4808 55.4813C92.1965 55.4813 92.7522 55.202 93.1478 54.6434C93.5493 54.0848 93.7501 53.2673 93.7501 52.1909C93.7501 51.2366 93.5435 50.4802 93.1304 49.9216C92.7231 49.363 92.1674 49.0837 91.4633 49.0837C90.7709 49.0837 90.221 49.3601 89.8137 49.9128C89.4064 50.4598 89.2028 51.2802 89.2028 52.3741ZM105.72 49.2408H102.656V57H100.535V49.2408H97.5066V47.5563H105.72V49.2408ZM107.373 52.1909C107.373 51.2657 107.556 50.4336 107.923 49.6946C108.289 48.9499 108.804 48.3796 109.468 47.9839C110.131 47.5825 110.893 47.3817 111.754 47.3817C113.029 47.3817 114.061 47.7919 114.853 48.6124C115.65 49.4328 116.08 50.5209 116.144 51.8766L116.153 52.3741C116.153 53.3051 115.973 54.1372 115.612 54.8704C115.257 55.6035 114.745 56.1708 114.076 56.5723C113.413 56.9738 112.645 57.1746 111.772 57.1746C110.439 57.1746 109.371 56.7323 108.569 55.8479C107.771 54.9576 107.373 53.7735 107.373 52.2956V52.1909ZM109.494 52.3741C109.494 53.3459 109.694 54.1081 110.096 54.6609C110.497 55.2078 111.056 55.4813 111.772 55.4813C112.487 55.4813 113.043 55.202 113.439 54.6434C113.84 54.0848 114.041 53.2673 114.041 52.1909C114.041 51.2366 113.834 50.4802 113.421 49.9216C113.014 49.363 112.458 49.0837 111.754 49.0837C111.062 49.0837 110.512 49.3601 110.105 49.9128C109.697 50.4598 109.494 51.2802 109.494 52.3741ZM119.002 57V47.5563H122.834C124.125 47.5563 125.109 47.7832 125.784 48.2371C126.459 48.6851 126.796 49.331 126.796 50.1747C126.796 50.6111 126.659 51.0038 126.386 51.353C126.118 51.6963 125.72 51.961 125.19 52.1472C125.807 52.2752 126.296 52.5342 126.656 52.924C127.017 53.3139 127.198 53.7735 127.198 54.303C127.198 55.1817 126.872 55.8508 126.22 56.3105C125.574 56.7702 124.643 57 123.427 57H119.002ZM121.123 52.9764V55.3242H123.445C124.533 55.3242 125.077 54.9344 125.077 54.1547C125.077 53.3691 124.524 52.9764 123.418 52.9764H121.123ZM121.123 51.4577H122.869C124.073 51.4577 124.675 51.1028 124.675 50.3929C124.675 49.6481 124.105 49.2641 122.965 49.2408H121.123V51.4577ZM132.211 50.5587H134.288C135.062 50.5587 135.737 50.6925 136.313 50.9602C136.889 51.2279 137.326 51.6032 137.622 52.0861C137.925 52.5691 138.076 53.1306 138.076 53.7706C138.076 54.7424 137.733 55.5221 137.046 56.1097C136.36 56.6974 135.446 56.9942 134.306 57H130.09V47.5563H132.211V50.5587ZM141.768 57H139.647V47.5563H141.768V57ZM132.211 52.2607V55.3068H134.28C134.797 55.3068 135.205 55.1788 135.501 54.9227C135.804 54.6609 135.955 54.2914 135.955 53.8143C135.955 53.3371 135.807 52.9618 135.51 52.6884C135.219 52.4091 134.824 52.2665 134.323 52.2607H132.211ZM158.559 57H156.438V49.267H152.755V57H150.634V47.5563H158.559V57ZM169.979 52.3741C169.979 53.8346 169.647 55.0013 168.984 55.8741C168.321 56.7411 167.43 57.1746 166.313 57.1746C165.277 57.1746 164.448 56.8342 163.826 56.1534V60.6309H161.705V47.5563H163.66L163.747 48.5164C164.37 47.7599 165.216 47.3817 166.287 47.3817C167.439 47.3817 168.341 47.8123 168.993 48.6735C169.65 49.5288 169.979 50.7187 169.979 52.2432V52.3741ZM167.867 52.1909C167.867 51.2482 167.678 50.5005 167.299 49.9478C166.927 49.395 166.392 49.1186 165.693 49.1186C164.826 49.1186 164.204 49.4764 163.826 50.1921V54.3816C164.21 55.1147 164.838 55.4813 165.711 55.4813C166.386 55.4813 166.912 55.2108 167.291 54.6696C167.675 54.1227 167.867 53.2964 167.867 52.1909ZM178.571 47.5563H180.683V57H178.571V50.6984L174.87 57H172.758V47.5563H174.87V53.8579L178.571 47.5563ZM183.436 52.1909C183.436 51.2657 183.619 50.4336 183.986 49.6946C184.352 48.9499 184.867 48.3796 185.531 47.9839C186.194 47.5825 186.956 47.3817 187.817 47.3817C189.092 47.3817 190.124 47.7919 190.916 48.6124C191.713 49.4328 192.143 50.5209 192.207 51.8766L192.216 52.3741C192.216 53.3051 192.036 54.1372 191.675 54.8704C191.32 55.6035 190.808 56.1708 190.139 56.5723C189.476 56.9738 188.708 57.1746 187.835 57.1746C186.502 57.1746 185.435 56.7323 184.632 55.8479C183.834 54.9576 183.436 53.7735 183.436 52.2956V52.1909ZM185.557 52.3741C185.557 53.3459 185.757 54.1081 186.159 54.6609C186.56 55.2078 187.119 55.4813 187.835 55.4813C188.55 55.4813 189.106 55.202 189.502 54.6434C189.903 54.0848 190.104 53.2673 190.104 52.1909C190.104 51.2366 189.897 50.4802 189.484 49.9216C189.077 49.363 188.521 49.0837 187.817 49.0837C187.125 49.0837 186.575 49.3601 186.168 49.9128C185.76 50.4598 185.557 51.2802 185.557 52.3741ZM199.35 48.08C200.537 48.08 201.489 48.4785 202.205 49.2757C202.92 50.067 203.278 51.1435 203.278 52.5051V52.6098C203.278 53.9714 202.888 55.074 202.109 55.9177C201.335 56.7614 200.281 57.1833 198.949 57.1833C197.651 57.1833 196.604 56.7527 195.807 55.8915C195.01 55.0304 194.611 53.855 194.611 52.3654V51.7545C194.611 49.7179 194.972 48.1061 195.693 46.9191C196.415 45.7321 197.491 44.9902 198.923 44.6935C199.726 44.5306 200.244 44.3589 200.476 44.1785C200.715 43.9923 200.834 43.7421 200.834 43.4279H202.545C202.545 44.0156 202.449 44.4927 202.257 44.8593C202.065 45.2259 201.771 45.5256 201.375 45.7583C200.98 45.9852 200.299 46.2005 199.333 46.4042C198.449 46.5904 197.774 46.922 197.308 47.3992C196.848 47.8763 196.54 48.5367 196.383 49.3804C197.227 48.5134 198.216 48.08 199.35 48.08ZM198.932 49.7819C198.245 49.7819 197.707 50.0147 197.317 50.4802C196.927 50.9398 196.732 51.6497 196.732 52.6098C196.732 53.5175 196.924 54.2245 197.308 54.7307C197.692 55.2369 198.239 55.4901 198.949 55.4901C199.653 55.4901 200.197 55.2369 200.581 54.7307C200.971 54.2187 201.166 53.4506 201.166 52.4265C201.166 51.6119 200.971 50.9689 200.581 50.4976C200.197 50.0205 199.647 49.7819 198.932 49.7819ZM213.947 52.3741C213.947 53.8346 213.616 55.0013 212.952 55.8741C212.289 56.7411 211.399 57.1746 210.281 57.1746C209.246 57.1746 208.417 56.8342 207.794 56.1534V60.6309H205.673V47.5563H207.628L207.715 48.5164C208.338 47.7599 209.185 47.3817 210.255 47.3817C211.407 47.3817 212.309 47.8123 212.961 48.6735C213.618 49.5288 213.947 50.7187 213.947 52.2432V52.3741ZM211.835 52.1909C211.835 51.2482 211.646 50.5005 211.268 49.9478C210.895 49.395 210.36 49.1186 209.662 49.1186C208.795 49.1186 208.172 49.4764 207.794 50.1921V54.3816C208.178 55.1147 208.806 55.4813 209.679 55.4813C210.354 55.4813 210.881 55.2108 211.259 54.6696C211.643 54.1227 211.835 53.2964 211.835 52.1909ZM220.802 57.1746C219.458 57.1746 218.367 56.7527 217.529 55.909C216.697 55.0595 216.281 53.9306 216.281 52.5225V52.2607C216.281 51.3181 216.461 50.4773 216.822 49.7383C217.189 48.9935 217.701 48.4145 218.358 48.0014C219.016 47.5883 219.749 47.3817 220.558 47.3817C221.844 47.3817 222.836 47.7919 223.534 48.6124C224.238 49.4328 224.59 50.5936 224.59 52.0948V52.9502H218.419C218.483 53.7299 218.742 54.3467 219.196 54.8005C219.656 55.2544 220.232 55.4813 220.924 55.4813C221.896 55.4813 222.687 55.0886 223.298 54.303L224.442 55.394C224.064 55.9585 223.557 56.3978 222.923 56.712C222.295 57.0204 221.588 57.1746 220.802 57.1746ZM220.549 49.0837C219.967 49.0837 219.496 49.2873 219.135 49.6946C218.78 50.1019 218.553 50.6693 218.454 51.3966H222.495V51.2395C222.449 50.5296 222.26 49.9943 221.928 49.6335C221.596 49.267 221.137 49.0837 220.549 49.0837ZM234.465 49.2408H231.402V57H229.281V49.2408H226.252V47.5563H234.465V49.2408ZM242.28 57C242.187 56.8196 242.106 56.5258 242.036 56.1185C241.361 56.8225 240.535 57.1746 239.557 57.1746C238.609 57.1746 237.835 56.904 237.235 56.3629C236.636 55.8217 236.336 55.1526 236.336 54.3554C236.336 53.3488 236.709 52.5778 237.454 52.0425C238.204 51.5013 239.275 51.2308 240.665 51.2308H241.966V50.6111C241.966 50.1223 241.829 49.7325 241.556 49.4415C241.282 49.1448 240.866 48.9964 240.308 48.9964C239.825 48.9964 239.429 49.1186 239.121 49.363C238.812 49.6015 238.658 49.907 238.658 50.2794H236.537C236.537 49.7616 236.709 49.2786 237.052 48.8306C237.395 48.3767 237.861 48.0218 238.449 47.7657C239.042 47.5097 239.702 47.3817 240.43 47.3817C241.535 47.3817 242.417 47.661 243.074 48.2196C243.732 48.7724 244.069 49.5521 244.087 50.5587V54.818C244.087 55.6675 244.206 56.3454 244.445 56.8516V57H242.28ZM239.95 55.4726C240.369 55.4726 240.761 55.3708 241.128 55.1671C241.5 54.9635 241.78 54.69 241.966 54.3467V52.5662H240.823C240.037 52.5662 239.446 52.7029 239.051 52.9764C238.655 53.2499 238.457 53.6368 238.457 54.1372C238.457 54.5445 238.591 54.8704 238.859 55.1147C239.132 55.3533 239.496 55.4726 239.95 55.4726ZM254.494 49.2408H251.431V57H249.31V49.2408H246.281V47.5563H254.494V49.2408ZM259.089 50.5587H261.166C261.94 50.5587 262.615 50.6925 263.191 50.9602C263.767 51.2279 264.203 51.6032 264.5 52.0861C264.803 52.5691 264.954 53.1306 264.954 53.7706C264.954 54.7424 264.611 55.5221 263.924 56.1097C263.237 56.6974 262.324 56.9942 261.183 57H256.968V47.5563H259.089V50.5587ZM259.089 52.2607V55.3068H261.157C261.675 55.3068 262.082 55.1788 262.379 54.9227C262.682 54.6609 262.833 54.2914 262.833 53.8143C262.833 53.3371 262.685 52.9618 262.388 52.6884C262.097 52.4091 261.701 52.2665 261.201 52.2607H259.089ZM29.0859 84H26.965V80.1859H23.2905V84H21.1696V74.5563H23.2905V78.4926H26.965V74.5563H29.0859V84ZM36.4035 84.1746C35.0593 84.1746 33.9683 83.7527 33.1304 82.909C32.2984 82.0595 31.8823 80.9306 31.8823 79.5225V79.2607C31.8823 78.3181 32.0627 77.4773 32.4235 76.7383C32.7901 75.9935 33.3021 75.4145 33.9596 75.0014C34.6171 74.5883 35.3503 74.3817 36.1591 74.3817C37.445 74.3817 38.4371 74.7919 39.1353 75.6124C39.8394 76.4328 40.1914 77.5936 40.1914 79.0948V79.9502H34.0207C34.0847 80.7299 34.3436 81.3467 34.7975 81.8005C35.2572 82.2544 35.8332 82.4813 36.5256 82.4813C37.4974 82.4813 38.2887 82.0886 38.8997 81.303L40.043 82.394C39.6648 82.9585 39.1586 83.3978 38.5244 83.712C37.8959 84.0204 37.189 84.1746 36.4035 84.1746ZM36.1503 76.0837C35.5685 76.0837 35.0972 76.2873 34.7364 76.6946C34.3815 77.1019 34.1545 77.6693 34.0556 78.3966H38.0967V78.2395C38.0501 77.5296 37.861 76.9943 37.5294 76.6335C37.1977 76.267 36.738 76.0837 36.1503 76.0837ZM42.7784 82.3068C43.3661 81.6493 43.7589 81.0267 43.9567 80.439C44.1603 79.8455 44.2825 79.089 44.3233 78.1697L44.4455 74.5563H51.0002V82.3068H52.3094V86.8104H50.1972V84H44.14V86.8104H41.9929L42.0016 82.3068H42.7784ZM45.2659 82.3068H48.888V76.3804H46.5053L46.4442 78.1871C46.3627 79.9211 45.97 81.2943 45.2659 82.3068ZM54.8789 84V74.5563H58.7105C60.0023 74.5563 60.9856 74.7832 61.6606 75.2371C62.3356 75.6851 62.6731 76.331 62.6731 77.1747C62.6731 77.6111 62.5363 78.0038 62.2629 78.353C61.9952 78.6963 61.5966 78.961 61.0671 79.1472C61.6839 79.2752 62.1727 79.5342 62.5334 79.924C62.8942 80.3139 63.0746 80.7735 63.0746 81.303C63.0746 82.1817 62.7487 82.8508 62.097 83.3105C61.4511 83.7702 60.5202 84 59.304 84H54.8789ZM56.9999 79.9764V82.3242H59.3215C60.4096 82.3242 60.9536 81.9344 60.9536 81.1547C60.9536 80.3691 60.4009 79.9764 59.2953 79.9764H56.9999ZM56.9999 78.4577H58.7455C59.9499 78.4577 60.5522 78.1028 60.5522 77.3929C60.5522 76.6481 59.9819 76.2641 58.8415 76.2408H56.9999V78.4577ZM71.7013 74.5563H73.8135V84H71.7013V77.6984L68.0007 84H65.8885V74.5563H68.0007V80.8579L71.7013 74.5563ZM85.2769 80.2033H84.151V84H82.0301V80.2033H80.9129L78.7396 84H76.1387L79.272 79.0861L76.3045 74.5563H78.8967L81.0351 78.2657H82.0301V74.5563H84.151V78.2657H85.1547L87.3018 74.5563H89.894L86.9352 79.0599L90.0861 84H87.4502L85.2769 80.2033ZM98.1892 74.5563H100.301V84H98.1892V77.6984L94.4885 84H92.3763V74.5563H94.4885V80.8579L98.1892 74.5563ZM109.059 81.3903L111.852 74.5563H114.505V84H112.384V77.7507L109.783 84H108.343L105.734 77.7158V84H103.613V74.5563H106.284L109.059 81.3903ZM117.389 79.1909C117.389 78.2657 117.572 77.4336 117.939 76.6946C118.306 75.9499 118.82 75.3796 119.484 74.9839C120.147 74.5825 120.909 74.3817 121.771 74.3817C123.045 74.3817 124.078 74.7919 124.869 75.6124C125.666 76.4328 126.097 77.5209 126.161 78.8766L126.169 79.3741C126.169 80.3051 125.989 81.1372 125.628 81.8704C125.273 82.6035 124.761 83.1708 124.092 83.5723C123.429 83.9738 122.661 84.1746 121.788 84.1746C120.456 84.1746 119.388 83.7323 118.585 82.8479C117.788 81.9576 117.389 80.7735 117.389 79.2956V79.1909ZM119.51 79.3741C119.51 80.3459 119.711 81.1081 120.112 81.6609C120.514 82.2078 121.072 82.4813 121.788 82.4813C122.504 82.4813 123.059 82.202 123.455 81.6434C123.857 81.0848 124.057 80.2673 124.057 79.1909C124.057 78.2366 123.851 77.4802 123.438 76.9216C123.03 76.363 122.475 76.0837 121.771 76.0837C121.078 76.0837 120.528 76.3601 120.121 76.9128C119.714 77.4598 119.51 78.2802 119.51 79.3741ZM132.736 82.4813C133.266 82.4813 133.705 82.3271 134.054 82.0187C134.403 81.7103 134.59 81.3292 134.613 80.8754H136.612C136.588 81.4631 136.405 82.0129 136.062 82.525C135.719 83.0312 135.253 83.4327 134.665 83.7294C134.078 84.0262 133.443 84.1746 132.763 84.1746C131.442 84.1746 130.394 83.7469 129.621 82.8915C128.847 82.0362 128.46 80.855 128.46 79.348V79.1298C128.46 77.6925 128.844 76.5434 129.612 75.6822C130.38 74.8152 131.427 74.3817 132.754 74.3817C133.877 74.3817 134.79 74.7105 135.494 75.368C136.204 76.0197 136.577 76.8779 136.612 77.9427H134.613C134.59 77.4016 134.403 76.9565 134.054 76.6074C133.711 76.2582 133.272 76.0837 132.736 76.0837C132.05 76.0837 131.52 76.3339 131.148 76.8343C130.776 77.3289 130.586 78.0824 130.581 79.0948V79.4352C130.581 80.4593 130.764 81.2245 131.13 81.7307C131.503 82.2311 132.038 82.4813 132.736 82.4813ZM146.539 76.2408H143.475V84H141.354V76.2408H138.326V74.5563H146.539V76.2408ZM151.133 77.5587H153.211C153.985 77.5587 154.659 77.6925 155.236 77.9602C155.812 78.2279 156.248 78.6032 156.545 79.0861C156.847 79.5691 156.999 80.1306 156.999 80.7706C156.999 81.7424 156.655 82.5221 155.969 83.1097C155.282 83.6974 154.369 83.9942 153.228 84H149.012V74.5563H151.133V77.5587ZM151.133 79.2607V82.3068H153.202C153.72 82.3068 154.127 82.1788 154.424 81.9227C154.726 81.6609 154.878 81.2914 154.878 80.8143C154.878 80.3371 154.729 79.9618 154.433 79.6884C154.142 79.4091 153.746 79.2665 153.246 79.2607H151.133ZM161.558 80.2644C161.558 79.4905 161.654 78.8737 161.846 78.4141C162.038 77.9544 162.416 77.4511 162.981 76.9041C163.551 76.3513 163.912 75.9586 164.063 75.7258C164.296 75.3709 164.412 74.9869 164.412 74.5737C164.412 74.0268 164.275 73.6107 164.002 73.3256C163.734 73.0347 163.339 72.8892 162.815 72.8892C162.315 72.8892 161.91 73.0318 161.602 73.3169C161.299 73.5962 161.148 73.9773 161.148 74.4603H159.027C159.039 73.4304 159.388 72.6157 160.074 72.0164C160.767 71.4171 161.68 71.1174 162.815 71.1174C163.985 71.1174 164.895 71.4142 165.547 72.0077C166.204 72.6012 166.533 73.4304 166.533 74.4952C166.533 75.4436 166.091 76.3775 165.206 77.2969L164.133 78.353C163.749 78.7894 163.551 79.4265 163.539 80.2644H161.558ZM161.41 82.9788C161.41 82.6355 161.517 82.3591 161.733 82.1497C161.948 81.9344 162.239 81.8267 162.605 81.8267C162.978 81.8267 163.272 81.9373 163.487 82.1584C163.702 82.3737 163.81 82.6472 163.81 82.9788C163.81 83.2988 163.705 83.5665 163.496 83.7818C163.286 83.9971 162.99 84.1047 162.605 84.1047C162.221 84.1047 161.925 83.9971 161.715 83.7818C161.512 83.5665 161.41 83.2988 161.41 82.9788Z" fill="#CEAC6A"/>
<rect x="50.875" y="203.562" width="14.625" height="14.625" rx="7.3125" transform="rotate(-180 50.875 203.562)" fill="#CEAC6A"/>
<path d="M42.2307 200.85C42.1221 200.959 41.974 201.02 41.8201 201.02C41.6662 201.02 41.5181 200.959 41.4095 200.85L38.1302 197.57C37.7899 197.23 37.7899 196.678 38.1302 196.338L38.5408 195.928C38.8813 195.587 39.4325 195.587 39.7728 195.928L41.8201 197.975L47.3522 192.443C47.6926 192.102 48.2444 192.102 48.5841 192.443L48.9947 192.853C49.3351 193.194 49.3351 193.745 48.9947 194.085L42.2307 200.85Z" fill="#353535"/>
<rect x="73.625" y="456.25" width="53.625" height="48.75" rx="4.0625" transform="rotate(-180 73.625 456.25)" fill="#403F3F"/>
<path d="M56.5891 432.669L39.7456 432.669L43.2499 436.208C43.557 436.518 43.557 437.02 43.2499 437.33C42.9429 437.64 42.4452 437.64 42.1387 437.33L37.2928 432.436C36.9858 432.126 36.9858 431.624 37.2928 431.314L42.1387 426.42C42.2921 426.265 42.4933 426.187 42.6943 426.187C42.8954 426.187 43.0965 426.265 43.25 426.42C43.557 426.73 43.557 427.232 43.25 427.542L39.7456 431.081L56.5891 431.081C57.0231 431.081 57.375 431.437 57.375 431.875C57.375 432.313 57.0231 432.669 56.5891 432.669Z" fill="#CEAC6A"/>
<rect x="81.75" y="407.5" width="198.25" height="48.75" rx="4.0625" fill="#CEAC6A"/>
<path d="M137.195 436.76H137.572C137.893 436.587 138.166 436.314 138.391 435.941C138.616 435.56 138.811 434.975 138.976 434.186C139.141 433.397 139.262 432.336 139.34 431.001L139.574 427.595H144.228V436.76H145.333V440.218H143.994L143.877 438.125H138.69L138.56 440.218H137.195V436.76ZM142.408 436.76V428.973H141.082L140.965 431.3C140.904 432.609 140.796 433.623 140.64 434.342C140.493 435.061 140.324 435.573 140.133 435.876C139.942 436.179 139.687 436.474 139.366 436.76H142.408ZM150.041 427.595H152.095L154.201 438.125H152.42L152.004 435.694H150.171L149.742 438.125H147.935L150.041 427.595ZM151.796 434.472L151.081 430.052L150.366 434.472H151.796ZM156.612 436.747C157.054 436.756 157.37 436.686 157.561 436.539C157.76 436.383 157.912 436.036 158.016 435.499C158.12 434.962 158.219 434.039 158.315 432.73L158.653 427.595H163.775V438.125H161.864V429.038H160.343L160.122 432.964C160.035 434.368 159.918 435.412 159.771 436.097C159.623 436.773 159.346 437.284 158.939 437.631C158.54 437.969 157.92 438.138 157.08 438.138C156.88 438.138 156.724 438.134 156.612 438.125V436.747ZM167.481 427.595H171.901V428.947H169.392V431.976H171.368V433.315H169.392V436.812H171.927V438.125H167.481V427.595ZM175.122 427.595H179.542V428.947H177.033V431.976H179.009V433.315H177.033V436.812H179.568V438.125H175.122V427.595Z" fill="#4F4F4F"/>
<path d="M137.799 488.656C136.803 488.656 136.109 488.392 135.719 487.863C135.338 487.326 135.147 486.533 135.147 485.484H136.902C136.902 486.082 136.967 486.533 137.097 486.836C137.227 487.139 137.483 487.291 137.864 487.291C138.15 487.291 138.363 487.2 138.501 487.018C138.64 486.827 138.727 486.576 138.761 486.264C138.805 485.943 138.826 485.501 138.826 484.938C138.826 484.245 138.761 483.733 138.631 483.404C138.501 483.075 138.233 482.91 137.825 482.91C137.583 482.91 137.375 482.992 137.201 483.157C137.037 483.322 136.915 483.547 136.837 483.833H135.29L135.394 477.97H140.126V479.582H136.902L136.798 482.117C136.946 481.952 137.158 481.822 137.435 481.727C137.713 481.623 138.016 481.571 138.345 481.571C139.091 481.571 139.641 481.857 139.996 482.429C140.36 482.992 140.542 483.79 140.542 484.821C140.542 485.627 140.464 486.307 140.308 486.862C140.161 487.417 139.888 487.854 139.489 488.175C139.091 488.496 138.527 488.656 137.799 488.656Z" fill="#CEAC6A"/>
<path d="M151.805 477.97H152.975L149.933 488.5H148.763L151.805 477.97ZM164.02 488.656C163.023 488.656 162.33 488.392 161.94 487.863C161.559 487.326 161.368 486.533 161.368 485.484H163.123C163.123 486.082 163.188 486.533 163.318 486.836C163.448 487.139 163.704 487.291 164.085 487.291C164.371 487.291 164.583 487.2 164.722 487.018C164.861 486.827 164.947 486.576 164.982 486.264C165.025 485.943 165.047 485.501 165.047 484.938C165.047 484.245 164.982 483.733 164.852 483.404C164.722 483.075 164.453 482.91 164.046 482.91C163.803 482.91 163.595 482.992 163.422 483.157C163.257 483.322 163.136 483.547 163.058 483.833H161.511L161.615 477.97H166.347V479.582H163.123L163.019 482.117C163.166 481.952 163.379 481.822 163.656 481.727C163.933 481.623 164.237 481.571 164.566 481.571C165.311 481.571 165.862 481.857 166.217 482.429C166.581 482.992 166.763 483.79 166.763 484.821C166.763 485.627 166.685 486.307 166.529 486.862C166.382 487.417 166.109 487.854 165.71 488.175C165.311 488.496 164.748 488.656 164.02 488.656Z" fill="#A5A5A5"/>
<path d="M205.223 431.081L222.067 431.081L218.563 427.542C218.256 427.232 218.256 426.73 218.563 426.42C218.87 426.11 219.367 426.11 219.674 426.42L224.52 431.314C224.827 431.624 224.827 432.126 224.52 432.436L219.674 437.33C219.52 437.485 219.319 437.563 219.118 437.563C218.917 437.563 218.716 437.485 218.563 437.33C218.256 437.02 218.256 436.518 218.563 436.208L222.067 432.669L205.223 432.669C204.789 432.669 204.437 432.313 204.437 431.875C204.437 431.437 204.789 431.081 205.223 431.081Z" fill="#4F4F4F"/>
</svg>
