<svg width="300" height="530" viewBox="0 0 300 530" fill="none" xmlns="http://www.w3.org/2000/svg">
<rect x="0.5" y="0.5" width="299" height="529" rx="4.5" fill="#353535" stroke="#4F4F4F"/>
<path d="M135.095 505.976L137.695 501.959C137.739 501.89 137.778 501.829 137.812 501.777C137.847 501.725 137.877 501.677 137.903 501.634C138.215 501.149 138.445 500.746 138.592 500.425C138.74 500.104 138.813 499.74 138.813 499.333C138.813 498.518 138.527 498.111 137.955 498.111C137.565 498.111 137.292 498.263 137.136 498.566C136.98 498.869 136.902 499.277 136.902 499.788V500.23H135.134V499.762C135.134 498.774 135.355 498.003 135.797 497.448C136.248 496.885 136.95 496.603 137.903 496.603C138.787 496.603 139.459 496.846 139.918 497.331C140.378 497.808 140.607 498.479 140.607 499.346C140.607 499.883 140.512 500.36 140.321 500.776C140.139 501.192 139.853 501.703 139.463 502.31L139.307 502.544L137.136 505.807H140.334V507.25H135.095V505.976Z" fill="#CEAC6A"/>
<path d="M151.843 496.72H153.013L149.971 507.25H148.801L151.843 496.72ZM164.058 507.406C163.061 507.406 162.368 507.142 161.978 506.613C161.597 506.076 161.406 505.283 161.406 504.234H163.161C163.161 504.832 163.226 505.283 163.356 505.586C163.486 505.889 163.742 506.041 164.123 506.041C164.409 506.041 164.621 505.95 164.76 505.768C164.899 505.577 164.985 505.326 165.02 505.014C165.063 504.693 165.085 504.251 165.085 503.688C165.085 502.995 165.02 502.483 164.89 502.154C164.76 501.825 164.491 501.66 164.084 501.66C163.841 501.66 163.633 501.742 163.46 501.907C163.295 502.072 163.174 502.297 163.096 502.583H161.549L161.653 496.72H166.385V498.332H163.161L163.057 500.867C163.204 500.702 163.417 500.572 163.694 500.477C163.971 500.373 164.275 500.321 164.604 500.321C165.349 500.321 165.9 500.607 166.255 501.179C166.619 501.742 166.801 502.54 166.801 503.571C166.801 504.377 166.723 505.057 166.567 505.612C166.42 506.167 166.147 506.604 165.748 506.925C165.349 507.246 164.786 507.406 164.058 507.406Z" fill="#A5A5A5"/>
<rect x="37.0625" y="151.625" width="13" height="13" rx="6.49999" stroke="#A5A5A5" stroke-opacity="0.5" stroke-width="1.625"/>
<rect x="20.8125" y="101.248" width="13" height="13" rx="6.49999" stroke="#CEAC6A" stroke-width="1.625"/>
<rect x="20.4062" y="134.156" width="259.187" height="47.9375" rx="1.21875" stroke="#A5A5A5" stroke-opacity="0.5" stroke-width="0.812499"/>
<path d="M68.3882 164.641H67.1758V162.375H60.5425V164.647H59.3237L59.3174 161.378H60.0728C60.4705 160.93 60.7858 160.329 61.0186 159.576C61.2555 158.818 61.4036 157.989 61.4629 157.087L61.666 153.133H67.1948V161.378H68.4009L68.3882 164.641ZM61.4629 161.378H65.9697V154.136H62.8403L62.707 156.853C62.652 157.915 62.5103 158.82 62.2817 159.569C62.0575 160.318 61.7845 160.921 61.4629 161.378ZM69.353 158.877C69.353 158.205 69.4842 157.599 69.7466 157.062C70.0132 156.525 70.3813 156.11 70.8511 155.818C71.325 155.526 71.8646 155.38 72.4697 155.38C73.4049 155.38 74.1603 155.704 74.7358 156.351C75.3156 156.999 75.6055 157.86 75.6055 158.935V159.017C75.6055 159.686 75.4764 160.287 75.2182 160.82C74.9643 161.349 74.5983 161.761 74.1201 162.058C73.6461 162.354 73.1002 162.502 72.4824 162.502C71.5514 162.502 70.7961 162.178 70.2163 161.531C69.6408 160.883 69.353 160.026 69.353 158.96V158.877ZM70.5337 159.017C70.5337 159.779 70.7093 160.39 71.0605 160.852C71.416 161.313 71.89 161.543 72.4824 161.543C73.0791 161.543 73.553 161.311 73.9043 160.845C74.2555 160.375 74.4311 159.72 74.4311 158.877C74.4311 158.124 74.2513 157.515 73.8916 157.049C73.5361 156.58 73.0622 156.345 72.4697 156.345C71.89 156.345 71.4224 156.575 71.0669 157.037C70.7114 157.498 70.5337 158.158 70.5337 159.017ZM85.1396 159.271H86.4218V160.229H85.1396V162.375H83.959V160.229H79.7505V159.538L83.8891 153.133H85.1396V159.271ZM81.0835 159.271H83.959V154.739L83.8193 154.993L81.0835 159.271ZM93.2773 158.433C93.2773 159.808 93.0425 160.83 92.5727 161.499C92.103 162.168 91.3688 162.502 90.3701 162.502C89.3841 162.502 88.6541 162.176 88.1801 161.524C87.7062 160.868 87.4607 159.891 87.4438 158.592V157.024C87.4438 155.666 87.6787 154.656 88.1484 153.996C88.6181 153.336 89.3545 153.006 90.3574 153.006C91.3519 153.006 92.084 153.325 92.5537 153.964C93.0234 154.599 93.2646 155.581 93.2773 156.91V158.433ZM92.103 156.827C92.103 155.833 91.9633 155.109 91.6841 154.656C91.4048 154.199 90.9625 153.971 90.3574 153.971C89.7565 153.971 89.3185 154.197 89.0434 154.65C88.7684 155.103 88.6266 155.799 88.6181 156.738V158.617C88.6181 159.616 88.762 160.354 89.0498 160.833C89.3418 161.306 89.7819 161.543 90.3701 161.543C90.9498 161.543 91.3794 161.319 91.6587 160.871C91.9422 160.422 92.0903 159.715 92.103 158.75V156.827ZM99.2314 155.507L99.2631 156.269C99.7667 155.676 100.446 155.38 101.301 155.38C102.261 155.38 102.915 155.748 103.262 156.484C103.491 156.154 103.787 155.888 104.151 155.685C104.519 155.481 104.953 155.38 105.452 155.38C106.959 155.38 107.725 156.178 107.75 157.773V162.375H106.576V157.843C106.576 157.352 106.463 156.986 106.239 156.745C106.015 156.499 105.638 156.376 105.109 156.376C104.673 156.376 104.312 156.508 104.024 156.77C103.736 157.028 103.569 157.377 103.522 157.817V162.375H102.342V157.875C102.342 156.876 101.853 156.376 100.875 156.376C100.105 156.376 99.5784 156.704 99.2949 157.36V162.375H98.1206V155.507H99.2314ZM112.974 158.141H109.172V157.456L111.076 155.666C111.537 155.234 111.768 154.872 111.768 154.58C111.768 154.373 111.7 154.206 111.565 154.079C111.429 153.947 111.235 153.882 110.981 153.882C110.664 153.882 110.429 153.962 110.276 154.123C110.128 154.284 110.054 154.485 110.054 154.726H109.058C109.058 154.244 109.233 153.846 109.584 153.533C109.94 153.22 110.397 153.063 110.956 153.063C111.514 153.063 111.956 153.198 112.282 153.469C112.608 153.736 112.771 154.102 112.771 154.567C112.771 155.007 112.545 155.454 112.092 155.907L111.559 156.408L110.441 157.329H112.974V158.141Z" fill="#A5A5A5"/>
<rect x="37.0625" y="265.375" width="13" height="13" rx="6.49999" stroke="#A5A5A5" stroke-opacity="0.5" stroke-width="1.625"/>
<rect x="20.4062" y="247.906" width="259.187" height="47.9375" rx="1.21875" stroke="#A5A5A5" stroke-opacity="0.5" stroke-width="0.812499"/>
<path d="M64.3765 266.876V267.873H64.1606C63.2466 267.89 62.5187 268.161 61.977 268.686C61.4354 269.21 61.1222 269.949 61.0376 270.901C61.5242 270.342 62.1886 270.063 63.0308 270.063C63.8348 270.063 64.4759 270.347 64.9541 270.914C65.4365 271.481 65.6777 272.213 65.6777 273.11C65.6777 274.062 65.4175 274.824 64.897 275.395C64.3807 275.966 63.6867 276.252 62.8149 276.252C61.9305 276.252 61.2132 275.913 60.6631 275.236C60.113 274.555 59.8379 273.679 59.8379 272.608V272.158C59.8379 270.457 60.1997 269.157 60.9233 268.26C61.6512 267.359 62.7324 266.898 64.167 266.876H64.3765ZM62.834 271.041C62.432 271.041 62.0617 271.161 61.7231 271.402C61.3846 271.644 61.1497 271.946 61.0186 272.31V272.742C61.0186 273.503 61.1899 274.117 61.5327 274.583C61.8755 275.048 62.3029 275.281 62.8149 275.281C63.3439 275.281 63.7586 275.086 64.0591 274.697C64.3638 274.307 64.5161 273.798 64.5161 273.167C64.5161 272.532 64.3616 272.02 64.0527 271.631C63.748 271.237 63.3418 271.041 62.834 271.041ZM72.8633 272.183C72.8633 273.558 72.6284 274.58 72.1587 275.249C71.689 275.918 70.9547 276.252 69.956 276.252C68.97 276.252 68.2401 275.926 67.7661 275.274C67.2921 274.618 67.0467 273.641 67.0298 272.342V270.774C67.0298 269.416 67.2646 268.406 67.7344 267.746C68.2041 267.086 68.9404 266.756 69.9433 266.756C70.9378 266.756 71.6699 267.075 72.1396 267.714C72.6094 268.349 72.8506 269.331 72.8633 270.66V272.183ZM71.689 270.577C71.689 269.583 71.5493 268.859 71.27 268.406C70.9907 267.949 70.5485 267.721 69.9433 267.721C69.3424 267.721 68.9045 267.947 68.6294 268.4C68.3543 268.853 68.2126 269.549 68.2041 270.488V272.367C68.2041 273.366 68.348 274.104 68.6357 274.583C68.9277 275.056 69.3678 275.293 69.956 275.293C70.5358 275.293 70.9653 275.069 71.2446 274.621C71.5281 274.172 71.6763 273.465 71.689 272.5V270.577ZM86.2187 271.993H77.7383V271.034H86.2187V271.993ZM94.8325 276.125H93.6518V268.298L91.2842 269.168V268.102L94.6484 266.838H94.8325V276.125ZM104.068 272.183C104.068 273.558 103.833 274.58 103.364 275.249C102.894 275.918 102.16 276.252 101.161 276.252C100.175 276.252 99.4451 275.926 98.9712 275.274C98.4972 274.618 98.2518 273.641 98.2348 272.342V270.774C98.2348 269.416 98.4697 268.406 98.9394 267.746C99.4091 267.086 100.145 266.756 101.148 266.756C102.143 266.756 102.875 267.075 103.345 267.714C103.814 268.349 104.056 269.331 104.068 270.66V272.183ZM102.894 270.577C102.894 269.583 102.754 268.859 102.475 268.406C102.196 267.949 101.754 267.721 101.148 267.721C100.547 267.721 100.11 267.947 99.8344 268.4C99.5594 268.853 99.4176 269.549 99.4091 270.488V272.367C99.4091 273.366 99.553 274.104 99.8408 274.583C100.133 275.056 100.573 275.293 101.161 275.293C101.741 275.293 102.17 275.069 102.45 274.621C102.733 274.172 102.881 273.465 102.894 272.5V270.577ZM111.368 272.183C111.368 273.558 111.133 274.58 110.664 275.249C110.194 275.918 109.46 276.252 108.461 276.252C107.475 276.252 106.745 275.926 106.271 275.274C105.797 274.618 105.552 273.641 105.535 272.342V270.774C105.535 269.416 105.769 268.406 106.239 267.746C106.709 267.086 107.445 266.756 108.448 266.756C109.443 266.756 110.175 267.075 110.644 267.714C111.114 268.349 111.355 269.331 111.368 270.66V272.183ZM110.194 270.577C110.194 269.583 110.054 268.859 109.775 268.406C109.496 267.949 109.053 267.721 108.448 267.721C107.847 267.721 107.409 267.947 107.134 268.4C106.859 268.853 106.717 269.549 106.709 270.488V272.367C106.709 273.366 106.853 274.104 107.141 274.583C107.433 275.056 107.873 275.293 108.461 275.293C109.041 275.293 109.47 275.069 109.749 274.621C110.033 274.172 110.181 273.465 110.194 272.5V270.577ZM117.322 269.257L117.354 270.019C117.858 269.426 118.537 269.13 119.392 269.13C120.352 269.13 121.006 269.498 121.353 270.234C121.581 269.904 121.878 269.638 122.242 269.435C122.61 269.231 123.044 269.13 123.543 269.13C125.049 269.13 125.815 269.928 125.841 271.523V276.125H124.666V271.593C124.666 271.102 124.554 270.736 124.33 270.495C124.106 270.249 123.729 270.126 123.2 270.126C122.764 270.126 122.402 270.258 122.115 270.52C121.827 270.778 121.66 271.127 121.613 271.567V276.125H120.433V271.625C120.433 270.626 119.944 270.126 118.966 270.126C118.196 270.126 117.669 270.454 117.386 271.11V276.125H116.211V269.257H117.322ZM131.065 271.891H127.263V271.206L129.167 269.416C129.628 268.984 129.859 268.622 129.859 268.33C129.859 268.123 129.791 267.956 129.656 267.829C129.52 267.697 129.326 267.632 129.072 267.632C128.754 267.632 128.519 267.712 128.367 267.873C128.219 268.034 128.145 268.235 128.145 268.476H127.148C127.148 267.994 127.324 267.596 127.675 267.283C128.031 266.97 128.488 266.813 129.046 266.813C129.605 266.813 130.047 266.948 130.373 267.219C130.699 267.486 130.862 267.852 130.862 268.317C130.862 268.757 130.635 269.204 130.183 269.657L129.649 270.158L128.532 271.079H131.065V271.891Z" fill="#A5A5A5"/>
<rect x="37.0625" y="322.25" width="13" height="13" rx="6.49999" stroke="#A5A5A5" stroke-opacity="0.5" stroke-width="1.625"/>
<rect x="20.4062" y="304.781" width="259.187" height="47.9375" rx="1.21875" stroke="#A5A5A5" stroke-opacity="0.5" stroke-width="0.812499"/>
<path d="M63.6274 333H62.4468V325.173L60.0791 326.043V324.977L63.4434 323.713H63.6274V333ZM72.8633 329.058C72.8633 330.433 72.6284 331.455 72.1587 332.124C71.689 332.793 70.9547 333.127 69.956 333.127C68.97 333.127 68.2401 332.801 67.7661 332.149C67.2921 331.493 67.0467 330.516 67.0298 329.217V327.649C67.0298 326.291 67.2646 325.281 67.7344 324.621C68.2041 323.961 68.9404 323.631 69.9433 323.631C70.9378 323.631 71.6699 323.95 72.1396 324.589C72.6094 325.224 72.8506 326.206 72.8633 327.535V329.058ZM71.689 327.452C71.689 326.458 71.5493 325.734 71.27 325.281C70.9907 324.824 70.5485 324.596 69.9433 324.596C69.3424 324.596 68.9045 324.822 68.6294 325.275C68.3543 325.728 68.2126 326.424 68.2041 327.363V329.242C68.2041 330.241 68.348 330.979 68.6357 331.458C68.9277 331.931 69.3678 332.168 69.956 332.168C70.5358 332.168 70.9653 331.944 71.2446 331.496C71.5281 331.047 71.6763 330.34 71.689 329.375V327.452ZM80.1631 329.058C80.1631 330.433 79.9282 331.455 79.4585 332.124C78.9888 332.793 78.2545 333.127 77.2558 333.127C76.2698 333.127 75.5399 332.801 75.0659 332.149C74.5919 331.493 74.3465 330.516 74.3296 329.217V327.649C74.3296 326.291 74.5644 325.281 75.0342 324.621C75.5039 323.961 76.2402 323.631 77.2431 323.631C78.2376 323.631 78.9697 323.95 79.4394 324.589C79.9092 325.224 80.1504 326.206 80.1631 327.535V329.058ZM78.9888 327.452C78.9888 326.458 78.8491 325.734 78.5698 325.281C78.2905 324.824 77.8483 324.596 77.2431 324.596C76.6422 324.596 76.2042 324.822 75.9292 325.275C75.6541 325.728 75.5124 326.424 75.5039 327.363V329.242C75.5039 330.241 75.6478 330.979 75.9355 331.458C76.2275 331.931 76.6676 332.168 77.2558 332.168C77.8356 332.168 78.2651 331.944 78.5444 331.496C78.8279 331.047 78.9761 330.34 78.9888 329.375V327.452ZM91.5127 328.868H85.1523V327.909H91.5127V328.868ZM102.704 333H96.6479V332.156L99.8471 328.601C100.321 328.064 100.647 327.628 100.825 327.293C101.007 326.955 101.098 326.606 101.098 326.246C101.098 325.764 100.952 325.368 100.66 325.059C100.368 324.75 99.9783 324.596 99.4917 324.596C98.9077 324.596 98.4528 324.763 98.1269 325.097C97.8053 325.427 97.6445 325.889 97.6445 326.481H96.4702C96.4702 325.63 96.7431 324.943 97.289 324.418C97.8392 323.893 98.5734 323.631 99.4917 323.631C100.351 323.631 101.03 323.857 101.529 324.31C102.029 324.759 102.278 325.357 102.278 326.106C102.278 327.016 101.699 328.1 100.539 329.356L98.0634 332.042H102.704V333ZM109.743 329.058C109.743 330.433 109.508 331.455 109.039 332.124C108.569 332.793 107.835 333.127 106.836 333.127C105.85 333.127 105.12 332.801 104.646 332.149C104.172 331.493 103.927 330.516 103.91 329.217V327.649C103.91 326.291 104.144 325.281 104.614 324.621C105.084 323.961 105.82 323.631 106.823 323.631C107.818 323.631 108.55 323.95 109.019 324.589C109.489 325.224 109.73 326.206 109.743 327.535V329.058ZM108.569 327.452C108.569 326.458 108.429 325.734 108.15 325.281C107.871 324.824 107.428 324.596 106.823 324.596C106.222 324.596 105.784 324.822 105.509 325.275C105.234 325.728 105.092 326.424 105.084 327.363V329.242C105.084 330.241 105.228 330.979 105.516 331.458C105.808 331.931 106.248 332.168 106.836 332.168C107.416 332.168 107.845 331.944 108.124 331.496C108.408 331.047 108.556 330.34 108.569 329.375V327.452ZM117.043 329.058C117.043 330.433 116.808 331.455 116.338 332.124C115.869 332.793 115.134 333.127 114.136 333.127C113.15 333.127 112.42 332.801 111.946 332.149C111.472 331.493 111.226 330.516 111.209 329.217V327.649C111.209 326.291 111.444 325.281 111.914 324.621C112.384 323.961 113.12 323.631 114.123 323.631C115.117 323.631 115.85 323.95 116.319 324.589C116.789 325.224 117.03 326.206 117.043 327.535V329.058ZM115.869 327.452C115.869 326.458 115.729 325.734 115.45 325.281C115.17 324.824 114.728 324.596 114.123 324.596C113.522 324.596 113.084 324.822 112.809 325.275C112.534 325.728 112.392 326.424 112.384 327.363V329.242C112.384 330.241 112.528 330.979 112.815 331.458C113.107 331.931 113.547 332.168 114.136 332.168C114.715 332.168 115.145 331.944 115.424 331.496C115.708 331.047 115.856 330.34 115.869 329.375V327.452ZM122.997 326.132L123.029 326.894C123.532 326.301 124.212 326.005 125.066 326.005C126.027 326.005 126.681 326.373 127.028 327.109C127.256 326.779 127.553 326.513 127.916 326.31C128.285 326.106 128.718 326.005 129.218 326.005C130.724 326.005 131.49 326.803 131.516 328.398V333H130.341V328.468C130.341 327.977 130.229 327.611 130.005 327.37C129.781 327.124 129.404 327.001 128.875 327.001C128.439 327.001 128.077 327.133 127.789 327.395C127.502 327.653 127.335 328.002 127.288 328.442V333H126.107V328.5C126.107 327.501 125.619 327.001 124.641 327.001C123.871 327.001 123.344 327.329 123.06 327.985V333H121.886V326.132H122.997ZM136.74 328.766H132.937V328.081L134.842 326.291C135.303 325.859 135.534 325.497 135.534 325.205C135.534 324.998 135.466 324.831 135.331 324.704C135.195 324.572 135 324.507 134.747 324.507C134.429 324.507 134.194 324.587 134.042 324.748C133.894 324.909 133.82 325.11 133.82 325.351H132.823C132.823 324.869 132.999 324.471 133.35 324.158C133.706 323.845 134.163 323.688 134.721 323.688C135.28 323.688 135.722 323.823 136.048 324.094C136.374 324.361 136.537 324.727 136.537 325.192C136.537 325.632 136.31 326.079 135.857 326.532L135.324 327.033L134.207 327.954H136.74V328.766Z" fill="#A5A5A5"/>
<rect x="37.0625" y="379.125" width="13" height="13" rx="6.49999" stroke="#A5A5A5" stroke-opacity="0.5" stroke-width="1.625"/>
<rect x="20.4062" y="361.656" width="259.187" height="47.9375" rx="1.21875" stroke="#A5A5A5" stroke-opacity="0.5" stroke-width="0.812499"/>
<path d="M67.1821 385.55C67.1821 386.456 67.0298 387.247 66.7251 387.924C66.4204 388.597 65.9888 389.111 65.4302 389.467C64.8716 389.822 64.2199 390 63.4751 390C62.7472 390 62.1019 389.822 61.5391 389.467C60.9762 389.107 60.5382 388.597 60.2251 387.937C59.9162 387.273 59.7575 386.505 59.749 385.633V384.966C59.749 384.078 59.9035 383.293 60.2124 382.611C60.5213 381.93 60.9572 381.41 61.52 381.05C62.0871 380.686 62.7345 380.504 63.4624 380.504C64.203 380.504 64.8546 380.684 65.4175 381.043C65.9845 381.399 66.4204 381.917 66.7251 382.599C67.0298 383.276 67.1821 384.065 67.1821 384.966V385.55ZM65.9697 384.954C65.9697 383.858 65.7497 383.018 65.3096 382.434C64.8695 381.845 64.2537 381.551 63.4624 381.551C62.6922 381.551 62.085 381.845 61.6406 382.434C61.2005 383.018 60.9741 383.83 60.9614 384.871V385.55C60.9614 386.612 61.1836 387.448 61.6279 388.058C62.0765 388.663 62.6922 388.965 63.4751 388.965C64.2622 388.965 64.8716 388.68 65.3032 388.108C65.7349 387.533 65.957 386.71 65.9697 385.639V384.954ZM73.9297 383.957H71.6255V389.873H70.4512V383.957H68.1914V383.005H73.9297V383.957ZM84.2319 389.873H78.1763V389.029L81.3755 385.474C81.8494 384.937 82.1753 384.501 82.353 384.167C82.535 383.828 82.626 383.479 82.626 383.119C82.626 382.637 82.48 382.241 82.188 381.932C81.896 381.623 81.5067 381.469 81.02 381.469C80.436 381.469 79.9811 381.636 79.6553 381.97C79.3336 382.3 79.1728 382.762 79.1728 383.354H77.9985C77.9985 382.503 78.2715 381.816 78.8174 381.291C79.3675 380.766 80.1017 380.504 81.02 380.504C81.879 380.504 82.5582 380.73 83.0576 381.183C83.5569 381.632 83.8066 382.23 83.8066 382.979C83.8066 383.889 83.2269 384.973 82.0674 386.229L79.5918 388.915H84.2319V389.873ZM91.2715 385.931C91.2715 387.306 91.0366 388.328 90.5669 388.997C90.0971 389.666 89.3629 390 88.3642 390C87.3782 390 86.6483 389.674 86.1743 389.022C85.7003 388.367 85.4549 387.389 85.438 386.09V384.522C85.438 383.164 85.6728 382.154 86.1426 381.494C86.6123 380.834 87.3486 380.504 88.3515 380.504C89.346 380.504 90.0781 380.823 90.5478 381.462C91.0175 382.097 91.2588 383.079 91.2715 384.408V385.931ZM90.0971 384.325C90.0971 383.331 89.9575 382.607 89.6782 382.154C89.3989 381.697 88.9567 381.469 88.3515 381.469C87.7506 381.469 87.3126 381.695 87.0376 382.148C86.7625 382.601 86.6207 383.297 86.6123 384.236V386.115C86.6123 387.114 86.7562 387.852 87.0439 388.331C87.3359 388.805 87.776 389.042 88.3642 389.042C88.944 389.042 89.3735 388.817 89.6528 388.369C89.9363 387.92 90.0844 387.213 90.0971 386.249V384.325ZM98.5713 385.931C98.5713 387.306 98.3364 388.328 97.8667 388.997C97.3969 389.666 96.6627 390 95.664 390C94.678 390 93.948 389.674 93.4741 389.022C93.0001 388.367 92.7547 387.389 92.7378 386.09V384.522C92.7378 383.164 92.9726 382.154 93.4424 381.494C93.9121 380.834 94.6484 380.504 95.6513 380.504C96.6458 380.504 97.3779 380.823 97.8476 381.462C98.3173 382.097 98.5586 383.079 98.5713 384.408V385.931ZM97.3969 384.325C97.3969 383.331 97.2573 382.607 96.978 382.154C96.6987 381.697 96.2565 381.469 95.6513 381.469C95.0504 381.469 94.6124 381.695 94.3374 382.148C94.0623 382.601 93.9205 383.297 93.9121 384.236V386.115C93.9121 387.114 94.056 387.852 94.3437 388.331C94.6357 388.805 95.0758 389.042 95.664 389.042C96.2438 389.042 96.6733 388.817 96.9526 388.369C97.2361 387.92 97.3842 387.213 97.3969 386.249V384.325ZM104.525 383.005L104.557 383.767C105.061 383.174 105.74 382.878 106.595 382.878C107.555 382.878 108.209 383.246 108.556 383.982C108.785 383.652 109.081 383.386 109.445 383.183C109.813 382.979 110.247 382.878 110.746 382.878C112.253 382.878 113.019 383.676 113.044 385.271V389.873H111.87V385.341C111.87 384.85 111.757 384.484 111.533 384.243C111.309 383.997 110.932 383.875 110.403 383.875C109.967 383.875 109.606 384.006 109.318 384.268C109.03 384.526 108.863 384.875 108.816 385.315V389.873H107.636V385.373C107.636 384.374 107.147 383.875 106.169 383.875C105.399 383.875 104.872 384.202 104.589 384.858V389.873H103.415V383.005H104.525ZM118.268 385.639H114.466V384.954L116.37 383.164C116.831 382.732 117.062 382.37 117.062 382.078C117.062 381.871 116.994 381.704 116.859 381.577C116.723 381.445 116.529 381.38 116.275 381.38C115.957 381.38 115.723 381.46 115.57 381.621C115.422 381.782 115.348 381.983 115.348 382.224H114.352C114.352 381.742 114.527 381.344 114.878 381.031C115.234 380.718 115.691 380.561 116.249 380.561C116.808 380.561 117.25 380.696 117.576 380.967C117.902 381.234 118.065 381.6 118.065 382.065C118.065 382.506 117.838 382.952 117.386 383.405L116.852 383.906L115.735 384.827H118.268V385.639Z" fill="#A5A5A5"/>
<path d="M50.9321 107.677C50.9321 108.583 50.7798 109.374 50.4751 110.051C50.1704 110.724 49.7388 111.238 49.1802 111.594C48.6216 111.949 47.9699 112.127 47.2251 112.127C46.4972 112.127 45.8519 111.949 45.2891 111.594C44.7262 111.234 44.2882 110.724 43.9751 110.064C43.6662 109.4 43.5075 108.632 43.499 107.76V107.093C43.499 106.205 43.6535 105.42 43.9624 104.738C44.2713 104.057 44.7072 103.536 45.27 103.177C45.8371 102.813 46.4845 102.631 47.2124 102.631C47.953 102.631 48.6046 102.811 49.1675 103.17C49.7345 103.526 50.1704 104.044 50.4751 104.726C50.7798 105.403 50.9321 106.192 50.9321 107.093V107.677ZM49.7197 107.081C49.7197 105.985 49.4997 105.145 49.0596 104.561C48.6195 103.972 48.0037 103.678 47.2124 103.678C46.4422 103.678 45.835 103.972 45.3906 104.561C44.9505 105.145 44.7241 105.957 44.7114 106.998V107.677C44.7114 108.739 44.9336 109.575 45.3779 110.185C45.8265 110.79 46.4422 111.092 47.2251 111.092C48.0122 111.092 48.6216 110.807 49.0532 110.235C49.4849 109.66 49.707 108.837 49.7197 107.766V107.081ZM55.5913 105.525C56.4546 105.525 57.1444 105.815 57.6606 106.395C58.1811 106.971 58.4414 107.73 58.4414 108.674V108.782C58.4414 109.429 58.3166 110.009 58.0669 110.521C57.8172 111.029 57.4575 111.424 56.9878 111.708C56.5223 111.987 55.9849 112.127 55.3755 112.127C54.453 112.127 53.7103 111.82 53.1475 111.207C52.5846 110.589 52.3032 109.761 52.3032 108.725V108.153C52.3032 106.71 52.5698 105.563 53.103 104.713C53.6405 103.862 54.4318 103.344 55.477 103.158C56.0695 103.052 56.4694 102.923 56.6767 102.771C56.8841 102.618 56.9878 102.409 56.9878 102.142H57.9526C57.9526 102.671 57.832 103.084 57.5908 103.38C57.3538 103.676 56.973 103.886 56.4482 104.008L55.5723 104.205C54.874 104.37 54.3493 104.649 53.998 105.043C53.651 105.432 53.4246 105.953 53.3188 106.604C53.9409 105.885 54.6984 105.525 55.5913 105.525ZM55.3628 106.49C54.7873 106.49 54.3302 106.685 53.9917 107.074C53.6531 107.459 53.4839 107.995 53.4839 108.68V108.782C53.4839 109.518 53.6531 110.102 53.9917 110.534C54.3345 110.961 54.7957 111.175 55.3755 111.175C55.9595 111.175 56.4207 110.959 56.7593 110.527C57.0978 110.096 57.2671 109.465 57.2671 108.636C57.2671 107.988 57.0957 107.47 56.7529 107.081C56.4144 106.687 55.951 106.49 55.3628 106.49ZM60.8598 105.132V111.042H63.3735V105.132H64.5478V111.042H67.0552V105.132H68.2358V111.042H69.2007L69.0864 114.038H68.0327V112H59.6792V105.132H60.8598ZM74.6406 112C74.5729 111.865 74.5179 111.623 74.4756 111.276C73.9297 111.843 73.278 112.127 72.5205 112.127C71.8434 112.127 71.2869 111.937 70.8511 111.556C70.4194 111.171 70.2036 110.684 70.2036 110.096C70.2036 109.381 70.4744 108.826 71.0161 108.433C71.562 108.035 72.3279 107.836 73.3139 107.836H74.4565V107.296C74.4565 106.886 74.3338 106.56 74.0884 106.319C73.8429 106.073 73.4811 105.951 73.0029 105.951C72.584 105.951 72.2327 106.056 71.9492 106.268C71.6657 106.48 71.5239 106.736 71.5239 107.036H70.3432C70.3432 106.693 70.4638 106.363 70.7051 106.046C70.9505 105.724 71.2806 105.47 71.6953 105.284C72.1142 105.098 72.5734 105.005 73.0727 105.005C73.8641 105.005 74.484 105.204 74.9326 105.602C75.3812 105.995 75.6139 106.539 75.6308 107.233V110.394C75.6308 111.025 75.7112 111.526 75.872 111.898V112H74.6406ZM72.6919 111.105C73.06 111.105 73.4092 111.01 73.7392 110.819C74.0693 110.629 74.3084 110.381 74.4565 110.077V108.667H73.5361C72.0973 108.667 71.3779 109.089 71.3779 109.931C71.3779 110.299 71.5006 110.587 71.7461 110.794C71.9915 111.001 72.3068 111.105 72.6919 111.105ZM82.7212 105.132V112H81.5405V109.328H79.7695L78.1508 112H76.8813L78.6079 109.15C78.1678 108.989 77.8292 108.742 77.5923 108.407C77.3595 108.069 77.2431 107.675 77.2431 107.227C77.2431 106.6 77.478 106.097 77.9477 105.716C78.4174 105.331 79.0459 105.136 79.833 105.132H82.7212ZM78.4238 107.239C78.4238 107.574 78.5381 107.844 78.7666 108.052C78.9951 108.255 79.2977 108.359 79.6743 108.363H81.5405V106.084H79.852C79.4161 106.084 79.0691 106.192 78.811 106.408C78.5529 106.619 78.4238 106.896 78.4238 107.239Z" fill="#CEAC6A"/>
<rect x="109.375" y="101.248" width="13" height="13" rx="6.49999" stroke="#A5A5A5" stroke-opacity="0.5" stroke-width="1.625"/>
<path d="M138.879 107.785H137.889V112H136.67V107.785H135.623L133.007 112H131.484L134.594 107.125L131.725 102.758H133.166L135.623 106.77H136.67V102.758H137.889V106.77H138.892L141.348 102.758H142.783L139.914 107.119L143.024 112H141.507L138.879 107.785ZM148.451 105.132H149.625V112H148.451V106.992L145.284 112H144.109V105.132H145.284V110.146L148.451 105.132ZM157.141 105.132V112H155.96V106.103H153.624L153.485 108.674C153.409 109.854 153.21 110.699 152.888 111.207C152.571 111.714 152.065 111.979 151.371 112H150.901V110.965L151.238 110.94C151.619 110.898 151.892 110.678 152.057 110.28C152.222 109.882 152.327 109.146 152.374 108.071L152.501 105.132H157.141ZM163.267 112C163.199 111.865 163.144 111.623 163.102 111.276C162.556 111.843 161.904 112.127 161.146 112.127C160.469 112.127 159.913 111.937 159.477 111.556C159.045 111.171 158.83 110.684 158.83 110.096C158.83 109.381 159.1 108.826 159.642 108.433C160.188 108.035 160.954 107.836 161.94 107.836H163.082V107.296C163.082 106.886 162.96 106.56 162.714 106.319C162.469 106.073 162.107 105.951 161.629 105.951C161.21 105.951 160.859 106.056 160.575 106.268C160.292 106.48 160.15 106.736 160.15 107.036H158.969C158.969 106.693 159.09 106.363 159.331 106.046C159.576 105.724 159.907 105.47 160.321 105.284C160.74 105.098 161.199 105.005 161.699 105.005C162.49 105.005 163.11 105.204 163.559 105.602C164.007 105.995 164.24 106.539 164.257 107.233V110.394C164.257 111.025 164.337 111.526 164.498 111.898V112H163.267ZM161.318 111.105C161.686 111.105 162.035 111.01 162.365 110.819C162.695 110.629 162.934 110.381 163.082 110.077V108.667H162.162C160.723 108.667 160.004 109.089 160.004 109.931C160.004 110.299 160.127 110.587 160.372 110.794C160.617 111.001 160.933 111.105 161.318 111.105ZM171.347 105.132V112H170.166V109.328H168.395L166.777 112H165.507L167.234 109.15C166.794 108.989 166.455 108.742 166.218 108.407C165.985 108.069 165.869 107.675 165.869 107.227C165.869 106.6 166.104 106.097 166.574 105.716C167.043 105.331 167.672 105.136 168.459 105.132H171.347ZM167.05 107.239C167.05 107.574 167.164 107.844 167.393 108.052C167.621 108.255 167.924 108.359 168.3 108.363H170.166V106.084H168.478C168.042 106.084 167.695 106.192 167.437 106.408C167.179 106.619 167.05 106.896 167.05 107.239Z" fill="#A5A5A5"/>
<rect x="20.8125" y="191.437" width="258.375" height="47.125" rx="0.812499" stroke="#CEAC6A" stroke-width="1.625"/>
<path d="M64.7256 216.146H66.0078V217.104H64.7256V219.25H63.5449V217.104H59.3364V216.413L63.4751 210.008H64.7256V216.146ZM60.6694 216.146H63.5449V211.614L63.4053 211.868L60.6694 216.146ZM72.8633 215.308C72.8633 216.683 72.6284 217.705 72.1587 218.374C71.689 219.043 70.9547 219.377 69.956 219.377C68.97 219.377 68.2401 219.051 67.7661 218.399C67.2921 217.743 67.0467 216.766 67.0298 215.467V213.899C67.0298 212.541 67.2646 211.531 67.7344 210.871C68.2041 210.211 68.9404 209.881 69.9433 209.881C70.9378 209.881 71.6699 210.2 72.1396 210.839C72.6094 211.474 72.8506 212.456 72.8633 213.785V215.308ZM71.689 213.702C71.689 212.708 71.5493 211.984 71.27 211.531C70.9907 211.074 70.5485 210.846 69.9433 210.846C69.3424 210.846 68.9045 211.072 68.6294 211.525C68.3543 211.978 68.2126 212.674 68.2041 213.613V215.492C68.2041 216.491 68.348 217.229 68.6357 217.708C68.9277 218.181 69.3678 218.418 69.956 218.418C70.5358 218.418 70.9653 218.194 71.2446 217.746C71.5281 217.297 71.6763 216.59 71.689 215.625V213.702ZM84.2129 215.118H77.8525V214.159H84.2129V215.118ZM93.9565 210.001V210.998H93.7407C92.8266 211.015 92.0988 211.286 91.5571 211.811C91.0154 212.335 90.7023 213.074 90.6176 214.026C91.1043 213.467 91.7687 213.188 92.6108 213.188C93.4148 213.188 94.056 213.472 94.5341 214.039C95.0166 214.606 95.2578 215.338 95.2578 216.235C95.2578 217.187 94.9975 217.949 94.477 218.52C93.9607 219.091 93.2667 219.377 92.395 219.377C91.5106 219.377 90.7933 219.038 90.2431 218.361C89.693 217.68 89.4179 216.804 89.4179 215.733V215.283C89.4179 213.582 89.7798 212.282 90.5034 211.385C91.2313 210.484 92.3125 210.023 93.747 210.001H93.9565ZM92.414 214.166C92.012 214.166 91.6417 214.286 91.3032 214.527C90.9647 214.769 90.7298 215.071 90.5986 215.435V215.867C90.5986 216.628 90.77 217.242 91.1128 217.708C91.4555 218.173 91.8829 218.406 92.395 218.406C92.924 218.406 93.3387 218.211 93.6391 217.822C93.9438 217.432 94.0962 216.923 94.0962 216.292C94.0962 215.657 93.9417 215.145 93.6328 214.756C93.3281 214.362 92.9218 214.166 92.414 214.166ZM102.443 215.308C102.443 216.683 102.208 217.705 101.739 218.374C101.269 219.043 100.535 219.377 99.5361 219.377C98.5501 219.377 97.8201 219.051 97.3462 218.399C96.8722 217.743 96.6268 216.766 96.6098 215.467V213.899C96.6098 212.541 96.8447 211.531 97.3144 210.871C97.7841 210.211 98.5205 209.881 99.5234 209.881C100.518 209.881 101.25 210.2 101.72 210.839C102.189 211.474 102.431 212.456 102.443 213.785V215.308ZM101.269 213.702C101.269 212.708 101.129 211.984 100.85 211.531C100.571 211.074 100.129 210.846 99.5234 210.846C98.9225 210.846 98.4845 211.072 98.2094 211.525C97.9344 211.978 97.7926 212.674 97.7841 213.613V215.492C97.7841 216.491 97.928 217.229 98.2158 217.708C98.5078 218.181 98.9479 218.418 99.5361 218.418C100.116 218.418 100.545 218.194 100.825 217.746C101.108 217.297 101.256 216.59 101.269 215.625V213.702ZM108.397 212.382L108.429 213.144C108.933 212.551 109.612 212.255 110.467 212.255C111.427 212.255 112.081 212.623 112.428 213.359C112.657 213.029 112.953 212.763 113.317 212.56C113.685 212.356 114.119 212.255 114.618 212.255C116.125 212.255 116.891 213.053 116.916 214.648V219.25H115.742V214.718C115.742 214.227 115.63 213.861 115.405 213.62C115.181 213.374 114.804 213.251 114.275 213.251C113.839 213.251 113.478 213.383 113.19 213.645C112.902 213.903 112.735 214.252 112.688 214.692V219.25H111.508V214.75C111.508 213.751 111.019 213.251 110.041 213.251C109.271 213.251 108.744 213.579 108.461 214.235V219.25H107.287V212.382H108.397ZM122.14 215.016H118.338V214.331L120.242 212.541C120.703 212.109 120.934 211.747 120.934 211.455C120.934 211.248 120.866 211.081 120.731 210.954C120.595 210.822 120.401 210.757 120.147 210.757C119.83 210.757 119.595 210.837 119.442 210.998C119.294 211.159 119.22 211.36 119.22 211.601H118.224C118.224 211.119 118.399 210.721 118.75 210.408C119.106 210.095 119.563 209.938 120.122 209.938C120.68 209.938 121.122 210.073 121.448 210.344C121.774 210.611 121.937 210.977 121.937 211.442C121.937 211.882 121.711 212.329 121.258 212.782L120.725 213.283L119.607 214.204H122.14V215.016Z" fill="#CEAC6A"/>
<path d="M25.0535 34.5537H23.5523V40H21.3528V27.292H23.5523V32.6336H24.7655L28.5011 27.292H31.2068L26.8428 33.3754L31.5908 40H28.9375L25.0535 34.5537ZM39.144 40C39.0509 39.8196 38.9695 39.5258 38.8997 39.1185C38.2247 39.8225 37.3984 40.1746 36.4209 40.1746C35.4724 40.1746 34.6986 39.904 34.0992 39.3629C33.4999 38.8217 33.2003 38.1526 33.2003 37.3554C33.2003 36.3488 33.5727 35.5778 34.3174 35.0425C35.0681 34.5013 36.1387 34.2308 37.5294 34.2308H38.8298V33.6111C38.8298 33.1223 38.6931 32.7325 38.4196 32.4415C38.1461 32.1448 37.7301 31.9964 37.1715 31.9964C36.6886 31.9964 36.2929 32.1186 35.9845 32.363C35.6761 32.6015 35.5219 32.907 35.5219 33.2794H33.401C33.401 32.7616 33.5727 32.2786 33.916 31.8306C34.2593 31.3767 34.7247 31.0218 35.3124 30.7658C35.9059 30.5097 36.5664 30.3817 37.2937 30.3817C38.3992 30.3817 39.2808 30.661 39.9383 31.2196C40.5958 31.7724 40.9333 32.5521 40.9507 33.5587V37.818C40.9507 38.6675 41.07 39.3454 41.3086 39.8516V40H39.144ZM36.8137 38.4726C37.2326 38.4726 37.6254 38.3708 37.9919 38.1671C38.3643 37.9635 38.6436 37.69 38.8298 37.3467V35.5662H37.6865C36.9009 35.5662 36.3103 35.7029 35.9147 35.9764C35.519 36.2499 35.3212 36.6368 35.3212 37.1372C35.3212 37.5445 35.455 37.8704 35.7227 38.1147C35.9961 38.3533 36.3598 38.4726 36.8137 38.4726ZM47.4217 36.2644H46.3481V40H44.2272V30.5563H46.3481V34.3268H47.282L49.8917 30.5563H52.5101L49.0975 35.0774L52.7981 40H50.0401L47.4217 36.2644ZM60.4998 40C60.4067 39.8196 60.3252 39.5258 60.2554 39.1185C59.5804 39.8225 58.7541 40.1746 57.7766 40.1746C56.8282 40.1746 56.0543 39.904 55.455 39.3629C54.8556 38.8217 54.556 38.1526 54.556 37.3554C54.556 36.3488 54.9284 35.5778 55.6732 35.0425C56.4238 34.5013 57.4944 34.2308 58.8851 34.2308H60.1855V33.6111C60.1855 33.1223 60.0488 32.7325 59.7753 32.4415C59.5018 32.1448 59.0858 31.9964 58.5272 31.9964C58.0443 31.9964 57.6486 32.1186 57.3402 32.363C57.0318 32.6015 56.8776 32.907 56.8776 33.2794H54.7567C54.7567 32.7616 54.9284 32.2786 55.2717 31.8306C55.615 31.3767 56.0805 31.0218 56.6682 30.7658C57.2617 30.5097 57.9221 30.3817 58.6494 30.3817C59.755 30.3817 60.6365 30.661 61.294 31.2196C61.9515 31.7724 62.289 32.5521 62.3065 33.5587V37.818C62.3065 38.6675 62.4257 39.3454 62.6643 39.8516V40H60.4998ZM58.1694 38.4726C58.5883 38.4726 58.9811 38.3708 59.3477 38.1671C59.7201 37.9635 59.9993 37.69 60.1855 37.3467V35.5662H59.0422C58.2567 35.5662 57.6661 35.7029 57.2704 35.9764C56.8747 36.2499 56.6769 36.6368 56.6769 37.1372C56.6769 37.5445 56.8107 37.8704 57.0784 38.1147C57.3518 38.3533 57.7155 38.4726 58.1694 38.4726ZM72.9843 30.5563V40H70.8721V36.535H68.8909L66.8747 40H64.6752L66.9009 36.1859C66.319 35.9415 65.871 35.5924 65.5568 35.1385C65.2484 34.6846 65.0942 34.1639 65.0942 33.5762C65.0942 32.6976 65.4317 31.979 66.1066 31.4204C66.7874 30.8559 67.7039 30.5679 68.856 30.5563H72.9843ZM67.2151 33.6285C67.2151 34.0242 67.3606 34.3472 67.6515 34.5974C67.9482 34.8417 68.3265 34.9639 68.7861 34.9639H70.8721V32.2408H68.9171C68.3992 32.2408 67.9861 32.3717 67.6777 32.6336C67.3693 32.8954 67.2151 33.2271 67.2151 33.6285ZM89.5833 40H87.4623V32.267H83.7791V40H81.6582V30.5563H89.5833V40ZM101.003 35.3741C101.003 36.8346 100.671 38.0013 100.008 38.8741C99.3447 39.7411 98.4544 40.1746 97.3372 40.1746C96.3015 40.1746 95.4723 39.8342 94.8497 39.1534V43.6309H92.7288V30.5563H94.6839L94.7712 31.5164C95.3938 30.7599 96.2404 30.3817 97.311 30.3817C98.4631 30.3817 99.365 30.8123 100.017 31.6735C100.674 32.5288 101.003 33.7187 101.003 35.2432V35.3741ZM98.8908 35.1909C98.8908 34.2482 98.7017 33.5005 98.3235 32.9478C97.9511 32.395 97.4158 32.1186 96.7175 32.1186C95.8506 32.1186 95.228 32.4764 94.8497 33.1921V37.3816C95.2338 38.1147 95.8622 38.4813 96.735 38.4813C97.41 38.4813 97.9366 38.2108 98.3148 37.6696C98.6988 37.1227 98.8908 36.2964 98.8908 35.1909ZM109.595 30.5563H111.707V40H109.595V33.6984L105.894 40H103.782V30.5563H105.894V36.8579L109.595 30.5563ZM120.465 37.3903L123.258 30.5563H125.911V40H123.79V33.7507L121.189 40H119.749L117.139 33.7158V40H115.018V30.5563H117.689L120.465 37.3903ZM133.351 40.1746C132.007 40.1746 130.916 39.7527 130.078 38.909C129.246 38.0595 128.83 36.9306 128.83 35.5225V35.2607C128.83 34.3181 129.01 33.4773 129.371 32.7383C129.737 31.9935 130.249 31.4145 130.907 31.0014C131.564 30.5883 132.298 30.3817 133.106 30.3817C134.392 30.3817 135.384 30.7919 136.083 31.6124C136.787 32.4328 137.139 33.5936 137.139 35.0949V35.9502H130.968C131.032 36.7299 131.291 37.3467 131.745 37.8005C132.204 38.2544 132.781 38.4813 133.473 38.4813C134.445 38.4813 135.236 38.0886 135.847 37.303L136.99 38.394C136.612 38.9585 136.106 39.3978 135.472 39.712C134.843 40.0204 134.136 40.1746 133.351 40.1746ZM133.098 32.0837C132.516 32.0837 132.044 32.2873 131.684 32.6946C131.329 33.102 131.102 33.6693 131.003 34.3966H135.044V34.2395C134.997 33.5296 134.808 32.9943 134.477 32.6336C134.145 32.267 133.685 32.0837 133.098 32.0837ZM147.956 35.3741C147.956 36.8346 147.625 38.0013 146.961 38.8741C146.298 39.7411 145.408 40.1746 144.29 40.1746C143.255 40.1746 142.426 39.8342 141.803 39.1534V43.6309H139.682V30.5563H141.637L141.724 31.5164C142.347 30.7599 143.194 30.3817 144.264 30.3817C145.416 30.3817 146.318 30.8123 146.97 31.6735C147.627 32.5288 147.956 33.7187 147.956 35.2432V35.3741ZM145.844 35.1909C145.844 34.2482 145.655 33.5005 145.277 32.9478C144.904 32.395 144.369 32.1186 143.671 32.1186C142.804 32.1186 142.181 32.4764 141.803 33.1921V37.3816C142.187 38.1147 142.815 38.4813 143.688 38.4813C144.363 38.4813 144.89 38.2108 145.268 37.6696C145.652 37.1227 145.844 36.2964 145.844 35.1909ZM158.652 40H156.531V36.1859H152.856V40H150.735V30.5563H152.856V34.4926H156.531V30.5563H158.652V40ZM167.453 40C167.36 39.8196 167.278 39.5258 167.209 39.1185C166.534 39.8225 165.707 40.1746 164.73 40.1746C163.781 40.1746 163.007 39.904 162.408 39.3629C161.809 38.8217 161.509 38.1526 161.509 37.3554C161.509 36.3488 161.882 35.5778 162.626 35.0425C163.377 34.5013 164.448 34.2308 165.838 34.2308H167.139V33.6111C167.139 33.1223 167.002 32.7325 166.728 32.4415C166.455 32.1448 166.039 31.9964 165.48 31.9964C164.997 31.9964 164.602 32.1186 164.293 32.363C163.985 32.6015 163.831 32.907 163.831 33.2794H161.71C161.71 32.7616 161.882 32.2786 162.225 31.8306C162.568 31.3767 163.034 31.0218 163.621 30.7658C164.215 30.5097 164.875 30.3817 165.603 30.3817C166.708 30.3817 167.59 30.661 168.247 31.2196C168.905 31.7724 169.242 32.5521 169.26 33.5587V37.818C169.26 38.6675 169.379 39.3454 169.617 39.8516V40H167.453ZM165.123 38.4726C165.541 38.4726 165.934 38.3708 166.301 38.1671C166.673 37.9635 166.952 37.69 167.139 37.3467V35.5662H165.995C165.21 35.5662 164.619 35.7029 164.224 35.9764C163.828 36.2499 163.63 36.6368 163.63 37.1372C163.63 37.5445 163.764 37.8704 164.032 38.1147C164.305 38.3533 164.669 38.4726 165.123 38.4726ZM179.937 30.5563V40H177.825V36.535H175.844L173.828 40H171.628L173.854 36.1859C173.272 35.9415 172.824 35.5924 172.51 35.1385C172.202 34.6846 172.047 34.1639 172.047 33.5762C172.047 32.6976 172.385 31.979 173.06 31.4204C173.741 30.8559 174.657 30.5679 175.809 30.5563H179.937ZM174.168 33.6285C174.168 34.0242 174.314 34.3472 174.605 34.5974C174.901 34.8417 175.28 34.9639 175.739 34.9639H177.825V32.2408H175.87C175.352 32.2408 174.939 32.3717 174.631 32.6336C174.322 32.8954 174.168 33.2271 174.168 33.6285ZM196.536 40H194.415V32.267H190.732V40H188.611V30.5563H196.536V40ZM207.712 30.5563V40H205.591V32.267H202.92L202.746 35.5574C202.635 37.1401 202.329 38.2777 201.829 38.9701C201.334 39.6567 200.575 40 199.551 40H198.896L198.888 38.2369L199.324 38.1933C199.79 38.1293 200.127 37.8471 200.337 37.3467C200.552 36.8405 200.689 35.9211 200.747 34.5886L200.921 30.5563H207.712ZM210.465 35.1909C210.465 34.2657 210.648 33.4336 211.014 32.6946C211.381 31.9499 211.896 31.3796 212.559 30.984C213.223 30.5825 213.985 30.3817 214.846 30.3817C216.12 30.3817 217.153 30.7919 217.944 31.6124C218.742 32.4328 219.172 33.5209 219.236 34.8767L219.245 35.3741C219.245 36.3051 219.065 37.1372 218.704 37.8704C218.349 38.6035 217.837 39.1708 217.168 39.5723C216.504 39.9738 215.736 40.1746 214.863 40.1746C213.531 40.1746 212.463 39.7323 211.66 38.8479C210.863 37.9576 210.465 36.7735 210.465 35.2956V35.1909ZM212.585 35.3741C212.585 36.3459 212.786 37.1081 213.188 37.6609C213.589 38.2078 214.148 38.4813 214.863 38.4813C215.579 38.4813 216.135 38.202 216.531 37.6434C216.932 37.0848 217.133 36.2673 217.133 35.1909C217.133 34.2366 216.926 33.4802 216.513 32.9216C216.106 32.363 215.55 32.0837 214.846 32.0837C214.154 32.0837 213.604 32.3601 213.196 32.9128C212.789 33.4598 212.585 34.2802 212.585 35.3741ZM224.066 30.5563V38.3068H227.016V30.5563H229.137V38.3068H232.096V30.5563H234.208V38.3068H235.823L235.648 42.8017H233.72V40H221.945V30.5563H224.066ZM243.935 40C243.842 39.8196 243.76 39.5258 243.69 39.1185C243.015 39.8225 242.189 40.1746 241.212 40.1746C240.263 40.1746 239.489 39.904 238.89 39.3629C238.291 38.8217 237.991 38.1526 237.991 37.3554C237.991 36.3488 238.363 35.5778 239.108 35.0425C239.859 34.5013 240.929 34.2308 242.32 34.2308H243.621V33.6111C243.621 33.1223 243.484 32.7325 243.21 32.4415C242.937 32.1448 242.521 31.9964 241.962 31.9964C241.479 31.9964 241.084 32.1186 240.775 32.363C240.467 32.6015 240.313 32.907 240.313 33.2794H238.192C238.192 32.7616 238.363 32.2786 238.707 31.8306C239.05 31.3767 239.515 31.0218 240.103 30.7658C240.697 30.5097 241.357 30.3817 242.084 30.3817C243.19 30.3817 244.072 30.661 244.729 31.2196C245.387 31.7724 245.724 32.5521 245.741 33.5587V37.818C245.741 38.6675 245.861 39.3454 246.099 39.8516V40H243.935ZM241.604 38.4726C242.023 38.4726 242.416 38.3708 242.783 38.1671C243.155 37.9635 243.434 37.69 243.621 37.3467V35.5662H242.477C241.692 35.5662 241.101 35.7029 240.705 35.9764C240.31 36.2499 240.112 36.6368 240.112 37.1372C240.112 37.5445 240.246 37.8704 240.513 38.1147C240.787 38.3533 241.151 38.4726 241.604 38.4726ZM248.896 38.3068C249.483 37.6493 249.876 37.0267 250.074 36.439C250.278 35.8455 250.4 35.089 250.441 34.1697L250.563 30.5563H257.118V38.3068H258.427V42.8104H256.315V40H250.257V42.8104H248.11L248.119 38.3068H248.896ZM251.383 38.3068H255.005V32.3804H252.623L252.562 34.1871C252.48 35.9211 252.087 37.2943 251.383 38.3068ZM262.96 33.5587H265.037C265.811 33.5587 266.486 33.6926 267.062 33.9602C267.638 34.2279 268.075 34.6032 268.371 35.0861C268.674 35.5691 268.825 36.1306 268.825 36.7706C268.825 37.7424 268.482 38.5221 267.795 39.1097C267.109 39.6974 266.195 39.9942 265.055 40H260.839V30.5563H262.96V33.5587ZM262.96 35.2607V38.3068H265.029C265.547 38.3068 265.954 38.1788 266.251 37.9227C266.553 37.6609 266.704 37.2914 266.704 36.8143C266.704 36.3371 266.556 35.9618 266.259 35.6884C265.968 35.4091 265.573 35.2665 265.072 35.2607H262.96ZM29.0859 67H26.965V63.1859H23.2905V67H21.1696V57.5563H23.2905V61.4926H26.965V57.5563H29.0859V67ZM36.4034 67.1746C35.0593 67.1746 33.9683 66.7527 33.1304 65.909C32.2984 65.0595 31.8823 63.9306 31.8823 62.5225V62.2607C31.8823 61.3181 32.0627 60.4773 32.4235 59.7383C32.79 58.9935 33.3021 58.4145 33.9596 58.0014C34.6171 57.5883 35.3503 57.3817 36.1591 57.3817C37.445 57.3817 38.4371 57.7919 39.1353 58.6124C39.8394 59.4328 40.1914 60.5936 40.1914 62.0949V62.9502H34.0207C34.0847 63.7299 34.3436 64.3467 34.7975 64.8005C35.2572 65.2544 35.8332 65.4813 36.5256 65.4813C37.4974 65.4813 38.2887 65.0886 38.8997 64.303L40.043 65.394C39.6648 65.9585 39.1586 66.3978 38.5243 66.712C37.8959 67.0204 37.189 67.1746 36.4034 67.1746ZM36.1503 59.0837C35.5685 59.0837 35.0971 59.2873 34.7364 59.6946C34.3814 60.102 34.1545 60.6693 34.0556 61.3966H38.0967V61.2395C38.0501 60.5296 37.861 59.9943 37.5294 59.6336C37.1977 59.267 36.738 59.0837 36.1503 59.0837ZM42.7784 65.3068C43.3661 64.6493 43.7588 64.0267 43.9567 63.439C44.1603 62.8455 44.2825 62.089 44.3232 61.1697L44.4454 57.5563H51.0002V65.3068H52.3094V69.8104H50.1972V67H44.14V69.8104H41.9929L42.0016 65.3068H42.7784ZM45.2659 65.3068H48.888V59.3804H46.5052L46.4442 61.1871C46.3627 62.9211 45.9699 64.2943 45.2659 65.3068ZM54.8789 67V57.5563H58.7105C60.0023 57.5563 60.9856 57.7832 61.6606 58.2371C62.3355 58.6851 62.673 59.331 62.673 60.1747C62.673 60.6111 62.5363 61.0039 62.2628 61.353C61.9952 61.6963 61.5966 61.961 61.0671 62.1472C61.6839 62.2752 62.1726 62.5342 62.5334 62.924C62.8941 63.3139 63.0745 63.7735 63.0745 64.303C63.0745 65.1817 62.7487 65.8508 62.097 66.3105C61.4511 66.7702 60.5201 67 59.304 67H54.8789ZM56.9998 62.9764V65.3242H59.3215C60.4096 65.3242 60.9536 64.9344 60.9536 64.1547C60.9536 63.3691 60.4008 62.9764 59.2953 62.9764H56.9998ZM56.9998 61.4577H58.7454C59.9499 61.4577 60.5521 61.1028 60.5521 60.3929C60.5521 59.6481 59.9819 59.2641 58.8414 59.2408H56.9998V61.4577ZM71.7013 57.5563H73.8135V67H71.7013V60.6984L68.0006 67H65.8884V57.5563H68.0006V63.8579L71.7013 57.5563ZM85.2769 63.2033H84.1509V67H82.03V63.2033H80.9128L78.7396 67H76.1386L79.272 62.0861L76.3045 57.5563H78.8967L81.035 61.2657H82.03V57.5563H84.1509V61.2657H85.1547L87.3018 57.5563H89.894L86.9352 62.0599L90.086 67H87.4501L85.2769 63.2033ZM98.1891 57.5563H100.301V67H98.1891V60.6984L94.4884 67H92.3762V57.5563H94.4884V63.8579L98.1891 57.5563ZM109.059 64.3903L111.852 57.5563H114.505V67H112.384V60.7507L109.783 67H108.343L105.734 60.7158V67H103.613V57.5563H106.283L109.059 64.3903ZM117.389 62.1909C117.389 61.2657 117.572 60.4336 117.939 59.6946C118.305 58.9499 118.82 58.3796 119.484 57.984C120.147 57.5825 120.909 57.3817 121.77 57.3817C123.045 57.3817 124.078 57.7919 124.869 58.6124C125.666 59.4328 126.097 60.5209 126.161 61.8767L126.169 62.3741C126.169 63.3051 125.989 64.1372 125.628 64.8704C125.273 65.6035 124.761 66.1708 124.092 66.5723C123.429 66.9738 122.661 67.1746 121.788 67.1746C120.455 67.1746 119.388 66.7323 118.585 65.8479C117.788 64.9576 117.389 63.7735 117.389 62.2956V62.1909ZM119.51 62.3741C119.51 63.3459 119.711 64.1081 120.112 64.6609C120.514 65.2078 121.072 65.4813 121.788 65.4813C122.504 65.4813 123.059 65.202 123.455 64.6434C123.856 64.0848 124.057 63.2673 124.057 62.1909C124.057 61.2366 123.851 60.4802 123.438 59.9216C123.03 59.363 122.475 59.0837 121.77 59.0837C121.078 59.0837 120.528 59.3601 120.121 59.9128C119.714 60.4598 119.51 61.2802 119.51 62.3741ZM132.736 65.4813C133.266 65.4813 133.705 65.3271 134.054 65.0187C134.403 64.7103 134.59 64.3292 134.613 63.8754H136.612C136.588 64.4631 136.405 65.0129 136.062 65.525C135.718 66.0312 135.253 66.4327 134.665 66.7294C134.078 67.0262 133.443 67.1746 132.763 67.1746C131.442 67.1746 130.394 66.7469 129.62 65.8915C128.847 65.0362 128.46 63.855 128.46 62.348V62.1298C128.46 60.6926 128.844 59.5434 129.612 58.6822C130.38 57.8152 131.427 57.3817 132.754 57.3817C133.877 57.3817 134.79 57.7105 135.494 58.368C136.204 59.0197 136.577 59.8779 136.612 60.9428H134.613C134.59 60.4016 134.403 59.9565 134.054 59.6074C133.711 59.2582 133.272 59.0837 132.736 59.0837C132.05 59.0837 131.52 59.3339 131.148 59.8343C130.775 60.3289 130.586 61.0824 130.581 62.0949V62.4352C130.581 63.4593 130.764 64.2245 131.13 64.7307C131.503 65.2311 132.038 65.4813 132.736 65.4813ZM146.539 59.2408H143.475V67H141.354V59.2408H138.326V57.5563H146.539V59.2408ZM154.747 57.5563H156.859V67H154.747V60.6984L151.046 67H148.934V57.5563H151.046V63.8579L154.747 57.5563ZM161.977 63.2644C161.977 62.4905 162.073 61.8737 162.265 61.4141C162.457 60.9544 162.835 60.4511 163.4 59.9041C163.97 59.3513 164.331 58.9586 164.482 58.7258C164.715 58.3709 164.831 57.9869 164.831 57.5737C164.831 57.0268 164.694 56.6107 164.421 56.3256C164.153 56.0347 163.757 55.8892 163.234 55.8892C162.733 55.8892 162.329 56.0318 162.021 56.3169C161.718 56.5962 161.567 56.9773 161.567 57.4603H159.446C159.457 56.4304 159.807 55.6158 160.493 55.0164C161.186 54.4171 162.099 54.1174 163.234 54.1174C164.403 54.1174 165.314 54.4142 165.966 55.0077C166.623 55.6012 166.952 56.4304 166.952 57.4952C166.952 58.4436 166.51 59.3775 165.625 60.2969L164.552 61.353C164.168 61.7894 163.97 62.4265 163.958 63.2644H161.977ZM161.829 65.9788C161.829 65.6355 161.936 65.3591 162.152 65.1497C162.367 64.9344 162.658 64.8267 163.024 64.8267C163.397 64.8267 163.691 64.9373 163.906 65.1584C164.121 65.3737 164.229 65.6472 164.229 65.9788C164.229 66.2988 164.124 66.5665 163.915 66.7818C163.705 66.9971 163.408 67.1047 163.024 67.1047C162.64 67.1047 162.344 66.9971 162.134 66.7818C161.93 66.5665 161.829 66.2988 161.829 65.9788Z" fill="#CEAC6A"/>
<rect x="50.875" y="222.312" width="14.625" height="14.625" rx="7.31249" transform="rotate(-180 50.875 222.312)" fill="#CEAC6A"/>
<rect x="30.5625" y="111" width="6.49999" height="6.49999" rx="3.25" transform="rotate(-180 30.5625 111)" fill="#CEAC6A"/>
<path d="M42.2307 219.6C42.1221 219.709 41.974 219.77 41.8201 219.77C41.6662 219.77 41.5181 219.709 41.4095 219.6L38.1302 216.32C37.7899 215.98 37.7899 215.428 38.1302 215.088L38.5408 214.678C38.8813 214.337 39.4325 214.337 39.7728 214.678L41.8201 216.725L47.3522 211.193C47.6926 210.852 48.2443 210.852 48.5841 211.193L48.9947 211.603C49.335 211.944 49.335 212.495 48.9947 212.835L42.2307 219.6Z" fill="#353535"/>
<rect x="73.625" y="475" width="53.625" height="48.75" rx="4.0625" transform="rotate(-180 73.625 475)" fill="#403F3F"/>
<path d="M56.5891 451.419L39.7456 451.419L43.2499 454.958C43.5569 455.268 43.5569 455.77 43.2499 456.08C42.9429 456.39 42.4452 456.39 42.1387 456.08L37.2928 451.186C36.9858 450.876 36.9858 450.374 37.2928 450.064L42.1387 445.17C42.2921 445.015 42.4932 444.938 42.6943 444.938C42.8954 444.938 43.0965 445.015 43.2499 445.17C43.5569 445.48 43.5569 445.982 43.2499 446.292L39.7456 449.831L56.5891 449.831C57.023 449.831 57.375 450.187 57.375 450.625C57.375 451.063 57.0231 451.419 56.5891 451.419Z" fill="#CEAC6A"/>
<rect x="81.75" y="426.25" width="198.25" height="48.75" rx="4.0625" fill="#CEAC6A"/>
<path d="M137.195 455.51H137.572C137.893 455.337 138.166 455.064 138.391 454.691C138.616 454.31 138.811 453.725 138.976 452.936C139.141 452.147 139.262 451.086 139.34 449.751L139.574 446.345H144.228V455.51H145.333V458.968H143.994L143.877 456.875H138.69L138.56 458.968H137.195V455.51ZM142.408 455.51V447.723H141.082L140.965 450.05C140.904 451.359 140.796 452.373 140.64 453.092C140.493 453.811 140.324 454.323 140.133 454.626C139.942 454.929 139.687 455.224 139.366 455.51H142.408ZM150.041 446.345H152.095L154.201 456.875H152.42L152.004 454.444H150.171L149.742 456.875H147.935L150.041 446.345ZM151.796 453.222L151.081 448.802L150.366 453.222H151.796ZM156.612 455.497C157.054 455.506 157.37 455.436 157.561 455.289C157.76 455.133 157.912 454.786 158.016 454.249C158.12 453.712 158.219 452.789 158.315 451.48L158.653 446.345H163.775V456.875H161.864V447.788H160.343L160.122 451.714C160.035 453.118 159.918 454.162 159.771 454.847C159.623 455.523 159.346 456.034 158.939 456.381C158.54 456.719 157.92 456.888 157.08 456.888C156.88 456.888 156.724 456.884 156.612 456.875V455.497ZM167.481 446.345H171.901V447.697H169.392V450.726H171.368V452.065H169.392V455.562H171.927V456.875H167.481V446.345ZM175.122 446.345H179.542V447.697H177.033V450.726H179.009V452.065H177.033V455.562H179.568V456.875H175.122V446.345Z" fill="#4F4F4F"/>
<path d="M205.223 449.831L222.067 449.831L218.563 446.292C218.256 445.982 218.256 445.48 218.563 445.17C218.87 444.86 219.367 444.86 219.674 445.17L224.52 450.064C224.827 450.374 224.827 450.876 224.52 451.186L219.674 456.08C219.52 456.235 219.319 456.312 219.118 456.312C218.917 456.312 218.716 456.235 218.563 456.08C218.256 455.77 218.256 455.268 218.563 454.958L222.067 451.419L205.223 451.419C204.789 451.419 204.438 451.063 204.438 450.625C204.438 450.187 204.789 449.831 205.223 449.831Z" fill="#4F4F4F"/>
</svg>
