<svg width="300" height="530" viewBox="0 0 300 530" fill="none" xmlns="http://www.w3.org/2000/svg">
<rect x="0.5" y="0.5" width="299" height="529" rx="4.5" fill="#353535" stroke="#4F4F4F"/>
<rect x="37.0625" y="115.875" width="13" height="13" rx="6.5" stroke="#A5A5A5" stroke-opacity="0.5" stroke-width="1.625"/>
<rect x="20.4062" y="98.4062" width="259.188" height="47.9375" rx="1.21875" stroke="#A5A5A5" stroke-opacity="0.5" stroke-width="0.8125"/>
<path d="M68.3882 128.891H67.1758V126.625H60.5425V128.897H59.3237L59.3174 125.628H60.0728C60.4705 125.18 60.7858 124.579 61.0186 123.826C61.2555 123.068 61.4036 122.239 61.4629 121.337L61.666 117.383H67.1948V125.628H68.4009L68.3882 128.891ZM61.4629 125.628H65.9697V118.386H62.8403L62.707 121.103C62.652 122.165 62.5103 123.07 62.2817 123.819C62.0575 124.568 61.7845 125.171 61.4629 125.628ZM69.353 123.127C69.353 122.455 69.4842 121.849 69.7466 121.312C70.0132 120.775 70.3813 120.36 70.8511 120.068C71.325 119.776 71.8646 119.63 72.4697 119.63C73.4049 119.63 74.1603 119.954 74.7358 120.601C75.3156 121.249 75.6055 122.11 75.6055 123.185V123.267C75.6055 123.936 75.4764 124.537 75.2183 125.07C74.9643 125.599 74.5983 126.011 74.1201 126.308C73.6462 126.604 73.1003 126.752 72.4824 126.752C71.5514 126.752 70.7961 126.428 70.2163 125.781C69.6408 125.133 69.353 124.276 69.353 123.21V123.127ZM70.5337 123.267C70.5337 124.029 70.7093 124.64 71.0605 125.102C71.416 125.563 71.89 125.793 72.4824 125.793C73.0791 125.793 73.5531 125.561 73.9043 125.095C74.2555 124.625 74.4311 123.97 74.4311 123.127C74.4311 122.374 74.2513 121.765 73.8916 121.299C73.5361 120.83 73.0622 120.595 72.4697 120.595C71.89 120.595 71.4224 120.825 71.0669 121.287C70.7114 121.748 70.5337 122.408 70.5337 123.267ZM85.1396 123.521H86.4219V124.479H85.1396V126.625H83.959V124.479H79.7505V123.788L83.8891 117.383H85.1396V123.521ZM81.0835 123.521H83.959V118.989L83.8193 119.243L81.0835 123.521ZM93.2773 122.683C93.2773 124.058 93.0425 125.08 92.5727 125.749C92.103 126.418 91.3688 126.752 90.3701 126.752C89.3841 126.752 88.6541 126.426 88.1802 125.774C87.7062 125.118 87.4608 124.141 87.4438 122.842V121.274C87.4438 119.916 87.6787 118.906 88.1484 118.246C88.6181 117.586 89.3545 117.256 90.3574 117.256C91.3519 117.256 92.084 117.575 92.5537 118.214C93.0234 118.849 93.2646 119.831 93.2773 121.16V122.683ZM92.103 121.077C92.103 120.083 91.9634 119.359 91.6841 118.906C91.4048 118.449 90.9625 118.221 90.3574 118.221C89.7565 118.221 89.3185 118.447 89.0434 118.9C88.7684 119.353 88.6266 120.049 88.6181 120.988V122.867C88.6181 123.866 88.762 124.604 89.0498 125.083C89.3418 125.556 89.7819 125.793 90.3701 125.793C90.9499 125.793 91.3794 125.569 91.6587 125.121C91.9422 124.672 92.0903 123.965 92.103 123V121.077ZM103.802 122.683C103.802 124.058 103.567 125.08 103.097 125.749C102.627 126.418 101.893 126.752 100.895 126.752C99.9085 126.752 99.1785 126.426 98.7046 125.774C98.2306 125.118 97.9852 124.141 97.9682 122.842V121.274C97.9682 119.916 98.2031 118.906 98.6728 118.246C99.1426 117.586 99.8789 117.256 100.882 117.256C101.876 117.256 102.608 117.575 103.078 118.214C103.548 118.849 103.789 119.831 103.802 121.16V122.683ZM102.627 121.077C102.627 120.083 102.488 119.359 102.208 118.906C101.929 118.449 101.487 118.221 100.882 118.221C100.281 118.221 99.8429 118.447 99.5679 118.9C99.2928 119.353 99.151 120.049 99.1426 120.988V122.867C99.1426 123.866 99.2864 124.604 99.5742 125.083C99.8662 125.556 100.306 125.793 100.895 125.793C101.474 125.793 101.904 125.569 102.183 125.121C102.467 124.672 102.615 123.965 102.627 123V121.077ZM111.102 122.683C111.102 124.058 110.867 125.08 110.397 125.749C109.927 126.418 109.193 126.752 108.194 126.752C107.208 126.752 106.478 126.426 106.004 125.774C105.53 125.118 105.285 124.141 105.268 122.842V121.274C105.268 119.916 105.503 118.906 105.973 118.246C106.442 117.586 107.179 117.256 108.182 117.256C109.176 117.256 109.908 117.575 110.378 118.214C110.848 118.849 111.089 119.831 111.102 121.16V122.683ZM109.927 121.077C109.927 120.083 109.788 119.359 109.508 118.906C109.229 118.449 108.787 118.221 108.182 118.221C107.581 118.221 107.143 118.447 106.868 118.9C106.593 119.353 106.451 120.049 106.442 120.988V122.867C106.442 123.866 106.586 124.604 106.874 125.083C107.166 125.556 107.606 125.793 108.194 125.793C108.774 125.793 109.204 125.569 109.483 125.121C109.766 124.672 109.915 123.965 109.927 123V121.077ZM118.401 122.683C118.401 124.058 118.166 125.08 117.697 125.749C117.227 126.418 116.493 126.752 115.494 126.752C114.508 126.752 113.778 126.426 113.304 125.774C112.83 125.118 112.585 124.141 112.568 122.842V121.274C112.568 119.916 112.803 118.906 113.272 118.246C113.742 117.586 114.478 117.256 115.481 117.256C116.476 117.256 117.208 117.575 117.678 118.214C118.147 118.849 118.389 119.831 118.401 121.16V122.683ZM117.227 121.077C117.227 120.083 117.087 119.359 116.808 118.906C116.529 118.449 116.087 118.221 115.481 118.221C114.881 118.221 114.443 118.447 114.167 118.9C113.892 119.353 113.751 120.049 113.742 120.988V122.867C113.742 123.866 113.886 124.604 114.174 125.083C114.466 125.556 114.906 125.793 115.494 125.793C116.074 125.793 116.503 125.569 116.783 125.121C117.066 124.672 117.214 123.965 117.227 123V121.077ZM127.751 123.191H125.314C125.331 124.016 125.53 124.651 125.911 125.095C126.291 125.54 126.831 125.762 127.529 125.762C128.02 125.762 128.481 125.69 128.913 125.546L129.04 126.562C128.532 126.688 128.024 126.752 127.517 126.752C126.467 126.752 125.64 126.443 125.035 125.825C124.434 125.203 124.121 124.325 124.095 123.191H122.965V122.404H124.095V121.534H122.965V120.741H124.095C124.137 119.632 124.459 118.775 125.06 118.17C125.665 117.561 126.482 117.256 127.51 117.256C127.959 117.256 128.469 117.321 129.04 117.453L128.913 118.481C128.452 118.333 127.988 118.259 127.523 118.259C126.829 118.259 126.294 118.475 125.917 118.906C125.545 119.334 125.346 119.945 125.32 120.741H127.751V121.534H125.314V122.404H127.751V123.191Z" fill="#A5A5A5"/>
<rect x="37.0625" y="229.625" width="13" height="13" rx="6.5" stroke="#A5A5A5" stroke-opacity="0.5" stroke-width="1.625"/>
<rect x="20.4062" y="212.156" width="259.188" height="47.9375" rx="1.21875" stroke="#A5A5A5" stroke-opacity="0.5" stroke-width="0.8125"/>
<path d="M64.3765 231.126V232.123H64.1606C63.2466 232.14 62.5187 232.411 61.977 232.936C61.4354 233.46 61.1222 234.199 61.0376 235.151C61.5243 234.592 62.1886 234.313 63.0308 234.313C63.8348 234.313 64.4759 234.597 64.9541 235.164C65.4365 235.731 65.6777 236.463 65.6777 237.36C65.6777 238.312 65.4175 239.074 64.897 239.645C64.3807 240.216 63.6867 240.502 62.8149 240.502C61.9305 240.502 61.2132 240.163 60.6631 239.486C60.113 238.805 59.8379 237.929 59.8379 236.858V236.408C59.8379 234.707 60.1997 233.407 60.9233 232.51C61.6512 231.609 62.7324 231.148 64.167 231.126H64.3765ZM62.834 235.291C62.432 235.291 62.0617 235.411 61.7231 235.652C61.3846 235.894 61.1497 236.196 61.0186 236.56V236.992C61.0186 237.753 61.1899 238.367 61.5327 238.833C61.8755 239.298 62.3029 239.531 62.8149 239.531C63.3439 239.531 63.7586 239.336 64.0591 238.947C64.3638 238.557 64.5161 238.048 64.5161 237.417C64.5161 236.782 64.3617 236.27 64.0527 235.881C63.748 235.487 63.3418 235.291 62.834 235.291ZM72.8633 236.433C72.8633 237.808 72.6284 238.83 72.1587 239.499C71.689 240.168 70.9547 240.502 69.956 240.502C68.97 240.502 68.2401 240.176 67.7661 239.524C67.2922 238.868 67.0467 237.891 67.0298 236.592V235.024C67.0298 233.666 67.2646 232.656 67.7344 231.996C68.2041 231.336 68.9404 231.006 69.9434 231.006C70.9378 231.006 71.6699 231.325 72.1396 231.964C72.6094 232.599 72.8506 233.581 72.8633 234.91V236.433ZM71.689 234.827C71.689 233.833 71.5493 233.109 71.27 232.656C70.9907 232.199 70.5485 231.971 69.9434 231.971C69.3424 231.971 68.9045 232.197 68.6294 232.65C68.3543 233.103 68.2126 233.799 68.2041 234.738V236.617C68.2041 237.616 68.348 238.354 68.6357 238.833C68.9277 239.306 69.3678 239.543 69.956 239.543C70.5358 239.543 70.9653 239.319 71.2446 238.871C71.5282 238.422 71.6763 237.715 71.689 236.75V234.827ZM83.3877 236.433C83.3877 237.808 83.1528 238.83 82.6831 239.499C82.2134 240.168 81.4792 240.502 80.4805 240.502C79.4945 240.502 78.7645 240.176 78.2905 239.524C77.8166 238.868 77.5711 237.891 77.5542 236.592V235.024C77.5542 233.666 77.7891 232.656 78.2588 231.996C78.7285 231.336 79.4648 231.006 80.4678 231.006C81.4622 231.006 82.1943 231.325 82.664 231.964C83.1338 232.599 83.375 233.581 83.3877 234.91V236.433ZM82.2134 234.827C82.2134 233.833 82.0737 233.109 81.7944 232.656C81.5151 232.199 81.0729 231.971 80.4678 231.971C79.8669 231.971 79.4289 232.197 79.1538 232.65C78.8787 233.103 78.737 233.799 78.7285 234.738V236.617C78.7285 237.616 78.8724 238.354 79.1601 238.833C79.4521 239.306 79.8922 239.543 80.4805 239.543C81.0602 239.543 81.4897 239.319 81.769 238.871C82.0526 238.422 82.2007 237.715 82.2134 236.75V234.827ZM90.6875 236.433C90.6875 237.808 90.4526 238.83 89.9829 239.499C89.5132 240.168 88.779 240.502 87.7803 240.502C86.7943 240.502 86.0643 240.176 85.5903 239.524C85.1164 238.868 84.8709 237.891 84.854 236.592V235.024C84.854 233.666 85.0889 232.656 85.5586 231.996C86.0283 231.336 86.7646 231.006 87.7676 231.006C88.762 231.006 89.4941 231.325 89.9639 231.964C90.4336 232.599 90.6748 233.581 90.6875 234.91V236.433ZM89.5132 234.827C89.5132 233.833 89.3735 233.109 89.0942 232.656C88.8149 232.199 88.3727 231.971 87.7676 231.971C87.1667 231.971 86.7287 232.197 86.4536 232.65C86.1785 233.103 86.0368 233.799 86.0283 234.738V236.617C86.0283 237.616 86.1722 238.354 86.4599 238.833C86.7519 239.306 87.192 239.543 87.7803 239.543C88.36 239.543 88.7895 239.319 89.0688 238.871C89.3524 238.422 89.5005 237.715 89.5132 236.75V234.827ZM97.9873 236.433C97.9873 237.808 97.7524 238.83 97.2827 239.499C96.813 240.168 96.0788 240.502 95.0801 240.502C94.0941 240.502 93.3641 240.176 92.8901 239.524C92.4162 238.868 92.1707 237.891 92.1538 236.592V235.024C92.1538 233.666 92.3887 232.656 92.8584 231.996C93.3281 231.336 94.0644 231.006 95.0674 231.006C96.0618 231.006 96.7939 231.325 97.2637 231.964C97.7334 232.599 97.9746 233.581 97.9873 234.91V236.433ZM96.813 234.827C96.813 233.833 96.6733 233.109 96.394 232.656C96.1147 232.199 95.6725 231.971 95.0674 231.971C94.4665 231.971 94.0285 232.197 93.7534 232.65C93.4783 233.103 93.3366 233.799 93.3281 234.738V236.617C93.3281 237.616 93.472 238.354 93.7597 238.833C94.0517 239.306 94.4918 239.543 95.0801 239.543C95.6598 239.543 96.0893 239.319 96.3686 238.871C96.6522 238.422 96.8003 237.715 96.813 236.75V234.827ZM107.337 236.941H104.9C104.917 237.766 105.116 238.401 105.497 238.845C105.877 239.29 106.417 239.512 107.115 239.512C107.606 239.512 108.067 239.44 108.499 239.296L108.626 240.312C108.118 240.438 107.61 240.502 107.103 240.502C106.053 240.502 105.226 240.193 104.621 239.575C104.02 238.953 103.707 238.075 103.681 236.941H102.551V236.154H103.681V235.284H102.551V234.491H103.681C103.723 233.382 104.045 232.525 104.646 231.92C105.251 231.311 106.068 231.006 107.096 231.006C107.545 231.006 108.055 231.071 108.626 231.203L108.499 232.231C108.038 232.083 107.574 232.009 107.109 232.009C106.415 232.009 105.88 232.225 105.503 232.656C105.131 233.084 104.932 233.695 104.906 234.491H107.337V235.284H104.9V236.154H107.337V236.941ZM119.861 236.243H113.501V235.284H119.861V236.243ZM128.856 240.375H127.675V232.548L125.308 233.418V232.352L128.672 231.088H128.856V240.375ZM138.092 236.433C138.092 237.808 137.857 238.83 137.387 239.499C136.917 240.168 136.183 240.502 135.185 240.502C134.199 240.502 133.469 240.176 132.995 239.524C132.521 238.868 132.275 237.891 132.258 236.592V235.024C132.258 233.666 132.493 232.656 132.963 231.996C133.433 231.336 134.169 231.006 135.172 231.006C136.166 231.006 136.898 231.325 137.368 231.964C137.838 232.599 138.079 233.581 138.092 234.91V236.433ZM136.917 234.827C136.917 233.833 136.778 233.109 136.498 232.656C136.219 232.199 135.777 231.971 135.172 231.971C134.571 231.971 134.133 232.197 133.858 232.65C133.583 233.103 133.441 233.799 133.433 234.738V236.617C133.433 237.616 133.576 238.354 133.864 238.833C134.156 239.306 134.596 239.543 135.185 239.543C135.764 239.543 136.194 239.319 136.473 238.871C136.757 238.422 136.905 237.715 136.917 236.75V234.827ZM145.392 236.433C145.392 237.808 145.157 238.83 144.687 239.499C144.217 240.168 143.483 240.502 142.484 240.502C141.498 240.502 140.768 240.176 140.294 239.524C139.82 238.868 139.575 237.891 139.558 236.592V235.024C139.558 233.666 139.793 232.656 140.263 231.996C140.732 231.336 141.469 231.006 142.472 231.006C143.466 231.006 144.198 231.325 144.668 231.964C145.138 232.599 145.379 233.581 145.392 234.91V236.433ZM144.217 234.827C144.217 233.833 144.078 233.109 143.798 232.656C143.519 232.199 143.077 231.971 142.472 231.971C141.871 231.971 141.433 232.197 141.158 232.65C140.883 233.103 140.741 233.799 140.732 234.738V236.617C140.732 237.616 140.876 238.354 141.164 238.833C141.456 239.306 141.896 239.543 142.484 239.543C143.064 239.543 143.494 239.319 143.773 238.871C144.056 238.422 144.205 237.715 144.217 236.75V234.827ZM155.916 236.433C155.916 237.808 155.681 238.83 155.211 239.499C154.742 240.168 154.007 240.502 153.009 240.502C152.023 240.502 151.293 240.176 150.819 239.524C150.345 238.868 150.099 237.891 150.082 236.592V235.024C150.082 233.666 150.317 232.656 150.787 231.996C151.257 231.336 151.993 231.006 152.996 231.006C153.991 231.006 154.723 231.325 155.192 231.964C155.662 232.599 155.903 233.581 155.916 234.91V236.433ZM154.742 234.827C154.742 233.833 154.602 233.109 154.323 232.656C154.043 232.199 153.601 231.971 152.996 231.971C152.395 231.971 151.957 232.197 151.682 232.65C151.407 233.103 151.265 233.799 151.257 234.738V236.617C151.257 237.616 151.401 238.354 151.688 238.833C151.98 239.306 152.421 239.543 153.009 239.543C153.588 239.543 154.018 239.319 154.297 238.871C154.581 238.422 154.729 237.715 154.742 236.75V234.827ZM163.216 236.433C163.216 237.808 162.981 238.83 162.511 239.499C162.041 240.168 161.307 240.502 160.309 240.502C159.323 240.502 158.593 240.176 158.119 239.524C157.645 238.868 157.399 237.891 157.382 236.592V235.024C157.382 233.666 157.617 232.656 158.087 231.996C158.557 231.336 159.293 231.006 160.296 231.006C161.29 231.006 162.022 231.325 162.492 231.964C162.962 232.599 163.203 233.581 163.216 234.91V236.433ZM162.041 234.827C162.041 233.833 161.902 233.109 161.623 232.656C161.343 232.199 160.901 231.971 160.296 231.971C159.695 231.971 159.257 232.197 158.982 232.65C158.707 233.103 158.565 233.799 158.557 234.738V236.617C158.557 237.616 158.7 238.354 158.988 238.833C159.28 239.306 159.72 239.543 160.309 239.543C160.888 239.543 161.318 239.319 161.597 238.871C161.881 238.422 162.029 237.715 162.041 236.75V234.827ZM170.516 236.433C170.516 237.808 170.281 238.83 169.811 239.499C169.341 240.168 168.607 240.502 167.608 240.502C166.622 240.502 165.892 240.176 165.418 239.524C164.944 238.868 164.699 237.891 164.682 236.592V235.024C164.682 233.666 164.917 232.656 165.387 231.996C165.856 231.336 166.593 231.006 167.596 231.006C168.59 231.006 169.322 231.325 169.792 231.964C170.262 232.599 170.503 233.581 170.516 234.91V236.433ZM169.341 234.827C169.341 233.833 169.202 233.109 168.922 232.656C168.643 232.199 168.201 231.971 167.596 231.971C166.995 231.971 166.557 232.197 166.282 232.65C166.007 233.103 165.865 233.799 165.856 234.738V236.617C165.856 237.616 166 238.354 166.288 238.833C166.58 239.306 167.02 239.543 167.608 239.543C168.188 239.543 168.618 239.319 168.897 238.871C169.18 238.422 169.329 237.715 169.341 236.75V234.827ZM179.866 236.941H177.428C177.445 237.766 177.644 238.401 178.025 238.845C178.406 239.29 178.945 239.512 179.643 239.512C180.134 239.512 180.596 239.44 181.027 239.296L181.154 240.312C180.646 240.438 180.139 240.502 179.631 240.502C178.581 240.502 177.754 240.193 177.149 239.575C176.548 238.953 176.235 238.075 176.209 236.941H175.08V236.154H176.209V235.284H175.08V234.491H176.209C176.252 233.382 176.573 232.525 177.174 231.92C177.779 231.311 178.596 231.006 179.624 231.006C180.073 231.006 180.583 231.071 181.154 231.203L181.027 232.231C180.566 232.083 180.103 232.009 179.637 232.009C178.943 232.009 178.408 232.225 178.031 232.656C177.659 233.084 177.46 233.695 177.435 234.491H179.866V235.284H177.428V236.154H179.866V236.941Z" fill="#A5A5A5"/>
<rect x="37.0625" y="286.5" width="13" height="13" rx="6.5" stroke="#A5A5A5" stroke-opacity="0.5" stroke-width="1.625"/>
<rect x="20.4062" y="269.031" width="259.188" height="47.9375" rx="1.21875" stroke="#A5A5A5" stroke-opacity="0.5" stroke-width="0.8125"/>
<path d="M63.6274 297.25H62.4468V289.423L60.0791 290.293V289.227L63.4434 287.963H63.6274V297.25ZM72.8633 293.308C72.8633 294.683 72.6284 295.705 72.1587 296.374C71.689 297.043 70.9547 297.377 69.956 297.377C68.97 297.377 68.2401 297.051 67.7661 296.399C67.2922 295.743 67.0467 294.766 67.0298 293.467V291.899C67.0298 290.541 67.2646 289.531 67.7344 288.871C68.2041 288.211 68.9404 287.881 69.9434 287.881C70.9378 287.881 71.6699 288.2 72.1396 288.839C72.6094 289.474 72.8506 290.456 72.8633 291.785V293.308ZM71.689 291.702C71.689 290.708 71.5493 289.984 71.27 289.531C70.9907 289.074 70.5485 288.846 69.9434 288.846C69.3424 288.846 68.9045 289.072 68.6294 289.525C68.3543 289.978 68.2126 290.674 68.2041 291.613V293.492C68.2041 294.491 68.348 295.229 68.6357 295.708C68.9277 296.181 69.3678 296.418 69.956 296.418C70.5358 296.418 70.9653 296.194 71.2446 295.746C71.5282 295.297 71.6763 294.59 71.689 293.625V291.702ZM80.1631 293.308C80.1631 294.683 79.9282 295.705 79.4585 296.374C78.9888 297.043 78.2545 297.377 77.2558 297.377C76.2698 297.377 75.5399 297.051 75.0659 296.399C74.592 295.743 74.3465 294.766 74.3296 293.467V291.899C74.3296 290.541 74.5644 289.531 75.0342 288.871C75.5039 288.211 76.2402 287.881 77.2432 287.881C78.2376 287.881 78.9697 288.2 79.4394 288.839C79.9092 289.474 80.1504 290.456 80.1631 291.785V293.308ZM78.9888 291.702C78.9888 290.708 78.8491 289.984 78.5698 289.531C78.2905 289.074 77.8483 288.846 77.2432 288.846C76.6422 288.846 76.2043 289.072 75.9292 289.525C75.6541 289.978 75.5124 290.674 75.5039 291.613V293.492C75.5039 294.491 75.6478 295.229 75.9355 295.708C76.2275 296.181 76.6676 296.418 77.2558 296.418C77.8356 296.418 78.2651 296.194 78.5444 295.746C78.828 295.297 78.9761 294.59 78.9888 293.625V291.702ZM90.6875 293.308C90.6875 294.683 90.4526 295.705 89.9829 296.374C89.5132 297.043 88.779 297.377 87.7803 297.377C86.7943 297.377 86.0643 297.051 85.5903 296.399C85.1164 295.743 84.8709 294.766 84.854 293.467V291.899C84.854 290.541 85.0889 289.531 85.5586 288.871C86.0283 288.211 86.7646 287.881 87.7676 287.881C88.762 287.881 89.4941 288.2 89.9639 288.839C90.4336 289.474 90.6748 290.456 90.6875 291.785V293.308ZM89.5132 291.702C89.5132 290.708 89.3735 289.984 89.0942 289.531C88.8149 289.074 88.3727 288.846 87.7676 288.846C87.1667 288.846 86.7287 289.072 86.4536 289.525C86.1785 289.978 86.0368 290.674 86.0283 291.613V293.492C86.0283 294.491 86.1722 295.229 86.4599 295.708C86.7519 296.181 87.192 296.418 87.7803 296.418C88.36 296.418 88.7895 296.194 89.0688 295.746C89.3524 295.297 89.5005 294.59 89.5132 293.625V291.702ZM97.9873 293.308C97.9873 294.683 97.7524 295.705 97.2827 296.374C96.813 297.043 96.0788 297.377 95.0801 297.377C94.0941 297.377 93.3641 297.051 92.8901 296.399C92.4162 295.743 92.1707 294.766 92.1538 293.467V291.899C92.1538 290.541 92.3887 289.531 92.8584 288.871C93.3281 288.211 94.0644 287.881 95.0674 287.881C96.0618 287.881 96.7939 288.2 97.2637 288.839C97.7334 289.474 97.9746 290.456 97.9873 291.785V293.308ZM96.813 291.702C96.813 290.708 96.6733 289.984 96.394 289.531C96.1147 289.074 95.6725 288.846 95.0674 288.846C94.4665 288.846 94.0285 289.072 93.7534 289.525C93.4783 289.978 93.3366 290.674 93.3281 291.613V293.492C93.3281 294.491 93.472 295.229 93.7597 295.708C94.0517 296.181 94.4918 296.418 95.0801 296.418C95.6598 296.418 96.0893 296.194 96.3686 295.746C96.6522 295.297 96.8003 294.59 96.813 293.625V291.702ZM105.287 293.308C105.287 294.683 105.052 295.705 104.582 296.374C104.113 297.043 103.379 297.377 102.38 297.377C101.394 297.377 100.664 297.051 100.19 296.399C99.716 295.743 99.4705 294.766 99.4536 293.467V291.899C99.4536 290.541 99.6885 289.531 100.158 288.871C100.628 288.211 101.364 287.881 102.367 287.881C103.362 287.881 104.094 288.2 104.563 288.839C105.033 289.474 105.274 290.456 105.287 291.785V293.308ZM104.113 291.702C104.113 290.708 103.973 289.984 103.694 289.531C103.415 289.074 102.972 288.846 102.367 288.846C101.766 288.846 101.328 289.072 101.053 289.525C100.778 289.978 100.636 290.674 100.628 291.613V293.492C100.628 294.491 100.772 295.229 101.06 295.708C101.352 296.181 101.792 296.418 102.38 296.418C102.96 296.418 103.389 296.194 103.668 295.746C103.952 295.297 104.1 294.59 104.113 293.625V291.702ZM114.637 293.816H112.2C112.217 294.641 112.415 295.276 112.796 295.72C113.177 296.165 113.717 296.387 114.415 296.387C114.906 296.387 115.367 296.315 115.799 296.171L115.926 297.187C115.418 297.313 114.91 297.377 114.402 297.377C113.353 297.377 112.526 297.068 111.92 296.45C111.319 295.828 111.006 294.95 110.981 293.816H109.851V293.029H110.981V292.159H109.851V291.366H110.981C111.023 290.257 111.345 289.4 111.946 288.795C112.551 288.186 113.368 287.881 114.396 287.881C114.845 287.881 115.354 287.946 115.926 288.078L115.799 289.106C115.338 288.958 114.874 288.884 114.409 288.884C113.715 288.884 113.179 289.1 112.803 289.531C112.43 289.959 112.231 290.57 112.206 291.366H114.637V292.159H112.2V293.029H114.637V293.816ZM127.161 293.118H120.801V292.159H127.161V293.118ZM138.352 297.25H132.296V296.406L135.496 292.851C135.97 292.314 136.295 291.878 136.473 291.543C136.655 291.205 136.746 290.856 136.746 290.496C136.746 290.014 136.6 289.618 136.308 289.309C136.016 289 135.627 288.846 135.14 288.846C134.556 288.846 134.101 289.013 133.775 289.347C133.454 289.677 133.293 290.139 133.293 290.731H132.119C132.119 289.88 132.392 289.193 132.937 288.668C133.488 288.143 134.222 287.881 135.14 287.881C135.999 287.881 136.678 288.107 137.178 288.56C137.677 289.009 137.927 289.607 137.927 290.356C137.927 291.266 137.347 292.35 136.187 293.606L133.712 296.292H138.352V297.25ZM145.392 293.308C145.392 294.683 145.157 295.705 144.687 296.374C144.217 297.043 143.483 297.377 142.484 297.377C141.498 297.377 140.768 297.051 140.294 296.399C139.82 295.743 139.575 294.766 139.558 293.467V291.899C139.558 290.541 139.793 289.531 140.263 288.871C140.732 288.211 141.469 287.881 142.472 287.881C143.466 287.881 144.198 288.2 144.668 288.839C145.138 289.474 145.379 290.456 145.392 291.785V293.308ZM144.217 291.702C144.217 290.708 144.078 289.984 143.798 289.531C143.519 289.074 143.077 288.846 142.472 288.846C141.871 288.846 141.433 289.072 141.158 289.525C140.883 289.978 140.741 290.674 140.732 291.613V293.492C140.732 294.491 140.876 295.229 141.164 295.708C141.456 296.181 141.896 296.418 142.484 296.418C143.064 296.418 143.494 296.194 143.773 295.746C144.056 295.297 144.205 294.59 144.217 293.625V291.702ZM152.691 293.308C152.691 294.683 152.456 295.705 151.987 296.374C151.517 297.043 150.783 297.377 149.784 297.377C148.798 297.377 148.068 297.051 147.594 296.399C147.12 295.743 146.875 294.766 146.858 293.467V291.899C146.858 290.541 147.093 289.531 147.562 288.871C148.032 288.211 148.769 287.881 149.771 287.881C150.766 287.881 151.498 288.2 151.968 288.839C152.437 289.474 152.679 290.456 152.691 291.785V293.308ZM151.517 291.702C151.517 290.708 151.377 289.984 151.098 289.531C150.819 289.074 150.377 288.846 149.771 288.846C149.171 288.846 148.733 289.072 148.457 289.525C148.182 289.978 148.041 290.674 148.032 291.613V293.492C148.032 294.491 148.176 295.229 148.464 295.708C148.756 296.181 149.196 296.418 149.784 296.418C150.364 296.418 150.793 296.194 151.073 295.746C151.356 295.297 151.504 294.59 151.517 293.625V291.702ZM163.216 293.308C163.216 294.683 162.981 295.705 162.511 296.374C162.041 297.043 161.307 297.377 160.309 297.377C159.323 297.377 158.593 297.051 158.119 296.399C157.645 295.743 157.399 294.766 157.382 293.467V291.899C157.382 290.541 157.617 289.531 158.087 288.871C158.557 288.211 159.293 287.881 160.296 287.881C161.29 287.881 162.022 288.2 162.492 288.839C162.962 289.474 163.203 290.456 163.216 291.785V293.308ZM162.041 291.702C162.041 290.708 161.902 289.984 161.623 289.531C161.343 289.074 160.901 288.846 160.296 288.846C159.695 288.846 159.257 289.072 158.982 289.525C158.707 289.978 158.565 290.674 158.557 291.613V293.492C158.557 294.491 158.7 295.229 158.988 295.708C159.28 296.181 159.72 296.418 160.309 296.418C160.888 296.418 161.318 296.194 161.597 295.746C161.881 295.297 162.029 294.59 162.041 293.625V291.702ZM170.516 293.308C170.516 294.683 170.281 295.705 169.811 296.374C169.341 297.043 168.607 297.377 167.608 297.377C166.622 297.377 165.892 297.051 165.418 296.399C164.944 295.743 164.699 294.766 164.682 293.467V291.899C164.682 290.541 164.917 289.531 165.387 288.871C165.856 288.211 166.593 287.881 167.596 287.881C168.59 287.881 169.322 288.2 169.792 288.839C170.262 289.474 170.503 290.456 170.516 291.785V293.308ZM169.341 291.702C169.341 290.708 169.202 289.984 168.922 289.531C168.643 289.074 168.201 288.846 167.596 288.846C166.995 288.846 166.557 289.072 166.282 289.525C166.007 289.978 165.865 290.674 165.856 291.613V293.492C165.856 294.491 166 295.229 166.288 295.708C166.58 296.181 167.02 296.418 167.608 296.418C168.188 296.418 168.618 296.194 168.897 295.746C169.18 295.297 169.329 294.59 169.341 293.625V291.702ZM177.815 293.308C177.815 294.683 177.581 295.705 177.111 296.374C176.641 297.043 175.907 297.377 174.908 297.377C173.922 297.377 173.192 297.051 172.718 296.399C172.244 295.743 171.999 294.766 171.982 293.467V291.899C171.982 290.541 172.217 289.531 172.686 288.871C173.156 288.211 173.893 287.881 174.895 287.881C175.89 287.881 176.622 288.2 177.092 288.839C177.561 289.474 177.803 290.456 177.815 291.785V293.308ZM176.641 291.702C176.641 290.708 176.501 289.984 176.222 289.531C175.943 289.074 175.501 288.846 174.895 288.846C174.295 288.846 173.857 289.072 173.581 289.525C173.306 289.978 173.165 290.674 173.156 291.613V293.492C173.156 294.491 173.3 295.229 173.588 295.708C173.88 296.181 174.32 296.418 174.908 296.418C175.488 296.418 175.917 296.194 176.197 295.746C176.48 295.297 176.628 294.59 176.641 293.625V291.702ZM187.165 293.816H184.728C184.745 294.641 184.944 295.276 185.325 295.72C185.706 296.165 186.245 296.387 186.943 296.387C187.434 296.387 187.895 296.315 188.327 296.171L188.454 297.187C187.946 297.313 187.438 297.377 186.931 297.377C185.881 297.377 185.054 297.068 184.449 296.45C183.848 295.828 183.535 294.95 183.509 293.816H182.379V293.029H183.509V292.159H182.379V291.366H183.509C183.552 290.257 183.873 289.4 184.474 288.795C185.079 288.186 185.896 287.881 186.924 287.881C187.373 287.881 187.883 287.946 188.454 288.078L188.327 289.106C187.866 288.958 187.402 288.884 186.937 288.884C186.243 288.884 185.708 289.1 185.331 289.531C184.959 289.959 184.76 290.57 184.734 291.366H187.165V292.159H184.728V293.029H187.165V293.816Z" fill="#A5A5A5"/>
<rect x="37.0625" y="343.375" width="13" height="13" rx="6.5" stroke="#A5A5A5" stroke-opacity="0.5" stroke-width="1.625"/>
<rect x="20.4062" y="325.906" width="259.188" height="47.9375" rx="1.21875" stroke="#A5A5A5" stroke-opacity="0.5" stroke-width="0.8125"/>
<path d="M67.1821 349.802C67.1821 350.708 67.0298 351.499 66.7251 352.176C66.4204 352.849 65.9888 353.363 65.4302 353.719C64.8716 354.074 64.2199 354.252 63.4751 354.252C62.7472 354.252 62.1019 354.074 61.5391 353.719C60.9762 353.359 60.5382 352.849 60.2251 352.189C59.9162 351.525 59.7575 350.757 59.749 349.885V349.218C59.749 348.33 59.9035 347.545 60.2124 346.863C60.5213 346.182 60.9572 345.661 61.52 345.302C62.0871 344.938 62.7345 344.756 63.4624 344.756C64.203 344.756 64.8547 344.936 65.4175 345.295C65.9845 345.651 66.4204 346.169 66.7251 346.851C67.0298 347.528 67.1821 348.317 67.1821 349.218V349.802ZM65.9697 349.206C65.9697 348.11 65.7497 347.27 65.3096 346.686C64.8695 346.097 64.2537 345.803 63.4624 345.803C62.6922 345.803 62.085 346.097 61.6406 346.686C61.2005 347.27 60.9741 348.082 60.9614 349.123V349.802C60.9614 350.864 61.1836 351.7 61.6279 352.31C62.0765 352.915 62.6922 353.217 63.4751 353.217C64.2622 353.217 64.8716 352.932 65.3032 352.36C65.7349 351.785 65.957 350.962 65.9697 349.891V349.206ZM73.9297 348.209H71.6255V354.125H70.4512V348.209H68.1914V347.257H73.9297V348.209Z" fill="#A5A5A5"/>
<path d="M168.326 356.391H167.113V354.125H160.48V356.397H159.261L159.255 353.128H160.01C160.408 352.68 160.723 352.079 160.956 351.326C161.193 350.568 161.341 349.739 161.4 348.837L161.604 344.883H167.132V353.128H168.338L168.326 356.391ZM161.4 353.128H165.907V345.886H162.778L162.645 348.603C162.59 349.665 162.448 350.57 162.219 351.319C161.995 352.068 161.722 352.671 161.4 353.128ZM169.291 350.627C169.291 349.955 169.422 349.349 169.684 348.812C169.951 348.275 170.319 347.86 170.789 347.568C171.263 347.276 171.802 347.13 172.407 347.13C173.342 347.13 174.098 347.454 174.673 348.101C175.253 348.749 175.543 349.61 175.543 350.685V350.767C175.543 351.436 175.414 352.037 175.156 352.57C174.902 353.099 174.536 353.511 174.058 353.808C173.584 354.104 173.038 354.252 172.42 354.252C171.489 354.252 170.734 353.928 170.154 353.281C169.578 352.633 169.291 351.776 169.291 350.71V350.627ZM170.471 350.767C170.471 351.529 170.647 352.14 170.998 352.602C171.354 353.063 171.827 353.293 172.42 353.293C173.017 353.293 173.491 353.061 173.842 352.595C174.193 352.125 174.369 351.47 174.369 350.627C174.369 349.874 174.189 349.265 173.829 348.799C173.474 348.33 173 348.095 172.407 348.095C171.827 348.095 171.36 348.325 171.004 348.787C170.649 349.248 170.471 349.908 170.471 350.767Z" fill="#A5A5A5"/>
<rect x="20.8125" y="155.687" width="258.375" height="47.125" rx="0.8125" stroke="#CEAC6A" stroke-width="1.625"/>
<path d="M64.7256 180.396H66.0078V181.354H64.7256V183.5H63.5449V181.354H59.3364V180.663L63.4751 174.258H64.7256V180.396ZM60.6694 180.396H63.5449V175.864L63.4053 176.118L60.6694 180.396ZM72.8633 179.558C72.8633 180.933 72.6284 181.955 72.1587 182.624C71.689 183.293 70.9547 183.627 69.956 183.627C68.97 183.627 68.2401 183.301 67.7661 182.649C67.2922 181.993 67.0467 181.016 67.0298 179.717V178.149C67.0298 176.791 67.2646 175.781 67.7344 175.121C68.2041 174.461 68.9404 174.131 69.9434 174.131C70.9378 174.131 71.6699 174.45 72.1396 175.089C72.6094 175.724 72.8506 176.706 72.8633 178.035V179.558ZM71.689 177.952C71.689 176.958 71.5493 176.234 71.27 175.781C70.9907 175.324 70.5485 175.096 69.9434 175.096C69.3424 175.096 68.9045 175.322 68.6294 175.775C68.3543 176.228 68.2126 176.924 68.2041 177.863V179.742C68.2041 180.741 68.348 181.479 68.6357 181.958C68.9277 182.431 69.3678 182.668 69.956 182.668C70.5358 182.668 70.9653 182.444 71.2446 181.996C71.5282 181.547 71.6763 180.84 71.689 179.875V177.952ZM83.3877 179.558C83.3877 180.933 83.1528 181.955 82.6831 182.624C82.2134 183.293 81.4792 183.627 80.4805 183.627C79.4945 183.627 78.7645 183.301 78.2905 182.649C77.8166 181.993 77.5711 181.016 77.5542 179.717V178.149C77.5542 176.791 77.7891 175.781 78.2588 175.121C78.7285 174.461 79.4648 174.131 80.4678 174.131C81.4622 174.131 82.1943 174.45 82.664 175.089C83.1338 175.724 83.375 176.706 83.3877 178.035V179.558ZM82.2134 177.952C82.2134 176.958 82.0737 176.234 81.7944 175.781C81.5151 175.324 81.0729 175.096 80.4678 175.096C79.8669 175.096 79.4289 175.322 79.1538 175.775C78.8787 176.228 78.737 176.924 78.7285 177.863V179.742C78.7285 180.741 78.8724 181.479 79.1601 181.958C79.4521 182.431 79.8922 182.668 80.4805 182.668C81.0602 182.668 81.4897 182.444 81.769 181.996C82.0526 181.547 82.2007 180.84 82.2134 179.875V177.952ZM90.6875 179.558C90.6875 180.933 90.4526 181.955 89.9829 182.624C89.5132 183.293 88.779 183.627 87.7803 183.627C86.7943 183.627 86.0643 183.301 85.5903 182.649C85.1164 181.993 84.8709 181.016 84.854 179.717V178.149C84.854 176.791 85.0889 175.781 85.5586 175.121C86.0283 174.461 86.7646 174.131 87.7676 174.131C88.762 174.131 89.4941 174.45 89.9639 175.089C90.4336 175.724 90.6748 176.706 90.6875 178.035V179.558ZM89.5132 177.952C89.5132 176.958 89.3735 176.234 89.0942 175.781C88.8149 175.324 88.3727 175.096 87.7676 175.096C87.1667 175.096 86.7287 175.322 86.4536 175.775C86.1785 176.228 86.0368 176.924 86.0283 177.863V179.742C86.0283 180.741 86.1722 181.479 86.4599 181.958C86.7519 182.431 87.192 182.668 87.7803 182.668C88.36 182.668 88.7895 182.444 89.0688 181.996C89.3524 181.547 89.5005 180.84 89.5132 179.875V177.952ZM97.9873 179.558C97.9873 180.933 97.7524 181.955 97.2827 182.624C96.813 183.293 96.0788 183.627 95.0801 183.627C94.0941 183.627 93.3641 183.301 92.8901 182.649C92.4162 181.993 92.1707 181.016 92.1538 179.717V178.149C92.1538 176.791 92.3887 175.781 92.8584 175.121C93.3281 174.461 94.0644 174.131 95.0674 174.131C96.0618 174.131 96.7939 174.45 97.2637 175.089C97.7334 175.724 97.9746 176.706 97.9873 178.035V179.558ZM96.813 177.952C96.813 176.958 96.6733 176.234 96.394 175.781C96.1147 175.324 95.6725 175.096 95.0674 175.096C94.4665 175.096 94.0285 175.322 93.7534 175.775C93.4783 176.228 93.3366 176.924 93.3281 177.863V179.742C93.3281 180.741 93.472 181.479 93.7597 181.958C94.0517 182.431 94.4918 182.668 95.0801 182.668C95.6598 182.668 96.0893 182.444 96.3686 181.996C96.6522 181.547 96.8003 180.84 96.813 179.875V177.952ZM107.337 180.066H104.9C104.917 180.891 105.116 181.526 105.497 181.97C105.877 182.415 106.417 182.637 107.115 182.637C107.606 182.637 108.067 182.565 108.499 182.421L108.626 183.437C108.118 183.563 107.61 183.627 107.103 183.627C106.053 183.627 105.226 183.318 104.621 182.7C104.02 182.078 103.707 181.2 103.681 180.066H102.551V179.279H103.681V178.409H102.551V177.616H103.681C103.723 176.507 104.045 175.65 104.646 175.045C105.251 174.436 106.068 174.131 107.096 174.131C107.545 174.131 108.055 174.196 108.626 174.328L108.499 175.356C108.038 175.208 107.574 175.134 107.109 175.134C106.415 175.134 105.88 175.35 105.503 175.781C105.131 176.209 104.932 176.82 104.906 177.616H107.337V178.409H104.9V179.279H107.337V180.066ZM121.867 179.368H113.387V178.409H121.867V179.368ZM131.23 174.251V175.248H131.014C130.1 175.265 129.372 175.536 128.831 176.061C128.289 176.585 127.976 177.324 127.891 178.276C128.378 177.717 129.042 177.438 129.884 177.438C130.688 177.438 131.329 177.722 131.808 178.289C132.29 178.856 132.531 179.588 132.531 180.485C132.531 181.437 132.271 182.199 131.75 182.77C131.234 183.341 130.54 183.627 129.668 183.627C128.784 183.627 128.067 183.288 127.517 182.611C126.966 181.93 126.691 181.054 126.691 179.983V179.533C126.691 177.832 127.053 176.532 127.777 175.635C128.505 174.734 129.586 174.273 131.02 174.251H131.23ZM129.687 178.416C129.285 178.416 128.915 178.536 128.577 178.777C128.238 179.019 128.003 179.321 127.872 179.685V180.117C127.872 180.878 128.043 181.492 128.386 181.958C128.729 182.423 129.156 182.656 129.668 182.656C130.197 182.656 130.612 182.461 130.913 182.072C131.217 181.682 131.37 181.173 131.37 180.542C131.37 179.907 131.215 179.395 130.906 179.006C130.602 178.612 130.195 178.416 129.687 178.416ZM139.717 179.558C139.717 180.933 139.482 181.955 139.012 182.624C138.542 183.293 137.808 183.627 136.81 183.627C135.824 183.627 135.094 183.301 134.62 182.649C134.146 181.993 133.9 181.016 133.883 179.717V178.149C133.883 176.791 134.118 175.781 134.588 175.121C135.058 174.461 135.794 174.131 136.797 174.131C137.791 174.131 138.523 174.45 138.993 175.089C139.463 175.724 139.704 176.706 139.717 178.035V179.558ZM138.542 177.952C138.542 176.958 138.403 176.234 138.123 175.781C137.844 175.324 137.402 175.096 136.797 175.096C136.196 175.096 135.758 175.322 135.483 175.775C135.208 176.228 135.066 176.924 135.058 177.863V179.742C135.058 180.741 135.201 181.479 135.489 181.958C135.781 182.431 136.221 182.668 136.81 182.668C137.389 182.668 137.819 182.444 138.098 181.996C138.382 181.547 138.53 180.84 138.542 179.875V177.952ZM150.241 179.558C150.241 180.933 150.006 181.955 149.537 182.624C149.067 183.293 148.333 183.627 147.334 183.627C146.348 183.627 145.618 183.301 145.144 182.649C144.67 181.993 144.425 181.016 144.408 179.717V178.149C144.408 176.791 144.643 175.781 145.112 175.121C145.582 174.461 146.318 174.131 147.321 174.131C148.316 174.131 149.048 174.45 149.518 175.089C149.987 175.724 150.228 176.706 150.241 178.035V179.558ZM149.067 177.952C149.067 176.958 148.927 176.234 148.648 175.781C148.369 175.324 147.926 175.096 147.321 175.096C146.72 175.096 146.282 175.322 146.007 175.775C145.732 176.228 145.59 176.924 145.582 177.863V179.742C145.582 180.741 145.726 181.479 146.014 181.958C146.306 182.431 146.746 182.668 147.334 182.668C147.914 182.668 148.343 182.444 148.623 181.996C148.906 181.547 149.054 180.84 149.067 179.875V177.952ZM157.541 179.558C157.541 180.933 157.306 181.955 156.836 182.624C156.367 183.293 155.632 183.627 154.634 183.627C153.648 183.627 152.918 183.301 152.444 182.649C151.97 181.993 151.724 181.016 151.707 179.717V178.149C151.707 176.791 151.942 175.781 152.412 175.121C152.882 174.461 153.618 174.131 154.621 174.131C155.616 174.131 156.348 174.45 156.817 175.089C157.287 175.724 157.528 176.706 157.541 178.035V179.558ZM156.367 177.952C156.367 176.958 156.227 176.234 155.948 175.781C155.668 175.324 155.226 175.096 154.621 175.096C154.02 175.096 153.582 175.322 153.307 175.775C153.032 176.228 152.89 176.924 152.882 177.863V179.742C152.882 180.741 153.026 181.479 153.313 181.958C153.605 182.431 154.046 182.668 154.634 182.668C155.213 182.668 155.643 182.444 155.922 181.996C156.206 181.547 156.354 180.84 156.367 179.875V177.952ZM164.841 179.558C164.841 180.933 164.606 181.955 164.136 182.624C163.666 183.293 162.932 183.627 161.934 183.627C160.948 183.627 160.218 183.301 159.744 182.649C159.27 181.993 159.024 181.016 159.007 179.717V178.149C159.007 176.791 159.242 175.781 159.712 175.121C160.182 174.461 160.918 174.131 161.921 174.131C162.915 174.131 163.647 174.45 164.117 175.089C164.587 175.724 164.828 176.706 164.841 178.035V179.558ZM163.666 177.952C163.666 176.958 163.527 176.234 163.248 175.781C162.968 175.324 162.526 175.096 161.921 175.096C161.32 175.096 160.882 175.322 160.607 175.775C160.332 176.228 160.19 176.924 160.182 177.863V179.742C160.182 180.741 160.325 181.479 160.613 181.958C160.905 182.431 161.345 182.668 161.934 182.668C162.513 182.668 162.943 182.444 163.222 181.996C163.506 181.547 163.654 180.84 163.666 179.875V177.952ZM174.191 180.066H171.753C171.77 180.891 171.969 181.526 172.35 181.97C172.731 182.415 173.27 182.637 173.969 182.637C174.46 182.637 174.921 182.565 175.352 182.421L175.479 183.437C174.972 183.563 174.464 183.627 173.956 183.627C172.907 183.627 172.079 183.318 171.474 182.7C170.873 182.078 170.56 181.2 170.535 180.066H169.405V179.279H170.535V178.409H169.405V177.616H170.535C170.577 176.507 170.899 175.65 171.499 175.045C172.105 174.436 172.921 174.131 173.95 174.131C174.398 174.131 174.908 174.196 175.479 174.328L175.352 175.356C174.891 175.208 174.428 175.134 173.962 175.134C173.268 175.134 172.733 175.35 172.356 175.781C171.984 176.209 171.785 176.82 171.76 177.616H174.191V178.409H171.753V179.279H174.191V180.066Z" fill="#CEAC6A"/>
<path d="M25.0535 34.5537H23.5523V40H21.3528V27.292H23.5523V32.6335H24.7655L28.5011 27.292H31.2068L26.8428 33.3754L31.5908 40H28.9375L25.0535 34.5537ZM39.144 40C39.0509 39.8196 38.9695 39.5258 38.8997 39.1185C38.2247 39.8225 37.3984 40.1746 36.4209 40.1746C35.4725 40.1746 34.6986 39.904 34.0992 39.3629C33.4999 38.8217 33.2003 38.1526 33.2003 37.3554C33.2003 36.3488 33.5727 35.5778 34.3174 35.0425C35.0681 34.5013 36.1387 34.2308 37.5294 34.2308H38.8298V33.6111C38.8298 33.1223 38.6931 32.7325 38.4196 32.4415C38.1461 32.1448 37.7301 31.9964 37.1715 31.9964C36.6886 31.9964 36.2929 32.1186 35.9845 32.363C35.6761 32.6015 35.5219 32.907 35.5219 33.2794H33.401C33.401 32.7616 33.5727 32.2786 33.916 31.8306C34.2593 31.3767 34.7248 31.0218 35.3124 30.7658C35.906 30.5097 36.5664 30.3817 37.2937 30.3817C38.3993 30.3817 39.2808 30.661 39.9383 31.2196C40.5958 31.7724 40.9333 32.5521 40.9507 33.5587V37.818C40.9507 38.6675 41.07 39.3454 41.3086 39.8516V40H39.144ZM36.8137 38.4726C37.2326 38.4726 37.6254 38.3708 37.9919 38.1671C38.3643 37.9635 38.6436 37.69 38.8298 37.3467V35.5662H37.6865C36.9009 35.5662 36.3103 35.7029 35.9147 35.9764C35.519 36.2499 35.3212 36.6368 35.3212 37.1372C35.3212 37.5445 35.455 37.8704 35.7227 38.1147C35.9961 38.3533 36.3598 38.4726 36.8137 38.4726ZM47.4217 36.2644H46.3482V40H44.2272V30.5563H46.3482V34.3268H47.2821L49.8917 30.5563H52.5101L49.0975 35.0774L52.7982 40H50.0401L47.4217 36.2644ZM53.9538 35.1909C53.9538 34.2657 54.137 33.4336 54.5036 32.6946C54.8702 31.9499 55.3852 31.3796 56.0485 30.984C56.7118 30.5825 57.4741 30.3817 58.3352 30.3817C59.6095 30.3817 60.6423 30.7919 61.4337 31.6124C62.2308 32.4328 62.6614 33.5209 62.7254 34.8767L62.7341 35.3741C62.7341 36.3051 62.5538 37.1372 62.193 37.8704C61.8381 38.6035 61.326 39.1708 60.6569 39.5723C59.9936 39.9738 59.2255 40.1746 58.3527 40.1746C57.0202 40.1746 55.9525 39.7323 55.1495 38.8479C54.3523 37.9576 53.9538 36.7735 53.9538 35.2956V35.1909ZM56.0747 35.3741C56.0747 36.3459 56.2754 37.1081 56.6769 37.6609C57.0784 38.2078 57.637 38.4813 58.3527 38.4813C59.0684 38.4813 59.6241 38.202 60.0197 37.6434C60.4212 37.0848 60.622 36.2673 60.622 35.1909C60.622 34.2366 60.4154 33.4802 60.0023 32.9216C59.595 32.363 59.0393 32.0837 58.3352 32.0837C57.6428 32.0837 57.0929 32.3601 56.6856 32.9128C56.2783 33.4598 56.0747 34.2802 56.0747 35.3741ZM71.3173 30.5563H73.4295V40H71.3173V33.6984L67.6166 40H65.5044V30.5563H67.6166V36.8579L71.3173 30.5563ZM72.3123 26.9341C72.3123 27.6673 72.0563 28.2608 71.5442 28.7147C71.0322 29.1685 70.3485 29.3955 69.4931 29.3955C68.6378 29.3955 67.9541 29.1685 67.442 28.7147C66.93 28.2608 66.674 27.6673 66.674 26.9341H68.2625C68.2625 27.3182 68.3701 27.6178 68.5854 27.8331C68.8065 28.0426 69.1091 28.1473 69.4931 28.1473C69.8772 28.1473 70.1768 28.0426 70.3921 27.8331C70.6074 27.6178 70.7151 27.3182 70.7151 26.9341H72.3123ZM85.228 36.9626L87.1482 30.5563H89.4087L85.6557 41.4314C85.0796 43.0199 84.1021 43.8141 82.7231 43.8141C82.4147 43.8141 82.0743 43.7618 81.7019 43.657V42.0162L82.1034 42.0424C82.6387 42.0424 83.0402 41.9434 83.3078 41.7456C83.5813 41.5536 83.7966 41.2277 83.9537 40.7681L84.2592 39.9564L80.9426 30.5563H83.2293L85.228 36.9626ZM97.0353 40V30.5563H100.867C102.159 30.5563 103.142 30.7832 103.817 31.2371C104.492 31.6851 104.829 32.331 104.829 33.1747C104.829 33.6111 104.693 34.0038 104.419 34.353C104.152 34.6963 103.753 34.961 103.223 35.1472C103.84 35.2752 104.329 35.5342 104.69 35.924C105.051 36.3139 105.231 36.7735 105.231 37.303C105.231 38.1817 104.905 38.8508 104.253 39.3105C103.607 39.7702 102.676 40 101.46 40H97.0353ZM99.1562 35.9764V38.3242H101.478C102.566 38.3242 103.11 37.9344 103.11 37.1547C103.11 36.3691 102.557 35.9764 101.452 35.9764H99.1562ZM99.1562 34.4577H100.902C102.106 34.4577 102.708 34.1028 102.708 33.3929C102.708 32.6481 102.138 32.2641 100.998 32.2408H99.1562V34.4577ZM113.605 40C113.511 39.8196 113.43 39.5258 113.36 39.1185C112.685 39.8225 111.859 40.1746 110.881 40.1746C109.933 40.1746 109.159 39.904 108.56 39.3629C107.96 38.8217 107.661 38.1526 107.661 37.3554C107.661 36.3488 108.033 35.5778 108.778 35.0425C109.529 34.5013 110.599 34.2308 111.99 34.2308H113.29V33.6111C113.29 33.1223 113.154 32.7325 112.88 32.4415C112.607 32.1448 112.191 31.9964 111.632 31.9964C111.149 31.9964 110.753 32.1186 110.445 32.363C110.137 32.6015 109.982 32.907 109.982 33.2794H107.862C107.862 32.7616 108.033 32.2786 108.376 31.8306C108.72 31.3767 109.185 31.0218 109.773 30.7658C110.366 30.5097 111.027 30.3817 111.754 30.3817C112.86 30.3817 113.741 30.661 114.399 31.2196C115.056 31.7724 115.394 32.5521 115.411 33.5587V37.818C115.411 38.6675 115.531 39.3454 115.769 39.8516V40H113.605ZM111.274 38.4726C111.693 38.4726 112.086 38.3708 112.452 38.1671C112.825 37.9635 113.104 37.69 113.29 37.3467V35.5662H112.147C111.361 35.5662 110.771 35.7029 110.375 35.9764C109.98 36.2499 109.782 36.6368 109.782 37.1372C109.782 37.5445 109.916 37.8704 110.183 38.1147C110.457 38.3533 110.82 38.4726 111.274 38.4726ZM122.406 38.4813C122.935 38.4813 123.375 38.3271 123.724 38.0187C124.073 37.7103 124.259 37.3292 124.282 36.8754H126.281C126.258 37.4631 126.075 38.0129 125.731 38.525C125.388 39.0312 124.922 39.4327 124.335 39.7294C123.747 40.0262 123.113 40.1746 122.432 40.1746C121.111 40.1746 120.064 39.7469 119.29 38.8915C118.516 38.0362 118.129 36.855 118.129 35.348V35.1298C118.129 33.6925 118.513 32.5434 119.281 31.6822C120.049 30.8152 121.097 30.3817 122.423 30.3817C123.546 30.3817 124.46 30.7105 125.164 31.368C125.874 32.0197 126.246 32.8779 126.281 33.9428H124.282C124.259 33.4016 124.073 32.9565 123.724 32.6074C123.381 32.2582 122.941 32.0837 122.406 32.0837C121.719 32.0837 121.19 32.3339 120.817 32.8343C120.445 33.3289 120.256 34.0824 120.25 35.0949V35.4352C120.25 36.4593 120.433 37.2245 120.8 37.7307C121.172 38.2311 121.708 38.4813 122.406 38.4813ZM142.129 40H140.009V32.267H136.325V40H134.204V30.5563H142.129V40ZM153.549 35.3741C153.549 36.8346 153.218 38.0013 152.554 38.8741C151.891 39.7411 151.001 40.1746 149.883 40.1746C148.848 40.1746 148.019 39.8342 147.396 39.1534V43.6309H145.275V30.5563H147.23L147.317 31.5164C147.94 30.7599 148.787 30.3817 149.857 30.3817C151.009 30.3817 151.911 30.8123 152.563 31.6735C153.22 32.5288 153.549 33.7187 153.549 35.2432V35.3741ZM151.437 35.1909C151.437 34.2482 151.248 33.5005 150.87 32.9478C150.497 32.395 149.962 32.1186 149.264 32.1186C148.397 32.1186 147.774 32.4764 147.396 33.1921V37.3816C147.78 38.1147 148.408 38.4813 149.281 38.4813C149.956 38.4813 150.483 38.2108 150.861 37.6696C151.245 37.1227 151.437 36.2964 151.437 35.1909ZM162.141 30.5563H164.253V40H162.141V33.6984L158.44 40H156.328V30.5563H158.44V36.8579L162.141 30.5563ZM173.011 37.3903L175.804 30.5563H178.457V40H176.336V33.7507L173.735 40H172.295L169.686 33.7158V40H167.565V30.5563H170.235L173.011 37.3903ZM185.897 40.1746C184.553 40.1746 183.462 39.7527 182.624 38.909C181.792 38.0595 181.376 36.9306 181.376 35.5225V35.2607C181.376 34.3181 181.556 33.4773 181.917 32.7383C182.284 31.9935 182.796 31.4145 183.453 31.0014C184.111 30.5883 184.844 30.3817 185.653 30.3817C186.939 30.3817 187.931 30.7919 188.629 31.6124C189.333 32.4328 189.685 33.5936 189.685 35.0949V35.9502H183.514C183.578 36.7299 183.837 37.3467 184.291 37.8005C184.751 38.2544 185.327 38.4813 186.019 38.4813C186.991 38.4813 187.782 38.0886 188.393 37.303L189.537 38.394C189.158 38.9585 188.652 39.3978 188.018 39.712C187.39 40.0204 186.683 40.1746 185.897 40.1746ZM185.644 32.0837C185.062 32.0837 184.591 32.2873 184.23 32.6946C183.875 33.102 183.648 33.6693 183.549 34.3966H187.59V34.2395C187.544 33.5296 187.355 32.9943 187.023 32.6335C186.691 32.267 186.232 32.0837 185.644 32.0837ZM200.503 35.3741C200.503 36.8346 200.171 38.0013 199.508 38.8741C198.844 39.7411 197.954 40.1746 196.837 40.1746C195.801 40.1746 194.972 39.8342 194.349 39.1534V43.6309H192.228V30.5563H194.183L194.271 31.5164C194.893 30.7599 195.74 30.3817 196.811 30.3817C197.963 30.3817 198.865 30.8123 199.516 31.6735C200.174 32.5288 200.503 33.7187 200.503 35.2432V35.3741ZM198.39 35.1909C198.39 34.2482 198.201 33.5005 197.823 32.9478C197.451 32.395 196.915 32.1186 196.217 32.1186C195.35 32.1186 194.727 32.4764 194.349 33.1921V37.3816C194.733 38.1147 195.362 38.4813 196.235 38.4813C196.909 38.4813 197.436 38.2108 197.814 37.6696C198.198 37.1227 198.39 36.2964 198.39 35.1909ZM211.198 40H209.077V36.1859H205.402V40H203.282V30.5563H205.402V34.4926H209.077V30.5563H211.198V40ZM216.639 33.5587H218.716C219.49 33.5587 220.165 33.6925 220.741 33.9602C221.317 34.2279 221.754 34.6032 222.05 35.0861C222.353 35.5691 222.504 36.1306 222.504 36.7706C222.504 37.7424 222.161 38.5221 221.474 39.1097C220.788 39.6974 219.874 39.9942 218.734 40H214.518V30.5563H216.639V33.5587ZM226.196 40H224.075V30.5563H226.196V40ZM216.639 35.2607V38.3068H218.707C219.225 38.3068 219.633 38.1788 219.929 37.9227C220.232 37.6609 220.383 37.2914 220.383 36.8143C220.383 36.3371 220.235 35.9618 219.938 35.6884C219.647 35.4091 219.251 35.2665 218.751 35.2607H216.639ZM235.53 30.5563H237.642V40H235.53V33.6984L231.829 40H229.717V30.5563H231.829V36.8579L235.53 30.5563ZM236.525 26.9341C236.525 27.6673 236.269 28.2608 235.757 28.7147C235.245 29.1685 234.561 29.3955 233.706 29.3955C232.85 29.3955 232.167 29.1685 231.655 28.7147C231.143 28.2608 230.887 27.6673 230.887 26.9341H232.475C232.475 27.3182 232.583 27.6178 232.798 27.8331C233.019 28.0426 233.322 28.1473 233.706 28.1473C234.09 28.1473 234.389 28.0426 234.605 27.8331C234.82 27.6178 234.928 27.3182 234.928 26.9341H236.525ZM25.5336 58.08C26.7206 58.08 27.6719 58.4785 28.3876 59.2757C29.1033 60.067 29.4612 61.1435 29.4612 62.5051V62.6098C29.4612 63.9714 29.0713 65.074 28.2916 65.9177C27.5177 66.7614 26.4646 67.1833 25.1321 67.1833C23.8345 67.1833 22.7871 66.7527 21.99 65.8915C21.1928 65.0304 20.7943 63.855 20.7943 62.3654V61.7545C20.7943 59.7179 21.155 58.1061 21.8765 56.9191C22.598 55.7321 23.6745 54.9902 25.1059 54.6935C25.9089 54.5306 26.4267 54.3589 26.6595 54.1785C26.898 53.9923 27.0173 53.7421 27.0173 53.4279H28.728C28.728 54.0156 28.632 54.4927 28.44 54.8593C28.248 55.2259 27.9541 55.5256 27.5585 55.7583C27.1628 55.9852 26.482 56.2005 25.5161 56.4042C24.6317 56.5904 23.9567 56.922 23.4912 57.3992C23.0315 57.8763 22.7231 58.5367 22.566 59.3804C23.4097 58.5135 24.3989 58.08 25.5336 58.08ZM25.1146 59.7819C24.428 59.7819 23.8898 60.0147 23.4999 60.4802C23.1101 60.9398 22.9152 61.6497 22.9152 62.6098C22.9152 63.5175 23.1072 64.2245 23.4912 64.7307C23.8752 65.2369 24.4222 65.4901 25.1321 65.4901C25.8361 65.4901 26.3802 65.2369 26.7642 64.7307C27.1541 64.2187 27.349 63.4506 27.349 62.4265C27.349 61.6119 27.1541 60.9689 26.7642 60.4976C26.3802 60.0205 25.8303 59.7819 25.1146 59.7819ZM34.1603 61.353H35.9409C36.098 60.1485 36.5635 59.1855 37.3373 58.464C38.1112 57.7425 39.0888 57.3817 40.27 57.3817C41.5443 57.3817 42.5771 57.7919 43.3684 58.6124C44.1656 59.4328 44.5962 60.5209 44.6602 61.8767L44.6689 62.3741C44.6689 63.3051 44.4885 64.1372 44.1277 64.8704C43.7728 65.6035 43.2608 66.1708 42.5916 66.5723C41.9283 66.9738 41.1602 67.1746 40.2874 67.1746C39.0655 67.1746 38.0618 66.7963 37.2762 66.0399C36.4965 65.2835 36.0456 64.2885 35.9234 63.0549H34.1603V67H32.0394V57.5563H34.1603V61.353ZM38.0094 62.3741C38.0094 63.3459 38.2101 64.1081 38.6116 64.6609C39.0131 65.2078 39.5717 65.4813 40.2874 65.4813C41.0031 65.4813 41.5588 65.202 41.9545 64.6434C42.3501 64.0848 42.548 63.2673 42.548 62.1909C42.548 61.2191 42.3414 60.4598 41.9283 59.9128C41.521 59.3601 40.9682 59.0837 40.27 59.0837C39.5775 59.0837 39.0277 59.3601 38.6204 59.9128C38.2131 60.4598 38.0094 61.2802 38.0094 62.3741ZM47.1948 65.3068C47.7825 64.6493 48.1752 64.0267 48.3731 63.439C48.5767 62.8455 48.6989 62.089 48.7396 61.1697L48.8618 57.5563H55.4166V65.3068H56.7258V69.8104H54.6136V67H48.5563V69.8104H46.4093L46.418 65.3068H47.1948ZM49.6823 65.3068H53.3044V59.3804H50.9216L50.8605 61.1871C50.7791 62.9211 50.3863 64.2943 49.6823 65.3068ZM67.4473 63.2033H66.3214V67H64.2005V63.2033H63.0833L60.91 67H58.309L61.4424 62.0861L58.4749 57.5563H61.0671L63.2055 61.2657H64.2005V57.5563H66.3214V61.2657H67.3251L69.4722 57.5563H72.0644L69.1056 62.0599L72.2564 67H69.6206L67.4473 63.2033ZM78.4481 67.1746C77.104 67.1746 76.013 66.7527 75.1751 65.909C74.343 65.0595 73.927 63.9306 73.927 62.5225V62.2607C73.927 61.3181 74.1073 60.4773 74.4681 59.7383C74.8347 58.9935 75.3467 58.4145 76.0042 58.0014C76.6617 57.5883 77.3949 57.3817 78.2037 57.3817C79.4896 57.3817 80.4817 57.7919 81.18 58.6124C81.884 59.4328 82.236 60.5936 82.236 62.0949V62.9502H76.0653C76.1293 63.7299 76.3883 64.3467 76.8421 64.8005C77.3018 65.2544 77.8779 65.4813 78.5703 65.4813C79.542 65.4813 80.3333 65.0886 80.9443 64.303L82.0877 65.394C81.7095 65.9585 81.2032 66.3978 80.569 66.712C79.9406 67.0204 79.2336 67.1746 78.4481 67.1746ZM78.195 59.0837C77.6131 59.0837 77.1418 59.2873 76.781 59.6946C76.4261 60.102 76.1992 60.6693 76.1002 61.3966H80.1413V61.2395C80.0948 60.5296 79.9057 59.9943 79.574 59.6335C79.2423 59.267 78.7827 59.0837 78.195 59.0837ZM92.1109 59.2408H89.0474V67H86.9265V59.2408H83.8979V57.5563H92.1109V59.2408ZM107.776 67H105.655V59.267H101.972V67H99.8509V57.5563H107.776V67ZM110.529 62.1909C110.529 61.2657 110.712 60.4336 111.079 59.6946C111.445 58.9499 111.96 58.3796 112.624 57.984C113.287 57.5825 114.049 57.3817 114.91 57.3817C116.185 57.3817 117.217 57.7919 118.009 58.6124C118.806 59.4328 119.236 60.5209 119.3 61.8767L119.309 62.3741C119.309 63.3051 119.129 64.1372 118.768 64.8704C118.413 65.6035 117.901 66.1708 117.232 66.5723C116.569 66.9738 115.801 67.1746 114.928 67.1746C113.595 67.1746 112.528 66.7323 111.725 65.8479C110.927 64.9576 110.529 63.7735 110.529 62.2956V62.1909ZM112.65 62.3741C112.65 63.3459 112.85 64.1081 113.252 64.6609C113.653 65.2078 114.212 65.4813 114.928 65.4813C115.643 65.4813 116.199 65.202 116.595 64.6434C116.996 64.0848 117.197 63.2673 117.197 62.1909C117.197 61.2366 116.99 60.4802 116.577 59.9216C116.17 59.363 115.614 59.0837 114.91 59.0837C114.218 59.0837 113.668 59.3601 113.261 59.9128C112.853 60.4598 112.65 61.2802 112.65 62.3741ZM125.352 63.2644H124.279V67H122.158V57.5563H124.279V61.3268H125.213L127.823 57.5563H130.441L127.028 62.0774L130.729 67H127.971L125.352 63.2644ZM136.091 63.9626L138.012 57.5563H140.272L136.519 68.4314C135.943 70.0199 134.966 70.8141 133.587 70.8141C133.278 70.8141 132.938 70.7618 132.565 70.657V69.0162L132.967 69.0424C133.502 69.0424 133.904 68.9434 134.171 68.7456C134.445 68.5536 134.66 68.2277 134.817 67.7681L135.123 66.9564L131.806 57.5563H134.093L136.091 63.9626ZM150.4 67H148.279V59.267H144.596V67H142.475V57.5563H150.4V67ZM156.906 63.2644H155.832V67H153.712V57.5563H155.832V61.3268H156.766L159.376 57.5563H161.994L158.582 62.0774L162.282 67H159.524L156.906 63.2644ZM170.237 57.5563H172.349V67H170.237V60.6984L166.537 67H164.424V57.5563H166.537V63.8579L170.237 57.5563ZM177.468 63.2644C177.468 62.4905 177.564 61.8737 177.756 61.4141C177.948 60.9544 178.326 60.4511 178.89 59.9041C179.46 59.3513 179.821 58.9586 179.972 58.7258C180.205 58.3709 180.322 57.9869 180.322 57.5737C180.322 57.0268 180.185 56.6107 179.911 56.3256C179.644 56.0347 179.248 55.8892 178.724 55.8892C178.224 55.8892 177.82 56.0318 177.511 56.3169C177.209 56.5962 177.057 56.9773 177.057 57.4603H174.936C174.948 56.4304 175.297 55.6157 175.984 55.0164C176.676 54.4171 177.59 54.1174 178.724 54.1174C179.894 54.1174 180.805 54.4142 181.456 55.0077C182.114 55.6012 182.442 56.4304 182.442 57.4952C182.442 58.4436 182 59.3775 181.116 60.2969L180.042 61.353C179.658 61.7894 179.46 62.4265 179.449 63.2644H177.468ZM177.319 65.9788C177.319 65.6355 177.427 65.3591 177.642 65.1497C177.857 64.9344 178.148 64.8267 178.515 64.8267C178.887 64.8267 179.181 64.9373 179.396 65.1584C179.612 65.3737 179.719 65.6472 179.719 65.9788C179.719 66.2988 179.615 66.5665 179.405 66.7818C179.196 66.9971 178.899 67.1047 178.515 67.1047C178.131 67.1047 177.834 66.9971 177.625 66.7818C177.421 66.5665 177.319 66.2988 177.319 65.9788Z" fill="#CEAC6A"/>
<rect x="50.875" y="186.562" width="14.625" height="14.625" rx="7.3125" transform="rotate(-180 50.875 186.562)" fill="#CEAC6A"/>
<path d="M42.2307 183.85C42.1221 183.959 41.974 184.02 41.8201 184.02C41.6662 184.02 41.5181 183.959 41.4095 183.85L38.1302 180.57C37.7899 180.23 37.7899 179.678 38.1302 179.338L38.5408 178.928C38.8813 178.587 39.4325 178.587 39.7728 178.928L41.8201 180.975L47.3522 175.443C47.6926 175.102 48.2443 175.102 48.5841 175.443L48.9947 175.853C49.3351 176.194 49.3351 176.745 48.9947 177.085L42.2307 183.85Z" fill="#353535"/>
<rect x="73.625" y="439.25" width="53.625" height="48.75" rx="4.0625" transform="rotate(-180 73.625 439.25)" fill="#403F3F"/>
<path d="M56.5891 415.669L39.7456 415.669L43.2499 419.208C43.5569 419.518 43.5569 420.02 43.2499 420.33C42.9429 420.64 42.4452 420.64 42.1387 420.33L37.2928 415.436C36.9858 415.126 36.9858 414.624 37.2928 414.314L42.1387 409.42C42.2921 409.265 42.4932 409.188 42.6943 409.188C42.8954 409.188 43.0965 409.265 43.2499 409.42C43.557 409.73 43.557 410.232 43.2499 410.542L39.7456 414.081L56.5891 414.081C57.0231 414.081 57.375 414.437 57.375 414.875C57.375 415.313 57.0231 415.669 56.5891 415.669Z" fill="#CEAC6A"/>
<rect x="81.75" y="390.5" width="198.25" height="48.75" rx="4.0625" fill="#CEAC6A"/>
<path d="M137.195 419.76H137.572C137.893 419.587 138.166 419.314 138.391 418.941C138.616 418.56 138.811 417.975 138.976 417.186C139.141 416.397 139.262 415.336 139.34 414.001L139.574 410.595H144.228V419.76H145.333V423.218H143.994L143.877 421.125H138.69L138.56 423.218H137.195V419.76ZM142.408 419.76V411.973H141.082L140.965 414.3C140.904 415.609 140.796 416.623 140.64 417.342C140.493 418.061 140.324 418.573 140.133 418.876C139.942 419.179 139.687 419.474 139.366 419.76H142.408ZM150.041 410.595H152.095L154.201 421.125H152.42L152.004 418.694H150.171L149.742 421.125H147.935L150.041 410.595ZM151.796 417.472L151.081 413.052L150.366 417.472H151.796ZM156.612 419.747C157.054 419.756 157.37 419.686 157.561 419.539C157.76 419.383 157.912 419.036 158.016 418.499C158.12 417.962 158.219 417.039 158.315 415.73L158.653 410.595H163.775V421.125H161.864V412.038H160.343L160.122 415.964C160.035 417.368 159.918 418.412 159.771 419.097C159.623 419.773 159.346 420.284 158.939 420.631C158.54 420.969 157.92 421.138 157.08 421.138C156.88 421.138 156.724 421.134 156.612 421.125V419.747ZM167.481 410.595H171.901V411.947H169.392V414.976H171.368V416.315H169.392V419.812H171.927V421.125H167.481V410.595ZM175.122 410.595H179.542V411.947H177.033V414.976H179.009V416.315H177.033V419.812H179.568V421.125H175.122V410.595Z" fill="#4F4F4F"/>
<path d="M138.137 468.913H134.978V467.379L137.721 460.97H139.814V467.483H140.893V468.913H139.814V471.5H138.137V468.913ZM138.137 467.483V462.907L136.473 467.483H138.137Z" fill="#CEAC6A"/>
<path d="M151.944 460.97H153.114L150.072 471.5H148.902L151.944 460.97ZM164.16 471.656C163.163 471.656 162.47 471.392 162.08 470.863C161.698 470.326 161.508 469.533 161.508 468.484H163.263C163.263 469.082 163.328 469.533 163.458 469.836C163.588 470.139 163.843 470.291 164.225 470.291C164.511 470.291 164.723 470.2 164.862 470.018C165 469.827 165.087 469.576 165.122 469.264C165.165 468.943 165.187 468.501 165.187 467.938C165.187 467.245 165.122 466.733 164.992 466.404C164.862 466.075 164.593 465.91 164.186 465.91C163.943 465.91 163.735 465.992 163.562 466.157C163.397 466.322 163.276 466.547 163.198 466.833H161.651L161.755 460.97H166.487V462.582H163.263L163.159 465.117C163.306 464.952 163.518 464.822 163.796 464.727C164.073 464.623 164.376 464.571 164.706 464.571C165.451 464.571 166.001 464.857 166.357 465.429C166.721 465.992 166.903 466.79 166.903 467.821C166.903 468.627 166.825 469.307 166.669 469.862C166.521 470.417 166.248 470.854 165.85 471.175C165.451 471.496 164.888 471.656 164.16 471.656Z" fill="#A5A5A5"/>
<path d="M205.223 414.081L222.067 414.081L218.563 410.542C218.256 410.232 218.256 409.73 218.563 409.42C218.87 409.11 219.367 409.11 219.674 409.42L224.52 414.314C224.827 414.624 224.827 415.126 224.52 415.436L219.674 420.33C219.52 420.485 219.319 420.562 219.118 420.562C218.917 420.562 218.716 420.485 218.563 420.33C218.256 420.02 218.256 419.518 218.563 419.208L222.067 415.669L205.223 415.669C204.789 415.669 204.437 415.313 204.437 414.875C204.437 414.437 204.789 414.081 205.223 414.081Z" fill="#4F4F4F"/>
<rect x="150.203" y="325.703" width="0.40625" height="48.3437" rx="0.203125" stroke="#A5A5A5" stroke-opacity="0.5" stroke-width="0.40625"/>
</svg>
