<svg width="300" height="530" viewBox="0 0 300 530" fill="none" xmlns="http://www.w3.org/2000/svg">
<rect x="0.5" y="0.5" width="299" height="529" rx="4.5" fill="#353535" stroke="#4F4F4F"/>
<path d="M31.3464 75H29.147V64.0725H23.5523V75H21.3528V62.292H31.3464V75ZM38.8648 75.1746C37.5206 75.1746 36.4296 74.7527 35.5917 73.909C34.7597 73.0595 34.3436 71.9306 34.3436 70.5225V70.2607C34.3436 69.3181 34.524 68.4773 34.8848 67.7383C35.2514 66.9935 35.7634 66.4145 36.4209 66.0014C37.0784 65.5883 37.8116 65.3817 38.6204 65.3817C39.9063 65.3817 40.8984 65.7919 41.5966 66.6124C42.3007 67.4328 42.6527 68.5936 42.6527 70.0948V70.9502H36.482C36.546 71.7299 36.8049 72.3467 37.2588 72.8005C37.7185 73.2544 38.2945 73.4813 38.987 73.4813C39.9587 73.4813 40.75 73.0886 41.361 72.303L42.5043 73.394C42.1261 73.9585 41.6199 74.3978 40.9857 74.712C40.3573 75.0204 39.6503 75.1746 38.8648 75.1746ZM38.6116 67.0837C38.0298 67.0837 37.5585 67.2873 37.1977 67.6946C36.8428 68.1019 36.6158 68.6693 36.5169 69.3966H40.558V69.2395C40.5114 68.5296 40.3223 67.9943 39.9907 67.6335C39.659 67.267 39.1993 67.0837 38.6116 67.0837ZM53.4702 70.3741C53.4702 71.8346 53.1386 73.0013 52.4752 73.8741C51.8119 74.7411 50.9217 75.1746 49.8045 75.1746C48.7687 75.1746 47.9396 74.8342 47.317 74.1534V78.6309H45.1961V65.5563H47.1511L47.2384 66.5164C47.861 65.7599 48.7076 65.3817 49.7783 65.3817C50.9304 65.3817 51.8323 65.8123 52.484 66.6735C53.1415 67.5288 53.4702 68.7187 53.4702 70.2432V70.3741ZM51.3581 70.1909C51.3581 69.2482 51.1689 68.5005 50.7907 67.9478C50.4183 67.395 49.883 67.1186 49.1848 67.1186C48.3178 67.1186 47.6952 67.4764 47.317 68.1921V72.3816C47.701 73.1147 48.3294 73.4813 49.2022 73.4813C49.8772 73.4813 50.4038 73.2108 50.782 72.6696C51.166 72.1227 51.3581 71.2964 51.3581 70.1909ZM60.3252 75.1746C58.9811 75.1746 57.8901 74.7527 57.0522 73.909C56.2202 73.0595 55.8041 71.9306 55.8041 70.5225V70.2607C55.8041 69.3181 55.9845 68.4773 56.3453 67.7383C56.7118 66.9935 57.2239 66.4145 57.8814 66.0014C58.5389 65.5883 59.2721 65.3817 60.0808 65.3817C61.3668 65.3817 62.3589 65.7919 63.0571 66.6124C63.7612 67.4328 64.1132 68.5936 64.1132 70.0948V70.9502H57.9425C58.0065 71.7299 58.2654 72.3467 58.7193 72.8005C59.179 73.2544 59.755 73.4813 60.4474 73.4813C61.4191 73.4813 62.2105 73.0886 62.8214 72.303L63.9648 73.394C63.5866 73.9585 63.0804 74.3978 62.4461 74.712C61.8177 75.0204 61.1108 75.1746 60.3252 75.1746ZM60.0721 67.0837C59.4903 67.0837 59.0189 67.2873 58.6582 67.6946C58.3032 68.1019 58.0763 68.6693 57.9774 69.3966H62.0185V69.2395C61.9719 68.5296 61.7828 67.9943 61.4511 67.6335C61.1195 67.267 60.6598 67.0837 60.0721 67.0837ZM72.5567 65.5563H74.6689V75H72.5567V68.6984L68.856 75H66.7438V65.5563H68.856V71.8579L72.5567 65.5563ZM73.5517 61.9341C73.5517 62.6673 73.2957 63.2608 72.7836 63.7147C72.2716 64.1685 71.5879 64.3954 70.7325 64.3954C69.8772 64.3954 69.1935 64.1685 68.6814 63.7147C68.1694 63.2608 67.9134 62.6673 67.9134 61.9341H69.5019C69.5019 62.3182 69.6095 62.6178 69.8248 62.8331C70.0459 63.0426 70.3485 63.1473 70.7325 63.1473C71.1166 63.1473 71.4162 63.0426 71.6315 62.8331C71.8468 62.6178 71.9545 62.3182 71.9545 61.9341H73.5517ZM77.8581 73.3068C78.4458 72.6493 78.8385 72.0267 79.0364 71.439C79.24 70.8455 79.3622 70.089 79.403 69.1697L79.5251 65.5563H86.0799V73.3068H87.3891V77.8104H85.2769V75H79.2197V77.8104H77.0726L77.0813 73.3068H77.8581ZM80.3456 73.3068H83.9677V67.3804H81.585L81.5239 69.1871C81.4424 70.9211 81.0496 72.2943 80.3456 73.3068ZM95.5358 65.5563H97.648V75H95.5358V68.6984L91.8352 75H89.723V65.5563H91.8352V71.8579L95.5358 65.5563ZM108.23 67.2408H105.166V75H103.045V67.2408H100.017V65.5563H108.23V67.2408ZM114.142 75.1746C112.798 75.1746 111.707 74.7527 110.869 73.909C110.037 73.0595 109.621 71.9306 109.621 70.5225V70.2607C109.621 69.3181 109.802 68.4773 110.162 67.7383C110.529 66.9935 111.041 66.4145 111.698 66.0014C112.356 65.5883 113.089 65.3817 113.898 65.3817C115.184 65.3817 116.176 65.7919 116.874 66.6124C117.578 67.4328 117.93 68.5936 117.93 70.0948V70.9502H111.759C111.824 71.7299 112.082 72.3467 112.536 72.8005C112.996 73.2544 113.572 73.4813 114.264 73.4813C115.236 73.4813 116.028 73.0886 116.638 72.303L117.782 73.394C117.404 73.9585 116.897 74.3978 116.263 74.712C115.635 75.0204 114.928 75.1746 114.142 75.1746ZM113.889 67.0837C113.307 67.0837 112.836 67.2873 112.475 67.6946C112.12 68.1019 111.893 68.6693 111.794 69.3966H115.835V69.2395C115.789 68.5296 115.6 67.9943 115.268 67.6335C114.937 67.267 114.477 67.0837 113.889 67.0837ZM125.984 75V65.5563H129.816C131.108 65.5563 132.091 65.7832 132.766 66.2371C133.441 66.6851 133.779 67.331 133.779 68.1747C133.779 68.6111 133.642 69.0038 133.368 69.353C133.101 69.6963 132.702 69.961 132.173 70.1472C132.789 70.2752 133.278 70.5342 133.639 70.924C134 71.3139 134.18 71.7735 134.18 72.303C134.18 73.1817 133.854 73.8508 133.203 74.3105C132.557 74.7702 131.626 75 130.41 75H125.984ZM128.105 70.9764V73.3242H130.427C131.515 73.3242 132.059 72.9344 132.059 72.1547C132.059 71.3691 131.506 70.9764 130.401 70.9764H128.105ZM128.105 69.4577H129.851C131.055 69.4577 131.658 69.1028 131.658 68.3929C131.658 67.6481 131.087 67.2641 129.947 67.2408H128.105V69.4577ZM145.56 71.9626L147.48 65.5563H149.74L145.987 76.4314C145.411 78.0199 144.434 78.8141 143.055 78.8141C142.746 78.8141 142.406 78.7618 142.034 78.657V77.0162L142.435 77.0424C142.97 77.0424 143.372 76.9434 143.639 76.7456C143.913 76.5536 144.128 76.2277 144.285 75.7681L144.591 74.9564L141.274 65.5563H143.561L145.56 71.9626ZM151.411 73.3068C151.999 72.6493 152.391 72.0267 152.589 71.439C152.793 70.8455 152.915 70.089 152.956 69.1697L153.078 65.5563H159.633V73.3068H160.942V77.8104H158.83V75H152.772V77.8104H150.625L150.634 73.3068H151.411ZM153.898 73.3068H157.521V67.3804H155.138L155.077 69.1871C154.995 70.9211 154.602 72.2943 153.898 73.3068ZM162.953 70.1909C162.953 69.2657 163.136 68.4336 163.503 67.6946C163.869 66.9498 164.384 66.3796 165.048 65.9839C165.711 65.5825 166.473 65.3817 167.334 65.3817C168.609 65.3817 169.641 65.7919 170.433 66.6124C171.23 67.4328 171.661 68.5209 171.725 69.8766L171.733 70.3741C171.733 71.3051 171.553 72.1372 171.192 72.8704C170.837 73.6035 170.325 74.1708 169.656 74.5723C168.993 74.9738 168.225 75.1746 167.352 75.1746C166.019 75.1746 164.952 74.7323 164.149 73.8479C163.351 72.9576 162.953 71.7735 162.953 70.2956V70.1909ZM165.074 70.3741C165.074 71.3459 165.275 72.1081 165.676 72.6609C166.077 73.2078 166.636 73.4813 167.352 73.4813C168.067 73.4813 168.623 73.202 169.019 72.6434C169.42 72.0848 169.621 71.2673 169.621 70.1909C169.621 69.2366 169.415 68.4802 169.001 67.9216C168.594 67.363 168.038 67.0837 167.334 67.0837C166.642 67.0837 166.092 67.3601 165.685 67.9128C165.277 68.4598 165.074 69.2802 165.074 70.3741ZM178.868 66.08C180.055 66.08 181.006 66.4785 181.722 67.2757C182.437 68.067 182.795 69.1435 182.795 70.5051V70.6098C182.795 71.9714 182.405 73.074 181.626 73.9177C180.852 74.7614 179.799 75.1833 178.466 75.1833C177.168 75.1833 176.121 74.7527 175.324 73.8915C174.527 73.0304 174.128 71.855 174.128 70.3654V69.7545C174.128 67.7179 174.489 66.1061 175.211 64.9191C175.932 63.7321 177.008 62.9902 178.44 62.6935C179.243 62.5306 179.761 62.3589 179.993 62.1785C180.232 61.9923 180.351 61.7421 180.351 61.4279H182.062C182.062 62.0156 181.966 62.4927 181.774 62.8593C181.582 63.2259 181.288 63.5256 180.892 63.7583C180.497 63.9852 179.816 64.2005 178.85 64.4042C177.966 64.5904 177.291 64.922 176.825 65.3992C176.366 65.8763 176.057 66.5367 175.9 67.3804C176.744 66.5134 177.733 66.08 178.868 66.08ZM178.449 67.7819C177.762 67.7819 177.224 68.0147 176.834 68.4802C176.444 68.9398 176.249 69.6497 176.249 70.6098C176.249 71.5175 176.441 72.2245 176.825 72.7307C177.209 73.2369 177.756 73.4901 178.466 73.4901C179.17 73.4901 179.714 73.2369 180.098 72.7307C180.488 72.2187 180.683 71.4506 180.683 70.4265C180.683 69.6119 180.488 68.9689 180.098 68.4976C179.714 68.0205 179.164 67.7819 178.449 67.7819ZM193.194 75H191.073V71.1859H187.398V75H185.277V65.5563H187.398V69.4926H191.073V65.5563H193.194V75ZM198.635 68.5587H200.712C201.486 68.5587 202.161 68.6925 202.737 68.9602C203.313 69.2279 203.749 69.6032 204.046 70.0861C204.349 70.5691 204.5 71.1306 204.5 71.7706C204.5 72.7424 204.157 73.5221 203.47 74.1097C202.784 74.6974 201.87 74.9942 200.73 75H196.514V65.5563H198.635V68.5587ZM208.192 75H206.071V65.5563H208.192V75ZM198.635 70.2607V73.3068H200.703C201.221 73.3068 201.629 73.1788 201.925 72.9227C202.228 72.6609 202.379 72.2914 202.379 71.8143C202.379 71.3371 202.231 70.9618 201.934 70.6884C201.643 70.4091 201.247 70.2665 200.747 70.2607H198.635ZM217.526 65.5563H219.638V75H217.526V68.6984L213.825 75H211.713V65.5563H213.825V71.8579L217.526 65.5563ZM218.521 61.9341C218.521 62.6673 218.265 63.2608 217.753 63.7147C217.241 64.1685 216.557 64.3954 215.702 64.3954C214.846 64.3954 214.163 64.1685 213.65 63.7147C213.138 63.2608 212.882 62.6673 212.882 61.9341H214.471C214.471 62.3182 214.579 62.6178 214.794 62.8331C215.015 63.0426 215.318 63.1473 215.702 63.1473C216.086 63.1473 216.385 63.0426 216.601 62.8331C216.816 62.6178 216.923 62.3182 216.923 61.9341H218.521ZM26.6944 99.3903L29.4874 92.5563H32.1407V102H30.0198V95.7507L27.4188 102H25.9787L23.369 95.7158V102H21.2481V92.5563H23.9189L26.6944 99.3903ZM39.5805 102.175C38.2363 102.175 37.1453 101.753 36.3074 100.909C35.4754 100.059 35.0593 98.9306 35.0593 97.5225V97.2607C35.0593 96.3181 35.2397 95.4773 35.6005 94.7383C35.9671 93.9935 36.4791 93.4145 37.1366 93.0014C37.7941 92.5883 38.5273 92.3817 39.3361 92.3817C40.622 92.3817 41.6141 92.7919 42.3123 93.6124C43.0164 94.4328 43.3684 95.5936 43.3684 97.0948V97.9502H37.1977C37.2617 98.7299 37.5206 99.3467 37.9745 99.8005C38.4342 100.254 39.0102 100.481 39.7026 100.481C40.6744 100.481 41.4657 100.089 42.0767 99.303L43.22 100.394C42.8418 100.958 42.3356 101.398 41.7014 101.712C41.0729 102.02 40.366 102.175 39.5805 102.175ZM39.3273 94.0837C38.7455 94.0837 38.2742 94.2873 37.9134 94.6946C37.5585 95.1019 37.3315 95.6693 37.2326 96.3966H41.2737V96.2395C41.2271 95.5296 41.038 94.9943 40.7064 94.6335C40.3747 94.267 39.915 94.0837 39.3273 94.0837ZM49.7957 100.481C50.3252 100.481 50.7646 100.327 51.1137 100.019C51.4628 99.7103 51.649 99.3292 51.6723 98.8754H53.671C53.6477 99.4631 53.4644 100.013 53.1211 100.525C52.7778 101.031 52.3123 101.433 51.7246 101.729C51.1369 102.026 50.5027 102.175 49.8219 102.175C48.5011 102.175 47.4537 101.747 46.6798 100.892C45.9059 100.036 45.519 98.855 45.519 97.348V97.1298C45.519 95.6925 45.903 94.5434 46.6711 93.6822C47.4392 92.8152 48.4865 92.3817 49.8132 92.3817C50.9362 92.3817 51.8497 92.7105 52.5538 93.368C53.2637 94.0197 53.6361 94.8779 53.671 95.9427H51.6723C51.649 95.4016 51.4628 94.9565 51.1137 94.6074C50.7704 94.2582 50.3311 94.0837 49.7957 94.0837C49.1091 94.0837 48.5796 94.3339 48.2072 94.8343C47.8348 95.3289 47.6457 96.0824 47.6399 97.0948V97.4352C47.6399 98.4593 47.8232 99.2245 48.1898 99.7307C48.5622 100.231 49.0975 100.481 49.7957 100.481ZM60.0459 100.481C60.5754 100.481 61.0147 100.327 61.3639 100.019C61.713 99.7103 61.8992 99.3292 61.9225 98.8754H63.9212C63.8979 99.4631 63.7146 100.013 63.3713 100.525C63.028 101.031 62.5625 101.433 61.9748 101.729C61.3871 102.026 60.7529 102.175 60.0721 102.175C58.7513 102.175 57.7039 101.747 56.93 100.892C56.1561 100.036 55.7692 98.855 55.7692 97.348V97.1298C55.7692 95.6925 56.1532 94.5434 56.9213 93.6822C57.6894 92.8152 58.7367 92.3817 60.0634 92.3817C61.1864 92.3817 62.0999 92.7105 62.804 93.368C63.5139 94.0197 63.8863 94.8779 63.9212 95.9427H61.9225C61.8992 95.4016 61.713 94.9565 61.3639 94.6074C61.0206 94.2582 60.5813 94.0837 60.0459 94.0837C59.3593 94.0837 58.8298 94.3339 58.4574 94.8343C58.085 95.3289 57.8959 96.0824 57.8901 97.0948V97.4352C57.8901 98.4593 58.0734 99.2245 58.44 99.7307C58.8124 100.231 59.3477 100.481 60.0459 100.481ZM70.5754 102.175C69.2313 102.175 68.1403 101.753 67.3024 100.909C66.4703 100.059 66.0543 98.9306 66.0543 97.5225V97.2607C66.0543 96.3181 66.2347 95.4773 66.5954 94.7383C66.962 93.9935 67.4741 93.4145 68.1316 93.0014C68.7891 92.5883 69.5222 92.3817 70.331 92.3817C71.617 92.3817 72.6091 92.7919 73.3073 93.6124C74.0114 94.4328 74.3634 95.5936 74.3634 97.0948V97.9502H68.1927C68.2567 98.7299 68.5156 99.3467 68.9695 99.8005C69.4291 100.254 70.0052 100.481 70.6976 100.481C71.6693 100.481 72.4607 100.089 73.0716 99.303L74.215 100.394C73.8368 100.958 73.3306 101.398 72.6963 101.712C72.0679 102.02 71.361 102.175 70.5754 102.175ZM70.3223 94.0837C69.7404 94.0837 69.2691 94.2873 68.9084 94.6946C68.5534 95.1019 68.3265 95.6693 68.2276 96.3966H72.2687V96.2395C72.2221 95.5296 72.033 94.9943 71.7013 94.6335C71.3697 94.267 70.91 94.0837 70.3223 94.0837ZM84.9103 102H82.7894V98.1859H79.1149V102H76.994V92.5563H79.1149V96.4926H82.7894V92.5563H84.9103V102ZM88.1083 100.307C88.696 99.6493 89.0887 99.0267 89.2866 98.439C89.4902 97.8455 89.6124 97.089 89.6532 96.1697L89.7753 92.5563H96.3301V100.307H97.6393V104.81H95.5271V102H89.4699V104.81H87.3228L87.3315 100.307H88.1083ZM90.5958 100.307H94.2179V94.3804H91.8352L91.7741 96.1871C91.6926 97.9211 91.2998 99.2943 90.5958 100.307ZM108.361 98.2033H107.235V102H105.114V98.2033H103.997L101.824 102H99.2226L102.356 97.0861L99.3884 92.5563H101.981L104.119 96.2657H105.114V92.5563H107.235V96.2657H108.239L110.386 92.5563H112.978L110.019 97.0599L113.17 102H110.534L108.361 98.2033ZM119.362 102.175C118.017 102.175 116.926 101.753 116.089 100.909C115.257 100.059 114.84 98.9306 114.84 97.5225V97.2607C114.84 96.3181 115.021 95.4773 115.382 94.7383C115.748 93.9935 116.26 93.4145 116.918 93.0014C117.575 92.5883 118.308 92.3817 119.117 92.3817C120.403 92.3817 121.395 92.7919 122.093 93.6124C122.798 94.4328 123.15 95.5936 123.15 97.0948V97.9502H116.979C117.043 98.7299 117.302 99.3467 117.756 99.8005C118.215 100.254 118.791 100.481 119.484 100.481C120.456 100.481 121.247 100.089 121.858 99.303L123.001 100.394C122.623 100.958 122.117 101.398 121.483 101.712C120.854 102.02 120.147 102.175 119.362 102.175ZM119.108 94.0837C118.527 94.0837 118.055 94.2873 117.695 94.6946C117.34 95.1019 117.113 95.6693 117.014 96.3966H121.055V96.2395C121.008 95.5296 120.819 94.9943 120.488 94.6335C120.156 94.267 119.696 94.0837 119.108 94.0837ZM133.967 97.3741C133.967 98.8346 133.635 100.001 132.972 100.874C132.309 101.741 131.419 102.175 130.301 102.175C129.266 102.175 128.436 101.834 127.814 101.153V105.631H125.693V92.5563H127.648L127.735 93.5164C128.358 92.7599 129.204 92.3817 130.275 92.3817C131.427 92.3817 132.329 92.8123 132.981 93.6735C133.638 94.5288 133.967 95.7187 133.967 97.2432V97.3741ZM131.855 97.1909C131.855 96.2482 131.666 95.5005 131.288 94.9478C130.915 94.395 130.38 94.1186 129.682 94.1186C128.815 94.1186 128.192 94.4764 127.814 95.1921V99.3816C128.198 100.115 128.826 100.481 129.699 100.481C130.374 100.481 130.901 100.211 131.279 99.6696C131.663 99.1227 131.855 98.2964 131.855 97.1909ZM147.904 92.5563H150.016V102H147.904V95.6984L144.203 102H142.091V92.5563H144.203V98.8579L147.904 92.5563ZM166.519 102H164.398V94.267H160.715V102H158.594V92.5563H166.519V102ZM169.272 97.1909C169.272 96.2657 169.455 95.4336 169.822 94.6946C170.188 93.9498 170.703 93.3796 171.367 92.9839C172.03 92.5825 172.792 92.3817 173.653 92.3817C174.928 92.3817 175.961 92.7919 176.752 93.6124C177.549 94.4328 177.98 95.5209 178.044 96.8766L178.052 97.3741C178.052 98.3051 177.872 99.1372 177.511 99.8704C177.156 100.604 176.644 101.171 175.975 101.572C175.312 101.974 174.544 102.175 173.671 102.175C172.338 102.175 171.271 101.732 170.468 100.848C169.671 99.9576 169.272 98.7735 169.272 97.2956V97.1909ZM171.393 97.3741C171.393 98.3459 171.594 99.1081 171.995 99.6609C172.397 100.208 172.955 100.481 173.671 100.481C174.387 100.481 174.942 100.202 175.338 99.6434C175.739 99.0848 175.94 98.2673 175.94 97.1909C175.94 96.2366 175.734 95.4802 175.32 94.9216C174.913 94.363 174.357 94.0837 173.653 94.0837C172.961 94.0837 172.411 94.3601 172.004 94.9128C171.597 95.4598 171.393 96.2802 171.393 97.3741ZM188.625 92.5563V102H186.505V94.267H183.834L183.659 97.5574C183.549 99.1401 183.243 100.278 182.743 100.97C182.248 101.657 181.489 102 180.465 102H179.81L179.801 100.237L180.238 100.193C180.703 100.129 181.041 99.8471 181.25 99.3467C181.466 98.8405 181.602 97.9211 181.661 96.5886L181.835 92.5563H188.625ZM195.079 98.9626L196.999 92.5563H199.26L195.507 103.431C194.931 105.02 193.953 105.814 192.574 105.814C192.266 105.814 191.925 105.762 191.553 105.657V104.016L191.954 104.042C192.49 104.042 192.891 103.943 193.159 103.746C193.432 103.554 193.648 103.228 193.805 102.768L194.11 101.956L190.794 92.5563H193.08L195.079 98.9626ZM208.951 102H206.83V98.8492C206.283 98.9772 205.707 99.0412 205.102 99.0412C203.811 99.0412 202.824 98.7328 202.143 98.116C201.463 97.4934 201.122 96.6032 201.122 95.4453V92.5475H203.243V95.4453C203.243 96.1319 203.394 96.6177 203.697 96.9028C204.005 97.1879 204.474 97.3305 205.102 97.3305C205.672 97.3305 206.249 97.2636 206.83 97.1298V92.5563H208.951V102ZM217.997 92.5563H220.109V102H217.997V95.6984L214.296 102H212.184V92.5563H214.296V98.8579L217.997 92.5563ZM230.691 94.2408H227.628V102H225.507V94.2408H222.478V92.5563H230.691V94.2408ZM236.603 102.175C235.259 102.175 234.168 101.753 233.33 100.909C232.498 100.059 232.082 98.9306 232.082 97.5225V97.2607C232.082 96.3181 232.263 95.4773 232.623 94.7383C232.99 93.9935 233.502 93.4145 234.16 93.0014C234.817 92.5883 235.55 92.3817 236.359 92.3817C237.645 92.3817 238.637 92.7919 239.335 93.6124C240.039 94.4328 240.391 95.5936 240.391 97.0948V97.9502H234.221C234.285 98.7299 234.544 99.3467 234.997 99.8005C235.457 100.254 236.033 100.481 236.726 100.481C237.697 100.481 238.489 100.089 239.1 99.303L240.243 100.394C239.865 100.958 239.359 101.398 238.724 101.712C238.096 102.02 237.389 102.175 236.603 102.175ZM236.35 94.0837C235.768 94.0837 235.297 94.2873 234.936 94.6946C234.581 95.1019 234.355 95.6693 234.256 96.3966H238.297V96.2395C238.25 95.5296 238.061 94.9943 237.729 94.6335C237.398 94.267 236.938 94.0837 236.35 94.0837ZM244.218 99.7656C244.613 99.7656 244.919 99.8791 245.134 100.106C245.35 100.327 245.457 100.606 245.457 100.944C245.457 101.276 245.35 101.552 245.134 101.773C244.919 101.988 244.613 102.096 244.218 102.096C243.84 102.096 243.54 101.988 243.319 101.773C243.098 101.558 242.987 101.281 242.987 100.944C242.987 100.606 243.095 100.327 243.31 100.106C243.525 99.8791 243.828 99.7656 244.218 99.7656ZM244.218 92.3555C244.613 92.3555 244.919 92.469 245.134 92.6959C245.35 92.917 245.457 93.1963 245.457 93.5338C245.457 93.8655 245.35 94.1419 245.134 94.363C244.919 94.5783 244.613 94.6859 244.218 94.6859C243.84 94.6859 243.54 94.5783 243.319 94.363C243.098 94.1477 242.987 93.8713 242.987 93.5338C242.987 93.1963 243.095 92.917 243.31 92.6959C243.525 92.469 243.828 92.3555 244.218 92.3555Z" fill="#CEAC6A"/>
<path d="M39.5952 142.849H38.4717V147H37.2529V137.758H38.4717V141.833H39.4238L42.6548 137.758H44.1719L40.6426 142.239L44.4321 147H42.9404L39.5952 142.849ZM44.8765 143.502C44.8765 142.83 45.0077 142.224 45.27 141.687C45.5366 141.15 45.9048 140.735 46.3745 140.443C46.8485 140.151 47.388 140.005 47.9932 140.005C48.9284 140.005 49.6838 140.329 50.2593 140.976C50.839 141.624 51.1289 142.485 51.1289 143.56V143.642C51.1289 144.311 50.9998 144.912 50.7417 145.445C50.4878 145.974 50.1217 146.386 49.6436 146.683C49.1696 146.979 48.6237 147.127 48.0059 147.127C47.0749 147.127 46.3195 146.803 45.7397 146.156C45.1642 145.508 44.8765 144.651 44.8765 143.585V143.502ZM46.0571 143.642C46.0571 144.404 46.2327 145.015 46.584 145.477C46.9395 145.938 47.4134 146.168 48.0059 146.168C48.6025 146.168 49.0765 145.936 49.4277 145.47C49.779 145 49.9546 144.345 49.9546 143.502C49.9546 142.749 49.7747 142.14 49.415 141.674C49.0596 141.205 48.5856 140.97 47.9932 140.97C47.4134 140.97 46.9458 141.2 46.5903 141.662C46.2349 142.123 46.0571 142.783 46.0571 143.642ZM52.0874 146.042L52.4937 145.54C52.9507 144.948 53.2109 144.059 53.2744 142.874L53.3823 140.132H57.8066V146.042H58.689V149.019H57.5147V147H52.7222V149.019H51.5479L51.5542 146.042H52.0874ZM53.4775 146.042H56.6323V141.217H54.5186L54.4487 142.855C54.3768 144.222 54.0531 145.284 53.4775 146.042ZM63.1577 146.042L63.564 145.54C64.021 144.948 64.2813 144.059 64.3447 142.874L64.4526 140.132H68.877V146.042H69.7593V149.019H68.585V147H63.7925V149.019H62.6182L62.6245 146.042H63.1577ZM64.5479 146.042H67.7026V141.217H65.5889L65.519 142.855C65.4471 144.222 65.1234 145.284 64.5479 146.042ZM70.7495 143.502C70.7495 142.83 70.8807 142.224 71.1431 141.687C71.4097 141.15 71.7778 140.735 72.2476 140.443C72.7215 140.151 73.2611 140.005 73.8662 140.005C74.8014 140.005 75.5568 140.329 76.1323 140.976C76.7121 141.624 77.002 142.485 77.002 143.56V143.642C77.002 144.311 76.8729 144.912 76.6148 145.445C76.3608 145.974 75.9948 146.386 75.5166 146.683C75.0426 146.979 74.4967 147.127 73.8789 147.127C72.9479 147.127 72.1925 146.803 71.6128 146.156C71.0373 145.508 70.7495 144.651 70.7495 143.585V143.502ZM71.9302 143.642C71.9302 144.404 72.1058 145.015 72.457 145.477C72.8125 145.938 73.2865 146.168 73.8789 146.168C74.4756 146.168 74.9495 145.936 75.3008 145.47C75.652 145 75.8276 144.345 75.8276 143.502C75.8276 142.749 75.6478 142.14 75.2881 141.674C74.9326 141.205 74.4587 140.97 73.8662 140.97C73.2865 140.97 72.8189 141.2 72.4634 141.662C72.1079 142.123 71.9302 142.783 71.9302 143.642ZM81.2295 146.168C81.6484 146.168 82.0145 146.042 82.3276 145.788C82.6408 145.534 82.8143 145.216 82.8481 144.835H83.959C83.9378 145.229 83.8024 145.604 83.5527 145.959C83.3031 146.314 82.9688 146.598 82.5498 146.81C82.1351 147.021 81.695 147.127 81.2295 147.127C80.2943 147.127 79.5495 146.816 78.9951 146.194C78.445 145.568 78.1699 144.713 78.1699 143.629V143.433C78.1699 142.764 78.2926 142.169 78.5381 141.649C78.7835 141.128 79.1348 140.724 79.5918 140.437C80.0531 140.149 80.5968 140.005 81.2231 140.005C81.9933 140.005 82.6323 140.236 83.1401 140.697C83.6522 141.158 83.9251 141.757 83.959 142.493H82.8481C82.8143 142.049 82.645 141.685 82.3403 141.401C82.0399 141.114 81.6675 140.97 81.2231 140.97C80.6265 140.97 80.1631 141.186 79.833 141.617C79.5072 142.045 79.3442 142.665 79.3442 143.477V143.699C79.3442 144.491 79.5072 145.1 79.833 145.527C80.1589 145.955 80.6244 146.168 81.2295 146.168ZM90.3828 141.084H88.0786V147H86.9043V141.084H84.6445V140.132H90.3828V141.084ZM93.8486 145.28L95.4483 140.132H96.7051L93.9439 148.06C93.5164 149.203 92.8372 149.774 91.9063 149.774L91.6841 149.755L91.2461 149.672V148.72L91.5635 148.746C91.9613 148.746 92.2702 148.665 92.4902 148.504C92.7145 148.344 92.8986 148.049 93.0425 147.622L93.3027 146.924L90.8525 140.132H92.1348L93.8486 145.28ZM103.376 147H102.202V141.103H99.041V147H97.8604V140.132H103.376V147ZM109.502 147C109.434 146.865 109.379 146.623 109.337 146.276C108.791 146.843 108.139 147.127 107.382 147.127C106.705 147.127 106.148 146.937 105.712 146.556C105.281 146.171 105.065 145.684 105.065 145.096C105.065 144.381 105.336 143.826 105.877 143.433C106.423 143.035 107.189 142.836 108.175 142.836H109.318V142.296C109.318 141.886 109.195 141.56 108.95 141.319C108.704 141.073 108.342 140.951 107.864 140.951C107.445 140.951 107.094 141.056 106.811 141.268C106.527 141.48 106.385 141.736 106.385 142.036H105.205C105.205 141.693 105.325 141.363 105.566 141.046C105.812 140.724 106.142 140.47 106.557 140.284C106.976 140.098 107.435 140.005 107.934 140.005C108.725 140.005 109.345 140.204 109.794 140.602C110.243 140.995 110.475 141.539 110.492 142.233V145.394C110.492 146.025 110.573 146.526 110.733 146.898V147H109.502ZM107.553 146.105C107.921 146.105 108.271 146.01 108.601 145.819C108.931 145.629 109.17 145.381 109.318 145.077V143.667H108.397C106.959 143.667 106.239 144.089 106.239 144.931C106.239 145.299 106.362 145.587 106.607 145.794C106.853 146.001 107.168 146.105 107.553 146.105ZM115.666 147V140.132H118.344C119.258 140.132 119.959 140.293 120.445 140.614C120.936 140.932 121.182 141.399 121.182 142.017C121.182 142.334 121.086 142.622 120.896 142.88C120.706 143.134 120.424 143.329 120.052 143.464C120.466 143.562 120.799 143.752 121.048 144.036C121.302 144.319 121.429 144.658 121.429 145.051C121.429 145.682 121.196 146.164 120.731 146.499C120.27 146.833 119.616 147 118.77 147H115.666ZM116.84 143.985V146.054H118.782C119.273 146.054 119.639 145.963 119.88 145.781C120.126 145.599 120.249 145.343 120.249 145.013C120.249 144.328 119.745 143.985 118.738 143.985H116.84ZM116.84 143.045H118.357C119.457 143.045 120.007 142.724 120.007 142.081C120.007 141.437 119.487 141.105 118.446 141.084H116.84V143.045ZM128.348 144.074H127.491V147H126.311V140.132H127.491V143.039H128.259L130.57 140.132H131.992L129.275 143.433L132.22 147H130.729L128.348 144.074ZM137.47 147C137.402 146.865 137.347 146.623 137.305 146.276C136.759 146.843 136.107 147.127 135.35 147.127C134.673 147.127 134.116 146.937 133.68 146.556C133.249 146.171 133.033 145.684 133.033 145.096C133.033 144.381 133.304 143.826 133.845 143.433C134.391 143.035 135.157 142.836 136.143 142.836H137.286V142.296C137.286 141.886 137.163 141.56 136.917 141.319C136.672 141.073 136.31 140.951 135.832 140.951C135.413 140.951 135.062 141.056 134.778 141.268C134.495 141.48 134.353 141.736 134.353 142.036H133.172C133.172 141.693 133.293 141.363 133.534 141.046C133.78 140.724 134.11 140.47 134.524 140.284C134.943 140.098 135.403 140.005 135.902 140.005C136.693 140.005 137.313 140.204 137.762 140.602C138.21 140.995 138.443 141.539 138.46 142.233V145.394C138.46 146.025 138.54 146.526 138.701 146.898V147H137.47ZM135.521 146.105C135.889 146.105 136.238 146.01 136.568 145.819C136.898 145.629 137.138 145.381 137.286 145.077V143.667H136.365C134.926 143.667 134.207 144.089 134.207 144.931C134.207 145.299 134.33 145.587 134.575 145.794C134.821 146.001 135.136 146.105 135.521 146.105ZM145.303 141.084H142.999V147H141.824V141.084H139.564V140.132H145.303V141.084ZM150.584 147C150.516 146.865 150.461 146.623 150.419 146.276C149.873 146.843 149.221 147.127 148.464 147.127C147.787 147.127 147.23 146.937 146.794 146.556C146.363 146.171 146.147 145.684 146.147 145.096C146.147 144.381 146.418 143.826 146.959 143.433C147.505 143.035 148.271 142.836 149.257 142.836H150.4V142.296C150.4 141.886 150.277 141.56 150.032 141.319C149.786 141.073 149.424 140.951 148.946 140.951C148.527 140.951 148.176 141.056 147.893 141.268C147.609 141.48 147.467 141.736 147.467 142.036H146.287C146.287 141.693 146.407 141.363 146.648 141.046C146.894 140.724 147.224 140.47 147.639 140.284C148.058 140.098 148.517 140.005 149.016 140.005C149.807 140.005 150.427 140.204 150.876 140.602C151.325 140.995 151.557 141.539 151.574 142.233V145.394C151.574 146.025 151.655 146.526 151.815 146.898V147H150.584ZM148.635 146.105C149.003 146.105 149.353 146.01 149.683 145.819C150.013 145.629 150.252 145.381 150.4 145.077V143.667H149.48C148.041 143.667 147.321 144.089 147.321 144.931C147.321 145.299 147.444 145.587 147.689 145.794C147.935 146.001 148.25 146.105 148.635 146.105ZM159.045 140.132V147H157.865V141.103H155.529L155.389 143.674C155.313 144.854 155.114 145.699 154.792 146.207C154.475 146.714 153.969 146.979 153.275 147H152.806V145.965L153.142 145.94C153.523 145.898 153.796 145.678 153.961 145.28C154.126 144.882 154.232 144.146 154.278 143.071L154.405 140.132H159.045ZM160.62 143.502C160.62 142.83 160.751 142.224 161.013 141.687C161.28 141.15 161.648 140.735 162.118 140.443C162.592 140.151 163.131 140.005 163.736 140.005C164.672 140.005 165.427 140.329 166.002 140.976C166.582 141.624 166.872 142.485 166.872 143.56V143.642C166.872 144.311 166.743 144.912 166.485 145.445C166.231 145.974 165.865 146.386 165.387 146.683C164.913 146.979 164.367 147.127 163.749 147.127C162.818 147.127 162.063 146.803 161.483 146.156C160.907 145.508 160.62 144.651 160.62 143.585V143.502ZM161.8 143.642C161.8 144.404 161.976 145.015 162.327 145.477C162.683 145.938 163.157 146.168 163.749 146.168C164.346 146.168 164.82 145.936 165.171 145.47C165.522 145 165.698 144.345 165.698 143.502C165.698 142.749 165.518 142.14 165.158 141.674C164.803 141.205 164.329 140.97 163.736 140.97C163.157 140.97 162.689 141.2 162.334 141.662C161.978 142.123 161.8 142.783 161.8 143.642ZM172.782 141.103H169.614V147H168.434V140.132H172.782V141.103ZM177.904 137.129L178.577 137.586C178.184 138.124 177.98 138.704 177.968 139.326V140.189H176.8V139.453C176.8 139.021 176.901 138.594 177.105 138.17C177.312 137.747 177.578 137.4 177.904 137.129ZM179.904 137.129L180.577 137.586C180.183 138.124 179.98 138.704 179.967 139.326V140.189H178.799V139.453C178.799 139.021 178.901 138.594 179.104 138.17C179.311 137.747 179.578 137.4 179.904 137.129ZM188.194 138.761H185.223V147H184.011V138.761H181.046V137.758H188.194V138.761ZM188.435 143.502C188.435 142.83 188.566 142.224 188.829 141.687C189.095 141.15 189.463 140.735 189.933 140.443C190.407 140.151 190.947 140.005 191.552 140.005C192.487 140.005 193.242 140.329 193.818 140.976C194.398 141.624 194.688 142.485 194.688 143.56V143.642C194.688 144.311 194.558 144.912 194.3 145.445C194.046 145.974 193.68 146.386 193.202 146.683C192.728 146.979 192.182 147.127 191.564 147.127C190.633 147.127 189.878 146.803 189.298 146.156C188.723 145.508 188.435 144.651 188.435 143.585V143.502ZM189.616 143.642C189.616 144.404 189.791 145.015 190.143 145.477C190.498 145.938 190.972 146.168 191.564 146.168C192.161 146.168 192.635 145.936 192.986 145.47C193.338 145 193.513 144.345 193.513 143.502C193.513 142.749 193.333 142.14 192.974 141.674C192.618 141.205 192.144 140.97 191.552 140.97C190.972 140.97 190.504 141.2 190.149 141.662C189.793 142.123 189.616 142.783 189.616 143.642ZM201.778 147H200.604V141.103H197.442V147H196.262V140.132H201.778V147ZM206.107 143.553H203.009V142.595H206.107V143.553ZM207.675 142.366L208.145 137.758H212.88V138.843H209.141L208.862 141.363C209.315 141.097 209.829 140.963 210.404 140.963C211.246 140.963 211.915 141.243 212.41 141.801C212.905 142.356 213.153 143.107 213.153 144.055C213.153 145.007 212.895 145.758 212.378 146.308C211.866 146.854 211.149 147.127 210.227 147.127C209.41 147.127 208.743 146.901 208.227 146.448C207.711 145.995 207.417 145.369 207.345 144.569H208.456C208.528 145.098 208.716 145.498 209.021 145.769C209.325 146.035 209.727 146.168 210.227 146.168C210.772 146.168 211.2 145.982 211.509 145.61C211.822 145.237 211.979 144.723 211.979 144.067C211.979 143.45 211.809 142.954 211.471 142.582C211.136 142.205 210.69 142.017 210.131 142.017C209.619 142.017 209.217 142.129 208.925 142.354L208.614 142.607L207.675 142.366ZM220.23 143.058C220.23 144.433 219.996 145.455 219.526 146.124C219.056 146.793 218.322 147.127 217.323 147.127C216.337 147.127 215.607 146.801 215.133 146.149C214.659 145.493 214.414 144.516 214.397 143.217V141.649C214.397 140.291 214.632 139.281 215.102 138.621C215.571 137.961 216.308 137.631 217.311 137.631C218.305 137.631 219.037 137.95 219.507 138.589C219.977 139.224 220.218 140.206 220.23 141.535V143.058ZM219.056 141.452C219.056 140.458 218.917 139.734 218.637 139.281C218.358 138.824 217.916 138.596 217.311 138.596C216.71 138.596 216.272 138.822 215.997 139.275C215.722 139.728 215.58 140.424 215.571 141.363V143.242C215.571 144.241 215.715 144.979 216.003 145.458C216.295 145.931 216.735 146.168 217.323 146.168C217.903 146.168 218.333 145.944 218.612 145.496C218.895 145.047 219.043 144.34 219.056 143.375V141.452ZM231.758 142.785H230.768V147H229.549V142.785H228.501L225.886 147H224.363L227.473 142.125L224.604 137.758H226.045L228.501 141.77H229.549V137.758H230.768V141.77H231.771L234.227 137.758H235.662L232.792 142.119L235.903 147H234.386L231.758 142.785ZM239.47 142.849H238.347V147H237.128V137.758H238.347V141.833H239.299L242.53 137.758H244.047L240.518 142.239L244.307 147H242.815L239.47 142.849ZM26.1763 164.588H22.3042L21.4346 167H20.1777L23.707 157.758H24.7734L28.3091 167H27.0586L26.1763 164.588ZM22.6724 163.585H25.8145L24.2402 159.262L22.6724 163.585ZM35.1138 160.132V167H33.9331V161.103H31.5972L31.4575 163.674C31.3813 164.854 31.1825 165.699 30.8608 166.207C30.5435 166.714 30.0378 166.979 29.3438 167H28.874V165.965L29.2105 165.94C29.5913 165.898 29.8643 165.678 30.0293 165.28C30.1943 164.882 30.3001 164.146 30.3467 163.071L30.4736 160.132H35.1138ZM41.2393 167C41.1716 166.865 41.1165 166.623 41.0742 166.276C40.5283 166.843 39.8766 167.127 39.1191 167.127C38.4421 167.127 37.8856 166.937 37.4497 166.556C37.0181 166.171 36.8022 165.684 36.8022 165.096C36.8022 164.381 37.0731 163.826 37.6147 163.433C38.1606 163.035 38.9266 162.836 39.9126 162.836H41.0552V162.296C41.0552 161.886 40.9325 161.56 40.687 161.319C40.4416 161.073 40.0798 160.951 39.6016 160.951C39.1826 160.951 38.8314 161.056 38.5479 161.268C38.2643 161.48 38.1226 161.736 38.1226 162.036H36.9419C36.9419 161.693 37.0625 161.363 37.3037 161.046C37.5492 160.724 37.8792 160.47 38.2939 160.284C38.7129 160.098 39.172 160.005 39.6714 160.005C40.4627 160.005 41.0827 160.204 41.5313 160.602C41.9798 160.995 42.2126 161.539 42.2295 162.233V165.394C42.2295 166.025 42.3099 166.526 42.4707 166.898V167H41.2393ZM39.2905 166.105C39.6587 166.105 40.0078 166.01 40.3379 165.819C40.668 165.629 40.9071 165.381 41.0552 165.077V163.667H40.1348C38.696 163.667 37.9766 164.089 37.9766 164.931C37.9766 165.299 38.0993 165.587 38.3447 165.794C38.5902 166.001 38.9054 166.105 39.2905 166.105ZM49.6816 167H48.5073V164.067H45.3525V167H44.1719V160.132H45.3525V163.109H48.5073V160.132H49.6816V167ZM56.0166 160.132H57.1909V167H56.0166V161.992L52.8491 167H51.6748V160.132H52.8491V165.146L56.0166 160.132ZM63.5195 160.132H64.6939V167H63.5195V161.992L60.3521 167H59.1777V160.132H60.3521V165.146L63.5195 160.132ZM66.7378 160.36L66.0713 159.903C66.4648 159.353 66.668 158.773 66.6807 158.164V157.25H67.8423V158.075C67.8381 158.498 67.7323 158.922 67.5249 159.345C67.3218 159.764 67.0594 160.102 66.7378 160.36ZM68.6865 160.36L68.02 159.903C68.4136 159.353 68.6167 158.773 68.6294 158.164V157.25H69.791V158.075C69.7868 158.498 69.681 158.922 69.4736 159.345C69.2705 159.764 69.0081 160.102 68.6865 160.36ZM44.2544 207H43.0293V198.761H38.4717V207H37.2529V197.758H44.2544V207ZM49.1421 207.127C48.2111 207.127 47.4536 206.822 46.8696 206.213C46.2856 205.599 45.9937 204.78 45.9937 203.756V203.541C45.9937 202.859 46.1227 202.252 46.3809 201.719C46.6432 201.181 47.0072 200.762 47.4727 200.462C47.9424 200.157 48.4502 200.005 48.9961 200.005C49.889 200.005 50.583 200.299 51.0781 200.887C51.5732 201.475 51.8208 202.318 51.8208 203.414V203.902H47.168C47.1849 204.579 47.3817 205.127 47.7583 205.546C48.1392 205.961 48.6216 206.168 49.2056 206.168C49.6203 206.168 49.9715 206.084 50.2593 205.915C50.547 205.745 50.7988 205.521 51.0147 205.242L51.7319 205.8C51.1564 206.685 50.2931 207.127 49.1421 207.127ZM48.9961 200.97C48.5221 200.97 48.1244 201.143 47.8027 201.49C47.4811 201.833 47.2822 202.315 47.2061 202.937H50.6465V202.849C50.6126 202.252 50.4518 201.791 50.1641 201.465C49.8763 201.135 49.487 200.97 48.9961 200.97ZM58.9873 203.642C58.9873 204.687 58.7482 205.529 58.27 206.168C57.7918 206.807 57.1444 207.127 56.3276 207.127C55.494 207.127 54.8381 206.862 54.3599 206.333V209.641H53.1856V200.132H54.2583L54.3154 200.894C54.7936 200.301 55.458 200.005 56.3086 200.005C57.1338 200.005 57.7855 200.316 58.2637 200.938C58.7461 201.56 58.9873 202.425 58.9873 203.534V203.642ZM57.813 203.509C57.813 202.734 57.648 202.123 57.3179 201.674C56.9878 201.226 56.535 201.001 55.9595 201.001C55.2485 201.001 54.7153 201.317 54.3599 201.947V205.229C54.7111 205.855 55.2485 206.168 55.9722 206.168C56.535 206.168 56.9814 205.946 57.3115 205.502C57.6458 205.053 57.813 204.389 57.813 203.509ZM63.2402 206.168C63.6592 206.168 64.0252 206.042 64.3384 205.788C64.6515 205.534 64.825 205.216 64.8589 204.835H65.9697C65.9486 205.229 65.8132 205.604 65.5635 205.959C65.3138 206.314 64.9795 206.598 64.5606 206.81C64.1458 207.021 63.7057 207.127 63.2402 207.127C62.305 207.127 61.5602 206.816 61.0059 206.194C60.4557 205.568 60.1807 204.713 60.1807 203.629V203.433C60.1807 202.764 60.3034 202.169 60.5488 201.649C60.7943 201.128 61.1455 200.724 61.6025 200.437C62.0638 200.149 62.6076 200.005 63.2339 200.005C64.0041 200.005 64.6431 200.236 65.1509 200.697C65.6629 201.158 65.9359 201.757 65.9697 202.493H64.8589C64.825 202.049 64.6558 201.685 64.3511 201.401C64.0506 201.114 63.6782 200.97 63.2339 200.97C62.6372 200.97 62.1738 201.186 61.8438 201.617C61.5179 202.045 61.355 202.665 61.355 203.477V203.699C61.355 204.491 61.5179 205.1 61.8438 205.527C62.1696 205.955 62.6351 206.168 63.2402 206.168ZM66.979 203.502C66.979 202.83 67.1102 202.224 67.3726 201.687C67.6392 201.15 68.0073 200.735 68.4771 200.443C68.951 200.151 69.4906 200.005 70.0957 200.005C71.0309 200.005 71.7863 200.329 72.3618 200.976C72.9416 201.624 73.2314 202.485 73.2314 203.56V203.642C73.2314 204.311 73.1024 204.912 72.8442 205.445C72.5903 205.974 72.2243 206.386 71.7461 206.683C71.2721 206.979 70.7262 207.127 70.1084 207.127C69.1774 207.127 68.422 206.803 67.8423 206.156C67.2668 205.508 66.979 204.651 66.979 203.585V203.502ZM68.1597 203.642C68.1597 204.404 68.3353 205.015 68.6865 205.477C69.042 205.938 69.516 206.168 70.1084 206.168C70.7051 206.168 71.179 205.936 71.5303 205.47C71.8815 205 72.0571 204.345 72.0571 203.502C72.0571 202.749 71.8773 202.14 71.5176 201.674C71.1621 201.205 70.6882 200.97 70.0957 200.97C69.516 200.97 69.0483 201.2 68.6929 201.662C68.3374 202.123 68.1597 202.783 68.1597 203.642ZM80.3154 207H79.1411V204.067H75.9863V207H74.8057V200.132H75.9863V203.109H79.1411V200.132H80.3154V207ZM86.4473 207C86.3796 206.865 86.3245 206.623 86.2822 206.276C85.7363 206.843 85.0846 207.127 84.3272 207.127C83.6501 207.127 83.0936 206.937 82.6577 206.556C82.2261 206.171 82.0103 205.684 82.0103 205.096C82.0103 204.381 82.2811 203.826 82.8228 203.433C83.3687 203.035 84.1346 202.836 85.1206 202.836H86.2632V202.296C86.2632 201.886 86.1405 201.56 85.895 201.319C85.6496 201.073 85.2878 200.951 84.8096 200.951C84.3906 200.951 84.0394 201.056 83.7559 201.268C83.4723 201.48 83.3306 201.736 83.3306 202.036H82.1499C82.1499 201.693 82.2705 201.363 82.5117 201.046C82.7572 200.724 83.0872 200.47 83.502 200.284C83.9209 200.098 84.38 200.005 84.8794 200.005C85.6707 200.005 86.2907 200.204 86.7393 200.602C87.1878 200.995 87.4206 201.539 87.4375 202.233V205.394C87.4375 206.025 87.5179 206.526 87.6787 206.898V207H86.4473ZM84.4985 206.105C84.8667 206.105 85.2158 206.01 85.5459 205.819C85.876 205.629 86.1151 205.381 86.2632 205.077V203.667H85.3428C83.904 203.667 83.1846 204.089 83.1846 204.931C83.1846 205.299 83.3073 205.587 83.5527 205.794C83.7982 206.001 84.1134 206.105 84.4985 206.105ZM94.9087 200.132V207H93.728V201.103H91.3921L91.2524 203.674C91.1763 204.854 90.9774 205.699 90.6558 206.207C90.3384 206.714 89.8327 206.979 89.1387 207H88.669V205.965L89.0054 205.94C89.3862 205.898 89.6592 205.678 89.8242 205.28C89.9893 204.882 90.0951 204.146 90.1416 203.071L90.2686 200.132H94.9087ZM98.0762 202.5H99.8599C100.639 202.508 101.254 202.711 101.707 203.109C102.16 203.507 102.386 204.046 102.386 204.728C102.386 205.413 102.153 205.963 101.688 206.378C101.223 206.793 100.596 207 99.8091 207H96.9019V200.132H98.0762V202.5ZM98.0762 203.458V206.042H99.8218C100.262 206.042 100.603 205.929 100.844 205.705C101.085 205.477 101.206 205.166 101.206 204.772C101.206 204.391 101.087 204.08 100.85 203.839C100.617 203.593 100.289 203.466 99.8662 203.458H98.0762ZM109.464 207H108.29V204.067H105.135V207H103.954V200.132H105.135V203.109H108.29V200.132H109.464V207ZM113.603 205.28L115.202 200.132H116.459L113.698 208.06C113.27 209.203 112.591 209.774 111.66 209.774L111.438 209.755L111 209.672V208.72L111.317 208.746C111.715 208.746 112.024 208.665 112.244 208.504C112.468 208.344 112.653 208.049 112.796 207.622L113.057 206.924L110.606 200.132H111.889L113.603 205.28ZM118.795 203.045H120.445C120.534 202.131 120.858 201.397 121.417 200.843C121.979 200.284 122.688 200.005 123.543 200.005C124.44 200.005 125.174 200.307 125.746 200.913C126.317 201.518 126.626 202.305 126.672 203.274L126.679 203.642C126.679 204.311 126.548 204.914 126.285 205.451C126.023 205.989 125.655 206.403 125.181 206.695C124.707 206.983 124.165 207.127 123.556 207.127C122.671 207.127 121.948 206.839 121.385 206.264C120.822 205.684 120.507 204.933 120.439 204.01H118.795V207H117.621V200.132H118.795V203.045ZM121.601 203.642C121.601 204.404 121.776 205.015 122.127 205.477C122.483 205.938 122.959 206.168 123.556 206.168C124.152 206.168 124.624 205.934 124.971 205.464C125.322 204.994 125.498 204.34 125.498 203.502C125.498 202.753 125.32 202.144 124.965 201.674C124.609 201.205 124.135 200.97 123.543 200.97C122.959 200.97 122.489 201.2 122.134 201.662C121.778 202.123 121.601 202.783 121.601 203.642ZM136.968 207H135.794V201.103H132.633V207H131.452V200.132H136.968V207ZM138.542 203.502C138.542 202.83 138.674 202.224 138.936 201.687C139.203 201.15 139.571 200.735 140.041 200.443C140.514 200.151 141.054 200.005 141.659 200.005C142.594 200.005 143.35 200.329 143.925 200.976C144.505 201.624 144.795 202.485 144.795 203.56V203.642C144.795 204.311 144.666 204.912 144.408 205.445C144.154 205.974 143.788 206.386 143.31 206.683C142.836 206.979 142.29 207.127 141.672 207.127C140.741 207.127 139.986 206.803 139.406 206.156C138.83 205.508 138.542 204.651 138.542 203.585V203.502ZM139.723 203.642C139.723 204.404 139.899 205.015 140.25 205.477C140.605 205.938 141.079 206.168 141.672 206.168C142.269 206.168 142.743 205.936 143.094 205.47C143.445 205 143.621 204.345 143.621 203.502C143.621 202.749 143.441 202.14 143.081 201.674C142.726 201.205 142.252 200.97 141.659 200.97C141.079 200.97 140.612 201.2 140.256 201.662C139.901 202.123 139.723 202.783 139.723 203.642ZM145.753 206.042L146.16 205.54C146.617 204.948 146.877 204.059 146.94 202.874L147.048 200.132H151.473V206.042H152.355V209.019H151.181V207H146.388V209.019H145.214L145.22 206.042H145.753ZM147.144 206.042H150.298V201.217H148.185L148.115 202.855C148.043 204.222 147.719 205.284 147.144 206.042ZM156.671 200.525C157.535 200.525 158.224 200.815 158.741 201.395C159.261 201.971 159.522 202.73 159.522 203.674V203.782C159.522 204.429 159.397 205.009 159.147 205.521C158.897 206.029 158.538 206.424 158.068 206.708C157.602 206.987 157.065 207.127 156.456 207.127C155.533 207.127 154.79 206.82 154.228 206.207C153.665 205.589 153.383 204.761 153.383 203.725V203.153C153.383 201.71 153.65 200.563 154.183 199.713C154.721 198.862 155.512 198.344 156.557 198.158C157.15 198.052 157.549 197.923 157.757 197.771C157.964 197.618 158.068 197.409 158.068 197.142H159.033C159.033 197.671 158.912 198.084 158.671 198.38C158.434 198.676 158.053 198.886 157.528 199.008L156.652 199.205C155.954 199.37 155.429 199.649 155.078 200.043C154.731 200.432 154.505 200.953 154.399 201.604C155.021 200.885 155.778 200.525 156.671 200.525ZM156.443 201.49C155.867 201.49 155.41 201.685 155.072 202.074C154.733 202.459 154.564 202.995 154.564 203.68V203.782C154.564 204.518 154.733 205.102 155.072 205.534C155.415 205.961 155.876 206.175 156.456 206.175C157.04 206.175 157.501 205.959 157.839 205.527C158.178 205.096 158.347 204.465 158.347 203.636C158.347 202.988 158.176 202.47 157.833 202.081C157.494 201.687 157.031 201.49 156.443 201.49ZM160.531 203.502C160.531 202.83 160.662 202.224 160.924 201.687C161.191 201.15 161.559 200.735 162.029 200.443C162.503 200.151 163.042 200.005 163.647 200.005C164.583 200.005 165.338 200.329 165.914 200.976C166.493 201.624 166.783 202.485 166.783 203.56V203.642C166.783 204.311 166.654 204.912 166.396 205.445C166.142 205.974 165.776 206.386 165.298 206.683C164.824 206.979 164.278 207.127 163.66 207.127C162.729 207.127 161.974 206.803 161.394 206.156C160.819 205.508 160.531 204.651 160.531 203.585V203.502ZM161.711 203.642C161.711 204.404 161.887 205.015 162.238 205.477C162.594 205.938 163.068 206.168 163.66 206.168C164.257 206.168 164.731 205.936 165.082 205.47C165.433 205 165.609 204.345 165.609 203.502C165.609 202.749 165.429 202.14 165.069 201.674C164.714 201.205 164.24 200.97 163.647 200.97C163.068 200.97 162.6 201.2 162.245 201.662C161.889 202.123 161.711 202.783 161.711 203.642ZM174.058 203.642C174.058 204.687 173.819 205.529 173.34 206.168C172.862 206.807 172.215 207.127 171.398 207.127C170.564 207.127 169.908 206.862 169.43 206.333V209.641H168.256V200.132H169.329L169.386 200.894C169.864 200.301 170.528 200.005 171.379 200.005C172.204 200.005 172.856 200.316 173.334 200.938C173.816 201.56 174.058 202.425 174.058 203.534V203.642ZM172.883 203.509C172.883 202.734 172.718 202.123 172.388 201.674C172.058 201.226 171.605 201.001 171.03 201.001C170.319 201.001 169.786 201.317 169.43 201.947V205.229C169.781 205.855 170.319 206.168 171.042 206.168C171.605 206.168 172.052 205.946 172.382 205.502C172.716 205.053 172.883 204.389 172.883 203.509ZM177.695 204.074H176.838V207H175.657V200.132H176.838V203.039H177.606L179.917 200.132H181.338L178.622 203.433L181.567 207H180.075L177.695 204.074ZM184.823 205.28L186.423 200.132H187.68L184.918 208.06C184.491 209.203 183.812 209.774 182.881 209.774L182.659 209.755L182.221 209.672V208.72L182.538 208.746C182.936 208.746 183.245 208.665 183.465 208.504C183.689 208.344 183.873 208.049 184.017 207.622L184.277 206.924L181.827 200.132H183.109L184.823 205.28ZM26.5 227H25.3257V224.067H22.1709V227H20.9902V220.132H22.1709V223.109H25.3257V220.132H26.5V227ZM31.2417 227.127C30.3107 227.127 29.5532 226.822 28.9692 226.213C28.3853 225.599 28.0933 224.78 28.0933 223.756V223.541C28.0933 222.859 28.2223 222.252 28.4805 221.719C28.7428 221.181 29.1068 220.762 29.5723 220.462C30.042 220.157 30.5498 220.005 31.0957 220.005C31.9886 220.005 32.6826 220.299 33.1777 220.887C33.6729 221.475 33.9204 222.318 33.9204 223.414V223.902H29.2676C29.2845 224.579 29.4813 225.127 29.8579 225.546C30.2388 225.961 30.7212 226.168 31.3052 226.168C31.7199 226.168 32.0711 226.084 32.3589 225.915C32.6466 225.745 32.8984 225.521 33.1143 225.242L33.8315 225.8C33.256 226.685 32.3927 227.127 31.2417 227.127ZM31.0957 220.97C30.6217 220.97 30.224 221.143 29.9023 221.49C29.5807 221.833 29.3818 222.315 29.3057 222.937H32.7461V222.849C32.7122 222.252 32.5514 221.791 32.2637 221.465C31.9759 221.135 31.5866 220.97 31.0957 220.97ZM35.228 226.042L35.6343 225.54C36.0913 224.948 36.3516 224.059 36.415 222.874L36.523 220.132H40.9473V226.042H41.8296V229.019H40.6553V227H35.8628V229.019H34.6885L34.6948 226.042H35.228ZM36.6182 226.042H39.773V221.217H37.6592L37.5894 222.855C37.5174 224.222 37.1937 225.284 36.6182 226.042ZM43.2388 227V220.132H45.9175C46.8315 220.132 47.5319 220.293 48.0186 220.614C48.5094 220.932 48.7549 221.399 48.7549 222.017C48.7549 222.334 48.6597 222.622 48.4692 222.88C48.2788 223.134 47.9974 223.329 47.625 223.464C48.0397 223.562 48.3719 223.752 48.6216 224.036C48.8755 224.319 49.0024 224.658 49.0024 225.051C49.0024 225.682 48.7697 226.164 48.3042 226.499C47.8429 226.833 47.1891 227 46.3428 227H43.2388ZM44.4131 223.985V226.054H46.3555C46.8464 226.054 47.2124 225.963 47.4536 225.781C47.6991 225.599 47.8218 225.343 47.8218 225.013C47.8218 224.328 47.3182 223.985 46.311 223.985H44.4131ZM44.4131 223.045H45.9302C47.0304 223.045 47.5806 222.724 47.5806 222.081C47.5806 221.437 47.0601 221.105 46.019 221.084H44.4131V223.045ZM55.001 220.132H56.1753V227H55.001V221.992L51.8335 227H50.6592V220.132H51.8335V225.146L55.001 220.132ZM63.5386 224.017H62.7134V227H61.5391V224.017H60.7139L58.7905 227H57.3052L59.7617 223.445L57.54 220.132H58.9619L60.7329 222.976H61.5391V220.132H62.7134V222.976H63.5132L65.2969 220.132H66.7188L64.4907 223.452L66.9473 227H65.4619L63.5386 224.017ZM72.457 220.132H73.6314V227H72.457V221.992L69.2896 227H68.1152V220.132H69.2896V225.146L72.457 220.132ZM79.4712 225.445L81.8071 220.132H83.2734V227H82.0991V222.004L79.8774 227H79.0649L76.7988 221.896V227H75.6245V220.132H77.148L79.4712 225.445ZM84.854 223.502C84.854 222.83 84.9852 222.224 85.2476 221.687C85.5142 221.15 85.8823 220.735 86.3521 220.443C86.826 220.151 87.3656 220.005 87.9707 220.005C88.9059 220.005 89.6613 220.329 90.2368 220.976C90.8166 221.624 91.1065 222.485 91.1065 223.56V223.642C91.1065 224.311 90.9774 224.912 90.7192 225.445C90.4653 225.974 90.0993 226.386 89.6211 226.683C89.1471 226.979 88.6012 227.127 87.9834 227.127C87.0524 227.127 86.297 226.803 85.7173 226.156C85.1418 225.508 84.854 224.651 84.854 223.585V223.502ZM86.0347 223.642C86.0347 224.404 86.2103 225.015 86.5615 225.477C86.917 225.938 87.391 226.168 87.9834 226.168C88.5801 226.168 89.054 225.936 89.4053 225.47C89.7565 225 89.9321 224.345 89.9321 223.502C89.9321 222.749 89.7523 222.14 89.3926 221.674C89.0371 221.205 88.5632 220.97 87.9707 220.97C87.391 220.97 86.9233 221.2 86.5679 221.662C86.2124 222.123 86.0347 222.783 86.0347 223.642ZM95.334 226.168C95.7529 226.168 96.119 226.042 96.4321 225.788C96.7453 225.534 96.9188 225.216 96.9526 224.835H98.0635C98.0423 225.229 97.9069 225.604 97.6572 225.959C97.4076 226.314 97.0733 226.598 96.6543 226.81C96.2396 227.021 95.7995 227.127 95.334 227.127C94.3988 227.127 93.654 226.816 93.0996 226.194C92.5495 225.568 92.2744 224.713 92.2744 223.629V223.433C92.2744 222.764 92.3971 222.169 92.6426 221.649C92.888 221.128 93.2393 220.724 93.6963 220.437C94.1576 220.149 94.7013 220.005 95.3276 220.005C96.0978 220.005 96.7368 220.236 97.2446 220.697C97.7567 221.158 98.0296 221.757 98.0635 222.493H96.9526C96.9188 222.049 96.7495 221.685 96.4448 221.401C96.1444 221.114 95.772 220.97 95.3276 220.97C94.731 220.97 94.2676 221.186 93.9375 221.617C93.6117 222.045 93.4487 222.665 93.4487 223.477V223.699C93.4487 224.491 93.6117 225.1 93.9375 225.527C94.2634 225.955 94.7288 226.168 95.334 226.168ZM104.487 221.084H102.183V227H101.009V221.084H98.749V220.132H104.487V221.084ZM110.073 220.132H111.248V227H110.073V221.992L106.906 227H105.731V220.132H106.906V225.146L110.073 220.132Z" fill="#BCBCBC"/>
<circle cx="24.0625" cy="142.75" r="4.0625" fill="#CEAC6A"/>
<circle cx="24.0625" cy="201.25" r="4.0625" fill="#CEAC6A"/>
<rect x="73.625" y="474.25" width="53.625" height="48.75" rx="4.0625" transform="rotate(-180 73.625 474.25)" fill="#403F3F"/>
<path d="M56.5891 450.669L39.7456 450.669L43.2499 454.208C43.5569 454.518 43.5569 455.02 43.2499 455.33C42.9429 455.64 42.4452 455.64 42.1387 455.33L37.2928 450.436C36.9858 450.126 36.9858 449.624 37.2928 449.314L42.1387 444.42C42.2921 444.265 42.4932 444.188 42.6943 444.188C42.8954 444.188 43.0965 444.265 43.2499 444.42C43.557 444.73 43.557 445.232 43.2499 445.542L39.7456 449.081L56.5891 449.081C57.0231 449.081 57.375 449.437 57.375 449.875C57.375 450.313 57.0231 450.669 56.5891 450.669Z" fill="#CEAC6A"/>
<rect x="20" y="254.875" width="260" height="48.75" rx="4.0625" fill="#403F3F"/>
<path fill-rule="evenodd" clip-rule="evenodd" d="M53.603 271.639C51.6935 269.737 49.1541 268.689 46.4487 268.688C40.8741 268.688 36.3371 273.203 36.3348 278.752C36.3341 280.526 36.7997 282.258 37.6848 283.784L36.25 289L41.6115 287.6C43.0889 288.402 44.752 288.825 46.4446 288.825H46.4489C52.0229 288.825 56.5604 284.31 56.5625 278.76C56.5636 276.071 55.5126 273.542 53.603 271.639ZM46.4487 287.126H46.4452C44.9369 287.125 43.4576 286.722 42.1668 285.959L41.8599 285.778L38.6783 286.609L39.5275 283.522L39.3276 283.205C38.4861 281.873 38.0417 280.333 38.0425 278.753C38.0442 274.14 41.8153 270.387 46.4521 270.387C48.6974 270.388 50.8081 271.26 52.3951 272.841C53.9822 274.422 54.8557 276.524 54.855 278.76C54.853 283.373 51.0821 287.126 46.4487 287.126ZM51.0597 280.86C50.8071 280.734 49.5646 280.126 49.3329 280.042C49.1014 279.958 48.9327 279.916 48.7644 280.168C48.5959 280.419 48.1117 280.986 47.9642 281.154C47.8167 281.321 47.6694 281.343 47.4167 281.217C47.1639 281.091 46.3497 280.825 45.3844 279.968C44.6332 279.301 44.1261 278.478 43.9786 278.226C43.8313 277.974 43.9773 277.851 44.0894 277.713C44.363 277.375 44.6369 277.02 44.7211 276.853C44.8055 276.685 44.7632 276.538 44.7 276.412C44.6369 276.286 44.1315 275.048 43.921 274.544C43.7157 274.054 43.5075 274.12 43.3523 274.113C43.2051 274.105 43.0365 274.104 42.868 274.104C42.6996 274.104 42.4257 274.167 42.194 274.419C41.9625 274.671 41.3097 275.279 41.3097 276.517C41.3097 277.755 42.2152 278.951 42.3415 279.118C42.4678 279.286 44.1236 281.827 46.6585 282.916C47.2614 283.175 47.7321 283.33 48.0992 283.446C48.7046 283.637 49.2554 283.61 49.6909 283.545C50.1765 283.473 51.1859 282.937 51.3967 282.35C51.6072 281.762 51.6072 281.259 51.5439 281.154C51.4809 281.049 51.3123 280.986 51.0597 280.86Z" fill="#CEAC6A"/>
<path d="M73.2285 274.97H74.8275L75.6985 281.795L76.7905 274.996H78.0905L79.2215 281.795L80.0795 274.97H81.6655L80.1965 285.5H78.6365L77.4665 278.441L76.3095 285.5H74.7105L73.2285 274.97ZM86.7991 274.97H88.7101V279.364H90.8551V274.97H92.7791V285.5H90.8551V280.742H88.7101V285.5H86.7991V274.97ZM99.8633 274.97H101.917L104.023 285.5H102.242L101.826 283.069H99.9933L99.5643 285.5H97.7573L99.8633 274.97ZM101.618 281.847L100.903 277.427L100.188 281.847H101.618ZM109.54 276.387H107.863V274.97H113.102V276.387H111.464V285.5H109.54V276.387ZM120.612 285.643C119.659 285.643 118.944 285.374 118.467 284.837C117.999 284.3 117.744 283.498 117.7 282.432L119.351 282.107C119.377 282.774 119.481 283.286 119.663 283.641C119.854 283.988 120.149 284.161 120.547 284.161C120.842 284.161 121.059 284.074 121.197 283.901C121.345 283.719 121.418 283.476 121.418 283.173C121.418 282.757 121.323 282.406 121.132 282.12C120.95 281.825 120.66 281.505 120.261 281.158L118.935 280.001C118.528 279.654 118.22 279.282 118.012 278.883C117.813 278.484 117.713 278.008 117.713 277.453C117.713 276.63 117.952 275.993 118.428 275.542C118.914 275.083 119.581 274.853 120.43 274.853C121.34 274.853 121.99 275.113 122.38 275.633C122.779 276.144 123.009 276.838 123.069 277.713L121.418 277.999C121.392 277.427 121.31 276.998 121.171 276.712C121.041 276.417 120.781 276.27 120.391 276.27C120.114 276.27 119.897 276.365 119.741 276.556C119.585 276.738 119.507 276.972 119.507 277.258C119.507 277.596 119.572 277.882 119.702 278.116C119.841 278.341 120.062 278.584 120.365 278.844L121.678 280.001C122.172 280.426 122.558 280.881 122.835 281.366C123.113 281.851 123.251 282.415 123.251 283.056C123.251 283.559 123.139 284.005 122.913 284.395C122.697 284.785 122.389 285.093 121.99 285.318C121.592 285.535 121.132 285.643 120.612 285.643ZM129.806 274.97H131.86L133.966 285.5H132.185L131.769 283.069H129.936L129.507 285.5H127.7L129.806 274.97ZM131.561 281.847L130.846 277.427L130.131 281.847H131.561ZM138.925 274.97H142.019C143.813 274.97 144.71 275.967 144.71 277.96C144.71 279.867 143.77 280.82 141.889 280.82H140.836V285.5H138.925V274.97ZM141.577 279.468C142.097 279.468 142.448 279.36 142.63 279.143C142.812 278.918 142.903 278.519 142.903 277.947C142.903 277.531 142.873 277.215 142.812 276.998C142.752 276.773 142.626 276.604 142.435 276.491C142.253 276.378 141.967 276.322 141.577 276.322H140.836V279.468H141.577ZM149.681 274.97H152.775C154.569 274.97 155.466 275.967 155.466 277.96C155.466 279.867 154.526 280.82 152.645 280.82H151.592V285.5H149.681V274.97ZM152.333 279.468C152.853 279.468 153.204 279.36 153.386 279.143C153.568 278.918 153.659 278.519 153.659 277.947C153.659 277.531 153.629 277.215 153.568 276.998C153.507 276.773 153.382 276.604 153.191 276.491C153.009 276.378 152.723 276.322 152.333 276.322H151.592V279.468H152.333Z" fill="#CEAC6A"/>
<rect x="20" y="368.625" width="260" height="48.75" rx="4.0625" fill="#403F3F"/>
<rect x="20" y="311.75" width="260" height="48.75" rx="4.0625" fill="#403F3F"/>
<path d="M42.9137 337.576L44.258 336.989L43.8807 337.369C43.7599 337.491 43.6921 337.655 43.6921 337.826V340.354C43.6921 340.932 44.3883 341.213 44.7895 340.81L46.1389 339.454L49.0794 340.931C49.4601 341.123 49.9205 340.896 49.9993 340.469L51.6771 331.2C51.7654 330.702 51.2767 330.299 50.8095 330.483L39.908 334.77C39.4193 334.961 39.3542 335.633 39.7965 335.916L42.3119 337.528C42.4919 337.644 42.7191 337.662 42.9137 337.576ZM50.2059 332.109L48.8883 339.391L46.2992 338.092C46.0489 337.966 45.7505 338.019 45.5576 338.213L44.9781 338.795V338.095L47.556 335.505C48.0558 335.003 47.4934 334.175 46.8453 334.456L42.7157 336.256L41.5549 335.512L50.2059 332.109Z" fill="#CEAC6A"/>
<path d="M46.4062 345.875C52.0066 345.875 56.5625 341.319 56.5625 335.719C56.5625 330.118 52.0066 325.562 46.4062 325.562C40.8059 325.562 36.25 330.118 36.25 335.719C36.25 341.319 40.8059 345.875 46.4062 345.875ZM46.4062 326.832C51.3066 326.832 55.293 330.818 55.293 335.719C55.293 340.619 51.3066 344.605 46.4062 344.605C41.5059 344.605 37.5195 340.619 37.5195 335.719C37.5195 330.818 41.5059 326.832 46.4062 326.832Z" fill="#CEAC6A"/>
<path d="M73.7615 388.72H75.7505L77.2455 396.013L78.7925 388.72H80.7295L80.9245 399.25H79.4945L79.3385 391.931L77.8435 399.25H76.6865L75.1655 391.905L75.0225 399.25H73.5795L73.7615 388.72ZM86.3795 388.72H90.7995V390.072H88.2905V393.101H90.2665V394.44H88.2905V397.937H90.8255V399.25H86.3795V388.72ZM98.4921 399.393C97.5387 399.393 96.8237 399.124 96.3471 398.587C95.8791 398.05 95.6234 397.248 95.5801 396.182L97.2311 395.857C97.2571 396.524 97.3611 397.036 97.5431 397.391C97.7337 397.738 98.0284 397.911 98.4271 397.911C98.7217 397.911 98.9384 397.824 99.0771 397.651C99.2244 397.469 99.2981 397.226 99.2981 396.923C99.2981 396.507 99.2027 396.156 99.0121 395.87C98.8301 395.575 98.5397 395.255 98.1411 394.908L96.8151 393.751C96.4077 393.404 96.1001 393.032 95.8921 392.633C95.6927 392.234 95.5931 391.758 95.5931 391.203C95.5931 390.38 95.8314 389.743 96.3081 389.292C96.7934 388.833 97.4607 388.603 98.3101 388.603C99.2201 388.603 99.8701 388.863 100.26 389.383C100.659 389.894 100.888 390.588 100.949 391.463L99.2981 391.749C99.2721 391.177 99.1897 390.748 99.0511 390.462C98.9211 390.167 98.6611 390.02 98.2711 390.02C97.9937 390.02 97.7771 390.115 97.6211 390.306C97.4651 390.488 97.3871 390.722 97.3871 391.008C97.3871 391.346 97.4521 391.632 97.5821 391.866C97.7207 392.091 97.9417 392.334 98.2451 392.594L99.5581 393.751C100.052 394.176 100.438 394.631 100.715 395.116C100.992 395.601 101.131 396.165 101.131 396.806C101.131 397.309 101.018 397.755 100.793 398.145C100.576 398.535 100.269 398.843 99.8701 399.068C99.4714 399.285 99.0121 399.393 98.4921 399.393ZM108.714 399.393C107.761 399.393 107.046 399.124 106.569 398.587C106.101 398.05 105.846 397.248 105.802 396.182L107.453 395.857C107.479 396.524 107.583 397.036 107.765 397.391C107.956 397.738 108.251 397.911 108.649 397.911C108.944 397.911 109.161 397.824 109.299 397.651C109.447 397.469 109.52 397.226 109.52 396.923C109.52 396.507 109.425 396.156 109.234 395.87C109.052 395.575 108.762 395.255 108.363 394.908L107.037 393.751C106.63 393.404 106.322 393.032 106.114 392.633C105.915 392.234 105.815 391.758 105.815 391.203C105.815 390.38 106.054 389.743 106.53 389.292C107.016 388.833 107.683 388.603 108.532 388.603C109.442 388.603 110.092 388.863 110.482 389.383C110.881 389.894 111.111 390.588 111.171 391.463L109.52 391.749C109.494 391.177 109.412 390.748 109.273 390.462C109.143 390.167 108.883 390.02 108.493 390.02C108.216 390.02 107.999 390.115 107.843 390.306C107.687 390.488 107.609 390.722 107.609 391.008C107.609 391.346 107.674 391.632 107.804 391.866C107.943 392.091 108.164 392.334 108.467 392.594L109.78 393.751C110.274 394.176 110.66 394.631 110.937 395.116C111.215 395.601 111.353 396.165 111.353 396.806C111.353 397.309 111.241 397.755 111.015 398.145C110.799 398.535 110.491 398.843 110.092 399.068C109.694 399.285 109.234 399.393 108.714 399.393ZM116.386 388.72H120.806V390.072H118.297V393.101H120.273V394.44H118.297V397.937H120.832V399.25H116.386V388.72ZM125.847 388.72H127.186L129.747 394.726V388.72H131.333V399.25H130.059L127.485 392.958V399.25H125.847V388.72ZM139.47 399.393C138.473 399.393 137.754 399.085 137.312 398.47C136.878 397.846 136.662 396.949 136.662 395.779V392.243C136.662 391.038 136.887 390.133 137.338 389.526C137.788 388.911 138.564 388.603 139.665 388.603C140.705 388.603 141.45 388.863 141.901 389.383C142.351 389.894 142.577 390.657 142.577 391.671V392.217H140.744V391.619C140.744 391.238 140.718 390.934 140.666 390.709C140.622 390.484 140.523 390.31 140.367 390.189C140.219 390.068 139.994 390.007 139.691 390.007C139.37 390.007 139.132 390.085 138.976 390.241C138.82 390.397 138.716 390.596 138.664 390.839C138.62 391.082 138.599 391.398 138.599 391.788V396.195C138.599 396.793 138.677 397.239 138.833 397.534C138.997 397.829 139.301 397.976 139.743 397.976C140.176 397.976 140.475 397.82 140.64 397.508C140.813 397.196 140.9 396.728 140.9 396.104V395.116H139.769V393.907H142.629V399.25H141.381L141.251 398.223C140.921 399.003 140.328 399.393 139.47 399.393ZM147.992 388.72H152.412V390.072H149.903V393.101H151.879V394.44H149.903V397.937H152.438V399.25H147.992V388.72ZM157.453 388.72H159.988C161.097 388.72 161.925 388.932 162.471 389.357C163.017 389.773 163.29 390.492 163.29 391.515C163.29 392.182 163.19 392.728 162.991 393.153C162.8 393.569 162.467 393.872 161.99 394.063L163.459 399.25H161.535L160.274 394.427H159.364V399.25H157.453V388.72ZM159.975 393.231C160.521 393.231 160.907 393.105 161.132 392.854C161.366 392.603 161.483 392.191 161.483 391.619C161.483 391.064 161.379 390.661 161.171 390.41C160.972 390.159 160.608 390.033 160.079 390.033H159.364V393.231H159.975Z" fill="#CEAC6A"/>
<path d="M74.6585 333.262H72.9815V331.845H78.2205V333.262H76.5825V342.375H74.6585V333.262ZM83.0787 331.845H87.4987V333.197H84.9897V336.226H86.9657V337.565H84.9897V341.062H87.5247V342.375H83.0787V331.845ZM92.5393 331.845H94.4503V341.062H97.0113V342.375H92.5393V331.845ZM101.911 331.845H106.331V333.197H103.822V336.226H105.798V337.565H103.822V341.062H106.357V342.375H101.911V331.845ZM114.011 342.518C113.014 342.518 112.295 342.21 111.853 341.595C111.419 340.971 111.203 340.074 111.203 338.904V335.368C111.203 334.163 111.428 333.258 111.879 332.651C112.329 332.036 113.105 331.728 114.206 331.728C115.246 331.728 115.991 331.988 116.442 332.508C116.892 333.019 117.118 333.782 117.118 334.796V335.342H115.285V334.744C115.285 334.363 115.259 334.059 115.207 333.834C115.163 333.609 115.064 333.435 114.908 333.314C114.76 333.193 114.535 333.132 114.232 333.132C113.911 333.132 113.673 333.21 113.517 333.366C113.361 333.522 113.257 333.721 113.205 333.964C113.161 334.207 113.14 334.523 113.14 334.913V339.32C113.14 339.918 113.218 340.364 113.374 340.659C113.538 340.954 113.842 341.101 114.284 341.101C114.717 341.101 115.016 340.945 115.181 340.633C115.354 340.321 115.441 339.853 115.441 339.229V338.241H114.31V337.032H117.17V342.375H115.922L115.792 341.348C115.462 342.128 114.869 342.518 114.011 342.518ZM122.533 331.845H125.068C126.178 331.845 127.005 332.057 127.551 332.482C128.097 332.898 128.37 333.617 128.37 334.64C128.37 335.307 128.271 335.853 128.071 336.278C127.881 336.694 127.547 336.997 127.07 337.188L128.539 342.375H126.615L125.354 337.552H124.444V342.375H122.533V331.845ZM125.055 336.356C125.601 336.356 125.987 336.23 126.212 335.979C126.446 335.728 126.563 335.316 126.563 334.744C126.563 334.189 126.459 333.786 126.251 333.535C126.052 333.284 125.688 333.158 125.159 333.158H124.444V336.356H125.055ZM135.293 331.845H137.347L139.453 342.375H137.672L137.256 339.944H135.423L134.994 342.375H133.187L135.293 331.845ZM137.048 338.722L136.333 334.302L135.618 338.722H137.048ZM144.568 331.845H146.557L148.052 339.138L149.599 331.845H151.536L151.731 342.375H150.301L150.145 335.056L148.65 342.375H147.493L145.972 335.03L145.829 342.375H144.386L144.568 331.845Z" fill="#CEAC6A"/>
<path d="M40.4116 395.295L45.0207 392.937L47.211 395.24C47.498 395.542 47.8971 395.461 48.1079 395.243L53.1278 390.035C53.6256 389.518 53.0274 388.683 52.3957 389.012L47.7866 391.42L45.5996 389.135C45.3662 388.892 44.9671 388.865 44.7078 389.13L39.6879 394.267C39.1859 394.781 39.7799 395.62 40.4116 395.295ZM45.147 390.497L47.2135 392.655C47.406 392.856 47.7038 392.905 47.9464 392.778L49.5076 391.963L47.6645 393.874L45.6013 391.704C45.4106 391.503 45.1144 391.453 44.8709 391.577L43.3097 392.376L45.147 390.497Z" fill="#CEAC6A"/>
<path d="M39.1479 402.115C39.1479 402.601 39.671 402.904 40.0941 402.668L43.5566 400.719C46.7592 401.586 50.2013 400.949 52.8182 398.996C55.1973 397.221 56.5625 394.586 56.5625 391.766C56.5625 386.622 52.0066 382.438 46.4062 382.438C40.8059 382.438 36.25 386.622 36.25 391.766C36.25 394.234 37.2766 396.537 39.1479 398.282V402.115ZM37.5195 391.766C37.5195 387.322 41.5059 383.707 46.4062 383.707C51.3066 383.707 55.293 387.322 55.293 391.766C55.293 394.181 54.114 396.446 52.0591 397.979C49.6901 399.745 46.5476 400.288 43.6564 399.428C43.4914 399.379 43.3137 399.399 43.1639 399.483L40.4166 401.029V398C40.4166 397.818 40.3379 397.644 40.2016 397.523C38.4717 396.002 37.5195 393.957 37.5195 391.766Z" fill="#CEAC6A"/>
</svg>
