<svg width="300" height="530" viewBox="0 0 300 530" fill="none" xmlns="http://www.w3.org/2000/svg">
<rect x="0.5" y="0.5" width="299" height="529" rx="4.5" fill="#353535" stroke="#4F4F4F"/>
<rect x="20.8125" y="304.373" width="258.375" height="47.125" rx="0.8125" stroke="#CEAC6A" stroke-width="1.625"/>
<path d="M21.2917 118V105.292H25.647C27.0843 105.292 28.1782 105.58 28.9288 106.156C29.6794 106.732 30.0547 107.59 30.0547 108.731C30.0547 109.313 29.8976 109.836 29.5834 110.302C29.2692 110.767 28.8095 111.128 28.2043 111.384C28.891 111.57 29.4205 111.922 29.7928 112.44C30.1711 112.952 30.3602 113.569 30.3602 114.291C30.3602 115.483 29.9761 116.4 29.2081 117.04C28.4458 117.68 27.3519 118 25.9263 118H21.2917ZM23.4999 112.266V116.237H25.9525C26.6449 116.237 27.1861 116.065 27.5759 115.722C27.9658 115.379 28.1607 114.902 28.1607 114.291C28.1607 112.97 27.4857 112.295 26.1358 112.266H23.4999ZM23.4999 110.642H25.6645C26.3511 110.642 26.8864 110.488 27.2704 110.18C27.6603 109.865 27.8552 109.423 27.8552 108.853C27.8552 108.225 27.6748 107.771 27.3141 107.491C26.9591 107.212 26.4035 107.073 25.647 107.073H23.4999V110.642ZM33.4185 118V108.556H37.2501C38.5418 108.556 39.5252 108.783 40.2002 109.237C40.8751 109.685 41.2126 110.331 41.2126 111.175C41.2126 111.611 41.0759 112.004 40.8024 112.353C40.5347 112.696 40.1361 112.961 39.6066 113.147C40.2234 113.275 40.7122 113.534 41.073 113.924C41.4337 114.314 41.6141 114.774 41.6141 115.303C41.6141 116.182 41.2882 116.851 40.6366 117.31C39.9907 117.77 39.0597 118 37.8436 118H33.4185ZM35.5394 113.976V116.324H37.861C38.9491 116.324 39.4932 115.934 39.4932 115.155C39.4932 114.369 38.9404 113.976 37.8349 113.976H35.5394ZM35.5394 112.458H37.285C38.4895 112.458 39.0917 112.103 39.0917 111.393C39.0917 110.648 38.5215 110.264 37.381 110.241H35.5394V112.458ZM48.504 118.175C47.1599 118.175 46.0689 117.753 45.231 116.909C44.3989 116.059 43.9829 114.931 43.9829 113.523V113.261C43.9829 112.318 44.1633 111.477 44.524 110.738C44.8906 109.993 45.4026 109.415 46.0602 109.001C46.7177 108.588 47.4508 108.382 48.2596 108.382C49.5455 108.382 50.5376 108.792 51.2359 109.612C51.9399 110.433 52.292 111.594 52.292 113.095V113.95H46.1212C46.1853 114.73 46.4442 115.347 46.898 115.801C47.3577 116.254 47.9338 116.481 48.6262 116.481C49.5979 116.481 50.3893 116.089 51.0002 115.303L52.1436 116.394C51.7654 116.958 51.2591 117.398 50.6249 117.712C49.9965 118.02 49.2895 118.175 48.504 118.175ZM48.2509 110.084C47.669 110.084 47.1977 110.287 46.8369 110.695C46.482 111.102 46.2551 111.669 46.1562 112.397H50.1972V112.24C50.1507 111.53 49.9616 110.994 49.6299 110.634C49.2982 110.267 48.8386 110.084 48.2509 110.084ZM54.879 116.307C55.4666 115.649 55.8594 115.027 56.0572 114.439C56.2609 113.845 56.3831 113.089 56.4238 112.17L56.546 108.556H63.1008V116.307H64.41V120.81H62.2978V118H56.2405V120.81H54.0934L54.1022 116.307H54.879ZM57.3664 116.307H60.9886V110.38H58.6058L58.5447 112.187C58.4633 113.921 58.0705 115.294 57.3664 116.307ZM72.5567 108.556H74.6689V118H72.5567V111.698L68.856 118H66.7438V108.556H68.856V114.858L72.5567 108.556ZM85.2507 110.241H82.1872V118H80.0663V110.241H77.0377V108.556H85.2507V110.241ZM91.1631 118.175C89.819 118.175 88.728 117.753 87.8901 116.909C87.058 116.059 86.642 114.931 86.642 113.523V113.261C86.642 112.318 86.8224 111.477 87.1831 110.738C87.5497 109.993 88.0618 109.415 88.7193 109.001C89.3768 108.588 90.1099 108.382 90.9187 108.382C92.2047 108.382 93.1967 108.792 93.895 109.612C94.599 110.433 94.9511 111.594 94.9511 113.095V113.95H88.7804C88.8444 114.73 89.1033 115.347 89.5572 115.801C90.0168 116.254 90.5929 116.481 91.2853 116.481C92.257 116.481 93.0484 116.089 93.6593 115.303L94.8027 116.394C94.4245 116.958 93.9183 117.398 93.284 117.712C92.6556 118.02 91.9486 118.175 91.1631 118.175ZM90.91 110.084C90.3281 110.084 89.8568 110.287 89.4961 110.695C89.1411 111.102 88.9142 111.669 88.8153 112.397H92.8563V112.24C92.8098 111.53 92.6207 110.994 92.289 110.634C91.9574 110.267 91.4977 110.084 90.91 110.084ZM106.2 114.264H105.126V118H103.005V108.556H105.126V112.327H106.06L108.67 108.556H111.288L107.876 113.077L111.576 118H108.818L106.2 114.264ZM112.732 113.191C112.732 112.266 112.915 111.434 113.282 110.695C113.648 109.95 114.163 109.38 114.827 108.984C115.49 108.582 116.252 108.382 117.113 108.382C118.388 108.382 119.42 108.792 120.212 109.612C121.009 110.433 121.439 111.521 121.503 112.877L121.512 113.374C121.512 114.305 121.332 115.137 120.971 115.87C120.616 116.604 120.104 117.171 119.435 117.572C118.772 117.974 118.004 118.175 117.131 118.175C115.798 118.175 114.731 117.732 113.928 116.848C113.13 115.958 112.732 114.774 112.732 113.296V113.191ZM114.853 113.374C114.853 114.346 115.053 115.108 115.455 115.661C115.856 116.208 116.415 116.481 117.131 116.481C117.846 116.481 118.402 116.202 118.798 115.643C119.199 115.085 119.4 114.267 119.4 113.191C119.4 112.237 119.193 111.48 118.78 110.922C118.373 110.363 117.817 110.084 117.113 110.084C116.421 110.084 115.871 110.36 115.464 110.913C115.056 111.46 114.853 112.28 114.853 113.374ZM123.61 116.307C124.198 115.649 124.591 115.027 124.789 114.439C124.992 113.845 125.115 113.089 125.155 112.17L125.277 108.556H131.832V116.307H133.141V120.81H131.029V118H124.972V120.81H122.825L122.834 116.307H123.61ZM126.098 116.307H129.72V110.38H127.337L127.276 112.187C127.195 113.921 126.802 115.294 126.098 116.307ZM140.934 116.307C141.522 115.649 141.914 115.027 142.112 114.439C142.316 113.845 142.438 113.089 142.479 112.17L142.601 108.556H149.156V116.307H150.465V120.81H148.353V118H142.295V120.81H140.148L140.157 116.307H140.934ZM143.421 116.307H147.043V110.38H144.661L144.6 112.187C144.518 113.921 144.125 115.294 143.421 116.307ZM152.476 113.191C152.476 112.266 152.659 111.434 153.026 110.695C153.392 109.95 153.907 109.38 154.57 108.984C155.234 108.582 155.996 108.382 156.857 108.382C158.132 108.382 159.164 108.792 159.956 109.612C160.753 110.433 161.183 111.521 161.247 112.877L161.256 113.374C161.256 114.305 161.076 115.137 160.715 115.87C160.36 116.604 159.848 117.171 159.179 117.572C158.516 117.974 157.747 118.175 156.875 118.175C155.542 118.175 154.474 117.732 153.672 116.848C152.874 115.958 152.476 114.774 152.476 113.296V113.191ZM154.597 113.374C154.597 114.346 154.797 115.108 155.199 115.661C155.6 116.208 156.159 116.481 156.875 116.481C157.59 116.481 158.146 116.202 158.542 115.643C158.943 115.085 159.144 114.267 159.144 113.191C159.144 112.237 158.937 111.48 158.524 110.922C158.117 110.363 157.561 110.084 156.857 110.084C156.165 110.084 155.615 110.36 155.208 110.913C154.8 111.46 154.597 112.28 154.597 113.374ZM167.823 116.481C168.353 116.481 168.792 116.327 169.141 116.019C169.49 115.71 169.676 115.329 169.7 114.875H171.698C171.675 115.463 171.492 116.013 171.149 116.525C170.805 117.031 170.34 117.433 169.752 117.729C169.164 118.026 168.53 118.175 167.849 118.175C166.528 118.175 165.481 117.747 164.707 116.892C163.933 116.036 163.546 114.855 163.546 113.348V113.13C163.546 111.693 163.93 110.543 164.699 109.682C165.467 108.815 166.514 108.382 167.841 108.382C168.964 108.382 169.877 108.71 170.581 109.368C171.291 110.02 171.663 110.878 171.698 111.943H169.7C169.676 111.402 169.49 110.956 169.141 110.607C168.798 110.258 168.358 110.084 167.823 110.084C167.137 110.084 166.607 110.334 166.235 110.834C165.862 111.329 165.673 112.082 165.667 113.095V113.435C165.667 114.459 165.851 115.224 166.217 115.731C166.59 116.231 167.125 116.481 167.823 116.481ZM181.626 110.241H178.562V118H176.441V110.241H173.413V108.556H181.626V110.241ZM187.346 114.963L189.266 108.556H191.527L187.774 119.431C187.198 121.02 186.22 121.814 184.841 121.814C184.533 121.814 184.192 121.762 183.82 121.657V120.016L184.221 120.042C184.757 120.042 185.158 119.943 185.426 119.746C185.699 119.554 185.915 119.228 186.072 118.768L186.377 117.956L183.061 108.556H185.347L187.346 114.963ZM201.655 118H199.534V110.267H195.851V118H193.73V108.556H201.655V118ZM210.447 118C210.354 117.82 210.273 117.526 210.203 117.118C209.528 117.823 208.702 118.175 207.724 118.175C206.776 118.175 206.002 117.904 205.403 117.363C204.803 116.822 204.504 116.153 204.504 115.355C204.504 114.349 204.876 113.578 205.621 113.042C206.371 112.501 207.442 112.231 208.833 112.231H210.133V111.611C210.133 111.122 209.996 110.732 209.723 110.442C209.449 110.145 209.033 109.996 208.475 109.996C207.992 109.996 207.596 110.119 207.288 110.363C206.979 110.602 206.825 110.907 206.825 111.279H204.704C204.704 110.762 204.876 110.279 205.219 109.831C205.563 109.377 206.028 109.022 206.616 108.766C207.209 108.51 207.87 108.382 208.597 108.382C209.703 108.382 210.584 108.661 211.242 109.22C211.899 109.772 212.237 110.552 212.254 111.559V115.818C212.254 116.668 212.373 117.345 212.612 117.852V118H210.447ZM208.117 116.473C208.536 116.473 208.929 116.371 209.295 116.167C209.668 115.963 209.947 115.69 210.133 115.347V113.566H208.99C208.204 113.566 207.614 113.703 207.218 113.976C206.822 114.25 206.624 114.637 206.624 115.137C206.624 115.545 206.758 115.87 207.026 116.115C207.299 116.353 207.663 116.473 208.117 116.473ZM220.876 118V108.556H224.707C225.999 108.556 226.982 108.783 227.657 109.237C228.332 109.685 228.67 110.331 228.67 111.175C228.67 111.611 228.533 112.004 228.26 112.353C227.992 112.696 227.593 112.961 227.064 113.147C227.681 113.275 228.169 113.534 228.53 113.924C228.891 114.314 229.071 114.774 229.071 115.303C229.071 116.182 228.745 116.851 228.094 117.31C227.448 117.77 226.517 118 225.301 118H220.876ZM222.997 113.976V116.324H225.318C226.406 116.324 226.95 115.934 226.95 115.155C226.95 114.369 226.398 113.976 225.292 113.976H222.997ZM222.997 112.458H224.742C225.947 112.458 226.549 112.103 226.549 111.393C226.549 110.648 225.979 110.264 224.838 110.241H222.997V112.458ZM28.2393 138.14C28.2393 138.559 28.1112 138.946 27.8552 139.301C27.605 139.65 27.2501 139.929 26.7904 140.138C27.8727 140.517 28.4138 141.247 28.4138 142.329C28.4138 143.196 28.0618 143.889 27.3577 144.406C26.6537 144.919 25.711 145.175 24.5298 145.175C23.8083 145.175 23.1508 145.055 22.5573 144.817C21.9638 144.572 21.5012 144.229 21.1696 143.787C20.8379 143.339 20.6721 142.809 20.6721 142.198H22.7842C22.7842 142.582 22.9559 142.905 23.2992 143.167C23.6425 143.423 24.076 143.551 24.5997 143.551C25.1175 143.551 25.5278 143.432 25.8303 143.193C26.1387 142.949 26.2929 142.632 26.2929 142.242C26.2929 141.782 26.1591 141.451 25.8914 141.247C25.6238 141.043 25.2106 140.941 24.652 140.941H23.1334V139.414H24.7044C25.6529 139.402 26.1271 139.013 26.1271 138.245C26.1271 137.86 25.9903 137.561 25.7169 137.346C25.4434 137.13 25.0681 137.023 24.5909 137.023C24.1254 137.023 23.7327 137.139 23.4127 137.372C23.0926 137.599 22.9326 137.887 22.9326 138.236H20.8204C20.8204 137.404 21.1696 136.723 21.8678 136.193C22.566 135.658 23.4534 135.39 24.5298 135.39C25.6994 135.39 26.61 135.629 27.2617 136.106C27.9134 136.583 28.2393 137.261 28.2393 138.14ZM36.7526 145C36.6595 144.82 36.578 144.526 36.5082 144.118C35.8332 144.823 35.007 145.175 34.0294 145.175C33.081 145.175 32.3071 144.904 31.7078 144.363C31.1085 143.822 30.8088 143.153 30.8088 142.355C30.8088 141.349 31.1812 140.578 31.926 140.042C32.6766 139.501 33.7472 139.231 35.1379 139.231H36.4384V138.611C36.4384 138.122 36.3016 137.732 36.0282 137.442C35.7547 137.145 35.3386 136.996 34.78 136.996C34.2971 136.996 33.9014 137.119 33.593 137.363C33.2846 137.602 33.1304 137.907 33.1304 138.279H31.0095C31.0095 137.762 31.1812 137.279 31.5245 136.831C31.8678 136.377 32.3333 136.022 32.921 135.766C33.5145 135.51 34.1749 135.382 34.9022 135.382C36.0078 135.382 36.8893 135.661 37.5468 136.22C38.2043 136.772 38.5418 137.552 38.5593 138.559V142.818C38.5593 143.668 38.6786 144.345 38.9171 144.852V145H36.7526ZM34.4222 143.473C34.8411 143.473 35.2339 143.371 35.6005 143.167C35.9729 142.963 36.2522 142.69 36.4384 142.347V140.566H35.295C34.5095 140.566 33.9189 140.703 33.5232 140.976C33.1275 141.25 32.9297 141.637 32.9297 142.137C32.9297 142.545 33.0635 142.87 33.3312 143.115C33.6047 143.353 33.9683 143.473 34.4222 143.473ZM45.0302 141.264H43.9567V145H41.8358V135.556H43.9567V139.327H44.8906L47.5003 135.556H50.1187L46.706 140.077L50.4067 145H47.6487L45.0302 141.264ZM60.7355 140.374C60.7355 141.835 60.4038 143.001 59.7405 143.874C59.0771 144.741 58.1869 145.175 57.0697 145.175C56.034 145.175 55.2048 144.834 54.5822 144.153V148.631H52.4613V135.556H54.4164L54.5036 136.516C55.1262 135.76 55.9729 135.382 57.0435 135.382C58.1956 135.382 59.0975 135.812 59.7492 136.673C60.4067 137.529 60.7355 138.719 60.7355 140.243V140.374ZM58.6233 140.191C58.6233 139.248 58.4342 138.501 58.056 137.948C57.6836 137.395 57.1482 137.119 56.45 137.119C55.583 137.119 54.9604 137.476 54.5822 138.192V142.382C54.9662 143.115 55.5946 143.481 56.4675 143.481C57.1424 143.481 57.669 143.211 58.0472 142.67C58.4313 142.123 58.6233 141.296 58.6233 140.191ZM65.7139 138.559H67.7912C68.5651 138.559 69.24 138.693 69.8161 138.96C70.3921 139.228 70.8286 139.603 71.1253 140.086C71.4279 140.569 71.5792 141.131 71.5792 141.771C71.5792 142.742 71.2359 143.522 70.5493 144.11C69.8626 144.697 68.9491 144.994 67.8087 145H63.593V135.556H65.7139V138.559ZM75.2711 145H73.1502V135.556H75.2711V145ZM65.7139 140.261V143.307H67.7825C68.3003 143.307 68.7076 143.179 69.0044 142.923C69.307 142.661 69.4582 142.291 69.4582 141.814C69.4582 141.337 69.3099 140.962 69.0131 140.688C68.7222 140.409 68.3265 140.266 67.8261 140.261H65.7139ZM86.141 137.241H83.0775V145H80.9566V137.241H77.9279V135.556H86.141V137.241ZM90.7354 138.559H92.8127C93.5866 138.559 94.2616 138.693 94.8376 138.96C95.4137 139.228 95.8501 139.603 96.1468 140.086C96.4494 140.569 96.6007 141.131 96.6007 141.771C96.6007 142.742 96.2574 143.522 95.5708 144.11C94.8842 144.697 93.9706 144.994 92.8302 145H88.6145V135.556H90.7354V138.559ZM100.293 145H98.1717V135.556H100.293V145ZM90.7354 140.261V143.307H92.804C93.3218 143.307 93.7292 143.179 94.0259 142.923C94.3285 142.661 94.4798 142.291 94.4798 141.814C94.4798 141.337 94.3314 140.962 94.0346 140.688C93.7437 140.409 93.348 140.266 92.8476 140.261H90.7354ZM109.626 135.556H111.739V145H109.626V138.698L105.926 145H103.814V135.556H105.926V141.858L109.626 135.556ZM110.621 131.934C110.621 132.667 110.365 133.261 109.853 133.715C109.341 134.169 108.658 134.395 107.802 134.395C106.947 134.395 106.263 134.169 105.751 133.715C105.239 133.261 104.983 132.667 104.983 131.934H106.572C106.572 132.318 106.679 132.618 106.895 132.833C107.116 133.043 107.418 133.147 107.802 133.147C108.186 133.147 108.486 133.043 108.701 132.833C108.917 132.618 109.024 132.318 109.024 131.934H110.621ZM123.589 141.264H122.516V145H120.395V135.556H122.516V139.327H123.45L126.06 135.556H128.678L125.265 140.077L128.966 145H126.208L123.589 141.264ZM136.668 145C136.574 144.82 136.493 144.526 136.423 144.118C135.748 144.823 134.922 145.175 133.944 145.175C132.996 145.175 132.222 144.904 131.623 144.363C131.023 143.822 130.724 143.153 130.724 142.355C130.724 141.349 131.096 140.578 131.841 140.042C132.592 139.501 133.662 139.231 135.053 139.231H136.353V138.611C136.353 138.122 136.217 137.732 135.943 137.442C135.67 137.145 135.254 136.996 134.695 136.996C134.212 136.996 133.816 137.119 133.508 137.363C133.2 137.602 133.045 137.907 133.045 138.279H130.925C130.925 137.762 131.096 137.279 131.439 136.831C131.783 136.377 132.248 136.022 132.836 135.766C133.429 135.51 134.09 135.382 134.817 135.382C135.923 135.382 136.804 135.661 137.462 136.22C138.119 136.772 138.457 137.552 138.474 138.559V142.818C138.474 143.668 138.594 144.345 138.832 144.852V145H136.668ZM134.337 143.473C134.756 143.473 135.149 143.371 135.515 143.167C135.888 142.963 136.167 142.69 136.353 142.347V140.566H135.21C134.424 140.566 133.834 140.703 133.438 140.976C133.043 141.25 132.845 141.637 132.845 142.137C132.845 142.545 132.979 142.87 133.246 143.115C133.52 143.353 133.883 143.473 134.337 143.473ZM148.882 137.241H145.818V145H143.697V137.241H140.668V135.556H148.882V137.241ZM156.697 145C156.604 144.82 156.522 144.526 156.452 144.118C155.777 144.823 154.951 145.175 153.973 145.175C153.025 145.175 152.251 144.904 151.652 144.363C151.053 143.822 150.753 143.153 150.753 142.355C150.753 141.349 151.125 140.578 151.87 140.042C152.621 139.501 153.691 139.231 155.082 139.231H156.382V138.611C156.382 138.122 156.246 137.732 155.972 137.442C155.699 137.145 155.283 136.996 154.724 136.996C154.241 136.996 153.845 137.119 153.537 137.363C153.229 137.602 153.075 137.907 153.075 138.279H150.954C150.954 137.762 151.125 137.279 151.469 136.831C151.812 136.377 152.277 136.022 152.865 135.766C153.459 135.51 154.119 135.382 154.846 135.382C155.952 135.382 156.833 135.661 157.491 136.22C158.148 136.772 158.486 137.552 158.503 138.559V142.818C158.503 143.668 158.623 144.345 158.861 144.852V145H156.697ZM154.366 143.473C154.785 143.473 155.178 143.371 155.545 143.167C155.917 142.963 156.196 142.69 156.382 142.347V140.566H155.239C154.454 140.566 153.863 140.703 153.467 140.976C153.072 141.25 152.874 141.637 152.874 142.137C152.874 142.545 153.008 142.87 153.275 143.115C153.549 143.353 153.912 143.473 154.366 143.473ZM169.644 135.556V145H167.523V137.267H164.852L164.678 140.557C164.567 142.14 164.262 143.278 163.761 143.97C163.267 144.657 162.507 145 161.483 145H160.828L160.82 143.237L161.256 143.193C161.722 143.129 162.059 142.847 162.269 142.347C162.484 141.84 162.621 140.921 162.679 139.589L162.853 135.556H169.644ZM172.397 140.191C172.397 139.266 172.58 138.434 172.946 137.695C173.313 136.95 173.828 136.38 174.491 135.984C175.155 135.582 175.917 135.382 176.778 135.382C178.052 135.382 179.085 135.792 179.877 136.612C180.674 137.433 181.104 138.521 181.168 139.877L181.177 140.374C181.177 141.305 180.997 142.137 180.636 142.87C180.281 143.604 179.769 144.171 179.1 144.572C178.436 144.974 177.668 145.175 176.796 145.175C175.463 145.175 174.395 144.732 173.592 143.848C172.795 142.958 172.397 141.774 172.397 140.296V140.191ZM174.518 140.374C174.518 141.346 174.718 142.108 175.12 142.661C175.521 143.208 176.08 143.481 176.796 143.481C177.511 143.481 178.067 143.202 178.463 142.643C178.864 142.085 179.065 141.267 179.065 140.191C179.065 139.237 178.858 138.48 178.445 137.922C178.038 137.363 177.482 137.084 176.778 137.084C176.086 137.084 175.536 137.36 175.128 137.913C174.721 138.46 174.518 139.28 174.518 140.374ZM190.153 137.267H186.051V145H183.939V135.556H190.153V137.267Z" fill="#CEAC6A"/>
<path d="M28.1758 190.811H26.9507V186.539H22.2915V190.811H21.0728V181.568H22.2915V185.542H26.9507V181.568H28.1758V190.811ZM34.3965 190.811C34.3288 190.675 34.2738 190.434 34.2314 190.087C33.6855 190.654 33.0339 190.938 32.2764 190.938C31.5993 190.938 31.0428 190.747 30.6069 190.366C30.1753 189.981 29.9595 189.494 29.9595 188.906C29.9595 188.191 30.2303 187.637 30.772 187.243C31.3179 186.845 32.0838 186.646 33.0698 186.646H34.2124V186.107C34.2124 185.696 34.0897 185.371 33.8442 185.129C33.5988 184.884 33.237 184.761 32.7588 184.761C32.3398 184.761 31.9886 184.867 31.7051 185.079C31.4216 185.29 31.2798 185.546 31.2798 185.847H30.0991C30.0991 185.504 30.2197 185.174 30.4609 184.856C30.7064 184.535 31.0365 184.281 31.4512 184.095C31.8701 183.909 32.3293 183.815 32.8286 183.815C33.62 183.815 34.2399 184.014 34.6885 184.412C35.137 184.806 35.3698 185.349 35.3867 186.043V189.205C35.3867 189.835 35.4671 190.337 35.6279 190.709V190.811H34.3965ZM32.4478 189.916C32.8159 189.916 33.165 189.82 33.4951 189.63C33.8252 189.439 34.0643 189.192 34.2124 188.887V187.478H33.292C31.8532 187.478 31.1338 187.899 31.1338 188.741C31.1338 189.109 31.2565 189.397 31.502 189.604C31.7474 189.812 32.0627 189.916 32.4478 189.916ZM40.5601 190.811V183.942H43.2388C44.1528 183.942 44.8532 184.103 45.3398 184.425C45.8307 184.742 46.0762 185.21 46.0762 185.828C46.0762 186.145 45.981 186.433 45.7905 186.691C45.6001 186.945 45.3187 187.139 44.9463 187.275C45.361 187.372 45.6932 187.563 45.9429 187.846C46.1968 188.13 46.3237 188.468 46.3237 188.862C46.3237 189.492 46.091 189.975 45.6255 190.309C45.1642 190.643 44.5104 190.811 43.6641 190.811H40.5601ZM41.7344 187.795V189.865H43.6768C44.1676 189.865 44.5337 189.774 44.7749 189.592C45.0203 189.41 45.1431 189.154 45.1431 188.824C45.1431 188.138 44.6395 187.795 43.6323 187.795H41.7344ZM41.7344 186.856H43.2515C44.3517 186.856 44.9019 186.534 44.9019 185.891C44.9019 185.248 44.3814 184.916 43.3403 184.895H41.7344V186.856ZM52.1191 190.811C52.0514 190.675 51.9964 190.434 51.9541 190.087C51.4082 190.654 50.7565 190.938 49.999 190.938C49.3219 190.938 48.7655 190.747 48.3296 190.366C47.898 189.981 47.6821 189.494 47.6821 188.906C47.6821 188.191 47.953 187.637 48.4946 187.243C49.0405 186.845 49.8065 186.646 50.7925 186.646H51.9351V186.107C51.9351 185.696 51.8123 185.371 51.5669 185.129C51.3215 184.884 50.9596 184.761 50.4814 184.761C50.0625 184.761 49.7113 184.867 49.4277 185.079C49.1442 185.29 49.0024 185.546 49.0024 185.847H47.8218C47.8218 185.504 47.9424 185.174 48.1836 184.856C48.429 184.535 48.7591 184.281 49.1738 184.095C49.5928 183.909 50.0519 183.815 50.5513 183.815C51.3426 183.815 51.9626 184.014 52.4111 184.412C52.8597 184.806 53.0925 185.349 53.1094 186.043V189.205C53.1094 189.835 53.1898 190.337 53.3506 190.709V190.811H52.1191ZM50.1704 189.916C50.5386 189.916 50.8877 189.82 51.2178 189.63C51.5479 189.439 51.787 189.192 51.9351 188.887V187.478H51.0147C49.5759 187.478 48.8564 187.899 48.8564 188.741C48.8564 189.109 48.9792 189.397 49.2246 189.604C49.4701 189.812 49.7853 189.916 50.1704 189.916ZM56.2324 183.942V189.852H58.7461V183.942H59.9204V189.852H62.4277V183.942H63.6084V190.811H55.0518V183.942H56.2324ZM74.2979 190.811H73.1235V187.878H69.9688V190.811H68.7881V183.942H69.9688V186.919H73.1235V183.942H74.2979V190.811ZM75.8784 187.313C75.8784 186.64 76.0096 186.035 76.272 185.498C76.5386 184.96 76.9067 184.545 77.3765 184.253C77.8504 183.961 78.39 183.815 78.9951 183.815C79.9303 183.815 80.6857 184.139 81.2612 184.787C81.841 185.434 82.1309 186.295 82.1309 187.37V187.453C82.1309 188.121 82.0018 188.722 81.7437 189.255C81.4898 189.784 81.1237 190.197 80.6455 190.493C80.1716 190.789 79.6257 190.938 79.0078 190.938C78.0768 190.938 77.3215 190.614 76.7417 189.966C76.1662 189.319 75.8784 188.462 75.8784 187.396V187.313ZM77.0591 187.453C77.0591 188.214 77.2347 188.826 77.5859 189.287C77.9414 189.748 78.4154 189.979 79.0078 189.979C79.6045 189.979 80.0785 189.746 80.4297 189.281C80.7809 188.811 80.9566 188.155 80.9566 187.313C80.9566 186.56 80.7767 185.95 80.417 185.485C80.0615 185.015 79.5876 184.78 78.9951 184.78C78.4154 184.78 77.9478 185.011 77.5923 185.472C77.2368 185.933 77.0591 186.594 77.0591 187.453ZM87.5581 189.255L89.8941 183.942H91.3604V190.811H90.186V185.815L87.9644 190.811H87.1519L84.8858 185.707V190.811H83.7114V183.942H85.2349L87.5581 189.255ZM96.1021 190.938C95.1711 190.938 94.4136 190.633 93.8296 190.023C93.2456 189.41 92.9536 188.591 92.9536 187.567V187.351C92.9536 186.67 93.0827 186.062 93.3408 185.529C93.6032 184.992 93.9671 184.573 94.4326 184.272C94.9024 183.968 95.4102 183.815 95.9561 183.815C96.849 183.815 97.543 184.11 98.0381 184.698C98.5332 185.286 98.7808 186.128 98.7808 187.224V187.713H94.1279C94.1449 188.39 94.3416 188.938 94.7183 189.357C95.0991 189.772 95.5816 189.979 96.1655 189.979C96.5802 189.979 96.9315 189.894 97.2192 189.725C97.507 189.556 97.7588 189.332 97.9746 189.052L98.6919 189.611C98.1164 190.495 97.2531 190.938 96.1021 190.938ZM95.9561 184.78C95.4821 184.78 95.0843 184.954 94.7627 185.301C94.4411 185.644 94.2422 186.126 94.166 186.748H97.6065V186.659C97.5726 186.062 97.4118 185.601 97.124 185.275C96.8363 184.945 96.4469 184.78 95.9561 184.78ZM105.947 187.453C105.947 188.498 105.708 189.34 105.23 189.979C104.752 190.618 104.104 190.938 103.288 190.938C102.454 190.938 101.798 190.673 101.32 190.144V193.451H100.146V183.942H101.218L101.275 184.704C101.754 184.112 102.418 183.815 103.269 183.815C104.094 183.815 104.745 184.126 105.224 184.749C105.706 185.371 105.947 186.236 105.947 187.345V187.453ZM104.773 187.319C104.773 186.545 104.608 185.933 104.278 185.485C103.948 185.036 103.495 184.812 102.919 184.812C102.209 184.812 101.675 185.127 101.32 185.758V189.04C101.671 189.666 102.209 189.979 102.932 189.979C103.495 189.979 103.941 189.757 104.271 189.312C104.606 188.864 104.773 188.2 104.773 187.319ZM229.669 184.336C230.533 184.336 231.223 184.626 231.739 185.206C232.259 185.781 232.52 186.541 232.52 187.484V187.592C232.52 188.24 232.395 188.819 232.145 189.332C231.895 189.839 231.536 190.235 231.066 190.519C230.6 190.798 230.063 190.938 229.454 190.938C228.531 190.938 227.788 190.631 227.226 190.017C226.663 189.399 226.381 188.572 226.381 187.535V186.964C226.381 185.521 226.648 184.374 227.181 183.523C227.719 182.673 228.51 182.154 229.555 181.968C230.148 181.862 230.548 181.733 230.755 181.581C230.962 181.429 231.066 181.219 231.066 180.953H232.031C232.031 181.482 231.91 181.894 231.669 182.19C231.432 182.487 231.051 182.696 230.526 182.819L229.65 183.016C228.952 183.181 228.427 183.46 228.076 183.854C227.729 184.243 227.503 184.763 227.397 185.415C228.019 184.696 228.777 184.336 229.669 184.336ZM229.441 185.301C228.865 185.301 228.408 185.495 228.07 185.885C227.731 186.27 227.562 186.805 227.562 187.491V187.592C227.562 188.329 227.731 188.913 228.07 189.344C228.413 189.772 228.874 189.985 229.454 189.985C230.038 189.985 230.499 189.77 230.837 189.338C231.176 188.906 231.345 188.276 231.345 187.446C231.345 186.799 231.174 186.28 230.831 185.891C230.493 185.498 230.029 185.301 229.441 185.301ZM235.122 186.31H236.906C237.684 186.319 238.3 186.522 238.753 186.919C239.206 187.317 239.432 187.857 239.432 188.538C239.432 189.224 239.199 189.774 238.734 190.188C238.268 190.603 237.642 190.811 236.855 190.811H233.948V183.942H235.122V186.31ZM241.882 190.811H240.702V183.942H241.882V190.811ZM235.122 187.269V189.852H236.868C237.308 189.852 237.648 189.74 237.89 189.516C238.131 189.287 238.251 188.976 238.251 188.583C238.251 188.202 238.133 187.891 237.896 187.649C237.663 187.404 237.335 187.277 236.912 187.269H235.122ZM249.563 183.942V190.811H248.382V184.914H246.046L245.907 187.484C245.831 188.665 245.632 189.509 245.31 190.017C244.993 190.525 244.487 190.789 243.793 190.811H243.323V189.776L243.66 189.75C244.041 189.708 244.314 189.488 244.479 189.09C244.644 188.693 244.749 187.956 244.796 186.881L244.923 183.942H249.563ZM20.5776 207.313C20.5776 206.64 20.7088 206.035 20.9712 205.498C21.2378 204.96 21.606 204.545 22.0757 204.253C22.5496 203.961 23.0892 203.815 23.6943 203.815C24.6296 203.815 25.3849 204.139 25.9605 204.787C26.5402 205.434 26.8301 206.295 26.8301 207.37V207.453C26.8301 208.121 26.701 208.722 26.4429 209.255C26.189 209.784 25.8229 210.197 25.3447 210.493C24.8708 210.789 24.3249 210.938 23.707 210.938C22.776 210.938 22.0207 210.614 21.4409 209.966C20.8654 209.319 20.5776 208.462 20.5776 207.396V207.313ZM21.7583 207.453C21.7583 208.214 21.9339 208.826 22.2852 209.287C22.6406 209.748 23.1146 209.979 23.707 209.979C24.3037 209.979 24.7777 209.746 25.1289 209.281C25.4801 208.811 25.6558 208.155 25.6558 207.313C25.6558 206.56 25.4759 205.95 25.1162 205.485C24.7607 205.015 24.2868 204.78 23.6943 204.78C23.1146 204.78 22.647 205.011 22.2915 205.472C21.936 205.933 21.7583 206.594 21.7583 207.453ZM33.2666 204.895H30.9624V210.811H29.7881V204.895H27.5283V203.942H33.2666V204.895ZM40.0269 210.811H38.8525V204.914H35.6914V210.811H34.5107V203.942H40.0269V210.811ZM47.7139 207.453C47.7139 208.498 47.4748 209.34 46.9966 209.979C46.5184 210.618 45.8709 210.938 45.0542 210.938C44.2205 210.938 43.5646 210.673 43.0864 210.144V213.451H41.9121V203.942H42.9849L43.042 204.704C43.5202 204.112 44.1846 203.815 45.0352 203.815C45.8604 203.815 46.512 204.126 46.9902 204.749C47.4727 205.371 47.7139 206.236 47.7139 207.345V207.453ZM46.5396 207.319C46.5396 206.545 46.3745 205.933 46.0444 205.485C45.7144 205.036 45.2616 204.812 44.686 204.812C43.9751 204.812 43.4419 205.127 43.0864 205.758V209.04C43.4377 209.666 43.9751 209.979 44.6987 209.979C45.2616 209.979 45.708 209.757 46.0381 209.312C46.3724 208.864 46.5396 208.2 46.5396 207.319ZM53.4522 210.811C53.3844 210.675 53.3294 210.434 53.2871 210.087C52.7412 210.654 52.0895 210.938 51.332 210.938C50.655 210.938 50.0985 210.747 49.6626 210.366C49.231 209.981 49.0151 209.494 49.0151 208.906C49.0151 208.191 49.286 207.637 49.8276 207.243C50.3735 206.845 51.1395 206.646 52.1255 206.646H53.2681V206.107C53.2681 205.696 53.1453 205.371 52.8999 205.129C52.6545 204.884 52.2926 204.761 51.8145 204.761C51.3955 204.761 51.0443 204.867 50.7607 205.079C50.4772 205.29 50.3355 205.546 50.3355 205.847H49.1548C49.1548 205.504 49.2754 205.174 49.5166 204.856C49.762 204.535 50.0921 204.281 50.5068 204.095C50.9258 203.909 51.3849 203.815 51.8843 203.815C52.6756 203.815 53.2956 204.014 53.7441 204.412C54.1927 204.806 54.4255 205.349 54.4424 206.043V209.205C54.4424 209.835 54.5228 210.337 54.6836 210.709V210.811H53.4522ZM51.5034 209.916C51.8716 209.916 52.2207 209.82 52.5508 209.63C52.8809 209.439 53.12 209.192 53.2681 208.887V207.478H52.3477C50.9089 207.478 50.1895 207.899 50.1895 208.741C50.1895 209.109 50.3122 209.397 50.5576 209.604C50.8031 209.812 51.1183 209.916 51.5034 209.916ZM56.3911 210.811V203.942H59.0698C59.9839 203.942 60.6842 204.103 61.1709 204.425C61.6618 204.742 61.9072 205.21 61.9072 205.828C61.9072 206.145 61.812 206.433 61.6216 206.691C61.4312 206.945 61.1497 207.139 60.7773 207.275C61.1921 207.372 61.5243 207.563 61.7739 207.846C62.0278 208.13 62.1548 208.468 62.1548 208.862C62.1548 209.492 61.922 209.975 61.4565 210.309C60.9953 210.643 60.3415 210.811 59.4951 210.811H56.3911ZM57.5654 207.795V209.865H59.5078C59.9987 209.865 60.3648 209.774 60.606 209.592C60.8514 209.41 60.9741 209.154 60.9741 208.824C60.9741 208.138 60.4705 207.795 59.4634 207.795H57.5654ZM57.5654 206.856H59.0825C60.1828 206.856 60.7329 206.534 60.7329 205.891C60.7329 205.248 60.2124 204.916 59.1714 204.895H57.5654V206.856ZM69.3403 203.942V210.811H68.1597V204.914H65.8237L65.6841 207.484C65.6079 208.665 65.409 209.509 65.0874 210.017C64.77 210.525 64.2643 210.789 63.5703 210.811H63.1006V209.776L63.437 209.75C63.8179 209.708 64.0908 209.488 64.2559 209.09C64.4209 208.693 64.5267 207.956 64.5733 206.881L64.7002 203.942H69.3403ZM74.0757 210.938C73.1447 210.938 72.3872 210.633 71.8032 210.023C71.2192 209.41 70.9273 208.591 70.9273 207.567V207.351C70.9273 206.67 71.0563 206.062 71.3145 205.529C71.5768 204.992 71.9408 204.573 72.4063 204.272C72.876 203.968 73.3838 203.815 73.9297 203.815C74.8226 203.815 75.5166 204.11 76.0117 204.698C76.5068 205.286 76.7544 206.128 76.7544 207.224V207.713H72.1016C72.1185 208.39 72.3153 208.938 72.6919 209.357C73.0728 209.772 73.5552 209.979 74.1392 209.979C74.5539 209.979 74.9051 209.894 75.1929 209.725C75.4806 209.556 75.7324 209.332 75.9483 209.052L76.6655 209.611C76.09 210.495 75.2267 210.938 74.0757 210.938ZM73.9297 204.78C73.4557 204.78 73.058 204.954 72.7363 205.301C72.4147 205.644 72.2158 206.126 72.1397 206.748H75.5801V206.659C75.5462 206.062 75.3854 205.601 75.0977 205.275C74.8099 204.945 74.4206 204.78 73.9297 204.78ZM83.7305 210.811H82.5562V207.878H79.4014V210.811H78.2207V203.942H79.4014V206.919H82.5562V203.942H83.7305V210.811ZM90.9858 207.884H90.1289V210.811H88.9482V203.942H90.1289V206.85H90.897L93.2075 203.942H94.6294L91.9126 207.243L94.8579 210.811H93.3662L90.9858 207.884ZM95.4165 207.313C95.4165 206.64 95.5477 206.035 95.8101 205.498C96.0767 204.96 96.4448 204.545 96.9146 204.253C97.3885 203.961 97.9281 203.815 98.5332 203.815C99.4684 203.815 100.224 204.139 100.799 204.787C101.379 205.434 101.669 206.295 101.669 207.37V207.453C101.669 208.121 101.54 208.722 101.282 209.255C101.028 209.784 100.662 210.197 100.184 210.493C99.7096 210.789 99.1637 210.938 98.5459 210.938C97.6149 210.938 96.8595 210.614 96.2798 209.966C95.7043 209.319 95.4165 208.462 95.4165 207.396V207.313ZM96.5972 207.453C96.5972 208.214 96.7728 208.826 97.124 209.287C97.4795 209.748 97.9535 209.979 98.5459 209.979C99.1426 209.979 99.6165 209.746 99.9678 209.281C100.319 208.811 100.495 208.155 100.495 207.313C100.495 206.56 100.315 205.95 99.9551 205.485C99.5996 205.015 99.1257 204.78 98.5332 204.78C97.9535 204.78 97.4858 205.011 97.1304 205.472C96.7749 205.933 96.5972 206.594 96.5972 207.453ZM102.627 209.852L103.034 209.351C103.491 208.758 103.751 207.869 103.814 206.685L103.922 203.942H108.347V209.852H109.229V212.829H108.055V210.811H103.262V212.829H102.088L102.094 209.852H102.627ZM104.018 209.852H107.172V205.028H105.059L104.989 206.666C104.917 208.032 104.593 209.095 104.018 209.852ZM113.698 209.852L114.104 209.351C114.561 208.758 114.821 207.869 114.885 206.685L114.993 203.942H119.417V209.852H120.299V212.829H119.125V210.811H114.333V212.829H113.158L113.165 209.852H113.698ZM115.088 209.852H118.243V205.028H116.129L116.059 206.666C115.987 208.032 115.663 209.095 115.088 209.852ZM121.29 207.313C121.29 206.64 121.421 206.035 121.683 205.498C121.95 204.96 122.318 204.545 122.788 204.253C123.262 203.961 123.801 203.815 124.406 203.815C125.341 203.815 126.097 204.139 126.672 204.787C127.252 205.434 127.542 206.295 127.542 207.37V207.453C127.542 208.121 127.413 208.722 127.155 209.255C126.901 209.784 126.535 210.197 126.057 210.493C125.583 210.789 125.037 210.938 124.419 210.938C123.488 210.938 122.733 210.614 122.153 209.966C121.577 209.319 121.29 208.462 121.29 207.396V207.313ZM122.47 207.453C122.47 208.214 122.646 208.826 122.997 209.287C123.353 209.748 123.827 209.979 124.419 209.979C125.016 209.979 125.49 209.746 125.841 209.281C126.192 208.811 126.368 208.155 126.368 207.313C126.368 206.56 126.188 205.95 125.828 205.485C125.473 205.015 124.999 204.78 124.406 204.78C123.827 204.78 123.359 205.011 123.003 205.472C122.648 205.933 122.47 206.594 122.47 207.453ZM131.77 209.979C132.188 209.979 132.555 209.852 132.868 209.598C133.181 209.344 133.354 209.027 133.388 208.646H134.499C134.478 209.04 134.342 209.414 134.093 209.77C133.843 210.125 133.509 210.409 133.09 210.62C132.675 210.832 132.235 210.938 131.77 210.938C130.834 210.938 130.09 210.626 129.535 210.004C128.985 209.378 128.71 208.523 128.71 207.44V207.243C128.71 206.575 128.833 205.98 129.078 205.459C129.324 204.939 129.675 204.535 130.132 204.247C130.593 203.959 131.137 203.815 131.763 203.815C132.533 203.815 133.172 204.046 133.68 204.507C134.192 204.969 134.465 205.567 134.499 206.304H133.388C133.354 205.859 133.185 205.495 132.88 205.212C132.58 204.924 132.208 204.78 131.763 204.78C131.167 204.78 130.703 204.996 130.373 205.428C130.047 205.855 129.884 206.475 129.884 207.288V207.51C129.884 208.301 130.047 208.91 130.373 209.338C130.699 209.765 131.164 209.979 131.77 209.979ZM140.923 204.895H138.619V210.811H137.444V204.895H135.185V203.942H140.923V204.895ZM144.389 209.09L145.988 203.942H147.245L144.484 211.871C144.056 213.013 143.377 213.584 142.446 213.584L142.224 213.565L141.786 213.483V212.531L142.104 212.556C142.501 212.556 142.81 212.476 143.03 212.315C143.255 212.154 143.439 211.86 143.583 211.433L143.843 210.734L141.393 203.942H142.675L144.389 209.09ZM153.917 210.811H152.742V204.914H149.581V210.811H148.4V203.942H153.917V210.811ZM160.042 210.811C159.974 210.675 159.919 210.434 159.877 210.087C159.331 210.654 158.679 210.938 157.922 210.938C157.245 210.938 156.688 210.747 156.252 210.366C155.821 209.981 155.605 209.494 155.605 208.906C155.605 208.191 155.876 207.637 156.417 207.243C156.963 206.845 157.729 206.646 158.715 206.646H159.858V206.107C159.858 205.696 159.735 205.371 159.49 205.129C159.244 204.884 158.883 204.761 158.404 204.761C157.985 204.761 157.634 204.867 157.351 205.079C157.067 205.29 156.925 205.546 156.925 205.847H155.745C155.745 205.504 155.865 205.174 156.106 204.856C156.352 204.535 156.682 204.281 157.097 204.095C157.516 203.909 157.975 203.815 158.474 203.815C159.265 203.815 159.885 204.014 160.334 204.412C160.783 204.806 161.015 205.349 161.032 206.043V209.205C161.032 209.835 161.113 210.337 161.273 210.709V210.811H160.042ZM158.093 209.916C158.461 209.916 158.811 209.82 159.141 209.63C159.471 209.439 159.71 209.192 159.858 208.887V207.478H158.938C157.499 207.478 156.779 207.899 156.779 208.741C156.779 209.109 156.902 209.397 157.147 209.604C157.393 209.812 157.708 209.916 158.093 209.916ZM162.898 210.195C162.898 209.992 162.958 209.822 163.076 209.687C163.199 209.552 163.381 209.484 163.622 209.484C163.863 209.484 164.045 209.552 164.168 209.687C164.295 209.822 164.358 209.992 164.358 210.195C164.358 210.389 164.295 210.552 164.168 210.684C164.045 210.815 163.863 210.88 163.622 210.88C163.381 210.88 163.199 210.815 163.076 210.684C162.958 210.552 162.898 210.389 162.898 210.195Z" fill="#A5A5A5"/>
<path d="M114.034 185.853H116.611V186.964H114.034V189.884H112.854V186.964H110.276V185.853H112.854V183.155H114.034V185.853ZM127.117 182.229L123.289 190.811H122.058L125.873 182.533H120.871V181.568H127.117V182.229ZM131.751 187.059C131.751 186.103 131.877 185.184 132.131 184.304C132.39 183.424 132.772 182.624 133.28 181.905C133.788 181.185 134.315 180.678 134.861 180.381L135.102 181.156C134.484 181.63 133.976 182.353 133.579 183.327C133.185 184.3 132.969 185.39 132.931 186.596L132.925 187.135C132.925 188.769 133.223 190.186 133.82 191.388C134.18 192.108 134.607 192.67 135.102 193.077L134.861 193.794C134.298 193.481 133.761 192.956 133.249 192.22C132.25 190.781 131.751 189.061 131.751 187.059ZM140.618 186.748C140.373 187.04 140.079 187.275 139.736 187.453C139.397 187.63 139.025 187.719 138.619 187.719C138.085 187.719 137.62 187.588 137.222 187.326C136.829 187.063 136.524 186.695 136.308 186.221C136.092 185.743 135.984 185.216 135.984 184.641C135.984 184.023 136.101 183.466 136.334 182.971C136.57 182.476 136.905 182.097 137.336 181.835C137.768 181.573 138.272 181.441 138.847 181.441C139.761 181.441 140.481 181.784 141.005 182.47C141.534 183.151 141.799 184.082 141.799 185.263V185.605C141.799 187.404 141.443 188.718 140.732 189.547C140.022 190.373 138.949 190.796 137.514 190.817H137.286V189.827H137.533C138.502 189.81 139.247 189.558 139.768 189.071C140.288 188.58 140.572 187.806 140.618 186.748ZM138.809 186.748C139.203 186.748 139.564 186.627 139.895 186.386C140.229 186.145 140.472 185.847 140.625 185.491V185.021C140.625 184.251 140.457 183.625 140.123 183.143C139.789 182.66 139.366 182.419 138.854 182.419C138.337 182.419 137.923 182.618 137.609 183.016C137.296 183.409 137.14 183.93 137.14 184.577C137.14 185.208 137.29 185.728 137.59 186.139C137.895 186.545 138.301 186.748 138.809 186.748ZM147.277 190.811H146.096V182.984L143.729 183.854V182.787L147.093 181.524H147.277V190.811ZM155.218 186.748C154.972 187.04 154.678 187.275 154.335 187.453C153.997 187.63 153.625 187.719 153.218 187.719C152.685 187.719 152.22 187.588 151.822 187.326C151.428 187.063 151.124 186.695 150.908 186.221C150.692 185.743 150.584 185.216 150.584 184.641C150.584 184.023 150.7 183.466 150.933 182.971C151.17 182.476 151.504 182.097 151.936 181.835C152.368 181.573 152.871 181.441 153.447 181.441C154.361 181.441 155.08 181.784 155.605 182.47C156.134 183.151 156.398 184.082 156.398 185.263V185.605C156.398 187.404 156.043 188.718 155.332 189.547C154.621 190.373 153.548 190.796 152.114 190.817H151.885V189.827H152.133C153.102 189.81 153.847 189.558 154.367 189.071C154.888 188.58 155.171 187.806 155.218 186.748ZM153.409 186.748C153.802 186.748 154.164 186.627 154.494 186.386C154.828 186.145 155.072 185.847 155.224 185.491V185.021C155.224 184.251 155.057 183.625 154.723 183.143C154.388 182.66 153.965 182.419 153.453 182.419C152.937 182.419 152.522 182.618 152.209 183.016C151.896 183.409 151.739 183.93 151.739 184.577C151.739 185.208 151.89 185.728 152.19 186.139C152.495 186.545 152.901 186.748 153.409 186.748ZM160.848 187.123C160.848 188.066 160.723 188.972 160.474 189.839C160.228 190.703 159.849 191.5 159.337 192.232C158.83 192.965 158.296 193.485 157.738 193.794L157.49 193.077C158.142 192.577 158.665 191.803 159.058 190.753C159.456 189.7 159.659 188.532 159.667 187.25V187.046C159.667 186.158 159.574 185.333 159.388 184.571C159.202 183.805 158.942 183.119 158.607 182.514C158.277 181.909 157.905 181.437 157.49 181.099L157.738 180.381C158.296 180.69 158.827 181.207 159.331 181.93C159.839 182.654 160.218 183.451 160.467 184.323C160.721 185.195 160.848 186.128 160.848 187.123ZM171.728 182.229L167.9 190.811H166.669L170.484 182.533H165.482V181.568H171.728V182.229ZM179.028 182.229L175.2 190.811H173.969L177.784 182.533H172.782V181.568H179.028V182.229ZM189.19 183.98C189.19 184.442 189.068 184.852 188.822 185.212C188.581 185.572 188.253 185.853 187.838 186.056C188.321 186.264 188.702 186.566 188.981 186.964C189.265 187.362 189.406 187.812 189.406 188.316C189.406 189.116 189.135 189.753 188.594 190.227C188.056 190.701 187.348 190.938 186.467 190.938C185.579 190.938 184.866 190.701 184.328 190.227C183.795 189.748 183.528 189.111 183.528 188.316C183.528 187.817 183.664 187.366 183.935 186.964C184.21 186.562 184.588 186.257 185.071 186.05C184.66 185.847 184.337 185.565 184.1 185.206C183.863 184.846 183.744 184.437 183.744 183.98C183.744 183.202 183.994 182.584 184.493 182.127C184.993 181.67 185.651 181.441 186.467 181.441C187.28 181.441 187.936 181.67 188.435 182.127C188.939 182.584 189.19 183.202 189.19 183.98ZM188.232 188.291C188.232 187.774 188.067 187.353 187.737 187.027C187.411 186.701 186.984 186.539 186.455 186.539C185.926 186.539 185.5 186.699 185.179 187.021C184.861 187.343 184.703 187.766 184.703 188.291C184.703 188.815 184.857 189.228 185.166 189.528C185.479 189.829 185.913 189.979 186.467 189.979C187.017 189.979 187.449 189.829 187.762 189.528C188.075 189.224 188.232 188.811 188.232 188.291ZM186.467 182.406C186.006 182.406 185.632 182.55 185.344 182.838C185.06 183.121 184.918 183.509 184.918 184C184.918 184.469 185.058 184.85 185.337 185.142C185.621 185.43 185.998 185.574 186.467 185.574C186.937 185.574 187.312 185.43 187.591 185.142C187.874 184.85 188.016 184.469 188.016 184C188.016 183.53 187.87 183.147 187.578 182.851C187.286 182.554 186.916 182.406 186.467 182.406ZM196.49 183.98C196.49 184.442 196.368 184.852 196.122 185.212C195.881 185.572 195.553 185.853 195.138 186.056C195.621 186.264 196.001 186.566 196.281 186.964C196.564 187.362 196.706 187.812 196.706 188.316C196.706 189.116 196.435 189.753 195.894 190.227C195.356 190.701 194.647 190.938 193.767 190.938C192.878 190.938 192.165 190.701 191.628 190.227C191.095 189.748 190.828 189.111 190.828 188.316C190.828 187.817 190.964 187.366 191.234 186.964C191.509 186.562 191.888 186.257 192.371 186.05C191.96 185.847 191.636 185.565 191.399 185.206C191.162 184.846 191.044 184.437 191.044 183.98C191.044 183.202 191.294 182.584 191.793 182.127C192.292 181.67 192.95 181.441 193.767 181.441C194.58 181.441 195.236 181.67 195.735 182.127C196.238 182.584 196.49 183.202 196.49 183.98ZM195.532 188.291C195.532 187.774 195.367 187.353 195.037 187.027C194.711 186.701 194.283 186.539 193.754 186.539C193.225 186.539 192.8 186.699 192.479 187.021C192.161 187.343 192.002 187.766 192.002 188.291C192.002 188.815 192.157 189.228 192.466 189.528C192.779 189.829 193.213 189.979 193.767 189.979C194.317 189.979 194.749 189.829 195.062 189.528C195.375 189.224 195.532 188.811 195.532 188.291ZM193.767 182.406C193.306 182.406 192.931 182.55 192.644 182.838C192.36 183.121 192.218 183.509 192.218 184C192.218 184.469 192.358 184.85 192.637 185.142C192.921 185.43 193.297 185.574 193.767 185.574C194.237 185.574 194.611 185.43 194.891 185.142C195.174 184.85 195.316 184.469 195.316 184C195.316 183.53 195.17 183.147 194.878 182.851C194.586 182.554 194.216 182.406 193.767 182.406ZM203.117 185.618H204C204.554 185.61 204.99 185.464 205.307 185.18C205.625 184.897 205.783 184.514 205.783 184.031C205.783 182.948 205.244 182.406 204.165 182.406C203.657 182.406 203.251 182.552 202.946 182.844C202.645 183.132 202.495 183.515 202.495 183.993H201.321C201.321 183.261 201.587 182.654 202.121 182.171C202.658 181.685 203.339 181.441 204.165 181.441C205.036 181.441 205.72 181.672 206.215 182.133C206.71 182.595 206.958 183.236 206.958 184.057C206.958 184.459 206.826 184.848 206.564 185.225C206.306 185.601 205.953 185.883 205.504 186.069C206.012 186.23 206.403 186.496 206.678 186.869C206.958 187.241 207.097 187.696 207.097 188.233C207.097 189.063 206.826 189.721 206.285 190.208C205.743 190.694 205.038 190.938 204.171 190.938C203.303 190.938 202.597 190.703 202.051 190.233C201.509 189.763 201.238 189.143 201.238 188.373H202.419C202.419 188.86 202.578 189.249 202.895 189.541C203.212 189.833 203.638 189.979 204.171 189.979C204.738 189.979 205.172 189.831 205.472 189.535C205.773 189.238 205.923 188.813 205.923 188.259C205.923 187.721 205.758 187.309 205.428 187.021C205.098 186.733 204.622 186.585 204 186.577H203.117V185.618ZM210.417 185.618H211.299C211.854 185.61 212.29 185.464 212.607 185.18C212.924 184.897 213.083 184.514 213.083 184.031C213.083 182.948 212.543 182.406 211.464 182.406C210.957 182.406 210.55 182.552 210.246 182.844C209.945 183.132 209.795 183.515 209.795 183.993H208.621C208.621 183.261 208.887 182.654 209.42 182.171C209.958 181.685 210.639 181.441 211.464 181.441C212.336 181.441 213.02 181.672 213.515 182.133C214.01 182.595 214.257 183.236 214.257 184.057C214.257 184.459 214.126 184.848 213.864 185.225C213.606 185.601 213.252 185.883 212.804 186.069C213.312 186.23 213.703 186.496 213.978 186.869C214.257 187.241 214.397 187.696 214.397 188.233C214.397 189.063 214.126 189.721 213.585 190.208C213.043 190.694 212.338 190.938 211.471 190.938C210.603 190.938 209.897 190.703 209.351 190.233C208.809 189.763 208.538 189.143 208.538 188.373H209.719C209.719 188.86 209.877 189.249 210.195 189.541C210.512 189.833 210.938 189.979 211.471 189.979C212.038 189.979 212.472 189.831 212.772 189.535C213.072 189.238 213.223 188.813 213.223 188.259C213.223 187.721 213.058 187.309 212.728 187.021C212.397 186.733 211.921 186.585 211.299 186.577H210.417V185.618ZM217.717 185.618H218.599C219.154 185.61 219.589 185.464 219.907 185.18C220.224 184.897 220.383 184.514 220.383 184.031C220.383 182.948 219.843 182.406 218.764 182.406C218.256 182.406 217.85 182.552 217.545 182.844C217.245 183.132 217.095 183.515 217.095 183.993H215.92C215.92 183.261 216.187 182.654 216.72 182.171C217.258 181.685 217.939 181.441 218.764 181.441C219.636 181.441 220.319 181.672 220.814 182.133C221.31 182.595 221.557 183.236 221.557 184.057C221.557 184.459 221.426 184.848 221.164 185.225C220.905 185.601 220.552 185.883 220.104 186.069C220.611 186.23 221.003 186.496 221.278 186.869C221.557 187.241 221.697 187.696 221.697 188.233C221.697 189.063 221.426 189.721 220.884 190.208C220.343 190.694 219.638 190.938 218.771 190.938C217.903 190.938 217.196 190.703 216.65 190.233C216.109 189.763 215.838 189.143 215.838 188.373H217.019C217.019 188.86 217.177 189.249 217.495 189.541C217.812 189.833 218.237 189.979 218.771 189.979C219.338 189.979 219.771 189.831 220.072 189.535C220.372 189.238 220.522 188.813 220.522 188.259C220.522 187.721 220.357 187.309 220.027 187.021C219.697 186.733 219.221 186.585 218.599 186.577H217.717V185.618ZM175.537 201.568H176.755V210.811H175.537V203.688L170.985 210.811H169.76V201.568H170.985V208.69L175.537 201.568ZM182.57 205.821C182.57 205.5 182.447 205.246 182.202 205.06C181.956 204.869 181.62 204.774 181.192 204.774C180.778 204.774 180.431 204.882 180.151 205.098C179.876 205.313 179.739 205.567 179.739 205.859H178.571C178.571 205.263 178.82 204.774 179.32 204.393C179.819 204.012 180.443 203.822 181.192 203.822C181.996 203.822 182.623 203.995 183.071 204.342C183.52 204.685 183.744 205.176 183.744 205.815C183.744 206.124 183.651 206.407 183.465 206.666C183.279 206.924 183.014 207.129 182.671 207.281C183.471 207.552 183.871 208.085 183.871 208.881C183.871 209.511 183.628 210.011 183.141 210.379C182.654 210.747 182.005 210.931 181.192 210.931C180.401 210.931 179.747 210.739 179.231 210.354C178.719 209.964 178.463 209.439 178.463 208.779H179.631C179.631 209.114 179.779 209.401 180.075 209.643C180.376 209.88 180.748 209.998 181.192 209.998C181.641 209.998 182.003 209.894 182.278 209.687C182.553 209.48 182.69 209.211 182.69 208.881C182.69 208.496 182.574 208.221 182.341 208.056C182.113 207.886 181.755 207.802 181.269 207.802H180.094V206.812H181.37C182.17 206.79 182.57 206.46 182.57 205.821ZM189.349 209.255L191.685 203.942H193.151V210.811H191.977V205.815L189.755 210.811H188.943L186.677 205.707V210.811H185.502V203.942H187.026L189.349 209.255ZM197.893 210.938C196.962 210.938 196.205 210.633 195.621 210.023C195.037 209.41 194.745 208.591 194.745 207.567V207.351C194.745 206.67 194.874 206.062 195.132 205.529C195.394 204.992 195.758 204.573 196.224 204.272C196.693 203.968 197.201 203.815 197.747 203.815C198.64 203.815 199.334 204.11 199.829 204.698C200.324 205.286 200.572 206.128 200.572 207.224V207.713H195.919C195.936 208.39 196.133 208.938 196.509 209.357C196.89 209.772 197.373 209.979 197.957 209.979C198.371 209.979 198.723 209.894 199.01 209.725C199.298 209.556 199.55 209.332 199.766 209.052L200.483 209.611C199.907 210.495 199.044 210.938 197.893 210.938ZM197.747 204.78C197.273 204.78 196.875 204.954 196.554 205.301C196.232 205.644 196.033 206.126 195.957 206.748H199.397V206.659C199.364 206.062 199.203 205.601 198.915 205.275C198.627 204.945 198.238 204.78 197.747 204.78ZM207.548 210.811H206.374V207.878H203.219V210.811H202.038V203.942H203.219V206.919H206.374V203.942H207.548V210.811ZM213.883 203.942H215.057V210.811H213.883V205.802L210.715 210.811H209.541V203.942H210.715V208.957L213.883 203.942ZM222.046 204.895H219.742V210.811H218.567V204.895H216.308V203.942H222.046V204.895ZM224.471 206.31H226.254C227.033 206.319 227.649 206.522 228.102 206.919C228.554 207.317 228.781 207.857 228.781 208.538C228.781 209.224 228.548 209.774 228.083 210.188C227.617 210.603 226.991 210.811 226.204 210.811H223.296V203.942H224.471V206.31ZM224.471 207.269V209.852H226.216C226.656 209.852 226.997 209.74 227.238 209.516C227.48 209.287 227.6 208.976 227.6 208.583C227.6 208.202 227.482 207.891 227.245 207.649C227.012 207.404 226.684 207.277 226.261 207.269H224.471ZM239.083 210.811H237.909V207.878H234.754V210.811H233.573V203.942H234.754V206.919H237.909V203.942H239.083V210.811ZM240.664 207.313C240.664 206.64 240.795 206.035 241.057 205.498C241.324 204.96 241.692 204.545 242.162 204.253C242.636 203.961 243.175 203.815 243.78 203.815C244.716 203.815 245.471 204.139 246.046 204.787C246.626 205.434 246.916 206.295 246.916 207.37V207.453C246.916 208.121 246.787 208.722 246.529 209.255C246.275 209.784 245.909 210.197 245.431 210.493C244.957 210.789 244.411 210.938 243.793 210.938C242.862 210.938 242.107 210.614 241.527 209.966C240.951 209.319 240.664 208.462 240.664 207.396V207.313ZM241.844 207.453C241.844 208.214 242.02 208.826 242.371 209.287C242.727 209.748 243.201 209.979 243.793 209.979C244.39 209.979 244.864 209.746 245.215 209.281C245.566 208.811 245.742 208.155 245.742 207.313C245.742 206.56 245.562 205.95 245.202 205.485C244.847 205.015 244.373 204.78 243.78 204.78C243.201 204.78 242.733 205.011 242.377 205.472C242.022 205.933 241.844 206.594 241.844 207.453ZM252.343 209.255L254.679 203.942H256.146V210.811H254.971V205.815L252.75 210.811H251.937L249.671 205.707V210.811H248.497V203.942H250.02L252.343 209.255ZM260.887 210.938C259.956 210.938 259.199 210.633 258.615 210.023C258.031 209.41 257.739 208.591 257.739 207.567V207.351C257.739 206.67 257.868 206.062 258.126 205.529C258.388 204.992 258.752 204.573 259.218 204.272C259.688 203.968 260.195 203.815 260.741 203.815C261.634 203.815 262.328 204.11 262.823 204.698C263.318 205.286 263.566 206.128 263.566 207.224V207.713H258.913C258.93 208.39 259.127 208.938 259.503 209.357C259.884 209.772 260.367 209.979 260.951 209.979C261.365 209.979 261.717 209.894 262.004 209.725C262.292 209.556 262.544 209.332 262.76 209.052L263.477 209.611C262.902 210.495 262.038 210.938 260.887 210.938ZM260.741 204.78C260.267 204.78 259.869 204.954 259.548 205.301C259.226 205.644 259.027 206.126 258.951 206.748H262.392V206.659C262.358 206.062 262.197 205.601 261.909 205.275C261.621 204.945 261.232 204.78 260.741 204.78ZM270.732 207.453C270.732 208.498 270.493 209.34 270.015 209.979C269.537 210.618 268.89 210.938 268.073 210.938C267.239 210.938 266.583 210.673 266.105 210.144V213.451H264.931V203.942H266.003L266.061 204.704C266.539 204.112 267.203 203.815 268.054 203.815C268.879 203.815 269.531 204.126 270.009 204.749C270.491 205.371 270.732 206.236 270.732 207.345V207.453ZM269.558 207.319C269.558 206.545 269.393 205.933 269.063 205.485C268.733 205.036 268.28 204.812 267.705 204.812C266.994 204.812 266.46 205.127 266.105 205.758V209.04C266.456 209.666 266.994 209.979 267.717 209.979C268.28 209.979 268.727 209.757 269.057 209.312C269.391 208.864 269.558 208.2 269.558 207.319Z" fill="#CEAC6A"/>
<path d="M28.1313 406.938H26.9063V398.698H22.3486V406.938H21.1299V397.695H28.1313V406.938ZM29.8579 403.44C29.8579 402.767 29.9891 402.162 30.2515 401.625C30.5181 401.087 30.8862 400.672 31.356 400.38C31.8299 400.088 32.3695 399.942 32.9746 399.942C33.9098 399.942 34.6652 400.266 35.2407 400.914C35.8205 401.561 36.1104 402.422 36.1104 403.497V403.58C36.1104 404.248 35.9813 404.849 35.7231 405.382C35.4692 405.911 35.1032 406.324 34.625 406.62C34.151 406.916 33.6051 407.064 32.9873 407.064C32.0563 407.064 31.3009 406.741 30.7212 406.093C30.1457 405.446 29.8579 404.589 29.8579 403.522V403.44ZM31.0386 403.58C31.0386 404.341 31.2142 404.953 31.5654 405.414C31.9209 405.875 32.3949 406.106 32.9873 406.106C33.584 406.106 34.0579 405.873 34.4092 405.408C34.7604 404.938 34.936 404.282 34.936 403.44C34.936 402.687 34.7562 402.077 34.3965 401.612C34.041 401.142 33.5671 400.907 32.9746 400.907C32.3949 400.907 31.9272 401.138 31.5718 401.599C31.2163 402.06 31.0386 402.721 31.0386 403.58ZM37.6909 406.938V400.069H40.3696C41.2837 400.069 41.9841 400.23 42.4707 400.552C42.9616 400.869 43.207 401.337 43.207 401.955C43.207 402.272 43.1118 402.56 42.9214 402.818C42.731 403.072 42.4495 403.266 42.0772 403.402C42.4919 403.499 42.8241 403.69 43.0737 403.973C43.3276 404.257 43.4546 404.595 43.4546 404.989C43.4546 405.619 43.2218 406.102 42.7564 406.436C42.2951 406.77 41.6413 406.938 40.7949 406.938H37.6909ZM38.8652 403.922V405.992H40.8076C41.2985 405.992 41.6646 405.901 41.9058 405.719C42.1512 405.537 42.2739 405.281 42.2739 404.951C42.2739 404.265 41.7703 403.922 40.7632 403.922H38.8652ZM38.8652 402.983H40.3823C41.4826 402.983 42.0327 402.661 42.0327 402.018C42.0327 401.375 41.5122 401.043 40.4712 401.021H38.8652V402.983ZM50.0371 401.021H47.7329V406.938H46.5586V401.021H44.2988V400.069H50.0371V401.021ZM50.6021 403.44C50.6021 402.767 50.7332 402.162 50.9956 401.625C51.2622 401.087 51.6304 400.672 52.1001 400.38C52.5741 400.088 53.1136 399.942 53.7188 399.942C54.654 399.942 55.4093 400.266 55.9849 400.914C56.5646 401.561 56.8545 402.422 56.8545 403.497V403.58C56.8545 404.248 56.7254 404.849 56.4673 405.382C56.2134 405.911 55.8473 406.324 55.3691 406.62C54.8952 406.916 54.3493 407.064 53.7314 407.064C52.8005 407.064 52.0451 406.741 51.4653 406.093C50.8898 405.446 50.6021 404.589 50.6021 403.522V403.44ZM51.7827 403.58C51.7827 404.341 51.9583 404.953 52.3096 405.414C52.665 405.875 53.139 406.106 53.7314 406.106C54.3281 406.106 54.8021 405.873 55.1533 405.408C55.5046 404.938 55.6802 404.282 55.6802 403.44C55.6802 402.687 55.5003 402.077 55.1406 401.612C54.7852 401.142 54.3112 400.907 53.7188 400.907C53.139 400.907 52.6714 401.138 52.3159 401.599C51.9605 402.06 51.7827 402.721 51.7827 403.58ZM64.1289 403.58C64.1289 404.625 63.8898 405.467 63.4116 406.106C62.9334 406.745 62.286 407.064 61.4692 407.064C60.6356 407.064 59.9797 406.8 59.5015 406.271V409.578H58.3272V400.069H59.3999L59.457 400.831C59.9352 400.239 60.5996 399.942 61.4502 399.942C62.2754 399.942 62.9271 400.253 63.4053 400.875C63.8877 401.498 64.1289 402.363 64.1289 403.472V403.58ZM62.9546 403.446C62.9546 402.672 62.7896 402.06 62.4595 401.612C62.1294 401.163 61.6766 400.939 61.1011 400.939C60.3901 400.939 59.8569 401.254 59.5015 401.885V405.167C59.8527 405.793 60.3901 406.106 61.1138 406.106C61.6766 406.106 62.1231 405.884 62.4531 405.439C62.7874 404.991 62.9546 404.326 62.9546 403.446ZM70.0703 400.069H71.2446V406.938H70.0703V401.929L66.9028 406.938H65.7285V400.069H66.9028V405.084L70.0703 400.069ZM78.2334 401.021H75.9292V406.938H74.7549V401.021H72.4951V400.069H78.2334V401.021ZM81.7183 407.064C80.7873 407.064 80.0298 406.76 79.4458 406.15C78.8618 405.537 78.5698 404.718 78.5698 403.694V403.478C78.5698 402.797 78.6989 402.189 78.957 401.656C79.2194 401.119 79.5833 400.7 80.0488 400.399C80.5186 400.095 81.0264 399.942 81.5723 399.942C82.4652 399.942 83.1592 400.236 83.6543 400.825C84.1494 401.413 84.397 402.255 84.397 403.351V403.84H79.7441C79.7611 404.517 79.9579 405.065 80.3345 405.484C80.7153 405.899 81.1978 406.106 81.7817 406.106C82.1965 406.106 82.5477 406.021 82.8355 405.852C83.1232 405.683 83.375 405.458 83.5908 405.179L84.3081 405.738C83.7326 406.622 82.8693 407.064 81.7183 407.064ZM81.5723 400.907C81.0983 400.907 80.7005 401.081 80.3789 401.428C80.0573 401.771 79.8584 402.253 79.7822 402.875H83.2227V402.786C83.1888 402.189 83.028 401.728 82.7402 401.402C82.4525 401.072 82.0632 400.907 81.5723 400.907ZM212.512 406.106C212.931 406.106 213.297 405.979 213.61 405.725C213.923 405.471 214.097 405.154 214.13 404.773H215.241C215.22 405.167 215.085 405.541 214.835 405.896C214.585 406.252 214.251 406.535 213.832 406.747C213.417 406.959 212.977 407.064 212.512 407.064C211.577 407.064 210.832 406.753 210.277 406.131C209.727 405.505 209.452 404.65 209.452 403.567V403.37C209.452 402.701 209.575 402.107 209.82 401.586C210.066 401.066 210.417 400.662 210.874 400.374C211.335 400.086 211.879 399.942 212.505 399.942C213.276 399.942 213.915 400.173 214.422 400.634C214.934 401.096 215.207 401.694 215.241 402.431H214.13C214.097 401.986 213.927 401.622 213.623 401.339C213.322 401.051 212.95 400.907 212.505 400.907C211.909 400.907 211.445 401.123 211.115 401.555C210.789 401.982 210.626 402.602 210.626 403.415V403.637C210.626 404.428 210.789 405.037 211.115 405.465C211.441 405.892 211.907 406.106 212.512 406.106ZM216.669 406.938V400.069H219.348C220.262 400.069 220.963 400.23 221.449 400.552C221.94 400.869 222.186 401.337 222.186 401.955C222.186 402.272 222.09 402.56 221.9 402.818C221.71 403.072 221.428 403.266 221.056 403.402C221.47 403.499 221.803 403.69 222.052 403.973C222.306 404.257 222.433 404.595 222.433 404.989C222.433 405.619 222.2 406.102 221.735 406.436C221.274 406.77 220.62 406.938 219.773 406.938H216.669ZM217.844 403.922V405.992H219.786C220.277 405.992 220.643 405.901 220.884 405.719C221.13 405.537 221.252 405.281 221.252 404.951C221.252 404.265 220.749 403.922 219.742 403.922H217.844ZM217.844 402.983H219.361C220.461 402.983 221.011 402.661 221.011 402.018C221.011 401.375 220.491 401.043 219.45 401.021H217.844V402.983ZM229.238 400.069V406.938H228.057V404.265H226.286L224.668 406.938H223.398L225.125 404.087C224.684 403.927 224.346 403.679 224.109 403.345C223.876 403.006 223.76 402.613 223.76 402.164C223.76 401.538 223.995 401.034 224.464 400.653C224.934 400.268 225.563 400.074 226.35 400.069H229.238ZM224.94 402.177C224.94 402.511 225.055 402.782 225.283 402.989C225.512 403.192 225.814 403.296 226.191 403.3H228.057V401.021H226.369C225.933 401.021 225.586 401.129 225.328 401.345C225.07 401.557 224.94 401.834 224.94 402.177ZM236.601 403.954H235.776V406.938H234.602V403.954H233.776L231.853 406.938H230.368L232.824 403.383L230.603 400.069H232.024L233.795 402.913H234.602V400.069H235.776V402.913H236.576L238.359 400.069H239.781L237.553 403.389L240.01 406.938H238.524L236.601 403.954ZM245.52 400.069H246.694V406.938H245.52V401.929L242.352 406.938H241.178V400.069H242.352V405.084L245.52 400.069ZM253.683 401.021H251.378V406.938H250.204V401.021H247.944V400.069H253.683V401.021ZM257.168 407.064C256.237 407.064 255.479 406.76 254.895 406.15C254.311 405.537 254.019 404.718 254.019 403.694V403.478C254.019 402.797 254.148 402.189 254.406 401.656C254.669 401.119 255.033 400.7 255.498 400.399C255.968 400.095 256.476 399.942 257.022 399.942C257.914 399.942 258.608 400.236 259.104 400.825C259.599 401.413 259.846 402.255 259.846 403.351V403.84H255.193C255.21 404.517 255.407 405.065 255.784 405.484C256.165 405.899 256.647 406.106 257.231 406.106C257.646 406.106 257.997 406.021 258.285 405.852C258.572 405.683 258.824 405.458 259.04 405.179L259.757 405.738C259.182 406.622 258.319 407.064 257.168 407.064ZM257.022 400.907C256.548 400.907 256.15 401.081 255.828 401.428C255.507 401.771 255.308 402.253 255.231 402.875H258.672V402.786C258.638 402.189 258.477 401.728 258.189 401.402C257.902 401.072 257.512 400.907 257.022 400.907ZM263.966 406.106C264.385 406.106 264.751 405.979 265.064 405.725C265.377 405.471 265.551 405.154 265.585 404.773H266.695C266.674 405.167 266.539 405.541 266.289 405.896C266.039 406.252 265.705 406.535 265.286 406.747C264.871 406.959 264.431 407.064 263.966 407.064C263.031 407.064 262.286 406.753 261.731 406.131C261.181 405.505 260.906 404.65 260.906 403.567V403.37C260.906 402.701 261.029 402.107 261.274 401.586C261.52 401.066 261.871 400.662 262.328 400.374C262.789 400.086 263.333 399.942 263.96 399.942C264.73 399.942 265.369 400.173 265.876 400.634C266.389 401.096 266.661 401.694 266.695 402.431H265.585C265.551 401.986 265.381 401.622 265.077 401.339C264.776 401.051 264.404 400.907 263.96 400.907C263.363 400.907 262.899 401.123 262.569 401.555C262.244 401.982 262.081 402.602 262.081 403.415V403.637C262.081 404.428 262.244 405.037 262.569 405.465C262.895 405.892 263.361 406.106 263.966 406.106ZM269.298 402.437H271.082C271.86 402.445 272.476 402.649 272.929 403.046C273.382 403.444 273.608 403.984 273.608 404.665C273.608 405.351 273.375 405.901 272.91 406.315C272.444 406.73 271.818 406.938 271.031 406.938H268.124V400.069H269.298V402.437ZM269.298 403.396V405.979H271.043C271.484 405.979 271.824 405.867 272.065 405.643C272.307 405.414 272.427 405.103 272.427 404.709C272.427 404.329 272.309 404.018 272.072 403.776C271.839 403.531 271.511 403.404 271.088 403.396H269.298Z" fill="#CEAC6A"/>
<path d="M94.1724 406.938H92.9917V404.449C92.4754 404.585 91.9465 404.652 91.4048 404.652C90.5457 404.652 89.8898 404.432 89.437 403.992C88.9885 403.552 88.7599 402.926 88.7515 402.113V400.063H89.9258V402.151C89.9469 403.175 90.4399 403.687 91.4048 403.687C91.9465 403.687 92.4754 403.62 92.9917 403.484V400.069H94.1724V406.938ZM98.9077 407.064C97.9767 407.064 97.2192 406.76 96.6353 406.15C96.0513 405.537 95.7593 404.718 95.7593 403.694V403.478C95.7593 402.797 95.8884 402.189 96.1465 401.656C96.4089 401.119 96.7728 400.7 97.2383 400.399C97.708 400.095 98.2158 399.942 98.7617 399.942C99.6546 399.942 100.349 400.236 100.844 400.825C101.339 401.413 101.586 402.255 101.586 403.351V403.84H96.9336C96.9505 404.517 97.1473 405.065 97.5239 405.484C97.9048 405.899 98.3872 406.106 98.9712 406.106C99.3859 406.106 99.7372 406.021 100.025 405.852C100.313 405.683 100.564 405.458 100.78 405.179L101.498 405.738C100.922 406.622 100.059 407.064 98.9077 407.064ZM98.7617 400.907C98.2878 400.907 97.89 401.081 97.5684 401.428C97.2468 401.771 97.0479 402.253 96.9717 402.875H100.412V402.786C100.378 402.189 100.217 401.728 99.9297 401.402C99.6419 401.072 99.2526 400.907 98.7617 400.907ZM108.753 403.58C108.753 404.625 108.514 405.467 108.036 406.106C107.557 406.745 106.91 407.064 106.093 407.064C105.26 407.064 104.604 406.8 104.125 406.271V409.578H102.951V400.069H104.024L104.081 400.831C104.559 400.239 105.224 399.942 106.074 399.942C106.899 399.942 107.551 400.253 108.029 400.875C108.512 401.498 108.753 402.363 108.753 403.472V403.58ZM107.579 403.446C107.579 402.672 107.414 402.06 107.084 401.612C106.753 401.163 106.301 400.939 105.725 400.939C105.014 400.939 104.481 401.254 104.125 401.885V405.167C104.477 405.793 105.014 406.106 105.738 406.106C106.301 406.106 106.747 405.884 107.077 405.439C107.411 404.991 107.579 404.326 107.579 403.446ZM113.101 407.064C112.17 407.064 111.413 406.76 110.829 406.15C110.245 405.537 109.953 404.718 109.953 403.694V403.478C109.953 402.797 110.082 402.189 110.34 401.656C110.602 401.119 110.966 400.7 111.432 400.399C111.901 400.095 112.409 399.942 112.955 399.942C113.848 399.942 114.542 400.236 115.037 400.825C115.532 401.413 115.78 402.255 115.78 403.351V403.84H111.127C111.144 404.517 111.341 405.065 111.717 405.484C112.098 405.899 112.581 406.106 113.165 406.106C113.579 406.106 113.931 406.021 114.218 405.852C114.506 405.683 114.758 405.458 114.974 405.179L115.691 405.738C115.115 406.622 114.252 407.064 113.101 407.064ZM112.955 400.907C112.481 400.907 112.083 401.081 111.762 401.428C111.44 401.771 111.241 402.253 111.165 402.875H114.605V402.786C114.572 402.189 114.411 401.728 114.123 401.402C113.835 401.072 113.446 400.907 112.955 400.907ZM120.921 401.948C120.921 401.627 120.799 401.373 120.553 401.187C120.308 400.996 119.971 400.901 119.544 400.901C119.129 400.901 118.782 401.009 118.503 401.225C118.228 401.44 118.09 401.694 118.09 401.986H116.922C116.922 401.39 117.172 400.901 117.671 400.52C118.171 400.139 118.795 399.949 119.544 399.949C120.348 399.949 120.974 400.122 121.423 400.469C121.871 400.812 122.096 401.303 122.096 401.942C122.096 402.251 122.003 402.534 121.816 402.792C121.63 403.051 121.366 403.256 121.023 403.408C121.823 403.679 122.223 404.212 122.223 405.008C122.223 405.638 121.979 406.138 121.493 406.506C121.006 406.874 120.356 407.058 119.544 407.058C118.753 407.058 118.099 406.866 117.583 406.48C117.07 406.091 116.814 405.566 116.814 404.906H117.982C117.982 405.241 118.131 405.528 118.427 405.77C118.727 406.007 119.1 406.125 119.544 406.125C119.993 406.125 120.354 406.021 120.629 405.814C120.904 405.607 121.042 405.338 121.042 405.008C121.042 404.623 120.926 404.348 120.693 404.183C120.464 404.013 120.107 403.929 119.62 403.929H118.446V402.938H119.722C120.522 402.917 120.921 402.587 120.921 401.948ZM130.709 406.938H129.529V399.111L127.161 399.98V398.914L130.525 397.651H130.709V406.938ZM141.45 405.382L143.786 400.069H145.252V406.938H144.078V401.942L141.856 406.938H141.043L138.777 401.834V406.938H137.603V400.069H139.126L141.45 405.382ZM151.587 400.069H152.761V406.938H151.587V401.929L148.419 406.938H147.245V400.069H148.419V405.084L151.587 400.069ZM160.258 406.938H159.084V404.005H155.929V406.938H154.748V400.069H155.929V403.046H159.084V400.069H160.258V406.938ZM164.397 405.217L165.996 400.069H167.253L164.492 407.998C164.064 409.14 163.385 409.711 162.454 409.711L162.232 409.692L161.794 409.61V408.658L162.111 408.683C162.509 408.683 162.818 408.603 163.038 408.442C163.262 408.281 163.446 407.987 163.59 407.56L163.851 406.861L161.4 400.069H162.683L164.397 405.217ZM173.41 401.021H171.106V406.938H169.932V401.021H167.672V400.069H173.41V401.021ZM176.876 405.217L178.476 400.069H179.732L176.971 407.998C176.544 409.14 175.865 409.711 174.934 409.711L174.711 409.692L174.273 409.61V408.658L174.591 408.683C174.989 408.683 175.298 408.603 175.518 408.442C175.742 408.281 175.926 407.987 176.07 407.56L176.33 406.861L173.88 400.069H175.162L176.876 405.217ZM188.454 400.069H189.628V406.938H188.454V401.929L185.287 406.938H184.112V400.069H185.287V405.084L188.454 400.069ZM197.144 400.069V406.938H195.963V401.041H193.627L193.488 403.611C193.412 404.792 193.213 405.636 192.891 406.144C192.574 406.652 192.068 406.916 191.374 406.938H190.904V405.903L191.241 405.877C191.622 405.835 191.895 405.615 192.06 405.217C192.225 404.819 192.33 404.083 192.377 403.008L192.504 400.069H197.144ZM203.473 400.069H204.647V406.938H203.473V401.929L200.305 406.938H199.131V400.069H200.305V405.084L203.473 400.069ZM23.6436 426.106C24.0625 426.106 24.4285 425.979 24.7417 425.725C25.0549 425.471 25.2284 425.154 25.2622 424.773H26.373C26.3519 425.167 26.2165 425.541 25.9668 425.896C25.7171 426.252 25.3828 426.535 24.9639 426.747C24.5492 426.959 24.1091 427.064 23.6436 427.064C22.7083 427.064 21.9635 426.753 21.4092 426.131C20.859 425.505 20.584 424.65 20.584 423.567V423.37C20.584 422.701 20.7067 422.107 20.9521 421.586C21.1976 421.066 21.5488 420.662 22.0059 420.374C22.4671 420.086 23.0109 419.942 23.6372 419.942C24.4074 419.942 25.0464 420.173 25.5542 420.634C26.0662 421.096 26.3392 421.694 26.373 422.431H25.2622C25.2284 421.986 25.0591 421.622 24.7544 421.339C24.4539 421.051 24.0815 420.907 23.6372 420.907C23.0405 420.907 22.5771 421.123 22.2471 421.555C21.9212 421.982 21.7583 422.602 21.7583 423.415V423.637C21.7583 424.428 21.9212 425.037 22.2471 425.465C22.5729 425.892 23.0384 426.106 23.6436 426.106ZM36.5356 426.938H35.3613V421.041H32.2002V426.938H31.0195V420.069H36.5356V426.938ZM38.1099 423.44C38.1099 422.767 38.2411 422.162 38.5034 421.625C38.77 421.087 39.1382 420.672 39.6079 420.38C40.0819 420.088 40.6214 419.942 41.2266 419.942C42.1618 419.942 42.9172 420.266 43.4927 420.914C44.0724 421.561 44.3623 422.422 44.3623 423.497V423.58C44.3623 424.248 44.2332 424.849 43.9751 425.382C43.7212 425.911 43.3551 426.324 42.877 426.62C42.403 426.916 41.8571 427.064 41.2393 427.064C40.3083 427.064 39.5529 426.741 38.9731 426.093C38.3976 425.446 38.1099 424.589 38.1099 423.522V423.44ZM39.2905 423.58C39.2905 424.341 39.4661 424.953 39.8174 425.414C40.1729 425.875 40.6468 426.106 41.2393 426.106C41.8359 426.106 42.3099 425.873 42.6611 425.408C43.0124 424.938 43.188 424.282 43.188 423.44C43.188 422.687 43.0081 422.077 42.6484 421.612C42.293 421.142 41.819 420.907 41.2266 420.907C40.6468 420.907 40.1792 421.138 39.8237 421.599C39.4683 422.06 39.2905 422.721 39.2905 423.58ZM45.3208 425.979L45.7271 425.478C46.1841 424.885 46.4443 423.996 46.5078 422.812L46.6157 420.069H51.04V425.979H51.9224V428.956H50.7481V426.938H45.9556V428.956H44.7813L44.7876 425.979H45.3208ZM46.7109 425.979H49.8657V421.155H47.752L47.6821 422.792C47.6102 424.159 47.2865 425.222 46.7109 425.979ZM53.2935 425.979L53.6997 425.478C54.1567 424.885 54.417 423.996 54.4805 422.812L54.5884 420.069H59.0127V425.979H59.895V428.956H58.7207V426.938H53.9282V428.956H52.7539L52.7603 425.979H53.2935ZM54.6836 425.979H57.8384V421.155H55.7246L55.6548 422.792C55.5828 424.159 55.2591 425.222 54.6836 425.979ZM64.0464 427.064C63.1154 427.064 62.3579 426.76 61.7739 426.15C61.1899 425.537 60.898 424.718 60.898 423.694V423.478C60.898 422.797 61.027 422.189 61.2852 421.656C61.5475 421.119 61.9115 420.7 62.377 420.399C62.8467 420.095 63.3545 419.942 63.9004 419.942C64.7933 419.942 65.4873 420.236 65.9824 420.825C66.4775 421.413 66.7251 422.255 66.7251 423.351V423.84H62.0723C62.0892 424.517 62.286 425.065 62.6626 425.484C63.0435 425.899 63.5259 426.106 64.1099 426.106C64.5246 426.106 64.8758 426.021 65.1636 425.852C65.4513 425.683 65.7031 425.458 65.9189 425.179L66.6362 425.738C66.0607 426.622 65.1974 427.064 64.0464 427.064ZM63.9004 420.907C63.4264 420.907 63.0287 421.081 62.707 421.428C62.3854 421.771 62.1865 422.253 62.1104 422.875H65.5508V422.786C65.5169 422.189 65.3561 421.728 65.0684 421.402C64.7806 421.072 64.3913 420.907 63.9004 420.907ZM73.8916 423.58C73.8916 424.625 73.6525 425.467 73.1743 426.106C72.6961 426.745 72.0487 427.064 71.2319 427.064C70.3983 427.064 69.7424 426.8 69.2642 426.271V429.578H68.0899V420.069H69.1626L69.2197 420.831C69.6979 420.239 70.3623 419.942 71.2129 419.942C72.0381 419.942 72.6898 420.253 73.168 420.875C73.6504 421.498 73.8916 422.363 73.8916 423.472V423.58ZM72.7173 423.446C72.7173 422.672 72.5523 422.06 72.2222 421.612C71.8921 421.163 71.4393 420.939 70.8638 420.939C70.1528 420.939 69.6196 421.254 69.2642 421.885V425.167C69.6154 425.793 70.1528 426.106 70.8765 426.106C71.4393 426.106 71.8858 425.884 72.2158 425.439C72.5501 424.991 72.7173 424.326 72.7173 423.446ZM80.7661 423.954H79.9409V426.938H78.7666V423.954H77.9414L76.0181 426.938H74.5327L76.9893 423.383L74.7676 420.069H76.1895L77.9605 422.913H78.7666V420.069H79.9409V422.913H80.7407L82.5244 420.069H83.9463L81.7183 423.389L84.1748 426.938H82.6895L80.7661 423.954ZM87.3804 424.011H86.5234V426.938H85.3428V420.069H86.5234V422.977H87.2915L89.6021 420.069H91.0239L88.3071 423.37L91.2525 426.938H89.7608L87.3804 424.011ZM91.811 423.44C91.811 422.767 91.9422 422.162 92.2046 421.625C92.4712 421.087 92.8394 420.672 93.3091 420.38C93.783 420.088 94.3226 419.942 94.9277 419.942C95.863 419.942 96.6183 420.266 97.1939 420.914C97.7736 421.561 98.0635 422.422 98.0635 423.497V423.58C98.0635 424.248 97.9344 424.849 97.6763 425.382C97.4224 425.911 97.0563 426.324 96.5781 426.62C96.1042 426.916 95.5583 427.064 94.9404 427.064C94.0094 427.064 93.2541 426.741 92.6743 426.093C92.0988 425.446 91.811 424.589 91.811 423.522V423.44ZM92.9917 423.58C92.9917 424.341 93.1673 424.953 93.5186 425.414C93.874 425.875 94.348 426.106 94.9404 426.106C95.5371 426.106 96.0111 425.873 96.3623 425.408C96.7136 424.938 96.8892 424.282 96.8892 423.44C96.8892 422.687 96.7093 422.077 96.3496 421.612C95.9941 421.142 95.5202 420.907 94.9277 420.907C94.348 420.907 93.8804 421.138 93.5249 421.599C93.1694 422.06 92.9917 422.721 92.9917 423.58ZM103.98 420.069H105.154V426.938H103.98V421.929L100.812 426.938H99.6377V420.069H100.812V425.084L103.98 420.069ZM104.297 417.568C104.297 418.08 104.121 418.493 103.77 418.806C103.423 419.115 102.966 419.27 102.399 419.27C101.832 419.27 101.373 419.113 101.021 418.8C100.67 418.487 100.495 418.076 100.495 417.568H101.453C101.453 417.865 101.534 418.097 101.694 418.267C101.855 418.432 102.09 418.514 102.399 418.514C102.695 418.514 102.926 418.432 103.091 418.267C103.26 418.102 103.345 417.869 103.345 417.568H104.297ZM107.001 428.778L106.334 428.321C106.732 427.767 106.94 427.196 106.957 426.607V425.547H108.105V426.468C108.105 426.895 108 427.323 107.788 427.75C107.581 428.177 107.318 428.52 107.001 428.778ZM115.666 427.064C114.735 427.064 113.977 426.76 113.393 426.15C112.809 425.537 112.517 424.718 112.517 423.694V423.478C112.517 422.797 112.646 422.189 112.904 421.656C113.167 421.119 113.531 420.7 113.996 420.399C114.466 420.095 114.974 419.942 115.52 419.942C116.412 419.942 117.106 420.236 117.602 420.825C118.097 421.413 118.344 422.255 118.344 423.351V423.84H113.691C113.708 424.517 113.905 425.065 114.282 425.484C114.663 425.899 115.145 426.106 115.729 426.106C116.144 426.106 116.495 426.021 116.783 425.852C117.07 425.683 117.322 425.458 117.538 425.179L118.255 425.738C117.68 426.622 116.817 427.064 115.666 427.064ZM115.52 420.907C115.046 420.907 114.648 421.081 114.326 421.428C114.005 421.771 113.806 422.253 113.73 422.875H117.17V422.786C117.136 422.189 116.975 421.728 116.688 421.402C116.4 421.072 116.01 420.907 115.52 420.907ZM122.464 426.106C122.883 426.106 123.249 425.979 123.562 425.725C123.875 425.471 124.049 425.154 124.083 424.773H125.193C125.172 425.167 125.037 425.541 124.787 425.896C124.537 426.252 124.203 426.535 123.784 426.747C123.369 426.959 122.929 427.064 122.464 427.064C121.529 427.064 120.784 426.753 120.23 426.131C119.679 425.505 119.404 424.65 119.404 423.567V423.37C119.404 422.701 119.527 422.107 119.772 421.586C120.018 421.066 120.369 420.662 120.826 420.374C121.287 420.086 121.831 419.942 122.458 419.942C123.228 419.942 123.867 420.173 124.375 420.634C124.887 421.096 125.16 421.694 125.193 422.431H124.083C124.049 421.986 123.879 421.622 123.575 421.339C123.274 421.051 122.902 420.907 122.458 420.907C121.861 420.907 121.397 421.123 121.067 421.555C120.742 421.982 120.579 422.602 120.579 423.415V423.637C120.579 424.428 120.742 425.037 121.067 425.465C121.393 425.892 121.859 426.106 122.464 426.106ZM132.144 420.069V426.938H130.963V421.041H128.627L128.488 423.611C128.412 424.792 128.213 425.636 127.891 426.144C127.574 426.652 127.068 426.916 126.374 426.938H125.904V425.903L126.241 425.877C126.622 425.835 126.895 425.615 127.06 425.217C127.225 424.819 127.33 424.083 127.377 423.008L127.504 420.069H132.144ZM138.473 420.069H139.647V426.938H138.473V421.929L135.305 426.938H134.131V420.069H135.305V425.084L138.473 420.069ZM146.896 424.011H146.039V426.938H144.858V420.069H146.039V422.977H146.807L149.118 420.069H150.54L147.823 423.37L150.768 426.938H149.276L146.896 424.011ZM151.327 423.44C151.327 422.767 151.458 422.162 151.72 421.625C151.987 421.087 152.355 420.672 152.825 420.38C153.299 420.088 153.838 419.942 154.443 419.942C155.379 419.942 156.134 420.266 156.709 420.914C157.289 421.561 157.579 422.422 157.579 423.497V423.58C157.579 424.248 157.45 424.849 157.192 425.382C156.938 425.911 156.572 426.324 156.094 426.62C155.62 426.916 155.074 427.064 154.456 427.064C153.525 427.064 152.77 426.741 152.19 426.093C151.614 425.446 151.327 424.589 151.327 423.522V423.44ZM152.507 423.58C152.507 424.341 152.683 424.953 153.034 425.414C153.39 425.875 153.864 426.106 154.456 426.106C155.053 426.106 155.527 425.873 155.878 425.408C156.229 424.938 156.405 424.282 156.405 423.44C156.405 422.687 156.225 422.077 155.865 421.612C155.51 421.142 155.036 420.907 154.443 420.907C153.864 420.907 153.396 421.138 153.041 421.599C152.685 422.06 152.507 422.721 152.507 423.58ZM158.538 425.979L158.944 425.478C159.401 424.885 159.661 423.996 159.725 422.812L159.833 420.069H164.257V425.979H165.139V428.956H163.965V426.938H159.172V428.956H157.998L158.004 425.979H158.538ZM159.928 425.979H163.083V421.155H160.969L160.899 422.792C160.827 424.159 160.503 425.222 159.928 425.979ZM175.276 426.938H174.102V424.005H170.947V426.938H169.767V420.069H170.947V423.046H174.102V420.069H175.276V426.938ZM180.018 427.064C179.087 427.064 178.33 426.76 177.746 426.15C177.162 425.537 176.87 424.718 176.87 423.694V423.478C176.87 422.797 176.999 422.189 177.257 421.656C177.519 421.119 177.883 420.7 178.349 420.399C178.818 420.095 179.326 419.942 179.872 419.942C180.765 419.942 181.459 420.236 181.954 420.825C182.449 421.413 182.697 422.255 182.697 423.351V423.84H178.044C178.061 424.517 178.258 425.065 178.634 425.484C179.015 425.899 179.498 426.106 180.082 426.106C180.496 426.106 180.848 426.021 181.135 425.852C181.423 425.683 181.675 425.458 181.891 425.179L182.608 425.738C182.032 426.622 181.169 427.064 180.018 427.064ZM179.872 420.907C179.398 420.907 179 421.081 178.679 421.428C178.357 421.771 178.158 422.253 178.082 422.875H181.522V422.786C181.489 422.189 181.328 421.728 181.04 421.402C180.752 421.072 180.363 420.907 179.872 420.907ZM192.904 426.938H191.73V421.041H188.568V426.938H187.388V420.069H192.904V426.938ZM194.478 423.44C194.478 422.767 194.609 422.162 194.872 421.625C195.138 421.087 195.506 420.672 195.976 420.38C196.45 420.088 196.99 419.942 197.595 419.942C198.53 419.942 199.285 420.266 199.861 420.914C200.441 421.561 200.731 422.422 200.731 423.497V423.58C200.731 424.248 200.601 424.849 200.343 425.382C200.089 425.911 199.723 426.324 199.245 426.62C198.771 426.916 198.225 427.064 197.607 427.064C196.676 427.064 195.921 426.741 195.341 426.093C194.766 425.446 194.478 424.589 194.478 423.522V423.44ZM195.659 423.58C195.659 424.341 195.834 424.953 196.186 425.414C196.541 425.875 197.015 426.106 197.607 426.106C198.204 426.106 198.678 425.873 199.029 425.408C199.381 424.938 199.556 424.282 199.556 423.44C199.556 422.687 199.376 422.077 199.017 421.612C198.661 421.142 198.187 420.907 197.595 420.907C197.015 420.907 196.547 421.138 196.192 421.599C195.836 422.06 195.659 422.721 195.659 423.58ZM204.958 426.106C205.377 426.106 205.743 425.979 206.056 425.725C206.369 425.471 206.543 425.154 206.577 424.773H207.688C207.666 425.167 207.531 425.541 207.281 425.896C207.032 426.252 206.697 426.535 206.278 426.747C205.864 426.959 205.424 427.064 204.958 427.064C204.023 427.064 203.278 426.753 202.724 426.131C202.174 425.505 201.898 424.65 201.898 423.567V423.37C201.898 422.701 202.021 422.107 202.267 421.586C202.512 421.066 202.863 420.662 203.32 420.374C203.782 420.086 204.325 419.942 204.952 419.942C205.722 419.942 206.361 420.173 206.869 420.634C207.381 421.096 207.654 421.694 207.688 422.431H206.577C206.543 421.986 206.374 421.622 206.069 421.339C205.768 421.051 205.396 420.907 204.952 420.907C204.355 420.907 203.892 421.123 203.562 421.555C203.236 421.982 203.073 422.602 203.073 423.415V423.637C203.073 424.428 203.236 425.037 203.562 425.465C203.887 425.892 204.353 426.106 204.958 426.106ZM214.111 421.021H211.807V426.938H210.633V421.021H208.373V420.069H214.111V421.021ZM217.577 425.217L219.177 420.069H220.434L217.672 427.998C217.245 429.14 216.566 429.711 215.635 429.711L215.413 429.692L214.975 429.61V428.658L215.292 428.683C215.69 428.683 215.999 428.603 216.219 428.442C216.443 428.281 216.627 427.987 216.771 427.56L217.031 426.861L214.581 420.069H215.863L217.577 425.217ZM227.105 426.938H225.931V421.041H222.77V426.938H221.589V420.069H227.105V426.938ZM233.434 420.069H234.608V426.938H233.434V421.929L230.266 426.938H229.092V420.069H230.266V425.084L233.434 420.069ZM242.124 420.069V426.938H240.943V421.041H238.607L238.467 423.611C238.391 424.792 238.192 425.636 237.871 426.144C237.553 426.652 237.048 426.916 236.354 426.938H235.884V425.903L236.22 425.877C236.601 425.835 236.874 425.615 237.039 425.217C237.204 424.819 237.31 424.083 237.356 423.008L237.483 420.069H242.124Z" fill="#A5A5A5"/>
<rect x="118.313" y="315.75" width="82.0625" height="18.6875" rx="3.46065" transform="rotate(-180 118.313 315.75)" fill="#353535"/>
<path d="M47.4131 307.057H46.4301V310.689H45.3636V302.603H46.4301V306.168H47.2632L50.0903 302.603H51.4177L48.3296 306.524L51.6454 310.689H50.3402L47.4131 307.057ZM52.0342 307.629C52.0342 307.04 52.149 306.511 52.3786 306.041C52.6119 305.57 52.934 305.207 53.345 304.952C53.7597 304.696 54.2319 304.569 54.7614 304.569C55.5797 304.569 56.2406 304.852 56.7442 305.419C57.2515 305.985 57.5051 306.739 57.5051 307.679V307.751C57.5051 308.336 57.3922 308.862 57.1663 309.329C56.9442 309.792 56.6239 310.153 56.2054 310.412C55.7907 310.671 55.3131 310.801 54.7725 310.801C53.9578 310.801 53.2969 310.517 52.7896 309.951C52.286 309.384 52.0342 308.634 52.0342 307.701V307.629ZM53.0673 307.751C53.0673 308.418 53.221 308.953 53.5283 309.356C53.8394 309.76 54.2541 309.962 54.7725 309.962C55.2946 309.962 55.7093 309.758 56.0166 309.351C56.3239 308.94 56.4776 308.366 56.4776 307.629C56.4776 306.97 56.3202 306.437 56.0055 306.029C55.6945 305.618 55.2797 305.413 54.7614 305.413C54.2541 305.413 53.8449 305.615 53.5339 306.018C53.2228 306.422 53.0673 307 53.0673 307.751ZM58.3438 309.851L58.6993 309.412C59.0992 308.894 59.3269 308.116 59.3824 307.079L59.4769 304.68H63.3481V309.851H64.1202V312.456H63.0927V310.689H58.8992V312.456H57.8717L57.8773 309.851H58.3438ZM59.5602 309.851H62.3206V305.63H60.4711L60.41 307.063C60.347 308.259 60.0638 309.188 59.5602 309.851ZM68.0303 309.851L68.3858 309.412C68.7857 308.894 69.0134 308.116 69.069 307.079L69.1634 304.68H73.0347V309.851H73.8067V312.456H72.7792V310.689H68.5858V312.456H67.5582L67.5638 309.851H68.0303ZM69.2467 309.851H72.0071V305.63H70.1576L70.0965 307.063C70.0336 308.259 69.7503 309.188 69.2467 309.851ZM74.6732 307.629C74.6732 307.04 74.7879 306.511 75.0175 306.041C75.2508 305.57 75.5729 305.207 75.984 304.952C76.3987 304.696 76.8708 304.569 77.4003 304.569C78.2186 304.569 78.8795 304.852 79.3831 305.419C79.8904 305.985 80.144 306.739 80.144 307.679V307.751C80.144 308.336 80.0311 308.862 79.8052 309.329C79.5831 309.792 79.2628 310.153 78.8444 310.412C78.4297 310.671 77.952 310.801 77.4114 310.801C76.5968 310.801 75.9358 310.517 75.4285 309.951C74.925 309.384 74.6732 308.634 74.6732 307.701V307.629ZM75.7062 307.751C75.7062 308.418 75.8599 308.953 76.1672 309.356C76.4783 309.76 76.893 309.962 77.4114 309.962C77.9335 309.962 78.3482 309.758 78.6555 309.351C78.9629 308.94 79.1165 308.366 79.1165 307.629C79.1165 306.97 78.9592 306.437 78.6444 306.029C78.3334 305.618 77.9187 305.413 77.4003 305.413C76.893 305.413 76.4838 305.615 76.1728 306.018C75.8618 306.422 75.7062 307 75.7062 307.751ZM83.8431 309.962C84.2097 309.962 84.53 309.851 84.804 309.629C85.078 309.406 85.2298 309.129 85.2595 308.795H86.2315C86.2129 309.14 86.0945 309.468 85.876 309.779C85.6575 310.09 85.365 310.338 84.9984 310.523C84.6355 310.708 84.2505 310.801 83.8431 310.801C83.0248 310.801 82.3731 310.528 81.8881 309.984C81.4067 309.436 81.166 308.688 81.166 307.74V307.568C81.166 306.983 81.2734 306.463 81.4882 306.007C81.7029 305.552 82.0103 305.198 82.4102 304.946C82.8138 304.695 83.2896 304.569 83.8376 304.569C84.5115 304.569 85.0706 304.771 85.515 305.174C85.963 305.578 86.2018 306.102 86.2315 306.746H85.2595C85.2298 306.357 85.0817 306.039 84.8151 305.791C84.5522 305.539 84.2264 305.413 83.8376 305.413C83.3155 305.413 82.91 305.602 82.6212 305.979C82.3361 306.353 82.1936 306.896 82.1936 307.607V307.801C82.1936 308.494 82.3361 309.027 82.6212 309.401C82.9063 309.775 83.3136 309.962 83.8431 309.962ZM91.8523 305.513H89.8361V310.689H88.8086V305.513H86.8313V304.68H91.8523V305.513ZM94.8849 309.184L96.2846 304.68H97.3843L94.9682 311.617C94.5942 312.617 93.9999 313.117 93.1853 313.117L92.9909 313.1L92.6077 313.028V312.195L92.8854 312.217C93.2334 312.217 93.5038 312.147 93.6963 312.006C93.8925 311.865 94.0536 311.608 94.1795 311.234L94.4072 310.623L92.2633 304.68H93.3853L94.8849 309.184ZM103.222 310.689H102.194V305.53H99.4282V310.689H98.3951V304.68H103.222V310.689ZM108.582 310.689C108.522 310.571 108.474 310.36 108.437 310.056C107.959 310.552 107.389 310.801 106.726 310.801C106.134 310.801 105.647 310.634 105.266 310.301C104.888 309.964 104.699 309.538 104.699 309.023C104.699 308.397 104.936 307.912 105.41 307.568C105.888 307.22 106.558 307.046 107.421 307.046H108.42V306.574C108.42 306.215 108.313 305.93 108.098 305.718C107.884 305.504 107.567 305.396 107.149 305.396C106.782 305.396 106.475 305.489 106.227 305.674C105.978 305.859 105.854 306.083 105.854 306.346H104.821C104.821 306.046 104.927 305.757 105.138 305.48C105.353 305.198 105.642 304.976 106.004 304.813C106.371 304.65 106.773 304.569 107.21 304.569C107.902 304.569 108.445 304.743 108.837 305.091C109.23 305.435 109.433 305.911 109.448 306.518V309.284C109.448 309.836 109.518 310.275 109.659 310.601V310.689H108.582ZM106.876 309.906C107.199 309.906 107.504 309.823 107.793 309.656C108.082 309.49 108.291 309.273 108.42 309.007V307.773H107.615C106.356 307.773 105.727 308.142 105.727 308.879C105.727 309.201 105.834 309.453 106.049 309.634C106.264 309.816 106.539 309.906 106.876 309.906Z" fill="#CEAC6A"/>
<rect x="36.4541" y="318.393" width="0.40625" height="19.0938" rx="0.203125" stroke="#A5A5A5" stroke-opacity="0.5" stroke-width="0.40625"/>
</svg>
