<svg width="300" height="530" viewBox="0 0 300 530" fill="none" xmlns="http://www.w3.org/2000/svg">
<rect x="0.5" y="0.5" width="299" height="529" rx="4.5" fill="#353535" stroke="#4F4F4F"/>
<rect x="37.0625" y="156.5" width="13" height="13" rx="0.8125" stroke="#A5A5A5" stroke-opacity="0.5" stroke-width="1.625"/>
<rect x="20.4062" y="139.031" width="259.187" height="47.9375" rx="1.21875" stroke="#A5A5A5" stroke-opacity="0.5" stroke-width="0.8125"/>
<path d="M67.1313 167.25H65.9062V159.011H61.3486V167.25H60.1299V158.008H67.1313V167.25ZM68.8579 163.752C68.8579 163.08 68.9891 162.474 69.2515 161.937C69.5181 161.4 69.8862 160.985 70.356 160.693C70.8299 160.401 71.3695 160.255 71.9746 160.255C72.9098 160.255 73.6652 160.579 74.2407 161.226C74.8205 161.874 75.1103 162.735 75.1103 163.81V163.892C75.1103 164.561 74.9813 165.162 74.7231 165.695C74.4692 166.224 74.1032 166.636 73.625 166.933C73.151 167.229 72.6051 167.377 71.9873 167.377C71.0563 167.377 70.3009 167.053 69.7212 166.406C69.1457 165.758 68.8579 164.901 68.8579 163.835V163.752ZM70.0386 163.892C70.0386 164.654 70.2142 165.265 70.5654 165.727C70.9209 166.188 71.3948 166.418 71.9873 166.418C72.584 166.418 73.0579 166.186 73.4092 165.72C73.7604 165.25 73.936 164.595 73.936 163.752C73.936 162.999 73.7562 162.39 73.3965 161.924C73.041 161.455 72.567 161.22 71.9746 161.22C71.3948 161.22 70.9272 161.45 70.5718 161.912C70.2163 162.373 70.0386 163.033 70.0386 163.892ZM79.3379 166.418C79.7568 166.418 80.1229 166.292 80.436 166.038C80.7492 165.784 80.9227 165.466 80.9565 165.085H82.0674C82.0462 165.479 81.9108 165.854 81.6611 166.209C81.4114 166.564 81.0771 166.848 80.6582 167.06C80.2435 167.271 79.8034 167.377 79.3379 167.377C78.4027 167.377 77.6579 167.066 77.1035 166.444C76.5534 165.818 76.2783 164.963 76.2783 163.879V163.683C76.2783 163.014 76.401 162.419 76.6465 161.899C76.8919 161.378 77.2432 160.974 77.7002 160.687C78.1614 160.399 78.7052 160.255 79.3315 160.255C80.1017 160.255 80.7407 160.486 81.2485 160.947C81.7606 161.408 82.0335 162.007 82.0674 162.743H80.9565C80.9227 162.299 80.7534 161.935 80.4487 161.651C80.1483 161.364 79.7759 161.22 79.3315 161.22C78.7349 161.22 78.2715 161.436 77.9414 161.867C77.6155 162.295 77.4526 162.915 77.4526 163.727V163.949C77.4526 164.741 77.6155 165.35 77.9414 165.777C78.2672 166.205 78.7327 166.418 79.3379 166.418ZM88.4912 161.334H86.187V167.25H85.0127V161.334H82.7529V160.382H88.4912V161.334ZM89.0561 163.752C89.0561 163.08 89.1873 162.474 89.4497 161.937C89.7163 161.4 90.0845 160.985 90.5542 160.693C91.0281 160.401 91.5677 160.255 92.1728 160.255C93.1081 160.255 93.8634 160.579 94.4389 161.226C95.0187 161.874 95.3086 162.735 95.3086 163.81V163.892C95.3086 164.561 95.1795 165.162 94.9214 165.695C94.6675 166.224 94.3014 166.636 93.8232 166.933C93.3493 167.229 92.8034 167.377 92.1855 167.377C91.2545 167.377 90.4992 167.053 89.9194 166.406C89.3439 165.758 89.0561 164.901 89.0561 163.835V163.752ZM90.2368 163.892C90.2368 164.654 90.4124 165.265 90.7637 165.727C91.1191 166.188 91.5931 166.418 92.1855 166.418C92.7822 166.418 93.2562 166.186 93.6074 165.72C93.9586 165.25 94.1343 164.595 94.1343 163.752C94.1343 162.999 93.9544 162.39 93.5947 161.924C93.2392 161.455 92.7653 161.22 92.1728 161.22C91.5931 161.22 91.1255 161.45 90.77 161.912C90.4145 162.373 90.2368 163.033 90.2368 163.892ZM102.031 160.382V167.25H100.85V164.578H99.0791L97.4604 167.25H96.1909L97.9175 164.4C97.4774 164.239 97.1388 163.992 96.9018 163.657C96.6691 163.319 96.5527 162.925 96.5527 162.477C96.5527 161.85 96.7876 161.347 97.2573 160.966C97.727 160.581 98.3554 160.386 99.1426 160.382H102.031ZM97.7334 162.489C97.7334 162.824 97.8476 163.094 98.0761 163.302C98.3047 163.505 98.6072 163.609 98.9839 163.613H100.85V161.334H99.1616C98.7257 161.334 98.3787 161.442 98.1206 161.658C97.8624 161.869 97.7334 162.146 97.7334 162.489ZM109.527 167.25H108.353V164.317H105.198V167.25H104.018V160.382H105.198V163.359H108.353V160.382H109.527V167.25ZM111.108 163.752C111.108 163.08 111.239 162.474 111.501 161.937C111.768 161.4 112.136 160.985 112.606 160.693C113.08 160.401 113.619 160.255 114.225 160.255C115.16 160.255 115.915 160.579 116.491 161.226C117.07 161.874 117.36 162.735 117.36 163.81V163.892C117.36 164.561 117.231 165.162 116.973 165.695C116.719 166.224 116.353 166.636 115.875 166.933C115.401 167.229 114.855 167.377 114.237 167.377C113.306 167.377 112.551 167.053 111.971 166.406C111.396 165.758 111.108 164.901 111.108 163.835V163.752ZM112.289 163.892C112.289 164.654 112.464 165.265 112.815 165.727C113.171 166.188 113.645 166.418 114.237 166.418C114.834 166.418 115.308 166.186 115.659 165.72C116.01 165.25 116.186 164.595 116.186 163.752C116.186 162.999 116.006 162.39 115.646 161.924C115.291 161.455 114.817 161.22 114.225 161.22C113.645 161.22 113.177 161.45 112.822 161.912C112.466 162.373 112.289 163.033 112.289 163.892ZM121.683 167.377C120.752 167.377 119.995 167.072 119.411 166.463C118.827 165.849 118.535 165.03 118.535 164.006V163.791C118.535 163.109 118.664 162.502 118.922 161.969C119.184 161.431 119.548 161.012 120.014 160.712C120.483 160.407 120.991 160.255 121.537 160.255C122.43 160.255 123.124 160.549 123.619 161.137C124.114 161.725 124.362 162.568 124.362 163.664V164.152H119.709C119.726 164.829 119.923 165.377 120.299 165.796C120.68 166.211 121.163 166.418 121.747 166.418C122.161 166.418 122.512 166.334 122.8 166.165C123.088 165.995 123.34 165.771 123.556 165.492L124.273 166.05C123.697 166.935 122.834 167.377 121.683 167.377ZM121.537 161.22C121.063 161.22 120.665 161.393 120.344 161.74C120.022 162.083 119.823 162.565 119.747 163.188H123.187V163.099C123.154 162.502 122.993 162.041 122.705 161.715C122.417 161.385 122.028 161.22 121.537 161.22ZM134.569 167.25H133.394V161.353H130.233V167.25H129.053V160.382H134.569V167.25ZM142.256 163.892C142.256 164.937 142.017 165.779 141.539 166.418C141.06 167.057 140.413 167.377 139.596 167.377C138.762 167.377 138.107 167.112 137.628 166.583V169.891H136.454V160.382H137.527L137.584 161.144C138.062 160.551 138.727 160.255 139.577 160.255C140.402 160.255 141.054 160.566 141.532 161.188C142.015 161.81 142.256 162.675 142.256 163.784V163.892ZM141.081 163.759C141.081 162.984 140.916 162.373 140.586 161.924C140.256 161.476 139.803 161.251 139.228 161.251C138.517 161.251 137.984 161.567 137.628 162.197V165.479C137.98 166.105 138.517 166.418 139.241 166.418C139.803 166.418 140.25 166.196 140.58 165.752C140.914 165.303 141.081 164.639 141.081 163.759ZM143.443 163.752C143.443 163.08 143.574 162.474 143.836 161.937C144.103 161.4 144.471 160.985 144.941 160.693C145.415 160.401 145.954 160.255 146.56 160.255C147.495 160.255 148.25 160.579 148.826 161.226C149.405 161.874 149.695 162.735 149.695 163.81V163.892C149.695 164.561 149.566 165.162 149.308 165.695C149.054 166.224 148.688 166.636 148.21 166.933C147.736 167.229 147.19 167.377 146.572 167.377C145.641 167.377 144.886 167.053 144.306 166.406C143.731 165.758 143.443 164.901 143.443 163.835V163.752ZM144.623 163.892C144.623 164.654 144.799 165.265 145.15 165.727C145.506 166.188 145.98 166.418 146.572 166.418C147.169 166.418 147.643 166.186 147.994 165.72C148.345 165.25 148.521 164.595 148.521 163.752C148.521 162.999 148.341 162.39 147.981 161.924C147.626 161.455 147.152 161.22 146.56 161.22C145.98 161.22 145.512 161.45 145.157 161.912C144.801 162.373 144.623 163.033 144.623 163.892ZM156.506 164.267H155.681V167.25H154.507V164.267H153.682L151.758 167.25H150.273L152.729 163.695L150.508 160.382H151.93L153.701 163.226H154.507V160.382H155.681V163.226H156.481L158.265 160.382H159.686L157.458 163.702L159.915 167.25H158.43L156.506 164.267ZM165.425 160.382H166.599V167.25H165.425V162.242L162.257 167.25H161.083V160.382H162.257V165.396L165.425 160.382ZM168.592 167.25V160.382H171.271C172.185 160.382 172.885 160.543 173.372 160.864C173.863 161.182 174.108 161.649 174.108 162.267C174.108 162.584 174.013 162.872 173.823 163.13C173.632 163.384 173.351 163.579 172.978 163.714C173.393 163.812 173.725 164.002 173.975 164.286C174.229 164.569 174.356 164.908 174.356 165.301C174.356 165.932 174.123 166.414 173.658 166.749C173.196 167.083 172.543 167.25 171.696 167.25H168.592ZM169.767 164.235V166.304H171.709C172.2 166.304 172.566 166.213 172.807 166.031C173.053 165.849 173.175 165.593 173.175 165.263C173.175 164.578 172.672 164.235 171.664 164.235H169.767ZM169.767 163.295H171.284C172.384 163.295 172.934 162.974 172.934 162.331C172.934 161.687 172.414 161.355 171.372 161.334H169.767V163.295ZM180.151 167.25C180.084 167.115 180.029 166.873 179.986 166.526C179.44 167.093 178.789 167.377 178.031 167.377C177.354 167.377 176.798 167.187 176.362 166.806C175.93 166.421 175.714 165.934 175.714 165.346C175.714 164.631 175.985 164.076 176.527 163.683C177.073 163.285 177.839 163.086 178.825 163.086H179.967V162.546C179.967 162.136 179.844 161.81 179.599 161.569C179.354 161.323 178.992 161.201 178.514 161.201C178.095 161.201 177.743 161.306 177.46 161.518C177.176 161.73 177.035 161.986 177.035 162.286H175.854C175.854 161.943 175.975 161.613 176.216 161.296C176.461 160.974 176.791 160.72 177.206 160.534C177.625 160.348 178.084 160.255 178.583 160.255C179.375 160.255 179.995 160.454 180.443 160.852C180.892 161.245 181.125 161.789 181.142 162.483V165.644C181.142 166.275 181.222 166.776 181.383 167.148V167.25H180.151ZM178.203 166.355C178.571 166.355 178.92 166.26 179.25 166.069C179.58 165.879 179.819 165.631 179.967 165.327V163.917H179.047C177.608 163.917 176.889 164.339 176.889 165.181C176.889 165.549 177.011 165.837 177.257 166.044C177.502 166.251 177.817 166.355 178.203 166.355ZM188.594 167.25H187.419V164.317H184.265V167.25H183.084V160.382H184.265V163.359H187.419V160.382H188.594V167.25ZM194.929 160.382H196.103V167.25H194.929V162.242L191.761 167.25H190.587V160.382H191.761V165.396L194.929 160.382ZM200.838 167.377C199.907 167.377 199.15 167.072 198.566 166.463C197.982 165.849 197.69 165.03 197.69 164.006V163.791C197.69 163.109 197.819 162.502 198.077 161.969C198.339 161.431 198.703 161.012 199.169 160.712C199.639 160.407 200.146 160.255 200.692 160.255C201.585 160.255 202.279 160.549 202.774 161.137C203.269 161.725 203.517 162.568 203.517 163.664V164.152H198.864C198.881 164.829 199.078 165.377 199.455 165.796C199.835 166.211 200.318 166.418 200.902 166.418C201.316 166.418 201.668 166.334 201.955 166.165C202.243 165.995 202.495 165.771 202.711 165.492L203.428 166.05C202.853 166.935 201.989 167.377 200.838 167.377ZM200.692 161.22C200.218 161.22 199.821 161.393 199.499 161.74C199.177 162.083 198.978 162.565 198.902 163.188H202.343V163.099C202.309 162.502 202.148 162.041 201.86 161.715C201.573 161.385 201.183 161.22 200.692 161.22Z" fill="#A5A5A5"/>
<rect x="37.0625" y="270.25" width="13" height="13" rx="0.8125" stroke="#A5A5A5" stroke-opacity="0.5" stroke-width="1.625"/>
<rect x="20.4062" y="252.781" width="259.187" height="47.9375" rx="1.21875" stroke="#A5A5A5" stroke-opacity="0.5" stroke-width="0.8125"/>
<path d="M65.8999 271.758H67.1186V281H65.8999V273.878L61.3486 281H60.1235V271.758H61.3486V278.88L65.8999 271.758ZM74.7676 281H73.5933V278.067H70.4385V281H69.2578V274.132H70.4385V277.109H73.5933V274.132H74.7676V281ZM76.7671 281V274.132H79.4458C80.3599 274.132 81.0602 274.293 81.5469 274.614C82.0377 274.932 82.2832 275.399 82.2832 276.017C82.2832 276.334 82.188 276.622 81.9975 276.88C81.8071 277.134 81.5257 277.329 81.1533 277.464C81.568 277.562 81.9002 277.752 82.1499 278.036C82.4038 278.319 82.5307 278.658 82.5307 279.051C82.5307 279.682 82.298 280.164 81.8325 280.499C81.3712 280.833 80.7174 281 79.8711 281H76.7671ZM77.9414 277.985V280.054H79.8838C80.3747 280.054 80.7407 279.963 80.9819 279.781C81.2274 279.599 81.3501 279.343 81.3501 279.013C81.3501 278.328 80.8465 277.985 79.8393 277.985H77.9414ZM77.9414 277.045H79.4585C80.5587 277.045 81.1089 276.724 81.1089 276.081C81.1089 275.437 80.5884 275.105 79.5474 275.084H77.9414V277.045ZM86.936 281.127C86.005 281.127 85.2475 280.822 84.6636 280.213C84.0796 279.599 83.7876 278.78 83.7876 277.756V277.541C83.7876 276.859 83.9167 276.252 84.1748 275.719C84.4372 275.181 84.8011 274.762 85.2666 274.462C85.7363 274.157 86.2441 274.005 86.79 274.005C87.6829 274.005 88.3769 274.299 88.8721 274.887C89.3672 275.475 89.6147 276.318 89.6147 277.414V277.902H84.9619C84.9788 278.579 85.1756 279.127 85.5522 279.546C85.9331 279.961 86.4155 280.168 86.9995 280.168C87.4142 280.168 87.7654 280.084 88.0532 279.915C88.341 279.745 88.5928 279.521 88.8086 279.242L89.5259 279.8C88.9503 280.685 88.0871 281.127 86.936 281.127ZM86.79 274.97C86.3161 274.97 85.9183 275.143 85.5967 275.49C85.275 275.833 85.0762 276.315 85 276.938H88.4404V276.849C88.4066 276.252 88.2458 275.791 87.958 275.465C87.6702 275.135 87.2809 274.97 86.79 274.97ZM93.7344 280.168C94.1533 280.168 94.5193 280.042 94.8325 279.788C95.1456 279.534 95.3192 279.216 95.353 278.835H96.4638C96.4427 279.229 96.3073 279.604 96.0576 279.959C95.8079 280.314 95.4736 280.598 95.0547 280.81C94.64 281.021 94.1998 281.127 93.7344 281.127C92.7991 281.127 92.0543 280.816 91.5 280.194C90.9499 279.568 90.6748 278.713 90.6748 277.629V277.433C90.6748 276.764 90.7975 276.169 91.0429 275.649C91.2884 275.128 91.6396 274.724 92.0967 274.437C92.5579 274.149 93.1017 274.005 93.728 274.005C94.4982 274.005 95.1372 274.236 95.645 274.697C96.157 275.158 96.43 275.757 96.4638 276.493H95.353C95.3192 276.049 95.1499 275.685 94.8452 275.401C94.5447 275.114 94.1723 274.97 93.728 274.97C93.1313 274.97 92.6679 275.186 92.3379 275.617C92.012 276.045 91.8491 276.665 91.8491 277.477V277.699C91.8491 278.491 92.012 279.1 92.3379 279.527C92.6637 279.955 93.1292 280.168 93.7344 280.168ZM102.888 275.084H100.583V281H99.4092V275.084H97.1494V274.132H102.888V275.084ZM108.474 274.132H109.648V281H108.474V275.992L105.306 281H104.132V274.132H105.306V279.146L108.474 274.132ZM111.635 274.132H112.815V280.042H115.977V274.132H117.151V280.042H117.97L117.855 283.038H116.802V281H111.635V274.132ZM123.683 274.132H124.857V281H123.683V275.992L120.515 281H119.341V274.132H120.515V279.146L123.683 274.132ZM131.186 274.132H132.36V281H131.186V275.992L128.018 281H126.844V274.132H128.018V279.146L131.186 274.132Z" fill="#CEAC6A"/>
<rect x="37.0625" y="327.123" width="13" height="13" rx="0.8125" stroke="#A5A5A5" stroke-opacity="0.5" stroke-width="1.625"/>
<rect x="20.4062" y="309.656" width="259.187" height="47.9375" rx="1.21875" stroke="#A5A5A5" stroke-opacity="0.5" stroke-width="0.8125"/>
<path d="M67.1313 337.875H65.9062V329.636H61.3486V337.875H60.1299V328.633H67.1313V337.875ZM68.8579 334.377C68.8579 333.705 68.9891 333.099 69.2515 332.562C69.5181 332.025 69.8862 331.61 70.356 331.318C70.8299 331.026 71.3695 330.88 71.9746 330.88C72.9098 330.88 73.6652 331.204 74.2407 331.851C74.8205 332.499 75.1103 333.36 75.1103 334.435V334.517C75.1103 335.186 74.9813 335.787 74.7231 336.32C74.4692 336.849 74.1032 337.261 73.625 337.558C73.151 337.854 72.6051 338.002 71.9873 338.002C71.0563 338.002 70.3009 337.678 69.7212 337.031C69.1457 336.383 68.8579 335.526 68.8579 334.46V334.377ZM70.0386 334.517C70.0386 335.279 70.2142 335.89 70.5654 336.352C70.9209 336.813 71.3948 337.043 71.9873 337.043C72.584 337.043 73.0579 336.811 73.4092 336.345C73.7604 335.875 73.936 335.22 73.936 334.377C73.936 333.624 73.7562 333.015 73.3965 332.549C73.041 332.08 72.567 331.845 71.9746 331.845C71.3948 331.845 70.9272 332.075 70.5718 332.537C70.2163 332.998 70.0386 333.658 70.0386 334.517ZM82.1118 331.007V337.875H80.9311V331.978H78.5952L78.4556 334.549C78.3794 335.729 78.1805 336.574 77.8589 337.082C77.5415 337.589 77.0358 337.854 76.3418 337.875H75.8721V336.84L76.2085 336.815C76.5893 336.773 76.8623 336.553 77.0273 336.155C77.1924 335.757 77.2982 335.021 77.3447 333.946L77.4717 331.007H82.1118ZM86.2441 336.155L87.8437 331.007H89.1006L86.3393 338.935C85.9119 340.078 85.2327 340.649 84.3017 340.649L84.0796 340.63L83.6416 340.547V339.595L83.959 339.621C84.3568 339.621 84.6657 339.54 84.8857 339.379C85.11 339.219 85.2941 338.924 85.438 338.497L85.6982 337.799L83.248 331.007H84.5303L86.2441 336.155ZM95.3403 337.875H94.1596V335.387C93.6434 335.522 93.1144 335.59 92.5727 335.59C91.7137 335.59 91.0578 335.37 90.605 334.93C90.1564 334.49 89.9279 333.863 89.9194 333.051V331H91.0937V333.089C91.1149 334.113 91.6079 334.625 92.5727 334.625C93.1144 334.625 93.6434 334.557 94.1596 334.422V331.007H95.3403V337.875ZM100.076 338.002C99.1447 338.002 98.3872 337.697 97.8032 337.088C97.2192 336.474 96.9272 335.655 96.9272 334.631V334.416C96.9272 333.734 97.0563 333.127 97.3144 332.594C97.5768 332.056 97.9407 331.637 98.4062 331.337C98.876 331.032 99.3838 330.88 99.9297 330.88C100.823 330.88 101.517 331.174 102.012 331.762C102.507 332.35 102.754 333.193 102.754 334.289V334.777H98.1015C98.1185 335.454 98.3152 336.002 98.6919 336.421C99.0727 336.836 99.5552 337.043 100.139 337.043C100.554 337.043 100.905 336.959 101.193 336.79C101.481 336.62 101.732 336.396 101.948 336.117L102.666 336.675C102.09 337.56 101.227 338.002 100.076 338.002ZM99.9297 331.845C99.4557 331.845 99.0579 332.018 98.7363 332.365C98.4147 332.708 98.2158 333.19 98.1396 333.813H101.58V333.724C101.546 333.127 101.385 332.666 101.098 332.34C100.81 332.01 100.421 331.845 99.9297 331.845ZM109.73 337.875H108.556V334.942H105.401V337.875H104.221V331.007H105.401V333.984H108.556V331.007H109.73V337.875ZM116.065 331.007H117.24V337.875H116.065V332.867L112.898 337.875H111.724V331.007H112.898V336.021L116.065 331.007ZM121.975 338.002C121.044 338.002 120.287 337.697 119.703 337.088C119.119 336.474 118.827 335.655 118.827 334.631V334.416C118.827 333.734 118.956 333.127 119.214 332.594C119.476 332.056 119.84 331.637 120.306 331.337C120.775 331.032 121.283 330.88 121.829 330.88C122.722 330.88 123.416 331.174 123.911 331.762C124.406 332.35 124.654 333.193 124.654 334.289V334.777H120.001C120.018 335.454 120.215 336.002 120.591 336.421C120.972 336.836 121.455 337.043 122.039 337.043C122.453 337.043 122.804 336.959 123.092 336.79C123.38 336.62 123.632 336.396 123.848 336.117L124.565 336.675C123.989 337.56 123.126 338.002 121.975 338.002ZM121.829 331.845C121.355 331.845 120.957 332.018 120.636 332.365C120.314 332.708 120.115 333.19 120.039 333.813H123.479V333.724C123.446 333.127 123.285 332.666 122.997 332.34C122.709 332.01 122.32 331.845 121.829 331.845ZM136.486 337.875H135.261V329.636H130.703V337.875H129.484V328.633H136.486V337.875ZM140.282 328.633L143.303 336.174L146.325 328.633H147.905V337.875H146.686V334.276L146.801 330.391L143.767 337.875H142.833L139.806 330.41L139.926 334.276V337.875H138.707V328.633H140.282ZM156.665 333.66H155.675V337.875H154.456V333.66H153.409L150.793 337.875H149.27L152.38 333L149.511 328.633H150.952L153.409 332.645H154.456V328.633H155.675V332.645H156.678L159.134 328.633H160.569L157.7 332.994L160.81 337.875H159.293L156.665 333.66Z" fill="#A5A5A5"/>
<rect x="37.0625" y="383.998" width="13" height="13" rx="0.8125" stroke="#A5A5A5" stroke-opacity="0.5" stroke-width="1.625"/>
<rect x="20.4062" y="366.531" width="259.187" height="47.9375" rx="1.21875" stroke="#A5A5A5" stroke-opacity="0.5" stroke-width="0.8125"/>
<path d="M68.3882 397.016H67.1758V394.75H60.5425V397.022H59.3237L59.3174 393.753H60.0728C60.4705 393.305 60.7858 392.704 61.0186 391.951C61.2555 391.193 61.4036 390.364 61.4629 389.462L61.666 385.508H67.1948V393.753H68.4009L68.3882 397.016ZM61.4629 393.753H65.9697V386.511H62.8403L62.707 389.228C62.652 390.29 62.5103 391.195 62.2817 391.944C62.0575 392.693 61.7845 393.296 61.4629 393.753ZM75.4658 391.392C75.4658 392.437 75.2267 393.279 74.7485 393.918C74.2703 394.557 73.6229 394.877 72.8061 394.877C71.9725 394.877 71.3166 394.612 70.8384 394.083V397.391H69.6641V387.882H70.7368L70.7939 388.644C71.2721 388.051 71.9365 387.755 72.7871 387.755C73.6123 387.755 74.264 388.066 74.7422 388.688C75.2246 389.31 75.4658 390.175 75.4658 391.284V391.392ZM74.2915 391.259C74.2915 390.484 74.1265 389.873 73.7964 389.424C73.4663 388.976 73.0135 388.751 72.438 388.751C71.727 388.751 71.1938 389.067 70.8384 389.697V392.979C71.1896 393.605 71.727 393.918 72.4507 393.918C73.0135 393.918 73.46 393.696 73.79 393.252C74.1243 392.803 74.2915 392.139 74.2915 391.259ZM79.1348 393.03L80.7344 387.882H81.9912L79.23 395.81C78.8026 396.953 78.1234 397.524 77.1924 397.524L76.9702 397.505L76.5322 397.422V396.47L76.8496 396.496C77.2474 396.496 77.5563 396.415 77.7764 396.254C78.0006 396.094 78.1847 395.799 78.3286 395.372L78.5889 394.674L76.1387 387.882H77.4209L79.1348 393.03ZM87.4819 388.853H84.3144V394.75H83.1338V387.882H87.4819V388.853ZM88.0659 391.252C88.0659 390.58 88.1971 389.974 88.4595 389.437C88.7261 388.9 89.0942 388.485 89.5639 388.193C90.0379 387.901 90.5775 387.755 91.1826 387.755C92.1178 387.755 92.8732 388.079 93.4487 388.726C94.0285 389.374 94.3183 390.235 94.3183 391.31V391.392C94.3183 392.061 94.1893 392.662 93.9311 393.195C93.6772 393.724 93.3112 394.136 92.833 394.433C92.359 394.729 91.8131 394.877 91.1953 394.877C90.2643 394.877 89.5089 394.553 88.9292 393.906C88.3537 393.258 88.0659 392.401 88.0659 391.335V391.252ZM89.2466 391.392C89.2466 392.154 89.4222 392.765 89.7734 393.227C90.1289 393.688 90.6028 393.918 91.1953 393.918C91.792 393.918 92.2659 393.686 92.6172 393.22C92.9684 392.75 93.144 392.095 93.144 391.252C93.144 390.499 92.9642 389.89 92.6045 389.424C92.249 388.955 91.775 388.72 91.1826 388.72C90.6028 388.72 90.1352 388.95 89.7798 389.412C89.4243 389.873 89.2466 390.533 89.2466 391.392ZM98.6411 394.877C97.7101 394.877 96.9526 394.572 96.3686 393.963C95.7846 393.349 95.4927 392.53 95.4927 391.506V391.291C95.4927 390.609 95.6217 390.002 95.8799 389.469C96.1422 388.931 96.5062 388.512 96.9717 388.212C97.4414 387.907 97.9492 387.755 98.4951 387.755C99.388 387.755 100.082 388.049 100.577 388.637C101.072 389.225 101.32 390.068 101.32 391.164V391.652H96.667C96.6839 392.329 96.8807 392.877 97.2573 393.296C97.6382 393.711 98.1206 393.918 98.7046 393.918C99.1193 393.918 99.4705 393.834 99.7583 393.665C100.046 393.495 100.298 393.271 100.514 392.992L101.231 393.55C100.655 394.435 99.7921 394.877 98.6411 394.877ZM98.4951 388.72C98.0211 388.72 97.6233 388.893 97.3017 389.24C96.9801 389.583 96.7812 390.065 96.7051 390.688H100.145V390.599C100.112 390.002 99.9508 389.541 99.6631 389.215C99.3753 388.885 98.986 388.72 98.4951 388.72Z" fill="#A5A5A5"/>
<rect x="20.8125" y="196.312" width="258.375" height="47.125" rx="0.8125" stroke="#CEAC6A" stroke-width="1.625"/>
<path d="M66.8711 221.192C66.7568 222.17 66.395 222.925 65.7856 223.458C65.1805 223.987 64.3743 224.252 63.3672 224.252C62.2754 224.252 61.3994 223.861 60.7393 223.078C60.0833 222.295 59.7554 221.247 59.7554 219.936V219.047C59.7554 218.188 59.9077 217.432 60.2124 216.781C60.5213 216.129 60.9572 215.63 61.52 215.283C62.0828 214.931 62.7345 214.756 63.4751 214.756C64.4569 214.756 65.244 215.031 65.8364 215.581C66.4289 216.127 66.7738 216.884 66.8711 217.854H65.646C65.5402 217.117 65.3096 216.584 64.9541 216.254C64.6029 215.924 64.1099 215.759 63.4751 215.759C62.6964 215.759 62.085 216.047 61.6406 216.622C61.2005 217.198 60.9805 218.016 60.9805 219.079V219.974C60.9805 220.977 61.1899 221.774 61.6089 222.367C62.0278 222.959 62.6139 223.255 63.3672 223.255C64.0443 223.255 64.5627 223.103 64.9224 222.798C65.2863 222.489 65.5275 221.954 65.646 221.192H66.8711ZM71.2065 224.252C70.2755 224.252 69.5181 223.947 68.9341 223.338C68.3501 222.724 68.0581 221.905 68.0581 220.881V220.666C68.0581 219.984 68.1872 219.377 68.4453 218.844C68.7077 218.306 69.0716 217.887 69.5371 217.587C70.0068 217.282 70.5146 217.13 71.0605 217.13C71.9534 217.13 72.6475 217.424 73.1426 218.012C73.6377 218.6 73.8852 219.443 73.8852 220.539V221.027H69.2324C69.2493 221.704 69.4461 222.252 69.8227 222.671C70.2036 223.086 70.686 223.293 71.27 223.293C71.6847 223.293 72.036 223.209 72.3237 223.04C72.6115 222.87 72.8633 222.646 73.0791 222.367L73.7964 222.925C73.2209 223.81 72.3576 224.252 71.2065 224.252ZM71.0605 218.095C70.5866 218.095 70.1888 218.268 69.8672 218.615C69.5456 218.958 69.3467 219.44 69.2705 220.063H72.7109V219.974C72.6771 219.377 72.5163 218.916 72.2285 218.59C71.9407 218.26 71.5514 218.095 71.0605 218.095ZM79.0268 219.136C79.0268 218.814 78.9041 218.56 78.6587 218.374C78.4132 218.184 78.0768 218.088 77.6494 218.088C77.2347 218.088 76.8877 218.196 76.6084 218.412C76.3333 218.628 76.1958 218.882 76.1958 219.174H75.0278C75.0278 218.577 75.2775 218.088 75.7768 217.708C76.2762 217.327 76.9004 217.136 77.6494 217.136C78.4534 217.136 79.0797 217.31 79.5283 217.657C79.9769 218 80.2012 218.49 80.2012 219.129C80.2012 219.438 80.1081 219.722 79.9219 219.98C79.7357 220.238 79.4712 220.443 79.1284 220.596C79.9282 220.867 80.3281 221.4 80.3281 222.195C80.3281 222.826 80.0848 223.325 79.5981 223.693C79.1115 224.062 78.4619 224.246 77.6494 224.246C76.8581 224.246 76.2043 224.053 75.688 223.668C75.1759 223.279 74.9199 222.754 74.9199 222.094H76.0879C76.0879 222.428 76.236 222.716 76.5322 222.957C76.8327 223.194 77.2051 223.313 77.6494 223.313C78.098 223.313 78.4598 223.209 78.7349 223.001C79.0099 222.794 79.1474 222.525 79.1474 222.195C79.1474 221.81 79.0311 221.535 78.7983 221.37C78.5698 221.201 78.2122 221.116 77.7256 221.116H76.5513V220.126H77.8271C78.6269 220.105 79.0268 219.775 79.0268 219.136ZM81.5405 220.627C81.5405 219.955 81.6717 219.349 81.9341 218.812C82.2007 218.275 82.5688 217.86 83.0386 217.568C83.5125 217.276 84.0521 217.13 84.6572 217.13C85.5924 217.13 86.3478 217.454 86.9233 218.101C87.5031 218.749 87.793 219.61 87.793 220.685V220.767C87.793 221.436 87.6639 222.037 87.4057 222.57C87.1518 223.099 86.7858 223.511 86.3076 223.808C85.8336 224.104 85.2877 224.252 84.6699 224.252C83.7389 224.252 82.9835 223.928 82.4038 223.281C81.8283 222.633 81.5405 221.776 81.5405 220.71V220.627ZM82.7212 220.767C82.7212 221.529 82.8968 222.14 83.248 222.602C83.6035 223.063 84.0775 223.293 84.6699 223.293C85.2666 223.293 85.7405 223.061 86.0918 222.595C86.443 222.125 86.6186 221.47 86.6186 220.627C86.6186 219.874 86.4388 219.265 86.0791 218.799C85.7236 218.33 85.2497 218.095 84.6572 218.095C84.0775 218.095 83.6099 218.325 83.2544 218.787C82.8989 219.248 82.7212 219.908 82.7212 220.767ZM94.8769 224.125H93.7026V221.192H90.5478V224.125H89.3672V217.257H90.5478V220.234H93.7026V217.257H94.8769V224.125ZM102.38 224.125H101.206V221.192H98.0508V224.125H96.8701V217.257H98.0508V220.234H101.206V217.257H102.38V224.125ZM105.554 219.625H107.337C108.116 219.633 108.732 219.836 109.185 220.234C109.637 220.632 109.864 221.171 109.864 221.853C109.864 222.538 109.631 223.088 109.165 223.503C108.7 223.918 108.074 224.125 107.287 224.125H104.379V217.257H105.554V219.625ZM112.314 224.125H111.133V217.257H112.314V224.125ZM105.554 220.583V223.167H107.299C107.739 223.167 108.08 223.054 108.321 222.83C108.562 222.602 108.683 222.291 108.683 221.897C108.683 221.516 108.565 221.205 108.328 220.964C108.095 220.718 107.767 220.591 107.344 220.583H105.554ZM118.808 217.257H119.982V224.125H118.808V219.117L115.64 224.125H114.466V217.257H115.64V222.271L118.808 217.257ZM119.125 214.756C119.125 215.268 118.949 215.681 118.598 215.994C118.251 216.303 117.794 216.457 117.227 216.457C116.66 216.457 116.201 216.3 115.85 215.987C115.498 215.674 115.323 215.264 115.323 214.756H116.281C116.281 215.052 116.362 215.285 116.522 215.454C116.683 215.619 116.918 215.702 117.227 215.702C117.523 215.702 117.754 215.619 117.919 215.454C118.088 215.289 118.173 215.056 118.173 214.756H119.125ZM124.781 220.627C124.781 219.955 124.912 219.349 125.174 218.812C125.441 218.275 125.809 217.86 126.279 217.568C126.753 217.276 127.292 217.13 127.897 217.13C128.833 217.13 129.588 217.454 130.164 218.101C130.743 218.749 131.033 219.61 131.033 220.685V220.767C131.033 221.436 130.904 222.037 130.646 222.57C130.392 223.099 130.026 223.511 129.548 223.808C129.074 224.104 128.528 224.252 127.91 224.252C126.979 224.252 126.224 223.928 125.644 223.281C125.068 222.633 124.781 221.776 124.781 220.71V220.627ZM125.961 220.767C125.961 221.529 126.137 222.14 126.488 222.602C126.844 223.063 127.318 223.293 127.91 223.293C128.507 223.293 128.981 223.061 129.332 222.595C129.683 222.125 129.859 221.47 129.859 220.627C129.859 219.874 129.679 219.265 129.319 218.799C128.964 218.33 128.49 218.095 127.897 218.095C127.318 218.095 126.85 218.325 126.495 218.787C126.139 219.248 125.961 219.908 125.961 220.767ZM137.47 218.209H135.165V224.125H133.991V218.209H131.731V217.257H137.47V218.209ZM138.009 223.167L138.415 222.665C138.873 222.073 139.133 221.184 139.196 219.999L139.304 217.257H143.728V223.167H144.611V226.144H143.436V224.125H138.644V226.144H137.47L137.476 223.167H138.009ZM139.399 223.167H142.554V218.342H140.44L140.371 219.98C140.299 221.347 139.975 222.409 139.399 223.167ZM147.194 219.625H148.978C149.757 219.633 150.372 219.836 150.825 220.234C151.278 220.632 151.504 221.171 151.504 221.853C151.504 222.538 151.272 223.088 150.806 223.503C150.341 223.918 149.714 224.125 148.927 224.125H146.02V217.257H147.194V219.625ZM153.955 224.125H152.774V217.257H153.955V224.125ZM147.194 220.583V223.167H148.94C149.38 223.167 149.721 223.054 149.962 222.83C150.203 222.602 150.324 222.291 150.324 221.897C150.324 221.516 150.205 221.205 149.968 220.964C149.735 220.718 149.408 220.591 148.984 220.583H147.194ZM158.309 219.764L159.832 217.257H161.204L158.956 220.653L161.273 224.125H159.915L158.328 221.554L156.741 224.125H155.376L157.693 220.653L155.446 217.257H156.805L158.309 219.764Z" fill="#A5A5A5"/>
<path d="M25.0535 34.5537H23.5523V40H21.3528V27.292H23.5523V32.6335H24.7655L28.5011 27.292H31.2068L26.8428 33.3754L31.5908 40H28.9375L25.0535 34.5537ZM39.144 40C39.0509 39.8196 38.9695 39.5258 38.8997 39.1185C38.2247 39.8225 37.3984 40.1746 36.4209 40.1746C35.4725 40.1746 34.6986 39.904 34.0992 39.3629C33.4999 38.8217 33.2003 38.1526 33.2003 37.3554C33.2003 36.3488 33.5727 35.5778 34.3174 35.0425C35.0681 34.5013 36.1387 34.2308 37.5294 34.2308H38.8298V33.6111C38.8298 33.1223 38.6931 32.7325 38.4196 32.4415C38.1461 32.1448 37.7301 31.9964 37.1715 31.9964C36.6886 31.9964 36.2929 32.1186 35.9845 32.363C35.6761 32.6015 35.5219 32.907 35.5219 33.2794H33.401C33.401 32.7616 33.5727 32.2786 33.916 31.8306C34.2593 31.3767 34.7248 31.0218 35.3124 30.7658C35.9059 30.5097 36.5664 30.3817 37.2937 30.3817C38.3993 30.3817 39.2808 30.661 39.9383 31.2196C40.5958 31.7724 40.9333 32.5521 40.9507 33.5587V37.818C40.9507 38.6675 41.07 39.3454 41.3086 39.8516V40H39.144ZM36.8137 38.4726C37.2326 38.4726 37.6254 38.3708 37.9919 38.1671C38.3643 37.9635 38.6436 37.69 38.8298 37.3467V35.5662H37.6865C36.9009 35.5662 36.3103 35.7029 35.9147 35.9764C35.519 36.2499 35.3212 36.6368 35.3212 37.1372C35.3212 37.5445 35.455 37.8704 35.7227 38.1147C35.9961 38.3533 36.3598 38.4726 36.8137 38.4726ZM47.4217 36.2644H46.3482V40H44.2272V30.5563H46.3482V34.3268H47.2821L49.8917 30.5563H52.5101L49.0975 35.0774L52.7982 40H50.0401L47.4217 36.2644ZM60.4998 40C60.4067 39.8196 60.3252 39.5258 60.2554 39.1185C59.5804 39.8225 58.7542 40.1746 57.7766 40.1746C56.8282 40.1746 56.0543 39.904 55.455 39.3629C54.8557 38.8217 54.556 38.1526 54.556 37.3554C54.556 36.3488 54.9284 35.5778 55.6732 35.0425C56.4238 34.5013 57.4944 34.2308 58.8851 34.2308H60.1856V33.6111C60.1856 33.1223 60.0488 32.7325 59.7753 32.4415C59.5019 32.1448 59.0858 31.9964 58.5272 31.9964C58.0443 31.9964 57.6486 32.1186 57.3402 32.363C57.0318 32.6015 56.8776 32.907 56.8776 33.2794H54.7567C54.7567 32.7616 54.9284 32.2786 55.2717 31.8306C55.615 31.3767 56.0805 31.0218 56.6682 30.7658C57.2617 30.5097 57.9221 30.3817 58.6494 30.3817C59.755 30.3817 60.6365 30.661 61.294 31.2196C61.9515 31.7724 62.289 32.5521 62.3065 33.5587V37.818C62.3065 38.6675 62.4258 39.3454 62.6643 39.8516V40H60.4998ZM58.1694 38.4726C58.5883 38.4726 58.9811 38.3708 59.3477 38.1671C59.7201 37.9635 59.9994 37.69 60.1856 37.3467V35.5662H59.0422C58.2567 35.5662 57.6661 35.7029 57.2704 35.9764C56.8747 36.2499 56.6769 36.6368 56.6769 37.1372C56.6769 37.5445 56.8107 37.8704 57.0784 38.1147C57.3519 38.3533 57.7155 38.4726 58.1694 38.4726ZM72.9843 30.5563V40H70.8722V36.535H68.8909L66.8747 40H64.6753L66.9009 36.1859C66.319 35.9415 65.871 35.5923 65.5568 35.1385C65.2484 34.6846 65.0942 34.1639 65.0942 33.5762C65.0942 32.6976 65.4317 31.9789 66.1067 31.4204C66.7874 30.8559 67.7039 30.5679 68.856 30.5563H72.9843ZM67.2151 33.6285C67.2151 34.0242 67.3606 34.3472 67.6515 34.5974C67.9483 34.8417 68.3265 34.9639 68.7862 34.9639H70.8722V32.2408H68.9171C68.3992 32.2408 67.9861 32.3717 67.6777 32.6335C67.3693 32.8954 67.2151 33.2271 67.2151 33.6285ZM84.8789 36.9626L86.799 30.5563H89.0596L85.3066 41.4314C84.7305 43.0199 83.753 43.8141 82.3739 43.8141C82.0656 43.8141 81.7252 43.7618 81.3528 43.657V42.0162L81.7543 42.0424C82.2896 42.0424 82.6911 41.9434 82.9587 41.7456C83.2322 41.5536 83.4475 41.2277 83.6046 40.7681L83.9101 39.9564L80.5934 30.5563H82.8802L84.8789 36.9626ZM96.6862 40V30.5563H100.518C101.81 30.5563 102.793 30.7832 103.468 31.2371C104.143 31.6851 104.48 32.331 104.48 33.1747C104.48 33.6111 104.344 34.0038 104.07 34.353C103.802 34.6963 103.404 34.961 102.874 35.1472C103.491 35.2752 103.98 35.5342 104.341 35.924C104.701 36.3139 104.882 36.7735 104.882 37.303C104.882 38.1817 104.556 38.8508 103.904 39.3105C103.258 39.7702 102.327 40 101.111 40H96.6862ZM98.8071 35.9764V38.3242H101.129C102.217 38.3242 102.761 37.9344 102.761 37.1547C102.761 36.3691 102.208 35.9764 101.103 35.9764H98.8071ZM98.8071 34.4577H100.553C101.757 34.4577 102.359 34.1028 102.359 33.3929C102.359 32.6481 101.789 32.2641 100.649 32.2408H98.8071V34.4577ZM113.255 40C113.162 39.8196 113.081 39.5258 113.011 39.1185C112.336 39.8225 111.51 40.1746 110.532 40.1746C109.584 40.1746 108.81 39.904 108.211 39.3629C107.611 38.8217 107.312 38.1526 107.312 37.3554C107.312 36.3488 107.684 35.5778 108.429 35.0425C109.179 34.5013 110.25 34.2308 111.641 34.2308H112.941V33.6111C112.941 33.1223 112.804 32.7325 112.531 32.4415C112.258 32.1448 111.841 31.9964 111.283 31.9964C110.8 31.9964 110.404 32.1186 110.096 32.363C109.787 32.6015 109.633 32.907 109.633 33.2794H107.512C107.512 32.7616 107.684 32.2786 108.027 31.8306C108.371 31.3767 108.836 31.0218 109.424 30.7658C110.017 30.5097 110.678 30.3817 111.405 30.3817C112.511 30.3817 113.392 30.661 114.05 31.2196C114.707 31.7724 115.045 32.5521 115.062 33.5587V37.818C115.062 38.6675 115.181 39.3454 115.42 39.8516V40H113.255ZM110.925 38.4726C111.344 38.4726 111.737 38.3708 112.103 38.1671C112.476 37.9635 112.755 37.69 112.941 37.3467V35.5662H111.798C111.012 35.5662 110.422 35.7029 110.026 35.9764C109.63 36.2499 109.433 36.6368 109.433 37.1372C109.433 37.5445 109.566 37.8704 109.834 38.1147C110.108 38.3533 110.471 38.4726 110.925 38.4726ZM122.057 38.4813C122.586 38.4813 123.026 38.3271 123.375 38.0187C123.724 37.7103 123.91 37.3292 123.933 36.8754H125.932C125.909 37.4631 125.725 38.0129 125.382 38.525C125.039 39.0312 124.573 39.4327 123.986 39.7294C123.398 40.0262 122.764 40.1746 122.083 40.1746C120.762 40.1746 119.715 39.7469 118.941 38.8915C118.167 38.0362 117.78 36.855 117.78 35.348V35.1298C117.78 33.6925 118.164 32.5434 118.932 31.6822C119.7 30.8152 120.748 30.3817 122.074 30.3817C123.197 30.3817 124.111 30.7105 124.815 31.368C125.525 32.0197 125.897 32.8779 125.932 33.9428H123.933C123.91 33.4016 123.724 32.9565 123.375 32.6074C123.031 32.2582 122.592 32.0837 122.057 32.0837C121.37 32.0837 120.841 32.3339 120.468 32.8343C120.096 33.3289 119.907 34.0824 119.901 35.0949V35.4352C119.901 36.4593 120.084 37.2245 120.451 37.7307C120.823 38.2311 121.359 38.4813 122.057 38.4813ZM133.855 30.5563H135.976V38.3068H139.659V30.5563H141.78V38.3068H143.063L142.889 42.8017H140.96V40H133.855V30.5563ZM149.613 40.1746C148.269 40.1746 147.178 39.7527 146.34 38.909C145.508 38.0595 145.092 36.9306 145.092 35.5225V35.2607C145.092 34.3181 145.272 33.4773 145.633 32.7383C145.999 31.9935 146.512 31.4145 147.169 31.0014C147.827 30.5883 148.56 30.3817 149.368 30.3817C150.654 30.3817 151.647 30.7919 152.345 31.6124C153.049 32.4328 153.401 33.5936 153.401 35.0949V35.9502H147.23C147.294 36.7299 147.553 37.3467 148.007 37.8005C148.467 38.2544 149.043 38.4813 149.735 38.4813C150.707 38.4813 151.498 38.0886 152.109 37.303L153.252 38.394C152.874 38.9585 152.368 39.3978 151.734 39.712C151.105 40.0204 150.398 40.1746 149.613 40.1746ZM149.36 32.0837C148.778 32.0837 148.307 32.2873 147.946 32.6946C147.591 33.102 147.364 33.6693 147.265 34.3966H151.306V34.2395C151.26 33.5296 151.07 32.9943 150.739 32.6335C150.407 32.267 149.947 32.0837 149.36 32.0837ZM163.974 30.5563V40H161.853V32.267H159.182L159.008 35.5574C158.897 37.1401 158.592 38.2777 158.091 38.9701C157.597 39.6567 156.837 40 155.813 40H155.159L155.15 38.2369L155.586 38.1933C156.052 38.1293 156.389 37.8471 156.599 37.3467C156.814 36.8405 156.951 35.9211 157.009 34.5886L157.184 30.5563H163.974ZM169.406 33.5587H171.484C172.257 33.5587 172.932 33.6925 173.508 33.9602C174.085 34.2279 174.521 34.6032 174.818 35.0861C175.12 35.5691 175.272 36.1306 175.272 36.7706C175.272 37.7424 174.928 38.5221 174.242 39.1097C173.555 39.6974 172.641 39.9942 171.501 40H167.285V30.5563H169.406V33.5587ZM169.406 35.2607V38.3068H171.475C171.993 38.3068 172.4 38.1788 172.697 37.9227C172.999 37.6609 173.151 37.2914 173.151 36.8143C173.151 36.3371 173.002 35.9618 172.705 35.6884C172.415 35.4091 172.019 35.2665 171.518 35.2607H169.406ZM191.216 40H189.095V32.267H185.412V40H183.291V30.5563H191.216V40ZM193.969 35.1909C193.969 34.2657 194.152 33.4336 194.519 32.6946C194.885 31.9499 195.4 31.3796 196.063 30.984C196.727 30.5825 197.489 30.3817 198.35 30.3817C199.624 30.3817 200.657 30.7919 201.449 31.6124C202.246 32.4328 202.676 33.5209 202.74 34.8767L202.749 35.3741C202.749 36.3051 202.569 37.1372 202.208 37.8704C201.853 38.6035 201.341 39.1708 200.672 39.5723C200.008 39.9738 199.24 40.1746 198.368 40.1746C197.035 40.1746 195.967 39.7323 195.164 38.8479C194.367 37.9576 193.969 36.7735 193.969 35.2956V35.1909ZM196.09 35.3741C196.09 36.3459 196.29 37.1081 196.692 37.6609C197.093 38.2078 197.652 38.4813 198.368 38.4813C199.083 38.4813 199.639 38.202 200.035 37.6434C200.436 37.0848 200.637 36.2673 200.637 35.1909C200.637 34.2366 200.43 33.4802 200.017 32.9216C199.61 32.363 199.054 32.0837 198.35 32.0837C197.658 32.0837 197.108 32.3601 196.701 32.9128C196.293 33.4598 196.09 34.2802 196.09 35.3741ZM208.792 36.2644H207.719V40H205.598V30.5563H207.719V34.3268H208.653L211.262 30.5563H213.881L210.468 35.0774L214.169 40H211.411L208.792 36.2644ZM219.531 36.9626L221.451 30.5563H223.712L219.959 41.4314C219.383 43.0199 218.405 43.8141 217.026 43.8141C216.718 43.8141 216.378 43.7618 216.005 43.657V42.0162L216.407 42.0424C216.942 42.0424 217.343 41.9434 217.611 41.7456C217.885 41.5536 218.1 41.2277 218.257 40.7681L218.563 39.9564L215.246 30.5563H217.533L219.531 36.9626ZM233.84 40H231.719V32.267H228.036V40H225.915V30.5563H233.84V40ZM240.346 36.2644H239.272V40H237.151V30.5563H239.272V34.3268H240.206L242.816 30.5563H245.434L242.022 35.0774L245.722 40H242.964L240.346 36.2644ZM253.677 30.5563H255.789V40H253.677V33.6984L249.976 40H247.864V30.5563H249.976V36.8579L253.677 30.5563ZM29.0859 67H26.965V63.1859H23.2905V67H21.1696V57.5563H23.2905V61.4926H26.965V57.5563H29.0859V67ZM36.4034 67.1746C35.0593 67.1746 33.9683 66.7527 33.1304 65.909C32.2984 65.0595 31.8823 63.9306 31.8823 62.5225V62.2607C31.8823 61.3181 32.0627 60.4773 32.4235 59.7383C32.79 58.9935 33.3021 58.4145 33.9596 58.0014C34.6171 57.5883 35.3503 57.3817 36.1591 57.3817C37.445 57.3817 38.4371 57.7919 39.1353 58.6124C39.8394 59.4328 40.1914 60.5936 40.1914 62.0949V62.9502H34.0207C34.0847 63.7299 34.3436 64.3467 34.7975 64.8005C35.2572 65.2544 35.8332 65.4813 36.5256 65.4813C37.4974 65.4813 38.2887 65.0886 38.8997 64.303L40.043 65.394C39.6648 65.9585 39.1586 66.3978 38.5244 66.712C37.8959 67.0204 37.189 67.1746 36.4034 67.1746ZM36.1503 59.0837C35.5685 59.0837 35.0972 59.2873 34.7364 59.6946C34.3815 60.102 34.1545 60.6693 34.0556 61.3966H38.0967V61.2395C38.0501 60.5296 37.861 59.9943 37.5294 59.6335C37.1977 59.267 36.738 59.0837 36.1503 59.0837ZM42.7784 65.3068C43.3661 64.6493 43.7588 64.0267 43.9567 63.439C44.1603 62.8455 44.2825 62.089 44.3233 61.1697L44.4454 57.5563H51.0002V65.3068H52.3094V69.8104H50.1972V67H44.14V69.8104H41.9929L42.0016 65.3068H42.7784ZM45.2659 65.3068H48.888V59.3804H46.5053L46.4442 61.1871C46.3627 62.9211 45.9699 64.2943 45.2659 65.3068ZM54.8789 67V57.5563H58.7105C60.0023 57.5563 60.9856 57.7832 61.6606 58.2371C62.3356 58.6851 62.673 59.331 62.673 60.1747C62.673 60.6111 62.5363 61.0038 62.2628 61.353C61.9952 61.6963 61.5966 61.961 61.0671 62.1472C61.6839 62.2752 62.1726 62.5342 62.5334 62.924C62.8942 63.3139 63.0745 63.7735 63.0745 64.303C63.0745 65.1817 62.7487 65.8508 62.097 66.3105C61.4511 66.7702 60.5201 67 59.304 67H54.8789ZM56.9998 62.9764V65.3242H59.3215C60.4096 65.3242 60.9536 64.9344 60.9536 64.1547C60.9536 63.3691 60.4009 62.9764 59.2953 62.9764H56.9998ZM56.9998 61.4577H58.7454C59.9499 61.4577 60.5521 61.1028 60.5521 60.3929C60.5521 59.6481 59.9819 59.2641 58.8414 59.2408H56.9998V61.4577ZM71.7013 57.5563H73.8135V67H71.7013V60.6984L68.0006 67H65.8885V57.5563H68.0006V63.8579L71.7013 57.5563ZM85.2769 63.2033H84.151V67H82.0301V63.2033H80.9129L78.7396 67H76.1386L79.272 62.0861L76.3045 57.5563H78.8967L81.0351 61.2657H82.0301V57.5563H84.151V61.2657H85.1547L87.3018 57.5563H89.894L86.9352 62.0599L90.086 67H87.4502L85.2769 63.2033ZM98.1891 57.5563H100.301V67H98.1891V60.6984L94.4884 67H92.3763V57.5563H94.4884V63.8579L98.1891 57.5563ZM109.059 64.3903L111.852 57.5563H114.505V67H112.384V60.7507L109.783 67H108.343L105.734 60.7158V67H103.613V57.5563H106.283L109.059 64.3903ZM117.389 62.1909C117.389 61.2657 117.572 60.4336 117.939 59.6946C118.305 58.9499 118.82 58.3796 119.484 57.984C120.147 57.5825 120.909 57.3817 121.77 57.3817C123.045 57.3817 124.078 57.7919 124.869 58.6124C125.666 59.4328 126.097 60.5209 126.161 61.8767L126.169 62.3741C126.169 63.3051 125.989 64.1372 125.628 64.8704C125.273 65.6035 124.761 66.1708 124.092 66.5723C123.429 66.9738 122.661 67.1746 121.788 67.1746C120.455 67.1746 119.388 66.7323 118.585 65.8479C117.788 64.9576 117.389 63.7735 117.389 62.2956V62.1909ZM119.51 62.3741C119.51 63.3459 119.711 64.1081 120.112 64.6609C120.514 65.2078 121.072 65.4813 121.788 65.4813C122.504 65.4813 123.059 65.202 123.455 64.6434C123.856 64.0848 124.057 63.2673 124.057 62.1909C124.057 61.2366 123.851 60.4802 123.438 59.9216C123.03 59.363 122.475 59.0837 121.77 59.0837C121.078 59.0837 120.528 59.3601 120.121 59.9128C119.714 60.4598 119.51 61.2802 119.51 62.3741ZM132.736 65.4813C133.266 65.4813 133.705 65.3271 134.054 65.0187C134.403 64.7103 134.59 64.3292 134.613 63.8754H136.612C136.588 64.4631 136.405 65.0129 136.062 65.525C135.718 66.0312 135.253 66.4327 134.665 66.7294C134.078 67.0262 133.443 67.1746 132.763 67.1746C131.442 67.1746 130.394 66.7469 129.62 65.8915C128.847 65.0362 128.46 63.855 128.46 62.348V62.1298C128.46 60.6925 128.844 59.5434 129.612 58.6822C130.38 57.8152 131.427 57.3817 132.754 57.3817C133.877 57.3817 134.79 57.7105 135.494 58.368C136.204 59.0197 136.577 59.8779 136.612 60.9428H134.613C134.59 60.4016 134.403 59.9565 134.054 59.6074C133.711 59.2582 133.272 59.0837 132.736 59.0837C132.05 59.0837 131.52 59.3339 131.148 59.8343C130.775 60.3289 130.586 61.0824 130.581 62.0949V62.4352C130.581 63.4593 130.764 64.2245 131.13 64.7307C131.503 65.2311 132.038 65.4813 132.736 65.4813ZM146.539 59.2408H143.475V67H141.354V59.2408H138.326V57.5563H146.539V59.2408ZM154.747 57.5563H156.859V67H154.747V60.6984L151.046 67H148.934V57.5563H151.046V63.8579L154.747 57.5563ZM161.977 63.2644C161.977 62.4905 162.073 61.8737 162.265 61.4141C162.457 60.9544 162.835 60.4511 163.4 59.9041C163.97 59.3513 164.331 58.9586 164.482 58.7258C164.715 58.3709 164.831 57.9869 164.831 57.5737C164.831 57.0268 164.694 56.6107 164.421 56.3256C164.153 56.0347 163.758 55.8892 163.234 55.8892C162.733 55.8892 162.329 56.0318 162.021 56.3169C161.718 56.5962 161.567 56.9773 161.567 57.4603H159.446C159.458 56.4304 159.807 55.6157 160.493 55.0164C161.186 54.4171 162.099 54.1174 163.234 54.1174C164.403 54.1174 165.314 54.4142 165.966 55.0077C166.623 55.6012 166.952 56.4304 166.952 57.4952C166.952 58.4436 166.51 59.3775 165.625 60.2969L164.552 61.353C164.168 61.7894 163.97 62.4265 163.958 63.2644H161.977ZM161.829 65.9788C161.829 65.6355 161.936 65.3591 162.152 65.1497C162.367 64.9344 162.658 64.8267 163.024 64.8267C163.397 64.8267 163.691 64.9373 163.906 65.1584C164.121 65.3737 164.229 65.6472 164.229 65.9788C164.229 66.2988 164.124 66.5665 163.915 66.7818C163.705 66.9971 163.408 67.1047 163.024 67.1047C162.64 67.1047 162.344 66.9971 162.134 66.7818C161.93 66.5665 161.829 66.2988 161.829 65.9788Z" fill="#CEAC6A"/>
<rect x="50.875" y="227.188" width="14.625" height="14.625" rx="1.625" transform="rotate(-180 50.875 227.188)" fill="#CEAC6A"/>
<path d="M42.2307 224.475C42.1221 224.584 41.974 224.645 41.8201 224.645C41.6662 224.645 41.5181 224.584 41.4095 224.475L38.1302 221.195C37.7899 220.855 37.7899 220.303 38.1302 219.963L38.5408 219.553C38.8813 219.212 39.4325 219.212 39.7728 219.553L41.8201 221.6L47.3522 216.068C47.6926 215.727 48.2443 215.727 48.5841 216.068L48.9947 216.478C49.335 216.819 49.335 217.37 48.9947 217.71L42.2307 224.475Z" fill="#353535"/>
<rect x="73.625" y="479.875" width="53.625" height="48.75" rx="4.0625" transform="rotate(-180 73.625 479.875)" fill="#403F3F"/>
<path d="M56.5891 456.294L39.7456 456.294L43.2499 459.833C43.5569 460.143 43.5569 460.645 43.2499 460.955C42.9429 461.265 42.4452 461.265 42.1387 460.955L37.2928 456.061C36.9858 455.751 36.9858 455.249 37.2928 454.939L42.1387 450.045C42.2921 449.89 42.4932 449.813 42.6943 449.813C42.8954 449.813 43.0965 449.89 43.2499 450.045C43.5569 450.355 43.5569 450.857 43.2499 451.167L39.7456 454.706L56.5891 454.706C57.0231 454.706 57.375 455.062 57.375 455.5C57.375 455.938 57.0231 456.294 56.5891 456.294Z" fill="#CEAC6A"/>
<rect x="81.75" y="431.125" width="198.25" height="48.75" rx="4.0625" fill="#CEAC6A"/>
<path d="M137.195 460.385H137.572C137.893 460.212 138.166 459.939 138.391 459.566C138.616 459.185 138.811 458.6 138.976 457.811C139.141 457.022 139.262 455.961 139.34 454.626L139.574 451.22H144.228V460.385H145.333V463.843H143.994L143.877 461.75H138.69L138.56 463.843H137.195V460.385ZM142.408 460.385V452.598H141.082L140.965 454.925C140.904 456.234 140.796 457.248 140.64 457.967C140.493 458.686 140.324 459.198 140.133 459.501C139.942 459.804 139.687 460.099 139.366 460.385H142.408ZM150.041 451.22H152.095L154.201 461.75H152.42L152.004 459.319H150.171L149.742 461.75H147.935L150.041 451.22ZM151.796 458.097L151.081 453.677L150.366 458.097H151.796ZM156.612 460.372C157.054 460.381 157.37 460.311 157.561 460.164C157.76 460.008 157.912 459.661 158.016 459.124C158.12 458.587 158.219 457.664 158.315 456.355L158.653 451.22H163.775V461.75H161.864V452.663H160.343L160.122 456.589C160.035 457.993 159.918 459.037 159.771 459.722C159.623 460.398 159.346 460.909 158.939 461.256C158.54 461.594 157.92 461.763 157.08 461.763C156.88 461.763 156.724 461.759 156.612 461.75V460.372ZM167.481 451.22H171.901V452.572H169.392V455.601H171.368V456.94H169.392V460.437H171.927V461.75H167.481V451.22ZM175.122 451.22H179.542V452.572H177.033V455.601H179.009V456.94H177.033V460.437H179.568V461.75H175.122V451.22Z" fill="#4F4F4F"/>
<path d="M137.812 512.281C135.984 512.281 135.069 511.276 135.069 509.265V508.901H136.85V509.213C136.868 509.75 136.941 510.145 137.071 510.396C137.21 510.647 137.461 510.773 137.825 510.773C138.198 510.773 138.449 510.643 138.579 510.383C138.709 510.114 138.774 509.694 138.774 509.122C138.774 508.55 138.683 508.117 138.501 507.822C138.319 507.527 137.999 507.367 137.539 507.341H137.24V505.898H137.513C137.981 505.889 138.306 505.764 138.488 505.521C138.679 505.278 138.774 504.88 138.774 504.325C138.774 503.848 138.701 503.493 138.553 503.259C138.415 503.025 138.163 502.908 137.799 502.908C137.444 502.908 137.201 503.034 137.071 503.285C136.941 503.536 136.868 503.909 136.85 504.403V504.78H135.069V504.286C135.069 503.385 135.303 502.691 135.771 502.206C136.248 501.712 136.924 501.465 137.799 501.465C138.692 501.465 139.372 501.708 139.84 502.193C140.317 502.67 140.555 503.354 140.555 504.247C140.555 504.862 140.425 505.374 140.165 505.781C139.914 506.18 139.58 506.44 139.164 506.561C139.598 506.708 139.936 506.99 140.178 507.406C140.43 507.813 140.555 508.372 140.555 509.083C140.555 510.088 140.334 510.873 139.892 511.436C139.459 511.999 138.766 512.281 137.812 512.281Z" fill="#CEAC6A"/>
<path d="M151.843 501.595H153.013L149.971 512.125H148.801L151.843 501.595ZM164.058 512.281C163.061 512.281 162.368 512.017 161.978 511.488C161.597 510.951 161.406 510.158 161.406 509.109H163.161C163.161 509.707 163.226 510.158 163.356 510.461C163.486 510.764 163.742 510.916 164.123 510.916C164.409 510.916 164.621 510.825 164.76 510.643C164.899 510.452 164.985 510.201 165.02 509.889C165.063 509.568 165.085 509.126 165.085 508.563C165.085 507.87 165.02 507.358 164.89 507.029C164.76 506.7 164.491 506.535 164.084 506.535C163.841 506.535 163.633 506.617 163.46 506.782C163.295 506.947 163.174 507.172 163.096 507.458H161.549L161.653 501.595H166.385V503.207H163.161L163.057 505.742C163.204 505.577 163.417 505.447 163.694 505.352C163.971 505.248 164.275 505.196 164.604 505.196C165.349 505.196 165.9 505.482 166.255 506.054C166.619 506.617 166.801 507.415 166.801 508.446C166.801 509.252 166.723 509.932 166.567 510.487C166.42 511.042 166.147 511.479 165.748 511.8C165.349 512.121 164.786 512.281 164.058 512.281Z" fill="#A5A5A5"/>
<path d="M205.223 454.706L222.067 454.706L218.563 451.167C218.256 450.857 218.256 450.355 218.563 450.045C218.87 449.735 219.367 449.735 219.674 450.045L224.52 454.939C224.827 455.249 224.827 455.751 224.52 456.061L219.674 460.955C219.52 461.11 219.319 461.187 219.118 461.187C218.917 461.187 218.716 461.11 218.563 460.955C218.256 460.645 218.256 460.143 218.563 459.833L222.067 456.294L205.223 456.294C204.789 456.294 204.438 455.938 204.438 455.5C204.438 455.062 204.789 454.706 205.223 454.706Z" fill="#4F4F4F"/>
<rect x="170.312" y="122.375" width="150.312" height="24.375" rx="12.1875" transform="rotate(-180 170.312 122.375)" fill="#403F3F"/>
<path d="M29.2977 106.131L31.5638 111.787L33.83 106.131H35.0154V113.062H34.1013V110.363L34.187 107.45L31.9114 113.062H31.2115L28.9407 107.464L29.0311 110.363V113.062H28.1171V106.131H29.2977ZM36.2579 110.439C36.2579 109.935 36.3563 109.481 36.5531 109.078C36.753 108.675 37.0292 108.364 37.3815 108.145C37.7369 107.926 38.1416 107.816 38.5955 107.816C39.2969 107.816 39.8634 108.059 40.295 108.545C40.7299 109.03 40.9473 109.676 40.9473 110.482V110.544C40.9473 111.046 40.8505 111.496 40.6569 111.896C40.4664 112.293 40.1919 112.602 39.8332 112.824C39.4778 113.047 39.0684 113.158 38.605 113.158C37.9067 113.158 37.3402 112.915 36.9054 112.429C36.4738 111.944 36.2579 111.301 36.2579 110.501V110.439ZM37.1434 110.544C37.1434 111.115 37.2751 111.574 37.5386 111.92C37.8052 112.266 38.1606 112.439 38.605 112.439C39.0525 112.439 39.408 112.264 39.6714 111.915C39.9348 111.563 40.0665 111.071 40.0665 110.439C40.0665 109.874 39.9316 109.417 39.6619 109.068C39.3953 108.716 39.0398 108.54 38.5955 108.54C38.1606 108.54 37.8099 108.713 37.5433 109.059C37.2767 109.405 37.1434 109.9 37.1434 110.544ZM46.0555 110.825H45.4366V113.062H44.5559V110.825H43.937L42.4945 113.062H41.3805L43.2229 110.396L41.5566 107.911H42.623L43.9513 110.044H44.5559V107.911H45.4366V110.044H46.0365L47.3743 107.911H48.4407L46.7696 110.401L48.6121 113.062H47.498L46.0555 110.825ZM53.6203 113.062H52.7396V110.863H50.3735V113.062H49.488V107.911H50.3735V110.144H52.7396V107.911H53.6203V113.062ZM54.8058 110.439C54.8058 109.935 54.9042 109.481 55.1009 109.078C55.3009 108.675 55.577 108.364 55.9293 108.145C56.2848 107.926 56.6894 107.816 57.1433 107.816C57.8447 107.816 58.4112 108.059 58.8429 108.545C59.2777 109.03 59.4951 109.676 59.4951 110.482V110.544C59.4951 111.046 59.3983 111.496 59.2047 111.896C59.0143 112.293 58.7397 112.602 58.3811 112.824C58.0256 113.047 57.6162 113.158 57.1528 113.158C56.4546 113.158 55.888 112.915 55.4532 112.429C55.0216 111.944 54.8058 111.301 54.8058 110.501V110.439ZM55.6913 110.544C55.6913 111.115 55.823 111.574 56.0864 111.92C56.353 112.266 56.7085 112.439 57.1528 112.439C57.6003 112.439 57.9558 112.264 58.2192 111.915C58.4827 111.563 58.6144 111.071 58.6144 110.439C58.6144 109.874 58.4795 109.417 58.2097 109.068C57.9431 108.716 57.5876 108.54 57.1433 108.54C56.7085 108.54 56.3578 108.713 56.0912 109.059C55.8246 109.405 55.6913 109.9 55.6913 110.544ZM67.2265 113.062H66.3458V110.863H63.9797V113.062H63.0942V107.911H63.9797V110.144H66.3458V107.911H67.2265V113.062ZM70.7828 113.158C70.0846 113.158 69.5165 112.929 69.0785 112.472C68.6405 112.012 68.4215 111.398 68.4215 110.63V110.468C68.4215 109.957 68.5183 109.501 68.7119 109.102C68.9087 108.698 69.1816 108.384 69.5307 108.159C69.883 107.93 70.2639 107.816 70.6733 107.816C71.343 107.816 71.8635 108.037 72.2348 108.478C72.6062 108.919 72.7918 109.551 72.7918 110.373V110.739H69.3022C69.3149 111.247 69.4625 111.658 69.745 111.972C70.0306 112.283 70.3924 112.439 70.8304 112.439C71.1415 112.439 71.4049 112.375 71.6207 112.248C71.8365 112.121 72.0254 111.953 72.1872 111.744L72.7252 112.163C72.2936 112.826 71.6461 113.158 70.7828 113.158ZM70.6733 108.54C70.3179 108.54 70.0195 108.67 69.7783 108.93C69.5371 109.187 69.3879 109.549 69.3308 110.016H71.9111V109.949C71.8857 109.501 71.7651 109.156 71.5493 108.911C71.3335 108.664 71.0415 108.54 70.6733 108.54ZM75.8816 112.439C76.1958 112.439 76.4703 112.344 76.7052 112.153C76.94 111.963 77.0702 111.725 77.0956 111.439H77.9287C77.9128 111.734 77.8113 112.015 77.624 112.282C77.4367 112.548 77.186 112.761 76.8718 112.92C76.5608 113.078 76.2307 113.158 75.8816 113.158C75.1802 113.158 74.6216 112.924 74.2058 112.458C73.7932 111.988 73.5869 111.347 73.5869 110.535V110.387C73.5869 109.885 73.6789 109.44 73.863 109.049C74.0471 108.659 74.3105 108.356 74.6533 108.14C74.9992 107.924 75.4071 107.816 75.8768 107.816C76.4544 107.816 76.9337 107.989 77.3146 108.335C77.6986 108.681 77.9033 109.13 77.9287 109.682H77.0956C77.0702 109.349 76.9432 109.076 76.7147 108.864C76.4894 108.648 76.2101 108.54 75.8768 108.54C75.4293 108.54 75.0818 108.702 74.8342 109.025C74.5898 109.346 74.4676 109.811 74.4676 110.42V110.587C74.4676 111.18 74.5898 111.637 74.8342 111.958C75.0786 112.279 75.4277 112.439 75.8816 112.439ZM80.5233 110.868H79.8806V113.062H78.9951V107.911H79.8806V110.092H80.4566L82.1895 107.911H83.256L81.2184 110.387L83.4273 113.062H82.3086L80.5233 110.868ZM83.8463 110.439C83.8463 109.935 83.9447 109.481 84.1415 109.078C84.3414 108.675 84.6175 108.364 84.9698 108.145C85.3253 107.926 85.73 107.816 86.1838 107.816C86.8852 107.816 87.4518 108.059 87.8834 108.545C88.3182 109.03 88.5356 109.676 88.5356 110.482V110.544C88.5356 111.046 88.4388 111.496 88.2452 111.896C88.0548 112.293 87.7802 112.602 87.4216 112.824C87.0661 113.047 86.6567 113.158 86.1933 113.158C85.4951 113.158 84.9286 112.915 84.4937 112.429C84.0621 111.944 83.8463 111.301 83.8463 110.501V110.439ZM84.7318 110.544C84.7318 111.115 84.8635 111.574 85.1269 111.92C85.3935 112.266 85.749 112.439 86.1933 112.439C86.6408 112.439 86.9963 112.264 87.2597 111.915C87.5232 111.563 87.6549 111.071 87.6549 110.439C87.6549 109.874 87.52 109.417 87.2502 109.068C86.9836 108.716 86.6281 108.54 86.1838 108.54C85.749 108.54 85.3983 108.713 85.1317 109.059C84.8651 109.405 84.7318 109.9 84.7318 110.544ZM93.7867 107.911V113.062H92.9012V108.64H91.1493L91.0445 110.568C90.9874 111.453 90.8382 112.087 90.597 112.467C90.359 112.848 89.9797 113.047 89.4592 113.062H89.1069V112.286L89.3592 112.267C89.6449 112.236 89.8496 112.071 89.9734 111.772C90.0971 111.474 90.1765 110.922 90.2114 110.116L90.3066 107.911H93.7867ZM96.1623 109.687H97.5001C98.0841 109.693 98.5459 109.846 98.8855 110.144C99.2251 110.443 99.3949 110.847 99.3949 111.358C99.3949 111.872 99.2203 112.285 98.8712 112.596C98.5221 112.907 98.0523 113.062 97.462 113.062H95.2816V107.911H96.1623V109.687ZM96.1623 110.406V112.344H97.4715C97.8016 112.344 98.0571 112.26 98.238 112.091C98.4189 111.92 98.5094 111.687 98.5094 111.391C98.5094 111.106 98.4205 110.873 98.2428 110.692C98.0682 110.508 97.8222 110.412 97.5049 110.406H96.1623ZM102.099 110.868H101.456V113.062H100.571V107.911H101.456V110.092H102.032L103.765 107.911H104.832L102.794 110.387L105.003 113.062H103.884L102.099 110.868ZM105.422 110.439C105.422 109.935 105.52 109.481 105.717 109.078C105.917 108.675 106.193 108.364 106.545 108.145C106.901 107.926 107.306 107.816 107.759 107.816C108.461 107.816 109.027 108.059 109.459 108.545C109.894 109.03 110.111 109.676 110.111 110.482V110.544C110.111 111.046 110.014 111.496 109.821 111.896C109.63 112.293 109.356 112.602 108.997 112.824C108.642 113.047 108.232 113.158 107.769 113.158C107.071 113.158 106.504 112.915 106.069 112.429C105.638 111.944 105.422 111.301 105.422 110.501V110.439ZM106.307 110.544C106.307 111.115 106.439 111.574 106.703 111.92C106.969 112.266 107.325 112.439 107.769 112.439C108.217 112.439 108.572 112.264 108.835 111.915C109.099 111.563 109.231 111.071 109.231 110.439C109.231 109.874 109.096 109.417 108.826 109.068C108.559 108.716 108.204 108.54 107.759 108.54C107.325 108.54 106.974 108.713 106.707 109.059C106.441 109.405 106.307 109.9 106.307 110.544ZM113.715 113.062V107.911H115.724C116.41 107.911 116.935 108.032 117.3 108.273C117.668 108.511 117.852 108.862 117.852 109.325C117.852 109.563 117.781 109.779 117.638 109.973C117.495 110.163 117.284 110.309 117.005 110.411C117.316 110.484 117.565 110.627 117.752 110.839C117.943 111.052 118.038 111.306 118.038 111.601C118.038 112.074 117.863 112.436 117.514 112.686C117.168 112.937 116.678 113.062 116.043 113.062H113.715ZM114.596 110.801V112.353H116.053C116.421 112.353 116.695 112.285 116.876 112.148C117.06 112.012 117.152 111.82 117.152 111.572C117.152 111.058 116.775 110.801 116.019 110.801H114.596ZM114.596 110.097H115.734C116.559 110.097 116.972 109.855 116.972 109.373C116.972 108.891 116.581 108.641 115.8 108.625H114.596V110.097ZM122.384 113.062C122.334 112.961 122.292 112.78 122.261 112.52C121.851 112.945 121.363 113.158 120.794 113.158C120.287 113.158 119.869 113.015 119.542 112.729C119.219 112.44 119.057 112.075 119.057 111.634C119.057 111.098 119.26 110.682 119.666 110.387C120.076 110.089 120.65 109.939 121.389 109.939H122.246V109.535C122.246 109.227 122.154 108.983 121.97 108.802C121.786 108.618 121.515 108.526 121.156 108.526C120.842 108.526 120.579 108.605 120.366 108.764C120.153 108.922 120.047 109.114 120.047 109.34H119.161C119.161 109.083 119.252 108.835 119.433 108.597C119.617 108.356 119.864 108.165 120.175 108.026C120.49 107.886 120.834 107.816 121.209 107.816C121.802 107.816 122.267 107.965 122.603 108.264C122.94 108.559 123.114 108.967 123.127 109.487V111.858C123.127 112.331 123.187 112.707 123.308 112.986V113.062H122.384ZM120.923 112.391C121.199 112.391 121.461 112.32 121.708 112.177C121.956 112.034 122.135 111.849 122.246 111.62V110.563H121.556C120.477 110.563 119.937 110.879 119.937 111.51C119.937 111.787 120.029 112.002 120.214 112.158C120.398 112.313 120.634 112.391 120.923 112.391ZM128.859 110.544C128.859 111.328 128.68 111.96 128.321 112.439C127.962 112.918 127.477 113.158 126.864 113.158C126.239 113.158 125.747 112.959 125.389 112.563V115.043H124.508V107.911H125.312L125.355 108.483C125.714 108.038 126.212 107.816 126.85 107.816C127.469 107.816 127.958 108.049 128.316 108.516C128.678 108.983 128.859 109.632 128.859 110.463V110.544ZM127.978 110.444C127.978 109.863 127.855 109.405 127.607 109.068C127.359 108.732 127.02 108.564 126.588 108.564C126.055 108.564 125.655 108.8 125.389 109.273V111.734C125.652 112.204 126.055 112.439 126.598 112.439C127.02 112.439 127.355 112.272 127.602 111.939C127.853 111.603 127.978 111.104 127.978 110.444ZM133.315 107.911H134.196V113.062H133.315V109.306L130.94 113.062H130.059V107.911H130.94V111.672L133.315 107.911ZM138.79 113.062C138.739 112.961 138.698 112.78 138.666 112.52C138.257 112.945 137.768 113.158 137.2 113.158C136.692 113.158 136.275 113.015 135.948 112.729C135.624 112.44 135.462 112.075 135.462 111.634C135.462 111.098 135.665 110.682 136.072 110.387C136.481 110.089 137.055 109.939 137.795 109.939H138.652V109.535C138.652 109.227 138.56 108.983 138.376 108.802C138.192 108.618 137.92 108.526 137.562 108.526C137.248 108.526 136.984 108.605 136.771 108.764C136.559 108.922 136.452 109.114 136.452 109.34H135.567C135.567 109.083 135.657 108.835 135.838 108.597C136.022 108.356 136.27 108.165 136.581 108.026C136.895 107.886 137.24 107.816 137.614 107.816C138.208 107.816 138.673 107.965 139.009 108.264C139.345 108.559 139.52 108.967 139.533 109.487V111.858C139.533 112.331 139.593 112.707 139.714 112.986V113.062H138.79ZM137.328 112.391C137.605 112.391 137.866 112.32 138.114 112.177C138.362 112.034 138.541 111.849 138.652 111.62V110.563H137.962C136.883 110.563 136.343 110.879 136.343 111.51C136.343 111.787 136.435 112.002 136.619 112.158C136.803 112.313 137.04 112.391 137.328 112.391ZM145.122 113.062H144.241V110.863H141.875V113.062H140.989V107.911H141.875V110.144H144.241V107.911H145.122V113.062ZM150.368 108.625H148.64V113.062H147.759V108.625H146.064V107.911H150.368V108.625ZM150.792 110.439C150.792 109.935 150.89 109.481 151.087 109.078C151.287 108.675 151.563 108.364 151.915 108.145C152.271 107.926 152.675 107.816 153.129 107.816C153.831 107.816 154.397 108.059 154.829 108.545C155.264 109.03 155.481 109.676 155.481 110.482V110.544C155.481 111.046 155.384 111.496 155.191 111.896C155 112.293 154.726 112.602 154.367 112.824C154.012 113.047 153.602 113.158 153.139 113.158C152.441 113.158 151.874 112.915 151.439 112.429C151.008 111.944 150.792 111.301 150.792 110.501V110.439ZM151.677 110.544C151.677 111.115 151.809 111.574 152.072 111.92C152.339 112.266 152.695 112.439 153.139 112.439C153.586 112.439 153.942 112.264 154.205 111.915C154.469 111.563 154.6 111.071 154.6 110.439C154.6 109.874 154.466 109.417 154.196 109.068C153.929 108.716 153.574 108.54 153.129 108.54C152.695 108.54 152.344 108.713 152.077 109.059C151.811 109.405 151.677 109.9 151.677 110.544ZM156.667 113.062V107.911H158.676C159.361 107.911 159.886 108.032 160.251 108.273C160.62 108.511 160.804 108.862 160.804 109.325C160.804 109.563 160.732 109.779 160.589 109.973C160.447 110.163 160.236 110.309 159.956 110.411C160.267 110.484 160.516 110.627 160.704 110.839C160.894 111.052 160.989 111.306 160.989 111.601C160.989 112.074 160.815 112.436 160.466 112.686C160.12 112.937 159.629 113.062 158.995 113.062H156.667ZM157.547 110.801V112.353H159.004C159.372 112.353 159.647 112.285 159.828 112.148C160.012 112.012 160.104 111.82 160.104 111.572C160.104 111.058 159.726 110.801 158.971 110.801H157.547ZM157.547 110.097H158.685C159.51 110.097 159.923 109.855 159.923 109.373C159.923 108.891 159.533 108.641 158.752 108.625H157.547V110.097Z" fill="#A5A5A5"/>
<rect x="278.375" y="122.375" width="104" height="24.375" rx="12.1875" transform="rotate(-180 278.375 122.375)" fill="#403F3F"/>
<path d="M184.485 106.131L186.751 111.787L189.017 106.131H190.203V113.062H189.289V110.363L189.375 107.45L187.099 113.062H186.399L184.128 107.464L184.219 110.363V113.062H183.305V106.131H184.485ZM191.445 110.439C191.445 109.935 191.544 109.481 191.741 109.078C191.941 108.675 192.217 108.364 192.569 108.145C192.924 107.926 193.329 107.816 193.783 107.816C194.484 107.816 195.051 108.059 195.483 108.545C195.917 109.03 196.135 109.676 196.135 110.482V110.544C196.135 111.046 196.038 111.496 195.844 111.896C195.654 112.293 195.379 112.602 195.021 112.824C194.665 113.047 194.256 113.158 193.792 113.158C193.094 113.158 192.528 112.915 192.093 112.429C191.661 111.944 191.445 111.301 191.445 110.501V110.439ZM192.331 110.544C192.331 111.115 192.463 111.574 192.726 111.92C192.993 112.266 193.348 112.439 193.792 112.439C194.24 112.439 194.595 112.264 194.859 111.915C195.122 111.563 195.254 111.071 195.254 110.439C195.254 109.874 195.119 109.417 194.849 109.068C194.583 108.716 194.227 108.54 193.783 108.54C193.348 108.54 192.997 108.713 192.731 109.059C192.464 109.405 192.331 109.9 192.331 110.544ZM201.243 110.825H200.624V113.062H199.743V110.825H199.125L197.682 113.062H196.568L198.41 110.396L196.744 107.911H197.811L199.139 110.044H199.743V107.911H200.624V110.044H201.224L202.562 107.911H203.628L201.957 110.401L203.8 113.062H202.686L201.243 110.825ZM208.808 113.062H207.927V110.863H205.561V113.062H204.676V107.911H205.561V110.144H207.927V107.911H208.808V113.062ZM209.993 110.439C209.993 109.935 210.092 109.481 210.288 109.078C210.488 108.675 210.765 108.364 211.117 108.145C211.472 107.926 211.877 107.816 212.331 107.816C213.032 107.816 213.599 108.059 214.03 108.545C214.465 109.03 214.683 109.676 214.683 110.482V110.544C214.683 111.046 214.586 111.496 214.392 111.896C214.202 112.293 213.927 112.602 213.569 112.824C213.213 113.047 212.804 113.158 212.34 113.158C211.642 113.158 211.076 112.915 210.641 112.429C210.209 111.944 209.993 111.301 209.993 110.501V110.439ZM210.879 110.544C210.879 111.115 211.01 111.574 211.274 111.92C211.541 112.266 211.896 112.439 212.34 112.439C212.788 112.439 213.143 112.264 213.407 111.915C213.67 111.563 213.802 111.071 213.802 110.439C213.802 109.874 213.667 109.417 213.397 109.068C213.131 108.716 212.775 108.54 212.331 108.54C211.896 108.54 211.545 108.713 211.279 109.059C211.012 109.405 210.879 109.9 210.879 110.544ZM222.419 113.062H221.538V108.64H219.167V113.062H218.282V107.911H222.419V113.062ZM228.184 110.544C228.184 111.328 228.005 111.96 227.646 112.439C227.287 112.918 226.802 113.158 226.189 113.158C225.564 113.158 225.072 112.959 224.713 112.563V115.043H223.833V107.911H224.637L224.68 108.483C225.039 108.038 225.537 107.816 226.175 107.816C226.794 107.816 227.283 108.049 227.641 108.516C228.003 108.983 228.184 109.632 228.184 110.463V110.544ZM227.303 110.444C227.303 109.863 227.18 109.405 226.932 109.068C226.684 108.732 226.345 108.564 225.913 108.564C225.38 108.564 224.98 108.8 224.713 109.273V111.734C224.977 112.204 225.38 112.439 225.923 112.439C226.345 112.439 226.68 112.272 226.927 111.939C227.178 111.603 227.303 111.104 227.303 110.444ZM229.074 110.439C229.074 109.935 229.173 109.481 229.369 109.078C229.569 108.675 229.846 108.364 230.198 108.145C230.553 107.926 230.958 107.816 231.412 107.816C232.113 107.816 232.68 108.059 233.111 108.545C233.546 109.03 233.764 109.676 233.764 110.482V110.544C233.764 111.046 233.667 111.496 233.473 111.896C233.283 112.293 233.008 112.602 232.65 112.824C232.294 113.047 231.885 113.158 231.421 113.158C230.723 113.158 230.157 112.915 229.722 112.429C229.29 111.944 229.074 111.301 229.074 110.501V110.439ZM229.96 110.544C229.96 111.115 230.092 111.574 230.355 111.92C230.622 112.266 230.977 112.439 231.421 112.439C231.869 112.439 232.224 112.264 232.488 111.915C232.751 111.563 232.883 111.071 232.883 110.439C232.883 109.874 232.748 109.417 232.478 109.068C232.212 108.716 231.856 108.54 231.412 108.54C230.977 108.54 230.626 108.713 230.36 109.059C230.093 109.405 229.96 109.9 229.96 110.544ZM239.081 113.062H238.201V108.64H235.83V113.062H234.944V107.911H239.081V113.062ZM242.181 111.772L243.38 107.911H244.323L242.252 113.858C241.931 114.714 241.422 115.143 240.724 115.143L240.557 115.129L240.229 115.067V114.353L240.467 114.372C240.765 114.372 240.997 114.311 241.162 114.191C241.33 114.07 241.468 113.85 241.576 113.529L241.771 113.005L239.934 107.911H240.895L242.181 111.772ZM247.113 112.439C247.427 112.439 247.702 112.344 247.936 112.153C248.171 111.963 248.301 111.725 248.327 111.439H249.16C249.144 111.734 249.042 112.015 248.855 112.282C248.668 112.548 248.417 112.761 248.103 112.92C247.792 113.078 247.462 113.158 247.113 113.158C246.411 113.158 245.853 112.924 245.437 112.458C245.024 111.988 244.818 111.347 244.818 110.535V110.387C244.818 109.885 244.91 109.44 245.094 109.049C245.278 108.659 245.542 108.356 245.884 108.14C246.23 107.924 246.638 107.816 247.108 107.816C247.686 107.816 248.165 107.989 248.546 108.335C248.93 108.681 249.134 109.13 249.16 109.682H248.327C248.301 109.349 248.174 109.076 247.946 108.864C247.721 108.648 247.441 108.54 247.108 108.54C246.66 108.54 246.313 108.702 246.065 109.025C245.821 109.346 245.699 109.811 245.699 110.42V110.587C245.699 111.18 245.821 111.637 246.065 111.958C246.31 112.279 246.659 112.439 247.113 112.439ZM253.978 108.625H252.25V113.062H251.369V108.625H249.674V107.911H253.978V108.625ZM258.167 107.911H259.048V113.062H258.167V109.306L255.792 113.062H254.911V107.911H255.792V111.672L258.167 107.911ZM264.29 108.625H262.561V113.062H261.681V108.625H259.986V107.911H264.29V108.625ZM266.108 109.687H267.446C268.03 109.693 268.492 109.846 268.831 110.144C269.171 110.443 269.341 110.847 269.341 111.358C269.341 111.872 269.166 112.285 268.817 112.596C268.468 112.907 267.998 113.062 267.408 113.062H265.227V107.911H266.108V109.687ZM266.108 110.406V112.344H267.417C267.747 112.344 268.003 112.26 268.184 112.091C268.365 111.92 268.455 111.687 268.455 111.391C268.455 111.106 268.366 110.873 268.189 110.692C268.014 110.508 267.768 110.412 267.451 110.406H266.108Z" fill="#A5A5A5"/>
</svg>
