<svg width="300" height="530" viewBox="0 0 300 530" fill="none" xmlns="http://www.w3.org/2000/svg">
<rect x="0.5" y="0.5" width="299" height="529" rx="4.5" fill="#353535" stroke="#4F4F4F"/>
<rect x="20.8146" y="97.8146" width="12.3708" height="12.3708" rx="6.1854" stroke="#CEAC6A" stroke-width="1.62921"/>
<rect x="20.4073" y="134.407" width="259.185" height="47.1854" rx="1.22191" stroke="#A5A5A5" stroke-opacity="0.5" stroke-width="0.814605"/>
<path d="M62.4722 157.802H61.3486V161.953H60.1299V152.711H61.3486V156.786H62.3008L65.5317 152.711H67.0488L63.5195 157.192L67.3091 161.953H65.8174L62.4722 157.802ZM68.3501 161.953V155.085H71.0288C71.9429 155.085 72.6432 155.246 73.1299 155.567C73.6208 155.885 73.8662 156.352 73.8662 156.97C73.8662 157.288 73.771 157.575 73.5806 157.833C73.3901 158.087 73.1087 158.282 72.7363 158.417C73.151 158.515 73.4832 158.705 73.7329 158.989C73.9868 159.272 74.1138 159.611 74.1138 160.004C74.1138 160.635 73.881 161.117 73.4155 161.452C72.9543 161.786 72.3005 161.953 71.4541 161.953H68.3501ZM69.5244 158.938V161.007H71.4668C71.9577 161.007 72.3237 160.916 72.5649 160.734C72.8104 160.552 72.9331 160.296 72.9331 159.966C72.9331 159.281 72.4295 158.938 71.4224 158.938H69.5244ZM69.5244 157.999H71.0415C72.1418 157.999 72.6919 157.677 72.6919 157.034C72.6919 156.39 72.1714 156.058 71.1304 156.037H69.5244V157.999ZM79.9092 161.953C79.8415 161.818 79.7865 161.576 79.7441 161.229C79.1982 161.797 78.5465 162.08 77.7891 162.08C77.112 162.08 76.5555 161.89 76.1196 161.509C75.688 161.124 75.4722 160.637 75.4722 160.049C75.4722 159.334 75.743 158.779 76.2847 158.386C76.8306 157.988 77.5965 157.789 78.5825 157.789H79.7251V157.25C79.7251 156.839 79.6024 156.513 79.3569 156.272C79.1115 156.027 78.7497 155.904 78.2715 155.904C77.8525 155.904 77.5013 156.01 77.2178 156.221C76.9342 156.433 76.7925 156.689 76.7925 156.989H75.6118C75.6118 156.646 75.7324 156.316 75.9736 155.999C76.2191 155.677 76.5492 155.424 76.9639 155.237C77.3828 155.051 77.842 154.958 78.3413 154.958C79.1326 154.958 79.7526 155.157 80.2012 155.555C80.6497 155.948 80.8825 156.492 80.8994 157.186V160.347C80.8994 160.978 80.9798 161.479 81.1406 161.852V161.953H79.9092ZM77.9604 161.058C78.3286 161.058 78.6777 160.963 79.0078 160.772C79.3379 160.582 79.577 160.334 79.7251 160.03V158.621H78.8047C77.3659 158.621 76.6465 159.042 76.6465 159.884C76.6465 160.252 76.7692 160.54 77.0146 160.747C77.2601 160.954 77.5754 161.058 77.9604 161.058ZM88.542 158.595C88.542 159.64 88.3029 160.483 87.8247 161.122C87.3465 161.761 86.6991 162.08 85.8823 162.08C85.0487 162.08 84.3927 161.816 83.9146 161.287V164.594H82.7402V155.085H83.813L83.8701 155.847C84.3483 155.254 85.0127 154.958 85.8633 154.958C86.6885 154.958 87.3402 155.269 87.8184 155.891C88.3008 156.513 88.542 157.379 88.542 158.487V158.595ZM87.3677 158.462C87.3677 157.688 87.2026 157.076 86.8726 156.627C86.5425 156.179 86.0897 155.955 85.5142 155.955C84.8032 155.955 84.27 156.27 83.9146 156.9V160.182C84.2658 160.808 84.8032 161.122 85.5269 161.122C86.0897 161.122 86.5361 160.899 86.8662 160.455C87.2005 160.007 87.3677 159.342 87.3677 158.462ZM94.6357 156.037H92.3315V161.953H91.1572V156.037H88.8975V155.085H94.6357V156.037ZM100.222 155.085H101.396V161.953H100.222V156.945L97.0542 161.953H95.8799V155.085H97.0542V160.1L100.222 155.085ZM109.083 158.595C109.083 159.64 108.844 160.483 108.366 161.122C107.888 161.761 107.24 162.08 106.423 162.08C105.59 162.08 104.934 161.816 104.456 161.287V164.594H103.281V155.085H104.354L104.411 155.847C104.889 155.254 105.554 154.958 106.404 154.958C107.229 154.958 107.881 155.269 108.359 155.891C108.842 156.513 109.083 157.379 109.083 158.487V158.595ZM107.909 158.462C107.909 157.688 107.744 157.076 107.414 156.627C107.083 156.179 106.631 155.955 106.055 155.955C105.344 155.955 104.811 156.27 104.456 156.9V160.182C104.807 160.808 105.344 161.122 106.068 161.122C106.631 161.122 107.077 160.899 107.407 160.455C107.742 160.007 107.909 159.342 107.909 158.462ZM114.821 161.953C114.754 161.818 114.699 161.576 114.656 161.229C114.11 161.797 113.459 162.08 112.701 162.08C112.024 162.08 111.468 161.89 111.032 161.509C110.6 161.124 110.384 160.637 110.384 160.049C110.384 159.334 110.655 158.779 111.197 158.386C111.743 157.988 112.509 157.789 113.495 157.789H114.637V157.25C114.637 156.839 114.514 156.513 114.269 156.272C114.024 156.027 113.662 155.904 113.184 155.904C112.765 155.904 112.413 156.01 112.13 156.221C111.846 156.433 111.705 156.689 111.705 156.989H110.524C110.524 156.646 110.645 156.316 110.886 155.999C111.131 155.677 111.461 155.424 111.876 155.237C112.295 155.051 112.754 154.958 113.253 154.958C114.045 154.958 114.665 155.157 115.113 155.555C115.562 155.948 115.795 156.492 115.812 157.186V160.347C115.812 160.978 115.892 161.479 116.053 161.852V161.953H114.821ZM112.873 161.058C113.241 161.058 113.59 160.963 113.92 160.772C114.25 160.582 114.489 160.334 114.637 160.03V158.621H113.717C112.278 158.621 111.559 159.042 111.559 159.884C111.559 160.252 111.681 160.54 111.927 160.747C112.172 160.954 112.487 161.058 112.873 161.058ZM121.112 162.747H120.103L123.962 152.711H124.965L121.112 162.747ZM134.747 159.541H130.875L130.005 161.953H128.748L132.277 152.711H133.344L136.879 161.953H135.629L134.747 159.541ZM131.243 158.538H134.385L132.811 154.215L131.243 158.538ZM143.557 161.953H142.383V156.056H139.222V161.953H138.041V155.085H143.557V161.953ZM149.683 161.953C149.615 161.818 149.56 161.576 149.518 161.229C148.972 161.797 148.32 162.08 147.562 162.08C146.885 162.08 146.329 161.89 145.893 161.509C145.461 161.124 145.246 160.637 145.246 160.049C145.246 159.334 145.516 158.779 146.058 158.386C146.604 157.988 147.37 157.789 148.356 157.789H149.499V157.25C149.499 156.839 149.376 156.513 149.13 156.272C148.885 156.027 148.523 155.904 148.045 155.904C147.626 155.904 147.275 156.01 146.991 156.221C146.708 156.433 146.566 156.689 146.566 156.989H145.385C145.385 156.646 145.506 156.316 145.747 155.999C145.993 155.677 146.323 155.424 146.737 155.237C147.156 155.051 147.615 154.958 148.115 154.958C148.906 154.958 149.526 155.157 149.975 155.555C150.423 155.948 150.656 156.492 150.673 157.186V160.347C150.673 160.978 150.753 161.479 150.914 161.852V161.953H149.683ZM147.734 161.058C148.102 161.058 148.451 160.963 148.781 160.772C149.111 160.582 149.35 160.334 149.499 160.03V158.621H148.578C147.139 158.621 146.42 159.042 146.42 159.884C146.42 160.252 146.543 160.54 146.788 160.747C147.034 160.954 147.349 161.058 147.734 161.058ZM158.315 158.595C158.315 159.64 158.076 160.483 157.598 161.122C157.12 161.761 156.472 162.08 155.656 162.08C154.822 162.08 154.166 161.816 153.688 161.287V164.594H152.514V155.085H153.586L153.644 155.847C154.122 155.254 154.786 154.958 155.637 154.958C156.462 154.958 157.114 155.269 157.592 155.891C158.074 156.513 158.315 157.379 158.315 158.487V158.595ZM157.141 158.462C157.141 157.688 156.976 157.076 156.646 156.627C156.316 156.179 155.863 155.955 155.288 155.955C154.577 155.955 154.043 156.27 153.688 156.9V160.182C154.039 160.808 154.577 161.122 155.3 161.122C155.863 161.122 156.31 160.899 156.64 160.455C156.974 160.007 157.141 159.342 157.141 158.462ZM164.409 156.037H162.105V161.953H160.931V156.037H158.671V155.085H164.409V156.037ZM169.69 161.953C169.623 161.818 169.568 161.576 169.525 161.229C168.979 161.797 168.328 162.08 167.57 162.08C166.893 162.08 166.337 161.89 165.901 161.509C165.469 161.124 165.253 160.637 165.253 160.049C165.253 159.334 165.524 158.779 166.066 158.386C166.612 157.988 167.378 157.789 168.364 157.789H169.506V157.25C169.506 156.839 169.384 156.513 169.138 156.272C168.893 156.027 168.531 155.904 168.053 155.904C167.634 155.904 167.283 156.01 166.999 156.221C166.715 156.433 166.574 156.689 166.574 156.989H165.393C165.393 156.646 165.514 156.316 165.755 155.999C166 155.677 166.33 155.424 166.745 155.237C167.164 155.051 167.623 154.958 168.123 154.958C168.914 154.958 169.534 155.157 169.982 155.555C170.431 155.948 170.664 156.492 170.681 157.186V160.347C170.681 160.978 170.761 161.479 170.922 161.852V161.953H169.69ZM167.742 161.058C168.11 161.058 168.459 160.963 168.789 160.772C169.119 160.582 169.358 160.334 169.506 160.03V158.621H168.586C167.147 158.621 166.428 159.042 166.428 159.884C166.428 160.252 166.55 160.54 166.796 160.747C167.041 160.954 167.357 161.058 167.742 161.058ZM176.476 160.398L178.812 155.085H180.278V161.953H179.104V156.958L176.882 161.953H176.07L173.804 156.85V161.953H172.629V155.085H174.153L176.476 160.398ZM185.02 162.08C184.089 162.08 183.332 161.775 182.748 161.166C182.164 160.552 181.872 159.734 181.872 158.709V158.494C181.872 157.812 182.001 157.205 182.259 156.672C182.521 156.134 182.885 155.715 183.351 155.415C183.82 155.11 184.328 154.958 184.874 154.958C185.767 154.958 186.461 155.252 186.956 155.84C187.451 156.429 187.699 157.271 187.699 158.367V158.855H183.046C183.063 159.533 183.26 160.081 183.636 160.5C184.017 160.914 184.5 161.122 185.083 161.122C185.498 161.122 185.849 161.037 186.137 160.868C186.425 160.698 186.677 160.474 186.893 160.195L187.61 160.753C187.034 161.638 186.171 162.08 185.02 162.08ZM184.874 155.923C184.4 155.923 184.002 156.096 183.681 156.443C183.359 156.786 183.16 157.269 183.084 157.891H186.524V157.802C186.491 157.205 186.33 156.744 186.042 156.418C185.754 156.088 185.365 155.923 184.874 155.923ZM194.675 161.953H193.5V159.021H190.346V161.953H189.165V155.085H190.346V158.062H193.5V155.085H194.675V161.953ZM201.67 156.037H199.366V161.953H198.191V156.037H195.932V155.085H201.67V156.037ZM204.095 157.453H205.878C206.657 157.461 207.273 157.664 207.726 158.062C208.178 158.46 208.405 158.999 208.405 159.681C208.405 160.366 208.172 160.916 207.707 161.331C207.241 161.746 206.615 161.953 205.828 161.953H202.92V155.085H204.095V157.453ZM210.855 161.953H209.674V155.085H210.855V161.953ZM204.095 158.411V160.995H205.84C206.28 160.995 206.621 160.882 206.862 160.658C207.104 160.43 207.224 160.119 207.224 159.725C207.224 159.344 207.106 159.033 206.869 158.792C206.636 158.547 206.308 158.42 205.885 158.411H204.095Z" fill="#A5A5A5"/>
<path d="M45.0728 108V98.7578H48.0942C49.0972 98.7578 49.8504 98.9652 50.354 99.3799C50.8618 99.7946 51.1157 100.408 51.1157 101.221C51.1157 101.652 50.993 102.035 50.7476 102.37C50.5021 102.7 50.1678 102.956 49.7446 103.138C50.244 103.277 50.6375 103.544 50.9253 103.938C51.2173 104.327 51.3633 104.792 51.3633 105.334C51.3633 106.163 51.0946 106.815 50.5571 107.289C50.0197 107.763 49.2601 108 48.2783 108H45.0728ZM46.2915 103.677V107.003H48.3037C48.8708 107.003 49.3172 106.857 49.6431 106.565C49.9731 106.269 50.1382 105.863 50.1382 105.347C50.1382 104.234 49.533 103.677 48.3228 103.677H46.2915ZM46.2915 102.7H48.1323C48.6655 102.7 49.0908 102.566 49.4082 102.3C49.7298 102.033 49.8906 101.671 49.8906 101.214C49.8906 100.707 49.7425 100.338 49.4463 100.11C49.1501 99.8771 48.6994 99.7607 48.0942 99.7607H46.2915V102.7ZM55.7432 107.168C56.1621 107.168 56.5282 107.042 56.8413 106.788C57.1545 106.534 57.328 106.216 57.3618 105.835H58.4727C58.4515 106.229 58.3161 106.604 58.0664 106.959C57.8167 107.314 57.4824 107.598 57.0635 107.81C56.6488 108.021 56.2087 108.127 55.7432 108.127C54.8079 108.127 54.0632 107.816 53.5088 107.194C52.9587 106.568 52.6836 105.713 52.6836 104.629V104.433C52.6836 103.764 52.8063 103.169 53.0518 102.649C53.2972 102.128 53.6484 101.724 54.1055 101.437C54.5667 101.149 55.1105 101.005 55.7368 101.005C56.507 101.005 57.146 101.236 57.6538 101.697C58.1659 102.158 58.4388 102.757 58.4727 103.493H57.3618C57.328 103.049 57.1587 102.685 56.854 102.401C56.5535 102.114 56.1812 101.97 55.7368 101.97C55.1401 101.97 54.6768 102.186 54.3467 102.617C54.0208 103.045 53.8579 103.665 53.8579 104.477V104.699C53.8579 105.491 54.0208 106.1 54.3467 106.527C54.6725 106.955 55.138 107.168 55.7432 107.168ZM65.0425 101.132V108H63.8618V105.328H62.0908L60.4722 108H59.2026L60.9292 105.15C60.4891 104.989 60.1506 104.742 59.9136 104.407C59.6808 104.069 59.5645 103.675 59.5645 103.227C59.5645 102.6 59.7993 102.097 60.269 101.716C60.7388 101.331 61.3672 101.136 62.1543 101.132H65.0425ZM60.7451 103.239C60.7451 103.574 60.8594 103.844 61.0879 104.052C61.3164 104.255 61.619 104.359 61.9956 104.363H63.8618V102.084H62.1733C61.7375 102.084 61.3905 102.192 61.1323 102.408C60.8742 102.619 60.7451 102.896 60.7451 103.239Z" fill="#CEAC6A"/>
<rect x="87.8146" y="97.8146" width="12.3708" height="12.3708" rx="6.1854" stroke="#A5A5A5" stroke-opacity="0.5" stroke-width="1.62921"/>
<rect x="35.8146" y="151.768" width="12.3708" height="12.3708" rx="6.1854" stroke="#A5A5A5" stroke-opacity="0.5" stroke-width="1.62921"/>
<rect x="20.4073" y="250.407" width="259.185" height="47.1854" rx="1.22191" stroke="#A5A5A5" stroke-opacity="0.5" stroke-width="0.814605"/>
<path d="M64.8145 271.193C64.8145 270.702 64.6346 270.313 64.2749 270.025C63.9194 269.733 63.418 269.587 62.7705 269.587C62.2288 269.587 61.7739 269.737 61.4058 270.038C61.0418 270.334 60.8599 270.702 60.8599 271.142H59.6411C59.6411 270.651 59.7744 270.211 60.041 269.822C60.3118 269.432 60.6885 269.13 61.1709 268.914C61.6533 268.694 62.1865 268.584 62.7705 268.584C63.8031 268.584 64.605 268.817 65.1763 269.282C65.7476 269.743 66.0332 270.387 66.0332 271.212C66.0332 271.639 65.902 272.029 65.6396 272.38C65.3773 272.731 65.0112 273.008 64.5415 273.211C65.6291 273.575 66.1729 274.297 66.1729 275.376C66.1729 276.205 65.8639 276.863 65.2461 277.35C64.6283 277.837 63.8031 278.08 62.7705 278.08C62.1569 278.08 61.5983 277.972 61.0947 277.756C60.5954 277.536 60.2061 277.225 59.9268 276.823C59.6475 276.421 59.5078 275.943 59.5078 275.389H60.7266C60.7266 275.875 60.9191 276.282 61.3042 276.607C61.6893 276.929 62.1781 277.09 62.7705 277.09C63.4349 277.09 63.9639 276.935 64.3574 276.626C64.7552 276.318 64.9541 275.909 64.9541 275.401C64.9541 274.318 64.2834 273.766 62.9419 273.745H61.7993V272.742H62.9355C63.5534 272.729 64.021 272.589 64.3384 272.323C64.6558 272.056 64.8145 271.68 64.8145 271.193ZM70.4575 278.08C69.5265 278.08 68.769 277.775 68.1851 277.166C67.6011 276.552 67.3091 275.734 67.3091 274.709V274.494C67.3091 273.812 67.4382 273.205 67.6963 272.672C67.9587 272.134 68.3226 271.715 68.7881 271.415C69.2578 271.11 69.7656 270.958 70.3115 270.958C71.2044 270.958 71.8984 271.252 72.3936 271.84C72.8887 272.429 73.1362 273.271 73.1362 274.367V274.855H68.4834C68.5003 275.533 68.6971 276.081 69.0737 276.5C69.4546 276.914 69.937 277.122 70.521 277.122C70.9357 277.122 71.2869 277.037 71.5747 276.868C71.8625 276.698 72.1143 276.474 72.3301 276.195L73.0474 276.753C72.4718 277.638 71.6086 278.08 70.4575 278.08ZM70.3115 271.923C69.8376 271.923 69.4398 272.096 69.1182 272.443C68.7965 272.786 68.5977 273.269 68.5215 273.891H71.9619V273.802C71.9281 273.205 71.7673 272.744 71.4795 272.418C71.1917 272.088 70.8024 271.923 70.3115 271.923ZM78.4556 276.398L80.7915 271.085H82.2578V277.953H81.0835V272.958L78.8618 277.953H78.0493L75.7832 272.85V277.953H74.6089V271.085H76.1323L78.4556 276.398ZM86.9995 278.08C86.0685 278.08 85.311 277.775 84.7271 277.166C84.1431 276.552 83.8511 275.734 83.8511 274.709V274.494C83.8511 273.812 83.9801 273.205 84.2383 272.672C84.5007 272.134 84.8646 271.715 85.3301 271.415C85.7998 271.11 86.3076 270.958 86.8535 270.958C87.7464 270.958 88.4404 271.252 88.9355 271.84C89.4307 272.429 89.6782 273.271 89.6782 274.367V274.855H85.0254C85.0423 275.533 85.2391 276.081 85.6157 276.5C85.9966 276.914 86.479 277.122 87.063 277.122C87.4777 277.122 87.8289 277.037 88.1167 276.868C88.4045 276.698 88.6562 276.474 88.8721 276.195L89.5894 276.753C89.0138 277.638 88.1506 278.08 86.9995 278.08ZM86.8535 271.923C86.3796 271.923 85.9818 272.096 85.6602 272.443C85.3385 272.786 85.1396 273.269 85.0635 273.891H88.5039V273.802C88.4701 273.205 88.3092 272.744 88.0215 272.418C87.7337 272.088 87.3444 271.923 86.8535 271.923ZM96.6733 271.085V277.953H95.4927V272.056H93.1567L93.0171 274.627C92.9409 275.808 92.742 276.652 92.4204 277.16C92.103 277.667 91.5973 277.932 90.9033 277.953H90.4336V276.918L90.77 276.893C91.1509 276.851 91.4238 276.631 91.5889 276.233C91.7539 275.835 91.8597 275.099 91.9062 274.024L92.0332 271.085H96.6733ZM99.8408 273.453H101.625C102.403 273.461 103.019 273.664 103.472 274.062C103.924 274.46 104.151 274.999 104.151 275.681C104.151 276.366 103.918 276.916 103.453 277.331C102.987 277.746 102.361 277.953 101.574 277.953H98.6665V271.085H99.8408V273.453ZM99.8408 274.411V276.995H101.586C102.027 276.995 102.367 276.882 102.608 276.658C102.85 276.43 102.97 276.119 102.97 275.725C102.97 275.344 102.852 275.033 102.615 274.792C102.382 274.547 102.054 274.42 101.631 274.411H99.8408ZM111.229 277.953H110.054V275.021H106.899V277.953H105.719V271.085H106.899V274.062H110.054V271.085H111.229V277.953ZM114.402 273.453H116.186C116.965 273.461 117.58 273.664 118.033 274.062C118.486 274.46 118.712 274.999 118.712 275.681C118.712 276.366 118.48 276.916 118.014 277.331C117.549 277.746 116.922 277.953 116.135 277.953H113.228V271.085H114.402V273.453ZM121.163 277.953H119.982V271.085H121.163V277.953ZM114.402 274.411V276.995H116.148C116.588 276.995 116.929 276.882 117.17 276.658C117.411 276.43 117.532 276.119 117.532 275.725C117.532 275.344 117.413 275.033 117.176 274.792C116.944 274.547 116.616 274.42 116.192 274.411H114.402ZM127.656 271.085H128.831V277.953H127.656V272.945L124.489 277.953H123.314V271.085H124.489V276.1L127.656 271.085ZM127.974 268.584C127.974 269.096 127.798 269.509 127.447 269.822C127.1 270.131 126.643 270.285 126.076 270.285C125.509 270.285 125.049 270.129 124.698 269.815C124.347 269.502 124.171 269.092 124.171 268.584H125.13C125.13 268.88 125.21 269.113 125.371 269.282C125.532 269.447 125.767 269.53 126.076 269.53C126.372 269.53 126.603 269.447 126.768 269.282C126.937 269.117 127.021 268.884 127.021 268.584H127.974ZM136.188 276.233L137.787 271.085H139.044L136.283 279.013C135.855 280.156 135.176 280.727 134.245 280.727L134.023 280.708L133.585 280.625V279.673L133.902 279.699C134.3 279.699 134.609 279.618 134.829 279.458C135.053 279.297 135.237 279.003 135.381 278.575L135.642 277.877L133.191 271.085H134.474L136.188 276.233ZM145.284 277.953H144.103V275.465C143.587 275.6 143.058 275.668 142.516 275.668C141.657 275.668 141.001 275.448 140.548 275.008C140.1 274.568 139.871 273.941 139.863 273.129V271.079H141.037V273.167C141.058 274.191 141.551 274.703 142.516 274.703C143.058 274.703 143.587 274.635 144.103 274.5V271.085H145.284V277.953ZM151.409 277.953C151.341 277.818 151.286 277.576 151.244 277.229C150.698 277.797 150.047 278.08 149.289 278.08C148.612 278.08 148.056 277.89 147.62 277.509C147.188 277.124 146.972 276.637 146.972 276.049C146.972 275.334 147.243 274.779 147.785 274.386C148.331 273.988 149.097 273.789 150.083 273.789H151.225V273.25C151.225 272.839 151.102 272.513 150.857 272.272C150.611 272.027 150.25 271.904 149.771 271.904C149.353 271.904 149.001 272.01 148.718 272.221C148.434 272.433 148.292 272.689 148.292 272.989H147.112C147.112 272.646 147.232 272.316 147.474 271.999C147.719 271.677 148.049 271.424 148.464 271.237C148.883 271.051 149.342 270.958 149.841 270.958C150.633 270.958 151.253 271.157 151.701 271.555C152.15 271.948 152.382 272.492 152.399 273.186V276.347C152.399 276.978 152.48 277.479 152.641 277.852V277.953H151.409ZM149.46 277.058C149.829 277.058 150.178 276.963 150.508 276.772C150.838 276.582 151.077 276.334 151.225 276.03V274.621H150.305C148.866 274.621 148.146 275.042 148.146 275.884C148.146 276.252 148.269 276.54 148.515 276.747C148.76 276.954 149.075 277.058 149.46 277.058ZM156.995 277.122C157.414 277.122 157.78 276.995 158.093 276.741C158.406 276.487 158.58 276.169 158.614 275.789H159.725C159.703 276.182 159.568 276.557 159.318 276.912C159.069 277.268 158.734 277.551 158.315 277.763C157.901 277.974 157.461 278.08 156.995 278.08C156.06 278.08 155.315 277.769 154.761 277.147C154.211 276.521 153.936 275.666 153.936 274.583V274.386C153.936 273.717 154.058 273.123 154.304 272.602C154.549 272.082 154.9 271.677 155.357 271.39C155.819 271.102 156.362 270.958 156.989 270.958C157.759 270.958 158.398 271.189 158.906 271.65C159.418 272.111 159.691 272.71 159.725 273.446H158.614C158.58 273.002 158.411 272.638 158.106 272.354C157.806 272.067 157.433 271.923 156.989 271.923C156.392 271.923 155.929 272.139 155.599 272.57C155.273 272.998 155.11 273.618 155.11 274.43V274.652C155.11 275.444 155.273 276.053 155.599 276.48C155.924 276.908 156.39 277.122 156.995 277.122ZM166.148 272.037H163.844V277.953H162.67V272.037H160.41V271.085H166.148V272.037ZM166.713 274.456C166.713 273.783 166.845 273.178 167.107 272.64C167.374 272.103 167.742 271.688 168.211 271.396C168.685 271.104 169.225 270.958 169.83 270.958C170.765 270.958 171.521 271.282 172.096 271.929C172.676 272.577 172.966 273.438 172.966 274.513V274.595C172.966 275.264 172.837 275.865 172.579 276.398C172.325 276.927 171.959 277.34 171.48 277.636C171.007 277.932 170.461 278.08 169.843 278.08C168.912 278.08 168.156 277.756 167.577 277.109C167.001 276.461 166.713 275.604 166.713 274.538V274.456ZM167.894 274.595C167.894 275.357 168.07 275.968 168.421 276.43C168.776 276.891 169.25 277.122 169.843 277.122C170.439 277.122 170.913 276.889 171.265 276.423C171.616 275.954 171.792 275.298 171.792 274.456C171.792 273.702 171.612 273.093 171.252 272.627C170.896 272.158 170.423 271.923 169.83 271.923C169.25 271.923 168.783 272.153 168.427 272.615C168.072 273.076 167.894 273.736 167.894 274.595ZM176.578 275.027H175.721V277.953H174.54V271.085H175.721V273.992H176.489L178.799 271.085H180.221L177.504 274.386L180.45 277.953H178.958L176.578 275.027Z" fill="#A5A5A5"/>
<rect x="35.8146" y="267.768" width="12.3708" height="12.3708" rx="6.1854" stroke="#A5A5A5" stroke-opacity="0.5" stroke-width="1.62921"/>
<rect x="20.4073" y="308.407" width="259.185" height="47.1854" rx="1.22191" stroke="#A5A5A5" stroke-opacity="0.5" stroke-width="0.814605"/>
<path d="M62.4722 331.802H61.3486V335.953H60.1299V326.711H61.3486V330.786H62.3008L65.5317 326.711H67.0488L63.5195 331.192L67.3091 335.953H65.8174L62.4722 331.802ZM67.7534 332.456C67.7534 331.783 67.8846 331.178 68.147 330.64C68.4136 330.103 68.7817 329.688 69.2515 329.396C69.7254 329.104 70.265 328.958 70.8701 328.958C71.8053 328.958 72.5607 329.282 73.1362 329.929C73.716 330.577 74.0059 331.438 74.0059 332.513V332.595C74.0059 333.264 73.8768 333.865 73.6187 334.398C73.3647 334.927 72.9987 335.34 72.5205 335.636C72.0465 335.932 71.5007 336.08 70.8828 336.08C69.9518 336.08 69.1965 335.756 68.6167 335.109C68.0412 334.461 67.7534 333.604 67.7534 332.538V332.456ZM68.9341 332.595C68.9341 333.357 69.1097 333.968 69.4609 334.43C69.8164 334.891 70.2904 335.122 70.8828 335.122C71.4795 335.122 71.9535 334.889 72.3047 334.423C72.6559 333.954 72.8315 333.298 72.8315 332.456C72.8315 331.702 72.6517 331.093 72.292 330.627C71.9365 330.158 71.4626 329.923 70.8701 329.923C70.2904 329.923 69.8228 330.153 69.4673 330.615C69.1118 331.076 68.9341 331.736 68.9341 332.595ZM79.4331 334.398L81.769 329.085H83.2354V335.953H82.061V330.958L79.8394 335.953H79.0269L76.7607 330.85V335.953H75.5864V329.085H77.1099L79.4331 334.398ZM89.0815 334.398L91.4175 329.085H92.8838V335.953H91.7095V330.958L89.4878 335.953H88.6753L86.4092 330.85V335.953H85.2349V329.085H86.7583L89.0815 334.398ZM97.6255 336.08C96.6945 336.08 95.937 335.775 95.353 335.166C94.769 334.552 94.4771 333.734 94.4771 332.709V332.494C94.4771 331.812 94.6061 331.205 94.8643 330.672C95.1266 330.134 95.4906 329.715 95.9561 329.415C96.4258 329.11 96.9336 328.958 97.4795 328.958C98.3724 328.958 99.0664 329.252 99.5615 329.84C100.057 330.429 100.304 331.271 100.304 332.367V332.855H95.6514C95.6683 333.533 95.8651 334.081 96.2417 334.5C96.6226 334.914 97.105 335.122 97.689 335.122C98.1037 335.122 98.4549 335.037 98.7427 334.868C99.0304 334.698 99.2822 334.474 99.498 334.195L100.215 334.753C99.6398 335.638 98.7765 336.08 97.6255 336.08ZM97.4795 329.923C97.0055 329.923 96.6077 330.096 96.2861 330.443C95.9645 330.786 95.7656 331.269 95.6895 331.891H99.1299V331.802C99.096 331.205 98.9352 330.744 98.6475 330.418C98.3597 330.088 97.9704 329.923 97.4795 329.923ZM107.471 332.595C107.471 333.64 107.232 334.483 106.753 335.122C106.275 335.761 105.628 336.08 104.811 336.08C103.977 336.08 103.321 335.816 102.843 335.287V338.594H101.669V329.085H102.742L102.799 329.847C103.277 329.254 103.941 328.958 104.792 328.958C105.617 328.958 106.269 329.269 106.747 329.891C107.229 330.513 107.471 331.379 107.471 332.487V332.595ZM106.296 332.462C106.296 331.688 106.131 331.076 105.801 330.627C105.471 330.179 105.018 329.955 104.443 329.955C103.732 329.955 103.199 330.27 102.843 330.9V334.182C103.194 334.808 103.732 335.122 104.456 335.122C105.018 335.122 105.465 334.899 105.795 334.455C106.129 334.007 106.296 333.342 106.296 332.462ZM114.155 335.953H112.974V333.465C112.458 333.6 111.929 333.668 111.387 333.668C110.528 333.668 109.872 333.448 109.419 333.008C108.971 332.568 108.742 331.941 108.734 331.129V329.079H109.908V331.167C109.929 332.191 110.422 332.703 111.387 332.703C111.929 332.703 112.458 332.635 112.974 332.5V329.085H114.155V335.953ZM118.89 336.08C117.959 336.08 117.202 335.775 116.618 335.166C116.034 334.552 115.742 333.734 115.742 332.709V332.494C115.742 331.812 115.871 331.205 116.129 330.672C116.391 330.134 116.755 329.715 117.221 329.415C117.69 329.11 118.198 328.958 118.744 328.958C119.637 328.958 120.331 329.252 120.826 329.84C121.321 330.429 121.569 331.271 121.569 332.367V332.855H116.916C116.933 333.533 117.13 334.081 117.506 334.5C117.887 334.914 118.37 335.122 118.954 335.122C119.368 335.122 119.72 335.037 120.007 334.868C120.295 334.698 120.547 334.474 120.763 334.195L121.48 334.753C120.904 335.638 120.041 336.08 118.89 336.08ZM118.744 329.923C118.27 329.923 117.872 330.096 117.551 330.443C117.229 330.786 117.03 331.269 116.954 331.891H120.395V331.802C120.361 331.205 120.2 330.744 119.912 330.418C119.624 330.088 119.235 329.923 118.744 329.923ZM125.688 335.122C126.107 335.122 126.473 334.995 126.787 334.741C127.1 334.487 127.273 334.169 127.307 333.789H128.418C128.397 334.182 128.261 334.557 128.012 334.912C127.762 335.268 127.428 335.551 127.009 335.763C126.594 335.974 126.154 336.08 125.688 336.08C124.753 336.08 124.008 335.769 123.454 335.147C122.904 334.521 122.629 333.666 122.629 332.583V332.386C122.629 331.717 122.752 331.123 122.997 330.602C123.243 330.082 123.594 329.677 124.051 329.39C124.512 329.102 125.056 328.958 125.682 328.958C126.452 328.958 127.091 329.189 127.599 329.65C128.111 330.111 128.384 330.71 128.418 331.446H127.307C127.273 331.002 127.104 330.638 126.799 330.354C126.499 330.067 126.126 329.923 125.682 329.923C125.085 329.923 124.622 330.139 124.292 330.57C123.966 330.998 123.803 331.618 123.803 332.43V332.652C123.803 333.444 123.966 334.053 124.292 334.48C124.618 334.908 125.083 335.122 125.688 335.122ZM131.877 333.027H131.021V335.953H129.84V329.085H131.021V331.992H131.789L134.099 329.085H135.521L132.804 332.386L135.75 335.953H134.258L131.877 333.027ZM140.999 335.953C140.931 335.818 140.876 335.576 140.834 335.229C140.288 335.797 139.636 336.08 138.879 336.08C138.202 336.08 137.645 335.89 137.209 335.509C136.778 335.124 136.562 334.637 136.562 334.049C136.562 333.334 136.833 332.779 137.375 332.386C137.92 331.988 138.686 331.789 139.672 331.789H140.815V331.25C140.815 330.839 140.692 330.513 140.447 330.272C140.201 330.027 139.84 329.904 139.361 329.904C138.942 329.904 138.591 330.01 138.308 330.221C138.024 330.433 137.882 330.689 137.882 330.989H136.702C136.702 330.646 136.822 330.316 137.063 329.999C137.309 329.677 137.639 329.424 138.054 329.237C138.473 329.051 138.932 328.958 139.431 328.958C140.222 328.958 140.842 329.157 141.291 329.555C141.74 329.948 141.972 330.492 141.989 331.186V334.347C141.989 334.978 142.07 335.479 142.23 335.852V335.953H140.999ZM139.05 335.058C139.418 335.058 139.768 334.963 140.098 334.772C140.428 334.582 140.667 334.334 140.815 334.03V332.621H139.895C138.456 332.621 137.736 333.042 137.736 333.884C137.736 334.252 137.859 334.54 138.104 334.747C138.35 334.954 138.665 335.058 139.05 335.058ZM149.08 329.085V335.953H147.899V333.281H146.128L144.509 335.953H143.24L144.966 333.103C144.526 332.942 144.188 332.695 143.951 332.36C143.718 332.022 143.602 331.628 143.602 331.18C143.602 330.553 143.836 330.05 144.306 329.669C144.776 329.284 145.404 329.089 146.191 329.085H149.08ZM144.782 331.192C144.782 331.527 144.896 331.798 145.125 332.005C145.354 332.208 145.656 332.312 146.033 332.316H147.899V330.037H146.21C145.775 330.037 145.428 330.145 145.169 330.361C144.911 330.572 144.782 330.85 144.782 331.192Z" fill="#A5A5A5"/>
<rect x="35.8146" y="325.768" width="12.3708" height="12.3708" rx="6.1854" stroke="#A5A5A5" stroke-opacity="0.5" stroke-width="1.62921"/>
<path d="M119.176 108H117.951V103.728H113.292V108H112.073V98.7578H113.292V102.731H117.951V98.7578H119.176V108ZM120.845 104.502C120.845 103.83 120.976 103.224 121.239 102.687C121.505 102.15 121.874 101.735 122.343 101.443C122.817 101.151 123.357 101.005 123.962 101.005C124.897 101.005 125.653 101.329 126.228 101.976C126.808 102.624 127.098 103.485 127.098 104.56V104.642C127.098 105.311 126.969 105.912 126.71 106.445C126.457 106.974 126.09 107.386 125.612 107.683C125.138 107.979 124.592 108.127 123.975 108.127C123.044 108.127 122.288 107.803 121.708 107.156C121.133 106.508 120.845 105.651 120.845 104.585V104.502ZM122.026 104.642C122.026 105.404 122.201 106.015 122.553 106.477C122.908 106.938 123.382 107.168 123.975 107.168C124.571 107.168 125.045 106.936 125.396 106.47C125.748 106 125.923 105.345 125.923 104.502C125.923 103.749 125.743 103.14 125.384 102.674C125.028 102.205 124.554 101.97 123.962 101.97C123.382 101.97 122.915 102.2 122.559 102.662C122.204 103.123 122.026 103.783 122.026 104.642ZM128.678 108V101.132H131.357C132.271 101.132 132.971 101.293 133.458 101.614C133.949 101.932 134.194 102.399 134.194 103.017C134.194 103.334 134.099 103.622 133.909 103.88C133.718 104.134 133.437 104.329 133.064 104.464C133.479 104.562 133.811 104.752 134.061 105.036C134.315 105.319 134.442 105.658 134.442 106.051C134.442 106.682 134.209 107.164 133.744 107.499C133.282 107.833 132.629 108 131.782 108H128.678ZM129.853 104.985V107.054H131.795C132.286 107.054 132.652 106.963 132.893 106.781C133.139 106.599 133.261 106.343 133.261 106.013C133.261 105.328 132.758 104.985 131.75 104.985H129.853ZM129.853 104.045H131.37C132.47 104.045 133.02 103.724 133.02 103.081C133.02 102.437 132.5 102.105 131.458 102.084H129.853V104.045ZM140.237 108C140.17 107.865 140.115 107.623 140.072 107.276C139.526 107.843 138.875 108.127 138.117 108.127C137.44 108.127 136.884 107.937 136.448 107.556C136.016 107.171 135.8 106.684 135.8 106.096C135.8 105.381 136.071 104.826 136.613 104.433C137.159 104.035 137.925 103.836 138.911 103.836H140.053V103.296C140.053 102.886 139.931 102.56 139.685 102.319C139.44 102.073 139.078 101.951 138.6 101.951C138.181 101.951 137.829 102.056 137.546 102.268C137.262 102.48 137.121 102.736 137.121 103.036H135.94C135.94 102.693 136.061 102.363 136.302 102.046C136.547 101.724 136.877 101.47 137.292 101.284C137.711 101.098 138.17 101.005 138.669 101.005C139.461 101.005 140.081 101.204 140.529 101.602C140.978 101.995 141.211 102.539 141.228 103.233V106.394C141.228 107.025 141.308 107.526 141.469 107.898V108H140.237ZM138.289 107.105C138.657 107.105 139.006 107.01 139.336 106.819C139.666 106.629 139.905 106.381 140.053 106.077V104.667H139.133C137.694 104.667 136.975 105.089 136.975 105.931C136.975 106.299 137.097 106.587 137.343 106.794C137.588 107.001 137.903 107.105 138.289 107.105ZM148.318 101.132V108H147.137V105.328H145.366L143.748 108H142.478L144.205 105.15C143.764 104.989 143.426 104.742 143.189 104.407C142.956 104.069 142.84 103.675 142.84 103.227C142.84 102.6 143.075 102.097 143.544 101.716C144.014 101.331 144.643 101.136 145.43 101.132H148.318ZM144.021 103.239C144.021 103.574 144.135 103.844 144.363 104.052C144.592 104.255 144.894 104.359 145.271 104.363H147.137V102.084H145.449C145.013 102.084 144.666 102.192 144.408 102.408C144.15 102.619 144.021 102.896 144.021 103.239Z" fill="#A5A5A5"/>
<rect x="170.815" y="97.8146" width="12.3708" height="12.3708" rx="6.1854" stroke="#A5A5A5" stroke-opacity="0.5" stroke-width="1.62921"/>
<path d="M195.073 108V98.7578H198.094C199.097 98.7578 199.85 98.9652 200.354 99.3799C200.862 99.7946 201.116 100.408 201.116 101.221C201.116 101.652 200.993 102.035 200.748 102.37C200.502 102.7 200.168 102.956 199.745 103.138C200.244 103.277 200.638 103.544 200.925 103.938C201.217 104.327 201.363 104.792 201.363 105.334C201.363 106.163 201.095 106.815 200.557 107.289C200.02 107.763 199.26 108 198.278 108H195.073ZM196.292 103.677V107.003H198.304C198.871 107.003 199.317 106.857 199.643 106.565C199.973 106.269 200.138 105.863 200.138 105.347C200.138 104.234 199.533 103.677 198.323 103.677H196.292ZM196.292 102.7H198.132C198.666 102.7 199.091 102.566 199.408 102.3C199.73 102.033 199.891 101.671 199.891 101.214C199.891 100.707 199.743 100.338 199.446 100.11C199.15 99.8771 198.699 99.7607 198.094 99.7607H196.292V102.7ZM208.092 102.084H205.788V108H204.613V102.084H202.354V101.132H208.092V102.084ZM208.657 104.502C208.657 103.83 208.788 103.224 209.05 102.687C209.317 102.15 209.685 101.735 210.155 101.443C210.629 101.151 211.168 101.005 211.773 101.005C212.709 101.005 213.464 101.329 214.04 101.976C214.619 102.624 214.909 103.485 214.909 104.56V104.642C214.909 105.311 214.78 105.912 214.522 106.445C214.268 106.974 213.902 107.386 213.424 107.683C212.95 107.979 212.404 108.127 211.786 108.127C210.855 108.127 210.1 107.803 209.52 107.156C208.944 106.508 208.657 105.651 208.657 104.585V104.502ZM209.837 104.642C209.837 105.404 210.013 106.015 210.364 106.477C210.72 106.938 211.194 107.168 211.786 107.168C212.383 107.168 212.857 106.936 213.208 106.47C213.559 106 213.735 105.345 213.735 104.502C213.735 103.749 213.555 103.14 213.195 102.674C212.84 102.205 212.366 101.97 211.773 101.97C211.194 101.97 210.726 102.2 210.371 102.662C210.015 103.123 209.837 103.783 209.837 104.642ZM222.184 104.642C222.184 105.687 221.944 106.529 221.466 107.168C220.988 107.807 220.341 108.127 219.524 108.127C218.69 108.127 218.034 107.862 217.556 107.333V110.641H216.382V101.132H217.455L217.512 101.894C217.99 101.301 218.654 101.005 219.505 101.005C220.33 101.005 220.982 101.316 221.46 101.938C221.942 102.56 222.184 103.425 222.184 104.534V104.642ZM221.009 104.509C221.009 103.734 220.844 103.123 220.514 102.674C220.184 102.226 219.731 102.001 219.156 102.001C218.445 102.001 217.912 102.317 217.556 102.947V106.229C217.907 106.855 218.445 107.168 219.168 107.168C219.731 107.168 220.178 106.946 220.508 106.502C220.842 106.053 221.009 105.389 221.009 104.509ZM228.125 101.132H229.299V108H228.125V102.992L224.958 108H223.783V101.132H224.958V106.146L228.125 101.132ZM236.371 108H235.19V105.512C234.674 105.647 234.145 105.715 233.603 105.715C232.744 105.715 232.088 105.495 231.635 105.055C231.187 104.615 230.958 103.988 230.95 103.176V101.125H232.124V103.214C232.145 104.238 232.638 104.75 233.603 104.75C234.145 104.75 234.674 104.682 235.19 104.547V101.132H236.371V108ZM243.867 108H242.693V105.067H239.538V108H238.357V101.132H239.538V104.109H242.693V101.132H243.867V108ZM249.999 108C249.931 107.865 249.876 107.623 249.834 107.276C249.288 107.843 248.636 108.127 247.879 108.127C247.202 108.127 246.645 107.937 246.209 107.556C245.778 107.171 245.562 106.684 245.562 106.096C245.562 105.381 245.833 104.826 246.375 104.433C246.92 104.035 247.686 103.836 248.672 103.836H249.815V103.296C249.815 102.886 249.692 102.56 249.447 102.319C249.201 102.073 248.84 101.951 248.361 101.951C247.942 101.951 247.591 102.056 247.308 102.268C247.024 102.48 246.882 102.736 246.882 103.036H245.702C245.702 102.693 245.822 102.363 246.063 102.046C246.309 101.724 246.639 101.47 247.054 101.284C247.473 101.098 247.932 101.005 248.431 101.005C249.222 101.005 249.842 101.204 250.291 101.602C250.74 101.995 250.972 102.539 250.989 103.233V106.394C250.989 107.025 251.07 107.526 251.23 107.898V108H249.999ZM248.05 107.105C248.418 107.105 248.768 107.01 249.098 106.819C249.428 106.629 249.667 106.381 249.815 106.077V104.667H248.895C247.456 104.667 246.736 105.089 246.736 105.931C246.736 106.299 246.859 106.587 247.104 106.794C247.35 107.001 247.665 107.105 248.05 107.105ZM258.08 101.132V108H256.899V105.328H255.128L253.509 108H252.24L253.966 105.15C253.526 104.989 253.188 104.742 252.951 104.407C252.718 104.069 252.602 103.675 252.602 103.227C252.602 102.6 252.836 102.097 253.306 101.716C253.776 101.331 254.404 101.136 255.191 101.132H258.08ZM253.782 103.239C253.782 103.574 253.896 103.844 254.125 104.052C254.354 104.255 254.656 104.359 255.033 104.363H256.899V102.084H255.21C254.775 102.084 254.428 102.192 254.169 102.408C253.911 102.619 253.782 102.896 253.782 103.239Z" fill="#A5A5A5"/>
<rect x="20.8146" y="192.815" width="258.371" height="46.3708" rx="0.814605" stroke="#CEAC6A" stroke-width="1.62921"/>
<path d="M68.3882 222.266H67.1758V220H60.5425V222.272H59.3237L59.3174 219.003H60.0728C60.4705 218.555 60.7858 217.954 61.0186 217.201C61.2555 216.443 61.4036 215.614 61.4629 214.712L61.666 210.758H67.1948V219.003H68.4009L68.3882 222.266ZM61.4629 219.003H65.9697V211.761H62.8403L62.707 214.478C62.652 215.54 62.5103 216.445 62.2817 217.194C62.0575 217.943 61.7845 218.546 61.4629 219.003ZM69.353 216.502C69.353 215.83 69.4842 215.224 69.7466 214.687C70.0132 214.15 70.3813 213.735 70.8511 213.443C71.325 213.151 71.8646 213.005 72.4697 213.005C73.4049 213.005 74.1603 213.329 74.7358 213.976C75.3156 214.624 75.6055 215.485 75.6055 216.56V216.642C75.6055 217.311 75.4764 217.912 75.2183 218.445C74.9644 218.974 74.5983 219.386 74.1201 219.683C73.6462 219.979 73.1003 220.127 72.4824 220.127C71.5514 220.127 70.7961 219.803 70.2163 219.156C69.6408 218.508 69.353 217.651 69.353 216.585V216.502ZM70.5337 216.642C70.5337 217.404 70.7093 218.015 71.0605 218.477C71.416 218.938 71.89 219.168 72.4824 219.168C73.0791 219.168 73.5531 218.936 73.9043 218.47C74.2555 218 74.4312 217.345 74.4312 216.502C74.4312 215.749 74.2513 215.14 73.8916 214.674C73.5361 214.205 73.0622 213.97 72.4697 213.97C71.89 213.97 71.4224 214.2 71.0669 214.662C70.7114 215.123 70.5337 215.783 70.5337 216.642ZM81.0327 218.445L83.3687 213.132H84.835V220H83.6606V215.004L81.439 220H80.6265L78.3604 214.896V220H77.186V213.132H78.7095L81.0327 218.445ZM90.186 220.793H89.1768L93.0361 210.758H94.0391L90.186 220.793ZM98.7173 220V210.758H101.739C102.742 210.758 103.495 210.965 103.999 211.38C104.506 211.795 104.76 212.408 104.76 213.221C104.76 213.652 104.638 214.035 104.392 214.37C104.147 214.7 103.812 214.956 103.389 215.138C103.889 215.277 104.282 215.544 104.57 215.938C104.862 216.327 105.008 216.792 105.008 217.334C105.008 218.163 104.739 218.815 104.202 219.289C103.664 219.763 102.905 220 101.923 220H98.7173ZM99.936 215.677V219.003H101.948C102.515 219.003 102.962 218.857 103.288 218.565C103.618 218.269 103.783 217.863 103.783 217.347C103.783 216.234 103.178 215.677 101.967 215.677H99.936ZM99.936 214.7H101.777C102.31 214.7 102.735 214.566 103.053 214.3C103.374 214.033 103.535 213.671 103.535 213.214C103.535 212.707 103.387 212.338 103.091 212.11C102.795 211.877 102.344 211.761 101.739 211.761H99.936V214.7ZM111.076 213.132H112.25V220H111.076V214.992L107.909 220H106.734V213.132H107.909V218.146L111.076 213.132ZM119.766 213.132V220H118.585V214.103H116.25L116.11 216.674C116.034 217.854 115.835 218.699 115.513 219.207C115.196 219.714 114.69 219.979 113.996 220H113.526V218.965L113.863 218.94C114.244 218.898 114.517 218.678 114.682 218.28C114.847 217.882 114.952 217.146 114.999 216.071L115.126 213.132H119.766ZM127.282 213.132V220H126.101V214.103H123.765L123.625 216.674C123.549 217.854 123.35 218.699 123.029 219.207C122.711 219.714 122.206 219.979 121.512 220H121.042V218.965L121.378 218.94C121.759 218.898 122.032 218.678 122.197 218.28C122.362 217.882 122.468 217.146 122.515 216.071L122.642 213.132H127.282ZM133.407 220C133.34 219.865 133.285 219.623 133.242 219.276C132.696 219.843 132.045 220.127 131.287 220.127C130.61 220.127 130.054 219.937 129.618 219.556C129.186 219.171 128.97 218.684 128.97 218.096C128.97 217.381 129.241 216.826 129.783 216.433C130.329 216.035 131.095 215.836 132.081 215.836H133.223V215.296C133.223 214.886 133.1 214.56 132.855 214.319C132.61 214.073 132.248 213.951 131.77 213.951C131.351 213.951 130.999 214.056 130.716 214.268C130.432 214.48 130.291 214.736 130.291 215.036H129.11C129.11 214.693 129.23 214.363 129.472 214.046C129.717 213.724 130.047 213.47 130.462 213.284C130.881 213.098 131.34 213.005 131.839 213.005C132.631 213.005 133.251 213.204 133.699 213.602C134.148 213.995 134.381 214.539 134.397 215.233V218.394C134.397 219.025 134.478 219.526 134.639 219.898V220H133.407ZM131.458 219.105C131.827 219.105 132.176 219.01 132.506 218.819C132.836 218.629 133.075 218.381 133.223 218.077V216.667H132.303C130.864 216.667 130.145 217.089 130.145 217.931C130.145 218.299 130.267 218.587 130.513 218.794C130.758 219.001 131.073 219.105 131.458 219.105Z" fill="#CEAC6A"/>
<path d="M25.0889 34.5156H23.5771V40H21.3623V27.2031H23.5771V32.582H24.7988L28.5605 27.2031H31.2852L26.8906 33.3291L31.6719 40H29L25.0889 34.5156ZM39.2779 40C39.1842 39.8184 39.1021 39.5225 39.0318 39.1123C38.3521 39.8213 37.5201 40.1758 36.5357 40.1758C35.5807 40.1758 34.8014 39.9033 34.1979 39.3584C33.5943 38.8135 33.2926 38.1396 33.2926 37.3369C33.2926 36.3232 33.6676 35.5469 34.4176 35.0078C35.1734 34.4629 36.2516 34.1904 37.652 34.1904H38.9615V33.5664C38.9615 33.0742 38.8238 32.6816 38.5484 32.3887C38.273 32.0898 37.8541 31.9404 37.2916 31.9404C36.8053 31.9404 36.4068 32.0635 36.0963 32.3096C35.7857 32.5498 35.6305 32.8574 35.6305 33.2324H33.4947C33.4947 32.7109 33.6676 32.2246 34.0133 31.7734C34.359 31.3164 34.8277 30.959 35.4195 30.7012C36.0172 30.4434 36.6822 30.3145 37.4146 30.3145C38.5279 30.3145 39.4156 30.5957 40.0777 31.1582C40.7398 31.7148 41.0797 32.5 41.0973 33.5137V37.8027C41.0973 38.6582 41.2174 39.3408 41.4576 39.8506V40H39.2779ZM36.9312 38.4619C37.3531 38.4619 37.7486 38.3594 38.1178 38.1543C38.4928 37.9492 38.774 37.6738 38.9615 37.3281V35.5352H37.8102C37.0191 35.5352 36.4244 35.6729 36.026 35.9482C35.6275 36.2236 35.4283 36.6133 35.4283 37.1172C35.4283 37.5273 35.5631 37.8555 35.8326 38.1016C36.108 38.3418 36.4742 38.4619 36.9312 38.4619ZM47.6135 36.2383H46.5324V40H44.3967V30.4902H46.5324V34.2871H47.4729L50.1008 30.4902H52.7375L49.301 35.043L53.0275 40H50.2502L47.6135 36.2383ZM54.1912 35.1572C54.1912 34.2256 54.3758 33.3877 54.7449 32.6436C55.1141 31.8936 55.6326 31.3193 56.3006 30.9209C56.9686 30.5166 57.7361 30.3145 58.6033 30.3145C59.8865 30.3145 60.9266 30.7275 61.7234 31.5537C62.5262 32.3799 62.9598 33.4756 63.0242 34.8408L63.033 35.3418C63.033 36.2793 62.8514 37.1172 62.4881 37.8555C62.1307 38.5938 61.615 39.165 60.9412 39.5693C60.2732 39.9736 59.4998 40.1758 58.6209 40.1758C57.2791 40.1758 56.2039 39.7305 55.3953 38.8398C54.5926 37.9434 54.1912 36.751 54.1912 35.2627V35.1572ZM56.327 35.3418C56.327 36.3203 56.5291 37.0879 56.9334 37.6445C57.3377 38.1953 57.9002 38.4707 58.6209 38.4707C59.3416 38.4707 59.9012 38.1895 60.2996 37.627C60.7039 37.0645 60.9061 36.2412 60.9061 35.1572C60.9061 34.1963 60.698 33.4346 60.282 32.8721C59.8719 32.3096 59.3123 32.0283 58.6033 32.0283C57.9061 32.0283 57.3523 32.3066 56.9422 32.8633C56.532 33.4141 56.327 34.2402 56.327 35.3418ZM71.6762 30.4902H73.8031V40H71.6762V33.6543L67.9496 40H65.8227V30.4902H67.9496V36.8359L71.6762 30.4902ZM72.6781 26.8428C72.6781 27.5811 72.4203 28.1787 71.9047 28.6357C71.3891 29.0928 70.7006 29.3213 69.8393 29.3213C68.9779 29.3213 68.2895 29.0928 67.7738 28.6357C67.2582 28.1787 67.0004 27.5811 67.0004 26.8428H68.6C68.6 27.2295 68.7084 27.5312 68.9252 27.748C69.1479 27.959 69.4525 28.0645 69.8393 28.0645C70.226 28.0645 70.5277 27.959 70.7445 27.748C70.9613 27.5312 71.0697 27.2295 71.0697 26.8428H72.6781ZM89.8414 32.1865H86.7564V40H84.6207V32.1865H81.5709V30.4902H89.8414V32.1865ZM98.1066 30.4902H100.234V40H98.1066V33.6543L94.3801 40H92.2531V30.4902H94.3801V36.8359L98.1066 30.4902ZM111.47 40H109.334V32.2129H105.625V40H103.489V30.4902H111.47V40ZM128.079 40H125.943V36.1592H122.243V40H120.107V30.4902H122.243V34.4541H125.943V30.4902H128.079V40ZM135.448 40.1758C134.094 40.1758 132.996 39.751 132.152 38.9014C131.314 38.0459 130.895 36.9092 130.895 35.4912V35.2275C130.895 34.2783 131.077 33.4316 131.44 32.6875C131.809 31.9375 132.325 31.3545 132.987 30.9385C133.649 30.5225 134.387 30.3145 135.202 30.3145C136.497 30.3145 137.496 30.7275 138.199 31.5537C138.908 32.3799 139.262 33.5488 139.262 35.0605V35.9219H133.048C133.113 36.707 133.374 37.3281 133.831 37.7852C134.294 38.2422 134.874 38.4707 135.571 38.4707C136.549 38.4707 137.346 38.0752 137.962 37.2842L139.113 38.3828C138.732 38.9512 138.222 39.3936 137.584 39.71C136.951 40.0205 136.239 40.1758 135.448 40.1758ZM135.193 32.0283C134.607 32.0283 134.132 32.2334 133.769 32.6436C133.412 33.0537 133.183 33.625 133.084 34.3574H137.153V34.1992C137.106 33.4844 136.916 32.9453 136.582 32.582C136.248 32.2129 135.785 32.0283 135.193 32.0283ZM141.867 38.2949C142.459 37.6328 142.855 37.0059 143.054 36.4141C143.259 35.8164 143.382 35.0547 143.423 34.1289L143.546 30.4902H150.147V38.2949H151.465V42.8301H149.338V40H143.238V42.8301H141.076L141.085 38.2949H141.867ZM144.372 38.2949H148.02V32.3271H145.62L145.559 34.1465C145.477 35.8926 145.081 37.2754 144.372 38.2949ZM154.053 40V30.4902H157.911C159.212 30.4902 160.202 30.7188 160.882 31.1758C161.561 31.627 161.901 32.2773 161.901 33.127C161.901 33.5664 161.763 33.9619 161.488 34.3135C161.219 34.6592 160.817 34.9258 160.284 35.1133C160.905 35.2422 161.397 35.5029 161.761 35.8955C162.124 36.2881 162.305 36.751 162.305 37.2842C162.305 38.1689 161.977 38.8428 161.321 39.3057C160.671 39.7686 159.733 40 158.509 40H154.053ZM156.188 35.9482V38.3125H158.526C159.622 38.3125 160.17 37.9199 160.17 37.1348C160.17 36.3438 159.613 35.9482 158.5 35.9482H156.188ZM156.188 34.4189H157.946C159.159 34.4189 159.765 34.0615 159.765 33.3467C159.765 32.5967 159.191 32.21 158.043 32.1865H156.188V34.4189ZM170.993 30.4902H173.12V40H170.993V33.6543L167.266 40H165.139V30.4902H167.266V36.8359L170.993 30.4902ZM184.663 36.1768H183.529V40H181.394V36.1768H180.269L178.08 40H175.461L178.616 35.0518L175.628 30.4902H178.238L180.392 34.2256H181.394V30.4902H183.529V34.2256H184.54L186.702 30.4902H189.312L186.333 35.0254L189.506 40H186.852L184.663 36.1768ZM197.666 30.4902H199.793V40H197.666V33.6543L193.939 40H191.812V30.4902H193.939V36.8359L197.666 30.4902ZM208.612 37.3721L211.424 30.4902H214.096V40H211.96V33.707L209.341 40H207.891L205.263 33.6719V40H203.127V30.4902H205.817L208.612 37.3721ZM217 35.1572C217 34.2256 217.184 33.3877 217.554 32.6436C217.923 31.8936 218.441 31.3193 219.109 30.9209C219.777 30.5166 220.545 30.3145 221.412 30.3145C222.695 30.3145 223.735 30.7275 224.532 31.5537C225.335 32.3799 225.768 33.4756 225.833 34.8408L225.842 35.3418C225.842 36.2793 225.66 37.1172 225.297 37.8555C224.939 38.5938 224.424 39.165 223.75 39.5693C223.082 39.9736 222.308 40.1758 221.429 40.1758C220.088 40.1758 219.012 39.7305 218.204 38.8398C217.401 37.9434 217 36.751 217 35.2627V35.1572ZM219.136 35.3418C219.136 36.3203 219.338 37.0879 219.742 37.6445C220.146 38.1953 220.709 38.4707 221.429 38.4707C222.15 38.4707 222.71 38.1895 223.108 37.627C223.512 37.0645 223.715 36.2412 223.715 35.1572C223.715 34.1963 223.507 33.4346 223.091 32.8721C222.68 32.3096 222.121 32.0283 221.412 32.0283C220.715 32.0283 220.161 32.3066 219.751 32.8633C219.341 33.4141 219.136 34.2402 219.136 35.3418ZM232.454 38.4707C232.988 38.4707 233.43 38.3154 233.782 38.0049C234.133 37.6943 234.321 37.3105 234.344 36.8535H236.357C236.333 37.4453 236.149 37.999 235.803 38.5146C235.457 39.0244 234.989 39.4287 234.397 39.7275C233.805 40.0264 233.166 40.1758 232.481 40.1758C231.151 40.1758 230.096 39.7451 229.317 38.8838C228.538 38.0225 228.148 36.833 228.148 35.3154V35.0957C228.148 33.6484 228.535 32.4912 229.308 31.624C230.081 30.751 231.136 30.3145 232.472 30.3145C233.603 30.3145 234.523 30.6455 235.232 31.3076C235.947 31.9639 236.322 32.8281 236.357 33.9004H234.344C234.321 33.3555 234.133 32.9072 233.782 32.5557C233.436 32.2041 232.994 32.0283 232.454 32.0283C231.763 32.0283 231.23 32.2803 230.855 32.7842C230.48 33.2822 230.289 34.041 230.284 35.0605V35.4033C230.284 36.4346 230.468 37.2051 230.837 37.7148C231.212 38.2188 231.751 38.4707 232.454 38.4707ZM246.354 32.1865H243.269V40H241.133V32.1865H238.083V30.4902H246.354V32.1865ZM254.619 30.4902H256.746V40H254.619V33.6543L250.892 40H248.765V30.4902H250.892V36.8359L254.619 30.4902ZM21.2568 67V57.4902H25.1152C26.416 57.4902 27.4062 57.7188 28.0859 58.1758C28.7656 58.627 29.1055 59.2773 29.1055 60.127C29.1055 60.5664 28.9678 60.9619 28.6924 61.3135C28.4229 61.6592 28.0215 61.9258 27.4883 62.1133C28.1094 62.2422 28.6016 62.5029 28.9648 62.8955C29.3281 63.2881 29.5098 63.751 29.5098 64.2842C29.5098 65.1689 29.1816 65.8428 28.5254 66.3057C27.875 66.7686 26.9375 67 25.7129 67H21.2568ZM23.3926 62.9482V65.3125H25.7305C26.8262 65.3125 27.374 64.9199 27.374 64.1348C27.374 63.3438 26.8174 62.9482 25.7041 62.9482H23.3926ZM23.3926 61.4189H25.1504C26.3633 61.4189 26.9697 61.0615 26.9697 60.3467C26.9697 59.5967 26.3955 59.21 25.2471 59.1865H23.3926V61.4189ZM37.942 67C37.8482 66.8184 37.7662 66.5225 37.6959 66.1123C37.0162 66.8213 36.1842 67.1758 35.1998 67.1758C34.2447 67.1758 33.4654 66.9033 32.8619 66.3584C32.2584 65.8135 31.9566 65.1396 31.9566 64.3369C31.9566 63.3232 32.3316 62.5469 33.0816 62.0078C33.8375 61.4629 34.9156 61.1904 36.316 61.1904H37.6256V60.5664C37.6256 60.0742 37.4879 59.6816 37.2125 59.3887C36.9371 59.0898 36.5182 58.9404 35.9557 58.9404C35.4693 58.9404 35.0709 59.0635 34.7604 59.3096C34.4498 59.5498 34.2945 59.8574 34.2945 60.2324H32.1588C32.1588 59.7109 32.3316 59.2246 32.6773 58.7734C33.023 58.3164 33.4918 57.959 34.0836 57.7012C34.6812 57.4434 35.3463 57.3145 36.0787 57.3145C37.192 57.3145 38.0797 57.5957 38.7418 58.1582C39.4039 58.7148 39.7437 59.5 39.7613 60.5137V64.8027C39.7613 65.6582 39.8814 66.3408 40.1217 66.8506V67H37.942ZM35.5953 65.4619C36.0172 65.4619 36.4127 65.3594 36.7818 65.1543C37.1568 64.9492 37.4381 64.6738 37.6256 64.3281V62.5352H36.4742C35.6832 62.5352 35.0885 62.6729 34.69 62.9482C34.2916 63.2236 34.0924 63.6133 34.0924 64.1172C34.0924 64.5273 34.2271 64.8555 34.4967 65.1016C34.7721 65.3418 35.1383 65.4619 35.5953 65.4619ZM46.8049 65.4707C47.3381 65.4707 47.7805 65.3154 48.132 65.0049C48.4836 64.6943 48.6711 64.3105 48.6945 63.8535H50.7072C50.6838 64.4453 50.4992 64.999 50.1535 65.5146C49.8078 66.0244 49.3391 66.4287 48.7473 66.7275C48.1555 67.0264 47.5168 67.1758 46.8312 67.1758C45.5012 67.1758 44.4465 66.7451 43.6672 65.8838C42.8879 65.0225 42.4982 63.833 42.4982 62.3154V62.0957C42.4982 60.6484 42.885 59.4912 43.6584 58.624C44.4318 57.751 45.4865 57.3145 46.8225 57.3145C47.9533 57.3145 48.8732 57.6455 49.5822 58.3076C50.2971 58.9639 50.6721 59.8281 50.7072 60.9004H48.6945C48.6711 60.3555 48.4836 59.9072 48.132 59.5557C47.7863 59.2041 47.3439 59.0283 46.8049 59.0283C46.1135 59.0283 45.5803 59.2803 45.2053 59.7842C44.8303 60.2822 44.6398 61.041 44.634 62.0605V62.4033C44.634 63.4346 44.8186 64.2051 45.1877 64.7148C45.5627 65.2188 46.1018 65.4707 46.8049 65.4707ZM64.5395 57.4902H66.6664V67H64.5395V60.6543L60.8129 67H58.6859V57.4902H60.8129V63.8359L64.5395 57.4902ZM77.8936 67H75.7578V63.1592H72.0576V67H69.9219V57.4902H72.0576V61.4541H75.7578V57.4902H77.8936V67ZM88.5582 59.1865H85.4732V67H83.3375V59.1865H80.2877V57.4902H88.5582V59.1865ZM94.5119 67.1758C93.1584 67.1758 92.0598 66.751 91.216 65.9014C90.3781 65.0459 89.9592 63.9092 89.9592 62.4912V62.2275C89.9592 61.2783 90.1408 60.4316 90.5041 59.6875C90.8732 58.9375 91.3889 58.3545 92.051 57.9385C92.7131 57.5225 93.4514 57.3145 94.2658 57.3145C95.5607 57.3145 96.5598 57.7275 97.2629 58.5537C97.9719 59.3799 98.3264 60.5488 98.3264 62.0605V62.9219H92.1125C92.177 63.707 92.4377 64.3281 92.8947 64.7852C93.3576 65.2422 93.9377 65.4707 94.635 65.4707C95.6135 65.4707 96.4104 65.0752 97.0256 64.2842L98.177 65.3828C97.7961 65.9512 97.2863 66.3936 96.6477 66.71C96.0148 67.0205 95.3029 67.1758 94.5119 67.1758ZM94.257 59.0283C93.6711 59.0283 93.1965 59.2334 92.8332 59.6436C92.4758 60.0537 92.2473 60.625 92.1477 61.3574H96.217V61.1992C96.1701 60.4844 95.9797 59.9453 95.6457 59.582C95.3117 59.2129 94.8488 59.0283 94.257 59.0283ZM109.22 62.3418C109.22 63.8125 108.886 64.9873 108.218 65.8662C107.55 66.7393 106.653 67.1758 105.528 67.1758C104.485 67.1758 103.65 66.833 103.023 66.1475V70.6562H100.887V57.4902H102.856L102.944 58.457C103.571 57.6953 104.424 57.3145 105.502 57.3145C106.662 57.3145 107.57 57.748 108.226 58.6152C108.888 59.4766 109.22 60.6748 109.22 62.21V62.3418ZM107.093 62.1572C107.093 61.208 106.902 60.4551 106.521 59.8984C106.146 59.3418 105.607 59.0635 104.904 59.0635C104.031 59.0635 103.404 59.4238 103.023 60.1445V64.3633C103.41 65.1016 104.043 65.4707 104.922 65.4707C105.601 65.4707 106.132 65.1982 106.512 64.6533C106.899 64.1025 107.093 63.2705 107.093 62.1572ZM116.122 67.1758C114.769 67.1758 113.67 66.751 112.827 65.9014C111.989 65.0459 111.57 63.9092 111.57 62.4912V62.2275C111.57 61.2783 111.751 60.4316 112.115 59.6875C112.484 58.9375 112.999 58.3545 113.662 57.9385C114.324 57.5225 115.062 57.3145 115.876 57.3145C117.171 57.3145 118.17 57.7275 118.873 58.5537C119.582 59.3799 119.937 60.5488 119.937 62.0605V62.9219H113.723C113.787 63.707 114.048 64.3281 114.505 64.7852C114.968 65.2422 115.548 65.4707 116.246 65.4707C117.224 65.4707 118.021 65.0752 118.636 64.2842L119.787 65.3828C119.407 65.9512 118.897 66.3936 118.258 66.71C117.625 67.0205 116.913 67.1758 116.122 67.1758ZM115.868 59.0283C115.282 59.0283 114.807 59.2334 114.444 59.6436C114.086 60.0537 113.858 60.625 113.758 61.3574H117.828V61.1992C117.781 60.4844 117.59 59.9453 117.256 59.582C116.922 59.2129 116.459 59.0283 115.868 59.0283ZM126.409 65.4707C126.942 65.4707 127.385 65.3154 127.736 65.0049C128.088 64.6943 128.275 64.3105 128.299 63.8535H130.312C130.288 64.4453 130.104 64.999 129.758 65.5146C129.412 66.0244 128.943 66.4287 128.352 66.7275C127.76 67.0264 127.121 67.1758 126.436 67.1758C125.105 67.1758 124.051 66.7451 123.271 65.8838C122.492 65.0225 122.103 63.833 122.103 62.3154V62.0957C122.103 60.6484 122.489 59.4912 123.263 58.624C124.036 57.751 125.091 57.3145 126.427 57.3145C127.558 57.3145 128.478 57.6455 129.187 58.3076C129.901 58.9639 130.276 59.8281 130.312 60.9004H128.299C128.275 60.3555 128.088 59.9072 127.736 59.5557C127.391 59.2041 126.948 59.0283 126.409 59.0283C125.718 59.0283 125.185 59.2803 124.81 59.7842C124.435 60.2822 124.244 61.041 124.238 62.0605V62.4033C124.238 63.4346 124.423 64.2051 124.792 64.7148C125.167 65.2188 125.706 65.4707 126.409 65.4707ZM136.151 63.9414L138.085 57.4902H140.361L136.582 68.4414C136.002 70.041 135.017 70.8408 133.629 70.8408C133.318 70.8408 132.975 70.7881 132.6 70.6826V69.0303L133.004 69.0566C133.544 69.0566 133.948 68.957 134.217 68.7578C134.493 68.5645 134.71 68.2363 134.868 67.7734L135.175 66.9561L131.836 57.4902H134.138L136.151 63.9414ZM146.561 67.1758C145.207 67.1758 144.109 66.751 143.265 65.9014C142.427 65.0459 142.008 63.9092 142.008 62.4912V62.2275C142.008 61.2783 142.19 60.4316 142.553 59.6875C142.922 58.9375 143.438 58.3545 144.1 57.9385C144.762 57.5225 145.5 57.3145 146.315 57.3145C147.61 57.3145 148.609 57.7275 149.312 58.5537C150.021 59.3799 150.375 60.5488 150.375 62.0605V62.9219H144.161C144.226 63.707 144.487 64.3281 144.944 64.7852C145.406 65.2422 145.987 65.4707 146.684 65.4707C147.662 65.4707 148.459 65.0752 149.074 64.2842L150.226 65.3828C149.845 65.9512 149.335 66.3936 148.696 66.71C148.064 67.0205 147.352 67.1758 146.561 67.1758ZM146.306 59.0283C145.72 59.0283 145.245 59.2334 144.882 59.6436C144.525 60.0537 144.296 60.625 144.196 61.3574H148.266V61.1992C148.219 60.4844 148.029 59.9453 147.695 59.582C147.361 59.2129 146.898 59.0283 146.306 59.0283ZM160.319 59.1865H157.234V67H155.098V59.1865H152.049V57.4902H160.319V59.1865ZM164.629 63.2383C164.629 62.459 164.726 61.8379 164.919 61.375C165.113 60.9121 165.494 60.4053 166.062 59.8545C166.636 59.2979 166.999 58.9023 167.152 58.668C167.386 58.3105 167.503 57.9238 167.503 57.5078C167.503 56.957 167.366 56.5381 167.09 56.251C166.821 55.958 166.422 55.8115 165.895 55.8115C165.391 55.8115 164.984 55.9551 164.673 56.2422C164.369 56.5234 164.216 56.9072 164.216 57.3936H162.08C162.092 56.3564 162.444 55.5361 163.135 54.9326C163.832 54.3291 164.752 54.0273 165.895 54.0273C167.073 54.0273 167.99 54.3262 168.646 54.9238C169.308 55.5215 169.639 56.3564 169.639 57.4287C169.639 58.3838 169.194 59.3242 168.303 60.25L167.222 61.3135C166.835 61.7529 166.636 62.3945 166.624 63.2383H164.629ZM164.48 65.9717C164.48 65.626 164.588 65.3477 164.805 65.1367C165.022 64.9199 165.315 64.8115 165.684 64.8115C166.059 64.8115 166.355 64.9229 166.572 65.1455C166.788 65.3623 166.897 65.6377 166.897 65.9717C166.897 66.2939 166.791 66.5635 166.58 66.7803C166.37 66.9971 166.071 67.1055 165.684 67.1055C165.297 67.1055 164.998 66.9971 164.788 66.7803C164.582 66.5635 164.48 66.2939 164.48 65.9717Z" fill="#CEAC6A"/>
<rect x="49" y="223" width="14" height="14" rx="7" transform="rotate(-180 49 223)" fill="#CEAC6A"/>
<rect x="30" y="107" width="6" height="6" rx="3" transform="rotate(-180 30 107)" fill="#CEAC6A"/>
<path d="M41.2121 220.846C41.1071 220.945 40.9638 221 40.815 221C40.6662 221 40.523 220.945 40.418 220.846L37.2468 217.875C36.9177 217.567 36.9177 217.067 37.2468 216.76L37.6439 216.388C37.9731 216.079 38.5061 216.079 38.8352 216.388L40.815 218.242L46.1648 213.231C46.494 212.923 47.0275 212.923 47.3561 213.231L47.7532 213.603C48.0823 213.911 48.0823 214.411 47.7532 214.719L41.2121 220.846Z" fill="#353535"/>
<rect x="72" y="424" width="52" height="48" rx="4.07302" transform="rotate(-180 72 424)" fill="#403F3F"/>
<path d="M55.2262 400.267L38.6418 400.267L42.0923 403.69C42.3945 403.99 42.3945 404.476 42.0923 404.775C41.79 405.075 41.2999 405.075 40.9981 404.775L36.2267 400.043C35.9244 399.743 35.9244 399.257 36.2267 398.957L40.9981 394.225C41.1492 394.075 41.3472 394 41.5452 394C41.7431 394 41.9412 394.075 42.0923 394.225C42.3945 394.524 42.3945 395.01 42.0923 395.31L38.6418 398.733L55.2262 398.733C55.6535 398.733 56 399.076 56 399.5C56 399.924 55.6535 400.267 55.2262 400.267Z" fill="#CEAC6A"/>
<rect x="79.9102" y="376" width="200" height="48" rx="4.07302" fill="#CEAC6A"/>
<path d="M142.195 404.635H142.572C142.893 404.462 143.166 404.189 143.391 403.816C143.616 403.435 143.811 402.85 143.976 402.061C144.141 401.272 144.262 400.211 144.34 398.876L144.574 395.47H149.228V404.635H150.333V408.093H148.994L148.877 406H143.69L143.56 408.093H142.195V404.635ZM147.408 404.635V396.848H146.082L145.965 399.175C145.904 400.484 145.796 401.498 145.64 402.217C145.493 402.936 145.324 403.448 145.133 403.751C144.942 404.054 144.687 404.349 144.366 404.635H147.408ZM155.041 395.47H157.095L159.201 406H157.42L157.004 403.569H155.171L154.742 406H152.935L155.041 395.47ZM156.796 402.347L156.081 397.927L155.366 402.347H156.796ZM161.612 404.622C162.054 404.631 162.37 404.561 162.561 404.414C162.76 404.258 162.912 403.911 163.016 403.374C163.12 402.837 163.219 401.914 163.315 400.605L163.653 395.47H168.775V406H166.864V396.913H165.343L165.122 400.839C165.035 402.243 164.918 403.287 164.771 403.972C164.623 404.648 164.346 405.159 163.939 405.506C163.54 405.844 162.92 406.013 162.08 406.013C161.88 406.013 161.724 406.009 161.612 406V404.622ZM172.481 395.47H176.901V396.822H174.392V399.851H176.368V401.19H174.392V404.687H176.927V406H172.481V395.47ZM180.122 395.47H184.542V396.822H182.033V399.851H184.009V401.19H182.033V404.687H184.568V406H180.122V395.47Z" fill="#4F4F4F"/>
<path d="M135.963 451.459C135.876 451.52 135.56 451.619 135.014 451.758C134.572 451.888 134.347 451.957 134.338 451.966V450.627C134.685 450.506 135.062 450.341 135.469 450.133C135.885 449.916 136.188 449.695 136.379 449.47H137.77V460H135.963V451.459Z" fill="#CEAC6A"/>
<path d="M149.922 449.47H151.092L148.05 460H146.88L149.922 449.47ZM162.137 460.156C161.14 460.156 160.447 459.892 160.057 459.363C159.676 458.826 159.485 458.033 159.485 456.984H161.24C161.24 457.582 161.305 458.033 161.435 458.336C161.565 458.639 161.821 458.791 162.202 458.791C162.488 458.791 162.7 458.7 162.839 458.518C162.978 458.327 163.064 458.076 163.099 457.764C163.142 457.443 163.164 457.001 163.164 456.438C163.164 455.745 163.099 455.233 162.969 454.904C162.839 454.575 162.57 454.41 162.163 454.41C161.92 454.41 161.712 454.492 161.539 454.657C161.374 454.822 161.253 455.047 161.175 455.333H159.628L159.732 449.47H164.464V451.082H161.24L161.136 453.617C161.283 453.452 161.496 453.322 161.773 453.227C162.05 453.123 162.354 453.071 162.683 453.071C163.428 453.071 163.979 453.357 164.334 453.929C164.698 454.492 164.88 455.29 164.88 456.321C164.88 457.127 164.802 457.807 164.646 458.362C164.499 458.917 164.226 459.354 163.827 459.675C163.428 459.996 162.865 460.156 162.137 460.156Z" fill="#A5A5A5"/>
<path d="M197.774 399.733L214.358 399.733L210.908 396.31C210.605 396.01 210.605 395.524 210.908 395.225C211.21 394.925 211.7 394.925 212.002 395.225L216.773 399.957C217.076 400.257 217.076 400.743 216.773 401.043L212.002 405.775C211.851 405.925 211.653 406 211.455 406C211.257 406 211.059 405.925 210.908 405.775C210.605 405.476 210.605 404.99 210.908 404.69L214.358 401.267L197.774 401.267C197.347 401.267 197 400.924 197 400.5C197 400.076 197.346 399.733 197.774 399.733Z" fill="#4F4F4F"/>
</svg>
