<svg width="580" height="464" viewBox="0 0 580 464" fill="none" xmlns="http://www.w3.org/2000/svg">
<path d="M150.074 464.001C230.155 464.001 295.074 454.75 295.074 443.338C295.074 431.927 230.155 422.676 150.074 422.676C69.9929 422.676 5.07422 431.927 5.07422 443.338C5.07422 454.75 69.9929 464.001 150.074 464.001Z" fill="#E3D0AA" fill-opacity="0.3"/>
<path d="M31.9004 274.935L31.9005 300.801L31.9005 339.6L31.9005 370.514C31.9004 390.416 47.9448 406.596 67.8454 406.763L543.445 410.766C563.584 410.935 580 394.657 580 374.517V202.273C580 182.253 563.771 166.023 543.75 166.023H381.175L67.3734 172.751C47.6604 173.173 31.9004 189.275 31.9004 208.992V274.935Z" fill="#F7F7F7" fill-opacity="0.75"/>
<path d="M234.392 199.665C234.229 198.392 233.9 197.145 233.412 195.955C233.35 195.731 233.241 195.521 233.093 195.34C232.944 195.159 232.759 195.01 232.549 194.904C232.269 194.832 231.975 194.829 231.693 194.894L227.295 195.56C226.927 195.577 226.575 195.712 226.292 195.946C225.719 196.541 226.283 197.501 226.266 198.322C226.246 199.247 225.416 199.997 224.515 200.245C223.596 200.429 222.648 200.417 221.734 200.211L215.585 199.266C217.396 198.694 219.008 197.63 220.237 196.196C221.046 195.248 221.476 193.477 220.307 193.028C219.96 192.934 219.597 192.905 219.239 192.944C216.453 192.965 214.261 190.665 211.653 189.696C209.983 189.116 208.171 189.072 206.476 189.572C204.78 190.072 203.288 191.09 202.212 192.479L205.488 192.635C205.796 192.618 206.102 192.699 206.36 192.865C207.078 193.449 206.186 194.569 206.287 195.483C206.418 196.669 208.012 196.923 209.213 197.043C210.414 197.163 211.937 198.128 211.36 199.176C205.323 201.233 199.18 195.156 192.841 195.904C191.236 196.094 189.721 196.717 188.155 197.109C178.585 199.504 168.692 193.114 158.917 194.468C156.743 194.834 154.607 195.391 152.534 196.132C151.204 196.564 149.816 197.031 148.849 198.033C147.882 199.035 147.515 200.749 148.43 201.797C145.906 202.002 143.365 201.764 140.925 201.091C141.585 201.454 142.134 201.986 142.514 202.631C142.895 203.275 143.092 204.01 143.087 204.756C139.146 205.392 135.309 206.549 131.679 208.196C132.357 209.311 133.148 210.353 134.04 211.307L129.051 214.478C130.737 214.898 131.608 217.171 130.628 218.591C132.376 217.822 133.459 215.832 135.328 215.429C136.553 215.165 137.798 215.66 138.96 216.126C140.122 216.591 141.398 217.042 142.601 216.693C143.804 216.344 144.69 214.802 143.926 213.819C149.066 212.336 154.378 211.515 159.731 211.377C160.144 211.326 160.562 211.404 160.928 211.602C161.624 212.08 161.441 213.112 161.404 213.95C161.366 214.788 162.026 215.889 162.783 215.512C161.893 216.276 162.654 217.714 163.509 218.517C164.363 219.321 165.394 220.429 164.87 221.474C164.734 221.747 164.502 221.965 164.371 222.24C163.983 223.053 164.599 224 165.325 224.539C166.051 225.079 166.941 225.456 167.446 226.203C167.95 226.95 167.721 228.258 166.819 228.362L164.254 225.142C163.378 226.04 162.778 227.166 162.522 228.389C165.241 230.587 165.651 235.062 163.374 237.708C162.21 239.059 160.556 239.881 159.112 240.935C157.668 241.99 156.332 243.491 156.336 245.266C156.342 248.333 156.088 251.182 157.25 254.026C159.393 259.269 161.867 264.374 164.657 269.31C165.39 270.606 166.337 272.026 167.822 272.25C165.946 267.733 164.257 263.145 162.755 258.488C163.733 258.492 164.863 258.568 165.437 259.352C165.912 260.001 165.81 260.883 165.957 261.671C166.145 262.434 166.458 263.161 166.883 263.824L175.842 279.607C176.584 280.915 177.436 282.32 178.856 282.85C179.763 283.188 180.813 283.125 181.648 283.612C182.303 283.995 182.744 284.673 183.411 285.033C185.298 286.051 187.923 284.099 189.686 285.314C190.191 285.662 190.511 286.214 190.976 286.612C192.605 288.007 195.277 287.074 197.157 288.115C198.369 288.785 198.997 290.127 199.643 291.342C201.263 294.387 203.882 297.37 207.352 297.613C208.442 297.689 209.555 297.485 210.621 297.724C211.686 297.964 212.735 298.884 212.564 299.951C212.271 301.781 213.185 303.785 212.939 305.621C212.492 308.967 207.694 310.437 207.282 313.787C207.192 314.521 207.333 315.278 207.156 315.996C206.94 316.876 206.272 317.592 206.034 318.467C205.584 320.124 206.785 321.774 208.104 322.889C209.423 324.004 210.996 324.966 211.718 326.527C212.48 328.177 212.105 330.1 212.353 331.898C212.894 335.821 216.321 338.73 219.848 340.606C220.922 341.177 222.076 341.73 222.771 342.722C223.679 344.016 223.588 345.721 223.891 347.267C224.634 351.054 227.857 354.174 227.948 358.029C228.013 360.77 226.473 363.256 225.553 365.842C224.69 368.319 224.378 370.952 224.637 373.559C224.897 376.167 225.722 378.689 227.057 380.952C227.745 382.102 228.569 383.186 229.055 384.432C229.924 386.656 229.642 389.183 230.444 391.432C231.503 394.405 234.413 396.86 234.135 400C235.456 402.714 238.374 404.047 241.307 404.855L246.566 406.302C247.573 406.58 248.625 406.859 249.65 406.658C250.675 406.458 251.653 405.616 251.627 404.582C249.048 404.007 246.387 403.396 244.262 401.842C242.136 400.287 240.68 397.52 241.486 395.03C241.86 393.876 242.656 392.543 241.9 391.589C241.466 391.043 240.675 390.9 240.186 390.402C239.424 389.624 239.686 388.319 240.234 387.381C240.781 386.444 241.573 385.607 241.794 384.546C241.906 383.953 241.831 383.34 241.58 382.79C241.33 382.24 240.915 381.779 240.392 381.469C241.367 381.105 242.254 380.542 242.995 379.817C243.679 379.044 243.995 377.852 243.457 376.973C245.056 377.174 246.943 377.272 247.993 376.063C248.831 375.097 248.773 373.653 248.442 372.423C248.111 371.193 247.551 369.998 247.534 368.725C251.222 368.898 254.919 368.774 258.587 368.354C258.056 366.588 256.851 365.095 255.226 364.192C256.887 363.914 258.401 361.947 258.926 360.364C259.451 358.78 259.317 357.056 258.992 355.42C258.868 354.999 258.851 354.554 258.943 354.125C259.13 353.536 259.715 353.176 260.257 352.868L268.503 348.184C268.995 347.941 269.441 347.615 269.821 347.222C270.685 346.218 270.557 344.703 270.115 343.46C269.673 342.216 268.964 341.047 268.794 339.74C268.284 335.83 272.516 333.025 273.944 329.345C274.504 327.901 274.618 326.331 274.727 324.788C274.843 323.13 274.852 321.205 273.565 320.137C272.332 319.113 270.404 319.341 269.114 318.389C267.93 317.515 267.522 315.82 266.229 315.114C265.055 314.474 263.583 314.881 262.277 314.58C259.978 314.05 258.532 311.429 256.184 311.186C254.859 311.049 253.36 311.69 252.274 310.927C251.317 310.254 251.279 308.903 251.097 307.756C250.777 305.974 249.914 304.331 248.622 303.05C247.33 301.768 245.672 300.908 243.871 300.587C242.505 300.37 241.018 300.453 239.856 299.71C238.68 298.958 238.14 297.551 237.216 296.51C235.726 294.832 233.38 294.236 231.182 293.725L222.243 291.646C220.656 291.278 218.611 291.082 217.759 292.457C217.507 292.98 217.328 293.535 217.229 294.107C216.91 295.14 216.267 296.047 215.394 296.697C214.521 297.347 213.463 297.706 212.37 297.723C211.621 296.459 210.407 295.531 208.982 295.131C208.076 294.881 207.106 294.853 206.241 294.485C205.77 294.258 205.351 293.938 205.01 293.545C204.668 293.152 204.411 292.694 204.255 292.2C204.099 291.705 204.046 291.184 204.1 290.669C204.154 290.154 204.314 289.655 204.57 289.202C205.086 288.295 205.285 287.245 205.137 286.214C204.989 285.184 204.502 284.23 203.751 283.5C202.231 282.15 200.032 281.824 197.993 281.959C197.46 280.807 198.352 279.507 199.314 278.67C200.276 277.833 201.444 277.01 201.654 275.759C201.983 273.793 199.446 272.299 197.519 272.885C195.593 273.472 194.363 275.322 193.55 277.147C193.084 278.193 192.688 279.296 191.952 280.178C191.216 281.061 190.032 281.693 188.911 281.409C187.325 281.008 186.712 279.144 186.361 277.563C185.89 275.441 185.416 273.289 185.515 271.119C185.614 268.948 186.354 266.72 187.972 265.25C190.609 262.856 194.654 263.091 198.213 263.473C197.372 262.536 197.58 260.957 198.479 260.075C198.954 259.658 199.525 259.361 200.142 259.211C200.759 259.061 201.403 259.063 202.02 259.215C203.092 259.436 204.058 260.007 204.762 260.837C205.774 262.056 206.061 263.703 206.826 265.087C207.59 266.471 209.309 267.651 210.716 266.909C211.931 266.267 212.124 264.601 211.821 263.272C211.519 261.943 210.877 260.651 210.986 259.293C211.195 256.701 213.911 255.142 216.307 254.075C218.704 253.007 221.448 251.572 221.828 249C221.841 248.497 221.937 247.998 222.112 247.525C222.378 247.108 222.747 246.764 223.185 246.527C230.18 241.956 237.29 237.328 245.284 234.83C245.7 234.701 245.749 234.845 246.173 234.743C246.766 234.404 246.373 233.466 245.804 233.088C245.236 232.71 244.475 232.42 244.331 231.758C244.225 231.271 244.515 230.793 244.591 230.3C244.776 229.09 243.312 227.973 242.175 228.457C241.533 227.615 242.803 226.638 243.831 226.358C246.916 225.519 250.083 225.007 253.278 224.832C253.647 224.774 254.024 224.838 254.353 225.013C254.89 225.38 254.821 226.224 254.441 226.748C254.061 227.273 253.469 227.603 252.995 228.047C252.477 228.546 252.108 229.176 251.927 229.868C251.747 230.56 251.762 231.288 251.971 231.972C253.639 232.812 255.453 233.675 257.3 233.38C259.147 233.084 260.787 231.031 259.919 229.392C259.11 227.865 256.681 227.521 256.263 225.847C255.774 223.888 258.579 222.146 257.947 220.227C257.67 219.387 256.823 218.892 256.173 218.285C255.406 217.541 254.884 216.585 254.676 215.542C254.468 214.499 254.583 213.419 255.007 212.442C253.949 212.626 252.861 212.557 251.835 212.239C250.81 211.922 249.876 211.366 249.112 210.618C247.702 209.21 246.577 206.99 244.575 207.053C242.738 207.111 241.155 209.231 239.437 208.584C239.014 208.425 238.568 208.101 238.159 208.291C238.025 208.377 237.912 208.492 237.829 208.628C237.747 208.763 237.696 208.916 237.682 209.073C237.246 211.138 237.997 213.49 236.859 215.274C235.621 217.216 232.757 217.485 231.256 219.236C230.441 220.186 230.126 221.466 229.377 222.468C228.628 223.47 227.039 224.107 226.14 223.234C226.581 222.336 226.702 221.316 226.482 220.342C226.262 219.367 225.714 218.495 224.928 217.868C224.093 217.33 223.194 216.897 222.25 216.58C221.196 216.139 220.193 215.586 219.259 214.932C218.792 214.652 218.411 214.25 218.161 213.77C217.964 213.168 217.99 212.516 218.237 211.932C218.692 210.64 219.496 209.495 220.562 208.622C221.627 207.749 222.913 207.18 224.282 206.976C225.479 206.815 226.871 206.872 227.663 205.97C228.082 205.493 228.302 204.772 228.91 204.578C229.299 204.501 229.703 204.55 230.062 204.718L234.528 206.273C235.026 206.496 235.575 206.585 236.119 206.533C236.389 206.498 236.635 206.362 236.808 206.154C236.981 205.946 237.068 205.681 237.052 205.412C236.909 204.679 235.768 204.327 235.872 203.587C235.93 203.347 236.06 203.13 236.246 202.965C237.857 201.268 239.829 199.945 242.018 199.09C244.208 198.235 246.561 197.869 248.91 198.019C249.474 198.935 248.583 200.019 247.841 200.801C247.099 201.582 246.503 202.979 247.4 203.581C247.768 203.766 248.177 203.857 248.589 203.846C249.689 203.993 250.757 204.313 251.755 204.795C253.298 205.46 254.812 206.186 256.296 206.976C256.165 206.008 256.04 204.988 256.411 204.083C256.781 203.178 257.836 202.469 258.756 202.821C259.644 203.161 260.099 204.323 261.044 204.429C262.305 204.571 262.803 202.729 262.276 201.586C261.749 200.444 260.707 199.488 260.62 198.236C260.561 197.391 260.886 196.343 260.204 195.831C259.961 195.678 259.685 195.582 259.398 195.552L242.36 192.451C241.348 192.267 239.886 192.408 239.841 193.425C239.816 193.992 240.329 194.553 240.102 195.075C239.86 195.632 239.064 195.581 238.484 195.778C237.585 196.083 237.133 197.14 237.22 198.076C237.378 199.007 237.742 199.892 238.287 200.667C237.179 200.208 235.501 200.124 234.392 199.665Z" fill="#3F3D56" fill-opacity="0.7"/>
<path d="M219.743 184.475C218.764 184.059 217.709 184.04 216.72 184.42C215.732 184.799 214.859 185.559 214.219 186.597C213.963 187.029 213.748 187.624 213.963 188.092C214.269 188.762 215.052 188.498 215.628 188.258C216.476 187.869 217.398 187.841 218.259 188.177C218.8 188.416 219.285 188.837 219.829 189.066C220.093 189.208 220.383 189.255 220.667 189.202C220.951 189.149 221.218 188.998 221.44 188.764C221.813 188.276 221.837 187.517 221.837 186.833C221.863 186.605 221.849 186.371 221.796 186.151C221.742 185.93 221.651 185.727 221.529 185.557C221.311 185.395 221.067 185.303 220.815 185.286C220.253 185.153 219.744 184.772 219.377 184.209" fill="#3F3D56" fill-opacity="0.7"/>
<path d="M224.65 184.15C224.431 184.141 224.212 184.174 224.015 184.244C223.818 184.315 223.649 184.422 223.525 184.554C223.401 184.686 223.326 184.839 223.306 184.999C223.286 185.158 223.323 185.319 223.413 185.465C224.086 185.599 224.789 185.633 225.481 185.563C225.825 185.524 226.147 185.412 226.404 185.24C226.661 185.067 226.843 184.844 226.926 184.596C226.112 184.704 225.272 184.587 224.57 184.268" fill="#3F3D56" fill-opacity="0.7"/>
<path d="M248.06 180.864C246.018 181.275 244.034 181.913 242.15 182.765C243.039 183.088 243.794 183.673 244.304 184.434C244.815 185.194 245.054 186.09 244.986 186.988C244.907 187.333 244.916 187.692 245.013 188.033C245.23 188.531 245.859 188.718 246.412 188.846C247.406 189.132 248.443 189.258 249.48 189.217C249.999 189.191 250.503 189.043 250.947 188.786C251.39 188.53 251.759 188.173 252.02 187.747C252.17 187.343 252.347 186.948 252.548 186.565C253.874 184.653 257.811 186.964 259.234 185.117C259.735 184.466 259.689 183.486 260.343 182.971C260.681 182.746 261.073 182.604 261.483 182.559C264.344 182.02 267.235 181.63 270.142 181.391C271.519 181.277 273.314 180.809 273.325 179.5C268.138 178.535 262.759 179.22 258.026 181.449C256.32 182.258 254.064 183.96 252.422 182.887C251.806 182.486 251.837 181.404 250.99 180.953C250.125 180.491 248.979 180.679 248.06 180.864Z" fill="#3F3D56" fill-opacity="0.7"/>
<path d="M264.761 184.293L267.197 184.752C266.749 184.732 266.301 184.807 265.885 184.97C265.468 185.134 265.091 185.382 264.78 185.7C264.469 186.017 264.231 186.396 264.081 186.811C263.932 187.225 263.874 187.667 263.912 188.105C266.193 188.852 268.681 188.125 271.084 188.224C273.488 188.324 276.284 190.006 275.874 192.329C275.75 193.032 275.336 193.734 275.551 194.415C275.702 194.892 276.132 195.231 276.374 195.67C276.879 196.586 276.476 197.745 275.838 198.577C275.2 199.41 274.342 200.074 273.783 200.959C272.39 203.16 273.181 206.005 274.011 208.464C274.251 209.393 274.694 210.259 275.309 211.004C276.538 212.285 278.54 212.396 280.334 212.422C281.64 212.44 283.135 212.377 283.961 211.386C285.038 210.092 284.285 208.073 284.994 206.554C285.639 205.174 287.281 204.583 288.768 204.163C291.494 203.394 294.271 202.74 296.847 201.579C300.047 200.136 303.037 197.889 306.553 197.703C307.54 197.651 308.551 197.765 309.501 197.5C310.451 197.235 311.354 196.43 311.282 195.465C311.221 194.639 310.508 194.034 309.952 193.412C309.395 192.79 308.958 191.833 309.47 191.175L318.687 189.488C318.034 187.743 317.525 185.444 319.026 184.308C319.568 183.899 320.293 183.735 320.754 183.239C321.54 182.395 321.145 180.94 320.237 180.222C319.33 179.504 318.103 179.337 316.941 179.243C312.899 178.914 308.835 179.131 304.785 179.349C296.87 179.774 288.954 180.199 281.038 180.624C279.445 180.71 277.605 180.579 276.144 181.112C274.906 181.563 274.027 182.391 272.612 182.682C269.999 183.219 267.125 182.855 264.761 184.293Z" fill="#3F3D56" fill-opacity="0.7"/>
<path d="M309.044 203.732C308.814 203.699 308.58 203.747 308.389 203.864C308.262 203.987 308.187 204.145 308.175 204.312C308.03 205.047 308.203 205.804 308.66 206.43C308.893 206.738 309.214 206.984 309.591 207.145C309.967 207.305 310.385 207.372 310.801 207.341C311.815 207.226 312.562 206.459 313.494 206.085C314.93 205.508 321.031 204.61 316.811 202.588C315.357 201.891 314.417 202.506 313.271 202.965C311.967 203.557 310.505 203.822 309.044 203.732Z" fill="#3F3D56" fill-opacity="0.7"/>
<path d="M347.949 182.258C347.415 182.5 346.969 182.93 346.679 183.483C346.546 183.763 346.515 184.09 346.593 184.395C346.671 184.7 346.851 184.961 347.097 185.122C347.297 185.202 347.508 185.24 347.72 185.232L349.889 185.304C350.811 185.334 351.962 185.552 352.21 186.536C352.394 187.267 351.982 188.207 352.479 188.729C352.692 188.912 352.948 189.023 353.217 189.048C353.931 189.252 354.677 189.278 355.402 189.126C356.981 188.657 356.151 187.589 356.649 186.638C357.409 185.183 357.278 186.064 358.618 185.23C359.608 184.614 360.887 183.497 360.061 181.928C358.624 179.198 350.069 181.086 347.949 182.258Z" fill="#3F3D56" fill-opacity="0.7"/>
<path d="M389.744 180.732L388.653 180.878C386.193 181.208 383.719 181.54 381.35 182.282C382.375 182.689 383.451 182.955 384.548 183.07C385.152 183.1 385.752 183.186 386.34 183.326C387.386 183.639 388.441 184.447 389.452 184.033C390.079 183.776 390.283 183.121 390.803 182.774C391.161 182.534 392.521 182.145 392.673 181.903C393.902 179.946 390.689 180.605 389.744 180.732Z" fill="#3F3D56" fill-opacity="0.7"/>
<path d="M394.03 186.735C392.663 187.648 391.396 188.758 390.255 190.039C389.774 190.579 389.283 191.25 389.327 192.037C389.385 193.082 390.317 193.689 391.124 194.097L394.394 195.752C394.791 195.083 394.428 194.161 394.018 193.504C393.608 192.848 393.121 192.088 393.302 191.298C393.508 190.396 394.429 190.089 395.2 189.934C396.457 189.681 399.848 189.701 399.44 187.28C398.96 184.428 395.292 185.892 394.03 186.735Z" fill="#3F3D56" fill-opacity="0.7"/>
<path d="M393.216 349.472C392.844 350.669 392.808 352.078 393.452 353.122C394.174 354.294 395.619 354.731 396.87 354.434C398.115 354.066 399.225 353.274 400.043 352.168C400.792 351.242 401.407 350.194 401.868 349.06C402.512 347.292 402.966 345.447 403.221 343.562L404.435 336.486C404.706 334.905 404.695 330.057 402.078 331.636C401.363 332.068 399.708 335.475 398.959 336.441C397.608 338.182 397.43 339.872 396.719 341.981C395.828 344.624 394.039 346.826 393.216 349.472Z" fill="#3F3D56" fill-opacity="0.7"/>
<path d="M533.493 382.101C532.689 381.889 531.908 381.639 531.158 381.352C530.406 382.747 530.006 384.217 529.975 385.702L535.476 383.602C536.303 383.286 537.241 382.848 537.223 382.206C537.231 382.127 537.206 382.048 537.153 381.978C537.099 381.907 537.019 381.847 536.919 381.805C536.797 381.772 536.664 381.761 536.534 381.774C535.718 381.82 534.974 382.091 534.205 382.279C533.435 382.467 532.535 382.567 531.829 382.288" fill="#3F3D56" fill-opacity="0.7"/>
<path d="M552.235 320.23C551.49 320.442 550.719 320.495 549.958 320.387C548.694 320.116 547.71 319.003 546.69 318.09C544.265 315.932 541.316 314.728 538.268 314.652C535.496 314.59 532.698 315.468 529.975 314.856C530.153 316.012 530.999 316.879 531.903 317.395C532.806 317.91 533.803 318.17 534.711 318.675C536.165 319.491 537.318 320.893 537.959 322.623C538.251 323.421 538.435 324.289 538.878 324.985C539.783 326.408 541.499 326.721 543.013 326.604C544.987 326.453 547.049 325.789 548.886 326.649C550.291 327.306 551.297 328.743 552.47 329.861C553.643 330.978 555.296 331.808 556.643 331.001C555.244 330.472 554.026 329.434 553.167 328.038C552.308 326.643 551.854 324.963 551.87 323.245C553.191 323.387 556.997 323.332 556.792 320.708C556.618 318.485 553.369 319.99 552.235 320.23Z" fill="#3F3D56" fill-opacity="0.7"/>
<path d="M535.232 336.661C535.479 335.32 536.828 334.135 536.408 332.838C536.117 331.94 535.067 331.497 534.116 331.475C533.164 331.453 532.23 331.733 531.279 331.76C530.66 331.727 530.039 331.736 529.422 331.786C527.534 332.093 526.37 334.054 524.591 334.751C523.509 335.175 522.294 335.094 521.169 335.387C518.615 336.052 516.999 338.443 515.213 340.371C512.329 343.472 508.571 345.644 504.426 346.604C502.974 346.937 501.413 347.15 500.259 348.085C498.73 349.322 498.354 351.443 498.014 353.37C497.074 358.69 495.638 363.913 493.725 368.97L499.789 369.737C500.942 369.883 502.137 370.026 503.248 369.687C504.055 369.386 504.82 368.982 505.523 368.487C508.224 366.825 511.246 365.744 514.396 365.313C515.984 365.097 517.649 365.058 519.139 365.643C520.629 366.228 521.908 367.554 522.033 369.137C522.677 368.939 523.364 368.917 524.02 369.075C524.676 369.233 525.276 369.565 525.756 370.034C526.706 370.993 527.328 372.223 527.534 373.551C527.694 374.373 527.854 375.358 528.624 375.702C529.252 375.984 529.972 375.681 530.659 375.626C532.991 375.441 534.926 378.135 537.217 377.671C539.675 377.174 540.279 373.527 542.676 372.796C544.053 372.377 545.985 372.887 546.645 371.618C547.226 370.499 546.066 369.208 546.186 367.956C546.333 366.413 548.169 365.759 549.585 365.1C554.465 362.832 556.781 356.324 554.416 351.524C553.015 348.68 550.258 346.442 549.749 343.317C549.357 340.914 550.313 338.111 548.767 336.219C547.98 335.256 546.647 334.725 546.179 333.577C545.885 332.854 546.003 332.034 545.844 331.27C545.686 330.506 545.013 329.708 544.252 329.906C542.043 330.48 541.338 337.242 540.155 338.885C538.357 341.383 534.666 339.738 535.232 336.661Z" fill="#3F3D56" fill-opacity="0.7"/>
<path d="M492.055 321.49C491.237 321.243 490.343 321 489.559 321.353C488.774 321.705 488.316 322.943 488.946 323.557C493.87 323.351 498.825 323.146 503.707 323.865C509.333 324.693 514.9 326.745 520.55 326.141C517.323 325.118 514.042 324.299 510.725 323.69L505.194 322.555C503.71 322.221 502.21 321.972 500.702 321.809C497.546 321.528 495.158 322.425 492.055 321.49Z" fill="#3F3D56" fill-opacity="0.7"/>
<path d="M498.238 307.088C497.846 307.057 497.362 307.029 497.16 307.354C496.966 307.665 497.187 308.075 497.084 308.423C496.941 308.899 496.297 309.02 495.789 308.955C495.281 308.891 494.732 308.736 494.282 308.972C494.053 309.123 493.882 309.341 493.793 309.594C493.704 309.846 493.702 310.12 493.788 310.374C493.972 310.878 494.269 311.336 494.659 311.716C495.324 312.526 496.083 313.261 496.919 313.906C498.539 315.061 500.733 315.618 501.753 317.294C501.896 317.619 502.118 317.906 502.398 318.133C502.888 318.433 503.526 318.205 504.054 317.972L505.901 317.157C506.234 317.041 506.532 316.845 506.765 316.589C507.188 316.036 506.928 315.249 506.574 314.652C506.219 314.056 505.766 313.439 505.842 312.756C505.978 311.537 507.6 311.071 508.266 310.028C508.939 308.977 508.501 307.623 508.579 306.389C508.669 304.947 509.607 303.071 508.098 301.993C506.815 301.077 505.589 301.924 504.668 302.935C502.726 305.067 501.808 307.376 498.238 307.088Z" fill="#3F3D56" fill-opacity="0.7"/>
<path d="M509.301 284.427C509.951 285.699 511.306 286.458 512.015 287.696C512.783 289.038 512.695 290.772 513.529 292.073C514.384 293.408 516.105 294.117 516.584 295.635C517.108 297.292 515.92 299.307 516.867 300.755C517.043 300.992 517.266 301.189 517.521 301.333C517.776 301.477 518.057 301.565 518.348 301.593C518.638 301.62 518.93 301.585 519.206 301.491C519.483 301.397 519.737 301.245 519.953 301.045C520.352 300.601 520.566 300.015 520.548 299.412C520.531 298.809 520.284 298.237 519.859 297.818C519.299 297.296 518.494 297.07 518.026 296.46C517.782 296.108 517.619 295.704 517.551 295.279C517.295 294.051 517.336 292.779 517.67 291.571C517.795 291.265 517.827 290.927 517.761 290.602C517.55 289.976 516.721 289.931 516.139 289.641C514.816 288.982 514.849 287.075 515.08 285.591C514.926 286.579 511.48 284.898 511.119 284.338C510.402 283.226 510.792 281.081 510.65 279.852C509.103 280.613 508.506 282.872 509.301 284.427Z" fill="#3F3D56" fill-opacity="0.7"/>
<path d="M477.011 304.129C476.43 303.464 475.555 302.768 474.777 303.169C474.183 303.475 474.019 304.316 474.252 304.954C474.536 305.573 474.972 306.105 475.519 306.499C477.141 307.868 478.889 309.104 480.304 310.696C482.837 313.544 484.179 317.388 486.934 320.012C487.487 320.621 488.22 321.027 489.021 321.168C489.824 321.245 490.725 320.719 490.817 319.9C490.893 319.225 490.433 318.621 489.984 318.12C488.914 316.929 487.742 315.833 486.732 314.588C486.265 314.11 485.972 313.483 485.901 312.812C485.896 312.142 486.493 311.44 487.127 311.606C486.356 311.404 485.783 310.089 484.651 309.841C483.704 309.635 483.475 310.234 482.349 309.74C480.201 308.797 478.515 305.852 477.011 304.129Z" fill="#3F3D56" fill-opacity="0.7"/>
<path d="M527.382 237.855C526.738 237.666 526.103 237.442 525.483 237.186C523.814 236.691 521.605 237.902 521.828 239.607C521.976 240.74 523.044 241.503 523.635 242.486C524.51 243.943 524.277 245.792 523.817 247.423C523.704 247.929 523.489 248.407 523.185 248.828C522.76 249.274 522.253 249.634 521.689 249.89C519.435 251.137 517.447 252.802 515.835 254.795C515.66 254.979 515.538 255.206 515.482 255.453C515.402 256.028 515.989 256.448 516.321 256.928C517.057 257.994 516.525 259.429 516.598 260.718C516.587 260.9 516.623 261.082 516.703 261.247C516.783 261.411 516.904 261.553 517.056 261.658C517.5 261.881 518.026 261.503 518.266 261.073C519.065 259.645 518.463 257.354 519.962 256.666C520.245 256.536 520.589 256.481 520.778 256.235C521.078 255.846 520.789 255.269 520.941 254.803C521.169 254.104 522.138 254.073 522.882 254.104C524.164 254.156 525.445 253.988 526.668 253.606C527.148 253.494 527.584 253.245 527.922 252.891C528.369 252.339 528.33 251.555 528.24 250.854C527.792 247.359 526.67 243.981 524.934 240.902C526.25 241.068 527.682 241.212 528.818 240.535C529.454 240.156 530.216 239.023 529.901 238.252C529.402 237.032 528.501 238.059 527.382 237.855Z" fill="#3F3D56" fill-opacity="0.7"/>
<path d="M359.465 257.763C359.619 258.592 359.77 259.465 359.5 260.263C359.229 261.061 358.379 261.728 357.577 261.484C356.954 261.294 356.594 260.664 356.151 260.184C353.692 257.514 348.142 259.06 346.622 255.756C346.002 254.408 346.423 252.793 346 251.369C345.733 250.547 345.202 249.837 344.491 249.351C343.779 248.864 342.927 248.63 342.068 248.683C341.284 248.797 340.522 249.026 339.805 249.363C335 251.297 329.956 252.566 324.811 253.133C323.834 253.193 322.866 253.37 321.93 253.66C319.818 254.43 318.375 256.399 317.347 258.409C316.32 260.418 315.562 262.594 314.185 264.379C312.737 266.255 310.709 267.569 308.817 268.99C308.088 269.463 307.482 270.102 307.047 270.856C306.636 271.703 306.66 272.688 306.691 273.629L307.078 285.06C307.128 286.531 307.19 288.054 307.845 289.369C308.662 291.012 310.277 292.089 311.397 293.54C312.54 295.032 313.135 296.875 313.082 298.757C313.058 299.514 312.984 300.409 313.57 300.884C313.926 301.117 314.343 301.237 314.768 301.231L330.147 302.496C332.853 302.719 335.851 303.085 337.617 305.157C338.451 306.136 339.12 307.542 340.397 307.647C340.945 307.692 341.478 307.466 342.025 307.422C343.407 307.312 344.621 308.367 345.388 309.529C346.547 311.299 347.074 313.414 346.88 315.525C346.755 316.85 346.346 318.138 346.258 319.466C345.923 324.52 350.184 328.911 350.266 333.976C350.315 336.955 348.908 339.738 347.537 342.379C349.75 345.75 347.938 350.239 348.819 354.18C349.655 357.919 352.755 360.846 353.528 364.598C353.882 366.316 353.902 368.43 355.409 369.315C356.07 369.639 356.803 369.786 357.537 369.743C361.965 369.796 366.343 368.794 370.313 366.819C372.176 365.889 374.106 364.502 374.432 362.436C374.694 360.771 373.854 358.908 374.709 357.457C375.716 355.747 378.298 355.883 379.78 354.568C382.185 352.435 380.31 348.368 381.284 345.296C382.16 342.535 385.175 341.068 386.67 338.589C387.258 337.523 387.68 336.373 387.921 335.179C388.606 332.324 389.032 329.412 389.195 326.48C389.235 324.699 389.365 322.92 389.586 321.152C391.198 311.086 401.095 304.346 404.308 294.675C404.615 293.752 404.759 292.522 403.942 291.999C403.457 291.767 402.908 291.709 402.386 291.835L395.297 292.734C394.416 292.846 393.483 292.95 392.674 292.582C391.865 292.215 391.286 291.186 391.715 290.405C392.919 288.212 390.442 285.44 389.341 283.193C386.378 277.141 382.849 271.387 378.802 266.007C378.543 265.73 378.381 265.376 378.34 264.998L380.352 265.066C379.673 262.615 378.552 259.934 376.184 259.037C374.85 258.532 373.373 258.707 371.949 258.785C367.872 259.009 363.5 258.39 359.465 257.763Z" fill="#3F3D56" fill-opacity="0.7"/>
<path d="M373.144 201.029C374.236 202.188 375.459 203.416 377.038 203.618C379.828 203.975 381.834 201.092 383.111 198.587C383.158 199.226 383.452 199.82 383.932 200.245C384.411 200.67 385.037 200.891 385.677 200.861C386.366 200.746 387.023 200.489 387.607 200.107C393.134 197.088 399.325 195.488 405.623 195.452C405.563 194.975 405.681 194.493 405.956 194.098C406.23 193.703 406.641 193.424 407.109 193.314C408.39 193.06 409.543 194.167 410.161 195.316C410.779 196.466 411.164 197.798 412.145 198.659C413.127 199.519 415.027 199.482 415.415 198.236C415.787 197.04 414.54 196.019 413.504 195.314C412.468 194.609 411.377 193.303 412.074 192.263C417.366 191.092 422.691 189.916 428.106 189.684C429.028 189.716 429.947 189.558 430.805 189.219C431.631 188.814 432.287 187.894 432.065 187.002C430.883 187.28 429.645 187.199 428.51 186.771C427.374 186.343 426.391 185.586 425.687 184.598C433.201 183.978 441.193 183.45 447.852 186.984C448.651 188.698 444.578 190.125 445.668 191.671C446.016 192.165 446.712 192.223 447.315 192.234C451.943 192.32 456.597 192.404 461.172 191.705C462.844 191.45 464.533 191.09 466.212 191.297C469.007 191.642 471.399 193.506 474.15 194.114C475.269 194.362 476.524 194.37 477.468 193.719C478.412 193.068 478.818 191.586 478.044 190.74C480.634 188.203 484.932 188.832 488.349 190.047C491.766 191.261 495.003 193.22 498.619 193.491C501.212 193.685 503.841 192.988 506.404 193.431C508.014 193.709 509.512 194.425 511.086 194.865C514.063 195.697 517.211 195.522 520.302 195.562C528.187 195.668 535.986 197.217 543.312 200.132C544.266 200.442 545.139 200.958 545.87 201.643C546.552 202.372 546.9 203.506 546.442 204.394L538.871 203.288C539.584 204.691 541.429 204.931 542.928 205.415C544.427 205.899 545.981 207.553 545.08 208.845C543.456 208.328 541.985 209.951 541.164 211.444C540.344 212.937 539.345 214.725 537.643 214.816C536.119 214.897 534.276 213.601 533.283 214.758C534.655 216.489 535.83 218.367 536.786 220.357C537.768 222.4 538.467 224.975 537.14 226.814C536.932 227.142 536.615 227.387 536.245 227.508C535.162 227.782 534.458 226.457 533.681 225.654C532.702 224.643 531.222 224.356 529.896 223.882C528.571 223.407 527.174 222.474 527.071 221.07C527.006 220.197 527.467 219.385 527.807 218.578C528.378 217.218 528.628 215.744 528.537 214.272C528.463 213.087 528.13 211.855 527.279 211.027C526.428 210.199 524.959 209.937 524.045 210.695C523.618 211.049 523.277 211.614 522.723 211.635C521.745 211.673 520.994 209.968 520.206 210.55C520.299 211.17 520.17 211.803 519.843 212.338C517.494 214.38 513.886 213.516 510.858 214.237C509.418 214.649 508.04 215.251 506.759 216.026C506.28 216.231 505.872 216.573 505.587 217.01C505.209 217.744 505.626 218.684 506.292 219.172C506.999 219.605 507.793 219.876 508.617 219.965C512.308 220.664 516.053 221.746 518.968 224.116C521.882 226.486 523.793 230.404 522.871 234.044L515.591 227.091C515.868 230.011 516.025 232.938 516.062 235.873C516.109 236.447 516.03 237.023 515.831 237.563C515.312 238.708 513.906 239.094 512.673 239.347C512.33 239.412 512.005 239.549 511.719 239.749C511.433 239.948 511.192 240.206 511.013 240.505C510.834 240.804 510.72 241.138 510.678 241.485C510.637 241.831 510.67 242.182 510.774 242.515C511.212 243.942 512.304 245.054 513.304 246.163C514.304 247.271 515.288 248.531 515.418 250.017C515.549 251.504 514.427 253.18 512.938 253.076C511.809 252.998 510.971 251.988 510.489 250.964C510.008 249.94 509.721 248.799 508.997 247.93C506.807 245.296 501.887 246.425 499.925 243.618C499.425 244.185 499.078 244.87 498.918 245.609C498.757 246.348 498.788 247.115 499.008 247.839C499.92 247.267 501.17 247.798 501.856 248.628C502.542 249.458 502.865 250.522 503.404 251.454C504.131 252.712 505.287 253.827 505.389 255.276C505.362 255.824 505.371 256.373 505.416 256.92C505.597 257.798 506.339 258.428 506.854 259.162C508.052 260.87 507.992 263.216 507.22 265.153C506.448 267.091 505.061 268.71 503.688 270.279C501.288 273.021 498.84 275.746 495.995 278.023C495.183 278.673 494.317 279.311 493.811 280.22C493.306 281.128 493.28 282.403 494.057 283.094C493.501 283.122 492.504 283.395 491.948 283.423C491.753 281.194 491.71 278.954 491.821 276.719C489.627 275.667 487.266 278.486 487.549 280.902C487.832 283.318 489.58 285.256 490.824 287.346C491.735 288.875 492.411 290.657 492.107 292.41C491.803 294.162 490.238 295.779 488.465 295.624C485.646 295.378 484.466 291.332 481.674 290.869C481.428 290.811 481.169 290.837 480.939 290.942C480.524 291.169 480.452 291.724 480.429 292.196C480.315 294.513 480.216 296.921 481.121 299.057C482.444 302.182 485.864 304.807 485.147 308.123C481.282 306.328 479.273 301.997 478.361 297.836C477.449 293.676 477.297 289.308 475.662 285.375C474.42 286.965 471.811 285.65 470.676 283.982C469.601 282.4 468.938 280.57 467.895 278.966C466.852 277.363 465.253 275.927 463.341 275.839C461.337 275.746 459.599 277.121 458.07 278.42C456.813 279.488 455.523 280.598 454.788 282.075C453.719 284.224 453.999 286.756 453.947 289.156C453.891 291.749 453.342 294.486 451.573 296.385C449.804 298.283 446.54 298.945 444.589 297.233C443.571 296.34 443.078 295.005 442.639 293.724C440.522 287.548 438.758 281.256 437.358 274.879C437.03 276.335 435.751 278.211 434.53 277.353C434.256 277.123 434.034 276.837 433.878 276.514C431.6 272.654 427.381 270.339 423.117 268.951C418.854 267.563 414.369 266.915 410.153 265.39C407.79 264.534 405.534 263.411 403.428 262.041C402.891 262.83 402.577 263.748 402.52 264.701C402.463 265.653 402.665 266.602 403.104 267.449C404.04 269.104 406.156 270.062 407.967 269.483C408.903 269.184 409.694 268.535 410.623 268.214C411.552 267.893 412.798 268.051 413.205 268.945C413.593 269.801 413.006 270.837 413.297 271.731C413.741 273.093 415.796 273.198 416.514 274.437C417.048 275.358 416.609 276.583 415.846 277.326C415.082 278.07 414.064 278.478 413.132 278.996C410.11 280.676 407.96 283.544 405.318 285.776C402.677 288.007 398.95 289.636 395.801 288.205C396.552 284.407 392.025 281.618 391.192 277.837C390.918 276.592 391.06 275.27 390.669 274.057C390.102 272.301 388.544 271.094 387.265 269.763C385.714 268.132 384.506 266.206 383.712 264.1C382.918 261.994 382.553 259.751 382.641 257.502C382.71 255.939 382.997 254.351 382.641 252.828C382.285 251.305 381.023 249.83 379.459 249.899C375.889 250.057 371.39 250.323 369.517 247.28C368.848 246.194 368.557 244.604 369.524 243.772C370.206 243.185 371.212 243.24 372.108 243.328L380.154 244.119C382.035 244.304 384.069 244.457 385.684 243.474C387.299 242.49 387.999 239.88 386.504 238.723C385.411 237.878 383.454 237.924 383.136 236.58C382.872 235.461 384.111 234.191 383.442 233.255C382.962 232.584 381.882 232.77 381.229 233.273C380.575 233.776 380.1 234.511 379.368 234.892C378.084 235.56 376.55 234.924 375.169 234.492C373.788 234.06 371.936 234.024 371.266 235.306C370.517 236.74 371.931 238.619 371.187 240.056C370.204 241.956 366.875 240.875 365.494 242.509C363.91 244.384 366.572 247.18 366.038 249.576C365.356 249.914 364.598 250.069 363.838 250.026C363.078 249.983 362.342 249.744 361.702 249.333C361.072 248.905 360.571 248.314 360.25 247.624C359.93 246.934 359.802 246.17 359.882 245.413C360.014 244.335 360.576 243.235 360.199 242.217C359.895 241.393 359.068 240.903 358.299 240.478L350.481 236.16C349.755 237.506 350.672 239.174 351.82 240.185C352.968 241.196 354.405 241.958 355.159 243.288C355.636 244.21 355.743 245.279 355.458 246.277C355.173 247.275 354.518 248.126 353.626 248.658C353.514 248.735 353.387 248.787 353.253 248.81C353.12 248.833 352.982 248.828 352.851 248.793C352.726 248.72 352.618 248.622 352.531 248.506C352.445 248.39 352.383 248.258 352.348 248.117C350.969 244.589 348.898 241.11 345.586 239.266C342.275 237.423 337.517 237.802 335.346 240.907C334.83 241.645 334.484 242.485 334.034 243.265C331.647 247.408 326.53 249.37 321.749 249.241C321.281 249.267 320.816 249.158 320.409 248.927C319.636 248.393 319.671 247.261 319.789 246.33L320.291 242.378C320.392 241.585 320.538 240.708 321.166 240.212C322.052 239.514 323.33 239.955 324.457 239.938C325.312 239.898 326.134 239.597 326.811 239.074C327.488 238.552 327.988 237.834 328.244 237.018C328.472 236.194 328.47 235.323 328.239 234.499C328.009 233.676 327.558 232.931 326.935 232.345C326.418 231.86 325.724 231.25 325.997 230.596C326.106 230.415 326.253 230.26 326.429 230.142C326.604 230.024 326.803 229.945 327.012 229.913C329.038 229.325 331.179 229.17 333.171 228.476C335.163 227.782 337.096 226.363 337.567 224.307C337.712 223.677 337.778 222.914 338.344 222.602C338.628 222.482 338.933 222.42 339.241 222.419C340.321 222.265 341.305 221.713 341.998 220.871C342.691 220.029 343.044 218.958 342.987 217.869C343.942 217.202 345.279 217.692 346.203 218.402C347.127 219.111 347.942 220.048 349.066 220.354C351.161 220.924 353.185 219.07 355.356 219.061C356.269 219.058 357.214 219.38 358.073 219.071C358.943 218.757 359.463 217.891 360.131 217.251C360.8 216.611 361.972 216.221 362.589 216.91L362.064 213.02C363.122 213.287 364.225 213.325 365.299 213.131C366.373 212.937 367.393 212.515 368.29 211.895L361.5 209.601C361.263 209.542 361.045 209.426 360.865 209.262C360.371 208.731 360.861 207.903 361.263 207.299C362.223 205.854 362.385 203.473 360.805 202.754C359.727 202.263 358.49 202.852 357.455 203.429L352.499 206.191C352.341 207.133 353.493 207.667 354.207 208.301C354.639 208.685 354.945 209.19 355.084 209.751C355.224 210.311 355.19 210.901 354.988 211.442C354.786 211.983 354.425 212.451 353.952 212.783C353.479 213.115 352.917 213.297 352.339 213.304C352.666 213.728 352.892 214.22 353.003 214.744C353.113 215.267 353.104 215.809 352.977 216.329L349.642 216.568C349.268 216.644 348.879 216.568 348.56 216.357C348.204 216.041 348.252 215.486 348.169 215.016C347.97 213.883 346.86 213.089 345.727 212.885C344.593 212.681 343.434 212.942 342.312 213.2C341.836 213.372 341.312 213.359 340.844 213.166C340.576 212.992 340.372 212.735 340.264 212.434C339.772 211.242 340.232 209.84 341.022 208.821C341.812 207.801 342.893 207.056 343.865 206.207C346.188 204.17 347.894 201.524 348.792 198.568C350.628 197.799 352.528 196.755 354.364 195.986C357.194 194.553 360.368 193.939 363.529 194.211L369.746 194.33C371.586 194.365 373.477 194.41 375.179 195.111C376.881 195.813 378.376 197.33 378.494 199.166C378.529 199.374 378.511 199.587 378.442 199.786C378.372 199.985 378.253 200.164 378.095 200.304C377.855 200.435 377.583 200.496 377.309 200.481C375.593 200.541 374.861 200.969 373.144 201.029Z" fill="#3F3D56" fill-opacity="0.7"/>
<path d="M323.732 220.752C323.987 220.55 324.171 220.294 324.263 220.011C324.355 219.729 324.352 219.43 324.253 219.149C323.632 218.949 322.956 218.898 322.301 219.001C321.646 219.104 321.039 219.357 320.548 219.732C320.16 220.058 319.827 220.426 319.555 220.825C318.696 221.992 317.936 223.387 318.434 224.692C318.474 224.834 318.549 224.968 318.652 225.086C318.756 225.204 318.887 225.304 319.037 225.379C319.261 225.454 319.501 225.485 319.741 225.471C320.687 225.47 321.633 225.421 322.573 225.326C323.15 225.267 323.82 225.131 324.043 224.684C324.336 224.097 323.626 223.432 323.833 222.819C323.969 222.545 324.175 222.299 324.437 222.098C324.567 221.997 324.667 221.873 324.729 221.734C324.791 221.595 324.813 221.446 324.794 221.299C324.71 221.011 324.182 220.848 323.991 221.098" fill="#3F3D56" fill-opacity="0.7"/>
<path d="M327.788 214.055C327.082 213.882 326.355 213.833 325.634 213.911C325.475 213.906 325.317 213.944 325.176 214.022C325.038 214.131 324.939 214.285 324.893 214.46C324.741 214.983 324.778 215.548 324.998 216.042C325.217 216.536 325.602 216.924 326.077 217.128C326.336 217.191 326.584 217.298 326.812 217.444C327.421 217.949 327.032 218.983 327.148 219.798C327.277 220.714 328.105 221.482 327.954 222.394C327.834 223.112 327.117 223.681 327.232 224.4C327.353 225.154 328.246 225.38 328.958 225.44C329.371 225.517 329.796 225.465 330.181 225.29C330.568 225.007 330.843 224.582 330.953 224.095C331.244 223.166 331.367 222.187 331.314 221.209C331.311 220.764 331.206 220.327 331.01 219.935C330.795 219.625 330.558 219.334 330.299 219.065C328.935 217.367 330.371 214.834 327.788 214.055Z" fill="#3F3D56" fill-opacity="0.7"/>
<path opacity="0.8" d="M529.976 354.527C529.976 354.527 410.689 286.417 359.335 299.322C359.335 299.322 250.499 310.972 237.886 336.603C237.886 336.603 203.289 229.061 190.676 225.477" stroke="#CEAC6A" stroke-width="1.45" stroke-miterlimit="10"/>
<path opacity="0.8" d="M237.886 336.702C257.887 283.941 438.078 225.477 438.078 225.477C412.491 231.893 359.335 299.627 359.335 299.627C359.335 299.627 246.895 218.703 190.676 226.19C190.676 226.19 438.258 234.211 529.976 354.527" stroke="#CEAC6A" stroke-width="1.45" stroke-miterlimit="10"/>
<path d="M191.762 232C195.166 232 197.925 229.566 197.925 226.562C197.925 223.559 195.166 221.125 191.762 221.125C188.359 221.125 185.6 223.559 185.6 226.562C185.6 229.566 188.359 232 191.762 232Z" fill="#CEAC6A"/>
<path d="M239.249 341.474C242.452 341.474 245.049 339.202 245.049 336.399C245.049 333.596 242.452 331.324 239.249 331.324C236.046 331.324 233.449 333.596 233.449 336.399C233.449 339.202 236.046 341.474 239.249 341.474Z" fill="#CEAC6A"/>
<path d="M440.075 232C443.279 232 445.875 229.566 445.875 226.562C445.875 223.559 443.279 221.125 440.075 221.125C436.872 221.125 434.275 223.559 434.275 226.562C434.275 229.566 436.872 232 440.075 232Z" fill="#CEAC6A"/>
<path d="M529.975 358.874C532.778 358.874 535.05 356.764 535.05 354.162C535.05 351.559 532.778 349.449 529.975 349.449C527.173 349.449 524.9 351.559 524.9 354.162C524.9 356.764 527.173 358.874 529.975 358.874Z" fill="#CEAC6A"/>
<path d="M362.863 305.224C365.466 305.224 367.575 302.952 367.575 300.149C367.575 297.346 365.466 295.074 362.863 295.074C360.26 295.074 358.15 297.346 358.15 300.149C358.15 302.952 360.26 305.224 362.863 305.224Z" fill="#CEAC6A"/>
<path d="M532.875 14.5H152.25C149.848 14.5 147.9 16.4476 147.9 18.85C147.9 21.2524 149.848 23.2 152.25 23.2H532.875C535.278 23.2 537.225 21.2524 537.225 18.85C537.225 16.4476 535.278 14.5 532.875 14.5Z" fill="#353535" fill-opacity="0.5"/>
<path d="M313.925 14.5H152.25C149.848 14.5 147.9 16.4476 147.9 18.85C147.9 21.2524 149.848 23.2 152.25 23.2H313.925C316.328 23.2 318.275 21.2524 318.275 18.85C318.275 16.4476 316.328 14.5 313.925 14.5Z" fill="#E3D0AA"/>
<path opacity="0.3" d="M320.45 37.7C330.86 37.7 339.3 29.2606 339.3 18.85C339.3 8.43943 330.86 0 320.45 0C310.039 0 301.6 8.43943 301.6 18.85C301.6 29.2606 310.039 37.7 320.45 37.7Z" fill="#E4BF80"/>
<path opacity="0.3" d="M320.812 31.8984C327.82 31.8984 333.5 26.218 333.5 19.2109C333.5 12.2038 327.82 6.52344 320.812 6.52344C313.805 6.52344 308.125 12.2038 308.125 19.2109C308.125 26.218 313.805 31.8984 320.812 31.8984Z" fill="#E4BF80"/>
<path d="M320.812 28.2734C325.818 28.2734 329.875 24.216 329.875 19.2109C329.875 14.2059 325.818 10.1484 320.812 10.1484C315.807 10.1484 311.75 14.2059 311.75 19.2109C311.75 24.216 315.807 28.2734 320.812 28.2734Z" fill="#E4BF80"/>
<path d="M532.875 64.5234H152.25C149.848 64.5234 147.9 66.471 147.9 68.8734C147.9 71.2759 149.848 73.2234 152.25 73.2234H532.875C535.278 73.2234 537.225 71.2759 537.225 68.8734C537.225 66.471 535.278 64.5234 532.875 64.5234Z" fill="#353535" fill-opacity="0.5"/>
<path d="M441.525 64.5234H148.625C146.223 64.5234 144.275 66.471 144.275 68.8734C144.275 71.2759 146.223 73.2234 148.625 73.2234H441.525C443.928 73.2234 445.875 71.2759 445.875 68.8734C445.875 66.471 443.928 64.5234 441.525 64.5234Z" fill="#E3D0AA"/>
<path opacity="0.3" d="M444.426 87.7266C454.436 87.7266 462.551 79.6117 462.551 69.6016C462.551 59.5914 454.436 51.4766 444.426 51.4766C434.416 51.4766 426.301 59.5914 426.301 69.6016C426.301 79.6117 434.416 87.7266 444.426 87.7266Z" fill="#E4BF80"/>
<path opacity="0.3" d="M443.7 81.9266C450.106 81.9266 455.3 76.7331 455.3 70.3266C455.3 63.9201 450.106 58.7266 443.7 58.7266C437.293 58.7266 432.1 63.9201 432.1 70.3266C432.1 76.7331 437.293 81.9266 443.7 81.9266Z" fill="#E4BF80"/>
<path d="M444.425 78.2984C449.229 78.2984 453.125 74.4033 453.125 69.5984C453.125 64.7936 449.229 60.8984 444.425 60.8984C439.62 60.8984 435.725 64.7936 435.725 69.5984C435.725 74.4033 439.62 78.2984 444.425 78.2984Z" fill="#E4BF80"/>
<path d="M533.238 114.551H151.888C149.686 114.551 147.9 116.336 147.9 118.538C147.9 120.741 149.686 122.526 151.888 122.526H533.238C535.44 122.526 537.225 120.741 537.225 118.538C537.225 116.336 535.44 114.551 533.238 114.551Z" fill="#353535" fill-opacity="0.5"/>
<path d="M217.138 114.551H148.263C146.061 114.551 144.275 116.336 144.275 118.538C144.275 120.741 146.061 122.526 148.263 122.526H217.138C219.34 122.526 221.125 120.741 221.125 118.538C221.125 116.336 219.34 114.551 217.138 114.551Z" fill="#E3D0AA"/>
<path opacity="0.3" d="M218.587 137.75C228.797 137.75 237.075 129.635 237.075 119.625C237.075 109.615 228.797 101.5 218.587 101.5C208.377 101.5 200.1 109.615 200.1 119.625C200.1 129.635 208.377 137.75 218.587 137.75Z" fill="#E4BF80"/>
<path opacity="0.3" d="M218.588 132.677C225.996 132.677 232.001 126.672 232.001 119.264C232.001 111.857 225.996 105.852 218.588 105.852C211.181 105.852 205.176 111.857 205.176 119.264C205.176 126.672 211.181 132.677 218.588 132.677Z" fill="#E4BF80"/>
<path d="M218.587 128.326C223.192 128.326 226.925 124.431 226.925 119.626C226.925 114.821 223.192 110.926 218.587 110.926C213.983 110.926 210.25 114.821 210.25 119.626C210.25 124.431 213.983 128.326 218.587 128.326Z" fill="#E4BF80"/>
<path d="M52.96 110.699L67.5664 111.258L68.2946 92.7194L53.6882 92.1603L52.96 110.699Z" fill="#E4BF80"/>
<path d="M177.625 116.143C177.625 116.143 207.828 108.418 207.345 115.09C206.861 121.761 176.9 126.15 176.9 126.15L177.625 116.143Z" fill="#FFB9B9"/>
<path d="M107.896 226.409C107.896 226.409 117.362 249.589 120.859 266.316C124.356 283.043 129.682 306.062 122.831 322.388C115.98 338.713 96.5024 386.694 96.3017 391.87C96.1011 397.047 97.9701 402.305 93.8308 402.144C89.6915 401.983 67.1663 394.888 66.2519 391.742C65.3375 388.595 73.937 380.633 73.937 380.633L95.1721 314.056L73.0165 270.682L57.0358 335.389L53.9058 416.149C53.9058 416.149 38.5441 411.405 36.3139 415.467C36.3139 415.467 29.4314 405.867 28.5571 401.685C27.6828 397.504 31.8075 317.819 31.8075 317.819C31.8075 317.819 17.7067 227.058 29.0897 227.499C40.4727 227.941 85.0586 200.637 107.896 226.409Z" fill="#CCCCCC" fill-opacity="0.9"/>
<path d="M93.2575 396.432C93.2575 396.432 103.853 419.561 104.856 420.632C105.86 421.703 112.764 432.296 107.543 432.096C102.323 431.896 89.995 426.26 80.9213 417.65C71.8477 409.039 59.8845 394.121 60.9692 393.13C62.0539 392.138 69.4845 389.324 69.4845 389.324L93.2575 396.432Z" fill="#3F3D56" fill-opacity="0.8"/>
<path d="M52.7223 409.435C52.7223 409.435 53.3888 420.429 55.3972 424.895C57.4057 429.361 57.1524 435.932 51.7091 435.719C46.2657 435.507 32.1975 432.764 32.1975 432.764C32.1975 432.764 31.3621 426.151 32.493 425.098C33.6239 424.046 38.4429 412.169 36.3922 408.798C34.3416 405.428 52.7223 409.435 52.7223 409.435Z" fill="#3F3D56" fill-opacity="0.8"/>
<path d="M44.4803 74.6758C44.4803 74.6758 33.4836 91.6 29.1969 95.5171C24.9102 99.4342 36.9701 108.059 36.9701 108.059L58.555 110.926C58.555 110.926 58.2834 91.5294 59.3951 89.5313C60.5068 87.5333 44.4803 74.6758 44.4803 74.6758Z" fill="#FFB9B9"/>
<path d="M62.7204 96.129C62.7204 96.129 58.1552 104.319 53.9186 104.157C49.6821 103.995 27.7686 94.7932 26.8327 91.6209C25.8967 88.4487 19.5742 114.344 19.5742 114.344L73.1948 207.352L86.2742 198.442L79.9368 143.834L74.7319 114.361L62.7204 96.129Z" fill="#E4BF80" fill-opacity="0.9"/>
<path d="M26.4888 179.032C28.568 183.472 29.8666 188.102 29.6866 192.841C29.6786 193.052 29.6706 193.262 29.6523 193.472C29.159 203.198 25.6486 214.447 24.3892 222.628C23.4754 228.497 23.7355 232.78 27.0999 233.787C35.2566 236.215 25.9106 237.95 57.468 248.672C89.0255 259.393 94.5327 250.139 94.6125 248.037C94.6924 245.935 90.1434 229.967 91.2129 228.957C92.2823 227.947 106.177 242.18 110.375 240.241C114.574 238.302 110.855 227.63 110.855 227.63C110.855 227.63 101.397 205.153 101.597 199.898C101.797 194.643 87.2712 169.861 87.2712 169.861L77.3917 104.214C77.3917 104.214 73.5928 95.6435 68.4849 94.3889C63.3769 93.1342 59.1389 96.1239 59.1389 96.1239L67.6864 115.407L76.7045 149.445L75.1959 162.015C75.1959 162.015 64.709 139.497 57.8214 130.805C50.9338 122.112 36.2488 101.533 36.2488 101.533C36.2488 101.533 32.8203 89.7249 35.4085 86.1962C37.997 82.657 24.6125 82.1272 18.9057 96.6364C15.8811 104.326 10.9704 115.794 7.89418 126.471C5.15295 135.929 3.85809 144.772 6.57384 149.826C10.7246 157.548 21.1658 167.697 26.4888 179.032Z" fill="#474463" fill-opacity="0.95"/>
<path opacity="0.1" d="M6.52047 150.291C10.5235 157.9 20.5932 167.903 25.7267 179.074C27.0676 174.035 28.7033 168.822 28.7033 168.822C28.7033 168.822 34.9771 133.808 16.4195 124.759C13.3446 124.449 10.2692 125.346 7.79383 127.273C5.15015 136.595 3.90137 145.31 6.52047 150.291Z" fill="black"/>
<path d="M75.1704 97.1484H79.3245L130.599 120.967L178.565 115.995L182.7 127.809L138.869 141.684L121.502 144.998L81.8054 133.397C81.8054 133.397 57.8325 99.0197 75.1704 97.1484Z" fill="#474463" fill-opacity="0.95"/>
<path d="M55.8495 215.324C55.8495 215.324 79.2164 218.953 73.8831 225.534C68.5499 232.116 47.8496 225.196 47.8496 225.196L55.8495 215.324Z" fill="#FFB9B9"/>
<path opacity="0.1" d="M29.7564 192.125C29.2778 202.058 25.8722 213.545 24.6504 221.899C31.3952 228.758 37.8092 234.808 40.2264 234.908C45.2206 235.116 53.25 234.376 56.2078 235.574C59.1656 236.772 60.9004 216.423 60.9004 216.423C60.9004 216.423 59.1351 209.901 51.2606 206.348C45.9454 203.945 35.7571 197.427 29.7564 192.125Z" fill="black"/>
<path d="M24.1996 89.1758C24.1996 89.1758 -0.907836 116.409 0.0253852 145.711C0.958606 175.012 -1.7955 193.716 5.15214 199.217C12.0998 204.718 34.6676 229.651 39.7716 229.854C44.8755 230.056 53.0815 229.336 56.1043 230.501C59.1271 231.666 60.9 211.879 60.9 211.879C60.9 211.879 59.0959 205.536 51.0483 202.082C43.0007 198.627 24.041 186.379 24.1994 182.204C24.3577 178.03 28.9951 163.582 28.9951 163.582C28.9951 163.582 43.278 98.2934 24.1996 89.1758Z" fill="#474463" fill-opacity="0.95"/>
<path d="M59.45 99.3265C72.263 99.3265 82.65 89.4264 82.65 77.2141C82.65 65.0017 72.263 55.1016 59.45 55.1016C46.637 55.1016 36.25 65.0017 36.25 77.2141C36.25 89.4264 46.637 99.3265 59.45 99.3265Z" fill="#FFB9B9"/>
<path d="M75.8907 45.7517C76.4269 46.2073 77.0692 46.5251 77.7601 46.6768C78.107 46.7377 78.4642 46.6609 78.7539 46.4631C79.0435 46.2653 79.242 45.9625 79.3061 45.6208C79.8148 46.661 80.3887 47.7697 81.4273 48.3034C82.4659 48.8372 84.0719 48.3896 84.2216 47.2443C84.3732 48.1139 84.7634 48.926 85.3498 49.5926C85.9942 50.1983 87.1628 50.3513 87.7254 49.6708C87.2705 52.1217 87.5513 54.6421 87.4084 57.1297C87.2656 59.6173 86.5929 62.2545 84.6868 63.8902C81.907 66.2758 77.7269 65.687 74.0703 65.235C73.5174 65.1206 72.9436 65.1516 72.4066 65.3248C71.0375 65.8999 71.0996 67.7792 71.0811 69.2465C70.9695 71.821 69.9361 74.2731 68.1645 76.1676C66.3929 78.062 63.9977 79.276 61.4043 79.5941C59.9529 79.815 58.472 79.4586 57.287 78.6033C56.2488 77.7357 55.7185 76.3214 54.5289 75.6696C52.5937 74.6094 50.2468 76.1557 48.832 77.8346C47.4171 79.5135 46.0227 81.5787 43.8309 81.886C40.9322 82.2925 38.7243 79.3796 37.6411 76.6975C36.1467 72.9383 35.4307 68.9221 35.5354 64.8857C35.6401 60.8493 36.5634 56.8745 38.2508 53.1955C44.3035 40.1861 64.9796 38.1285 75.8907 45.7517Z" fill="#353535" fill-opacity="0.9"/>
</svg>
