<svg width="70" height="70" viewBox="0 0 70 70" fill="none" xmlns="http://www.w3.org/2000/svg">
<path opacity="0.4" fill-rule="evenodd" clip-rule="evenodd" d="M62.7787 28.4445C60.9146 16.972 51.1701 8.43718 39.5521 8.10121C38.9997 8.07955 38.4614 8.27844 38.0558 8.65402C37.6501 9.02961 37.4105 9.55108 37.3896 10.1035V10.1035V10.2904L38.6978 29.8594C38.7836 31.1767 39.9161 32.1781 41.234 32.102L60.8565 30.7938C61.4094 30.7529 61.9232 30.4932 62.284 30.0723C62.6448 29.6514 62.8228 29.1039 62.7787 28.5512V28.4445Z" stroke="#CEAC6A" stroke-width="4.375" stroke-linecap="round" stroke-linejoin="round"/>
<path d="M25.9644 19.7389C27.2126 19.4502 28.4899 20.0888 29.0079 21.2606C29.1436 21.5363 29.2251 21.8353 29.2482 22.1417C29.5151 25.9327 30.0758 34.2355 30.3961 38.7206C30.4508 39.5285 30.8252 40.2813 31.4365 40.8125C32.0478 41.3436 32.8455 41.6092 33.6532 41.5505V41.5505L50.1253 40.536C50.8607 40.4918 51.5817 40.7534 52.1176 41.259C52.6534 41.7645 52.9566 42.469 52.9553 43.2057V43.2057C52.2877 53.1526 45.1412 61.4682 35.4077 63.6236C25.6742 65.7791 15.6851 61.2582 10.8805 52.523C9.44623 50.009 8.53793 47.2296 8.21078 44.3537C8.07092 43.4711 8.01727 42.577 8.0506 41.684C8.07893 31.0615 15.5392 21.9088 25.9377 19.7389" stroke="#CEAC6A" stroke-width="4.375" stroke-linecap="round" stroke-linejoin="round"/>
</svg>
