<svg width="70" height="70" viewBox="0 0 70 70" fill="none" xmlns="http://www.w3.org/2000/svg">
<rect width="70" height="70" rx="35" transform="matrix(1 0 0 -1 0 70)" fill="#E3D0AA" fill-opacity="0.3"/>
<path opacity="0.4" d="M33.75 42.1155C33.75 41.4255 34.31 40.8555 35 40.8555C35.69 40.8555 36.25 41.4071 36.25 42.0971V42.1155C36.25 42.8055 35.69 43.3655 35 43.3655C34.31 43.3655 33.75 42.8055 33.75 42.1155Z" fill="#4F4F4F"/>
<path d="M22.9919 49.03H47.1286C49.0403 48.93 50.5103 47.3016 50.4119 45.39C50.3903 45.0033 50.3069 44.6216 50.1603 44.265L38.0319 23.0383C37.1053 21.3633 34.9969 20.7566 33.3219 21.685C32.7519 21.9983 32.2819 22.4683 31.9669 23.0383L19.8386 44.265C19.1186 46.0383 19.9719 48.0583 21.7436 48.78C22.1036 48.925 22.4836 49.0083 22.8703 49.03" stroke="#4F4F4F" stroke-width="2.5" stroke-linecap="round" stroke-linejoin="round"/>
<path opacity="0.4" d="M34.9818 37.3288V32.1621" stroke="#4F4F4F" stroke-width="2.5" stroke-linecap="round" stroke-linejoin="round"/>
</svg>
