<?xml version="1.0" encoding="UTF-8" standalone="no"?>
<svg
   width="17"
   height="17"
   viewBox="0 0 17 17"
   fill="none"
   version="1.1"
   id="svg908"
   sodipodi:docname="icon-footer-youtube-hover.svg"
   inkscape:version="1.1 (c4e8f9ed74, 2021-05-24)"
   xmlns:inkscape="http://www.inkscape.org/namespaces/inkscape"
   xmlns:sodipodi="http://sodipodi.sourceforge.net/DTD/sodipodi-0.dtd"
   xmlns="http://www.w3.org/2000/svg"
   xmlns:svg="http://www.w3.org/2000/svg">
  <defs
     id="defs912" />
  <sodipodi:namedview
     id="namedview910"
     pagecolor="#ffffff"
     bordercolor="#666666"
     borderopacity="1.0"
     inkscape:pageshadow="2"
     inkscape:pageopacity="0.0"
     inkscape:pagecheckerboard="0"
     showgrid="false"
     inkscape:zoom="42.764706"
     inkscape:cx="0.31568088"
     inkscape:cy="8.4298487"
     inkscape:window-width="1920"
     inkscape:window-height="966"
     inkscape:window-x="0"
     inkscape:window-y="34"
     inkscape:window-maximized="1"
     inkscape:current-layer="svg908" />
  <path
     d="M16.6538 4.56312C16.4111 3.66605 15.7026 2.95882 14.8069 2.718C13.5313 2.36944 9.01116 2.35938 8.49993 2.35938C7.98907 2.35938 3.47194 2.36904 2.1993 2.70342C2.19701 2.70406 2.19475 2.70465 2.19249 2.70528C1.30992 2.9472 0.585004 3.67723 0.34561 4.56502C0.345311 4.56625 0.344979 4.56744 0.344647 4.56867C0.00391795 5.86159 0 8.39472 0 8.50193C0 8.60967 0.00391795 11.1559 0.345643 12.4388C0.587759 13.3368 1.29664 14.0449 2.19472 14.2863C3.482 14.6344 7.99013 14.6445 8.49993 14.6445C9.01083 14.6445 13.528 14.6348 14.8006 14.3004C14.8018 14.3001 14.803 14.2997 14.8042 14.2994C15.7033 14.0577 16.4122 13.3497 16.6543 12.4517C16.6546 12.4505 16.6549 12.4493 16.6553 12.4481C16.9942 11.1621 16.9999 8.64918 16.9999 8.51677C17.0005 8.38974 17.0077 5.85562 16.6538 4.56312ZM15.6717 8.51485C15.6717 9.19677 15.6178 11.1706 15.3714 12.1077C15.2518 12.5489 14.9032 12.8969 14.4611 13.0164C13.5205 13.2624 9.83971 13.3163 8.49993 13.3164C7.16365 13.3164 3.48821 13.2603 2.54049 13.004C2.09694 12.8848 1.74731 12.5357 1.62847 12.0951C1.33197 10.9818 1.32812 8.52653 1.32812 8.50193C1.32812 7.82004 1.38207 5.84659 1.62834 4.90933C1.74757 4.46923 2.1052 4.10765 2.54036 3.98702C3.48382 3.74145 7.16096 3.68753 8.49993 3.68749C9.83957 3.68749 13.5212 3.74347 14.4594 3.99987C14.9029 4.1191 15.2526 4.46816 15.3719 4.91079C15.3721 4.91166 15.3724 4.91255 15.3726 4.91342C15.6278 5.84456 15.6751 7.82648 15.6717 8.51485Z"
     fill="#BCBCBC"
     id="path904" />
  <path
     d="M6.31152 5.00781V11.9908L12.3536 8.49931L6.31152 5.00781ZM7.63964 7.30921L9.69912 8.49934L7.63964 9.68947V7.30921Z"
     fill="#BCBCBC"
     id="path906" />
  <path
     style="fill:#ceac6a;stroke-width:0.0233838"
     d="M 6.4188446,14.610848 C 3.9196879,14.538618 2.6994485,14.433299 2.0694635,14.235451 1.3156129,13.998703 0.68830856,13.388899 0.41458709,12.626742 -0.0052128,11.45784 -0.1196395,7.572599 0.20076331,5.366575 0.34839854,4.3500831 0.53632563,3.9155946 1.0509257,3.4009945 1.3789072,3.073013 1.6977186,2.8715121 2.0811554,2.7498504 2.7990502,2.5220674 4.5966835,2.4061007 7.7984869,2.3810207 11.296641,2.3536194 13.973173,2.488891 14.84126,2.7369613 c 0.827985,0.2366109 1.501068,0.8920219 1.770986,1.7244885 0.331066,1.0210582 0.469874,3.7685572 0.304451,6.0261702 -0.08234,1.123753 -0.209571,1.876243 -0.388388,2.297082 -0.288063,0.677946 -0.844091,1.196481 -1.558053,1.452993 -0.512352,0.184078 -1.793441,0.298687 -4.085112,0.365464 -0.685818,0.01998 -3.8522704,0.02543 -4.4662994,0.0077 z m 4.2792294,-1.317112 c 1.908281,-0.05087 3.107646,-0.132087 3.65956,-0.247822 0.454504,-0.09531 0.826014,-0.404345 0.979616,-0.814882 0.333914,-0.892466 0.445312,-4.466781 0.200457,-6.4318573 C 15.430438,4.9382886 15.321298,4.6183859 15.03832,4.3354082 14.723123,4.020211 14.400023,3.9265158 13.317056,3.8362629 12.072261,3.7325234 10.819448,3.6961496 8.4883081,3.6960664 6.1303211,3.6959823 4.8445291,3.7330345 3.6127923,3.8365625 2.5498111,3.9259065 2.3028106,3.9995378 1.9733386,4.3252864 1.7132812,4.5824051 1.6167898,4.8145295 1.5210465,5.4133425 1.2418148,7.1597574 1.2729032,10.528859 1.5810315,11.91403 c 0.075464,0.339245 0.1684342,0.530817 0.3516933,0.724691 0.1769499,0.1872 0.3535773,0.29613 0.5922721,0.365266 0.4470825,0.129493 1.8140326,0.236255 3.6833937,0.287681 0.9828128,0.02704 3.5093159,0.0282 4.4896834,0.0021 z"
     id="path1843" />
  <path
     style="fill:#ceac6a;stroke-width:0.0233838"
     d="M 6.3136176,8.4999986 V 5.0185067 L 6.787697,5.2919218 C 10.074966,7.187784 12.322475,8.4905317 12.322294,8.5 12.322177,8.5064305 11.141163,9.1933704 9.6978305,10.026533 8.2544983,10.859696 6.9025963,11.6404 6.6936039,11.761432 L 6.3136176,11.981491 Z M 8.6858785,9.0962861 C 9.2450048,8.7747593 9.7025208,8.5064305 9.7025812,8.5 9.7027032,8.4870035 7.6599945,7.3074278 7.6373663,7.3074278 c -0.00784,0 -0.014258,0.5375344 -0.014258,1.1945208 0,0.7758365 0.00809,1.1917888 0.023088,1.1867262 0.012699,-0.00429 0.4805553,-0.2708619 1.0396822,-0.5923887 z"
     id="path1882" />
  <path
     style="fill:#ceac6a;stroke-width:0.0233838"
     d="M 5.869326,14.58758 C 5.785729,14.583965 5.4437414,14.569828 5.1093535,14.556164 3.6544189,14.496711 2.7318128,14.403697 2.1994252,14.262793 1.3464667,14.037045 0.64101159,13.356359 0.38691675,12.513922 -5.1610854e-4,11.22941 -0.09827,7.5080905 0.20039439,5.4133425 0.34559929,4.3949161 0.5271052,3.9582075 1.0148366,3.4537701 1.6724419,2.7736404 2.179067,2.6145812 4.0804677,2.4912898 5.8040865,2.3795262 9.9346115,2.3542544 11.902338,2.4434333 c 1.625288,0.073659 2.577326,0.1797826 3.058441,0.3409233 0.675254,0.2261637 1.264702,0.773173 1.552498,1.440722 0.280006,0.6494785 0.429067,1.9062275 0.455732,3.8423217 0.03044,2.2104007 -0.141319,3.9776187 -0.461305,4.7462607 -0.263907,0.633933 -0.881499,1.19427 -1.571648,1.425945 -0.47483,0.159395 -1.585382,0.267196 -3.501393,0.339879 -0.532181,0.02019 -5.1309849,0.02688 -5.565337,0.0081 z m 5.015818,-1.293823 c 1.779105,-0.05164 2.941552,-0.133765 3.481027,-0.245921 0.388847,-0.08084 0.74646,-0.35134 0.911572,-0.689514 0.143885,-0.294698 0.233933,-0.769455 0.306031,-1.61348 C 15.710401,9.2624631 15.689529,6.951209 15.538902,5.7757909 15.428816,4.9167381 15.307197,4.5808143 15.004402,4.2994465 14.682469,4.000295 14.314616,3.9076344 13.071527,3.8125638 10.82627,3.6408481 6.0991913,3.640887 3.8583219,3.8126396 3.2369172,3.8602675 2.7067264,3.9289804 2.5248222,3.9854616 2.1992538,4.0865507 1.8937176,4.3376776 1.7365046,4.6333973 1.5491742,4.9857684 1.4219807,5.8282987 1.3539978,7.1671252 c -0.031099,0.6124426 -0.015226,2.6939109 0.02425,3.1801928 0.096588,1.189788 0.2109419,1.801902 0.3894556,2.084687 0.158978,0.251837 0.4307507,0.469041 0.6948306,0.555317 0.4432525,0.144813 1.9020171,0.262645 3.8861589,0.313905 0.6836172,0.01766 3.8503021,0.01245 4.5364511,-0.0075 z"
     id="path1921" />
  <path
     style="fill:#4f4f4f;stroke-width:0.0233838;fill-opacity:1"
     d="M 5.4834938,14.578063 C 3.5729209,14.50085 2.5287147,14.390207 2.0110041,14.21012 1.2585457,13.948376 0.6319034,13.299885 0.39106494,12.5337 -0.02199886,11.219611 -0.10621097,7.2218944 0.23590213,5.1678129 0.37486134,4.3334878 0.56192064,3.9222152 1.0161027,3.452447 1.6282768,2.8192651 2.1118817,2.6437489 3.5660248,2.526996 5.419419,2.3781873 9.6818662,2.3359079 11.986289,2.443475 c 1.521376,0.071016 2.526836,0.1845431 2.967631,0.3350782 0.785738,0.2683359 1.434826,0.9432076 1.669058,1.7353571 0.165895,0.5610422 0.276539,1.4745649 0.33268,2.7467499 0.03019,0.6841086 0.01542,2.4576716 -0.02503,3.0048148 -0.107079,1.448574 -0.242639,2.202678 -0.481307,2.677441 -0.307564,0.611813 -0.929208,1.129753 -1.582471,1.318481 -0.518316,0.149742 -1.621755,0.253826 -3.373732,0.318236 -0.723562,0.0266 -5.3424135,0.02539 -6.0096282,-0.0016 z m 6.0797802,-1.306846 c 1.391691,-0.05856 2.37307,-0.137211 2.782668,-0.223017 0.364835,-0.07643 0.728103,-0.328954 0.893841,-0.621354 0.189682,-0.334642 0.297863,-0.968699 0.384726,-2.254907 0.04025,-0.5959239 0.04039,-2.8470211 2.34e-4,-3.4257217 C 15.548208,5.6436694 15.443551,5.0186184 15.276707,4.6676611 15.117213,4.332162 14.788939,4.0791444 14.381018,3.9773068 13.824599,3.8383967 12.429028,3.7469461 10.207015,3.7037878 6.7326505,3.636305 3.1643452,3.7741123 2.4818634,4.0021317 2.0983596,4.1302617 1.7793182,4.4546506 1.6520391,4.845865 1.4520399,5.4605976 1.3324378,6.8189935 1.3333933,8.4649243 1.3345227,10.410585 1.478521,11.8501 1.7200774,12.33051 c 0.1403006,0.279032 0.3849197,0.506578 0.6768225,0.629586 0.3613012,0.152252 1.7420644,0.274448 3.7723847,0.333852 0.847258,0.02479 4.6449754,0.0088 5.3939894,-0.02273 z"
     id="path1960" />
  <path
     style="fill:#4f4f4f;fill-opacity:1;stroke-width:0.0233838"
     d="m 6.3136176,8.5 c 0,-2.7631033 0.00593,-3.4635009 0.02923,-3.4544552 0.028804,0.011181 4.4932974,2.589393 5.4599624,3.1530875 C 12.076026,8.3579539 12.299526,8.4935695 12.299476,8.5 12.299429,8.50643 11.967233,8.7048035 11.561268,8.9408285 10.1941,9.7356917 6.3723404,11.942602 6.3428473,11.954254 6.3195431,11.963461 6.3136176,11.263211 6.3136176,8.5 Z M 8.4766162,9.2194543 C 9.548856,8.6044074 9.7036391,8.5136531 9.7036571,8.5 9.7036739,8.4871878 9.5974311,8.4247253 8.4426626,7.7586344 8.0124338,7.5104707 7.6520315,7.3074278 7.6417686,7.3074278 c -0.021989,0 -0.025661,2.3469653 -0.00371,2.3689196 0.00822,0.00822 0.021378,0.011398 0.02923,0.00705 0.00785,-0.00434 0.372048,-0.2131208 0.8093244,-0.4639468 z"
     id="path2036" />
</svg>
