<svg width="70" height="70" viewBox="0 0 70 70" fill="none" xmlns="http://www.w3.org/2000/svg">
<path opacity="0.4" d="M46.7246 31.8341C52.0359 31.8341 56.3409 27.5291 56.3409 22.2178C56.3409 16.9095 52.0359 12.6016 46.7246 12.6016" stroke="#CEAC6A" stroke-width="4.375" stroke-linecap="round" stroke-linejoin="round"/>
<path d="M51.1475 42.2812C52.7341 42.3892 54.3091 42.6167 55.8637 42.9608C58.0191 43.3896 60.615 44.2733 61.5366 46.2071C62.1258 47.4467 62.1258 48.8904 61.5366 50.13C60.6179 52.0637 58.0191 52.9475 55.8637 53.3908" stroke="#CEAC6A" stroke-width="4.375" stroke-linecap="round" stroke-linejoin="round"/>
<path fill-rule="evenodd" clip-rule="evenodd" d="M27.9744 44.3555C38.7369 44.3555 47.9302 45.9859 47.9302 52.4988C47.9302 59.0146 38.7952 60.7005 27.9744 60.7005C17.2119 60.7005 8.02148 59.073 8.02148 52.5571C8.02148 46.0413 17.1536 44.3555 27.9744 44.3555Z" stroke="#CEAC6A" stroke-width="4.375" stroke-linecap="round" stroke-linejoin="round"/>
<path opacity="0.4" fill-rule="evenodd" clip-rule="evenodd" d="M27.9742 35.0567C20.875 35.0567 15.1875 29.3663 15.1875 22.2671C15.1875 15.1709 20.875 9.48047 27.9742 9.48047C35.0733 9.48047 40.7637 15.1709 40.7637 22.2671C40.7637 29.3663 35.0733 35.0567 27.9742 35.0567Z" stroke="#CEAC6A" stroke-width="4.375" stroke-linecap="round" stroke-linejoin="round"/>
</svg>
