<svg width="70" height="70" viewBox="0 0 70 70" fill="none" xmlns="http://www.w3.org/2000/svg">
<rect width="70" height="70" rx="35" transform="matrix(1 0 0 -1 0 70)" fill="#E3D0AA" fill-opacity="0.3"/>
<path opacity="0.4" d="M20.1543 30.6728H49.8609" stroke="#4F4F4F" stroke-width="2.5" stroke-linecap="round" stroke-linejoin="round"/>
<path opacity="0.4" fill-rule="evenodd" clip-rule="evenodd" d="M26.3457 37.1836C26.3457 36.4932 26.9053 35.9336 27.5957 35.9336H27.6111C28.3015 35.9336 28.8611 36.4932 28.8611 37.1836C28.8611 37.8739 28.3015 38.4336 27.6111 38.4336H27.5957C26.9053 38.4336 26.3457 37.8739 26.3457 37.1836ZM35.0078 35.9336C34.3175 35.9336 33.7578 36.4932 33.7578 37.1836C33.7578 37.8739 34.3175 38.4336 35.0078 38.4336H35.0233C35.7136 38.4336 36.2733 37.8739 36.2733 37.1836C36.2733 36.4932 35.7136 35.9336 35.0233 35.9336H35.0078ZM42.4036 35.9336C41.7133 35.9336 41.1536 36.4932 41.1536 37.1836C41.1536 37.8739 41.7133 38.4336 42.4036 38.4336H42.4191C43.1094 38.4336 43.6691 37.8739 43.6691 37.1836C43.6691 36.4932 43.1094 35.9336 42.4191 35.9336H42.4036ZM42.4036 42.4115C41.7133 42.4115 41.1536 42.9711 41.1536 43.6615C41.1536 44.3518 41.7133 44.9115 42.4036 44.9115H42.4191C43.1094 44.9115 43.6691 44.3518 43.6691 43.6615C43.6691 42.9711 43.1094 42.4115 42.4191 42.4115H42.4036ZM33.7578 43.6615C33.7578 42.9711 34.3175 42.4115 35.0078 42.4115H35.0233C35.7136 42.4115 36.2733 42.9711 36.2733 43.6615C36.2733 44.3518 35.7136 44.9115 35.0233 44.9115H35.0078C34.3175 44.9115 33.7578 44.3518 33.7578 43.6615ZM27.5957 42.4115C26.9053 42.4115 26.3457 42.9711 26.3457 43.6615C26.3457 44.3518 26.9053 44.9115 27.5957 44.9115H27.6111C28.3015 44.9115 28.8611 44.3518 28.8611 43.6615C28.8611 42.9711 28.3015 42.4115 27.6111 42.4115H27.5957Z" fill="#4F4F4F"/>
<path d="M41.7388 18.332V23.8167" stroke="#4F4F4F" stroke-width="2.5" stroke-linecap="round" stroke-linejoin="round"/>
<path d="M28.2749 18.332V23.8167" stroke="#4F4F4F" stroke-width="2.5" stroke-linecap="round" stroke-linejoin="round"/>
<path fill-rule="evenodd" clip-rule="evenodd" d="M42.0638 20.9648H27.9516C23.0571 20.9648 20 23.6914 20 28.7032V43.786C20 48.8766 23.0571 51.6662 27.9516 51.6662H42.0483C46.9583 51.6662 49.9999 48.9239 49.9999 43.912V28.7032C50.0154 23.6914 46.9737 20.9648 42.0638 20.9648Z" stroke="#4F4F4F" stroke-width="2.5" stroke-linecap="round" stroke-linejoin="round"/>
</svg>
