<svg width="70" height="70" viewBox="0 0 70 70" fill="none" xmlns="http://www.w3.org/2000/svg">
<path opacity="0.4" d="M44.3242 33.2197C46.9948 33.2197 49.1612 31.0548 49.1612 28.3842C49.1612 25.7137 46.9948 23.5488 44.3242 23.5488" stroke="#4F4F4F" stroke-width="2.67858" stroke-linecap="round" stroke-linejoin="round"/>
<path d="M46.5479 38.4746C47.3454 38.5296 48.1383 38.6427 48.919 38.8184C50.0037 39.0307 51.3084 39.4753 51.7728 40.4485C52.0692 41.0718 52.0692 41.7975 51.7728 42.4224C51.3099 43.3956 50.0037 43.8386 48.919 44.0617" stroke="#4F4F4F" stroke-width="2.67858" stroke-linecap="round" stroke-linejoin="round"/>
<path opacity="0.4" d="M25.4834 33.2197C22.8129 33.2197 20.6465 31.0548 20.6465 28.3842C20.6465 25.7137 22.8129 23.5488 25.4834 23.5488" stroke="#4F4F4F" stroke-width="2.67858" stroke-linecap="round" stroke-linejoin="round"/>
<path d="M23.2594 38.4746C22.4619 38.5296 21.669 38.6427 20.8883 38.8184C19.8036 39.0307 18.4989 39.4753 18.0359 40.4485C17.738 41.0718 17.738 41.7975 18.0359 42.4224C18.4973 43.3956 19.8036 43.8386 20.8883 44.0617" stroke="#4F4F4F" stroke-width="2.67858" stroke-linecap="round" stroke-linejoin="round"/>
<path fill-rule="evenodd" clip-rule="evenodd" d="M34.8958 39.5156C40.3072 39.5156 44.9302 40.3345 44.9302 43.6116C44.9302 46.8872 40.3377 47.7366 34.8958 47.7366C29.4829 47.7366 24.8613 46.9177 24.8613 43.6406C24.8613 40.3635 29.4538 39.5156 34.8958 39.5156Z" stroke="#4F4F4F" stroke-width="2.67858" stroke-linecap="round" stroke-linejoin="round"/>
<path opacity="0.4" fill-rule="evenodd" clip-rule="evenodd" d="M34.8962 34.8409C31.3273 34.8409 28.4658 31.9793 28.4658 28.4089C28.4658 24.84 31.3273 21.9785 34.8962 21.9785C38.4651 21.9785 41.3267 24.84 41.3267 28.4089C41.3267 31.9793 38.4651 34.8409 34.8962 34.8409Z" stroke="#4F4F4F" stroke-width="2.67858" stroke-linecap="round" stroke-linejoin="round"/>
<rect width="70" height="70" rx="35" transform="matrix(1 0 0 -1 0 70)" fill="#E3D0AA" fill-opacity="0.3"/>
</svg>
