<svg width="16" height="16" viewBox="0 0 16 16" fill="none" xmlns="http://www.w3.org/2000/svg">
<g clip-path="url(#clip0)">
<path d="M8.00279 3.89062C5.73413 3.89062 3.89746 5.72929 3.89746 7.99596C3.89746 10.2646 5.73613 12.1013 8.00279 12.1013C10.2715 12.1013 12.1081 10.2626 12.1081 7.99596C12.1081 5.72729 10.2695 3.89062 8.00279 3.89062ZM8.00279 10.6606C6.53013 10.6606 5.33813 9.46796 5.33813 7.99596C5.33813 6.52396 6.53079 5.33129 8.00279 5.33129C9.47479 5.33129 10.6675 6.52396 10.6675 7.99596C10.6681 9.46796 9.47546 10.6606 8.00279 10.6606Z" fill="#BCBCBC"/>
<path d="M11.2988 0.0502577C9.82682 -0.0184089 6.18082 -0.0150755 4.70749 0.0502577C3.41282 0.110924 2.27082 0.42359 1.35015 1.34426C-0.188515 2.88292 0.00815151 4.95625 0.00815151 7.99691C0.00815151 11.1089 -0.165182 13.1342 1.35015 14.6496C2.89482 16.1936 4.99815 15.9916 8.00282 15.9916C11.0855 15.9916 12.1495 15.9936 13.2395 15.5716C14.7215 14.9962 15.8402 13.6716 15.9495 11.2922C16.0188 9.81957 16.0148 6.17425 15.9495 4.70092C15.8175 1.89225 14.3102 0.188924 11.2988 0.0502577ZM13.6288 13.6316C12.6202 14.6402 11.2208 14.5502 7.98349 14.5502C4.65015 14.5502 3.31348 14.5996 2.33815 13.6216C1.21482 12.5036 1.41815 10.7082 1.41815 7.98624C1.41815 4.30292 1.04015 1.65025 4.73682 1.46092C5.58615 1.43092 5.83615 1.42092 7.97415 1.42092L8.00415 1.44092C11.5568 1.44092 14.3442 1.06892 14.5115 4.76492C14.5495 5.60825 14.5582 5.86158 14.5582 7.99624C14.5575 11.2909 14.6202 12.6356 13.6288 13.6316Z" fill="#BCBCBC"/>
<path d="M12.2709 4.68819C12.8007 4.68819 13.2302 4.25868 13.2302 3.72886C13.2302 3.19904 12.8007 2.76953 12.2709 2.76953C11.741 2.76953 11.3115 3.19904 11.3115 3.72886C11.3115 4.25868 11.741 4.68819 12.2709 4.68819Z" fill="#BCBCBC"/>
</g>
<defs>
<clipPath id="clip0">
<rect width="16" height="16" fill="white"/>
</clipPath>
</defs>
</svg>
