<?xml version="1.0" encoding="UTF-8" standalone="no"?>
<svg
   width="21"
   height="21"
   viewBox="0 0 21 21"
   fill="none"
   version="1.1"
   id="svg4"
   sodipodi:docname="icon-menu-close.svg"
   inkscape:version="1.1 (c4e8f9ed74, 2021-05-24)"
   xmlns:inkscape="http://www.inkscape.org/namespaces/inkscape"
   xmlns:sodipodi="http://sodipodi.sourceforge.net/DTD/sodipodi-0.dtd"
   xmlns="http://www.w3.org/2000/svg"
   xmlns:svg="http://www.w3.org/2000/svg">
  <defs
     id="defs8" />
  <sodipodi:namedview
     id="namedview6"
     pagecolor="#ffffff"
     bordercolor="#666666"
     borderopacity="1.0"
     inkscape:pageshadow="2"
     inkscape:pageopacity="0.0"
     inkscape:pagecheckerboard="0"
     showgrid="false"
     inkscape:zoom="34.619048"
     inkscape:cx="10.5"
     inkscape:cy="10.413343"
     inkscape:window-width="1920"
     inkscape:window-height="966"
     inkscape:window-x="0"
     inkscape:window-y="34"
     inkscape:window-maximized="1"
     inkscape:current-layer="svg4" />
  <path
     d="M20.9541 2.096L18.8541 -0.0039978L10.4771 8.377L2.09609 1.90735e-06L-0.00390625 2.1L8.37709 10.477L9.34601e-05 18.858L2.10009 20.958L10.4771 12.577L18.8581 20.958L20.9581 18.858L12.5771 10.477L20.9541 2.096Z"
     fill="black"
     id="path2" />
  <path
     style="fill:#ffffff;stroke-width:0.0288858"
     d="M 1.0613759,19.89494 0.02882983,18.862096 0.79624016,18.096797 C 1.2183158,17.675883 3.0990483,15.787098 4.9756455,13.899497 L 8.3876403,10.467495 4.2011355,6.2809154 0.01463074,2.094336 1.054333,1.0543328 2.0940353,0.01432954 6.2826119,4.202832 l 4.1885771,4.1885025 4.188364,-4.1884396 4.188365,-4.18843953 1.03989,1.03988993 1.03989,1.03989 -4.188365,4.1884396 -4.188364,4.1884391 4.195686,4.195761 4.195687,4.195761 -1.040004,1.039702 -1.040003,1.039703 -4.181205,-4.181131 c -2.299662,-2.299621 -4.195902,-4.18113 -4.213866,-4.18113 -0.01796,0 -1.9051957,1.878301 -4.1938491,4.174003 -2.2886531,2.295701 -4.1653061,4.174002 -4.1703401,4.174002 -0.00503,0 -0.4737986,-0.46478 -1.0416989,-1.032845 z"
     id="path1068" />
</svg>
