<svg width="70" height="70" viewBox="0 0 70 70" fill="none" xmlns="http://www.w3.org/2000/svg">
<rect width="70" height="70" rx="35" transform="matrix(1 0 0 -1 0 70)" fill="#E3D0AA" fill-opacity="0.3"/>
<path fill-rule="evenodd" clip-rule="evenodd" d="M31.4604 40.3457C25.0537 40.3457 19.582 41.314 19.582 45.194C19.582 49.0724 25.0187 50.0774 31.4604 50.0774C37.867 50.0774 43.3387 49.1074 43.3387 45.229C43.3387 41.3507 37.902 40.3457 31.4604 40.3457Z" stroke="#4F4F4F" stroke-width="2.67858" stroke-linecap="round" stroke-linejoin="round"/>
<path opacity="0.4" fill-rule="evenodd" clip-rule="evenodd" d="M31.461 34.8106C35.6877 34.8106 39.0743 31.4223 39.0743 27.1973C39.0743 22.9707 35.6877 19.584 31.461 19.584C27.236 19.584 23.8477 22.9707 23.8477 27.1973C23.8477 31.4223 27.236 34.8106 31.461 34.8106Z" stroke="#4F4F4F" stroke-width="2.67858" stroke-linecap="round" stroke-linejoin="round"/>
<path d="M47.0062 29.4512V36.1345" stroke="#4F4F4F" stroke-width="2.67858" stroke-linecap="round" stroke-linejoin="round"/>
<path d="M50.4153 32.7923H43.5986" stroke="#4F4F4F" stroke-width="2.67858" stroke-linecap="round" stroke-linejoin="round"/>
</svg>
