<svg width="70" height="70" viewBox="0 0 70 70" fill="none" xmlns="http://www.w3.org/2000/svg">
<rect width="70" height="70" rx="35" transform="matrix(1 0 0 -1 0 70)" fill="#E3D0AA" fill-opacity="0.3"/>
<path opacity="0.4" d="M41.1935 42.0384H29.1602" stroke="#4F4F4F" stroke-width="2.5" stroke-linecap="round" stroke-linejoin="round"/>
<path opacity="0.4" d="M41.1935 35.0618H29.1602" stroke="#4F4F4F" stroke-width="2.5" stroke-linecap="round" stroke-linejoin="round"/>
<path opacity="0.4" d="M33.7538 28.099H29.1621" stroke="#4F4F4F" stroke-width="2.5" stroke-linecap="round" stroke-linejoin="round"/>
<path fill-rule="evenodd" clip-rule="evenodd" d="M41.5153 19.584C41.5153 19.584 28.7203 19.5907 28.7003 19.5907C24.1003 19.619 21.252 22.6457 21.252 27.2623V42.589C21.252 47.229 24.122 50.2673 28.762 50.2673C28.762 50.2673 41.5553 50.2623 41.577 50.2623C46.177 50.234 49.027 47.2057 49.027 42.589V27.2623C49.027 22.6223 46.1553 19.584 41.5153 19.584Z" stroke="#4F4F4F" stroke-width="2.5" stroke-linecap="round" stroke-linejoin="round"/>
</svg>
