<?xml version="1.0" encoding="UTF-8" standalone="no"?>
<svg
   width="18"
   height="18"
   viewBox="0 0 18 18"
   fill="none"
   version="1.1"
   id="svg981"
   sodipodi:docname="icon-footer-search-hover.svg"
   inkscape:version="1.1 (c4e8f9ed74, 2021-05-24)"
   xmlns:inkscape="http://www.inkscape.org/namespaces/inkscape"
   xmlns:sodipodi="http://sodipodi.sourceforge.net/DTD/sodipodi-0.dtd"
   xmlns="http://www.w3.org/2000/svg"
   xmlns:svg="http://www.w3.org/2000/svg">
  <defs
     id="defs985" />
  <sodipodi:namedview
     id="namedview983"
     pagecolor="#ffffff"
     bordercolor="#666666"
     borderopacity="1.0"
     inkscape:pageshadow="2"
     inkscape:pageopacity="0.0"
     inkscape:pagecheckerboard="0"
     showgrid="false"
     inkscape:zoom="40.388889"
     inkscape:cx="9.0123796"
     inkscape:cy="8.9257221"
     inkscape:window-width="1920"
     inkscape:window-height="966"
     inkscape:window-x="0"
     inkscape:window-y="34"
     inkscape:window-maximized="1"
     inkscape:current-layer="svg981" />
  <circle
     cx="9"
     cy="9"
     stroke="#bcbcbc"
     stroke-width="1.5"
     stroke-linecap="round"
     stroke-linejoin="round"
     id="circle971"
     r="8" />
  <path
     d="M16 12.5C16 12.5 13.4599 11.0117 9.00981 11.0117C4.55971 11.0117 2 12.5 2 12.5"
     stroke="#BCBCBC"
     stroke-width="1.5"
     stroke-linecap="round"
     stroke-linejoin="round"
     id="path973" />
  <path
     d="M16.1299 6.33863C16.1299 6.33863 12.5699 4.55859 9.00978 4.55859C5.4497 4.55859 1.5 6.5 1.5 6.5"
     stroke="#BCBCBC"
     stroke-width="1.5"
     stroke-linecap="round"
     stroke-linejoin="round"
     id="path975" />
  <path
     d="M6.3395 1.89028C6.3395 1.89028 5.68592 5.45263 5.69817 9.01269C5.71041 12.5728 6.38848 16.1305 6.38848 16.1305"
     stroke="#BCBCBC"
     stroke-width="1.5"
     stroke-linecap="round"
     stroke-linejoin="round"
     id="path977" />
  <path
     d="M10.4997 1.50112C10.4997 1.50112 11.5001 5.44165 11.5123 9.00139C11.5246 12.5611 10 16.4975 10 16.4975"
     stroke="#BCBCBC"
     stroke-width="1.5"
     stroke-linecap="round"
     stroke-linejoin="round"
     id="path979" />
  <path
     style="fill:#4f4f4f;stroke-width:0.0247593;fill-opacity:1"
     d="M 8.4429161,17.72555 C 8.3952545,17.720051 8.2340124,17.703734 8.0846005,17.68929 6.4519037,17.53146 4.8258656,16.859868 3.5051422,15.797866 3.0164083,15.404873 2.4313392,14.801257 2.0398334,14.286107 0.0426014,11.658117 -0.30072662,8.1140766 1.1545171,5.147335 2.2725984,2.8679514 4.3824907,1.150806 6.8211829,0.53549322 7.598831,0.33928281 8.1423317,0.27343922 8.9876204,0.27303532 c 0.6896518,-3.2953e-4 0.9654207,0.0216954 1.5475626,0.12359955 2.202362,0.38552411 4.179023,1.62080603 5.526083,3.45343393 1.007541,1.370726 1.587327,3.0209179 1.663691,4.7352132 0.113369,2.545047 -0.823041,4.915684 -2.638357,6.679326 -0.703243,0.683224 -1.374746,1.156198 -2.248911,1.584022 -0.929461,0.454886 -1.804786,0.710488 -2.8844565,0.842287 -0.2162251,0.0264 -1.3553369,0.05252 -1.5103164,0.03463 z m 0.866575,-1.477964 c 0,-0.0038 0.067609,-0.201551 0.1502433,-0.439477 0.3033693,-0.873486 0.6170216,-1.97897 0.8252176,-2.908522 0.150779,-0.673198 0.220133,-1.055041 0.195992,-1.079082 -0.01108,-0.01103 -0.354397,-0.03364 -0.7629247,-0.05024 -0.5693814,-0.02313 -0.8960363,-0.02358 -1.3992866,-0.0019 -0.5885713,0.02534 -1.6163332,0.111072 -1.7051821,0.142244 -0.040565,0.01423 -0.036427,0.07491 0.072509,1.063278 0.1061681,0.963247 0.3963729,2.987627 0.4343717,3.030043 0.0393,0.04387 0.9480593,0.207439 1.297725,0.233581 0.1431176,0.0107 0.8913343,0.01918 0.8913343,0.0101 z m 2.0210199,-0.374901 c 1.33547,-0.458516 2.474096,-1.26169 3.354881,-2.366495 0.201467,-0.252709 0.417772,-0.56169 0.417772,-0.59677 0,-0.0423 -0.722488,-0.316018 -1.266014,-0.479639 -0.604036,-0.181836 -1.81259,-0.458467 -1.84805,-0.423007 -0.0058,0.0058 -0.05863,0.253573 -0.117472,0.550685 -0.212439,1.072625 -0.575638,2.461952 -0.852601,3.26141 -0.02787,0.08043 -0.05066,0.150069 -0.05066,0.154746 0,0.01957 0.05936,0.003 0.362148,-0.10093 z M 5.4965612,15.314468 c 0,-0.01315 -0.027516,-0.205344 -0.061146,-0.427098 -0.081695,-0.538686 -0.2229615,-1.682848 -0.2767607,-2.241565 -0.035887,-0.372692 -0.050222,-0.451836 -0.081825,-0.451734 -0.078839,2.53e-4 -0.820381,0.205399 -1.2143815,0.335955 -0.4950082,0.164026 -0.9477346,0.340688 -0.9588984,0.374179 -0.011796,0.03539 0.1869195,0.321578 0.4550574,0.655367 0.5095277,0.634281 1.1621686,1.207667 1.8563145,1.630889 0.247702,0.151025 0.2816393,0.165967 0.2816397,0.124007 z M 2.9215956,11.285367 c 0.4646956,-0.173379 1.0637963,-0.355097 1.6183981,-0.490889 0.2432825,-0.05957 0.4467439,-0.112715 0.452136,-0.118107 0.00539,-0.0054 -0.00336,-0.398133 -0.019461,-0.8727577 C 4.9410941,8.8725271 4.9678059,7.5764322 5.0389831,6.5859697 5.0884896,5.8970672 5.0920438,5.9472646 4.9951857,5.9674095 4.8388085,5.9999336 3.6708309,6.3980062 3.2310867,6.5686533 2.7544189,6.753629 2.0285445,7.0607159 2.0014633,7.0888548 1.9924331,7.0982379 1.9565887,7.234044 1.9218089,7.3906465 1.6347444,8.6832089 1.6934378,9.9847231 2.0950362,11.231919 l 0.1096049,0.340387 0.1789724,-0.0765 c 0.098435,-0.04207 0.3405268,-0.136772 0.5379821,-0.210443 z m 12.9706634,-0.0137 C 16.093978,10.650232 16.197512,10.105989 16.243163,9.4270977 16.287534,8.767235 16.223647,8.0195266 16.063222,7.3211368 16.016698,7.1186036 16.001412,7.0847232 15.946388,7.0621794 15.911569,7.0479139 15.749381,6.9753585 15.58597,6.9009455 14.945984,6.6095136 14.044836,6.2672972 13.318808,6.0399772 12.864555,5.89775 12.052945,5.6788297 12.037431,5.6943438 c -0.0065,0.0065 0.01781,0.2933408 0.05402,0.6374189 0.169013,1.6058397 0.204438,3.0420552 0.09974,4.0437293 l -0.01549,0.148225 0.306235,0.05609 c 1.064628,0.195 2.207346,0.525382 3.042136,0.879542 0.142984,0.06066 0.262169,0.111491 0.264854,0.112955 0.0027,0.0015 0.04918,-0.133824 0.103333,-0.30064 z M 6.8335626,10.387674 C 7.7282854,10.2816 9.432307,10.243203 10.2844,10.309916 c 0.216186,0.01693 0.401821,0.02159 0.412522,0.01036 0.0107,-0.01123 0.03318,-0.248819 0.04996,-0.5279799 0.04697,-0.7816093 0.0063,-2.005744 -0.101952,-3.0701513 C 10.607734,6.3565146 10.497907,5.4525954 10.486637,5.4193771 10.453508,5.3217225 8.5027835,5.2844086 7.823934,5.3684443 7.390466,5.4221039 6.6392,5.5464945 6.6174943,5.5682005 c -0.018736,0.018736 -0.088418,0.8765039 -0.1339681,1.649131 -0.035097,0.595308 -0.044944,2.9646275 -0.012988,3.1250465 0.016539,0.08303 0.024903,0.09097 0.085452,0.08114 0.036915,-0.006 0.1618229,-0.02212 0.2775726,-0.03585 z M 3.3301238,4.9526183 C 3.7940083,4.7877893 4.4648361,4.573258 4.9023384,4.4498231 l 0.3342503,-0.094304 0.077927,-0.605545 C 5.3573749,3.4169244 5.40843,3.0358337 5.4279711,2.9031061 L 5.4634999,2.661783 5.3500444,2.7266799 C 4.4254956,3.2555226 3.4770117,4.1586608 2.9116102,5.0485355 c -0.044544,0.070107 -0.044526,0.071467 7.155e-4,0.053983 0.025525,-0.00987 0.213535,-0.07732 0.4177991,-0.1498999 z m 11.7458582,0.08137 C 15.021535,4.9322525 14.798564,4.6300439 14.592668,4.3789172 13.989899,3.6437343 13.176229,2.9883565 12.322139,2.5501005 11.974252,2.3715904 11.449547,2.1468902 11.429653,2.1679011 c -0.0057,0.006 0.05413,0.3395955 0.132916,0.7413149 0.07879,0.4017194 0.161773,0.8367041 0.18441,0.9666324 l 0.04116,0.2362338 0.419912,0.093057 c 0.770574,0.1707665 1.665017,0.4353787 2.43707,0.7209832 0.231499,0.085638 0.429656,0.1571021 0.440348,0.1588085 0.01069,0.00171 0.0064,-0.021217 -0.0095,-0.050942 z M 7.2420908,3.9510312 C 7.9577943,3.8474876 8.4738167,3.818086 9.2723521,3.8353519 c 0.4085282,0.00883 0.7901309,0.022499 0.8480059,0.030369 0.09367,0.012737 0.105227,0.00884 0.105227,-0.035506 0,-0.1692317 -0.3904454,-1.9836221 -0.437955,-2.0351665 C 9.7586584,1.763616 9.6422506,1.7580713 9.0300692,1.7589643 8.2366856,1.7601215 7.9046958,1.7951465 7.3410757,1.9371534 l -0.2712731,0.068349 -0.04354,0.2599725 C 6.9559618,2.6852322 6.784044,3.8893667 6.784044,3.962004 c 0,0.056799 0.0083,0.064693 0.055708,0.052962 0.03064,-0.00758 0.2116919,-0.036353 0.4023388,-0.063935 z"
     id="path1594" />
</svg>
