<svg width="18" height="18" viewBox="0 0 18 18" fill="none" xmlns="http://www.w3.org/2000/svg">
<circle cx="9" cy="9" r="8" stroke="#BCBCBC" stroke-width="1.5" stroke-linecap="round" stroke-linejoin="round"/>
<path d="M16 12.5C16 12.5 13.4599 11.0117 9.00981 11.0117C4.55971 11.0117 2 12.5 2 12.5" stroke="#BCBCBC" stroke-width="1.5" stroke-linecap="round" stroke-linejoin="round"/>
<path d="M16.1299 6.33863C16.1299 6.33863 12.5699 4.55859 9.00978 4.55859C5.4497 4.55859 1.5 6.5 1.5 6.5" stroke="#BCBCBC" stroke-width="1.5" stroke-linecap="round" stroke-linejoin="round"/>
<path d="M6.3395 1.89028C6.3395 1.89028 5.68592 5.45263 5.69817 9.01269C5.71041 12.5728 6.38848 16.1305 6.38848 16.1305" stroke="#BCBCBC" stroke-width="1.5" stroke-linecap="round" stroke-linejoin="round"/>
<path d="M10.4997 1.50112C10.4997 1.50112 11.5001 5.44165 11.5123 9.00139C11.5246 12.5611 10 16.4975 10 16.4975" stroke="#BCBCBC" stroke-width="1.5" stroke-linecap="round" stroke-linejoin="round"/>
</svg>
