<svg width="70" height="70" viewBox="0 0 70 70" fill="none" xmlns="http://www.w3.org/2000/svg">
<rect width="70" height="70" rx="35" transform="matrix(1 0 0 -1 0 70)" fill="#E3D0AA" fill-opacity="0.3"/>
<path fill-rule="evenodd" clip-rule="evenodd" d="M35.785 43.5704C35.6658 44.5469 35.6308 45.5076 35.3643 46.5015C34.9401 47.9182 33.8304 48.7846 32.633 48.7496C32.065 48.7636 31.2656 48.4177 30.7274 47.9653L24.4497 42.8665H20.9523C19.2658 42.8665 18.1299 41.7171 17.9002 39.8236C17.5724 37.4934 17.6039 33.2836 17.9002 30.9063C18.1299 29.2643 19.2658 27.9699 20.9523 27.9699H24.4497L30.5977 22.9584C31.1359 22.5025 32.065 22.0728 32.633 22.085C33.8304 22.0501 34.9401 22.9182 35.3643 24.3331C35.601 25.2379 35.6658 26.2895 35.785 27.266C36.0708 29.549 36.0708 41.2874 35.785 43.5704Z" stroke="#4F4F4F" stroke-width="2.67858" stroke-linecap="round" stroke-linejoin="round"/>
<path opacity="0.4" d="M42.4043 26.7695C43.9176 28.9462 44.826 31.8662 44.826 35.1162C44.826 38.3662 43.9176 41.2845 42.4043 43.4612" stroke="#4F4F4F" stroke-width="2.67858" stroke-linecap="round" stroke-linejoin="round"/>
<path opacity="0.4" d="M48.123 21.666C50.5614 25.1727 52.0247 29.876 52.0247 35.1127C52.0247 40.3493 50.5614 45.0543 48.123 48.561" stroke="#4F4F4F" stroke-width="2.67858" stroke-linecap="round" stroke-linejoin="round"/>
</svg>
