<svg width="70" height="70" viewBox="0 0 70 70" fill="none" xmlns="http://www.w3.org/2000/svg">
<rect width="70" height="70" rx="35" transform="matrix(1 0 0 -1 0 70)" fill="#E3D0AA" fill-opacity="0.3"/>
<circle opacity="0.4" cx="34.2974" cy="26.2954" r="7.96339" stroke="#4F4F4F" stroke-width="2.5" stroke-linecap="round" stroke-linejoin="round"/>
<path fill-rule="evenodd" clip-rule="evenodd" d="M21.666 45.3353C21.6639 44.7755 21.7891 44.2225 22.0322 43.7182C22.795 42.1926 24.946 41.3841 26.7309 41.018C28.0181 40.7433 29.3232 40.5597 30.6363 40.4688C33.0674 40.2552 35.5126 40.2552 37.9437 40.4688C39.2567 40.5608 40.5617 40.7443 41.8491 41.018C43.634 41.3841 45.785 42.1164 46.5478 43.7182C47.0366 44.7462 47.0366 45.9396 46.5478 46.9676C45.785 48.5694 43.634 49.3017 41.8491 49.6526C40.5633 49.9387 39.2578 50.1274 37.9437 50.217C35.965 50.3848 33.977 50.4154 31.994 50.3086C31.5364 50.3086 31.094 50.3086 30.6363 50.217C29.3271 50.1285 28.0265 49.9398 26.7461 49.6526C24.946 49.3017 22.8102 48.5694 22.0322 46.9676C21.7903 46.4575 21.6653 45.8998 21.666 45.3353Z" stroke="#4F4F4F" stroke-width="2.5" stroke-linecap="round" stroke-linejoin="round"/>
</svg>
