<?xml version="1.0" encoding="UTF-8" standalone="no"?>
<svg
   width="16"
   height="16"
   viewBox="0 0 16 16"
   fill="none"
   version="1.1"
   id="svg843"
   sodipodi:docname="icon-footer-instagram-hover.svg"
   inkscape:version="1.1 (c4e8f9ed74, 2021-05-24)"
   xmlns:inkscape="http://www.inkscape.org/namespaces/inkscape"
   xmlns:sodipodi="http://sodipodi.sourceforge.net/DTD/sodipodi-0.dtd"
   xmlns="http://www.w3.org/2000/svg"
   xmlns:svg="http://www.w3.org/2000/svg">
  <sodipodi:namedview
     id="namedview845"
     pagecolor="#ffffff"
     bordercolor="#666666"
     borderopacity="1.0"
     inkscape:pageshadow="2"
     inkscape:pageopacity="0.0"
     inkscape:pagecheckerboard="0"
     showgrid="false"
     inkscape:zoom="22.71875"
     inkscape:cx="-5.5240715"
     inkscape:cy="5.656121"
     inkscape:window-width="1920"
     inkscape:window-height="966"
     inkscape:window-x="0"
     inkscape:window-y="34"
     inkscape:window-maximized="1"
     inkscape:current-layer="svg843" />
  <g
     clip-path="url(#clip0)"
     id="g836">
    <path
       d="M8.00279 3.89062C5.73413 3.89062 3.89746 5.72929 3.89746 7.99596C3.89746 10.2646 5.73613 12.1013 8.00279 12.1013C10.2715 12.1013 12.1081 10.2626 12.1081 7.99596C12.1081 5.72729 10.2695 3.89062 8.00279 3.89062ZM8.00279 10.6606C6.53013 10.6606 5.33813 9.46796 5.33813 7.99596C5.33813 6.52396 6.53079 5.33129 8.00279 5.33129C9.47479 5.33129 10.6675 6.52396 10.6675 7.99596C10.6681 9.46796 9.47546 10.6606 8.00279 10.6606Z"
       fill="#BCBCBC"
       id="path830" />
    <path
       d="M11.2988 0.0502577C9.82682 -0.0184089 6.18082 -0.0150755 4.70749 0.0502577C3.41282 0.110924 2.27082 0.42359 1.35015 1.34426C-0.188515 2.88292 0.00815151 4.95625 0.00815151 7.99691C0.00815151 11.1089 -0.165182 13.1342 1.35015 14.6496C2.89482 16.1936 4.99815 15.9916 8.00282 15.9916C11.0855 15.9916 12.1495 15.9936 13.2395 15.5716C14.7215 14.9962 15.8402 13.6716 15.9495 11.2922C16.0188 9.81957 16.0148 6.17425 15.9495 4.70092C15.8175 1.89225 14.3102 0.188924 11.2988 0.0502577ZM13.6288 13.6316C12.6202 14.6402 11.2208 14.5502 7.98349 14.5502C4.65015 14.5502 3.31348 14.5996 2.33815 13.6216C1.21482 12.5036 1.41815 10.7082 1.41815 7.98624C1.41815 4.30292 1.04015 1.65025 4.73682 1.46092C5.58615 1.43092 5.83615 1.42092 7.97415 1.42092L8.00415 1.44092C11.5568 1.44092 14.3442 1.06892 14.5115 4.76492C14.5495 5.60825 14.5582 5.86158 14.5582 7.99624C14.5575 11.2909 14.6202 12.6356 13.6288 13.6316Z"
       fill="#BCBCBC"
       id="path832" />
    <path
       d="M12.2709 4.68819C12.8007 4.68819 13.2302 4.25868 13.2302 3.72886C13.2302 3.19904 12.8007 2.76953 12.2709 2.76953C11.741 2.76953 11.3115 3.19904 11.3115 3.72886C11.3115 4.25868 11.741 4.68819 12.2709 4.68819Z"
       fill="#BCBCBC"
       id="path834" />
  </g>
  <defs
     id="defs841">
    <clipPath
       id="clip0">
      <rect
         width="16"
         height="16"
         fill="white"
         id="rect838" />
    </clipPath>
  </defs>
  <path
     style="fill:#4f4f4f;stroke-width:0.0220083;fill-opacity:1"
     d="M 5.1719395,15.974428 C 3.6097864,15.907965 2.6402568,15.63894 1.826685,15.046185 0.97512339,14.425752 0.42839489,13.531722 0.19884474,12.384284 0.03532598,11.566912 0.01990692,11.190239 0.01712228,7.9449794 0.01437297,4.7408982 0.02596334,4.4635033 0.19887428,3.5950662 0.58087113,1.6765048 1.933895,0.41712839 3.9174691,0.13384816 4.6082027,0.03520241 6.0086968,0.00139359 8.7152682,0.01802627 11.28594,0.03382381 11.724417,0.05538049 12.434663,0.20088142 c 0.611717,0.12531628 1.295771,0.4123949 1.736726,0.7288556 0.827242,0.59368778 1.397179,1.51718238 1.62687,2.63609298 0.131427,0.640228 0.150811,0.9559249 0.181337,2.9532613 0.02518,1.6478457 0.0011,4.1794007 -0.04638,4.8811837 -0.09375,1.384906 -0.494005,2.419925 -1.233132,3.188774 -0.780941,0.812344 -1.745708,1.213785 -3.204302,1.333314 -0.557346,0.04567 -1.8409057,0.06551 -4.0019768,0.06185 -1.1983494,-0.002 -2.2431912,-0.0064 -2.3218707,-0.0098 z m 5.6451165,-1.438794 c 1.528288,-0.07113 2.273503,-0.320152 2.870211,-0.959101 0.535394,-0.573294 0.745733,-1.204687 0.842294,-2.52839 0.04005,-0.549077 0.04009,-5.3420749 4.4e-5,-6.0899356 -0.05164,-0.964502 -0.15709,-1.4552603 -0.42459,-1.9760891 C 13.791018,2.3707568 13.29314,1.9652995 12.561348,1.7250004 12.053526,1.5582465 11.518006,1.4791412 10.64099,1.441331 9.9115684,1.409884 4.9774609,1.4262438 4.5777166,1.4614348 3.4816304,1.5579274 2.8061931,1.8204694 2.2982743,2.3474529 1.7743386,2.8910541 1.5152469,3.6730348 1.4317179,4.9628611 c -0.032217,0.4974765 -0.03432,5.8012679 -0.00246,6.2063269 0.096226,1.223451 0.3735548,1.950307 0.9547858,2.50242 0.633799,0.602047 1.4363715,0.824911 3.1400295,0.871944 0.6410113,0.0177 4.8788668,0.01136 5.2929848,-0.0079 z"
     id="path2138" />
  <path
     style="fill:#4f4f4f;fill-opacity:1;stroke-width:0.0220083"
     d="M 7.5500201,12.068275 C 7.1134988,12.022689 6.5816995,11.864521 6.173315,11.658814 4.9463522,11.04078 4.1380451,9.907086 3.9385458,8.5244292 3.903927,8.2844987 3.9092536,7.6730696 3.9482269,7.4131636 4.1234055,6.2449285 4.7605374,5.2396426 5.7444247,4.5790684 6.152636,4.3049986 6.7199566,4.0738735 7.2429172,3.9685861 7.4598057,3.9249201 7.5609246,3.918033 7.9889959,3.9177715 c 0.5219609,-3.188e-4 0.6537593,0.014133 1.045392,0.1146289 1.3482511,0.3459711 2.4420701,1.3814886 2.8683461,2.715462 0.417411,1.3062348 0.155536,2.7275515 -0.701082,3.8050946 -0.297579,0.374326 -0.710659,0.731444 -1.134811,0.98107 -0.7418277,0.436589 -1.6354812,0.626286 -2.5168209,0.534248 z m 0.8927642,-1.439318 c 0.398948,-0.06948 0.7064801,-0.19217 1.0425945,-0.415931 C 10.265704,9.693543 10.706589,8.8219922 10.6661,7.8789546 10.61344,6.6524635 9.7418036,5.6283361 8.5392022,5.3799615 8.2491889,5.3200648 7.8036776,5.3144032 7.5258738,5.3670842 5.90604,5.6742594 4.9406095,7.3363031 5.4851364,8.8803301 c 0.3199967,0.9073631 1.1082831,1.5758159 2.0619718,1.7485159 0.2287377,0.04142 0.6581815,0.04148 0.8956761,1.1e-4 z"
     id="path2214" />
  <path
     style="fill:#4f4f4f;fill-opacity:1;stroke-width:0.0440165"
     d="M 11.99703,4.6344647 C 11.890244,4.6052399 11.74506,4.5085366 11.619575,4.3830516 11.275974,4.0394506 11.233838,3.6019106 11.505663,3.2001763 c 0.340529,-0.5032739 1.060285,-0.5454043 1.46392,-0.085689 0.179923,0.2049202 0.250037,0.4274313 0.226005,0.7172324 -0.04692,0.5658365 -0.632109,0.9577696 -1.198558,0.802745 z"
     id="path2253" />
</svg>
