<svg width="17" height="17" viewBox="0 0 17 17" fill="none" xmlns="http://www.w3.org/2000/svg">
<path d="M16.6538 4.56312C16.4111 3.66605 15.7026 2.95882 14.8069 2.718C13.5313 2.36944 9.01116 2.35938 8.49993 2.35938C7.98907 2.35938 3.47194 2.36904 2.1993 2.70342C2.19701 2.70406 2.19475 2.70465 2.19249 2.70528C1.30992 2.9472 0.585004 3.67723 0.34561 4.56502C0.345311 4.56625 0.344979 4.56744 0.344647 4.56867C0.00391795 5.86159 0 8.39472 0 8.50193C0 8.60967 0.00391795 11.1559 0.345643 12.4388C0.587759 13.3368 1.29664 14.0449 2.19472 14.2863C3.482 14.6344 7.99013 14.6445 8.49993 14.6445C9.01083 14.6445 13.528 14.6348 14.8006 14.3004C14.8018 14.3001 14.803 14.2997 14.8042 14.2994C15.7033 14.0577 16.4122 13.3497 16.6543 12.4517C16.6546 12.4505 16.6549 12.4493 16.6553 12.4481C16.9942 11.1621 16.9999 8.64918 16.9999 8.51677C17.0005 8.38974 17.0077 5.85562 16.6538 4.56312ZM15.6717 8.51485C15.6717 9.19677 15.6178 11.1706 15.3714 12.1077C15.2518 12.5489 14.9032 12.8969 14.4611 13.0164C13.5205 13.2624 9.83971 13.3163 8.49993 13.3164C7.16365 13.3164 3.48821 13.2603 2.54049 13.004C2.09694 12.8848 1.74731 12.5357 1.62847 12.0951C1.33197 10.9818 1.32812 8.52653 1.32812 8.50193C1.32812 7.82004 1.38207 5.84659 1.62834 4.90933C1.74757 4.46923 2.1052 4.10765 2.54036 3.98702C3.48382 3.74145 7.16096 3.68753 8.49993 3.68749C9.83957 3.68749 13.5212 3.74347 14.4594 3.99987C14.9029 4.1191 15.2526 4.46816 15.3719 4.91079C15.3721 4.91166 15.3724 4.91255 15.3726 4.91342C15.6278 5.84456 15.6751 7.82648 15.6717 8.51485Z" fill="#BCBCBC"/>
<path d="M6.31152 5.00781V11.9908L12.3536 8.49931L6.31152 5.00781ZM7.63964 7.30921L9.69912 8.49934L7.63964 9.68947V7.30921Z" fill="#BCBCBC"/>
</svg>
