<svg width="70" height="70" viewBox="0 0 70 70" fill="none" xmlns="http://www.w3.org/2000/svg">
<rect width="70" height="70" rx="35" transform="matrix(1 0 0 -1 0 70)" fill="#E3D0AA" fill-opacity="0.3"/>
<path fill-rule="evenodd" clip-rule="evenodd" d="M19.9836 23.1219C20.5108 22.2473 23.4173 19.0723 25.4885 19.1681C26.1081 19.2212 26.6559 19.5943 27.1009 20.0291H27.1027C28.1228 21.0286 31.0499 24.8009 31.2142 25.5951C31.6199 27.5429 29.2971 28.6657 30.0075 30.6288C31.8185 35.0601 34.9389 38.1803 39.3723 39.9894C41.334 40.7014 42.4569 38.3805 44.4048 38.7845C45.1991 38.9505 48.9734 41.8756 49.9714 42.8974V42.8974C50.4044 43.3407 50.781 43.8901 50.8324 44.5097C50.9094 46.6919 47.5373 49.6375 46.88 50.0141C45.3291 51.1249 43.3059 51.1044 40.8393 49.9576C33.9564 47.0941 22.9568 36.3027 20.0401 29.1603C18.924 26.7076 18.8487 24.6708 19.9836 23.1219Z" stroke="#4F4F4F" stroke-width="2.5" stroke-linecap="round" stroke-linejoin="round"/>
<path opacity="0.4" d="M39.2754 19.584C45.4454 20.269 50.3171 25.1357 51.0104 31.304" stroke="#4F4F4F" stroke-width="2.5" stroke-linecap="round" stroke-linejoin="round"/>
<path opacity="0.4" d="M39.2754 25.4883C42.2254 26.0633 44.5304 28.3683 45.1054 31.3183" stroke="#4F4F4F" stroke-width="2.5" stroke-linecap="round" stroke-linejoin="round"/>
</svg>
