<?xml version="1.0" encoding="UTF-8" standalone="no"?>
<svg
   width="25"
   height="25"
   viewBox="0 0 25 25"
   fill="none"
   version="1.1"
   id="svg4"
   sodipodi:docname="logo-telegram.svg"
   inkscape:version="1.1 (c4e8f9ed74, 2021-05-24)"
   xmlns:inkscape="http://www.inkscape.org/namespaces/inkscape"
   xmlns:sodipodi="http://sodipodi.sourceforge.net/DTD/sodipodi-0.dtd"
   xmlns="http://www.w3.org/2000/svg"
   xmlns:svg="http://www.w3.org/2000/svg">
  <defs
     id="defs8" />
  <sodipodi:namedview
     id="namedview6"
     pagecolor="#ffffff"
     bordercolor="#666666"
     borderopacity="1.0"
     inkscape:pageshadow="2"
     inkscape:pageopacity="0.0"
     inkscape:pagecheckerboard="0"
     showgrid="false"
     inkscape:zoom="19.771793"
     inkscape:cx="18.182468"
     inkscape:cy="16.715732"
     inkscape:window-width="1920"
     inkscape:window-height="966"
     inkscape:window-x="0"
     inkscape:window-y="34"
     inkscape:window-maximized="1"
     inkscape:current-layer="svg4"
     fit-margin-top="0"
     fit-margin-left="0"
     fit-margin-right="0"
     fit-margin-bottom="0" />
  <path
     d="m 8.1270344,15.194592 1.6544701,-0.72191 -0.46426,0.46749 c -0.1487801,0.14947 -0.2321401,0.35194 -0.2321401,0.56183 v 3.11133 c 0,0.7123 0.8567801,1.0579 1.3505906,0.5618 l 1.6608,-1.6685 3.61916,1.818 c 0.4685,0.2353 1.0351,-0.0435 1.1322,-0.5693 l 2.0649,-11.4073719 c 0.1087,-0.61378 -0.4928,-1.109892 -1.0678,-0.8830369 L 4.4277005,11.740882 c -0.6014322,0.23534 -0.681623,1.06219 -0.137168,1.41095 l 3.095792,1.98445 c 0.22158,0.14205 0.5012,0.16431 0.7407099,0.05831 z m 8.9750206,-6.7282599 -1.6217,8.9628999 -3.18655,-1.59966 c -0.3081,-0.15477 -0.67529,-0.09011 -0.9127,0.14947 l -0.71328,0.71659 v -0.86182 l 3.17282,-3.18763 c 0.61511,-0.61802 -0.07702,-1.63781 -0.87471,-1.29116 l -5.0826305,2.21554 -1.4286701,-0.9159 z"
     fill="#ceac6a"
     id="path2" />
  <g
     style="fill:none"
     id="g1085">
    <path
       d="M 12.5,25 C 19.3927,25 25,19.3927 25,12.5 25,5.60729 19.3927,0 12.5,0 5.60729,0 0,5.60729 0,12.5 0,19.3927 5.60729,25 12.5,25 Z m 0,-23.4375 c 6.0312,0 10.9375,4.90625 10.9375,10.9375 0,6.0312 -4.9063,10.9375 -10.9375,10.9375 C 6.46875,23.4375 1.5625,18.5312 1.5625,12.5 1.5625,6.46875 6.46875,1.5625 12.5,1.5625 Z"
       fill="#ceac6a"
       id="path1076" />
  </g>
</svg>
