<svg width="53" height="31" viewBox="0 0 53 31" fill="none" xmlns="http://www.w3.org/2000/svg">
<path d="M44.9032 16.3736L49.7005 15.3163L51.3773 11.4548C51.3773 11.4548 49.6066 9.56986 48.117 8.00703C46.6273 6.44421 45.9275 4.83505 43.3659 3.41C40.8042 1.98495 37.9163 2.4906 36.9382 2.95031C35.96 3.41003 34.1437 4.23749 33.1187 7.17961C32.0937 10.1217 33.6781 13.3857 34.3767 14.581C35.0752 15.7763 44.9032 29.2914 44.9032 29.2914L40.5252 29.2914C40.5252 29.2914 33.9107 22.8554 28.9733 19.3617C24.0359 15.8679 21.1018 14.9945 14.8138 11.225C8.52579 7.4554 6.75575 3.7318 6.75575 3.7318L21.2414 3.7318C21.2414 3.7318 25.3702 3.7318 27.576 5.52464C29.7818 7.31749 31.0227 9.89178 29.2993 12.65C27.576 15.4083 22.6254 15.3163 22.6254 15.3163L7.87368 15.3163" stroke="#CEAC6A" stroke-width="1.9001"/>
<path d="M42.7108 3.2258C42.7108 3.2258 38.2863 5.2485 39.2179 8.46641C40.1494 11.6843 45.8319 14.7184 44.0619 19.2694C42.2919 23.8205 38.3326 24.6939 34.0474 23.9124C29.7623 23.1309 24.4524 21.1216 19.8412 23.1769C15.23 25.2322 13.088 29.3369 13.088 29.3369H8.94205L13.833 15.5458H14.8578L23.428 29.3369L28.5982 29.3369L27.1543 26.7166" stroke="#CEAC6A" stroke-width="1.9001"/>
<path d="M7.82621 14.3965H9.78245V16.2353H6.14941L7.82621 14.3965Z" fill="#CEAC6A"/>
<path d="M7.82621 14.3965H9.78245V16.2353H6.14941L7.82621 14.3965Z" fill="#CEAC6A"/>
<path d="M27.9247 26.1728L28.8364 27.9329L27.1775 28.7699L25.5237 25.5773L27.9247 26.1728Z" fill="#CEAC6A"/>
<path d="M27.9247 26.1728L28.8364 27.9329L27.1775 28.7699L25.5237 25.5773L27.9247 26.1728Z" fill="#CEAC6A"/>
<path d="M1.63022 14.3965H5.49616L3.81937 16.2353H0L1.63022 14.3965Z" fill="#CEAC6A"/>
<path d="M1.63022 14.3965H5.49616L3.81937 16.2353H0L1.63022 14.3965Z" fill="#CEAC6A"/>
</svg>
