<svg width="131" height="17" viewBox="0 0 131 17" fill="none" xmlns="http://www.w3.org/2000/svg">
<path d="M0.638 2.14C0.447333 2.14 0.300667 2.074 0.198 1.942C0.11 1.81 0.066 1.656 0.066 1.48C0.066 1.348 0.117333 1.22333 0.22 1.106C0.322667 0.973999 0.447333 0.907999 0.594 0.907999H5.06L9.152 13.514L13.486 0.907999H16.764V16.462H14.564V3.636L10.516 15.472C10.4427 15.692 10.318 15.912 10.142 16.132C9.966 16.352 9.702 16.462 9.35 16.462H7.942L3.718 3.68V16.462H1.892V3.944C1.892 3.40133 1.81133 2.96867 1.65 2.646C1.50333 2.30867 1.166 2.14 0.638 2.14ZM29.2177 2.052V16.462H26.9517V3.944C26.9517 3.38667 26.8417 2.94667 26.6217 2.624C26.4017 2.30133 26.0424 2.12533 25.5437 2.096C25.3237 2.096 25.1624 2.03733 25.0597 1.92C24.9571 1.80267 24.9057 1.656 24.9057 1.48C24.9057 1.33333 24.9644 1.20133 25.0817 1.084C25.2137 0.966666 25.3531 0.907999 25.4997 0.907999H28.0737C28.4697 0.907999 28.7557 1.04 28.9317 1.304C29.1224 1.55333 29.2177 1.80267 29.2177 2.052ZM45.2643 9.862L50.0823 16.462H47.3983L42.4263 9.554C42.2796 9.334 42.2576 9.07 42.3603 8.762C42.463 8.454 42.683 8.3 43.0203 8.3H44.7363C45.0443 8.3 45.3596 8.256 45.6823 8.168C46.0196 8.06533 46.3203 7.904 46.5843 7.684C46.8483 7.464 47.0683 7.17067 47.2443 6.804C47.4203 6.42267 47.5083 5.946 47.5083 5.374C47.5083 4.33267 47.2076 3.592 46.6063 3.152C46.0196 2.69733 45.279 2.47 44.3843 2.47C44.267 2.47 44.113 2.47733 43.9223 2.492C43.7316 2.492 43.5336 2.49933 43.3283 2.514C43.123 2.514 42.9323 2.52133 42.7563 2.536C42.595 2.55067 42.485 2.558 42.4263 2.558C42.265 2.58733 42.1403 2.61667 42.0523 2.646C41.9643 2.66067 41.8983 2.69733 41.8543 2.756C41.8103 2.82933 41.781 2.94667 41.7663 3.108C41.7516 3.25467 41.7443 3.46733 41.7443 3.746V16.462H39.5003V3.834C39.5003 3.218 39.405 2.8 39.2143 2.58C39.0236 2.34533 38.679 2.19867 38.1803 2.14C37.931 2.12533 37.7696 2.052 37.6963 1.92C37.623 1.788 37.5863 1.656 37.5863 1.524C37.5716 1.37733 37.623 1.238 37.7403 1.106C37.8576 0.973999 37.9896 0.907999 38.1363 0.907999H42.9543C43.2916 0.907999 43.695 0.915332 44.1643 0.929999C44.6336 0.944666 45.0516 0.959333 45.4183 0.973999C45.9463 1.00333 46.4743 1.11333 47.0023 1.304C47.545 1.49467 48.029 1.77333 48.4543 2.14C48.8796 2.50667 49.2243 2.96133 49.4883 3.504C49.767 4.032 49.9136 4.65533 49.9283 5.374C49.9283 5.99 49.8036 6.562 49.5543 7.09C49.3196 7.618 48.997 8.08 48.5863 8.476C48.161 8.872 47.6623 9.19467 47.0903 9.444C46.5183 9.67867 45.9096 9.818 45.2643 9.862ZM56.8109 16.462L61.4529 4.076C61.4969 3.944 61.5335 3.834 61.5629 3.746C61.5922 3.64333 61.6215 3.548 61.6509 3.46C61.6802 3.372 61.7022 3.284 61.7169 3.196C61.7462 3.108 61.7682 3.00533 61.7829 2.888C61.7829 2.77067 61.7682 2.67533 61.7389 2.602C61.7095 2.514 61.6435 2.426 61.5409 2.338C61.4529 2.26467 61.3209 2.21333 61.1449 2.184C60.9835 2.14 60.8149 2.118 60.6389 2.118C60.4629 2.118 60.3235 2.05933 60.2209 1.942C60.1182 1.82467 60.0669 1.66333 60.0669 1.458C60.0669 1.282 60.1182 1.14267 60.2209 1.04C60.3382 0.937333 60.4629 0.885999 60.5949 0.885999H64.5989L70.5389 16.462H68.0089L66.1169 11.49H60.7049L58.8349 16.462H56.8109ZM63.3669 4.12L61.2769 9.972H65.6109L63.3669 4.12ZM80.9829 3.9V13.448C80.9829 13.5947 80.9829 13.7267 80.9829 13.844C80.9829 13.9613 80.9902 14.0713 81.0049 14.174C81.0195 14.4233 81.0929 14.5993 81.2249 14.702C81.3569 14.8047 81.5109 14.878 81.6869 14.922C81.8629 14.9513 82.0535 14.9587 82.2589 14.944C82.4642 14.9293 82.6475 14.922 82.8089 14.922C83.5422 14.922 84.2609 14.812 84.9649 14.592C85.6689 14.3573 86.2409 13.976 86.6809 13.448C87.1209 12.964 87.4655 12.348 87.7149 11.6C87.9789 10.852 88.1109 9.884 88.1109 8.696C88.1109 7.75733 88.0375 6.90667 87.8909 6.144C87.7442 5.38133 87.4802 4.72867 87.0989 4.186C86.7322 3.64333 86.2262 3.22533 85.5809 2.932C84.9502 2.624 84.1435 2.45533 83.1609 2.426C83.0729 2.426 82.9409 2.43333 82.7649 2.448C82.6035 2.448 82.4422 2.448 82.2809 2.448C82.1049 2.46267 81.9435 2.47733 81.7969 2.492C81.6502 2.492 81.5622 2.492 81.5329 2.492C81.3569 2.536 81.2322 2.58733 81.1589 2.646C81.1002 2.70467 81.0562 2.822 81.0269 2.998C80.9975 3.05667 80.9755 3.12267 80.9609 3.196C80.9609 3.25467 80.9609 3.32067 80.9609 3.394C80.9609 3.46733 80.9609 3.548 80.9609 3.636C80.9755 3.724 80.9829 3.812 80.9829 3.9ZM77.4189 2.14C77.1989 2.12533 77.0375 2.052 76.9349 1.92C76.8469 1.788 76.8029 1.64133 76.8029 1.48C76.8029 1.304 76.8615 1.16467 76.9789 1.062C77.0962 0.959332 77.2209 0.907999 77.3529 0.907999H81.2469C81.8629 0.907999 82.5595 0.929999 83.3369 0.973999C84.1142 1.00333 84.7669 1.062 85.2949 1.15C86.0282 1.282 86.7102 1.524 87.3409 1.876C87.9862 2.21333 88.5435 2.69 89.0129 3.306C89.4969 3.922 89.8709 4.67733 90.1349 5.572C90.4135 6.452 90.5529 7.49333 90.5529 8.696C90.5529 10.368 90.3109 11.7027 89.8269 12.7C89.3429 13.6827 88.6975 14.46 87.8909 15.032C87.1429 15.56 86.2995 15.9267 85.3609 16.132C84.4222 16.352 83.3075 16.462 82.0169 16.462H78.7389V3.966C78.7389 3.306 78.6289 2.85133 78.4089 2.602C78.1889 2.35267 77.8589 2.19867 77.4189 2.14ZM98.4543 0.907999H109.256L109.366 3.878C109.366 4.054 109.3 4.186 109.168 4.274C109.051 4.362 108.912 4.406 108.75 4.406C108.604 4.42067 108.464 4.39133 108.332 4.318C108.2 4.23 108.134 4.098 108.134 3.922C108.134 3.922 108.098 3.78267 108.024 3.504C107.966 3.22533 107.87 2.998 107.738 2.822C107.65 2.70467 107.496 2.60933 107.276 2.536C107.071 2.448 106.734 2.404 106.264 2.404H103.25C102.722 2.404 102.392 2.52133 102.26 2.756C102.128 2.976 102.062 3.284 102.062 3.68V7.618H105.318C105.509 7.618 105.685 7.61067 105.846 7.596C106.022 7.56667 106.184 7.53 106.33 7.486C106.653 7.398 106.888 7.266 107.034 7.09C107.181 6.914 107.254 6.57667 107.254 6.078C107.254 5.97533 107.313 5.89467 107.43 5.836C107.548 5.76267 107.687 5.726 107.848 5.726C107.995 5.726 108.127 5.75533 108.244 5.814C108.376 5.87267 108.442 5.95333 108.442 6.056V10.742C108.442 10.8593 108.376 10.9473 108.244 11.006C108.112 11.05 107.973 11.072 107.826 11.072C107.665 11.072 107.518 11.05 107.386 11.006C107.269 10.9473 107.21 10.8593 107.21 10.742C107.21 10.742 107.188 10.5953 107.144 10.302C107.115 10.0087 107.005 9.752 106.814 9.532C106.697 9.4 106.536 9.30467 106.33 9.246C106.125 9.17267 105.788 9.136 105.318 9.136H102.062V13.822C102.062 14.262 102.143 14.57 102.304 14.746C102.48 14.9073 102.964 14.988 103.756 14.988H106.748C107.1 14.988 107.357 14.966 107.518 14.922C107.694 14.8633 107.863 14.746 108.024 14.57C108.098 14.482 108.164 14.3867 108.222 14.284C108.281 14.1813 108.325 14.0713 108.354 13.954C108.398 13.8367 108.428 13.7193 108.442 13.602C108.472 13.47 108.501 13.3453 108.53 13.228C108.56 13.052 108.64 12.9273 108.772 12.854C108.904 12.7807 109.051 12.7513 109.212 12.766C109.359 12.7807 109.491 12.8393 109.608 12.942C109.726 13.03 109.784 13.1473 109.784 13.294L109.63 16.462H99.8403V3.922C99.8403 3.33533 99.745 2.90267 99.5543 2.624C99.3783 2.34533 99.0336 2.184 98.5203 2.14C98.3003 2.14 98.139 2.06667 98.0363 1.92C97.9483 1.77333 97.9043 1.634 97.9043 1.502C97.9043 1.35533 97.963 1.22333 98.0803 1.106C98.1976 0.973999 98.3223 0.907999 98.4543 0.907999ZM119.224 16.462V3.944C119.224 3.372 119.129 2.932 118.938 2.624C118.762 2.30133 118.432 2.13267 117.948 2.118C117.743 2.118 117.589 2.05933 117.486 1.942C117.383 1.81 117.332 1.656 117.332 1.48C117.332 1.33333 117.383 1.20133 117.486 1.084C117.603 0.966666 117.728 0.907999 117.86 0.907999H121.864L128.376 12.722V0.907999H130.312V15.34C130.312 15.5747 130.202 15.8167 129.982 16.066C129.762 16.33 129.498 16.462 129.19 16.462H128.2L121.116 3.966V16.462H119.224Z" fill="#BCBCBC"/>
</svg>
