<?xml version="1.0" encoding="UTF-8" standalone="no"?>
<svg
   width="25"
   height="25"
   viewBox="0 0 25 25"
   fill="none"
   version="1.1"
   id="svg827"
   sodipodi:docname="messenger-logo.svg"
   inkscape:version="1.1 (c4e8f9ed74, 2021-05-24)"
   xmlns:inkscape="http://www.inkscape.org/namespaces/inkscape"
   xmlns:sodipodi="http://sodipodi.sourceforge.net/DTD/sodipodi-0.dtd"
   xmlns="http://www.w3.org/2000/svg"
   xmlns:svg="http://www.w3.org/2000/svg">
  <defs
     id="defs831" />
  <sodipodi:namedview
     id="namedview829"
     pagecolor="#ffffff"
     bordercolor="#666666"
     borderopacity="1.0"
     inkscape:pageshadow="2"
     inkscape:pageopacity="0.0"
     inkscape:pagecheckerboard="0"
     showgrid="false"
     inkscape:zoom="29.08"
     inkscape:cx="12.5"
     inkscape:cy="12.5"
     inkscape:window-width="1920"
     inkscape:window-height="966"
     inkscape:window-x="0"
     inkscape:window-y="34"
     inkscape:window-maximized="1"
     inkscape:current-layer="svg827" />
  <path
     d="M3.56667 24.2183C3.56667 24.8162 4.21042 25.1901 4.73125 24.8995L8.99271 22.5006C12.9344 23.5672 17.1708 22.7829 20.3917 20.3798C23.3198 18.1955 25 14.9518 25 11.481C25 5.14989 19.3927 0 12.5 0C5.60729 0 0 5.14989 0 11.481C0 14.5185 1.26354 17.3528 3.56667 19.5006V24.2183ZM1.5625 11.481C1.5625 6.01134 6.46875 1.56247 12.5 1.56247C18.5312 1.56247 23.4375 6.01134 23.4375 11.481C23.4375 14.4539 21.9865 17.2413 19.4573 19.1277C16.5417 21.3016 12.674 21.9693 9.11563 20.911C8.9125 20.8506 8.69375 20.8756 8.50937 20.9787L5.12812 22.8818V19.1538C5.12812 18.9298 5.03125 18.7152 4.86354 18.5673C2.73438 16.6945 1.5625 14.1778 1.5625 11.481Z"
     fill="#CEAC6A"
     id="path825" />
  <g
     style="fill:none"
     id="g899"
     transform="translate(3.955038,7.5185778)">
    <path
       d="M 1.12196,7.8252 6.79469,4.92226 9.4905,7.75671 c 0.3532,0.37196 0.8444,0.27186 1.1039,0.00422 L 16.7727,1.35127 C 17.3854,0.714831 16.6491,-0.313582 15.8717,0.0920931 L 10.1989,3.0551 7.50726,0.242772 C 7.21997,-0.0564785 6.72879,-0.0891434 6.40958,0.237504 L 0.231255,6.55971 C -0.386578,7.19193 0.344524,8.22455 1.12196,7.8252 Z M 6.95018,1.91921 9.49359,4.57559 C 9.73043,4.82321 10.097,4.88327 10.3956,4.72627 L 12.3171,3.72315 10.0486,6.07606 7.50932,3.40493 C 7.27454,3.15731 6.91002,3.09619 6.61037,3.24898 l -1.92146,0.9831 z"
       fill="#ceac6a"
       id="path890" />
  </g>
</svg>
