<svg width="580" height="462" viewBox="0 0 580 462" fill="none" xmlns="http://www.w3.org/2000/svg">
<path d="M247.763 18.1679C224.24 7.83382 199.369 -0.829454 173.95 0.0633934C136.581 1.38056 100.652 25.0189 82.9311 59.9549C67.9523 89.5602 65.953 124.355 59.4144 157.275C51.3584 197.833 36.067 236.323 19.7466 273.964C10.9807 294.181 1.73295 314.823 0.209017 337.038C-1.8815 367.881 11.886 398.715 33.5922 419.383C55.2985 440.051 84.1815 451.066 113.201 453.638C128.643 455 144.781 453.948 158.529 446.398C173.071 438.442 183.706 423.883 198.307 416.015C211.84 408.731 227.613 407.794 242.794 408.864C262.454 410.213 281.925 414.742 300.795 422.353C321.954 430.946 341.615 443.313 362.729 452.03C383.842 460.746 407.444 465.679 429.078 458.668C449.391 452.091 465.503 435.879 480.033 419.454C503.447 393.053 525.218 364.077 545.125 332.821C558.248 312.144 570.472 290.309 576.333 266.149C587.528 219.951 572.53 167.645 538.971 135.829C511.169 109.459 473.767 97.8169 437.141 90.7448C403.738 84.2297 365.093 83.5844 334.393 66.9915C305.113 51.1236 278.476 31.6578 247.763 18.1679Z" fill="#F7F7F7"/>
<path d="M234.806 105.85C223.165 105.824 211.63 108.696 200.841 114.308C200.406 114.536 199.97 114.766 199.534 115.001C183.137 123.885 169.147 138.785 159.317 157.834C149.487 176.884 144.254 199.234 144.275 222.085V348.919C144.277 350.258 144.692 351.542 145.429 352.489C146.167 353.437 147.167 353.969 148.21 353.971L148.289 353.98C224.132 371.664 297.864 380.625 367.498 380.625C368.542 380.625 369.585 380.623 370.627 380.619C439.076 380.351 505.725 371.39 568.724 353.984L568.815 353.971C569.859 353.969 570.859 353.437 571.597 352.49C572.334 351.542 572.749 350.258 572.75 348.919V110.902C572.749 109.563 572.334 108.278 571.597 107.331C570.859 106.384 569.859 105.851 568.815 105.85L234.806 105.85Z" fill="#E4D0A9" fill-opacity="0.5"/>
<path d="M528.162 347.275C524.936 347.275 521.782 346.233 519.099 344.281C516.417 342.33 514.326 339.556 513.091 336.31C511.857 333.064 511.534 329.493 512.163 326.047C512.792 322.602 514.346 319.437 516.627 316.953C518.909 314.468 521.815 312.777 524.98 312.091C528.144 311.406 531.424 311.758 534.405 313.102C537.385 314.446 539.933 316.723 541.725 319.644C543.518 322.565 544.475 325.999 544.475 329.513C544.47 334.222 542.75 338.737 539.691 342.067C536.633 345.397 532.487 347.27 528.162 347.275ZM528.162 312.757C525.119 312.757 522.144 313.74 519.613 315.581C517.083 317.422 515.111 320.039 513.946 323.101C512.781 326.162 512.477 329.531 513.07 332.781C513.664 336.032 515.129 339.017 517.281 341.36C519.433 343.704 522.175 345.299 525.16 345.946C528.145 346.592 531.239 346.261 534.051 344.992C536.862 343.724 539.266 341.577 540.956 338.821C542.647 336.066 543.55 332.826 543.55 329.513C543.545 325.07 541.922 320.811 539.038 317.67C536.153 314.529 532.242 312.762 528.162 312.757Z" fill="#3F3D56" fill-opacity="0.5"/>
<path d="M536.573 328.136H530.265V322.916C530.265 322.454 530.044 322.012 529.65 321.685C529.255 321.359 528.721 321.176 528.163 321.176C527.605 321.176 527.071 321.359 526.676 321.685C526.282 322.012 526.06 322.454 526.06 322.916V328.136H519.753C519.195 328.136 518.66 328.319 518.266 328.645C517.872 328.972 517.65 329.414 517.65 329.876C517.65 330.337 517.872 330.78 518.266 331.106C518.66 331.432 519.195 331.616 519.753 331.616H526.06V336.836C526.06 337.297 526.282 337.74 526.676 338.066C527.071 338.392 527.605 338.576 528.163 338.576C528.721 338.576 529.255 338.392 529.65 338.066C530.044 337.74 530.265 337.297 530.265 336.836V331.616H536.573C537.131 331.616 537.665 331.432 538.06 331.106C538.454 330.78 538.675 330.337 538.675 329.876C538.675 329.414 538.454 328.972 538.06 328.645C537.665 328.319 537.131 328.136 536.573 328.136Z" fill="white" fill-opacity="0.8"/>
<path d="M514.166 124.699H326.109C325.185 124.7 324.299 125.067 323.646 125.719C322.993 126.371 322.626 127.255 322.625 128.177V288.697C322.626 289.619 322.993 290.503 323.646 291.155C324.299 291.807 325.185 292.173 326.109 292.174H514.166C515.09 292.173 515.976 291.807 516.629 291.155C517.282 290.503 517.649 289.619 517.65 288.697V128.177C517.649 127.255 517.282 126.371 516.629 125.719C515.976 125.067 515.09 124.7 514.166 124.699ZM516.254 288.697C516.254 289.25 516.034 289.781 515.643 290.172C515.251 290.564 514.721 290.785 514.166 290.787H326.109C325.554 290.786 325.023 290.566 324.631 290.174C324.24 289.782 324.02 289.25 324.021 288.697V128.177C324.02 127.623 324.24 127.092 324.631 126.7C325.023 126.308 325.554 126.087 326.109 126.086H514.166C514.721 126.088 515.251 126.309 515.643 126.701C516.034 127.093 516.254 127.623 516.254 128.177V288.697Z" fill="#3F3D56" fill-opacity="0.5"/>
<path d="M367.574 262.817C367.574 263.051 367.568 263.285 367.554 263.514C367.36 266.944 365.75 270.175 363.056 272.54C360.362 274.905 356.789 276.223 353.074 276.223C349.36 276.223 345.787 274.905 343.092 272.54C340.398 270.175 338.788 266.944 338.594 263.514C338.581 263.285 338.574 263.051 338.574 262.817C338.573 261.055 338.947 259.31 339.675 257.682C340.403 256.054 341.471 254.575 342.818 253.329C344.165 252.083 345.763 251.094 347.523 250.42C349.283 249.746 351.169 249.398 353.074 249.398C354.979 249.398 356.865 249.746 358.625 250.42C360.385 251.094 361.984 252.083 363.33 253.329C364.677 254.575 365.745 256.054 366.473 257.682C367.201 259.31 367.575 261.055 367.574 262.817Z" fill="white" fill-opacity="0.8"/>
<path d="M499.327 255.199H387.347C386.717 255.2 386.114 255.43 385.669 255.837C385.224 256.245 384.975 256.798 384.975 257.374C384.975 257.95 385.224 258.503 385.669 258.911C386.114 259.319 386.717 259.548 387.347 259.549H499.327C499.957 259.548 500.56 259.319 501.005 258.911C501.45 258.503 501.7 257.95 501.7 257.374C501.7 256.798 501.45 256.245 501.005 255.837C500.56 255.43 499.957 255.2 499.327 255.199Z" fill="#3F3D56" fill-opacity="0.5"/>
<path d="M436.22 269.699H387.379C386.742 269.699 386.13 269.852 385.679 270.124C385.228 270.396 384.975 270.765 384.975 271.149C384.975 271.534 385.228 271.903 385.679 272.175C386.13 272.446 386.742 272.599 387.379 272.599H436.22C436.858 272.599 437.469 272.446 437.92 272.175C438.371 271.903 438.625 271.534 438.625 271.149C438.625 270.765 438.371 270.396 437.92 270.124C437.469 269.852 436.858 269.699 436.22 269.699Z" fill="white" fill-opacity="0.8"/>
<path d="M560.642 238.526H370.983C369.695 238.524 368.46 238.001 367.549 237.07C366.639 236.139 366.126 234.877 366.125 233.561V148.515C366.126 147.199 366.639 145.937 367.549 145.007C368.46 144.076 369.695 143.552 370.983 143.551H560.642C561.93 143.552 563.165 144.076 564.076 145.007C564.986 145.937 565.499 147.199 565.5 148.515V233.561C565.499 234.877 564.986 236.139 564.076 237.07C563.165 238.001 561.93 238.524 560.642 238.526ZM370.983 145.293C370.147 145.294 369.346 145.634 368.754 146.238C368.163 146.842 367.831 147.661 367.83 148.515V233.561C367.831 234.415 368.163 235.235 368.754 235.839C369.346 236.443 370.147 236.783 370.983 236.784H560.642C561.478 236.783 562.279 236.443 562.871 235.839C563.462 235.235 563.794 234.415 563.795 233.561V148.515C563.794 147.661 563.462 146.842 562.871 146.238C562.279 145.634 561.478 145.294 560.642 145.293H370.983Z" fill="white" fill-opacity="0.8"/>
<path d="M409.78 172.549C409.162 172.549 408.569 172.816 408.132 173.292C407.695 173.768 407.449 174.413 407.449 175.086C407.449 175.759 407.695 176.405 408.132 176.881C408.569 177.356 409.162 177.624 409.78 177.624H519.668C520.286 177.624 520.879 177.356 521.316 176.881C521.754 176.405 521.999 175.759 521.999 175.086C521.999 174.413 521.754 173.768 521.316 173.292C520.879 172.816 520.286 172.549 519.668 172.549H409.78Z" fill="white" fill-opacity="0.8"/>
<path d="M409.78 187.051C409.162 187.051 408.569 187.356 408.132 187.9C407.695 188.444 407.449 189.182 407.449 189.951C407.449 190.72 407.695 191.458 408.132 192.001C408.569 192.545 409.162 192.851 409.78 192.851H519.672C520.289 192.85 520.881 192.544 521.318 192C521.754 191.456 521.999 190.719 521.999 189.951C521.999 189.182 521.754 188.445 521.318 187.902C520.881 187.358 520.289 187.052 519.672 187.051H409.78Z" fill="white" fill-opacity="0.8"/>
<path d="M409.824 200.826C409.194 200.826 408.59 201.055 408.145 201.463C407.699 201.871 407.449 202.424 407.449 203.001C407.449 203.578 407.699 204.131 408.145 204.539C408.59 204.947 409.194 205.176 409.824 205.176H458.003C458.632 205.175 459.235 204.946 459.68 204.538C460.125 204.13 460.374 203.577 460.374 203.001C460.374 202.425 460.125 201.872 459.68 201.464C459.235 201.057 458.632 200.827 458.003 200.826H409.824Z" fill="white" fill-opacity="0.8"/>
<path d="M490.423 347.275H351.301C350.618 347.274 349.963 347.031 349.48 346.598C348.997 346.166 348.725 345.579 348.725 344.967V314.058C348.725 313.446 348.997 312.859 349.48 312.427C349.963 311.994 350.618 311.751 351.301 311.75H490.423C491.106 311.751 491.761 311.994 492.244 312.427C492.727 312.859 492.999 313.446 493 314.058V344.967C492.999 345.579 492.727 346.166 492.244 346.598C491.761 347.031 491.106 347.274 490.423 347.275ZM351.301 312.673C350.891 312.673 350.498 312.819 350.208 313.079C349.919 313.339 349.756 313.69 349.755 314.058V344.967C349.756 345.335 349.919 345.686 350.208 345.946C350.498 346.206 350.891 346.352 351.301 346.352H490.423C490.833 346.352 491.226 346.206 491.516 345.946C491.806 345.686 491.969 345.335 491.969 344.967V314.058C491.969 313.69 491.806 313.339 491.516 313.079C491.226 312.819 490.833 312.673 490.423 312.673H351.301Z" fill="#3F3D56" fill-opacity="0.5"/>
<path d="M374.462 337.127C380.268 337.127 384.974 333.231 384.974 328.427C384.974 323.622 380.268 319.727 374.462 319.727C368.656 319.727 363.949 323.622 363.949 328.427C363.949 333.231 368.656 337.127 374.462 337.127Z" fill="white" fill-opacity="0.8"/>
<path d="M396.852 331.324C396.626 331.324 396.401 331.38 396.191 331.489C395.982 331.598 395.791 331.758 395.631 331.96C395.471 332.162 395.343 332.402 395.257 332.666C395.17 332.93 395.125 333.213 395.125 333.499C395.125 333.785 395.17 334.068 395.257 334.332C395.343 334.597 395.471 334.837 395.631 335.039C395.791 335.241 395.982 335.401 396.191 335.51C396.401 335.619 396.626 335.675 396.852 335.674H431.826C432.283 335.674 432.722 335.445 433.045 335.037C433.368 334.629 433.55 334.076 433.55 333.499C433.55 332.922 433.368 332.369 433.045 331.961C432.722 331.553 432.283 331.324 431.826 331.324H396.852Z" fill="white"/>
<path d="M307.484 135.281H304.072C303.399 135.281 302.854 135.819 302.854 136.483V181.612C302.854 182.276 303.399 182.814 304.072 182.814H307.484C308.157 182.814 308.703 182.276 308.703 181.612V136.483C308.703 135.819 308.157 135.281 307.484 135.281Z" fill="#3F3D56"/>
<path d="M285.261 46.3281H131.042C119.583 46.3281 110.293 55.4861 110.293 66.783V418.002C110.293 429.299 119.583 438.457 131.042 438.457H285.261C296.72 438.457 306.01 429.299 306.01 418.002V66.783C306.01 55.4861 296.72 46.3281 285.261 46.3281Z" fill="#353535" fill-opacity="0.75"/>
<path d="M278.768 56.543H256.317V59.2054C256.317 60.8627 255.986 62.5037 255.342 64.0347C254.699 65.5658 253.756 66.9568 252.567 68.1283C251.378 69.2999 249.966 70.229 248.413 70.8626C246.859 71.4962 245.194 71.8218 243.513 71.8209H172.114C170.433 71.8218 168.768 71.4962 167.215 70.8626C165.661 70.229 164.25 69.2999 163.061 68.1283C161.872 66.9568 160.929 65.5658 160.285 64.0347C159.641 62.5037 159.31 60.8627 159.31 59.2054V56.543H138.29C134.167 56.543 130.214 58.1574 127.299 61.0311C124.384 63.9049 122.746 67.8025 122.746 71.8666V412.948C122.746 417.012 124.384 420.909 127.299 423.783C130.214 426.657 134.167 428.271 138.29 428.271H278.768C282.89 428.271 286.844 426.657 289.759 423.783C292.674 420.909 294.312 417.012 294.312 412.948V71.8928C294.315 69.8783 293.916 67.8828 293.136 66.0207C292.357 64.1585 291.212 62.4661 289.769 61.0404C288.325 59.6147 286.61 58.4836 284.722 57.7119C282.835 56.9402 280.811 56.543 278.768 56.543Z" fill="white"/>
<path d="M214.544 58.041H191.333C190.195 58.041 189.273 58.95 189.273 60.0713V61.4788C189.273 62.6001 190.195 63.5091 191.333 63.5091H214.544C215.682 63.5091 216.604 62.6001 216.604 61.4788V60.0713C216.604 58.95 215.682 58.041 214.544 58.041Z" fill="#E6E8EC"/>
<path d="M223.886 63.8784C225.625 63.8784 227.035 62.4882 227.035 60.7732C227.035 59.0582 225.625 57.668 223.886 57.668C222.146 57.668 220.736 59.0582 220.736 60.7732C220.736 62.4882 222.146 63.8784 223.886 63.8784Z" fill="#E6E8EC"/>
<path d="M209.94 406.384C226.552 406.384 240.018 393.108 240.018 376.732C240.018 360.356 226.552 347.08 209.94 347.08C193.329 347.08 179.862 360.356 179.862 376.732C179.862 393.108 193.329 406.384 209.94 406.384Z" fill="white"/>
<path d="M249.226 372.8C249.226 380.639 246.867 388.303 242.449 394.821C238.031 401.339 231.752 406.419 224.405 409.418C217.058 412.418 208.974 413.203 201.175 411.673C193.375 410.144 186.211 406.368 180.589 400.825C174.966 395.282 171.137 388.219 169.586 380.53C168.035 372.841 168.831 364.872 171.875 357.629C174.918 350.387 180.071 344.196 186.683 339.841C193.295 335.486 201.069 333.162 209.021 333.162C214.301 333.162 219.529 334.188 224.407 336.18C229.285 338.172 233.717 341.092 237.451 344.772C241.184 348.453 244.146 352.823 246.166 357.632C248.186 362.441 249.226 367.595 249.226 372.8ZM204.373 393.78L234.198 364.378C234.439 364.141 234.631 363.859 234.762 363.549C234.892 363.238 234.959 362.906 234.959 362.569C234.959 362.233 234.892 361.901 234.762 361.59C234.631 361.28 234.439 360.998 234.198 360.761L230.528 357.169C230.288 356.932 230.002 356.743 229.688 356.614C229.374 356.485 229.037 356.419 228.696 356.419C228.356 356.419 228.018 356.485 227.704 356.614C227.39 356.743 227.104 356.932 226.864 357.169L202.539 381.15L191.181 369.927C190.693 369.449 190.034 369.181 189.346 369.181C188.658 369.181 187.999 369.449 187.511 369.927L183.841 373.566C183.357 374.047 183.084 374.697 183.084 375.375C183.084 376.053 183.357 376.703 183.841 377.184L200.705 393.802C200.945 394.04 201.231 394.228 201.546 394.357C201.861 394.486 202.198 394.552 202.539 394.552C202.88 394.552 203.218 394.486 203.533 394.357C203.847 394.228 204.133 394.04 204.374 393.802L204.373 393.78Z" fill="#E4D0A9"/>
<path d="M267.845 105.85H146.127C145.443 105.854 144.787 107.079 144.304 109.253C143.82 111.428 143.549 114.376 143.549 117.45C143.549 120.523 143.82 123.471 144.304 125.646C144.787 127.821 145.443 129.045 146.127 129.05H267.845C268.53 129.045 269.185 127.821 269.669 125.646C270.152 123.471 270.424 120.523 270.424 117.45C270.424 114.376 270.152 111.428 269.669 109.253C269.185 107.079 268.53 105.854 267.845 105.85Z" fill="#3F3D56" fill-opacity="0.2"/>
<path d="M267.845 154.426H146.127C145.443 154.43 144.787 155.54 144.304 157.511C143.82 159.482 143.549 162.153 143.549 164.938C143.549 167.724 143.82 170.395 144.304 172.366C144.787 174.337 145.443 175.446 146.127 175.451H267.845C268.53 175.446 269.185 174.337 269.669 172.366C270.152 170.395 270.424 167.724 270.424 164.938C270.424 162.153 270.152 159.482 269.669 157.511C269.185 155.54 268.53 154.43 267.845 154.426Z" fill="#3F3D56" fill-opacity="0.2"/>
<path d="M267.845 200.826H146.127C145.443 200.83 144.787 201.94 144.304 203.911C143.82 205.882 143.549 208.553 143.549 211.339C143.549 214.124 143.82 216.795 144.304 218.766C144.787 220.737 145.443 221.847 146.127 221.851H267.845C268.53 221.847 269.185 220.737 269.669 218.766C270.152 216.795 270.424 214.124 270.424 211.339C270.424 208.553 270.152 205.882 269.669 203.911C269.185 201.94 268.53 200.83 267.845 200.826Z" fill="#3F3D56" fill-opacity="0.2"/>
<path d="M267.845 246.5H146.127C145.443 246.506 144.787 247.998 144.304 250.648C143.82 253.299 143.549 256.892 143.549 260.638C143.549 264.383 143.82 267.976 144.304 270.627C144.787 273.277 145.443 274.769 146.127 274.775H267.845C268.53 274.769 269.185 273.277 269.669 270.627C270.152 267.976 270.424 264.383 270.424 260.638C270.424 256.892 270.152 253.299 269.669 250.648C269.185 247.998 268.53 246.506 267.845 246.5Z" fill="#3F3D56" fill-opacity="0.2"/>
<path d="M116.421 123.635H115.909C115.236 123.635 114.69 124.173 114.69 124.836V136.5C114.69 137.164 115.236 137.701 115.909 137.701H116.421C117.094 137.701 117.64 137.164 117.64 136.5V124.836C117.64 124.173 117.094 123.635 116.421 123.635Z" fill="#3F3D56"/>
<path d="M116.688 149.391H115.801C115.129 149.391 114.583 149.929 114.583 150.592V172.671C114.583 173.335 115.129 173.873 115.801 173.873H116.688C117.361 173.873 117.906 173.335 117.906 172.671V150.592C117.906 149.929 117.361 149.391 116.688 149.391Z" fill="#3F3D56"/>
<path d="M116.579 182.441H115.853C115.18 182.441 114.635 182.979 114.635 183.643V205.932C114.635 206.596 115.18 207.134 115.853 207.134H116.579C117.252 207.134 117.798 206.596 117.798 205.932V183.643C117.798 182.979 117.252 182.441 116.579 182.441Z" fill="#3F3D56"/>
<path d="M93.123 247.734C93.2073 247.816 93.3157 247.868 93.4319 247.883C93.5481 247.898 93.6661 247.875 93.7682 247.817C93.5503 247.821 93.333 247.793 93.123 247.734Z" fill="url(#paint0_linear)"/>
<path d="M117.584 257.166L116.945 260.595L116.452 263.218L115.556 268.016L106.867 274.014C106.867 274.014 106.083 273.353 104.791 272.311C101.23 269.42 93.7451 263.534 88.2489 260.374C86.8352 259.486 85.3056 258.791 83.7021 258.309L117.584 257.166Z" fill="#FEB9B9"/>
<path d="M111.208 259.718C111.208 259.718 121.34 261.433 121.934 257.167C122.527 252.902 116.718 250.596 111.796 250.309C106.873 250.022 77.329 252.024 77.329 252.024C77.329 252.024 72.1175 258.876 90.939 260.023L111.208 259.718Z" fill="#3F3D56"/>
<path d="M133.364 118.961H80.3613V180.921H133.364V118.961Z" fill="#2F2E41"/>
<path opacity="0.1" d="M133.364 119.24H80.3613V181.2H133.364V119.24Z" fill="black"/>
<path d="M20.1869 225.025C19.3142 225.241 18.1988 226.074 16.9583 227.277C11.6165 232.491 3.96563 244.726 3.96563 244.726C-5.816 233.24 5.00813 224.164 9.62196 221.045C10.7437 220.29 11.4973 219.875 11.4973 219.875L20.1869 225.025Z" fill="#FEB9B9"/>
<path d="M117 138.51C117 138.51 119.608 156.497 128.586 160.78C137.564 165.063 117 173.067 117 173.067L88.9082 162.781C88.9082 162.781 104.839 157.639 101.651 142.506L117 138.51Z" fill="#FEB9B9"/>
<path d="M86.8795 246.729L86.2441 250.146L85.7279 252.779L84.8317 257.577L76.1421 263.569C76.1421 263.569 75.3588 262.914 74.0667 261.872C70.5055 258.982 63.0212 253.095 57.5165 249.936C56.1035 249.046 54.5737 248.351 52.9697 247.87L86.8795 246.729Z" fill="#FEB9B9"/>
<path d="M79.3621 250.94C79.3621 250.94 88.4552 251.004 89.0022 246.726C89.5493 242.448 84.0467 240.155 79.3621 239.868C74.6775 239.581 46.2144 241.716 46.2144 241.716C46.2144 241.716 42.1764 249.795 60.0799 250.94L79.3621 250.94Z" fill="#2F2E41" fill-opacity="0.9"/>
<path d="M143.116 318.141C142.719 317.948 142.321 317.749 141.929 317.556L140.86 316.228L126.847 298.709V299.013C126.752 301.939 125.743 325.122 117.873 327.264C109.474 329.546 99.3424 330.119 94.7238 314.701C90.1052 299.283 81.6662 265.591 73 263.59L85.8916 253.169C85.8916 253.169 94.4269 263.011 97.9045 272.432C97.7742 271.847 91.88 244.697 96.7173 239.893H139.011C139.011 239.893 145.54 258.225 150.015 267.306C153.499 274.357 158.728 291.027 162.095 302.309C165.428 313.448 153.717 323.284 143.116 318.141Z" fill="#3F3D56" fill-opacity="0.95"/>
<path opacity="0.1" d="M141.912 245.014C135.383 248.823 106.721 247.272 97.3961 246.652L94.8556 246.47C94.5826 246.47 94.8971 246.318 94.8971 246.318L95.1584 243.726L102.109 226.313L139.324 205.037C138.57 207.278 138.321 210.707 138.38 214.633C138.552 227.249 141.912 245.014 141.912 245.014Z" fill="black"/>
<path d="M141.913 244.154C135.384 247.963 106.722 246.412 97.3975 245.792L94.857 245.617L94.4355 245.581L94.8985 245.464L97.1895 244.88L102.11 225.465L139.325 204.195C138.571 206.436 138.322 209.865 138.381 213.792C138.554 226.395 141.913 244.154 141.913 244.154Z" fill="#EFEFEF"/>
<path opacity="0.1" d="M138.358 213.78C130.79 215.5 114.136 220.547 107.737 232.738C103.469 240.854 99.8784 244.335 97.3735 245.792L94.833 245.616C94.8496 245.566 94.8635 245.515 94.8745 245.464L97.1655 244.879L102.086 225.464L139.301 204.195C138.556 206.424 138.298 209.853 138.358 213.78Z" fill="black"/>
<path opacity="0.1" d="M9.55208 219.889L18.2417 225.026C17.369 225.243 16.2536 226.076 15.0131 227.279C14.2888 225.196 9.74473 222.288 7.67676 221.048C8.79802 220.304 9.55208 219.889 9.55208 219.889Z" fill="black"/>
<path opacity="0.1" d="M93.28 245.95C93.1851 246 93.077 246.018 92.971 246.004C92.865 245.989 92.7662 245.941 92.6885 245.867C92.8806 245.924 93.0799 245.952 93.28 245.95Z" fill="black"/>
<path d="M112.947 159.643C112.947 159.643 105.124 160.497 99.6219 154.786C99.6219 154.786 76.4729 161.357 68.6331 176.202C60.7933 191.047 7.49805 220.174 7.49805 220.174C7.49805 220.174 16.7693 225.312 15.8966 227.881L50.9452 207.893C50.9452 207.893 63.4095 199.045 66.8701 197.045C70.3307 195.044 89.4661 182.768 93.5201 216.173C97.5741 249.578 93.5201 245.581 93.5201 245.581C93.5201 245.581 99.3132 247.583 107.712 231.591C116.11 215.599 142.173 211.889 142.173 211.889L143.621 195.049C143.621 195.049 148.791 183.884 144.808 179.25C143.602 177.878 142.799 176.207 142.487 174.417C141.829 170.14 142.487 163.013 151.711 157.092C165.902 147.952 171.404 140.533 171.404 140.533C171.404 140.533 171.695 135.103 163.006 132.534C154.317 129.965 118.983 115.975 118.983 115.975L117.796 120.831L145.674 140.228C145.674 140.228 131.774 151.345 120.746 151.076C120.746 151.076 122.793 159.356 112.947 159.643Z" fill="#CEAC6A"/>
<path opacity="0.1" d="M118.313 146.342C117.628 144.053 117.093 141.724 116.711 139.367L101.362 143.365C102.039 146.253 101.918 149.268 101.012 152.095C104.15 152.92 107.465 152.815 110.543 151.792C113.62 150.768 116.323 148.873 118.313 146.342Z" fill="black"/>
<path d="M105.563 151.791C114.679 151.791 122.07 144.506 122.07 135.519C122.07 126.532 114.679 119.246 105.563 119.246C96.4469 119.246 89.0566 126.532 89.0566 135.519C89.0566 144.506 96.4469 151.791 105.563 151.791Z" fill="#FEB9B9"/>
<path opacity="0.1" d="M123.52 266.57C123.52 266.57 133.074 285.131 130.178 290.836L123.52 266.57Z" fill="black"/>
<path d="M114.342 97.9352C118.924 98.4504 123.275 100.387 127.786 101.446C128.913 101.791 130.114 101.836 131.264 101.574C133.015 101.042 134.439 99.2342 136.256 99.2866C137.373 99.3218 138.363 100.071 139.283 100.79C140.758 101.903 142.147 103.124 143.437 104.442C146.547 107.771 148.476 112.253 151.313 115.875C154.15 119.497 158.196 123.744 162.226 122.083C159.484 132.616 150.933 139.204 141.218 139.86C137.342 140.122 133.371 139.328 129.62 140.445C128.685 140.823 127.699 141.059 126.693 141.147C124.532 141.147 122.793 139.193 121.446 137.291C118.288 132.821 115.789 127.748 112.234 123.669C111.047 122.318 109.676 121.036 108.014 120.791C106.352 120.545 104.827 121.329 103.349 122.084C100.91 123.33 98.417 124.617 96.5236 126.765C94.6301 128.913 93.437 132.084 94.2204 134.957C94.6419 136.514 95.604 137.918 95.621 139.544C95.6567 142.142 93.3301 144.038 92.8729 146.566C92.7697 147.628 92.7321 148.695 92.7601 149.761C92.5585 153.223 90.259 156.056 87.8643 158.239C86.9266 159.082 85.8953 159.995 85.6207 161.299C85.4366 162.194 85.6207 163.135 85.502 164.044C85.1519 166.29 82.8785 167.432 80.8664 167.724C78.5155 168.067 76.1143 167.787 73.91 166.911C76.7235 165.6 78.4567 161.867 77.8038 158.526C76.9076 153.892 72.1831 150.562 72.5886 145.847C72.8107 144.4 73.2509 142.994 73.8945 141.675C74.9241 139.126 75.6723 136.476 76.1264 133.77C76.4824 131.681 76.6549 129.463 75.9897 127.468C75.3963 125.654 74.1558 124.209 73.1048 122.676C71.6806 120.59 70.5561 118.319 69.7634 115.929C69.4761 115.22 69.3666 114.453 69.4441 113.694C69.6821 112.797 70.189 111.991 70.8985 111.382C73.4805 108.707 76.2403 105.929 79.7009 105.162C81.3521 104.892 83.0313 104.829 84.6984 104.975C87.598 105.065 90.5003 104.943 93.3817 104.612C95.7557 104.337 99.7676 104.372 101.78 102.857C103.656 101.44 104.712 99.6617 107.021 98.761C109.359 97.9067 111.872 97.6235 114.345 97.9357L114.342 97.9352Z" fill="#444053" fill-opacity="0.98"/>
<path d="M526.826 44.2836C526.826 44.2836 475.078 41.4621 481.175 74.2285C481.175 74.2285 479.946 80.0208 485.772 82.6477C485.772 82.6477 485.864 80.2208 491.082 81.0481C492.939 81.3263 494.827 81.4082 496.705 81.2923C499.239 81.1416 501.651 80.2509 503.576 78.7542C503.576 78.7542 518.123 73.3228 523.777 51.8416C523.777 51.8416 527.962 47.1546 527.796 45.9491L519.064 49.32C519.064 49.32 522.05 55.0125 519.678 59.7422C519.678 59.7422 519.395 49.5234 517.717 49.7458C517.38 49.7904 513.182 51.7171 513.182 51.7171C513.182 51.7171 518.314 61.6301 514.442 68.8392C514.442 68.8392 515.911 56.6215 511.578 52.4337L505.432 55.677C505.432 55.677 511.431 65.9181 507.362 74.2762C507.362 74.2762 508.406 61.4583 504.135 56.4656L498.568 60.3918C498.568 60.3918 504.203 70.4825 500.768 77.4147C500.768 77.4147 500.319 62.4976 497.363 61.3705C497.363 61.3705 492.489 65.258 491.745 66.8461C491.745 66.8461 495.605 74.1769 493.208 78.042C493.208 78.042 491.739 68.1013 490.534 68.0457C490.534 68.0457 485.679 74.632 485.175 79.1527C485.175 79.1527 485.384 72.4384 489.36 67.4238C489.36 67.4238 484.665 68.1514 481.924 70.8979C481.924 70.8979 482.679 66.2441 490.558 65.8332C490.558 65.8332 494.571 60.835 495.641 60.5352C495.641 60.5352 487.811 59.9397 483.061 61.8459C483.061 61.8459 487.24 57.4532 497.079 59.4523L502.579 55.3926C502.579 55.3926 492.267 54.1206 487.891 55.5261C487.891 55.5261 492.925 51.6386 504.061 54.471L510.047 51.2386C510.047 51.2386 501.253 49.5279 496.016 50.1279C496.016 50.1279 501.548 47.4345 511.805 50.3557L516.107 48.6187C516.107 48.6187 509.666 47.4747 507.779 47.2916C505.892 47.1085 505.794 46.642 505.794 46.642C509.874 46.0272 514.064 46.4483 517.895 47.8584C517.895 47.8584 526.979 44.8002 526.826 44.2836Z" fill="#CEAC6A"/>
<path d="M399.083 55.8562C399.083 55.8562 378.406 54.3692 380.821 71.6773C380.821 71.6773 380.335 74.7353 382.66 76.1242C382.66 76.1242 382.698 74.8258 384.788 75.2737C385.53 75.4227 386.284 75.4664 387.035 75.4037C388.05 75.3235 389.015 74.8492 389.783 74.053C389.783 74.053 395.605 71.1835 397.868 59.8355C397.868 59.8355 399.539 57.3623 399.473 56.7259L395.98 58.5046C395.98 58.5046 397.172 61.5105 396.236 64.0098C396.236 64.0098 396.121 58.6143 395.452 58.7384C395.316 58.7384 393.634 59.7827 393.634 59.7827C393.634 59.7827 395.691 65.0216 394.141 68.8263C394.141 68.8263 394.728 62.3732 392.993 60.1593L390.533 61.8998C390.533 61.8998 392.933 67.3075 391.306 71.7225C391.306 71.7225 391.725 64.9514 390.016 62.3157L387.791 64.3933C387.791 64.3933 390.043 69.7233 388.672 73.3858C388.672 73.3858 388.487 65.5043 387.306 64.9073C387.306 64.9073 385.358 66.9588 385.059 67.8029C385.059 67.8029 386.604 71.6981 385.647 73.7171C385.647 73.7171 385.059 68.4649 384.558 68.4376C384.558 68.4376 382.616 71.9186 382.414 74.2805C382.512 72.0771 383.089 69.9423 384.09 68.0872C382.969 68.3406 381.935 68.9792 381.114 69.9246C381.114 69.9246 381.419 67.4641 384.569 67.25C384.569 67.25 386.202 64.608 386.605 64.4455C386.605 64.4455 383.471 64.134 381.571 65.1417C381.571 65.1417 383.241 62.824 387.176 63.8758L389.352 61.7333C389.352 61.7333 385.224 61.0777 383.473 61.8006C383.473 61.8006 385.487 59.7491 389.943 61.2424L392.338 59.535C392.338 59.535 388.817 58.6329 386.722 58.9548C386.722 58.9548 388.937 57.5329 393.04 59.0709L394.754 58.1554C394.754 58.1554 392.177 57.5514 391.418 57.454C390.659 57.3565 390.623 57.1099 390.623 57.1099C392.257 56.7857 393.934 57.0105 395.466 57.7591C395.466 57.7591 399.146 56.1265 399.083 55.8562Z" fill="#3F3D56"/>
<path d="M58.362 332.079C58.362 332.079 39.2755 330.752 41.5054 346.205C41.5054 346.205 41.0566 348.936 43.203 350.176C43.203 350.176 43.238 349.016 45.1668 349.416C45.8518 349.549 46.548 349.588 47.241 349.532C48.1779 349.461 49.0688 349.037 49.7775 348.327C49.7775 348.327 55.1518 345.764 57.2412 335.632C57.2412 335.632 58.7831 333.424 58.7225 332.856L55.4978 334.444C55.4978 334.444 56.598 337.128 55.7339 339.359C55.7339 339.359 55.6284 334.542 55.0108 334.653C54.8851 334.653 53.333 335.585 53.333 335.585C53.333 335.585 55.2317 340.263 53.8002 343.66C53.8002 343.66 54.3425 337.898 52.7405 335.921L50.4701 337.475C50.4701 337.475 52.6853 342.304 51.1834 346.246C51.1834 346.246 51.5703 340.2 49.993 337.847L47.9385 339.702C47.9385 339.702 50.0181 344.461 48.7523 347.731C48.7523 347.731 48.5818 340.694 47.4915 340.161C47.4915 340.161 45.6933 341.992 45.4168 342.746C45.4168 342.746 46.8433 346.224 45.9595 348.027C45.9595 348.027 45.4168 343.337 44.955 343.313C44.955 343.313 43.1617 346.421 42.9759 348.53C43.0657 346.562 43.599 344.656 44.5231 343C43.4883 343.226 42.5334 343.796 41.7756 344.64C41.7756 344.64 42.0571 342.444 44.9653 342.252C44.9653 342.252 46.4721 339.893 46.8438 339.748C46.8438 339.748 43.9508 339.47 42.1976 340.37C42.1976 340.37 43.7394 338.301 47.3712 339.24L49.3803 337.327C49.3803 337.327 45.5694 336.741 43.9535 337.387C43.9535 337.387 45.8118 335.555 49.9256 336.888L52.1359 335.364C52.1359 335.364 48.8861 334.558 46.9524 334.846C46.9524 334.846 48.9965 333.576 52.784 334.95L54.3663 334.132C54.3663 334.132 51.9873 333.593 51.2871 333.506C50.5868 333.419 50.5536 333.199 50.5536 333.199C52.0614 332.909 53.6093 333.11 55.0239 333.778C55.0239 333.778 58.4208 332.321 58.362 332.079Z" fill="#3F3D56"/>
<defs>
<linearGradient id="paint0_linear" x1="93.4488" y1="247.889" x2="93.4488" y2="247.734" gradientUnits="userSpaceOnUse">
<stop stop-color="#808080" stop-opacity="0.251"/>
<stop offset="0.54" stop-color="#808080" stop-opacity="0.122"/>
<stop offset="1" stop-color="#808080" stop-opacity="0.102"/>
</linearGradient>
</defs>
</svg>
