<svg width="580" height="464" viewBox="0 0 580 464" fill="none" xmlns="http://www.w3.org/2000/svg">
<path d="M22.3998 71.6606C7.58415 95.3259 3.83607 125.326 3.63183 154.09C3.48831 174.373 5.51967 196.374 17.9286 211.333C34.2623 231.013 65.6214 234.892 73.7137 260.041C80.8897 282.389 64.1917 304.871 48.1506 320.643C32.1095 336.415 13.6893 355.727 16.6866 379.211C18.5855 394.207 29.0017 405.98 39.3904 415.862C59.1409 434.692 81.3424 451.164 106.37 459.178C151.778 473.699 196.299 450.794 245.702 450.794C276.991 450.794 278.638 450.794 307.457 450.794C317.338 450.794 325.572 450.794 335.452 450.794C361.801 450.794 385.903 452.248 407.784 456.549C439.855 462.876 473.56 468.156 504.461 456.745C535.362 445.334 562.068 411.96 557.337 376.364C552.877 342.832 524.482 320.975 501.856 298.07C493.874 289.988 485.748 279.278 487.736 267.521C489.314 258.196 496.744 251.704 503.368 245.678C538.233 213.788 563.856 169.764 575.636 121.492C581.2 98.7153 583.209 72.4741 570.795 53.2677C560.782 37.7746 543.62 30.333 527.297 24.2096C497.009 12.8439 465.965 3.24072 434.109 0.649738C402.253 -1.94124 369.343 2.9997 341.064 19.3967C327.501 27.2675 315.208 37.6315 301.513 45.2086C262.63 66.7197 216.814 63.8275 173.449 60.4306C157.954 59.2179 141.759 57.0638 128.306 47.8297C116.714 39.8609 110.09 34.1517 95.7385 33.2629C67.6086 31.5231 38.5072 45.8864 22.3998 71.6606Z" fill="#F7F7F7"/>
<path d="M567.219 29.7246H29.4373C28.1655 29.7281 26.947 30.2502 26.0494 31.1761C25.1519 32.1021 24.6487 33.3562 24.6504 34.663V372.837C24.6462 374.144 24.893 375.438 25.3768 376.647C25.8606 377.855 26.5717 378.954 27.4696 379.88C28.3674 380.805 29.4341 381.54 30.6087 382.041C31.7833 382.542 33.0426 382.8 34.3144 382.8H562.361C563.633 382.8 564.892 382.542 566.067 382.041C567.242 381.54 568.308 380.805 569.206 379.88C570.104 378.954 570.815 377.855 571.299 376.647C571.783 375.438 572.03 374.144 572.025 372.837V34.6564C572.025 34.0082 571.901 33.3663 571.659 32.7675C571.418 32.1688 571.064 31.6248 570.617 31.1668C570.171 30.7087 569.641 30.3456 569.058 30.0981C568.475 29.8507 567.85 29.7237 567.219 29.7246Z" fill="url(#paint0_linear)"/>
<path d="M564.775 51.4746V371.502C564.775 374.113 563.778 376.617 562.003 378.463C560.228 380.31 557.82 381.348 555.308 381.35H37.7424C35.231 381.348 32.8231 380.31 31.0478 378.463C29.2726 376.617 28.2754 374.113 28.2754 371.502V51.4746H564.775Z" fill="white"/>
<path d="M410.776 113.636L409.433 115.378L409.24 100.337C409.24 100.337 408.252 84.1432 416.074 85.6467C423.897 87.1503 419.018 102.217 419.018 102.217L417.008 112.833L410.776 113.636Z" fill="#A0616A" fill-opacity="0.9"/>
<path d="M348.725 71.0508H147.9C143.896 71.0508 140.65 74.2967 140.65 78.3008V186.326C140.65 190.33 143.896 193.576 147.9 193.576H348.725C352.729 193.576 355.975 190.33 355.975 186.326V78.3008C355.975 74.2967 352.729 71.0508 348.725 71.0508Z" fill="#E3D0AA"/>
<path d="M247.588 162.4C243.541 162.402 239.534 161.606 235.794 160.058C232.055 158.511 228.658 156.241 225.796 153.379C222.935 150.518 220.665 147.12 219.117 143.381C217.57 139.642 216.774 135.635 216.775 131.588C216.775 131.523 216.775 131.456 216.779 131.391C216.874 114.517 230.694 100.775 247.588 100.775C251.634 100.775 255.641 101.572 259.379 103.121C263.118 104.669 266.514 106.939 269.376 109.8C272.237 112.661 274.506 116.058 276.055 119.796C277.603 123.535 278.4 127.542 278.4 131.588C278.4 135.634 277.603 139.641 276.055 143.379C274.506 147.118 272.237 150.514 269.376 153.376C266.514 156.237 263.118 158.506 259.379 160.055C255.641 161.603 251.634 162.4 247.588 162.4ZM247.588 101.424C239.624 101.442 231.989 104.601 226.342 110.216C220.694 115.831 217.491 123.448 217.427 131.411C217.424 131.48 217.424 131.536 217.424 131.588C217.423 137.555 219.192 143.388 222.507 148.35C225.821 153.311 230.533 157.179 236.045 159.462C241.558 161.746 247.624 162.344 253.476 161.18C259.329 160.016 264.704 157.143 268.924 152.924C273.143 148.704 276.016 143.329 277.18 137.476C278.344 131.624 277.746 125.558 275.462 120.045C273.179 114.533 269.311 109.821 264.35 106.507C259.388 103.192 253.555 101.423 247.588 101.424Z" fill="white" stroke="white" stroke-opacity="0.8" stroke-width="0.725"/>
<path d="M266.391 131.945L239.754 116.114C239.63 116.04 239.489 116.001 239.345 116.001C239.201 116.001 239.06 116.04 238.935 116.114C238.811 116.188 238.707 116.294 238.635 116.423C238.563 116.551 238.525 116.696 238.525 116.844V148.507C238.525 148.655 238.563 148.8 238.635 148.928C238.707 149.057 238.811 149.163 238.935 149.237C239.06 149.311 239.201 149.35 239.345 149.35C239.489 149.35 239.63 149.311 239.754 149.237L266.391 133.405C266.515 133.331 266.619 133.225 266.691 133.097C266.763 132.968 266.8 132.823 266.8 132.675C266.8 132.527 266.763 132.382 266.691 132.253C266.619 132.125 266.515 132.019 266.391 131.945L239.754 116.113C239.63 116.039 239.489 116 239.345 116C239.201 116 239.06 116.039 238.935 116.113C238.811 116.187 238.707 116.293 238.635 116.422C238.563 116.55 238.525 116.695 238.525 116.843V148.507C238.525 148.655 238.563 148.8 238.635 148.928C238.707 149.057 238.811 149.163 238.935 149.237C239.06 149.311 239.201 149.35 239.345 149.35C239.489 149.35 239.63 149.311 239.754 149.237L266.391 133.405C266.515 133.331 266.619 133.225 266.691 133.097C266.763 132.968 266.8 132.823 266.8 132.675C266.8 132.527 266.763 132.382 266.691 132.253C266.619 132.125 266.515 132.019 266.391 131.945V131.945Z" fill="white" fill-opacity="0.8"/>
<path d="M229.825 336.4H144.275C142.273 336.4 140.65 338.023 140.65 340.025V349.45C140.65 351.452 142.273 353.075 144.275 353.075H229.825C231.827 353.075 233.45 351.452 233.45 349.45V340.025C233.45 338.023 231.827 336.4 229.825 336.4Z" fill="#E6E6E6"/>
<path d="M572.025 36.365V51.4758H28.2754V36.365C28.2745 35.6839 28.3969 35.0093 28.6355 34.3797C28.8741 33.7502 29.2243 33.1781 29.666 32.6961C30.1077 32.2141 30.6322 31.8318 31.2096 31.5709C31.787 31.3101 32.4059 31.1758 33.0309 31.1758H567.302C568.559 31.1851 569.761 31.7361 570.646 32.7085C571.531 33.6809 572.027 34.9955 572.025 36.365Z" fill="#F7F7F7"/>
<path opacity="0.8" d="M36.6133 42.7758C37.6143 42.7758 38.4258 41.802 38.4258 40.6008C38.4258 39.3996 37.6143 38.4258 36.6133 38.4258C35.6123 38.4258 34.8008 39.3996 34.8008 40.6008C34.8008 41.802 35.6123 42.7758 36.6133 42.7758Z" fill="#FA5959"/>
<path opacity="0.8" d="M42.4125 42.7758C43.8139 42.7758 44.95 41.802 44.95 40.6008C44.95 39.3996 43.8139 38.4258 42.4125 38.4258C41.0111 38.4258 39.875 39.3996 39.875 40.6008C39.875 41.802 41.0111 42.7758 42.4125 42.7758Z" fill="#FED253"/>
<path opacity="0.8" d="M48.9379 42.7758C50.3393 42.7758 51.4754 41.802 51.4754 40.6008C51.4754 39.3996 50.3393 38.4258 48.9379 38.4258C47.5365 38.4258 46.4004 39.3996 46.4004 40.6008C46.4004 41.802 47.5365 42.7758 48.9379 42.7758Z" fill="#8CCF4D"/>
<path d="M337.85 23.2V21.75H334.95V23.2H337.85Z" fill="url(#paint1_linear)"/>
<path d="M174.363 213.875H143.913C142.111 213.875 140.65 215.336 140.65 217.138C140.65 218.939 142.111 220.4 143.913 220.4H174.363C176.165 220.4 177.625 218.939 177.625 217.138C177.625 215.336 176.165 213.875 174.363 213.875Z" fill="#EDEDF4"/>
<path d="M352.713 230.551H143.913C142.111 230.551 140.65 232.011 140.65 233.813C140.65 235.615 142.111 237.076 143.913 237.076H352.713C354.515 237.076 355.975 235.615 355.975 233.813C355.975 232.011 354.515 230.551 352.713 230.551Z" fill="#EDEDF4"/>
<path d="M352.713 247.225H143.913C142.111 247.225 140.65 248.685 140.65 250.487C140.65 252.289 142.111 253.75 143.913 253.75H352.713C354.515 253.75 355.975 252.289 355.975 250.487C355.975 248.685 354.515 247.225 352.713 247.225Z" fill="#EDEDF4"/>
<path d="M352.35 263.176H144.275C142.273 263.176 140.65 264.799 140.65 266.801C140.65 268.803 142.273 270.426 144.275 270.426H352.35C354.352 270.426 355.975 268.803 355.975 266.801C355.975 264.799 354.352 263.176 352.35 263.176Z" fill="#EDEDF4"/>
<path d="M352.713 279.85H143.913C142.111 279.85 140.65 281.31 140.65 283.112C140.65 284.914 142.111 286.375 143.913 286.375H352.713C354.515 286.375 355.975 284.914 355.975 283.112C355.975 281.31 354.515 279.85 352.713 279.85Z" fill="#EDEDF4"/>
<path d="M353.438 296.525H143.188C141.786 296.525 140.65 297.661 140.65 299.063C140.65 300.464 141.786 301.6 143.188 301.6H353.438C354.839 301.6 355.975 300.464 355.975 299.063C355.975 297.661 354.839 296.525 353.438 296.525Z" fill="#EDEDF4"/>
<path d="M353.438 313.199H143.188C141.786 313.199 140.65 314.335 140.65 315.737C140.65 317.138 141.786 318.274 143.188 318.274H353.438C354.839 318.274 355.975 317.138 355.975 315.737C355.975 314.335 354.839 313.199 353.438 313.199Z" fill="#EDEDF4"/>
<path d="M37.0367 118.383C35.1506 122.315 32.2853 125.674 28.7266 128.126C26.4303 129.7 23.7194 131.054 22.6206 133.634C21.5942 136.039 22.2916 138.8 22.5285 141.413C22.8194 144.944 22.2463 148.494 20.8604 151.745C19.4745 154.995 17.319 157.846 14.5868 160.04C11.4614 162.513 7.2833 164.577 6.61217 168.55C6.13844 171.377 7.70441 174.091 8.88218 176.698C11.3693 182.205 12.2247 188.933 9.2967 194.213C8.46765 195.714 7.32278 197.087 6.90168 198.749C6.1187 201.704 7.77678 204.913 10.2639 206.629C12.751 208.344 15.8698 208.813 18.8702 208.8C21.0481 208.8 23.4102 208.465 24.963 206.903C26.0026 205.858 26.5158 204.404 27.0027 203.004L30.786 192.089C31.444 190.119 32.1941 188.068 33.6285 186.594C36.6749 183.432 41.636 183.767 45.9851 183.82C52.3866 183.899 58.7551 182.877 64.8228 180.798C68.3759 179.572 72.2316 177.495 73.0606 173.776C73.8897 170.058 71.4289 166.674 69.2773 163.659C67.6675 161.425 66.1454 159.113 64.711 156.724C63.3095 154.419 61.9738 151.986 61.5856 149.306C60.9277 144.85 63.0003 140.522 64.586 136.321C66.1717 132.119 67.2837 127.148 64.9742 123.308C63.9766 121.813 62.7055 120.528 61.2303 119.522C57.7562 116.943 53.0978 113.814 48.8407 112.762C46.5584 112.216 44.1796 112.248 41.9123 112.855C39.1554 113.727 38.1882 115.964 37.0367 118.383Z" fill="#4D4B51"/>
<path d="M83.5594 170.375C84.4331 173.333 85.0526 176.36 85.4112 179.423C86.4887 186.796 87.5729 194.262 87.3709 201.735C87.2732 203.402 87.2732 205.074 87.3709 206.741C87.5582 208.265 87.8576 209.772 88.2665 211.252C88.2811 211.385 88.3241 211.514 88.3926 211.63C88.4611 211.745 88.5536 211.845 88.6638 211.922C88.9197 212.05 89.2227 211.922 89.5056 211.889C90.4685 211.775 91.1824 212.7 91.9231 213.323C92.6513 213.909 93.5414 214.26 94.475 214.329C95.4086 214.399 96.3412 214.183 97.1488 213.712C96.9001 214.81 96.9785 215.957 97.3744 217.011C97.7702 218.066 98.4664 218.983 99.3777 219.65C100.309 220.296 101.368 220.736 102.485 220.938C103.602 221.14 104.749 221.101 105.849 220.823C104.731 220.649 103.661 221.426 103.048 222.371C102.832 222.706 102.657 223.115 102.287 223.283C101.917 223.45 101.277 223.236 100.839 223.464C100.622 223.61 100.441 223.802 100.307 224.027C98.9602 225.823 96.4619 226.265 94.2127 226.325C91.9635 226.386 89.5797 226.232 87.5998 227.297C87.1082 227.559 86.6503 227.894 86.1385 228.108C84.5762 228.778 82.7109 228.108 81.4987 226.962C80.3427 225.726 79.5223 224.218 79.1149 222.579C77.0946 216.091 77.4987 209.141 77.9095 202.365C78.5627 191.594 79.9364 180.562 83.5594 170.375Z" fill="#454B69"/>
<path opacity="0.1" d="M83.5594 170.375C84.4331 173.333 85.0526 176.36 85.4112 179.423C86.4887 186.796 87.5729 194.262 87.3709 201.735C87.2732 203.402 87.2732 205.074 87.3709 206.741C87.5582 208.265 87.8576 209.772 88.2665 211.252C88.2811 211.385 88.3241 211.514 88.3926 211.63C88.4611 211.745 88.5536 211.845 88.6638 211.922C88.9197 212.05 89.2227 211.922 89.5056 211.889C90.4685 211.775 91.1824 212.7 91.9231 213.323C92.6513 213.909 93.5414 214.26 94.475 214.329C95.4086 214.399 96.3412 214.183 97.1488 213.712C96.9001 214.81 96.9785 215.957 97.3744 217.011C97.7702 218.066 98.4664 218.983 99.3777 219.65C100.309 220.296 101.368 220.736 102.485 220.938C103.602 221.14 104.749 221.101 105.849 220.823C104.731 220.649 103.661 221.426 103.048 222.371C102.832 222.706 102.657 223.115 102.287 223.283C101.917 223.45 101.277 223.236 100.839 223.464C100.622 223.61 100.441 223.802 100.307 224.027C98.9602 225.823 96.4619 226.265 94.2127 226.325C91.9635 226.386 89.5797 226.232 87.5998 227.297C87.1082 227.559 86.6503 227.894 86.1385 228.108C84.5762 228.778 82.7109 228.108 81.4987 226.962C80.3427 225.726 79.5223 224.218 79.1149 222.579C77.0946 216.091 77.4987 209.141 77.9095 202.365C78.5627 191.594 79.9364 180.562 83.5594 170.375Z" fill="black"/>
<path d="M52.1469 365.046C52.6948 367.406 53.5949 369.672 54.1036 372.039C54.4744 374.079 54.6924 376.146 54.7559 378.221L55.3168 388.718C55.4538 391.207 55.5647 393.824 54.495 396.056C53.7579 397.605 52.4795 398.903 52.1143 400.588C51.5403 403.225 53.3601 405.721 55.069 407.77L63.4569 417.848C66.0659 421.006 68.9554 424.327 72.8494 425.403C73.4279 425.607 74.0517 425.631 74.643 425.47C75.7258 425.098 76.2541 423.739 76.0976 422.562C75.852 421.4 75.3396 420.316 74.6039 419.404C72.4058 416.204 70.0381 413.059 68.6293 409.421C66.816 404.794 66.6269 399.674 66.7378 394.683C67.1813 374.325 72.1188 354.204 71.5579 333.812C67.2726 333.474 62.8177 332.736 58.5129 332.777C54.6841 332.818 55.1407 336.835 54.4754 340.048C53.5884 344.255 52.5187 348.428 51.9251 352.695C51.6156 354.774 51.4651 356.875 51.4751 358.979C51.4751 361.028 52.1469 363.077 52.1469 365.046Z" fill="#FBBEBE"/>
<path opacity="0.05" d="M52.1469 365.046C52.6948 367.406 53.5949 369.672 54.1036 372.039C54.4744 374.079 54.6924 376.146 54.7559 378.221L55.3168 388.718C55.4538 391.207 55.5647 393.824 54.495 396.056C53.7579 397.605 52.4795 398.903 52.1143 400.588C51.5403 403.225 53.3601 405.721 55.069 407.77L63.4569 417.848C66.0659 421.006 68.9554 424.327 72.8494 425.403C73.4279 425.607 74.0517 425.631 74.643 425.47C75.7258 425.098 76.2541 423.739 76.0976 422.562C75.852 421.4 75.3396 420.316 74.6039 419.404C72.4058 416.204 70.0381 413.059 68.6293 409.421C66.816 404.794 66.6269 399.674 66.7378 394.683C67.1813 374.325 72.1188 354.204 71.5579 333.812C67.2726 333.474 62.8177 332.736 58.5129 332.777C54.6841 332.818 55.1407 336.835 54.4754 340.048C53.5884 344.255 52.5187 348.428 51.9251 352.695C51.6156 354.774 51.4651 356.875 51.4751 358.979C51.4751 361.028 52.1469 363.077 52.1469 365.046Z" fill="black"/>
<path d="M54.9783 395.94C53.0304 395.517 51.0045 396.622 49.7837 398.286C48.6575 400.013 48.01 402.034 47.9137 404.125C47.771 405.008 47.8677 405.915 48.1929 406.744C48.4981 407.392 49.037 407.883 49.3877 408.503C49.7381 409.228 49.9582 410.014 50.037 410.822C50.7642 415.521 51.4915 420.227 51.8681 424.968C51.985 426.413 52.0953 427.941 52.9005 429.121C53.7057 430.301 55.4978 430.874 56.4783 429.885C55.4623 424.474 54.9556 418.97 54.9654 413.455C57.2445 413.127 59.2314 415.01 60.7184 416.865C62.2406 418.745 63.6358 420.734 64.8935 422.819C65.9515 424.793 67.1772 426.663 68.5557 428.405C70.0504 430.07 71.9089 431.327 73.9704 432.067C76.0319 432.808 78.2341 433.009 80.3864 432.654C81.1396 431.972 80.5877 430.567 81.2111 429.769C81.4709 429.519 81.7487 429.291 82.0422 429.087C82.8279 428.364 82.7435 427.041 82.3928 426.018C81.2565 422.669 78.1982 420.562 75.3347 418.652C70.1401 415.242 64.8805 411.832 59.6535 408.531C57.6603 407.234 56.1431 405.268 55.3485 402.951C55.1602 402.358 54.342 395.715 54.9783 395.94Z" fill="#3F3D56"/>
<path opacity="0.05" d="M54.9783 395.94C53.0304 395.517 51.0045 396.622 49.7837 398.286C48.6575 400.013 48.01 402.034 47.9137 404.125C47.771 405.008 47.8677 405.915 48.1929 406.744C48.4981 407.392 49.037 407.883 49.3877 408.503C49.7381 409.228 49.9582 410.014 50.037 410.822C50.7642 415.521 51.4915 420.227 51.8681 424.968C51.985 426.413 52.0953 427.941 52.9005 429.121C53.7057 430.301 55.4978 430.874 56.4783 429.885C55.4623 424.474 54.9556 418.97 54.9654 413.455C57.2445 413.127 59.2314 415.01 60.7184 416.865C62.2406 418.745 63.6358 420.734 64.8935 422.819C65.9515 424.793 67.1772 426.663 68.5557 428.405C70.0504 430.07 71.9089 431.327 73.9704 432.067C76.0319 432.808 78.2341 433.009 80.3864 432.654C81.1396 431.972 80.5877 430.567 81.2111 429.769C81.4709 429.519 81.7487 429.291 82.0422 429.087C82.8279 428.364 82.7435 427.041 82.3928 426.018C81.2565 422.669 78.1982 420.562 75.3347 418.652C70.1401 415.242 64.8805 411.832 59.6535 408.531C57.6603 407.234 56.1431 405.268 55.3485 402.951C55.1602 402.358 54.342 395.715 54.9783 395.94Z" fill="black"/>
<path d="M53.1497 359.146C52.0722 372.793 55.0905 386.379 57.7741 399.796C58.0263 400.868 58.1632 401.964 58.1824 403.067C58.0699 404.44 57.846 405.802 57.5131 407.138C56.4959 412.676 57.7942 418.349 59.0858 423.826C59.9826 427.619 61.2474 431.902 64.7342 433.557C67.1902 434.731 70.088 434.236 72.765 433.686C73.6447 433.592 74.4811 433.251 75.1809 432.702C76.1446 431.786 76.1781 430.273 76.0978 428.943C75.1742 413.877 67.652 399.429 69.1176 384.404C69.3586 381.92 69.8471 379.464 70.2486 376.994C72.3233 364.222 72.0556 351.077 74.7325 338.434C74.8655 337.991 74.8655 337.519 74.7325 337.077C74.5061 336.643 74.1467 336.295 73.7086 336.086C71.2726 334.606 68.6693 333.297 65.8585 332.896C63.6634 332.584 60.9061 332.828 59.0591 334.206C57.212 335.584 56.9978 338.766 56.429 341.04C54.8343 346.97 53.7373 353.027 53.1497 359.146Z" fill="#FBBEBE"/>
<path d="M56.8758 435.05C56.8622 435.246 56.9051 435.441 57.0008 435.619C57.0318 435.653 57.0723 435.681 57.1187 435.7C57.1652 435.718 57.2162 435.727 57.2675 435.725C57.9675 435.725 58.6591 435.725 59.3591 435.725C59.4424 435.015 59.4424 434.305 59.4508 433.594V428.736C59.4508 424.886 59.4508 421.022 59.2508 417.193C59.2536 417.051 59.2283 416.909 59.1758 416.774C59.1276 416.69 59.0445 416.624 58.9424 416.59C58.4508 416.391 57.2758 415.773 56.8591 416.483C56.4424 417.193 56.6258 419.431 56.6008 420.361C56.5341 423.482 56.5341 426.602 56.6008 429.723C56.6952 431.499 56.7869 433.275 56.8758 435.05Z" fill="#3F3D56"/>
<path d="M86.1477 277.164C86.1338 277.653 86.1754 278.142 86.2715 278.622C86.5061 280.013 86.7994 281.392 87.1317 282.764C87.3207 283.351 87.396 283.97 87.3533 284.586C87.1591 285.375 86.8493 286.13 86.4344 286.826C85.1311 289.788 86.5322 293.453 85.2679 296.408C84.9682 297.117 84.525 297.734 84.2644 298.476C83.6974 300.047 84.0167 301.789 83.8277 303.446C83.6223 304.617 83.3414 305.772 82.9871 306.905C82.0682 310.59 83.5866 314.513 82.7004 318.211C81.9444 321.379 81.1755 324.573 81.1233 327.827C81.0777 330.086 81.384 332.353 81.1233 334.606C80.8627 336.859 79.9438 339.172 78.0605 340.371C76.5747 341.319 74.7305 341.425 72.971 341.458C69.5888 341.518 66.1871 341.419 62.805 341.153C59.4228 340.888 55.793 340.325 53.4144 337.88C54.3203 330.663 55.1479 322.916 51.8048 316.481C50.8143 314.579 49.4588 312.79 49.1134 310.67C49.0222 310.126 48.9961 309.576 48.8853 309.039C48.7309 308.406 48.5125 307.791 48.2337 307.204C46.031 302.092 43.8262 296.987 41.6193 291.889C41.2674 291.067 40.9155 290.245 40.5505 289.424C39.4101 286.773 38.2632 284.122 37.2922 281.378C36.1387 278.171 35.2264 274.884 34.3532 271.597C33.7351 269.651 33.3971 267.624 33.3496 265.58C33.4445 263.771 33.8618 261.995 34.5813 260.338C34.9723 259.37 35.4284 258.423 35.8846 257.495C48.9896 254.351 62.4767 253.177 75.9165 254.009C78.0656 254.049 80.1974 254.409 82.2442 255.076C83.6311 255.575 84.8803 256.404 85.887 257.495C86.3506 258.002 86.7312 258.582 87.0144 259.211C87.8029 260.961 87.7508 262.976 87.6986 264.897C87.5813 268.509 87.464 272.187 86.4865 275.64C86.3223 276.134 86.2087 276.645 86.1477 277.164Z" fill="#3F3D56" fill-opacity="0.9"/>
<path d="M76.118 427.328C74.086 428.928 71.7014 429.973 69.1819 430.367C66.9565 430.707 64.5179 430.465 62.7522 428.979C60.7534 427.321 60.0405 424.503 59.4674 421.894L58.7012 418.424C58.4214 417.175 58.1482 415.925 57.9283 414.662C57.356 411.327 57.1881 407.93 57.4286 404.551C55.603 405.293 54.5103 407.549 54.3903 409.582C54.2704 411.616 54.8767 413.607 55.4297 415.565C55.6478 416.51 55.9814 417.421 56.4225 418.278C56.749 418.847 57.1754 419.354 57.4553 419.951C57.8043 420.834 58.0049 421.773 58.0482 422.726C58.4626 425.862 59.0611 428.967 59.8406 432.026L61.0266 437.12L61.1465 437.634L62.1526 441.95C62.1833 442.104 62.2325 442.253 62.2992 442.394C62.4244 442.606 62.5927 442.786 62.7922 442.922C64.8725 444.51 67.3183 445.499 69.8826 445.787C72.447 446.076 75.0391 445.655 77.3972 444.567C77.5803 444.488 77.7492 444.378 77.897 444.24C78.1538 443.869 78.27 443.412 78.2234 442.956C78.166 441.578 78.4264 440.205 78.983 438.952C79.2847 438.49 79.5308 437.991 79.7159 437.467C79.8256 436.617 79.669 435.753 79.2695 435.003L76.8042 428.993C76.6588 428.405 76.4274 427.843 76.118 427.328Z" fill="#3F3D56"/>
<path d="M70.4003 189.448C70.3087 190.783 70.0609 192.1 69.6629 193.369C69.3669 194.29 68.8466 195.112 68.155 195.75C67.0225 194.125 65.0011 193.565 63.4669 192.368C62.205 191.228 61.1069 189.898 60.2077 188.419C58.2323 185.619 55.9805 183.133 53.8735 180.487C53.5508 180.081 53.215 179.682 52.9319 179.276C51.8547 177.88 50.8796 176.398 50.015 174.844C48.257 171.623 47.052 167.92 44.4051 165.483C42.9631 164.153 41.1524 163.278 39.875 161.772C40.654 160.354 41.1619 158.786 41.3697 157.159C41.6725 155.597 41.9688 154.029 42.1269 152.44C42.173 152.02 42.1993 151.6 42.2125 151.179C42.2125 150.997 42.2125 150.822 42.2125 150.64C42.2125 149.345 41.4289 147.14 42.6734 146.398C43.8125 145.698 45.6825 145.698 47.0257 145.74H47.2693C50.3878 145.776 53.4287 146.779 56.02 148.624C56.6098 149.008 57.1241 149.509 57.5344 150.101C58.1351 151.267 58.366 152.608 58.1928 153.924C58.1928 154.232 58.1928 154.54 58.1467 154.841V155.289C58.1007 156.788 58.2389 158.391 59.2266 159.434C60.2142 160.477 61.9657 160.61 63.4077 161.086C63.6447 161.17 63.8686 161.254 64.099 161.352C65.6781 162.11 67.0261 163.323 67.9904 164.853C69.0744 166.612 69.8403 168.571 70.2489 170.629C70.651 172.47 70.9043 174.344 71.0061 176.23C71.1481 180.646 70.9455 185.068 70.4003 189.448Z" fill="#FBBEBE"/>
<path opacity="0.1" d="M59.3803 156.608V157.142C57.5729 157.978 53.1661 155.672 51.1285 155.672C47.0669 155.672 45.8349 156.649 42.9106 153.742C42.9715 153.032 43.0121 152.314 43.0257 151.595C43.0257 150.05 42.2201 147.419 43.4995 146.533C44.7789 145.648 46.8165 145.698 48.1974 145.748C51.4035 145.792 54.5298 146.988 57.1938 149.19C57.8002 149.647 58.3289 150.246 58.7508 150.952C59.6105 152.556 59.4751 154.67 59.3803 156.608Z" fill="black"/>
<path d="M69.5834 137.918C69.5841 140.357 69.039 142.765 67.9874 144.97C66.9359 147.175 65.404 149.122 63.5019 150.67C61.5999 152.219 59.375 153.33 56.9872 153.925C54.5995 154.52 52.1083 154.584 49.6928 154.111C45.9071 153.369 42.4987 151.349 40.0481 148.396C37.5975 145.443 36.2564 141.74 36.2533 137.918C36.2091 135.722 36.6076 133.54 37.4256 131.498C38.2436 129.456 39.4645 127.597 41.017 126.028C42.5695 124.46 44.4223 123.214 46.467 122.363C48.5117 121.512 50.7072 121.074 52.925 121.074C55.1428 121.074 57.3383 121.512 59.383 122.363C61.4277 123.214 63.2805 124.46 64.833 126.028C66.3855 127.597 67.6064 129.456 68.4244 131.498C69.2424 133.54 69.6409 135.722 69.5967 137.918H69.5834Z" fill="#FBBEBE"/>
<path d="M41.4468 159.57C40.9139 159.128 40.2611 158.852 39.57 158.775C39.0726 158.823 38.5989 159.009 38.2035 159.312C37.8082 159.614 37.5073 160.021 37.3354 160.485C36.9236 161.386 36.7953 162.381 36.4375 163.31C35.9519 164.558 35.0709 165.617 33.9261 166.328C33.1227 166.822 32.1708 167.17 31.624 167.931C30.7599 169.14 31.2864 170.829 32.0156 172.125C34.716 176.953 39.6443 180.138 44.3632 183.083L49.6831 186.422C51.8195 187.822 54.0328 189.104 56.3126 190.262C60.0055 192.065 64.0021 193.22 67.6747 195.063C69.3624 195.905 71.0502 196.913 72.8932 197.2C73.2866 195.957 73.5335 194.673 73.6291 193.374C74.5405 185.36 75.4384 177.167 73.6291 169.3C73.3903 167.776 72.7421 166.344 71.7523 165.153C71.0559 164.494 70.2584 163.949 69.3894 163.537C67.2339 162.389 65.0162 161.359 62.7464 160.452C61.6822 159.942 60.5124 159.686 59.3303 159.704C59.4328 160.581 59.6983 161.432 60.1135 162.215C62.9624 168.496 65.8159 174.78 68.6738 181.066C69.3012 182.212 69.6567 183.484 69.7135 184.786C69.6527 186.636 68.3633 188.439 68.9101 190.215C63.9302 183.052 58.2179 176.414 51.8637 170.408C51.5849 170.177 51.3554 169.893 51.1886 169.574C51.0349 169.069 51.0025 168.537 51.0941 168.018C51.1548 167.029 50.9455 165.707 50.1084 165.046C49.5278 164.585 48.6704 164.452 48.0291 164.051C45.7945 162.649 43.6409 161.066 41.4468 159.57Z" fill="#CEAC6A"/>
<path opacity="0.1" d="M86.2746 259.085C82.0298 261.249 77.4062 262.544 72.6676 262.897C67.9429 263.238 63.2011 263.266 58.4728 262.978L47.7047 262.565C42.815 262.368 38.0122 261.969 33.3496 260.48C33.7504 259.491 34.218 258.523 34.6856 257.576C48.1189 254.364 61.9439 253.165 75.7203 254.015C77.9233 254.056 80.1085 254.423 82.2065 255.105C83.6282 255.614 84.9087 256.461 85.9406 257.576C86.0475 258.09 86.1677 258.598 86.2746 259.085Z" fill="black" fill-opacity="0.9"/>
<path d="M84.7795 207.238C82.964 213.436 84.2114 220.221 85.3412 226.578C85.6585 226.795 85.9008 227.106 86.0342 227.469C86.1677 227.831 86.1857 228.227 86.0856 228.6C85.86 229.333 85.567 230.043 85.2105 230.721C85.0336 231.062 84.9368 231.44 84.9278 231.825C84.9187 232.21 84.9976 232.592 85.1583 232.941C85.3216 233.231 85.5763 233.455 85.746 233.738C85.9727 234.198 86.0869 234.707 86.0791 235.22C86.2228 237.618 86.3665 240.069 85.7265 242.381C85.3542 243.698 84.7208 245.121 85.1387 246.452C85.3869 247.255 86.0007 247.934 86.0856 248.77C86.1705 249.607 85.6611 250.476 85.3542 251.32C84.6293 253.296 85.0212 255.687 85.524 257.742C81.3741 259.847 76.8539 261.107 72.2213 261.451C67.6024 261.787 62.9664 261.813 58.3439 261.53L47.8167 261.128C42.9972 260.944 38.2691 260.548 33.6781 259.073C33.234 255.878 32.8618 252.36 34.6381 249.693C34.981 249.265 35.2584 248.787 35.461 248.276C35.7744 247.183 35.0887 246.07 34.8732 244.983C34.4226 242.697 35.9442 240.543 37.2438 238.626C37.4439 238.369 37.5985 238.079 37.7009 237.77C37.9426 236.887 37.4136 235.919 37.4071 235.029C37.4017 234.773 37.46 234.519 37.5768 234.292C37.7662 233.916 38.132 233.633 38.3279 233.29C38.5364 232.81 38.6 232.279 38.5107 231.762C38.2669 228.447 37.8707 225.153 37.3222 221.881C37.2699 221.591 37.2177 221.288 37.1458 220.992C37.0527 220.531 36.892 220.087 36.6691 219.674C36.3622 219.141 35.9116 218.713 35.6112 218.179C35.4628 217.879 35.3856 217.549 35.3856 217.214C35.3856 216.879 35.4628 216.549 35.6112 216.249C35.905 215.696 35.1018 215.215 34.8471 214.642C34.7377 214.196 34.7133 213.733 34.7753 213.278C34.6823 212.508 34.3894 211.777 33.9263 211.157C33.3516 210.242 32.7769 209.333 32.1892 208.43C29.5769 204.342 26.8537 200.323 24.0195 196.375C22.6742 194.485 21.2962 192.601 19.9052 190.743C18.7755 189.241 17.613 187.72 17.0449 185.921C16.9443 185.609 16.8657 185.29 16.8098 184.966C16.4943 183.239 16.7394 181.456 17.5085 179.881C18.2696 178.574 19.1438 177.337 20.1207 176.186C21.0454 174.773 22.0483 173.413 23.1248 172.115C23.6681 171.468 24.3349 170.938 25.0855 170.557C25.8361 170.175 26.6551 169.95 27.4937 169.895C28.4668 169.895 29.6031 170.171 30.2757 169.467C30.5239 169.216 30.6545 168.88 30.9288 168.637C31.6406 167.978 32.8096 168.419 33.6651 168.907L50.1089 178.28L52.7734 179.808C53.2567 180.098 53.753 180.388 54.2362 180.685C56.5176 182.028 58.704 183.529 60.7798 185.177C63.8231 187.641 67.1993 189.907 69.8507 192.792C70.1054 193.062 70.3471 193.332 70.5822 193.615C71.0611 190.243 71.54 186.866 72.0189 183.484C72.1958 182.511 72.2594 181.521 72.2083 180.533C72.084 179.562 71.8473 178.609 71.503 177.694C71.3985 177.365 71.2874 177.035 71.183 176.706C70.5887 174.914 69.9944 173.129 69.4067 171.337C68.5381 168.702 67.6108 165.982 65.6516 164.045C65.1758 163.637 64.7386 163.185 64.3455 162.695C64.1598 162.45 64.0335 162.164 63.9768 161.861C63.9201 161.558 63.9346 161.246 64.019 160.949L77.8702 165.31C78.5233 165.521 79.1763 165.725 79.8294 165.969C80.596 166.306 81.3125 166.75 81.9583 167.286C83.0003 168.122 83.8096 169.217 84.3075 170.462C84.8053 171.708 84.9747 173.062 84.7991 174.394C84.662 175.27 84.3616 176.1 84.1787 176.963C83.8587 178.524 83.3624 180.322 84.0351 181.771C84.7077 183.221 85.3412 184.499 85.9485 185.862C86.4739 186.901 86.9108 187.983 87.2546 189.097C87.633 190.618 87.7849 192.187 87.7052 193.754C87.6231 197.249 87.0244 200.713 85.9289 204.03C85.5175 205.077 85.106 206.144 84.7795 207.238Z" fill="#454B69" fill-opacity="0.9"/>
<path d="M56.5508 215.325L90.4931 211.128L96.4258 210.25L90.9723 212.788L56.5508 215.325Z" fill="#3F3D56"/>
<path d="M56.5508 216.776V214.208L91.115 212.426L92.8008 213.937L56.5508 216.776Z" fill="#3F3D56"/>
<path d="M55.4028 211.624C56.1429 211.416 56.9358 211.457 57.6825 211.27C58.6538 211.027 59.5261 210.402 60.5172 210.27C61.1283 210.219 61.7432 210.266 62.341 210.409L66.9003 211.242C67.2505 211.311 67.6602 211.423 67.7857 211.777C67.8191 211.936 67.811 212.103 67.7622 212.258C67.7133 212.413 67.6256 212.551 67.5082 212.659C66.6889 213.568 65.3805 213.7 64.2043 213.777L61.026 213.978C60.4069 213.968 59.7947 214.115 59.2419 214.408C58.9757 214.569 58.7708 214.821 58.6622 215.123C58.5537 215.424 58.5484 215.756 58.6472 216.061C58.8176 216.364 59.0709 216.606 59.3741 216.755C60.6405 217.489 62.0966 217.778 63.5304 217.582C64.6889 217.351 65.8255 217.011 66.9267 216.568C69.7229 215.625 72.6739 215.296 75.5961 215.603C76.356 215.679 77.2414 215.908 77.5123 216.658C77.5842 216.922 77.594 217.2 77.5411 217.468C77.4881 217.737 77.374 217.988 77.2084 218.2C76.0719 219.859 73.812 219.915 71.9222 220.366C70.1155 220.8 68.4438 221.71 67.0655 223.012C67.4884 223.922 67.1382 225.005 66.7153 225.907C66.2371 226.952 65.6663 227.947 65.0105 228.879C64.6575 229.458 64.162 229.926 63.5766 230.233C63.1916 230.373 62.7879 230.448 62.3806 230.456C58.4323 230.701 54.4702 230.468 50.5726 229.761C50.1518 229.73 49.7525 229.555 49.4361 229.261C49.2351 228.98 49.1096 228.646 49.0726 228.296C48.6696 226.213 48.3127 224.13 48.0088 221.998C47.7119 220.677 47.8325 219.29 48.3524 218.047C48.8414 217.082 49.6078 216.769 50.3876 216.117C52.0791 214.707 53.1628 212.249 55.4028 211.624Z" fill="#FBBEBE"/>
<path d="M99.3665 170.54L91.3936 211.469C91.3287 211.778 91.3357 212.097 91.414 212.402C91.4923 212.707 91.6397 212.988 91.8439 213.222C92.0482 213.456 92.3034 213.636 92.5884 213.748C92.8734 213.859 93.1799 213.899 93.4827 213.863L123.554 210.808C123.968 210.77 124.359 210.593 124.668 210.305C124.977 210.016 125.187 209.631 125.266 209.208L132.632 171.327C132.693 171.034 132.689 170.73 132.62 170.439C132.551 170.148 132.42 169.877 132.235 169.646C132.051 169.415 131.818 169.23 131.555 169.105C131.292 168.981 131.005 168.92 130.715 168.926H101.264C100.815 168.923 100.38 169.082 100.033 169.377C99.6861 169.672 99.4503 170.083 99.3665 170.54Z" fill="#3F3D56"/>
<path d="M114 219.298C115.967 218.049 116.524 215.525 117.422 213.391C118.142 211.827 118.97 210.314 119.9 208.866C120.686 207.545 121.473 205.966 120.85 204.572C120.359 203.682 119.547 203.018 118.582 202.715C117.712 202.294 116.729 202.171 115.783 202.365C114.721 202.656 113.934 203.541 113.22 204.38L110.677 207.353C109.587 208.777 108.277 210.015 106.796 211.02C105.864 211.541 104.88 211.96 103.859 212.268C102.037 212.876 100.188 213.411 98.3201 213.86C97.2459 214.072 96.1975 214.4 95.1933 214.838C94.9918 214.913 94.8069 215.028 94.6495 215.175C94.492 215.323 94.3649 215.5 94.2756 215.697C94.194 216.193 94.3094 216.701 94.5968 217.111C95.2523 218.32 95.9799 220.784 97.3237 221.213C98.6036 221.533 99.9086 221.738 101.224 221.828C102.535 221.967 103.525 221.438 104.685 220.943C106.148 220.382 107.71 220.13 109.274 220.203C110.611 220.176 112.945 220.368 114 219.298Z" fill="#FBBEBE"/>
<path d="M97.4274 213.875C97.4274 213.875 98.5858 222.187 105.851 221.273C105.851 221.273 101.983 222.913 102.388 223.834C102.794 224.755 93.4218 222.041 93.4218 222.041L92.9375 217.707C92.9375 217.707 92.6299 215.313 92.9375 215.25C93.2451 215.187 97.4274 213.875 97.4274 213.875Z" fill="#454B69"/>
<path opacity="0.1" d="M97.4274 213.875C97.4274 213.875 98.5858 222.187 105.851 221.273C105.851 221.273 101.983 222.913 102.388 223.834C102.794 224.755 93.4218 222.041 93.4218 222.041L92.9375 217.707C92.9375 217.707 92.6299 215.313 92.9375 215.25C93.2451 215.187 97.4274 213.875 97.4274 213.875Z" fill="black"/>
<path opacity="0.1" d="M63.0742 180.525C63.8682 180.891 64.521 181.47 64.9447 182.184C65.621 183.166 66.1318 184.235 66.46 185.357C66.8587 186.684 67.0472 188.243 68.1492 189.225" fill="black"/>
<path opacity="0.1" d="M33.06 202.83C33.6042 204.829 33.3789 206.968 32.4311 208.8C29.7551 204.516 26.9653 200.307 24.0617 196.17C22.6836 194.19 21.2719 192.216 19.8469 190.27C18.6895 188.696 17.4987 187.102 16.9166 185.218C16.8136 184.891 16.7331 184.556 16.6758 184.218C17.3893 183.122 18.4597 182.326 19.693 181.975C21.6466 187.82 26.5973 192.009 30.1431 197.005C31.4673 198.737 32.4575 200.714 33.06 202.83Z" fill="black"/>
<path opacity="0.1" d="M58 231.573L45.5511 232C44.4924 232.036 43.185 232.242 42.851 233.253C42.7516 233.574 42.7658 233.923 42.6663 234.243C42.3181 235.375 40.8046 235.51 39.618 235.503C38.5877 235.503 37.5574 235.546 36.5342 235.624C36.5284 235.347 36.5919 235.073 36.719 234.827C36.925 234.421 37.3229 234.115 37.5361 233.745C37.763 233.225 37.8322 232.651 37.7351 232.093C37.4698 228.509 37.0387 224.949 36.4419 221.413C36.385 221.1 36.3282 220.772 36.25 220.452C37.2141 219.815 38.3425 219.473 39.4972 219.469C40.5204 219.583 41.4583 220.181 42.4815 220.131C44.2579 220.039 45.4872 218.052 47.2636 217.938C47.643 217.966 48.0242 217.92 48.3862 217.803C48.9476 217.518 49.0399 216.771 49.3313 216.215C49.7576 215.389 50.9513 215.19 51.8537 215.404C51.829 217.29 51.9502 219.175 52.2161 221.043C52.3051 221.861 52.496 222.664 52.7845 223.435C53.1234 224.215 53.5476 224.956 54.0493 225.642C55.3852 227.636 56.6642 229.565 58 231.573Z" fill="black" fill-opacity="0.9"/>
<path d="M18.9166 181.975C16.8726 182.485 15.4201 184.397 14.822 186.413C14.224 188.43 14.3291 190.577 14.3883 192.679C14.5899 200.478 14.0552 208.28 12.7912 215.979C12.1865 219.672 11.411 223.378 11.641 227.109C11.7659 229.132 12.2326 231.221 13.5339 232.779C15.591 235.228 19.1663 235.732 22.3736 235.607C28.131 235.385 33.7831 233.702 39.5471 233.741C40.6446 233.741 42.038 233.617 42.3666 232.576C42.4586 232.288 42.4389 231.967 42.5374 231.673C42.8398 230.743 44.0491 230.546 45.0349 230.514L56.5496 230.127C55.314 228.314 54.131 226.533 52.8954 224.72C52.4331 224.086 52.0387 223.406 51.719 222.69C51.4552 221.978 51.2786 221.238 51.1932 220.484C50.9492 218.769 50.8393 217.037 50.8646 215.305C50.0299 215.115 48.8929 215.305 48.5248 216.045C48.2554 216.562 48.1699 217.243 47.6573 217.505C47.3216 217.619 46.9655 217.662 46.6123 217.629C44.9758 217.741 43.8388 219.593 42.1957 219.652C41.2493 219.698 40.3752 219.142 39.4353 219.043C37.9434 218.886 36.6092 219.868 35.2422 220.471C34.1211 220.96 32.9104 221.212 31.6866 221.212C30.4627 221.212 29.2521 220.96 28.131 220.471C27.7958 220.327 27.4211 219.908 27.6972 219.659C27.9732 219.41 28.1901 219.62 28.4136 219.515C28.8342 219.305 28.5253 218.683 28.2953 218.277C27.638 217.106 28.0981 215.659 28.7356 214.441C29.3731 213.223 30.2078 212.078 30.2275 210.729C30.1868 210.293 30.1868 209.855 30.2275 209.419C30.4347 208.804 30.7632 208.237 31.1937 207.75C31.7461 206.86 32.1062 205.866 32.2511 204.83C32.3959 203.794 32.3223 202.739 32.0349 201.733C31.4403 199.728 30.4653 197.854 29.1628 196.214C25.7058 191.5 20.8423 187.52 18.9166 181.975Z" fill="#454B69" fill-opacity="0.9"/>
<path opacity="0.1" d="M50.2476 177.537L52.9258 179.076C52.1047 179.461 51.2632 179.8 50.4051 180.091C44.366 182.141 46.5191 184.988 40.1518 184.908C35.8129 184.862 30.8635 184.523 27.8242 187.655C26.3932 189.128 25.6712 191.145 24.9885 193.096C24.6734 193.985 24.3649 194.874 24.0564 195.75C22.7041 193.845 21.3191 191.948 19.9209 190.077C18.7853 188.564 17.6169 187.031 17.0458 185.22C16.4237 183.206 16.5906 181.028 17.5118 179.136C18.2769 177.819 19.1555 176.574 20.1375 175.414C21.0669 173.99 22.075 172.621 23.1571 171.313C23.7032 170.662 24.3734 170.128 25.1279 169.744C25.8823 169.36 26.7056 169.133 27.5485 169.077C28.5266 169.077 29.6688 169.356 30.3449 168.646C30.5943 168.394 30.7256 168.055 31.0013 167.81C31.7168 167.146 32.8918 167.591 33.7517 168.082L50.2476 177.537Z" fill="black"/>
<path d="M65.8015 126.444C65.7137 125.641 65.5202 124.855 65.2265 124.106C64.9448 123.528 64.5864 122.994 64.1614 122.518C62.7762 120.917 61.0787 119.632 59.1787 118.747C57.2787 117.862 55.2185 117.395 53.1316 117.378C52.7683 117.354 52.4044 117.414 52.0665 117.552C51.9823 117.591 51.9032 117.641 51.8313 117.7C48.819 115.616 45.297 113.572 42.0299 112.762C39.7633 112.216 37.4009 112.248 35.1493 112.855C32.4114 113.7 31.4574 115.938 30.2944 118.383C28.4233 122.316 25.5774 125.676 22.0416 128.126C19.7677 129.7 17.069 131.054 15.9778 133.634C14.9584 136.039 15.6511 138.8 15.8928 141.413C16.1759 144.944 15.6041 148.492 14.2282 151.741C12.8523 154.991 10.7149 157.842 8.006 160.04C4.89569 162.513 0.746428 164.577 0.0864684 168.55C-0.383998 171.377 1.16462 174.091 2.33425 176.698C4.81074 182.205 5.66019 188.933 2.75245 194.213C1.9226 195.714 0.792173 197.087 0.367447 198.749C-0.41013 201.704 1.24304 204.913 3.70645 206.629C6.16987 208.344 9.27364 208.813 12.2533 208.8C14.4226 208.8 16.7684 208.465 18.304 206.903C19.2582 205.776 19.9527 204.444 20.3361 203.004C21.5907 199.363 22.8475 195.725 24.1064 192.089C24.7598 190.119 25.5047 188.068 26.9292 186.594C29.948 183.432 34.8814 183.767 39.194 183.82C45.5388 183.901 43.3955 181.033 49.4005 178.956C52.929 177.736 56.7646 175.659 57.5879 171.934C58.4113 168.208 55.9674 164.831 53.8307 161.816C52.2277 159.582 50.7161 157.271 49.296 154.881C47.9042 152.576 46.5777 150.144 46.1922 147.463C45.5388 143.008 56.0916 140.522 57.6729 136.321C58.1242 135.135 58.5039 133.922 58.8099 132.689C59.5678 132.629 60.267 132.555 60.7701 132.535C62.7892 132.441 65.0566 131.63 65.7492 129.687C66.0314 128.628 66.0494 127.512 65.8015 126.444Z" fill="#4D4B51"/>
<g opacity="0.1">
<path opacity="0.1" d="M48.3318 116.876C48.6732 116.745 49.0383 116.689 49.4029 116.711H49.554C47.3126 115.287 44.8778 114.198 42.3259 113.479L41.7148 113.354C43.9519 114.391 46.0974 115.618 48.1281 117.022C48.1916 116.967 48.2598 116.919 48.3318 116.876Z" fill="#4D4B51"/>
<path opacity="0.1" d="M66.1721 127.001C66.0838 126.208 65.8892 125.431 65.5939 124.69C65.3123 124.119 64.9516 123.591 64.5228 123.121C62.2761 120.571 59.2404 118.861 55.9082 118.268C57.657 119.125 59.2203 120.322 60.5079 121.79C60.9394 122.255 61.3004 122.782 61.579 123.353C61.8797 124.094 62.0744 124.874 62.1572 125.67C62.4108 126.725 62.3972 127.827 62.1178 128.875C61.4278 130.795 59.1411 131.597 57.1173 131.683C56.6245 131.683 55.9148 131.782 55.146 131.835C54.8393 133.056 54.4574 134.257 54.0026 135.43C52.4124 139.575 41.82 142.052 42.464 146.442C42.8451 149.09 44.1856 151.494 45.5786 153.772C46.9717 156.05 48.5356 158.407 50.1389 160.625C52.2876 163.605 54.7386 167.028 53.9172 170.623C53.0958 174.219 49.2387 176.358 45.6903 177.563C39.645 179.615 41.8003 182.449 35.4264 182.37C31.083 182.317 26.1219 181.986 23.0861 185.111C21.6536 186.581 20.9308 188.594 20.2474 190.541L16.456 201.327C16.0691 202.748 15.3732 204.064 14.419 205.181C12.8682 206.724 10.5092 207.041 8.33424 207.048C7.09547 207.062 5.85782 206.969 4.63477 206.77C6.94775 208.035 9.701 208.399 12.3557 208.386C14.5372 208.386 16.8962 208.055 18.4404 206.512C19.4 205.398 20.0985 204.081 20.484 202.658C21.7456 199.065 23.0094 195.469 24.2755 191.872C24.9326 189.925 25.6817 187.899 27.1141 186.442C30.1499 183.317 35.111 183.648 39.4479 183.701C45.8283 183.78 43.673 180.946 49.7118 178.894C53.2601 177.689 57.1173 175.636 57.9452 171.954C58.7732 168.273 56.3156 164.936 54.1669 161.956C52.5548 159.749 51.0347 157.464 49.6066 155.103C48.207 152.825 46.8731 150.421 46.4854 147.773C45.8283 143.37 56.4405 140.913 58.0306 136.761C58.4845 135.59 58.8663 134.391 59.174 133.172C59.9362 133.113 60.6393 133.04 61.1453 133.02C63.1757 132.927 65.4559 132.126 66.1524 130.206C66.4253 129.156 66.4321 128.054 66.1721 127.001Z" fill="#4D4B51"/>
</g>
<path opacity="0.1" d="M290.726 445.874C442.079 445.874 564.776 441.33 564.776 435.724C564.776 430.119 442.079 425.574 290.726 425.574C139.372 425.574 16.6758 430.119 16.6758 435.724C16.6758 441.33 139.372 445.874 290.726 445.874Z" fill="#CEAC6A"/>
<path opacity="0.3" d="M545.2 69.5996H419.775C417.773 69.5996 416.15 71.2226 416.15 73.2246V160.225C416.15 162.227 417.773 163.85 419.775 163.85H545.2C547.202 163.85 548.825 162.227 548.825 160.225V73.2246C548.825 71.2226 547.202 69.5996 545.2 69.5996Z" fill="#E4BF80"/>
<path opacity="0.3" d="M419.051 71.0508L545.201 160.951" stroke="#CEAC6A" stroke-width="1.45" stroke-miterlimit="10"/>
<path opacity="0.3" d="M545.2 73.2246L421.225 160.95" stroke="#CEAC6A" stroke-width="1.45" stroke-miterlimit="10"/>
<path d="M548.006 120.374L549.04 122.526L552.141 106.389C552.141 106.389 556.275 89.1758 548.006 89.1758C539.737 89.1758 541.804 106.389 541.804 106.389V118.223L548.006 120.374Z" fill="#A0616A" fill-opacity="0.9"/>
<path d="M450.805 250.125L437.176 331.5L443.99 410.675L459.891 404.078L457.62 344.695L473.522 297.409L476.929 353.493L470.115 411.775L490.56 413.975L505.326 294.111L501.17 250.125H450.805Z" fill="#4D4B51" fill-opacity="0.95"/>
<path d="M452.229 400.638L444.426 413.432V442.02C444.426 442.844 444.707 443.64 445.218 444.267C445.73 444.894 446.439 445.311 447.218 445.442C451.043 446.097 457.702 446.562 460.032 442.51C463.377 436.695 461.147 423.9 461.147 423.9C461.147 423.9 465.606 414.595 463.377 407.616C461.147 400.638 458.918 399.475 458.918 399.475L452.229 400.638Z" fill="#2F2E41"/>
<path d="M484.73 412.276L486.856 415.882C486.856 415.882 490.045 419.488 487.919 421.892C486.359 423.76 484.937 425.77 483.667 427.901C483.667 427.901 471.975 431.507 471.975 426.699V411.074L484.73 412.276Z" fill="#2F2E41"/>
<path d="M481.4 160.951C489.008 160.951 495.175 153.81 495.175 145.001C495.175 136.192 489.008 129.051 481.4 129.051C473.792 129.051 467.625 136.192 467.625 145.001C467.625 153.81 473.792 160.951 481.4 160.951Z" fill="#A0616A" fill-opacity="0.9"/>
<path d="M471.653 147.176L470.525 171.282L490.825 172.551L489.698 148.444L471.653 147.176Z" fill="#A0616A" fill-opacity="0.9"/>
<path d="M496.982 172.544L493.577 164.902C493.577 164.902 477.787 159.321 472.988 164.83L470.589 171.442L451.394 167.034L436.449 185.666L450.195 251.878C450.195 251.878 466.735 291.589 500.326 262.94L522.724 185.666L511.378 170.34L496.982 172.544Z" fill="#575A89" fill-opacity="0.95"/>
<path d="M503.875 174.123L506.067 169.662L527.992 156.282L541.371 116L551.725 120.513L541.371 169.662L526.15 187.079L508.259 198.65L503.875 174.123Z" fill="#575A89" fill-opacity="0.95"/>
<path d="M451.503 168.559L449.75 165.948L429.677 147.31L419.641 111.274L405.798 113.161L409.313 154.943L423.399 174.829L441.514 191.65L451.503 168.559Z" fill="#575A89" fill-opacity="0.95"/>
<path d="M491.983 121.884L494.398 120.655L490.775 119.425V118.195C490.775 118.195 472.664 110.817 470.249 123.114C467.132 127.379 465.449 132.554 465.449 137.87C465.449 143.187 467.132 148.361 470.249 152.627V156.316L489.568 158.775L491.983 151.397C491.983 151.397 504.057 129.262 491.983 121.884Z" fill="#4D4B51"/>
<path d="M133.626 167.094H102.703C102.235 167.095 101.782 167.258 101.42 167.556C101.058 167.854 100.808 168.269 100.714 168.73L92.3469 210.311C92.3337 210.424 92.3337 210.539 92.3469 210.652L91.5512 210.739L90.8418 210.812C90.7991 210.804 90.757 210.793 90.7158 210.779C90.607 210.701 90.5153 210.602 90.4468 210.487C90.3783 210.372 90.3344 210.244 90.318 210.111C89.9122 208.63 89.6175 207.121 89.4362 205.596C89.3335 203.924 89.3335 202.246 89.4362 200.574C89.476 199.238 89.4362 197.936 89.4362 196.62C89.6562 195.14 89.7868 193.648 89.8274 192.152C89.9063 190.557 89.7499 188.959 89.3633 187.41C89.1189 186.57 88.8085 185.75 88.4351 184.959C88.1434 182.715 87.8251 180.464 87.5002 178.227C87.2549 176.564 87.0096 174.888 86.6847 173.245C86.7577 172.971 86.8173 172.697 86.8637 172.417C87.0427 171.057 86.8672 169.674 86.3545 168.404C85.8419 167.133 85.0097 166.019 83.9399 165.17C83.2764 164.627 82.5426 164.178 81.7586 163.835C81.1082 163.566 80.4443 163.332 79.7696 163.133L69.1017 159.794C68.1138 158.345 67.1127 156.882 66.2243 155.386C65.3584 154.039 64.6023 152.623 63.9634 151.152C67.4265 148.663 69.8127 144.933 70.6326 140.728C71.4524 136.523 70.6437 132.162 68.3724 128.538C68.1934 128.258 68.0078 127.977 67.8155 127.71C67.8931 126.418 67.7427 125.122 67.3713 123.883C67.289 123.424 67.1532 122.975 66.9668 122.548C66.6788 121.968 66.3104 121.433 65.8729 120.958C65.7867 120.858 65.6872 120.764 65.5944 120.664C64.7209 119.698 63.7424 118.833 62.6772 118.086C59.1367 115.502 54.3895 112.363 50.0468 111.308C47.9008 110.816 45.6737 110.804 43.5228 111.274L43.1913 111.181L42.5614 111.054C42.7206 111.121 42.8731 111.207 43.0322 111.281C40.7544 110.768 38.3879 110.811 36.1303 111.408C33.3191 112.249 32.3378 114.493 31.151 116.944C29.2244 120.889 26.3024 124.254 22.6778 126.702C20.344 128.278 17.5792 129.64 16.4588 132.225C15.4112 134.636 16.1206 137.394 16.3659 140.019C16.6637 143.58 16.0745 147.159 14.6516 150.433C13.2287 153.707 11.0172 156.571 8.21754 158.766C5.02846 161.237 0.771946 163.307 0.0890462 167.288C-0.394951 170.126 1.19627 172.837 2.39632 175.455C4.93564 180.972 5.80419 187.711 2.82064 193.007C1.97862 194.51 0.831619 195.885 0.380772 197.548C-0.41484 200.507 1.27583 203.726 3.80853 205.449C6.34123 207.172 9.51704 207.633 12.5801 207.62C13.1039 207.62 13.6343 207.62 14.1714 207.546C13.9062 210.131 13.5747 212.715 13.157 215.28C12.5404 219.067 11.7514 222.867 11.9901 226.694C12.116 228.764 12.5868 230.908 13.9194 232.504C16.0145 235.022 19.6611 235.536 22.9297 235.409C28.1012 235.209 33.1865 233.853 38.3314 233.553C38.2351 233.762 38.1853 233.99 38.1856 234.22C38.1856 235.122 38.7359 236.117 38.4839 237.012C38.3773 237.325 38.2205 237.618 38.0198 237.88C36.6938 239.844 35.1225 242.034 35.58 244.365C35.8054 245.501 36.5082 246.636 36.1833 247.751C35.9779 248.272 35.6915 248.757 35.3346 249.187C33.518 251.912 33.8959 255.499 34.3534 258.751L34.9633 258.925C34.791 259.299 34.6186 259.679 34.4595 260.06C33.7162 261.748 33.287 263.559 33.1931 265.403C33.2439 267.473 33.5923 269.524 34.2274 271.494C35.1291 274.833 36.064 278.172 37.2507 281.398C38.2585 284.17 39.4453 286.861 40.6188 289.559C40.9901 290.387 41.3548 291.222 41.7194 292.057C43.9825 297.222 46.25 302.391 48.5219 307.565C48.8073 308.158 49.0295 308.781 49.1849 309.421C49.3043 309.969 49.3308 310.523 49.417 311.078C49.775 313.228 51.1673 315.038 52.1884 316.968C55.6294 323.48 54.7741 331.334 53.8392 338.647C54.3503 339.161 54.9226 339.61 55.5432 339.983C55.4437 340.717 55.3443 341.459 55.1918 342.167C54.2835 346.341 53.2027 350.481 52.5729 354.722C52.2559 356.784 52.1007 358.867 52.1088 360.954C52.1088 362.957 52.8182 364.994 52.8182 366.964C53.3022 368.968 54.0381 370.878 54.5553 372.861C54.7675 375.94 55.1255 379.019 55.583 382.091C55.7332 384.879 55.8879 387.668 56.0471 390.46C56.1863 392.931 56.299 395.529 55.1984 397.746C55.1984 397.819 55.1189 397.893 55.0791 397.966C54.1174 397.901 53.1549 398.082 52.2818 398.493C51.4086 398.904 50.6533 399.532 50.0866 400.317C48.9265 402.017 48.2585 404.008 48.1572 406.067C48.0167 406.937 48.1153 407.828 48.4423 408.645C48.7606 409.313 49.3175 409.761 49.6822 410.375C50.0397 411.089 50.2645 411.863 50.3452 412.659C51.0878 417.281 51.837 421.916 52.2348 426.584C52.3541 428.007 52.4668 429.509 53.2956 430.671C54.1243 431.834 55.9476 432.401 56.9885 431.419C55.9375 426.071 55.4178 420.63 55.4371 415.177C55.7845 415.127 56.1372 415.127 56.4846 415.177C56.6902 416.119 56.9753 417.054 57.2405 417.982C57.4177 418.664 57.6392 419.333 57.9035 419.986C57.7974 420.901 57.9035 422.276 57.8637 422.944C57.8107 425.896 57.8107 428.846 57.8637 431.793C57.9035 433.476 57.9632 435.159 58.0427 436.842C58.0352 437.029 58.0716 437.214 58.1488 437.383C58.1738 437.415 58.2062 437.441 58.2432 437.457C58.2803 437.473 58.3207 437.48 58.361 437.477C58.9179 437.477 59.4815 437.477 60.0384 437.477C60.0986 436.811 60.123 436.142 60.1113 435.473C60.1113 433.937 60.1113 432.406 60.1113 430.878C60.1113 429.569 60.1113 428.26 60.1113 426.951C60.5025 429.296 61.0594 431.626 61.623 433.931L62.8164 438.859L62.9357 439.354L63.9501 443.528C63.9817 443.678 64.0307 443.823 64.096 443.962C64.225 444.164 64.3943 444.337 64.5933 444.469C66.6914 446.006 69.1529 446.962 71.7321 447.24C74.3113 447.519 76.9181 447.112 79.2922 446.059C79.4751 445.985 79.6435 445.879 79.7894 445.745C80.0553 445.387 80.1761 444.941 80.1276 444.496C80.0645 443.164 80.3239 441.837 80.8834 440.629C81.189 440.183 81.4385 439.701 81.626 439.193C81.74 438.37 81.5815 437.532 81.1751 436.809L80.0812 434.238C80.599 434.218 81.115 434.164 81.626 434.078C82.4017 433.41 81.8382 432.027 82.4813 431.239C82.7488 430.995 83.0348 430.771 83.3365 430.571C84.1454 429.857 84.0659 428.568 83.7012 427.546C82.521 424.253 79.3651 422.156 76.4081 420.3L76.0235 420.059C73.6102 408.706 69.3537 397.519 70.4874 385.998C70.7327 383.541 71.2234 381.11 71.6212 378.652C73.6102 366.564 73.4842 354.161 75.7782 342.133C76.9626 342.066 78.1155 341.723 79.1463 341.131C81.089 339.916 82.0371 337.565 82.2956 335.288C82.5542 333.01 82.2426 330.713 82.2956 328.415C82.3553 325.123 83.1376 321.89 83.92 318.678C84.8349 314.931 83.257 310.958 84.2117 307.224C84.5744 306.076 84.8623 304.904 85.0736 303.718C85.2725 302.042 84.941 300.272 85.5311 298.682C85.7963 297.954 86.2538 297.307 86.5588 296.592C87.8848 293.573 86.4262 289.913 87.7588 286.881C88.1891 286.178 88.5089 285.412 88.7069 284.61C88.7528 283.987 88.6739 283.36 88.4749 282.767C88.1367 281.378 87.8119 279.976 87.5931 278.566C87.4947 278.081 87.4524 277.586 87.4671 277.09C87.5321 276.565 87.6498 276.049 87.8185 275.548C88.8263 272.035 88.9522 268.328 89.0649 264.662C89.1246 262.718 89.1777 260.654 88.3622 258.905C88.1193 258.375 87.8071 257.881 87.434 257.435L87.5334 257.382C87.0229 255.291 86.6184 252.86 87.361 250.837C87.6726 249.975 88.2097 249.147 88.1102 248.232C88.0108 247.317 87.3875 246.689 87.1356 245.875C86.7046 244.539 87.361 243.096 87.7456 241.721C88.4086 239.37 88.2561 236.872 88.1036 234.428C88.111 233.902 87.9928 233.382 87.7588 232.911C87.5864 232.624 87.3279 232.404 87.1621 232.11C86.9962 231.753 86.9141 231.363 86.9222 230.969C86.9302 230.575 87.0282 230.189 87.2085 229.839C87.5765 229.149 87.8763 228.425 88.1036 227.675C88.1401 227.443 88.1401 227.207 88.1036 226.974C88.5942 226.76 89.0318 226.44 89.5025 226.186C91.4916 225.118 93.8452 225.278 96.0862 225.218C98.3272 225.158 100.82 224.71 102.159 222.914C102.291 222.688 102.473 222.496 102.69 222.353C102.761 222.316 102.837 222.289 102.915 222.272C103.731 222.386 104.241 222.379 104.129 222.166C104.5 221.999 104.672 221.591 104.891 221.251C104.947 221.162 105.009 221.077 105.077 220.997C105.908 220.497 106.777 220.064 107.676 219.701C107.515 219.681 107.352 219.681 107.192 219.701C108.573 219.25 110.023 219.046 111.475 219.1C112.86 219.1 115.247 219.294 116.328 218.212C118.317 216.936 118.907 214.378 119.829 212.201C120.135 211.496 120.478 210.807 120.856 210.137L126.008 209.63C126.441 209.586 126.848 209.405 127.171 209.112C127.495 208.819 127.716 208.429 127.805 208L135.535 169.538C135.593 169.248 135.588 168.949 135.52 168.662C135.451 168.374 135.322 168.105 135.141 167.872C134.959 167.64 134.73 167.45 134.468 167.315C134.207 167.181 133.919 167.105 133.626 167.094ZM36.0639 219.855C34.919 220.354 33.6847 220.611 32.4373 220.611C31.1898 220.611 29.9556 220.354 28.8106 219.855C28.4659 219.701 28.0879 219.274 28.3664 219.02C28.6449 218.766 28.8703 218.98 29.0957 218.873C29.5267 218.659 29.2151 218.018 28.9764 217.604C28.3134 216.402 28.7708 214.879 29.4272 213.664C30.0836 212.448 30.9256 211.246 30.9522 209.864C30.9119 209.419 30.9119 208.972 30.9522 208.528C31.1624 207.898 31.496 207.316 31.9334 206.818C32.0527 206.645 32.1522 206.458 32.2583 206.271C32.4373 206.551 32.6163 206.825 32.8019 207.099C33.3987 208.02 33.9932 208.949 34.5854 209.884C35.0585 210.513 35.3582 211.257 35.454 212.041C35.3875 212.504 35.4123 212.976 35.5269 213.43C35.7921 214.018 36.6142 214.505 36.3093 215.073C36.1586 215.378 36.0802 215.714 36.0802 216.055C36.0802 216.395 36.1586 216.731 36.3093 217.036C36.6209 217.577 37.085 218.025 37.3966 218.559C37.4851 218.72 37.5605 218.887 37.622 219.06C37.1181 219.327 36.5944 219.621 36.0639 219.855ZM100.376 212.649C99.9847 212.742 99.5935 212.836 99.2024 212.942C99.1493 212.702 99.1294 212.568 99.1294 212.568L97.0608 213.19C96.2733 213.225 95.4894 213.062 94.7801 212.715L103.32 211.874C102.345 212.154 101.364 212.415 100.376 212.649Z" fill="url(#paint2_linear)"/>
<path d="M484.662 445.875C535.313 445.875 576.374 442.467 576.374 438.263C576.374 434.059 535.313 430.65 484.662 430.65C434.01 430.65 392.949 434.059 392.949 438.263C392.949 442.467 434.01 445.875 484.662 445.875Z" fill="#CEAC6A" fill-opacity="0.2"/>
<path d="M539.401 440.799C541.803 440.799 543.751 438.202 543.751 434.999C543.751 431.796 541.803 429.199 539.401 429.199C536.998 429.199 535.051 431.796 535.051 434.999C535.051 438.202 536.998 440.799 539.401 440.799Z" fill="#3F3D56" fill-opacity="0.2"/>
<path d="M539.401 434.275C541.803 434.275 543.751 431.353 543.751 427.75C543.751 424.146 541.803 421.225 539.401 421.225C536.998 421.225 535.051 424.146 535.051 427.75C535.051 431.353 536.998 434.275 539.401 434.275Z" fill="#3F3D56" fill-opacity="0.2"/>
<path d="M539.401 427.75C541.803 427.75 543.751 424.666 543.751 420.862C543.751 417.058 541.803 413.975 539.401 413.975C536.998 413.975 535.051 417.058 535.051 420.862C535.051 424.666 536.998 427.75 539.401 427.75Z" fill="#3F3D56" fill-opacity="0.2"/>
<path d="M539.401 417.599C541.803 417.599 543.751 415.327 543.751 412.524C543.751 409.721 541.803 407.449 539.401 407.449C536.998 407.449 535.051 409.721 535.051 412.524C535.051 415.327 536.998 417.599 539.401 417.599Z" fill="#3F3D56" fill-opacity="0.2"/>
<path d="M539.401 411.076C541.803 411.076 543.751 408.804 543.751 406.001C543.751 403.198 541.803 400.926 539.401 400.926C536.998 400.926 535.051 403.198 535.051 406.001C535.051 408.804 536.998 411.076 539.401 411.076Z" fill="#3F3D56" fill-opacity="0.2"/>
<path d="M539.401 406C541.803 406 543.751 403.404 543.751 400.2C543.751 396.997 541.803 394.4 539.401 394.4C536.998 394.4 535.051 396.997 535.051 400.2C535.051 403.404 536.998 406 539.401 406Z" fill="#3F3D56" fill-opacity="0.2"/>
<path d="M539.401 398.026C541.803 398.026 543.751 395.429 543.751 392.226C543.751 389.023 541.803 386.426 539.401 386.426C536.998 386.426 535.051 389.023 535.051 392.226C535.051 395.429 536.998 398.026 539.401 398.026Z" fill="#3F3D56" fill-opacity="0.2"/>
<path d="M555.926 346.282C556.537 345.553 557.086 344.777 557.569 343.962L546.034 342.094H558.438C559.632 339.566 560.284 336.827 560.353 334.045C560.422 331.264 559.908 328.498 558.841 325.916L542.096 334.352L557.6 323.325C556.148 320.909 554.201 318.809 551.879 317.154C549.557 315.5 546.91 314.326 544.102 313.706C541.294 313.087 538.385 313.034 535.555 313.552C532.725 314.07 530.035 315.147 527.651 316.716C525.268 318.286 523.241 320.314 521.698 322.676C520.154 325.038 519.126 327.683 518.678 330.446C518.23 333.21 518.371 336.033 519.092 338.742C519.813 341.45 521.1 343.986 522.871 346.192C521.935 347.347 521.135 348.6 520.484 349.928L535.461 357.489L519.491 352.307C518.366 355.527 518.086 358.968 518.676 362.319C519.267 365.671 520.708 368.826 522.871 371.499C520.433 374.512 518.917 378.131 518.495 381.942C518.074 385.752 518.765 389.602 520.489 393.049C522.213 396.497 524.9 399.404 528.244 401.437C531.588 403.471 535.454 404.549 539.399 404.549C543.344 404.549 547.209 403.471 550.553 401.437C553.897 399.404 556.585 396.497 558.309 393.049C560.032 389.602 560.723 385.752 560.302 381.942C559.881 378.131 558.364 374.512 555.926 371.499C558.841 367.894 560.425 363.444 560.425 358.86C560.425 354.277 558.841 349.826 555.926 346.222V346.282Z" fill="#CEAC6A" fill-opacity="0.2"/>
<path opacity="0.1" d="M518.375 358.453C518.364 363.082 519.948 367.579 522.872 371.215C520.433 374.254 518.917 377.905 518.495 381.748C518.074 385.592 518.765 389.474 520.489 392.952C522.213 396.429 524.901 399.36 528.245 401.411C531.589 403.463 535.455 404.55 539.4 404.55C543.345 404.55 547.211 403.463 550.555 401.411C553.899 399.36 556.587 396.429 558.311 392.952C560.035 389.474 560.726 385.592 560.305 381.748C559.883 377.905 558.367 374.254 555.929 371.215C558.688 367.69 518.375 356.144 518.375 358.453Z" fill="black" fill-opacity="0.2"/>
<path d="M115.44 73.2246H83.2086C82.6757 73.2246 82.1646 73.4363 81.7878 73.813C81.4109 74.1898 81.1992 74.7007 81.1992 75.2335V107.466C81.1992 107.999 81.4109 108.509 81.7878 108.886C82.1646 109.263 82.6757 109.475 83.2086 109.475H99.284V95.1212H94.9537V89.8379H99.3644V85.9307C99.3644 81.2601 102.61 78.7088 106.789 78.7088C108.799 78.7088 110.949 78.8595 111.441 78.9298V83.8113H108.115C105.845 83.8113 105.403 84.8861 105.403 86.4731V89.8379H110.818L110.115 95.1212H105.393V109.465H115.44C115.973 109.465 116.484 109.253 116.861 108.876C117.238 108.499 117.449 107.988 117.449 107.456V75.2335C117.449 74.7007 117.238 74.1898 116.861 73.813C116.484 73.4363 115.973 73.2246 115.44 73.2246Z" fill="#CEAC6A" fill-opacity="0.3"/>
<defs>
<linearGradient id="paint0_linear" x1="298.328" y1="382.8" x2="298.328" y2="29.718" gradientUnits="userSpaceOnUse">
<stop stop-color="#808080" stop-opacity="0.25"/>
<stop offset="0.54" stop-color="#808080" stop-opacity="0.12"/>
<stop offset="1" stop-color="#808080" stop-opacity="0.1"/>
</linearGradient>
<linearGradient id="paint1_linear" x1="-2469.48" y1="870.553" x2="-2454.48" y2="870.553" gradientUnits="userSpaceOnUse">
<stop stop-color="#808080" stop-opacity="0.25"/>
<stop offset="0.54" stop-color="#808080" stop-opacity="0.12"/>
<stop offset="1" stop-color="#808080" stop-opacity="0.1"/>
</linearGradient>
<linearGradient id="paint2_linear" x1="114132" y1="268235" x2="114132" y2="98824.1" gradientUnits="userSpaceOnUse">
<stop stop-color="#808080" stop-opacity="0.25"/>
<stop offset="0.54" stop-color="#808080" stop-opacity="0.12"/>
<stop offset="1" stop-color="#808080" stop-opacity="0.1"/>
</linearGradient>
</defs>
</svg>
