<svg width="580" height="580" viewBox="0 0 580 580" fill="none" xmlns="http://www.w3.org/2000/svg">
<rect width="580" height="580" rx="5" transform="matrix(1 0 0 -1 0 580)" fill="white"/>
<path d="M271.089 56.4059C245.187 45.2482 217.815 35.928 189.873 37.0997C148.789 38.8173 109.351 65.0005 90.0376 103.446C73.6511 136.021 71.6292 174.2 64.5703 210.35C55.8833 254.88 39.2147 297.214 21.4175 338.603C11.8607 360.838 1.77487 383.553 0.205571 407.925C-1.96911 441.764 13.2948 475.484 37.234 497.992C61.1731 520.5 92.9646 532.377 124.874 534.967C141.854 536.345 159.598 535.066 174.68 526.692C190.637 517.831 202.269 501.82 218.291 493.085C233.138 484.99 250.506 483.858 267.174 484.91C288.938 486.283 310.422 491.124 330.992 499.29C354.291 508.557 375.956 521.985 399.172 531.385C422.388 540.785 448.39 546.031 472.147 538.189C494.482 530.819 512.114 512.924 528.013 494.803C506.59 528.76 554.01 465.226 528.013 494.803C542.36 472.028 559.96 427.543 566.301 401C578.433 350.251 593.734 200.658 556.712 166C526.037 137.287 519.878 142.165 479.582 134.603C442.836 127.706 400.347 127.28 366.522 109.305C334.266 92.1423 304.914 70.9854 271.089 56.4059Z" fill="#F7F7F7"/>
<path d="M368.492 433.833V454.414H374.016L372.946 432.32L368.492 433.833Z" fill="#AAABB0"/>
<path d="M277.75 429.153V450.469H284.062L282.842 427.586L277.75 429.153Z" fill="#AAABB0"/>
<path d="M382.695 398.352C382.695 396.194 381.106 394.445 379.145 394.445C377.183 394.445 375.594 396.194 375.594 398.352V428.414C375.594 430.571 377.183 432.32 379.145 432.32C381.106 432.32 382.695 430.571 382.695 428.414V398.352Z" fill="#AAABB0"/>
<path d="M283.273 389.63C283.273 387.496 281.507 385.766 279.328 385.766C277.149 385.766 275.383 387.496 275.383 389.63V427.667C275.383 429.801 277.149 431.531 279.328 431.531C281.507 431.531 283.273 429.801 283.273 427.667V389.63Z" fill="#AAABB0"/>
<path d="M392.953 168.69C392.953 168.69 400.987 165.326 402.192 168.69C403.397 172.054 404 201.125 404 201.125H396.364L392.953 168.69Z" fill="#AAABB0"/>
<path d="M307.734 168.69C307.734 168.69 300.273 165.326 299.155 168.69C298.036 172.054 297.477 201.125 297.477 201.125H304.563L307.734 168.69Z" fill="#AAABB0"/>
<path d="M308.962 140.935L307.734 164.039H313.258V140.367L308.962 140.935Z" fill="#AAABB0"/>
<path d="M304.578 201.125L306.128 166.625C306.128 166.625 305.548 158.98 323.927 161.332C342.306 163.684 396.109 168.389 396.109 168.389V201.125H304.578Z" fill="#33323D" fill-opacity="0.8"/>
<path d="M378.75 381.009L375.826 433.267C375.826 433.267 332.945 456.971 280.906 434.433L285.584 379.453L378.75 381.009Z" fill="#33323D" fill-opacity="0.8"/>
<path d="M337.719 174.987L338.692 209.016H399.266L395.749 164.039L337.719 174.987Z" fill="#444053"/>
<path d="M344.031 358.148H287.219V429.953H344.031V358.148Z" fill="#4C4981" fill-opacity="0.9"/>
<path d="M303.021 357.312C303.021 357.312 310.961 351.099 312.282 352.98C313.603 354.861 307.564 362.961 305.102 362.018C302.641 361.074 303.021 357.312 303.021 357.312Z" fill="#FFB9B9"/>
<path d="M540.508 201.125H172.016C169.837 201.125 168.07 202.891 168.07 205.07V375.508C168.07 377.687 169.837 379.453 172.016 379.453H540.508C542.687 379.453 544.453 377.687 544.453 375.508V205.07C544.453 202.891 542.687 201.125 540.508 201.125Z" fill="#E3D0AA"/>
<path d="M305.081 139.592C305.081 139.592 302.174 112.092 305.081 108.757C307.989 105.421 356.832 73.7908 401.995 110.913C401.995 110.913 406.258 111.114 405.484 120.93C405.029 127.144 405.06 133.384 405.577 139.592C405.577 139.592 308.378 146.663 305.081 139.592Z" fill="#33323D" fill-opacity="0.8"/>
<path opacity="0.1" d="M305.081 139.592C305.081 139.592 302.174 112.092 305.081 108.757C307.989 105.421 356.832 73.7908 401.995 110.913C401.995 110.913 406.258 111.114 405.484 120.93C405.029 127.144 405.06 133.384 405.577 139.592C405.577 139.592 308.378 146.663 305.081 139.592Z" fill="black"/>
<path d="M305.081 142.798C305.081 142.798 302.174 115.734 305.081 112.452C307.989 109.17 356.832 78.0414 401.995 114.575C401.995 114.575 406.258 114.772 405.484 124.433C405.029 130.547 405.06 136.688 405.577 142.798C405.577 142.798 308.378 149.757 305.081 142.798Z" fill="#33323D" fill-opacity="0.5"/>
<path d="M407.191 130.109C407.191 130.109 410.306 141.778 409.336 143.721C408.366 145.664 408.541 151.113 408.541 151.113C408.541 151.113 408.752 154.614 407.191 154.999C405.63 155.384 404.269 155.583 405.531 156.75C406.794 157.916 405.531 159.667 405.531 159.667C405.531 159.667 404.847 162.392 405.531 164.142C406.215 165.892 401.533 166.622 401.931 168.809C402.328 170.997 403.637 177.17 401.931 177.369C400.224 177.567 402.515 185.146 400.978 185.146C399.441 185.146 398.348 198.758 398.348 198.758C398.348 198.758 387.535 189.621 380.328 192.147C380.328 192.147 380.913 184.563 383.251 181.838C385.588 179.113 384.881 172.118 384.881 172.118L396.477 137.303L407.191 130.109Z" fill="#4C4981" fill-opacity="0.9"/>
<path d="M349.69 290.735C347.108 293.489 344.323 278.78 344.323 278.78C344.323 278.78 336.969 288.555 332.199 282.04C328.895 277.527 331.501 264.738 333.391 257.315C334.238 254.014 334.954 251.772 334.954 251.772L345.688 250.047C345.688 250.047 345.724 252.301 345.963 255.038C346.285 258.735 346.983 263.324 348.468 264.422C351.086 266.325 352.278 287.957 349.69 290.735Z" fill="#AE6E79"/>
<path opacity="0.1" d="M344.045 116.605C344.045 116.605 325.802 116.413 321.343 126.115C316.884 135.816 316.687 139.124 314.94 140.673C313.194 142.222 333.952 150.381 333.952 150.381L334.924 183.766C334.924 183.766 338.998 179.637 345.593 181.506C352.189 183.375 360.536 181.506 360.536 181.506C360.536 181.506 360.146 180.802 365.583 181.506C371.019 182.211 388.284 173.092 388.284 173.092C388.284 173.092 388.57 158.487 388.185 155.377C387.801 152.267 400.503 129.417 400.503 129.417C400.503 129.417 410.398 119.907 400.118 116.605C400.118 116.605 396.48 111.12 387.12 111.172C377.76 111.225 344.045 116.605 344.045 116.605Z" fill="black"/>
<path d="M344.133 115.816C344.133 115.816 325.835 115.624 321.363 125.326C316.891 135.027 316.692 138.335 314.941 139.884C313.189 141.433 334.009 149.592 334.009 149.592L334.984 182.977C334.984 182.977 339.071 178.848 345.686 180.717C352.301 182.586 360.674 180.717 360.674 180.717C360.674 180.717 360.283 180.013 365.736 180.717C371.189 181.422 388.506 172.302 388.506 172.302C388.506 172.302 395.314 161.238 394.929 158.134C394.543 155.031 408.55 131.539 408.55 131.539C408.55 131.539 410.693 119.118 400.376 115.816C400.376 115.816 396.727 110.331 387.338 110.383C377.95 110.436 344.133 115.816 344.133 115.816Z" fill="#4C4981" fill-opacity="0.9"/>
<path opacity="0.1" d="M345.609 254.901C341.752 253.699 335.699 256.351 333.773 257.148C334.571 253.924 335.245 251.732 335.245 251.732L345.351 250.047C345.351 250.047 345.368 252.249 345.609 254.901Z" fill="black"/>
<path d="M320.195 140.367H314.565C314.565 140.367 313.399 152.142 314.565 155.615C315.731 159.088 316.313 158.585 315.923 161.155C315.532 163.725 318.644 167.662 318.644 167.662C318.644 167.662 319.029 177.364 320.976 180.976C322.922 184.589 318.837 200.786 318.837 200.786C319.951 203.582 321.6 206.138 323.691 208.312C326.996 211.588 328.744 223.745 327.771 228.376C326.798 233.007 330.493 234.744 330.493 234.744C330.493 234.744 332.049 256.359 332.632 256.359C333.214 256.359 344.48 250.57 347.977 255.584L345.255 235.71L345.453 197.313C345.453 197.313 341.758 192.485 343.705 188.241C345.651 183.998 342.149 173.96 342.149 173.96L337.096 151.58L320.195 140.367Z" fill="#4C4981" fill-opacity="0.9"/>
<path d="M285.931 446.51C285.931 446.51 277.788 444.764 277.596 446.51C277.404 448.257 267.901 466.108 279.731 471.347C291.561 476.585 323.155 487.836 374.536 473.285C374.536 473.285 377.828 474.449 377.054 467.272C376.281 460.096 376.281 452.139 376.281 452.139C376.281 452.139 368.522 450.003 362.705 450.783C356.889 451.563 306.288 461.842 285.931 446.51Z" fill="#33323D" fill-opacity="0.8"/>
<path opacity="0.1" d="M285.931 446.51C285.931 446.51 277.788 444.764 277.596 446.51C277.404 448.257 267.901 466.108 279.731 471.347C291.561 476.585 323.155 487.836 374.536 473.285C374.536 473.285 377.828 474.449 377.054 467.272C376.281 460.096 376.281 452.139 376.281 452.139C376.281 452.139 368.522 450.003 362.705 450.783C356.889 451.563 306.288 461.842 285.931 446.51Z" fill="black"/>
<path d="M285.931 444.932C285.931 444.932 277.788 443.186 277.596 444.932C277.404 446.678 267.901 464.53 279.731 469.768C291.561 475.007 323.155 486.258 374.536 471.707C374.536 471.707 377.828 472.871 377.054 465.694C376.281 458.517 376.281 450.561 376.281 450.561C376.281 450.561 368.522 448.425 362.705 449.205C356.889 449.985 306.288 460.264 285.931 444.932Z" fill="#33323D" fill-opacity="0.5"/>
<path d="M333.219 147.048C332.723 149.878 331.597 152.598 331.424 155.462C331.251 158.326 332.353 161.584 334.992 162.707C335.728 162.928 336.442 163.218 337.122 163.575C338.139 164.264 338.554 165.56 338.768 166.775C339.051 168.344 339.119 169.945 338.97 171.532C338.826 173.129 338.485 174.848 339.27 176.242C340.65 178.713 344.247 178.349 346.984 177.654L346.043 184.963C345.968 185.542 345.921 186.196 346.343 186.589C346.542 186.73 346.767 186.829 347.005 186.881C347.243 186.932 347.489 186.935 347.729 186.89C350.107 186.74 352.555 186.41 354.593 185.154C356.632 183.898 358.15 181.56 357.763 179.205C357.313 176.474 354.495 174.304 354.876 171.561C355.171 169.437 357.244 168.089 358.606 166.457C361.072 163.471 361.204 158.934 359.27 155.555C357.336 152.175 353.6 150.08 349.755 149.698C347.625 149.484 345.408 149.745 343.404 149.004C342.707 148.748 342.079 148.333 341.568 147.793C341.057 147.253 340.678 146.602 340.46 145.891" fill="#444053"/>
<path d="M265.385 407.464L264.74 402.638C264.74 402.638 268.557 388.14 270.306 386.188C272.055 384.236 279.086 376.103 280.401 375.273C281.715 374.442 304.843 357.994 304.843 357.994L311.778 362.8L285.88 388.395L280.409 402.182L265.385 407.464Z" fill="#767D9F" fill-opacity="0.9"/>
<path d="M351.133 286.811L349.276 301.021L348.56 306.491L340.217 307.648C340.217 307.648 339.315 305.727 338.04 302.775C334.168 293.815 326.879 275.339 331.106 272.15C336.724 267.902 338.092 281.99 338.092 281.99L344.496 278.899L351.133 286.811Z" fill="#FFB9B9"/>
<path d="M341.545 310.84L299.658 315.43L306.591 378.709L348.478 374.12L341.545 310.84Z" fill="white"/>
<path opacity="0.1" d="M341.465 310.969L299.752 315.438L306.526 378.664L348.239 374.195L341.465 310.969Z" fill="black"/>
<path d="M368.454 316.79L326.77 310.627L317.459 373.6L359.144 379.763L368.454 316.79Z" fill="white"/>
<path d="M352.149 319.805L330.693 316.633L325.902 349.044L347.357 352.216L352.149 319.805Z" fill="#CEAC6A"/>
<path d="M349.596 362.113L323.602 358.27L322.561 365.308L348.555 369.151L349.596 362.113Z" fill="#CEAC6A"/>
<path opacity="0.1" d="M360.602 152.992C374.111 152.992 385.062 142.041 385.062 128.531C385.062 115.022 374.111 104.07 360.602 104.07C347.092 104.07 336.141 115.022 336.141 128.531C336.141 142.041 347.092 152.992 360.602 152.992Z" fill="black"/>
<path d="M360.602 152.203C374.111 152.203 385.062 141.252 385.062 127.742C385.062 114.233 374.111 103.281 360.602 103.281C347.092 103.281 336.141 114.233 336.141 127.742C336.141 141.252 347.092 152.203 360.602 152.203Z" fill="#AE6E79"/>
<path d="M340.497 145.581C340.331 144.958 340.391 144.298 340.665 143.714C341.589 141.8 344.222 141.633 346.356 141.731C351.372 141.962 356.876 141.991 360.799 138.841C362.427 137.546 364.246 134.291 366.612 134.909C368.716 135.459 369.593 138.297 371.785 138.927C373.371 139.384 375.016 138.656 376.632 138.349C378.957 137.892 381.34 138.274 383.7 138.291C386.06 138.309 388.623 137.864 390.233 136.147C392.407 133.834 392.052 130.221 391.86 127.053C391.622 122.961 391.901 118.855 392.691 114.832C393.482 110.831 394.697 106.357 392.476 102.929C390.361 99.6624 385.978 98.7663 382.985 96.2631C380.183 93.9507 378.701 90.2451 375.743 88.1003C372.017 85.4006 366.954 85.7879 362.374 86.2561L352.435 87.3083C349.872 87.58 347.204 87.8864 345.094 89.4068C341.287 92.147 340.764 97.8414 337.16 100.842C335.556 102.171 333.504 102.83 331.674 103.825C329.843 104.819 328.076 106.392 327.867 108.45C327.692 110.184 328.634 111.785 329.093 113.456C330.18 117.445 328.483 121.549 327.396 125.567C326.309 129.585 326.1 134.464 329.256 137.129C329.895 137.673 330.639 138.089 331.261 138.656C333.394 140.592 333.685 143.859 333.191 146.68" fill="#444053"/>
<path d="M362.574 158.516C362.792 158.516 362.969 157.809 362.969 156.938C362.969 156.066 362.792 155.359 362.574 155.359C362.356 155.359 362.18 156.066 362.18 156.938C362.18 157.809 362.356 158.516 362.574 158.516Z" fill="#444053"/>
<path d="M362.574 164.039C362.792 164.039 362.969 163.509 362.969 162.855C362.969 162.202 362.792 161.672 362.574 161.672C362.356 161.672 362.18 162.202 362.18 162.855C362.18 163.509 362.356 164.039 362.574 164.039Z" fill="#444053"/>
<path d="M349.828 290.682C350.466 289.957 350.889 288.094 351.133 285.636L344.031 276.875C344.031 276.875 347.04 293.86 349.828 290.682Z" fill="#AE6E79"/>
<path opacity="0.1" d="M357.679 433.914C357.679 433.914 346.243 451.414 310.513 449.539C276.853 447.803 260.423 431.408 261.206 425.621C261.99 419.834 259.061 405.749 266.27 401.698C270.45 399.354 275.952 400.743 279.834 402.329C281.176 402.868 282.644 403.02 284.069 402.767C285.494 402.514 286.817 401.866 287.886 400.899C291.435 397.734 298.053 394.169 308.501 396.976C309.846 397.33 311.264 397.304 312.594 396.9C316.944 395.587 327.299 393.307 334.812 398.37C336 399.18 337.395 399.639 338.837 399.694C340.278 399.748 341.705 399.395 342.951 398.677L343.056 398.613C346.564 396.489 362.936 416.553 362.936 416.553C362.936 416.553 363.719 431.987 357.679 433.914Z" fill="black"/>
<path d="M357.679 434.475C357.679 434.475 346.243 452.228 310.513 450.326C276.853 448.565 260.423 431.933 261.206 426.062C261.99 420.191 259.061 405.901 266.27 401.791C270.45 399.414 275.952 400.823 279.834 402.431C281.176 402.978 282.644 403.132 284.069 402.876C285.494 402.619 286.817 401.962 287.886 400.981C291.435 397.77 298.053 394.153 308.501 397.001C309.846 397.361 311.264 397.334 312.594 396.924C316.944 395.592 327.299 393.279 334.812 398.416C336 399.237 337.395 399.703 338.837 399.758C340.278 399.813 341.705 399.456 342.951 398.727L343.056 398.662C346.564 396.508 362.936 416.862 362.936 416.862C362.936 416.862 363.719 432.52 357.679 434.475Z" fill="#767D9F" fill-opacity="0.9"/>
<path opacity="0.1" d="M310.496 441C323.352 441 333.773 430.755 333.773 418.117C333.773 405.479 323.352 395.234 310.496 395.234C297.64 395.234 287.219 405.479 287.219 418.117C287.219 430.755 297.64 441 310.496 441Z" fill="black"/>
<path d="M310.496 441.789C323.352 441.789 333.773 431.367 333.773 418.512C333.773 405.656 323.352 395.234 310.496 395.234C297.64 395.234 287.219 405.656 287.219 418.512C287.219 431.367 297.64 441.789 310.496 441.789Z" fill="#FFB9B9"/>
<path d="M303.953 398.933C301.523 399.582 299.128 400.823 297.942 402.862C297.227 404.092 296.977 405.568 295.942 406.591C294.477 408.044 292.007 408.073 290.025 408.889C288.042 409.705 286.734 412.577 288.676 413.485C286.653 413.588 285.153 415.432 284.903 417.265C284.653 419.097 285.357 420.924 286.037 422.671C288.257 428.324 290.647 434.224 295.541 438.245C303.517 444.806 315.539 444.501 326.252 443.806C327.128 443.835 327.996 443.637 328.77 443.232C329.932 442.473 330.078 441.02 330.269 439.744C331.077 434.298 334.065 429.352 336.019 424.153C337.972 418.954 338.774 412.847 335.484 408.245C330.641 401.42 312.103 396.75 303.953 398.933Z" fill="#CEAC6A"/>
<path opacity="0.1" d="M348.766 300.872L348.062 306.465L339.859 307.648C339.859 307.648 338.972 305.684 337.719 302.666L348.634 300.547L348.766 300.872Z" fill="black"/>
<path d="M358.018 422.852L362.959 417.211L361.969 386.106C362.456 383.862 362.786 381.588 362.959 379.3C363.154 375.993 360.488 368.609 360.488 368.609C360.902 367.131 361.463 365.697 362.165 364.328C363.349 361.995 360.494 356.745 360.494 356.745C360.494 356.745 356.241 343.138 358.018 336.331C359.795 329.525 357.586 325.64 357.586 325.64C357.586 325.64 355.85 318.058 356.045 314.949C356.241 311.84 352.094 308.918 352.094 308.918L348.937 301.336L336.301 303.669V329.915C336.301 329.915 337.089 354.996 336.301 359.86C335.514 364.724 337.877 369.384 337.877 369.384C337.877 369.384 336.497 376.576 337.682 379.3C338.866 382.024 341.236 388.632 341.236 388.632C340.796 390.994 340.932 393.424 341.633 395.724C342.818 399.131 341.633 401.073 341.633 401.073L358.018 422.852Z" fill="#767D9F" fill-opacity="0.9"/>
<g opacity="0.1">
<path opacity="0.1" d="M392.781 112.961C392.125 116.369 391.83 119.837 391.902 123.307C391.952 120.422 392.254 117.546 392.805 114.713C393.317 112.128 393.969 109.345 393.83 106.766C393.615 108.851 393.265 110.921 392.781 112.961Z" fill="black"/>
<path opacity="0.1" d="M331.242 136.996C330.619 136.414 329.874 136.007 329.234 135.453C327.533 134.004 326.817 131.902 326.677 129.631C326.509 132.542 327.103 135.36 329.234 137.2C329.874 137.753 330.619 138.173 331.242 138.743C332.545 140.032 333.3 141.773 333.35 143.605C333.519 141.159 333.024 138.615 331.242 136.996Z" fill="black"/>
<path opacity="0.1" d="M329.384 115.256C329.486 114.026 329.38 112.788 329.07 111.594C328.732 110.348 328.127 109.131 327.905 107.879C327.905 108.013 327.859 108.153 327.841 108.298C327.672 110.045 328.616 111.658 329.07 113.34C329.237 113.967 329.342 114.609 329.384 115.256Z" fill="black"/>
<path opacity="0.1" d="M390.317 134.429C388.705 136.175 386.137 136.606 383.773 136.589C381.409 136.571 379.016 136.187 376.693 136.653C375.074 136.979 373.426 137.707 371.837 137.235C369.642 136.6 368.762 133.741 366.66 133.188C364.267 132.559 362.445 135.838 360.838 137.142C356.908 140.286 351.394 140.257 346.369 140.053C344.232 139.954 341.594 140.123 340.674 142.056C340.394 142.642 340.334 143.31 340.506 143.937L333.39 145.055C333.364 145.64 333.299 146.224 333.198 146.801L340.506 145.637C340.334 145.01 340.394 144.342 340.674 143.756C341.594 141.823 344.232 141.654 346.369 141.753C351.394 141.986 356.908 142.015 360.838 138.842C362.468 137.538 364.291 134.26 366.66 134.888C368.762 135.436 369.642 138.3 371.837 138.935C373.426 139.389 375.074 138.661 376.693 138.353C379.022 137.887 381.409 138.271 383.773 138.289C386.137 138.306 388.705 137.858 390.317 136.129C391.93 134.399 392.163 131.82 392.064 129.305C391.994 131.255 391.593 133.06 390.317 134.429Z" fill="black"/>
</g>
<g opacity="0.1">
<path opacity="0.1" d="M336.42 162.396C335.734 162.035 335.014 161.743 334.271 161.523C333.008 160.949 332.005 159.923 331.459 158.646C331.896 160.655 333.002 162.484 334.854 163.27C335.597 163.489 336.316 163.782 337.002 164.143C337.441 164.453 337.795 164.867 338.033 165.348C337.8 164.207 337.375 163.043 336.42 162.396Z" fill="black"/>
<path opacity="0.1" d="M346.364 176.562C343.679 177.244 340.174 177.599 338.701 175.322C338.747 175.871 338.906 176.404 339.167 176.889C340.425 179.13 343.499 179.055 346.113 178.501L346.364 176.562Z" fill="black"/>
<path opacity="0.1" d="M357.241 178.158C357.614 180.522 356.077 182.88 354.039 184.12C352.001 185.361 349.515 185.704 347.116 185.867C346.735 185.917 346.347 185.873 345.987 185.739C345.877 185.985 345.842 186.258 345.885 186.524C345.928 186.79 346.048 187.037 346.23 187.236C346.411 187.435 346.647 187.577 346.908 187.644C347.169 187.711 347.443 187.701 347.698 187.614C350.097 187.463 352.566 187.131 354.621 185.867C356.677 184.604 358.214 182.251 357.818 179.882C357.706 179.283 357.512 178.703 357.241 178.158Z" fill="black"/>
<path opacity="0.1" d="M359.827 157.08C360.182 158.496 360.209 159.974 359.907 161.402C359.604 162.83 358.979 164.169 358.08 165.319C356.706 166.984 354.615 168.318 354.318 170.454C354.219 171.437 354.422 172.426 354.901 173.29C354.848 172.929 354.848 172.562 354.901 172.201C355.198 170.064 357.288 168.708 358.662 167.066C360.921 164.335 361.236 160.312 359.827 157.08Z" fill="black"/>
</g>
<g opacity="0.1">
<path opacity="0.1" d="M289.893 409.667C291.873 408.846 294.347 408.817 295.82 407.338C296.857 406.301 297.107 404.805 297.823 403.565C298.988 401.492 301.404 400.24 303.838 399.582C311.989 397.369 330.575 402.097 335.419 408.951C336.839 411.024 337.613 413.471 337.644 415.984C337.83 413.083 337.05 410.202 335.425 407.792C330.581 400.939 312.013 396.211 303.844 398.423C301.41 399.081 299.011 400.333 297.829 402.406C297.113 403.646 296.862 405.143 295.826 406.179C294.353 407.652 291.878 407.681 289.899 408.508C288.391 409.131 287.273 410.971 287.68 412.205C287.843 411.647 288.125 411.131 288.507 410.692C288.889 410.254 289.362 409.904 289.893 409.667Z" fill="black"/>
<path opacity="0.1" d="M284.768 418.128C285.012 416.264 286.515 414.401 288.547 414.296C288.333 414.207 288.143 414.072 287.988 413.9C287.834 413.727 287.721 413.523 287.656 413.301C286.883 413.588 286.203 414.081 285.69 414.726C285.177 415.372 284.85 416.145 284.745 416.963C284.689 417.437 284.689 417.916 284.745 418.39C284.768 418.302 284.768 418.215 284.768 418.128Z" fill="black"/>
</g>
<path d="M407.945 207.438H355.078V276.086H407.945V207.438Z" fill="white"/>
<path opacity="0.5" d="M397.688 239.789H362.969V242.945H397.688V239.789Z" fill="#CEAC6A" fill-opacity="0.8"/>
<path opacity="0.5" d="M397.688 245.312H362.969V249.258H397.688V245.312Z" fill="#CEAC6A" fill-opacity="0.8"/>
<path opacity="0.5" d="M397.688 257.148H362.969V260.305H397.688V257.148Z" fill="#CEAC6A" fill-opacity="0.8"/>
<path d="M402.726 224.606C401.527 225.371 400.295 226.167 398.871 226.515C397.572 226.833 396.08 226.749 395.053 225.861C394.224 225.145 393.874 224.045 394.488 223.102C394.62 222.888 394.799 222.701 395.013 222.555C395.228 222.41 395.473 222.308 395.733 222.257C395.984 222.226 396.239 222.255 396.475 222.341C396.711 222.427 396.919 222.567 397.081 222.749C397.403 223.081 397.596 223.572 397.425 224.009C397.245 224.47 396.764 224.751 396.291 224.908C395.74 225.071 395.173 225.18 394.599 225.234L392.246 225.535L382.616 226.765L371.892 228.134C371.808 228.157 371.736 228.209 371.692 228.281C371.649 228.352 371.637 228.437 371.66 228.516C371.685 228.594 371.742 228.66 371.818 228.701C371.894 228.741 371.984 228.752 372.069 228.733L393.408 226.007C394.18 225.909 394.963 225.838 395.726 225.693C396.328 225.603 396.898 225.382 397.391 225.048C398.413 224.293 398.34 222.958 397.399 222.168C396.447 221.369 395.067 221.506 394.231 222.389C393.808 222.836 393.558 223.402 393.518 223.997C393.479 224.591 393.653 225.182 394.013 225.674C394.925 226.957 396.587 227.45 398.176 227.268C400.012 227.057 401.57 226.094 403.062 225.142C403.413 224.917 403.08 224.379 402.726 224.606Z" fill="#3F3D56" fill-opacity="0.8"/>
<path d="M384.659 188.5C384.659 188.5 360.592 212.926 372.674 219.132C384.756 225.337 392.621 198.486 392.621 198.486L394.531 192.379L384.659 188.5Z" fill="#AE6E79"/>
<path opacity="0.1" d="M382.582 186.458L379.539 193.04C379.539 193.04 394.55 195.103 397.688 199.547L395.827 187.933L393.62 182.977L382.582 186.458Z" fill="black"/>
<path d="M383.372 185.669L380.328 192.251C380.328 192.251 395.339 194.314 398.477 198.758L396.616 187.144L394.409 182.188L383.372 185.669Z" fill="#4C4981" fill-opacity="0.9"/>
<path d="M458.445 339.732L458.003 340L457.656 339.598L457.869 339.271L458.067 339.211L458.445 339.732Z" fill="#3F3D56" fill-opacity="0.5"/>
<path opacity="0.1" d="M458.445 339.732L458.003 340L457.656 339.598L457.869 339.271L458.067 339.211L458.445 339.732Z" fill="black" fill-opacity="0.5"/>
<path d="M531.828 288.189L501.15 243.744C500.878 243.347 500.531 243.008 500.129 242.746C499.726 242.484 499.276 242.304 498.804 242.217C498.332 242.13 497.848 242.137 497.378 242.237C496.909 242.338 496.464 242.531 496.069 242.804L427.684 289.887C426.884 290.438 426.335 291.285 426.156 292.242C425.978 293.199 426.185 294.187 426.733 294.991L457.328 340L531.828 288.189Z" fill="#3F3D56" fill-opacity="0.5"/>
<path opacity="0.1" d="M531.828 288.189L501.15 243.744C500.878 243.347 500.531 243.008 500.129 242.746C499.726 242.484 499.276 242.304 498.804 242.217C498.332 242.13 497.848 242.137 497.378 242.237C496.909 242.338 496.464 242.531 496.069 242.804L427.684 289.887C426.884 290.438 426.335 291.285 426.156 292.242C425.978 293.199 426.185 294.187 426.733 294.991L457.328 340L531.828 288.189Z" fill="black" fill-opacity="0.5"/>
<path d="M533.406 288.164L502.5 243.743C502.225 243.347 501.875 243.008 501.469 242.746C501.062 242.484 500.608 242.304 500.132 242.217C499.656 242.13 499.168 242.137 498.694 242.237C498.221 242.338 497.772 242.531 497.374 242.804L428.487 289.892C427.682 290.443 427.128 291.289 426.947 292.244C426.766 293.2 426.972 294.188 427.521 294.993L458.344 340L533.406 288.164Z" fill="#3F3D56" fill-opacity="0.5"/>
<path d="M558.85 296.847L533.268 288.711L458.445 340.07L484.434 348.489C485.016 348.676 485.634 348.726 486.239 348.636C486.843 348.545 487.418 348.316 487.918 347.967L559.061 298.226C559.194 298.152 559.302 298.039 559.369 297.903C559.436 297.767 559.46 297.614 559.437 297.464C559.414 297.315 559.346 297.175 559.241 297.065C559.136 296.955 559 296.879 558.85 296.847Z" fill="#464A5F" fill-opacity="0.5"/>
<path opacity="0.1" d="M558.85 296.847L533.268 288.711L458.445 340.07L484.434 348.489C485.016 348.676 485.634 348.726 486.239 348.636C486.843 348.545 487.418 348.316 487.918 347.967L559.061 298.226C559.194 298.152 559.302 298.039 559.369 297.903C559.436 297.767 559.46 297.614 559.437 297.464C559.414 297.315 559.346 297.175 559.241 297.065C559.136 296.955 559 296.879 558.85 296.847Z" fill="black" fill-opacity="0.5"/>
<path d="M558.084 296.174L532.697 287.922L458.445 339.964L484.236 348.481C484.812 348.674 485.426 348.727 486.026 348.637C486.627 348.546 487.198 348.315 487.693 347.96L558.293 297.556C558.421 297.479 558.522 297.365 558.585 297.229C558.648 297.094 558.67 296.942 558.648 296.794C558.625 296.646 558.56 296.508 558.459 296.397C558.359 296.287 558.228 296.209 558.084 296.174Z" fill="#464A5F" fill-opacity="0.5"/>
<g opacity="0.1">
<path opacity="0.1" d="M520.991 286.009L519.105 283.304C518.992 283.147 518.822 283.04 518.632 283.005C518.442 282.97 518.245 283.009 518.083 283.116L515.28 284.987C515.123 285.098 515.014 285.265 514.977 285.454C514.939 285.642 514.975 285.838 515.077 286.001L516.813 288.669C516.922 288.829 517.088 288.941 517.277 288.981C517.466 289.022 517.663 288.988 517.828 288.887L520.781 287.031C520.942 286.921 521.053 286.753 521.093 286.562C521.132 286.372 521.096 286.173 520.991 286.009Z" fill="black" fill-opacity="0.5"/>
<path opacity="0.1" d="M515.956 289.496L514.062 286.798C513.949 286.641 513.779 286.534 513.589 286.499C513.398 286.464 513.202 286.504 513.04 286.61L510.245 288.496C510.086 288.606 509.976 288.772 509.937 288.961C509.897 289.15 509.932 289.347 510.034 289.511L511.77 292.178C511.878 292.339 512.043 292.453 512.232 292.495C512.421 292.537 512.619 292.504 512.785 292.404L515.745 290.548C515.829 290.493 515.901 290.422 515.957 290.34C516.013 290.257 516.052 290.164 516.071 290.066C516.091 289.968 516.091 289.867 516.071 289.769C516.051 289.671 516.012 289.578 515.956 289.496Z" fill="black" fill-opacity="0.5"/>
<path opacity="0.1" d="M510.665 293.156L508.772 290.458C508.658 290.301 508.489 290.194 508.298 290.159C508.108 290.124 507.911 290.164 507.75 290.27L504.947 292.156C504.787 292.267 504.677 292.436 504.639 292.626C504.602 292.817 504.639 293.015 504.744 293.178L506.48 295.846C506.588 296.006 506.754 296.118 506.943 296.158C507.132 296.199 507.33 296.165 507.494 296.064L510.448 294.208C510.532 294.154 510.604 294.083 510.661 294.001C510.718 293.919 510.757 293.826 510.778 293.728C510.798 293.63 510.799 293.529 510.779 293.43C510.76 293.332 510.721 293.239 510.665 293.156Z" fill="black" fill-opacity="0.5"/>
<path opacity="0.1" d="M505.307 296.867L503.413 294.162C503.3 294.007 503.132 293.901 502.943 293.866C502.755 293.831 502.56 293.87 502.399 293.974L499.596 295.867C499.438 295.978 499.33 296.145 499.292 296.334C499.254 296.523 499.29 296.719 499.393 296.882L501.129 299.55C501.236 299.709 501.4 299.821 501.587 299.863C501.775 299.905 501.971 299.873 502.136 299.775L505.097 297.912C505.179 297.857 505.25 297.787 505.306 297.704C505.361 297.622 505.399 297.53 505.419 297.433C505.438 297.336 505.439 297.236 505.419 297.139C505.4 297.042 505.362 296.949 505.307 296.867Z" fill="black" fill-opacity="0.5"/>
<path opacity="0.1" d="M499.956 300.572L498.062 297.874C497.949 297.717 497.779 297.61 497.589 297.575C497.398 297.54 497.202 297.58 497.04 297.686L494.245 299.572C494.086 299.682 493.976 299.849 493.937 300.037C493.897 300.226 493.932 300.423 494.034 300.587L495.77 303.254C495.878 303.415 496.043 303.529 496.232 303.571C496.421 303.613 496.619 303.58 496.785 303.48L499.745 301.616C499.828 301.562 499.899 301.491 499.954 301.409C500.01 301.327 500.048 301.235 500.068 301.138C500.087 301.041 500.087 300.941 500.068 300.844C500.049 300.746 500.011 300.654 499.956 300.572Z" fill="black" fill-opacity="0.5"/>
<path opacity="0.1" d="M494.839 304.615L492.487 301.263C492.462 301.226 492.43 301.194 492.392 301.169C492.355 301.145 492.313 301.128 492.269 301.119C492.225 301.111 492.179 301.111 492.135 301.121C492.092 301.13 492.05 301.148 492.013 301.173L488.571 303.495C488.534 303.52 488.501 303.551 488.475 303.588C488.45 303.626 488.432 303.667 488.423 303.712C488.414 303.756 488.414 303.801 488.422 303.845C488.431 303.889 488.449 303.931 488.474 303.969L490.63 307.283C490.68 307.359 490.757 307.413 490.846 307.432C490.934 307.452 491.027 307.436 491.104 307.388L494.741 305.134C494.785 305.109 494.822 305.075 494.852 305.034C494.881 304.993 494.901 304.946 494.91 304.897C494.919 304.848 494.918 304.797 494.905 304.748C494.893 304.699 494.87 304.654 494.839 304.615Z" fill="black" fill-opacity="0.5"/>
<path opacity="0.1" d="M489.488 308.321L487.121 304.969C487.095 304.932 487.062 304.899 487.024 304.875C486.986 304.85 486.944 304.833 486.899 304.824C486.854 304.816 486.808 304.816 486.764 304.826C486.72 304.835 486.677 304.853 486.64 304.879L483.198 307.201C483.124 307.253 483.074 307.331 483.057 307.419C483.04 307.508 483.058 307.599 483.108 307.674L485.265 310.988C485.288 311.028 485.318 311.062 485.355 311.089C485.392 311.116 485.434 311.134 485.478 311.144C485.523 311.154 485.569 311.155 485.614 311.146C485.658 311.137 485.701 311.119 485.738 311.094L489.368 308.839C489.414 308.817 489.455 308.786 489.487 308.746C489.52 308.706 489.542 308.659 489.554 308.609C489.566 308.559 489.566 308.507 489.554 308.457C489.543 308.407 489.52 308.361 489.488 308.321Z" fill="black" fill-opacity="0.5"/>
<path opacity="0.1" d="M484.748 311.604L482.395 308.283C482.343 308.21 482.264 308.161 482.175 308.146C482.087 308.13 481.996 308.15 481.922 308.2L478.48 310.515C478.405 310.567 478.352 310.646 478.334 310.735C478.316 310.825 478.333 310.918 478.383 310.996L480.539 314.31C480.59 314.384 480.667 314.437 480.755 314.456C480.843 314.476 480.935 314.461 481.013 314.415L484.65 312.16C484.7 312.137 484.744 312.102 484.777 312.058C484.811 312.014 484.833 311.962 484.843 311.908C484.852 311.853 484.849 311.797 484.832 311.744C484.816 311.692 484.787 311.644 484.748 311.604Z" fill="black" fill-opacity="0.5"/>
<path opacity="0.1" d="M479.441 315.271L477.089 311.92C477.036 311.847 476.957 311.798 476.869 311.782C476.78 311.767 476.69 311.787 476.615 311.837L473.174 314.151C473.135 314.176 473.103 314.209 473.077 314.247C473.051 314.284 473.034 314.327 473.024 314.372C473.015 314.416 473.015 314.462 473.024 314.507C473.033 314.552 473.05 314.594 473.076 314.632L475.233 317.946C475.283 318.021 475.36 318.074 475.448 318.093C475.536 318.113 475.629 318.098 475.706 318.052L479.343 315.797C479.387 315.772 479.425 315.737 479.454 315.695C479.483 315.654 479.503 315.606 479.512 315.557C479.522 315.507 479.52 315.455 479.508 315.406C479.495 315.357 479.473 315.311 479.441 315.271Z" fill="black" fill-opacity="0.5"/>
<path opacity="0.1" d="M474.301 318.803L471.948 315.451C471.924 315.414 471.891 315.382 471.854 315.357C471.817 315.332 471.775 315.315 471.731 315.307C471.687 315.298 471.641 315.299 471.597 315.308C471.554 315.317 471.512 315.335 471.475 315.361L468.033 317.683C467.995 317.707 467.963 317.739 467.937 317.776C467.912 317.813 467.894 317.855 467.885 317.899C467.876 317.943 467.876 317.989 467.884 318.033C467.893 318.077 467.91 318.119 467.936 318.156L470.092 321.47C470.142 321.546 470.219 321.6 470.308 321.62C470.396 321.639 470.489 321.624 470.566 321.575L474.203 319.321C474.247 319.296 474.284 319.262 474.314 319.221C474.343 319.18 474.363 319.134 474.372 319.084C474.381 319.035 474.38 318.984 474.367 318.936C474.355 318.887 474.332 318.841 474.301 318.803Z" fill="black" fill-opacity="0.5"/>
<path opacity="0.1" d="M469.16 322.394L466.831 319.035C466.778 318.962 466.699 318.913 466.611 318.898C466.522 318.882 466.432 318.902 466.357 318.952L462.916 321.267C462.878 321.292 462.845 321.324 462.819 321.362C462.794 321.4 462.776 321.442 462.767 321.487C462.758 321.532 462.757 321.578 462.766 321.622C462.775 321.667 462.793 321.71 462.818 321.748L464.975 325.062C465.025 325.136 465.102 325.189 465.191 325.208C465.279 325.228 465.371 325.213 465.448 325.167L469.085 322.912C469.127 322.886 469.163 322.85 469.19 322.808C469.217 322.767 469.235 322.72 469.242 322.67C469.249 322.621 469.245 322.571 469.231 322.523C469.217 322.476 469.193 322.431 469.16 322.394Z" fill="black" fill-opacity="0.5"/>
<path opacity="0.1" d="M464.021 325.949L461.669 322.597C461.644 322.56 461.612 322.528 461.575 322.503C461.537 322.479 461.495 322.462 461.451 322.453C461.407 322.445 461.362 322.445 461.318 322.455C461.274 322.464 461.233 322.482 461.196 322.507L457.754 324.814C457.716 324.839 457.683 324.87 457.658 324.907C457.633 324.945 457.615 324.986 457.606 325.03C457.597 325.075 457.596 325.12 457.605 325.164C457.614 325.208 457.631 325.25 457.656 325.288L459.813 328.602C459.862 328.678 459.94 328.732 460.028 328.751C460.117 328.771 460.209 328.755 460.286 328.707L463.923 326.452C463.965 326.427 464.001 326.394 464.028 326.354C464.056 326.315 464.075 326.27 464.084 326.222C464.093 326.175 464.092 326.126 464.082 326.079C464.071 326.032 464.05 325.988 464.021 325.949Z" fill="black" fill-opacity="0.5"/>
<path opacity="0.1" d="M517.608 281.116L515.714 278.411C515.601 278.254 515.431 278.147 515.241 278.112C515.051 278.077 514.854 278.117 514.692 278.223L511.919 280.117C511.761 280.227 511.651 280.393 511.611 280.582C511.572 280.771 511.607 280.968 511.709 281.131L513.445 283.799C513.554 283.959 513.72 284.071 513.908 284.111C514.097 284.152 514.295 284.118 514.459 284.017L517.42 282.161C517.583 282.047 517.695 281.873 517.73 281.677C517.765 281.482 517.721 281.28 517.608 281.116Z" fill="black" fill-opacity="0.5"/>
<path opacity="0.1" d="M510.207 270.423L508.313 267.703C508.2 267.548 508.032 267.442 507.843 267.407C507.654 267.372 507.46 267.411 507.298 267.515L504.496 269.401C504.337 269.511 504.227 269.677 504.188 269.866C504.148 270.055 504.183 270.252 504.285 270.415L506.021 273.083C506.129 273.244 506.294 273.358 506.483 273.4C506.672 273.442 506.87 273.409 507.036 273.309L509.996 271.452C510.159 271.342 510.272 271.173 510.311 270.981C510.351 270.788 510.313 270.588 510.207 270.423Z" fill="black" fill-opacity="0.5"/>
<path opacity="0.1" d="M512.568 284.604L510.674 281.906C510.561 281.751 510.393 281.645 510.204 281.61C510.015 281.575 509.821 281.614 509.659 281.718L506.857 283.604C506.699 283.715 506.59 283.882 506.553 284.071C506.515 284.26 506.551 284.456 506.654 284.619L508.382 287.286C508.489 287.447 508.655 287.561 508.844 287.603C509.033 287.645 509.231 287.612 509.396 287.512L512.357 285.656C512.441 285.601 512.513 285.53 512.569 285.448C512.625 285.365 512.664 285.272 512.683 285.174C512.703 285.076 512.703 284.975 512.683 284.877C512.663 284.779 512.624 284.686 512.568 284.604Z" fill="black" fill-opacity="0.5"/>
<path opacity="0.1" d="M507.276 288.263L505.383 285.565C505.269 285.408 505.1 285.301 504.909 285.266C504.719 285.231 504.522 285.271 504.361 285.377L501.565 287.241C501.405 287.351 501.293 287.519 501.254 287.71C501.214 287.9 501.251 288.099 501.355 288.263L503.091 290.931C503.199 291.091 503.365 291.202 503.554 291.243C503.743 291.284 503.94 291.25 504.105 291.149L507.066 289.293C507.229 289.183 507.342 289.013 507.381 288.821C507.42 288.628 507.383 288.428 507.276 288.263Z" fill="black" fill-opacity="0.5"/>
<path opacity="0.1" d="M501.918 291.976L500.032 289.27C499.919 289.113 499.749 289.006 499.559 288.971C499.368 288.936 499.172 288.976 499.01 289.083L496.207 290.999C496.05 291.11 495.941 291.277 495.903 291.466C495.866 291.654 495.902 291.85 496.004 292.013L497.74 294.681C497.849 294.841 498.015 294.953 498.204 294.993C498.393 295.034 498.59 295 498.755 294.899L501.708 293.043C501.794 292.988 501.867 292.917 501.925 292.833C501.982 292.749 502.022 292.654 502.042 292.554C502.061 292.455 502.06 292.352 502.039 292.252C502.018 292.153 501.977 292.059 501.918 291.976Z" fill="black" fill-opacity="0.5"/>
<path opacity="0.1" d="M505.285 274.082L503.391 271.384C503.278 271.229 503.11 271.124 502.921 271.089C502.733 271.054 502.538 271.092 502.377 271.196L499.574 273.083C499.415 273.192 499.305 273.359 499.266 273.548C499.226 273.737 499.261 273.933 499.363 274.097L501.099 276.765C501.207 276.926 501.372 277.039 501.561 277.081C501.75 277.123 501.948 277.091 502.114 276.99L505.075 275.134C505.158 275.08 505.23 275.009 505.286 274.926C505.342 274.843 505.381 274.75 505.401 274.652C505.42 274.554 505.42 274.453 505.4 274.356C505.38 274.258 505.341 274.165 505.285 274.082Z" fill="black" fill-opacity="0.5"/>
<path opacity="0.1" d="M499.996 277.751L498.102 275.046C497.989 274.889 497.819 274.782 497.629 274.747C497.438 274.712 497.242 274.752 497.08 274.858L494.285 276.722C494.126 276.831 494.016 276.998 493.977 277.187C493.937 277.376 493.972 277.572 494.074 277.736L495.81 280.404C495.919 280.564 496.085 280.675 496.274 280.716C496.463 280.757 496.66 280.723 496.825 280.622L499.785 278.766C499.944 278.656 500.054 278.489 500.093 278.3C500.132 278.112 500.098 277.915 499.996 277.751Z" fill="black" fill-opacity="0.5"/>
<path opacity="0.1" d="M494.635 281.454L492.742 278.757C492.629 278.6 492.462 278.493 492.273 278.457C492.084 278.421 491.889 278.458 491.727 278.561L488.924 280.477C488.767 280.588 488.658 280.755 488.62 280.944C488.582 281.133 488.618 281.329 488.721 281.492L490.457 284.16C490.564 284.321 490.73 284.434 490.919 284.476C491.108 284.518 491.306 284.486 491.471 284.385L494.425 282.521C494.511 282.467 494.584 282.395 494.642 282.311C494.699 282.227 494.739 282.133 494.759 282.033C494.778 281.933 494.777 281.831 494.756 281.731C494.735 281.632 494.694 281.537 494.635 281.454Z" fill="black" fill-opacity="0.5"/>
<path opacity="0.1" d="M496.567 295.681L494.673 292.983C494.561 292.827 494.393 292.72 494.205 292.683C494.016 292.647 493.82 292.684 493.658 292.788L490.878 294.681C490.721 294.792 490.612 294.96 490.574 295.148C490.536 295.337 490.573 295.533 490.675 295.696L492.381 298.364C492.488 298.523 492.652 298.635 492.84 298.677C493.027 298.719 493.223 298.687 493.388 298.589L496.349 296.725C496.432 296.671 496.504 296.602 496.56 296.52C496.616 296.438 496.655 296.346 496.675 296.249C496.696 296.152 496.696 296.051 496.678 295.954C496.659 295.857 496.621 295.764 496.567 295.681Z" fill="black" fill-opacity="0.5"/>
<path opacity="0.1" d="M491.217 299.384L489.324 296.686C489.21 296.53 489.041 296.422 488.85 296.387C488.66 296.352 488.463 296.392 488.302 296.499L485.506 298.385C485.348 298.495 485.237 298.661 485.198 298.85C485.159 299.039 485.194 299.235 485.296 299.399L487.032 302.067C487.139 302.228 487.305 302.341 487.494 302.383C487.683 302.425 487.881 302.393 488.046 302.292L491.007 300.436C491.091 300.382 491.163 300.311 491.218 300.228C491.274 300.145 491.313 300.052 491.333 299.954C491.353 299.856 491.352 299.756 491.333 299.658C491.313 299.56 491.274 299.467 491.217 299.384Z" fill="black" fill-opacity="0.5"/>
<path opacity="0.1" d="M486.1 303.428L483.748 300.076C483.723 300.039 483.691 300.007 483.654 299.982C483.616 299.957 483.575 299.94 483.53 299.932C483.486 299.923 483.441 299.924 483.397 299.933C483.353 299.942 483.312 299.96 483.275 299.986L479.833 302.308C479.795 302.332 479.763 302.364 479.737 302.401C479.712 302.438 479.694 302.48 479.685 302.524C479.676 302.568 479.675 302.614 479.684 302.658C479.693 302.702 479.71 302.744 479.735 302.781L481.892 306.095C481.916 306.134 481.947 306.167 481.984 306.193C482.021 306.219 482.062 306.238 482.107 306.248C482.151 306.258 482.196 306.258 482.241 306.25C482.285 306.242 482.328 306.225 482.366 306.2L486.003 303.946C486.046 303.921 486.084 303.887 486.113 303.846C486.142 303.805 486.162 303.759 486.172 303.709C486.181 303.66 486.179 303.609 486.167 303.561C486.155 303.512 486.132 303.466 486.1 303.428Z" fill="black" fill-opacity="0.5"/>
<path opacity="0.1" d="M481.357 306.712L479.005 303.353C478.952 303.281 478.873 303.232 478.785 303.216C478.697 303.201 478.606 303.22 478.532 303.27L475.097 305.585C475.022 305.637 474.97 305.716 474.951 305.806C474.933 305.895 474.951 305.989 475 306.066L477.156 309.38C477.207 309.455 477.284 309.507 477.372 309.527C477.46 309.546 477.552 309.531 477.63 309.485L481.267 307.231C481.312 307.207 481.351 307.174 481.382 307.133C481.412 307.092 481.432 307.044 481.441 306.994C481.449 306.944 481.446 306.892 481.432 306.843C481.417 306.794 481.392 306.75 481.357 306.712Z" fill="black" fill-opacity="0.5"/>
<path opacity="0.1" d="M476.052 310.379L473.699 307.027C473.647 306.954 473.568 306.905 473.479 306.89C473.391 306.874 473.3 306.894 473.226 306.944L469.784 309.259C469.746 309.283 469.714 309.315 469.688 309.352C469.663 309.389 469.645 309.431 469.636 309.475C469.627 309.519 469.627 309.565 469.635 309.609C469.644 309.653 469.661 309.695 469.687 309.732L471.843 313.054C471.894 313.129 471.971 313.181 472.059 313.201C472.147 313.22 472.239 313.205 472.317 313.159L475.954 310.905C475.998 310.879 476.036 310.844 476.065 310.803C476.094 310.761 476.114 310.714 476.123 310.664C476.132 310.614 476.131 310.563 476.119 310.513C476.106 310.464 476.083 310.418 476.052 310.379Z" fill="black" fill-opacity="0.5"/>
<path opacity="0.1" d="M470.912 313.941L468.56 310.59C468.535 310.552 468.503 310.52 468.465 310.496C468.428 310.471 468.386 310.454 468.342 310.445C468.298 310.437 468.253 310.437 468.209 310.447C468.165 310.456 468.123 310.474 468.086 310.499L464.645 312.791C464.607 312.816 464.574 312.847 464.549 312.885C464.523 312.922 464.505 312.964 464.496 313.008C464.487 313.052 464.487 313.097 464.496 313.141C464.504 313.186 464.522 313.228 464.547 313.265L466.704 316.579C466.753 316.655 466.83 316.709 466.919 316.728C467.007 316.748 467.1 316.732 467.177 316.684L470.814 314.43C470.853 314.405 470.887 314.372 470.913 314.334C470.94 314.295 470.958 314.252 470.967 314.206C470.976 314.161 470.976 314.114 470.966 314.068C470.957 314.023 470.938 313.979 470.912 313.941Z" fill="black" fill-opacity="0.5"/>
<path opacity="0.1" d="M503.752 283.176L501.859 280.478C501.745 280.323 501.577 280.217 501.389 280.182C501.2 280.148 501.005 280.186 500.844 280.29L498.041 282.184C497.884 282.295 497.775 282.462 497.737 282.651C497.699 282.839 497.736 283.035 497.838 283.198L499.574 285.866C499.683 286.024 499.847 286.134 500.034 286.175C500.222 286.215 500.417 286.183 500.581 286.084L503.542 284.228C503.626 284.173 503.698 284.103 503.753 284.02C503.809 283.937 503.848 283.844 503.868 283.746C503.888 283.648 503.887 283.547 503.868 283.449C503.848 283.351 503.809 283.258 503.752 283.176Z" fill="black" fill-opacity="0.5"/>
<path opacity="0.1" d="M498.394 286.888L496.5 284.183C496.387 284.026 496.218 283.918 496.027 283.883C495.837 283.848 495.64 283.888 495.478 283.995L492.683 285.888C492.524 285.998 492.414 286.165 492.375 286.354C492.336 286.542 492.371 286.739 492.473 286.903L494.208 289.571C494.316 289.732 494.481 289.845 494.67 289.887C494.859 289.929 495.057 289.896 495.223 289.796L498.184 287.932C498.266 287.878 498.337 287.807 498.393 287.725C498.448 287.643 498.487 287.551 498.506 287.454C498.526 287.357 498.526 287.257 498.507 287.16C498.487 287.063 498.449 286.97 498.394 286.888Z" fill="black" fill-opacity="0.5"/>
<path opacity="0.1" d="M493.05 290.593L491.156 287.895C491.043 287.738 490.873 287.631 490.683 287.596C490.492 287.561 490.296 287.601 490.134 287.708L487.331 289.594C487.174 289.705 487.065 289.872 487.027 290.061C486.99 290.249 487.026 290.445 487.128 290.608L488.864 293.276C488.972 293.437 489.137 293.55 489.326 293.592C489.515 293.634 489.713 293.602 489.879 293.501L492.832 291.638C492.915 291.584 492.987 291.514 493.043 291.432C493.099 291.35 493.138 291.258 493.158 291.161C493.179 291.064 493.18 290.964 493.161 290.866C493.142 290.769 493.105 290.676 493.05 290.593Z" fill="black" fill-opacity="0.5"/>
<path opacity="0.1" d="M487.692 294.297L485.798 291.599C485.685 291.444 485.517 291.339 485.328 291.304C485.14 291.269 484.945 291.307 484.784 291.411L481.981 293.297C481.823 293.408 481.714 293.575 481.677 293.764C481.639 293.953 481.675 294.149 481.778 294.312L483.514 297.01C483.621 297.169 483.785 297.281 483.972 297.323C484.159 297.364 484.356 297.333 484.521 297.235L487.481 295.379C487.569 295.324 487.645 295.252 487.704 295.167C487.763 295.082 487.803 294.985 487.823 294.884C487.843 294.782 487.841 294.678 487.819 294.577C487.796 294.476 487.753 294.38 487.692 294.297Z" fill="black" fill-opacity="0.5"/>
<path opacity="0.1" d="M482.611 298.342L480.259 294.99C480.234 294.953 480.202 294.921 480.165 294.896C480.127 294.871 480.085 294.854 480.041 294.846C479.997 294.837 479.952 294.838 479.908 294.847C479.864 294.856 479.823 294.874 479.786 294.9L476.344 297.222C476.269 297.272 476.217 297.35 476.199 297.439C476.18 297.527 476.197 297.619 476.246 297.695L478.403 301.017C478.427 301.055 478.459 301.087 478.496 301.113C478.533 301.138 478.575 301.156 478.619 301.165C478.663 301.174 478.709 301.174 478.753 301.166C478.797 301.157 478.839 301.14 478.876 301.114L482.514 298.86C482.557 298.835 482.595 298.801 482.624 298.76C482.653 298.72 482.673 298.673 482.683 298.623C482.692 298.574 482.69 298.523 482.678 298.475C482.666 298.426 482.643 298.381 482.611 298.342Z" fill="black" fill-opacity="0.5"/>
<path opacity="0.1" d="M477.84 301.623L475.488 298.264C475.434 298.191 475.354 298.142 475.264 298.126C475.175 298.111 475.083 298.131 475.007 298.181L471.573 300.496C471.498 300.548 471.445 300.627 471.427 300.717C471.409 300.806 471.426 300.9 471.475 300.977L473.632 304.291C473.681 304.367 473.759 304.421 473.847 304.44C473.936 304.46 474.029 304.444 474.106 304.396L477.743 302.142C477.786 302.117 477.824 302.083 477.853 302.042C477.882 302.001 477.902 301.954 477.912 301.905C477.921 301.856 477.919 301.805 477.907 301.756C477.895 301.707 477.872 301.662 477.84 301.623Z" fill="black" fill-opacity="0.5"/>
<path opacity="0.1" d="M472.536 305.275L470.183 301.916C470.129 301.843 470.049 301.794 469.96 301.779C469.87 301.763 469.778 301.783 469.703 301.834L466.261 304.148C466.187 304.201 466.136 304.28 466.118 304.369C466.099 304.459 466.116 304.551 466.163 304.629L468.327 307.943C468.377 308.019 468.454 308.073 468.543 308.093C468.631 308.112 468.724 308.096 468.801 308.048L472.43 305.794C472.476 305.771 472.515 305.738 472.546 305.697C472.577 305.657 472.598 305.61 472.608 305.56C472.618 305.51 472.617 305.459 472.604 305.409C472.592 305.36 472.568 305.314 472.536 305.275Z" fill="black" fill-opacity="0.5"/>
<path opacity="0.1" d="M467.395 308.854L465.043 305.502C465.017 305.465 464.984 305.433 464.946 305.408C464.908 305.383 464.866 305.366 464.821 305.357C464.776 305.349 464.73 305.35 464.686 305.359C464.641 305.368 464.599 305.386 464.562 305.412L461.12 307.734C461.046 307.786 460.996 307.864 460.979 307.953C460.962 308.041 460.98 308.133 461.03 308.208L463.187 311.522C463.21 311.561 463.24 311.595 463.277 311.622C463.314 311.649 463.356 311.668 463.4 311.678C463.445 311.688 463.491 311.688 463.535 311.679C463.58 311.671 463.623 311.653 463.66 311.627L467.29 309.372C467.335 309.349 467.374 309.316 467.405 309.276C467.436 309.235 467.457 309.188 467.467 309.139C467.477 309.089 467.476 309.037 467.463 308.988C467.451 308.939 467.427 308.893 467.395 308.854Z" fill="black" fill-opacity="0.5"/>
<path opacity="0.1" d="M465.772 317.496L463.42 314.144C463.367 314.072 463.289 314.023 463.2 314.007C463.112 313.992 463.021 314.011 462.947 314.062L459.505 316.376C459.467 316.4 459.434 316.432 459.409 316.469C459.384 316.506 459.366 316.548 459.357 316.592C459.347 316.636 459.347 316.682 459.356 316.726C459.365 316.77 459.382 316.812 459.407 316.849L461.564 320.171C461.615 320.246 461.692 320.298 461.78 320.318C461.868 320.337 461.96 320.322 462.038 320.276L465.675 318.022C465.719 317.996 465.756 317.961 465.786 317.92C465.815 317.878 465.835 317.831 465.844 317.781C465.853 317.731 465.852 317.68 465.839 317.631C465.827 317.581 465.804 317.535 465.772 317.496Z" fill="black" fill-opacity="0.5"/>
<path opacity="0.1" d="M460.631 321.056L458.279 317.705C458.254 317.668 458.221 317.636 458.184 317.611C458.147 317.586 458.105 317.569 458.061 317.561C458.017 317.552 457.971 317.553 457.927 317.562C457.884 317.571 457.842 317.589 457.805 317.615L454.363 319.937C454.325 319.961 454.293 319.993 454.267 320.03C454.242 320.067 454.224 320.109 454.215 320.153C454.206 320.197 454.206 320.243 454.214 320.287C454.223 320.331 454.241 320.373 454.266 320.41L456.422 323.724C456.472 323.8 456.549 323.854 456.638 323.874C456.726 323.893 456.819 323.878 456.896 323.829L460.533 321.575C460.577 321.55 460.614 321.516 460.644 321.475C460.673 321.434 460.693 321.388 460.702 321.338C460.711 321.289 460.71 321.238 460.697 321.19C460.685 321.141 460.662 321.095 460.631 321.056Z" fill="black" fill-opacity="0.5"/>
<path opacity="0.1" d="M468.702 299.759L466.448 296.603C466.377 296.505 466.27 296.438 466.151 296.417C466.032 296.396 465.909 296.422 465.809 296.49L462.562 298.677C462.512 298.71 462.468 298.753 462.435 298.804C462.401 298.854 462.377 298.91 462.365 298.97C462.353 299.029 462.353 299.09 462.365 299.15C462.377 299.209 462.401 299.266 462.435 299.316L464.464 302.434C464.495 302.486 464.537 302.531 464.586 302.566C464.635 302.601 464.69 302.626 464.749 302.639C464.808 302.653 464.869 302.654 464.928 302.643C464.988 302.633 465.044 302.61 465.095 302.577L468.529 300.421C468.586 300.39 468.635 300.349 468.675 300.298C468.715 300.248 468.744 300.19 468.76 300.128C468.776 300.065 468.779 300.001 468.769 299.937C468.759 299.874 468.736 299.813 468.702 299.759Z" fill="black" fill-opacity="0.5"/>
<path opacity="0.1" d="M463.561 303.322L461.344 300.166C461.31 300.116 461.267 300.073 461.216 300.04C461.166 300.007 461.109 299.984 461.05 299.973C460.991 299.962 460.93 299.962 460.871 299.975C460.811 299.987 460.755 300.011 460.706 300.045L457.459 302.27C457.409 302.302 457.366 302.345 457.332 302.394C457.298 302.444 457.275 302.5 457.263 302.559C457.251 302.617 457.251 302.678 457.263 302.737C457.275 302.796 457.298 302.851 457.332 302.901L459.361 306.027C459.427 306.128 459.53 306.199 459.647 306.226C459.765 306.253 459.889 306.233 459.992 306.17L463.426 304.013C463.484 303.98 463.534 303.935 463.573 303.88C463.612 303.826 463.639 303.764 463.652 303.698C463.664 303.633 463.663 303.565 463.647 303.5C463.632 303.435 463.602 303.374 463.561 303.322Z" fill="black" fill-opacity="0.5"/>
<path opacity="0.1" d="M458.423 306.884L456.206 303.72C456.135 303.622 456.029 303.555 455.91 303.534C455.791 303.513 455.668 303.54 455.568 303.607L452.321 305.794C452.271 305.828 452.227 305.871 452.193 305.921C452.16 305.971 452.136 306.028 452.124 306.087C452.112 306.146 452.112 306.208 452.124 306.267C452.136 306.326 452.16 306.383 452.193 306.433L454.222 309.552C454.254 309.603 454.295 309.648 454.344 309.683C454.393 309.718 454.449 309.743 454.508 309.756C454.567 309.77 454.628 309.771 454.687 309.761C454.746 309.75 454.803 309.727 454.854 309.694L458.288 307.538C458.341 307.505 458.387 307.462 458.423 307.41C458.459 307.359 458.484 307.301 458.497 307.24C458.509 307.179 458.509 307.116 458.497 307.054C458.484 306.993 458.459 306.935 458.423 306.884Z" fill="black" fill-opacity="0.5"/>
<path opacity="0.1" d="M453.35 310.536L450.998 307.177C450.945 307.105 450.866 307.056 450.778 307.04C450.69 307.025 450.599 307.044 450.525 307.095L447.083 309.409C447.007 309.461 446.955 309.54 446.937 309.63C446.919 309.72 446.936 309.813 446.985 309.89L449.142 313.204C449.192 313.279 449.27 313.331 449.358 313.351C449.446 313.37 449.538 313.356 449.615 313.309L453.252 311.055C453.298 311.032 453.338 310.999 453.369 310.958C453.4 310.918 453.421 310.87 453.43 310.82C453.44 310.77 453.437 310.718 453.424 310.669C453.41 310.62 453.384 310.574 453.35 310.536Z" fill="black" fill-opacity="0.5"/>
<path opacity="0.1" d="M514.174 275.856L512.137 272.963C512.023 272.807 511.852 272.701 511.662 272.668C511.472 272.634 511.276 272.675 511.115 272.782L503.164 278.351C503.01 278.463 502.905 278.629 502.868 278.816C502.832 279.003 502.868 279.196 502.969 279.358L504.885 282.318C504.941 282.4 505.011 282.471 505.094 282.525C505.176 282.58 505.268 282.618 505.366 282.637C505.463 282.655 505.562 282.655 505.659 282.635C505.756 282.615 505.848 282.577 505.93 282.521L514.001 276.878C514.155 276.762 514.259 276.592 514.291 276.401C514.324 276.211 514.281 276.016 514.174 275.856Z" fill="black" fill-opacity="0.5"/>
<path opacity="0.1" d="M462.241 312.302L459.747 308.778C459.721 308.74 459.688 308.708 459.65 308.683C459.612 308.658 459.569 308.642 459.524 308.634C459.479 308.626 459.433 308.628 459.388 308.638C459.344 308.649 459.302 308.668 459.266 308.695L450.684 314.707C450.611 314.757 450.56 314.834 450.543 314.921C450.526 315.008 450.544 315.099 450.594 315.173L452.938 318.802C452.963 318.841 452.996 318.875 453.034 318.901C453.073 318.928 453.116 318.946 453.162 318.955C453.207 318.964 453.254 318.964 453.3 318.955C453.345 318.945 453.388 318.927 453.427 318.9L462.151 312.791C462.228 312.737 462.28 312.656 462.297 312.565C462.314 312.473 462.294 312.379 462.241 312.302Z" fill="black" fill-opacity="0.5"/>
<path opacity="0.1" d="M489.54 285.348L487.241 281.981C487.189 281.908 487.111 281.857 487.022 281.84C486.934 281.823 486.843 281.842 486.767 281.891L467.71 294.756C467.635 294.807 467.583 294.885 467.565 294.973C467.546 295.062 467.564 295.154 467.612 295.23L469.965 298.837C469.99 298.876 470.022 298.91 470.061 298.936C470.099 298.962 470.142 298.98 470.188 298.99C470.234 298.999 470.281 298.999 470.326 298.989C470.372 298.98 470.415 298.961 470.453 298.935L489.45 285.829C489.488 285.803 489.52 285.77 489.545 285.732C489.57 285.694 489.587 285.652 489.595 285.607C489.603 285.562 489.603 285.517 489.593 285.472C489.584 285.428 489.566 285.385 489.54 285.348Z" fill="black" fill-opacity="0.5"/>
</g>
<path d="M521.44 285.949L519.5 283.473C519.384 283.329 519.211 283.231 519.015 283.199C518.82 283.167 518.619 283.203 518.453 283.301L515.589 285.034C515.427 285.135 515.314 285.287 515.274 285.46C515.234 285.633 515.27 285.813 515.374 285.963L517.152 288.405C517.262 288.552 517.432 288.656 517.626 288.695C517.819 288.733 518.022 288.703 518.192 288.611L521.225 286.905C521.31 286.855 521.382 286.791 521.439 286.716C521.496 286.641 521.535 286.556 521.555 286.467C521.575 286.378 521.575 286.287 521.556 286.198C521.536 286.109 521.497 286.024 521.44 285.949Z" fill="#464A5F" fill-opacity="0.5"/>
<path d="M516.703 289.889L514.764 287.415C514.648 287.273 514.476 287.176 514.282 287.144C514.089 287.112 513.89 287.148 513.725 287.243L510.855 288.973C510.692 289.074 510.58 289.226 510.539 289.399C510.499 289.573 510.535 289.753 510.639 289.903L512.417 292.35C512.527 292.497 512.696 292.601 512.89 292.64C513.083 292.678 513.286 292.648 513.456 292.556L516.487 290.854C516.573 290.804 516.646 290.739 516.704 290.663C516.761 290.588 516.801 290.502 516.821 290.412C516.841 290.323 516.841 290.23 516.821 290.14C516.8 290.05 516.76 289.965 516.703 289.889Z" fill="#464A5F" fill-opacity="0.5"/>
<path d="M511.196 293.046L509.499 290.574C509.398 290.431 509.246 290.332 509.075 290.3C508.905 290.268 508.728 290.305 508.584 290.402L506.079 292.137C505.937 292.238 505.838 292.391 505.803 292.564C505.768 292.737 505.799 292.917 505.891 293.067L507.446 295.511C507.543 295.658 507.692 295.76 507.861 295.797C508.03 295.834 508.207 295.803 508.355 295.711L511.007 294.01C511.082 293.96 511.147 293.895 511.197 293.819C511.247 293.744 511.282 293.658 511.299 293.569C511.317 293.479 511.317 293.386 511.299 293.297C511.281 293.207 511.246 293.122 511.196 293.046Z" fill="#464A5F" fill-opacity="0.5"/>
<path d="M505.639 296.58L503.707 293.766C503.592 293.605 503.42 293.495 503.228 293.458C503.036 293.422 502.837 293.462 502.673 293.57L499.814 295.54C499.729 295.598 499.657 295.673 499.602 295.76C499.546 295.846 499.508 295.943 499.489 296.045C499.471 296.147 499.472 296.252 499.494 296.353C499.515 296.454 499.556 296.55 499.614 296.635L501.385 299.41C501.494 299.578 501.663 299.696 501.856 299.739C502.049 299.783 502.251 299.749 502.42 299.645L505.432 297.706C505.521 297.648 505.598 297.573 505.657 297.484C505.716 297.395 505.757 297.295 505.776 297.189C505.795 297.083 505.793 296.975 505.77 296.87C505.746 296.765 505.702 296.667 505.639 296.58Z" fill="#464A5F" fill-opacity="0.5"/>
<path d="M500.908 300.936L498.724 298.462C498.593 298.32 498.4 298.223 498.182 298.191C497.964 298.159 497.74 298.195 497.554 298.29L494.32 300.02C494.139 300.121 494.014 300.275 493.97 300.448C493.926 300.621 493.968 300.801 494.086 300.95L496.08 303.397C496.204 303.544 496.395 303.648 496.613 303.687C496.831 303.725 497.059 303.695 497.25 303.603L500.666 301.894C500.761 301.844 500.843 301.78 500.907 301.704C500.971 301.629 501.015 301.544 501.038 301.455C501.06 301.366 501.06 301.275 501.038 301.186C501.016 301.097 500.972 301.012 500.908 300.936Z" fill="#464A5F" fill-opacity="0.5"/>
<path d="M495.456 304.83L493.172 301.486C493.148 301.449 493.116 301.417 493.08 301.392C493.044 301.367 493.003 301.35 492.96 301.342C492.918 301.334 492.874 301.334 492.831 301.343C492.788 301.352 492.748 301.37 492.712 301.396L489.37 303.712C489.333 303.737 489.301 303.768 489.276 303.805C489.252 303.842 489.234 303.884 489.226 303.928C489.217 303.972 489.216 304.017 489.225 304.062C489.233 304.106 489.25 304.148 489.275 304.185L491.369 307.491C491.417 307.567 491.492 307.621 491.578 307.64C491.664 307.66 491.754 307.644 491.829 307.596L495.361 305.347C495.404 305.322 495.44 305.288 495.469 305.247C495.497 305.207 495.516 305.16 495.525 305.111C495.534 305.062 495.533 305.011 495.521 304.962C495.509 304.914 495.487 304.868 495.456 304.83Z" fill="#464A5F" fill-opacity="0.5"/>
<path d="M489.936 308.42L487.651 304.661C487.626 304.619 487.594 304.583 487.557 304.555C487.52 304.527 487.479 304.508 487.435 304.499C487.392 304.489 487.347 304.49 487.304 304.501C487.261 304.511 487.22 304.531 487.183 304.56L483.846 307.164C483.809 307.191 483.778 307.227 483.753 307.268C483.728 307.31 483.711 307.357 483.702 307.406C483.693 307.456 483.693 307.507 483.702 307.556C483.71 307.606 483.727 307.653 483.751 307.695L485.847 311.42C485.871 311.462 485.902 311.499 485.938 311.527C485.974 311.556 486.014 311.576 486.057 311.586C486.1 311.596 486.144 311.596 486.187 311.587C486.23 311.577 486.271 311.557 486.307 311.529L489.841 309.001C489.883 308.972 489.919 308.934 489.946 308.888C489.974 308.842 489.993 308.79 490.002 308.735C490.011 308.68 490.01 308.623 489.998 308.569C489.987 308.515 489.966 308.464 489.936 308.42Z" fill="#464A5F" fill-opacity="0.5"/>
<path d="M485.213 311.949L482.923 308.58C482.871 308.507 482.795 308.458 482.708 308.443C482.622 308.427 482.534 308.447 482.462 308.497L479.11 310.788C479.037 310.84 478.986 310.92 478.968 311.01C478.95 311.1 478.967 311.193 479.015 311.271L481.115 314.594C481.164 314.669 481.24 314.722 481.325 314.742C481.411 314.761 481.501 314.746 481.576 314.7L485.118 312.439C485.156 312.414 485.189 312.381 485.215 312.342C485.24 312.304 485.258 312.261 485.267 312.215C485.276 312.169 485.276 312.122 485.266 312.076C485.257 312.031 485.239 311.987 485.213 311.949Z" fill="#464A5F" fill-opacity="0.5"/>
<path d="M479.658 315.059L477.38 311.736C477.329 311.663 477.252 311.614 477.167 311.599C477.081 311.583 476.993 311.603 476.921 311.653L473.588 313.963C473.552 313.988 473.52 314.021 473.495 314.058C473.47 314.096 473.453 314.139 473.444 314.183C473.435 314.228 473.435 314.274 473.444 314.318C473.452 314.363 473.469 314.406 473.494 314.444L475.582 317.751C475.631 317.826 475.706 317.878 475.791 317.898C475.877 317.917 475.966 317.903 476.041 317.856L479.563 315.606C479.61 315.582 479.651 315.547 479.683 315.504C479.714 315.461 479.736 315.41 479.745 315.357C479.754 315.304 479.751 315.249 479.736 315.197C479.721 315.145 479.694 315.098 479.658 315.059Z" fill="#464A5F" fill-opacity="0.5"/>
<path d="M474.931 319.031L472.361 315.689C472.334 315.652 472.299 315.62 472.258 315.595C472.217 315.57 472.171 315.553 472.123 315.545C472.075 315.537 472.026 315.537 471.978 315.546C471.93 315.556 471.884 315.573 471.844 315.599L468.084 317.914C468.042 317.939 468.007 317.97 467.979 318.007C467.951 318.044 467.932 318.086 467.922 318.13C467.912 318.174 467.912 318.219 467.921 318.263C467.931 318.307 467.95 318.349 467.977 318.387L470.333 321.691C470.359 321.73 470.393 321.763 470.434 321.789C470.474 321.815 470.52 321.834 470.568 321.844C470.616 321.853 470.666 321.854 470.714 321.846C470.763 321.838 470.809 321.821 470.851 321.796L474.824 319.548C474.872 319.523 474.913 319.489 474.945 319.449C474.977 319.408 474.999 319.361 475.009 319.312C475.019 319.263 475.018 319.212 475.004 319.164C474.991 319.115 474.966 319.07 474.931 319.031Z" fill="#464A5F" fill-opacity="0.5"/>
<path d="M469.417 322.19L467.132 318.837C467.081 318.765 467.004 318.716 466.918 318.7C466.832 318.685 466.744 318.705 466.672 318.755L463.328 321.065C463.255 321.117 463.204 321.196 463.187 321.285C463.169 321.375 463.186 321.468 463.233 321.545L465.329 324.853C465.378 324.928 465.453 324.98 465.538 324.999C465.624 325.019 465.713 325.004 465.789 324.958L469.322 322.708C469.365 322.683 469.401 322.649 469.43 322.608C469.458 322.567 469.477 322.521 469.486 322.472C469.495 322.422 469.494 322.372 469.482 322.323C469.47 322.274 469.448 322.229 469.417 322.19Z" fill="#464A5F" fill-opacity="0.5"/>
<path d="M464.683 326.133L462.398 322.79C462.374 322.753 462.343 322.721 462.307 322.697C462.27 322.672 462.23 322.655 462.187 322.647C462.144 322.638 462.1 322.639 462.058 322.648C462.015 322.657 461.974 322.675 461.939 322.7L458.596 325.016C458.559 325.04 458.528 325.072 458.503 325.109C458.478 325.146 458.461 325.188 458.452 325.232C458.443 325.276 458.443 325.321 458.452 325.365C458.46 325.409 458.477 325.451 458.501 325.488L460.596 328.793C460.619 328.831 460.649 328.865 460.685 328.891C460.721 328.917 460.761 328.935 460.804 328.945C460.847 328.955 460.891 328.956 460.935 328.948C460.978 328.939 461.019 328.923 461.056 328.898L464.588 326.65C464.63 326.625 464.667 326.591 464.695 326.55C464.724 326.51 464.743 326.463 464.752 326.414C464.761 326.365 464.76 326.314 464.748 326.265C464.736 326.217 464.713 326.171 464.683 326.133Z" fill="#464A5F" fill-opacity="0.5"/>
<path d="M518.284 281.213L516.342 278.027C516.226 277.845 516.054 277.72 515.861 277.679C515.667 277.638 515.467 277.683 515.302 277.806L512.428 280.036C512.267 280.166 512.155 280.363 512.117 280.585C512.078 280.808 512.115 281.039 512.22 281.23L513.992 284.372C514.102 284.562 514.272 284.695 514.466 284.745C514.66 284.794 514.863 284.756 515.032 284.637L518.068 282.443C518.153 282.379 518.226 282.296 518.283 282.199C518.339 282.102 518.379 281.994 518.399 281.879C518.419 281.765 518.419 281.647 518.399 281.533C518.38 281.418 518.341 281.31 518.284 281.213Z" fill="#464A5F" fill-opacity="0.5"/>
<path d="M510.407 270.558L508.709 267.729C508.607 267.567 508.456 267.456 508.287 267.419C508.118 267.383 507.943 267.423 507.799 267.532L505.286 269.51C505.144 269.627 505.047 269.802 505.013 270C504.979 270.198 505.012 270.403 505.104 270.574L506.66 273.372C506.756 273.538 506.904 273.656 507.071 273.7C507.239 273.744 507.415 273.711 507.563 273.608L510.218 271.662C510.293 271.604 510.357 271.53 510.408 271.443C510.458 271.357 510.493 271.259 510.51 271.156C510.528 271.054 510.528 270.948 510.51 270.845C510.492 270.742 510.457 270.645 510.407 270.558Z" fill="#464A5F" fill-opacity="0.5"/>
<path d="M512.78 284.777L511.08 281.932C510.978 281.77 510.827 281.659 510.658 281.623C510.489 281.586 510.314 281.626 510.169 281.735L507.653 283.713C507.512 283.83 507.414 284.005 507.38 284.203C507.346 284.401 507.379 284.606 507.471 284.777L509.029 287.575C509.126 287.741 509.273 287.859 509.441 287.903C509.609 287.947 509.785 287.914 509.933 287.811L512.591 285.865C512.739 285.749 512.842 285.57 512.877 285.366C512.913 285.163 512.878 284.951 512.78 284.777Z" fill="#464A5F" fill-opacity="0.5"/>
<path d="M507.241 288.31L505.566 285.837C505.464 285.695 505.313 285.598 505.143 285.566C504.974 285.534 504.798 285.57 504.653 285.665L502.133 287.394C501.99 287.496 501.891 287.65 501.857 287.825C501.823 288 501.856 288.181 501.951 288.331L503.505 290.777C503.602 290.923 503.752 291.026 503.922 291.063C504.091 291.1 504.269 291.069 504.417 290.976L507.079 289.275C507.152 289.223 507.215 289.156 507.262 289.079C507.31 289.002 507.342 288.917 507.357 288.827C507.373 288.737 507.37 288.646 507.35 288.557C507.33 288.468 507.293 288.384 507.241 288.31Z" fill="#464A5F" fill-opacity="0.5"/>
<path d="M502.503 291.867L500.563 289.037C500.447 288.873 500.273 288.761 500.078 288.724C499.883 288.687 499.682 288.729 499.516 288.84L496.652 290.821C496.489 290.936 496.376 291.111 496.336 291.308C496.296 291.506 496.332 291.711 496.436 291.883L498.215 294.674C498.325 294.842 498.494 294.961 498.688 295.005C498.882 295.049 499.084 295.015 499.254 294.91L502.287 292.96C502.372 292.903 502.445 292.829 502.501 292.743C502.558 292.657 502.598 292.561 502.618 292.459C502.638 292.358 502.638 292.253 502.618 292.151C502.598 292.05 502.559 291.953 502.503 291.867Z" fill="#464A5F" fill-opacity="0.5"/>
<path d="M505.663 274.519L503.72 271.675C503.604 271.512 503.431 271.401 503.238 271.365C503.044 271.328 502.844 271.369 502.679 271.478L499.803 273.456C499.642 273.572 499.53 273.747 499.492 273.945C499.453 274.143 499.49 274.349 499.595 274.519L501.376 277.317C501.486 277.484 501.655 277.601 501.847 277.645C502.039 277.689 502.24 277.656 502.409 277.553L505.447 275.607C505.616 275.491 505.733 275.312 505.774 275.109C505.814 274.905 505.774 274.693 505.663 274.519Z" fill="#464A5F" fill-opacity="0.5"/>
<path d="M500.909 278.057L498.726 275.579C498.596 275.437 498.402 275.34 498.184 275.308C497.967 275.276 497.742 275.312 497.557 275.407L494.326 277.142C494.143 277.242 494.016 277.395 493.971 277.568C493.926 277.741 493.966 277.921 494.084 278.071L496.084 280.514C496.208 280.662 496.399 280.765 496.617 280.804C496.835 280.842 497.063 280.813 497.254 280.721L500.666 279.014C500.761 278.964 500.843 278.899 500.907 278.824C500.971 278.749 501.015 278.664 501.038 278.575C501.06 278.486 501.06 278.395 501.038 278.306C501.016 278.217 500.972 278.132 500.909 278.057Z" fill="#464A5F" fill-opacity="0.5"/>
<path d="M495.4 281.601L493.46 278.779C493.344 278.615 493.171 278.503 492.976 278.466C492.781 278.429 492.579 278.471 492.414 278.582L489.55 280.556C489.388 280.671 489.275 280.845 489.235 281.042C489.195 281.24 489.23 281.446 489.335 281.617L491.113 284.416C491.223 284.584 491.392 284.703 491.586 284.747C491.78 284.791 491.982 284.757 492.152 284.652L495.177 282.702C495.263 282.646 495.338 282.572 495.396 282.486C495.454 282.399 495.494 282.302 495.515 282.2C495.536 282.097 495.537 281.991 495.517 281.889C495.497 281.786 495.457 281.688 495.4 281.601Z" fill="#464A5F" fill-opacity="0.5"/>
<path d="M496.986 295.816L495.042 292.98C494.926 292.817 494.754 292.706 494.56 292.669C494.366 292.633 494.166 292.673 494.001 292.783L491.124 294.75C490.962 294.866 490.851 295.042 490.812 295.24C490.773 295.439 490.81 295.645 490.915 295.816L492.697 298.621C492.808 298.788 492.976 298.906 493.168 298.95C493.36 298.994 493.562 298.961 493.731 298.858L496.77 296.899C496.937 296.783 497.053 296.605 497.094 296.402C497.134 296.2 497.096 295.99 496.986 295.816Z" fill="#464A5F" fill-opacity="0.5"/>
<path d="M492.204 299.341L490.029 296.882C489.899 296.741 489.706 296.645 489.49 296.613C489.273 296.581 489.049 296.616 488.864 296.711L485.645 298.464C485.463 298.565 485.336 298.716 485.291 298.888C485.246 299.061 485.287 299.24 485.403 299.389L487.397 301.82C487.521 301.967 487.711 302.07 487.928 302.109C488.145 302.147 488.372 302.117 488.562 302.026L491.963 300.334C492.065 300.284 492.153 300.218 492.221 300.14C492.29 300.062 492.337 299.973 492.359 299.88C492.382 299.786 492.38 299.69 492.353 299.598C492.327 299.505 492.276 299.417 492.204 299.341Z" fill="#464A5F" fill-opacity="0.5"/>
<path d="M486.77 303.686L484.477 299.926C484.453 299.884 484.422 299.849 484.385 299.821C484.349 299.793 484.308 299.774 484.265 299.765C484.222 299.755 484.178 299.756 484.135 299.766C484.092 299.776 484.052 299.797 484.016 299.825L480.691 302.43C480.654 302.457 480.622 302.493 480.597 302.535C480.572 302.576 480.555 302.623 480.546 302.673C480.537 302.722 480.537 302.773 480.545 302.823C480.554 302.872 480.571 302.919 480.595 302.961L482.697 306.679C482.721 306.722 482.751 306.76 482.787 306.789C482.823 306.818 482.863 306.839 482.906 306.85C482.949 306.861 482.994 306.862 483.037 306.853C483.081 306.844 483.122 306.825 483.159 306.797L486.704 304.268C486.743 304.236 486.776 304.196 486.801 304.149C486.826 304.101 486.842 304.049 486.849 303.994C486.855 303.939 486.851 303.884 486.837 303.831C486.824 303.778 486.801 303.728 486.77 303.686Z" fill="#464A5F" fill-opacity="0.5"/>
<path d="M482.04 306.408L479.758 303.057C479.705 302.984 479.627 302.935 479.54 302.919C479.453 302.904 479.364 302.923 479.291 302.974L475.951 305.283C475.879 305.336 475.829 305.415 475.812 305.504C475.794 305.593 475.81 305.685 475.856 305.763L477.956 309.069C478.004 309.145 478.079 309.199 478.165 309.218C478.251 309.238 478.341 309.222 478.416 309.174L481.938 306.925C481.982 306.902 482.021 306.869 482.05 306.829C482.08 306.788 482.101 306.741 482.111 306.692C482.12 306.642 482.119 306.591 482.107 306.541C482.095 306.492 482.072 306.447 482.04 306.408Z" fill="#464A5F" fill-opacity="0.5"/>
<path d="M476.5 310.354L473.933 307.001C473.875 306.929 473.789 306.88 473.693 306.865C473.596 306.849 473.497 306.869 473.416 306.919L469.659 309.229C469.577 309.281 469.52 309.36 469.5 309.449C469.48 309.539 469.499 309.632 469.553 309.709L471.907 313.017C471.962 313.092 472.046 313.144 472.142 313.163C472.238 313.183 472.339 313.168 472.423 313.122L476.393 310.872C476.443 310.849 476.487 310.816 476.521 310.775C476.554 310.735 476.577 310.687 476.588 310.637C476.598 310.587 476.595 310.535 476.58 310.486C476.565 310.437 476.537 310.392 476.5 310.354Z" fill="#464A5F" fill-opacity="0.5"/>
<path d="M471.773 314.298L469.506 310.955C469.481 310.917 469.45 310.885 469.414 310.861C469.377 310.836 469.337 310.819 469.294 310.811C469.251 310.802 469.207 310.803 469.164 310.812C469.121 310.821 469.081 310.839 469.045 310.865L465.695 313.181C465.622 313.232 465.572 313.309 465.554 313.397C465.536 313.486 465.553 313.578 465.6 313.654L467.699 316.96C467.747 317.036 467.822 317.089 467.909 317.109C467.995 317.129 468.085 317.113 468.16 317.065L471.7 314.816C471.742 314.79 471.777 314.755 471.804 314.713C471.831 314.672 471.849 314.624 471.856 314.575C471.863 314.525 471.859 314.475 471.845 314.427C471.83 314.379 471.806 314.335 471.773 314.298Z" fill="#464A5F" fill-opacity="0.5"/>
<path d="M504.097 283.19L502.405 280.357C502.303 280.193 502.151 280.081 501.98 280.044C501.809 280.008 501.633 280.049 501.488 280.161L498.973 282.144C498.832 282.26 498.734 282.435 498.701 282.632C498.667 282.83 498.699 283.035 498.791 283.206L500.349 285.999C500.446 286.167 500.595 286.284 500.765 286.326C500.934 286.369 501.111 286.333 501.259 286.228L503.908 284.284C503.983 284.227 504.046 284.153 504.096 284.067C504.146 283.981 504.18 283.884 504.198 283.783C504.215 283.681 504.215 283.576 504.198 283.475C504.181 283.373 504.147 283.276 504.097 283.19Z" fill="#464A5F" fill-opacity="0.5"/>
<path d="M498.558 287.131L496.616 284.305C496.501 284.141 496.329 284.029 496.136 283.991C495.942 283.953 495.742 283.992 495.576 284.1L492.701 286.084C492.54 286.2 492.429 286.375 492.39 286.573C492.351 286.771 492.388 286.976 492.493 287.147L494.273 289.942C494.383 290.109 494.552 290.226 494.744 290.27C494.936 290.314 495.137 290.281 495.306 290.178L498.342 288.226C498.427 288.169 498.499 288.095 498.556 288.009C498.613 287.923 498.652 287.826 498.672 287.724C498.692 287.623 498.693 287.518 498.673 287.416C498.653 287.314 498.614 287.218 498.558 287.131Z" fill="#464A5F" fill-opacity="0.5"/>
<path d="M493.807 290.677L491.837 288.208C491.72 288.064 491.546 287.965 491.35 287.933C491.154 287.901 490.952 287.938 490.786 288.035L487.973 289.759C487.81 289.86 487.697 290.013 487.657 290.186C487.616 290.36 487.652 290.54 487.757 290.69L489.542 293.139C489.652 293.286 489.822 293.39 490.017 293.429C490.211 293.467 490.415 293.438 490.585 293.345L493.629 291.642C493.712 291.589 493.782 291.522 493.836 291.445C493.89 291.368 493.926 291.282 493.943 291.192C493.959 291.103 493.956 291.011 493.933 290.922C493.909 290.834 493.866 290.75 493.807 290.677Z" fill="#464A5F" fill-opacity="0.5"/>
<path d="M488.296 294.23L486.356 291.401C486.24 291.239 486.067 291.128 485.874 291.091C485.681 291.055 485.481 291.095 485.316 291.204L482.443 293.182C482.282 293.298 482.171 293.474 482.132 293.672C482.093 293.87 482.13 294.075 482.236 294.246L484.014 297.043C484.124 297.21 484.293 297.328 484.485 297.372C484.676 297.416 484.877 297.383 485.046 297.28L488.081 295.333C488.166 295.276 488.24 295.202 488.297 295.115C488.355 295.028 488.395 294.931 488.415 294.828C488.435 294.725 488.435 294.62 488.414 294.517C488.394 294.414 488.354 294.317 488.296 294.23Z" fill="#464A5F" fill-opacity="0.5"/>
<path d="M482.833 298.514L480.55 295.174C480.525 295.136 480.493 295.104 480.456 295.08C480.419 295.055 480.378 295.038 480.335 295.029C480.291 295.021 480.247 295.022 480.204 295.031C480.16 295.04 480.119 295.058 480.083 295.084L476.742 297.398C476.669 297.448 476.618 297.526 476.601 297.614C476.583 297.702 476.6 297.794 476.647 297.87L478.741 301.181C478.765 301.219 478.796 301.251 478.833 301.277C478.87 301.302 478.911 301.32 478.954 301.329C478.998 301.338 479.043 301.338 479.086 301.329C479.129 301.321 479.171 301.303 479.208 301.278L482.731 299.031C482.774 299.007 482.812 298.973 482.841 298.933C482.87 298.893 482.89 298.846 482.9 298.797C482.909 298.748 482.908 298.697 482.897 298.648C482.886 298.599 482.864 298.554 482.833 298.514Z" fill="#464A5F" fill-opacity="0.5"/>
<path d="M478.868 301.675L476.291 298.33C476.264 298.292 476.229 298.26 476.188 298.236C476.147 298.211 476.101 298.194 476.053 298.186C476.004 298.177 475.955 298.178 475.907 298.187C475.859 298.196 475.813 298.214 475.773 298.24L472.027 300.55C471.944 300.601 471.887 300.68 471.867 300.77C471.847 300.86 471.866 300.953 471.92 301.03L474.283 304.337C474.338 304.412 474.423 304.464 474.519 304.484C474.615 304.503 474.716 304.489 474.801 304.442L478.786 302.192C478.832 302.166 478.871 302.13 478.9 302.089C478.93 302.047 478.949 302 478.957 301.951C478.965 301.902 478.961 301.851 478.946 301.804C478.93 301.756 478.904 301.712 478.868 301.675Z" fill="#464A5F" fill-opacity="0.5"/>
<path d="M473.353 305.619L470.782 302.268C470.723 302.195 470.635 302.145 470.538 302.13C470.44 302.115 470.339 302.134 470.257 302.185L466.503 304.494C466.421 304.546 466.364 304.625 466.344 304.714C466.324 304.804 466.343 304.897 466.396 304.974L468.754 308.28C468.808 308.356 468.892 308.41 468.989 308.429C469.086 308.449 469.187 308.433 469.271 308.385L473.246 306.136C473.294 306.111 473.335 306.077 473.367 306.037C473.399 305.996 473.421 305.949 473.431 305.9C473.441 305.851 473.439 305.8 473.426 305.751C473.412 305.703 473.388 305.658 473.353 305.619Z" fill="#464A5F" fill-opacity="0.5"/>
<path d="M467.843 308.772L465.557 305.432C465.532 305.394 465.5 305.362 465.463 305.337C465.426 305.313 465.385 305.296 465.341 305.287C465.298 305.279 465.253 305.279 465.21 305.289C465.167 305.298 465.126 305.316 465.09 305.342L461.753 307.656C461.716 307.68 461.684 307.712 461.659 307.749C461.635 307.786 461.617 307.828 461.608 307.872C461.6 307.916 461.599 307.961 461.608 308.005C461.616 308.049 461.633 308.091 461.658 308.128L463.753 311.439C463.777 311.477 463.808 311.509 463.844 311.535C463.88 311.56 463.921 311.578 463.963 311.587C464.006 311.596 464.05 311.596 464.093 311.587C464.136 311.579 464.177 311.561 464.213 311.536L467.748 309.289C467.789 309.264 467.825 309.229 467.853 309.188C467.88 309.148 467.899 309.101 467.908 309.053C467.917 309.004 467.916 308.953 467.905 308.905C467.893 308.857 467.872 308.812 467.843 308.772Z" fill="#464A5F" fill-opacity="0.5"/>
<path d="M466.259 317.456L463.977 314.104C463.925 314.031 463.847 313.981 463.76 313.966C463.673 313.951 463.584 313.97 463.511 314.021L460.172 316.331C460.099 316.383 460.048 316.462 460.03 316.551C460.013 316.641 460.029 316.734 460.077 316.811L462.169 320.119C462.219 320.193 462.293 320.246 462.379 320.265C462.464 320.285 462.554 320.27 462.629 320.224L466.157 317.974C466.201 317.95 466.239 317.918 466.269 317.877C466.299 317.837 466.32 317.79 466.329 317.74C466.339 317.69 466.338 317.639 466.326 317.59C466.314 317.541 466.291 317.495 466.259 317.456Z" fill="#464A5F" fill-opacity="0.5"/>
<path d="M460.736 321.398L458.454 318.057C458.429 318.019 458.397 317.987 458.36 317.962C458.323 317.938 458.282 317.921 458.239 317.912C458.195 317.904 458.151 317.904 458.108 317.914C458.064 317.923 458.024 317.941 457.987 317.967L454.648 320.282C454.575 320.332 454.525 320.41 454.507 320.498C454.489 320.586 454.506 320.678 454.553 320.754L456.646 324.058C456.669 324.097 456.7 324.13 456.737 324.156C456.773 324.182 456.814 324.201 456.858 324.211C456.901 324.221 456.946 324.221 456.99 324.213C457.033 324.205 457.075 324.188 457.112 324.163L460.634 321.915C460.678 321.892 460.716 321.859 460.746 321.819C460.776 321.778 460.796 321.732 460.806 321.682C460.816 321.632 460.815 321.581 460.802 321.532C460.79 321.483 460.767 321.437 460.736 321.398Z" fill="#464A5F" fill-opacity="0.5"/>
<path d="M469.417 299.573L467.232 296.772C467.162 296.685 467.057 296.626 466.939 296.608C466.822 296.589 466.701 296.612 466.602 296.672L463.38 298.608C463.281 298.669 463.212 298.762 463.189 298.868C463.165 298.973 463.189 299.083 463.254 299.174L465.254 301.941C465.32 302.031 465.424 302.094 465.541 302.116C465.659 302.138 465.782 302.118 465.883 302.06L469.261 300.151C469.315 300.124 469.363 300.087 469.4 300.042C469.438 299.998 469.465 299.947 469.48 299.892C469.494 299.838 469.496 299.782 469.485 299.727C469.474 299.672 469.451 299.619 469.417 299.573Z" fill="#464A5F" fill-opacity="0.5"/>
<path d="M463.887 303.576L461.696 299.986C461.662 299.929 461.62 299.881 461.57 299.843C461.52 299.805 461.464 299.78 461.405 299.767C461.346 299.754 461.286 299.755 461.228 299.769C461.169 299.783 461.114 299.811 461.065 299.849L457.856 302.345C457.758 302.422 457.689 302.54 457.665 302.675C457.642 302.809 457.665 302.949 457.73 303.063L459.735 306.619C459.802 306.735 459.905 306.816 460.023 306.846C460.14 306.877 460.263 306.854 460.367 306.782L463.761 304.329C463.812 304.289 463.856 304.238 463.891 304.179C463.925 304.119 463.949 304.053 463.96 303.983C463.972 303.913 463.972 303.841 463.959 303.771C463.946 303.701 463.922 303.635 463.887 303.576Z" fill="#464A5F" fill-opacity="0.5"/>
<path d="M458.372 307.098L456.154 303.898C456.086 303.799 455.982 303.732 455.866 303.71C455.75 303.689 455.631 303.715 455.533 303.784L452.333 305.996C452.234 306.065 452.165 306.172 452.142 306.293C452.118 306.413 452.142 306.539 452.207 306.642L454.203 309.805C454.269 309.908 454.372 309.98 454.49 310.005C454.607 310.031 454.73 310.008 454.831 309.942L458.209 307.76C458.264 307.729 458.312 307.687 458.35 307.637C458.389 307.586 458.416 307.528 458.432 307.466C458.447 307.404 458.449 307.339 458.439 307.276C458.429 307.212 458.406 307.152 458.372 307.098Z" fill="#464A5F" fill-opacity="0.5"/>
<path d="M454.415 310.353L451.846 307.002C451.787 306.929 451.699 306.88 451.601 306.864C451.503 306.849 451.403 306.869 451.32 306.919L447.56 309.228C447.479 309.281 447.423 309.361 447.405 309.45C447.387 309.54 447.407 309.632 447.462 309.708L449.818 313.014C449.872 313.09 449.956 313.144 450.053 313.164C450.15 313.183 450.251 313.167 450.335 313.119L454.309 310.87C454.356 310.846 454.398 310.812 454.43 310.771C454.462 310.73 454.483 310.683 454.493 310.634C454.504 310.585 454.502 310.534 454.488 310.486C454.475 310.437 454.45 310.392 454.415 310.353Z" fill="#464A5F" fill-opacity="0.5"/>
<path d="M514.353 275.968L512.418 273.22C512.307 273.072 512.143 272.972 511.96 272.941C511.776 272.909 511.587 272.948 511.432 273.049L503.721 278.325C503.572 278.431 503.47 278.588 503.435 278.765C503.4 278.942 503.435 279.126 503.532 279.279L505.388 282.084C505.441 282.162 505.509 282.228 505.589 282.28C505.668 282.332 505.757 282.368 505.851 282.385C505.944 282.403 506.041 282.403 506.134 282.384C506.227 282.365 506.316 282.329 506.395 282.276L514.172 276.929C514.321 276.822 514.423 276.663 514.457 276.484C514.49 276.305 514.453 276.121 514.353 275.968Z" fill="#464A5F" fill-opacity="0.5"/>
<path d="M463.116 312.593L460.607 309.363C460.581 309.328 460.548 309.299 460.509 309.276C460.471 309.253 460.428 309.238 460.382 309.231C460.337 309.224 460.291 309.225 460.246 309.235C460.202 309.245 460.16 309.262 460.123 309.287L451.492 314.796C451.418 314.843 451.367 314.915 451.35 314.996C451.333 315.077 451.351 315.161 451.401 315.23L453.767 318.549C453.792 318.585 453.825 318.616 453.863 318.64C453.902 318.664 453.946 318.681 453.992 318.689C454.037 318.698 454.085 318.697 454.13 318.689C454.176 318.68 454.22 318.663 454.258 318.639L463.033 313.04C463.108 312.99 463.159 312.916 463.175 312.832C463.19 312.748 463.169 312.662 463.116 312.593Z" fill="#464A5F" fill-opacity="0.5"/>
<path d="M489.934 285.778L487.671 282.546C487.619 282.473 487.54 282.423 487.45 282.405C487.359 282.388 487.266 282.404 487.188 282.452L468.07 294.871C468.032 294.895 467.999 294.925 467.974 294.961C467.948 294.997 467.93 295.037 467.921 295.08C467.912 295.123 467.912 295.167 467.92 295.209C467.929 295.252 467.947 295.292 467.972 295.329L470.325 298.815C470.35 298.852 470.383 298.885 470.421 298.91C470.46 298.936 470.504 298.953 470.549 298.962C470.595 298.971 470.642 298.971 470.688 298.962C470.734 298.953 470.777 298.935 470.815 298.909L489.881 286.243C489.951 286.188 489.996 286.108 490.006 286.021C490.016 285.934 489.99 285.847 489.934 285.778Z" fill="#464A5F" fill-opacity="0.5"/>
<path opacity="0.1" d="M489.682 273.57L479.737 258.759C479.462 258.348 479.039 258.064 478.561 257.971C478.083 257.878 477.588 257.982 477.184 258.26L449.791 277.108C449.589 277.248 449.416 277.427 449.282 277.635C449.148 277.844 449.056 278.077 449.01 278.322C448.964 278.567 448.966 278.819 449.015 279.064C449.064 279.308 449.16 279.54 449.297 279.746L459.434 294.98C459.57 295.187 459.745 295.364 459.948 295.501C460.152 295.639 460.38 295.733 460.619 295.78C460.859 295.826 461.105 295.823 461.343 295.772C461.582 295.72 461.808 295.621 462.008 295.479L489.21 276.193C489.409 276.053 489.58 275.874 489.711 275.666C489.843 275.458 489.933 275.226 489.977 274.982C490.021 274.738 490.018 274.488 489.967 274.246C489.916 274.003 489.819 273.774 489.682 273.57Z" fill="black" fill-opacity="0.5"/>
<path d="M490.459 273.568L480.317 258.757C480.035 258.347 479.604 258.064 479.117 257.971C478.63 257.878 478.126 257.981 477.714 258.258L449.815 277.122C449.608 277.26 449.43 277.439 449.292 277.647C449.154 277.855 449.059 278.088 449.011 278.334C448.964 278.579 448.965 278.831 449.015 279.076C449.065 279.321 449.163 279.554 449.304 279.76L459.611 294.98C459.75 295.187 459.929 295.364 460.137 295.501C460.344 295.639 460.577 295.733 460.821 295.78C461.065 295.826 461.316 295.823 461.559 295.772C461.802 295.72 462.033 295.621 462.237 295.479L489.993 276.192C490.195 276.05 490.368 275.87 490.501 275.662C490.634 275.453 490.724 275.221 490.768 274.977C490.811 274.733 490.806 274.483 490.753 274.242C490.7 274 490.6 273.771 490.459 273.568Z" fill="#939498"/>
<path d="M553.358 298.171L531.925 291.078L463.18 338.455L484.456 345.333C485.03 345.518 485.639 345.569 486.236 345.482C486.833 345.394 487.401 345.17 487.896 344.827L553.553 299.532C553.681 299.457 553.784 299.346 553.848 299.214C553.912 299.081 553.935 298.933 553.914 298.787C553.894 298.641 553.83 298.505 553.731 298.395C553.632 298.286 553.502 298.208 553.358 298.171Z" fill="#CEAC6A" fill-opacity="0.8"/>
<path d="M360.362 224.242C360.163 224.267 359.969 224.233 359.805 224.145C359.641 224.057 359.514 223.919 359.44 223.748C359.366 223.577 359.348 223.381 359.39 223.184C359.431 222.987 359.529 222.799 359.671 222.642C361.25 220.903 363.122 219.447 365.177 218.358L386.096 207.247C386.367 207.103 386.657 207.01 386.948 206.973C387.24 206.936 387.528 206.955 387.796 207.031C388.064 207.106 388.306 207.235 388.51 207.411C388.713 207.588 388.874 207.807 388.982 208.058C389.09 208.308 389.144 208.584 389.14 208.87C389.137 209.157 389.075 209.447 388.961 209.726C388.846 210.005 388.679 210.266 388.47 210.495C388.261 210.723 388.015 210.915 387.744 211.059L366.824 222.17C364.771 223.263 362.574 223.967 360.362 224.242Z" fill="#CEAC6A"/>
<path d="M62.851 175.752C58.6927 176.822 55.1295 179.501 52.9432 183.201C50.7568 186.9 50.1258 191.319 51.1886 195.486L97.5761 376.531C98.6484 380.696 101.326 384.267 105.022 386.459C108.718 388.652 113.131 389.287 117.291 388.226L249.881 354.254C254.039 353.183 257.603 350.504 259.789 346.805C261.975 343.105 262.606 338.687 261.544 334.519L215.156 153.474C214.084 149.309 211.406 145.739 207.71 143.546C204.014 141.354 199.602 140.718 195.441 141.779L62.851 175.752Z" fill="#4D4B51" fill-opacity="0.8"/>
<path d="M205.733 150.791L58.1621 188.602L107.001 379.214L254.572 341.403L205.733 150.791Z" fill="white"/>
<path d="M195.528 190.537L86.2168 218.545L87.9673 225.377L197.279 197.369L195.528 190.537Z" fill="#CEAC6A" fill-opacity="0.5"/>
<path d="M200.433 209.666L91.1211 237.674L92.8716 244.506L202.183 216.498L200.433 209.666Z" fill="#CEAC6A" fill-opacity="0.5"/>
<path d="M205.333 228.795L96.0215 256.803L97.772 263.635L207.084 235.627L205.333 228.795Z" fill="#CEAC6A" fill-opacity="0.5"/>
<path d="M210.062 247.242L100.75 275.25L102.5 282.082L211.812 254.074L210.062 247.242Z" fill="#CEAC6A" fill-opacity="0.5"/>
<path d="M214.96 266.371L105.648 294.379L107.399 301.211L216.711 273.203L214.96 266.371Z" fill="#CEAC6A" fill-opacity="0.5"/>
<path d="M219.864 285.5L110.553 313.508L112.303 320.34L221.615 292.332L219.864 285.5Z" fill="#CEAC6A" fill-opacity="0.8"/>
<path d="M224.765 304.631L115.453 332.639L117.204 339.471L226.515 311.463L224.765 304.631Z" fill="#CEAC6A" fill-opacity="0.8"/>
<path d="M185.205 143.453L81.9766 191.023L143.139 323.745L246.367 276.174L185.205 143.453Z" fill="#E6E6E6"/>
<path d="M182.67 173.463L106.432 208.596L108.74 213.604L184.978 178.471L182.67 173.463Z" fill="#CEAC6A" fill-opacity="0.5"/>
<path d="M188.824 186.818L112.586 221.951L114.894 226.96L191.132 191.826L188.824 186.818Z" fill="#CEAC6A" fill-opacity="0.5"/>
<path d="M194.981 200.174L118.742 235.307L121.05 240.315L197.289 205.182L194.981 200.174Z" fill="#CEAC6A" fill-opacity="0.5"/>
<path d="M201.135 213.529L124.896 248.662L127.204 253.67L203.443 218.537L201.135 213.529Z" fill="#CEAC6A" fill-opacity="0.5"/>
<path d="M207.285 226.885L131.047 262.018L133.355 267.026L209.593 231.893L207.285 226.885Z" fill="#CEAC6A" fill-opacity="0.5"/>
<path d="M213.444 240.24L137.205 275.373L139.513 280.381L215.752 245.248L213.444 240.24Z" fill="#CEAC6A" fill-opacity="0.5"/>
<path d="M219.598 253.595L143.359 288.729L145.667 293.737L221.906 258.604L219.598 253.595Z" fill="#CEAC6A" fill-opacity="0.5"/>
<path d="M154.317 142.58L141.224 145.934L140.538 143.259C140.041 141.318 138.792 139.655 137.065 138.634C135.338 137.614 133.276 137.321 131.331 137.819L117.159 141.451C115.215 141.949 113.548 143.198 112.524 144.922C111.501 146.647 111.205 148.706 111.703 150.647L112.388 153.323L99.2948 156.678C98.332 156.924 97.427 157.358 96.6317 157.953C95.8364 158.549 95.1663 159.295 94.6596 160.149C94.1528 161.003 93.8195 161.948 93.6785 162.931C93.5375 163.913 93.5917 164.913 93.838 165.874L99.0301 186.138L168.716 168.283L163.524 148.019C163.278 147.058 162.844 146.155 162.248 145.362C161.652 144.568 160.906 143.9 160.051 143.395C159.196 142.89 158.249 142.558 157.266 142.418C156.282 142.278 155.28 142.333 154.317 142.58Z" fill="#4D4B51" fill-opacity="0.8"/>
<path d="M172.63 347.581C174.406 345.557 176.228 343.458 178.614 342.133C180.791 340.924 183.513 340.399 185.796 341.633C187.639 342.629 188.81 344.586 188.171 346.682C188.04 347.156 187.81 347.597 187.497 347.976C187.183 348.355 186.792 348.663 186.351 348.881C185.915 349.056 185.442 349.118 184.976 349.061C184.51 349.004 184.067 348.83 183.686 348.556C182.944 348.065 182.355 347.21 182.447 346.289C182.544 345.32 183.27 344.557 184.042 344.037C184.951 343.471 185.915 343 186.921 342.631L190.999 340.97L207.694 334.171L226.286 326.599C226.427 326.517 226.53 326.382 226.573 326.225C226.616 326.067 226.595 325.899 226.515 325.757C226.431 325.618 226.297 325.517 226.14 325.475C225.983 325.432 225.816 325.451 225.673 325.528L188.679 340.595C187.341 341.14 185.97 341.636 184.669 342.266C183.633 342.718 182.718 343.405 181.996 344.274C180.532 346.197 181.321 348.733 183.401 349.819C185.506 350.919 187.918 350.019 188.984 347.935C189.523 346.881 189.695 345.677 189.472 344.515C189.25 343.352 188.646 342.297 187.756 341.516C185.485 339.467 182.256 339.283 179.492 340.365C176.296 341.615 173.973 344.185 171.762 346.705C171.242 347.298 172.104 348.18 172.63 347.581Z" fill="#3F3D56" fill-opacity="0.8"/>
</svg>
